<?xml version="1.0" encoding="UTF-8" standalone="no"?>
<!DOCTYPE svg PUBLIC "-//W3C//DTD SVG 1.1//EN"
 "http://www.w3.org/Graphics/SVG/1.1/DTD/svg11.dtd">
<!-- Generated by graphviz version 2.46.0 (0)
 -->
<!-- Title: G Pages: 1 -->
<svg width="792pt" height="373pt"
 viewBox="0.00 0.00 791.90 373.00" xmlns="http://www.w3.org/2000/svg" xmlns:xlink="http://www.w3.org/1999/xlink">
<g id="graph0" class="graph" transform="scale(1 1) rotate(0) translate(4 369)">
<title>G</title>
<polygon fill="white" stroke="transparent" points="-4,4 -4,-369 787.9,-369 787.9,4 -4,4"/>
<text text-anchor="middle" x="391.95" y="-13.4" font-family="Sans-Serif" font-size="32.00">Server Detail (w/ Two Clients)</text>
<!-- server &#8594; | response@0 | &#8594; client&#45;1 -->
<g id="node1" class="node">
<title>server &#8594; | response@0 | &#8594; client&#45;1</title>
<polygon fill="paleturquoise" stroke="paleturquoise" points="202.5,-152.5 202.5,-221.5 296.5,-221.5 296.5,-152.5 202.5,-152.5"/>
<text text-anchor="middle" x="249.5" y="-206.3" font-family="Sans-Serif" font-size="14.00">server →</text>
<polyline fill="none" stroke="paleturquoise" points="202.5,-198.5 296.5,-198.5 "/>
<text text-anchor="middle" x="249.5" y="-183.3" font-family="Sans-Serif" font-size="14.00">response@0</text>
<polyline fill="none" stroke="paleturquoise" points="202.5,-175.5 296.5,-175.5 "/>
<text text-anchor="middle" x="249.5" y="-160.3" font-family="Sans-Serif" font-size="14.00">→ client&#45;1</text>
</g>
<!-- @ busy &#8594; | time | &#8594; server -->
<g id="node2" class="node">
<title>@ busy &#8594; | time | &#8594; server</title>
<polygon fill="paleturquoise" stroke="paleturquoise" points="505,-295.5 505,-364.5 586,-364.5 586,-295.5 505,-295.5"/>
<text text-anchor="middle" x="545.5" y="-349.3" font-family="Sans-Serif" font-size="14.00">@ busy →</text>
<polyline fill="none" stroke="paleturquoise" points="505,-341.5 586,-341.5 "/>
<text text-anchor="middle" x="545.5" y="-326.3" font-family="Sans-Serif" font-size="14.00">time</text>
<polyline fill="none" stroke="paleturquoise" points="505,-318.5 586,-318.5 "/>
<text text-anchor="middle" x="545.5" y="-303.3" font-family="Sans-Serif" font-size="14.00">→ server</text>
</g>
<!-- server @ busy =&gt; @ busy &#45;&gt; time &#45;&gt; server =&gt; server @ ready -->
<g id="node3" class="node">
<title>server @ busy =&gt; @ busy &#45;&gt; time &#45;&gt; server =&gt; server @ ready</title>
<polygon fill="none" stroke="#0063cd" stroke-width="4" points="546,-259 545,-259 545,-258 546,-258 546,-259"/>
</g>
<!-- @ busy &#8594; | time | &#8594; server&#45;&gt;server @ busy =&gt; @ busy &#45;&gt; time &#45;&gt; server =&gt; server @ ready -->
<g id="edge2" class="edge">
<title>@ busy &#8594; | time | &#8594; server&#45;&gt;server @ busy =&gt; @ busy &#45;&gt; time &#45;&gt; server =&gt; server @ ready</title>
<path fill="none" stroke="mediumblue" stroke-width="3" d="M545.5,-295.23C545.5,-277.89 545.5,-260.15 545.5,-259.05"/>
</g>
<!-- server @ busy =&gt; @ busy &#45;&gt; time &#45;&gt; server =&gt; server @ ready&#45;&gt;server &#8594; | response@0 | &#8594; client&#45;1 -->
<g id="edge1" class="edge">
<title>server @ busy =&gt; @ busy &#45;&gt; time &#45;&gt; server =&gt; server @ ready&#45;&gt;server &#8594; | response@0 | &#8594; client&#45;1</title>
<path fill="none" stroke="mediumblue" stroke-width="3" d="M544.6,-258C532.95,-257.98 409.96,-257.05 306.17,-221.7"/>
<polygon fill="mediumblue" stroke="mediumblue" stroke-width="3" points="307.11,-218.32 296.51,-218.29 304.77,-224.92 307.11,-218.32"/>
</g>
<!-- server @ ready -->
<g id="node5" class="node">
<title>server @ ready</title>
<polygon fill="palegreen" stroke="palegreen" points="424.5,-205 314.5,-205 314.5,-169 424.5,-169 424.5,-205"/>
<text text-anchor="middle" x="369.5" y="-183.3" font-family="Sans-Serif" font-size="14.00">server @ ready</text>
</g>
<!-- server @ busy =&gt; @ busy &#45;&gt; time &#45;&gt; server =&gt; server @ ready&#45;&gt;server @ ready -->
<g id="edge4" class="edge">
<title>server @ busy =&gt; @ busy &#45;&gt; time &#45;&gt; server =&gt; server @ ready&#45;&gt;server @ ready</title>
<path fill="none" stroke="darkgreen" stroke-width="3" d="M545.45,-257.99C543.51,-257.51 480.91,-242.03 433.5,-222 425.08,-218.44 416.28,-214.17 408,-209.87"/>
<polygon fill="darkgreen" stroke="darkgreen" stroke-width="3" points="409.39,-206.64 398.92,-205.04 406.11,-212.82 409.39,-206.64"/>
</g>
<!-- server &#8594; | response@1 | &#8594; client&#45;1 -->
<g id="node6" class="node">
<title>server &#8594; | response@1 | &#8594; client&#45;1</title>
<polygon fill="paleturquoise" stroke="paleturquoise" points="442.5,-152.5 442.5,-221.5 536.5,-221.5 536.5,-152.5 442.5,-152.5"/>
<text text-anchor="middle" x="489.5" y="-206.3" font-family="Sans-Serif" font-size="14.00">server →</text>
<polyline fill="none" stroke="paleturquoise" points="442.5,-198.5 536.5,-198.5 "/>
<text text-anchor="middle" x="489.5" y="-183.3" font-family="Sans-Serif" font-size="14.00">response@1</text>
<polyline fill="none" stroke="paleturquoise" points="442.5,-175.5 536.5,-175.5 "/>
<text text-anchor="middle" x="489.5" y="-160.3" font-family="Sans-Serif" font-size="14.00">→ client&#45;1</text>
</g>
<!-- server @ busy =&gt; @ busy &#45;&gt; time &#45;&gt; server =&gt; server @ ready&#45;&gt;server &#8594; | response@1 | &#8594; client&#45;1 -->
<g id="edge5" class="edge">
<title>server @ busy =&gt; @ busy &#45;&gt; time &#45;&gt; server =&gt; server @ ready&#45;&gt;server &#8594; | response@1 | &#8594; client&#45;1</title>
<path fill="none" stroke="mediumblue" stroke-width="3" d="M545.46,-257.95C544.74,-257.05 534.51,-244.27 523,-229.87"/>
<polygon fill="mediumblue" stroke="mediumblue" stroke-width="3" points="525.5,-227.4 516.52,-221.78 520.03,-231.77 525.5,-227.4"/>
</g>
<!-- server &#8594; | response@0 | &#8594; client&#45;0 -->
<g id="node7" class="node">
<title>server &#8594; | response@0 | &#8594; client&#45;0</title>
<polygon fill="paleturquoise" stroke="paleturquoise" points="554.5,-152.5 554.5,-221.5 648.5,-221.5 648.5,-152.5 554.5,-152.5"/>
<text text-anchor="middle" x="601.5" y="-206.3" font-family="Sans-Serif" font-size="14.00">server →</text>
<polyline fill="none" stroke="paleturquoise" points="554.5,-198.5 648.5,-198.5 "/>
<text text-anchor="middle" x="601.5" y="-183.3" font-family="Sans-Serif" font-size="14.00">response@0</text>
<polyline fill="none" stroke="paleturquoise" points="554.5,-175.5 648.5,-175.5 "/>
<text text-anchor="middle" x="601.5" y="-160.3" font-family="Sans-Serif" font-size="14.00">→ client&#45;0</text>
</g>
<!-- server @ busy =&gt; @ busy &#45;&gt; time &#45;&gt; server =&gt; server @ ready&#45;&gt;server &#8594; | response@0 | &#8594; client&#45;0 -->
<g id="edge6" class="edge">
<title>server @ busy =&gt; @ busy &#45;&gt; time &#45;&gt; server =&gt; server @ ready&#45;&gt;server &#8594; | response@0 | &#8594; client&#45;0</title>
<path fill="none" stroke="mediumblue" stroke-width="3" d="M545.54,-257.95C546.26,-257.05 556.49,-244.27 568,-229.87"/>
<polygon fill="mediumblue" stroke="mediumblue" stroke-width="3" points="570.97,-231.77 574.48,-221.78 565.5,-227.4 570.97,-231.77"/>
</g>
<!-- server &#8594; | response@1 | &#8594; client&#45;0 -->
<g id="node8" class="node">
<title>server &#8594; | response@1 | &#8594; client&#45;0</title>
<polygon fill="paleturquoise" stroke="paleturquoise" points="666.5,-152.5 666.5,-221.5 760.5,-221.5 760.5,-152.5 666.5,-152.5"/>
<text text-anchor="middle" x="713.5" y="-206.3" font-family="Sans-Serif" font-size="14.00">server →</text>
<polyline fill="none" stroke="paleturquoise" points="666.5,-198.5 760.5,-198.5 "/>
<text text-anchor="middle" x="713.5" y="-183.3" font-family="Sans-Serif" font-size="14.00">response@1</text>
<polyline fill="none" stroke="paleturquoise" points="666.5,-175.5 760.5,-175.5 "/>
<text text-anchor="middle" x="713.5" y="-160.3" font-family="Sans-Serif" font-size="14.00">→ client&#45;0</text>
</g>
<!-- server @ busy =&gt; @ busy &#45;&gt; time &#45;&gt; server =&gt; server @ ready&#45;&gt;server &#8594; | response@1 | &#8594; client&#45;0 -->
<g id="edge7" class="edge">
<title>server @ busy =&gt; @ busy &#45;&gt; time &#45;&gt; server =&gt; server @ ready&#45;&gt;server &#8594; | response@1 | &#8594; client&#45;0</title>
<path fill="none" stroke="mediumblue" stroke-width="3" d="M545.55,-257.99C547.4,-257.58 603.95,-244.89 657.08,-221.83"/>
<polygon fill="mediumblue" stroke="mediumblue" stroke-width="3" points="658.56,-225 666.26,-217.72 655.7,-218.61 658.56,-225"/>
</g>
<!-- server @ busy -->
<g id="node4" class="node">
<title>server @ busy</title>
<polygon fill="palegreen" stroke="palegreen" points="575,-79 470,-79 470,-43 575,-43 575,-79"/>
<text text-anchor="middle" x="522.5" y="-57.3" font-family="Sans-Serif" font-size="14.00">server @ busy</text>
</g>
<!-- server @ busy&#45;&gt;server @ busy =&gt; @ busy &#45;&gt; time &#45;&gt; server =&gt; server @ ready -->
<g id="edge3" class="edge">
<title>server @ busy&#45;&gt;server @ busy =&gt; @ busy &#45;&gt; time &#45;&gt; server =&gt; server @ ready</title>
<path fill="none" stroke="darkgreen" stroke-width="3" d="M575.19,-64.4C633.72,-70.23 725.73,-89.46 769.5,-152 787.34,-177.49 789.68,-198.32 769.5,-222 737.82,-259.18 557.3,-258.11 546.05,-258.01"/>
</g>
<!-- server @ ready =&gt; server @ busy -->
<g id="node10" class="node">
<title>server @ ready =&gt; server @ busy</title>
<polygon fill="none" stroke="#0063cd" stroke-width="4" points="257,-116 256,-116 256,-115 257,-115 257,-116"/>
</g>
<!-- server @ ready&#45;&gt;server @ ready =&gt; server @ busy -->
<g id="edge9" class="edge">
<title>server @ ready&#45;&gt;server @ ready =&gt; server @ busy</title>
<path fill="none" stroke="darkgreen" stroke-width="3" d="M341.86,-168.88C309.45,-148.8 259.73,-118 256.65,-116.09"/>
</g>
<!-- client&#45;0 &#8594; | request@0 | &#8594; server -->
<g id="node9" class="node">
<title>client&#45;0 &#8594; | request@0 | &#8594; server</title>
<polygon fill="paleturquoise" stroke="paleturquoise" points="0,-152.5 0,-221.5 83,-221.5 83,-152.5 0,-152.5"/>
<text text-anchor="middle" x="41.5" y="-206.3" font-family="Sans-Serif" font-size="14.00">client&#45;0 →</text>
<polyline fill="none" stroke="paleturquoise" points="0,-198.5 83,-198.5 "/>
<text text-anchor="middle" x="41.5" y="-183.3" font-family="Sans-Serif" font-size="14.00">request@0</text>
<polyline fill="none" stroke="paleturquoise" points="0,-175.5 83,-175.5 "/>
<text text-anchor="middle" x="41.5" y="-160.3" font-family="Sans-Serif" font-size="14.00">→ server</text>
</g>
<!-- client&#45;0 &#8594; | request@0 | &#8594; server&#45;&gt;server @ ready =&gt; server @ busy -->
<g id="edge8" class="edge">
<title>client&#45;0 &#8594; | request@0 | &#8594; server&#45;&gt;server @ ready =&gt; server @ busy</title>
<path fill="none" stroke="mediumblue" stroke-width="3" d="M83.12,-156.05C85.9,-154.57 88.7,-153.2 91.5,-152 146.92,-128.18 219.83,-119.39 246.32,-116.86"/>
<polygon fill="mediumblue" stroke="mediumblue" stroke-width="3" points="246.76,-120.34 256.43,-116 246.17,-113.36 246.76,-120.34"/>
</g>
<!-- server @ ready =&gt; server @ busy&#45;&gt;server @ busy -->
<g id="edge10" class="edge">
<title>server @ ready =&gt; server @ busy&#45;&gt;server @ busy</title>
<path fill="none" stroke="darkgreen" stroke-width="3" d="M256.55,-114.99C259.34,-114.43 381.78,-90.04 459.54,-74.55"/>
<polygon fill="darkgreen" stroke="darkgreen" stroke-width="3" points="460.6,-77.9 469.73,-72.52 459.23,-71.04 460.6,-77.9"/>
</g>
<!-- client&#45;1 &#8594; | request@0 | &#8594; server -->
<g id="node11" class="node">
<title>client&#45;1 &#8594; | request@0 | &#8594; server</title>
<polygon fill="paleturquoise" stroke="paleturquoise" points="101,-152.5 101,-221.5 184,-221.5 184,-152.5 101,-152.5"/>
<text text-anchor="middle" x="142.5" y="-206.3" font-family="Sans-Serif" font-size="14.00">client&#45;1 →</text>
<polyline fill="none" stroke="paleturquoise" points="101,-198.5 184,-198.5 "/>
<text text-anchor="middle" x="142.5" y="-183.3" font-family="Sans-Serif" font-size="14.00">request@0</text>
<polyline fill="none" stroke="paleturquoise" points="101,-175.5 184,-175.5 "/>
<text text-anchor="middle" x="142.5" y="-160.3" font-family="Sans-Serif" font-size="14.00">→ server</text>
</g>
<!-- client&#45;1 &#8594; | request@0 | &#8594; server&#45;&gt;server @ ready =&gt; server @ busy -->
<g id="edge11" class="edge">
<title>client&#45;1 &#8594; | request@0 | &#8594; server&#45;&gt;server @ ready =&gt; server @ busy</title>
<path fill="none" stroke="mediumblue" stroke-width="3" d="M184.1,-157.93C187.26,-155.9 190.42,-153.9 193.5,-152 212.39,-140.32 235.15,-127.65 247.48,-120.9"/>
<polygon fill="mediumblue" stroke="mediumblue" stroke-width="3" points="249.28,-123.9 256.4,-116.06 245.94,-117.75 249.28,-123.9"/>
</g>
</g>
</svg>
