<?xml version="1.0" encoding="UTF-8" standalone="no"?>
<!DOCTYPE svg PUBLIC "-//W3C//DTD SVG 1.1//EN"
 "http://www.w3.org/Graphics/SVG/1.1/DTD/svg11.dtd">
<!-- Generated by graphviz version 2.44.1 (0)
 -->
<!-- Title: G Pages: 1 -->
<svg width="955pt" height="836pt"
 viewBox="0.00 0.00 954.50 836.00" xmlns="http://www.w3.org/2000/svg" xmlns:xlink="http://www.w3.org/1999/xlink">
<g id="graph0" class="graph" transform="scale(1 1) rotate(0) translate(4 832)">
<title>G</title>
<polygon fill="white" stroke="transparent" points="-4,4 -4,-832 950.5,-832 950.5,4 -4,4"/>
<text text-anchor="middle" x="473.25" y="-13.4" font-family="Sans-Serif" font-size="32.00">Detail (w/ One Client)</text>
<!-- client &rarr; | confirm! | &rarr; client&#45;0 -->
<g id="node1" class="node">
<title>client &rarr; | confirm! | &rarr; client&#45;0</title>
<polygon fill="darkturquoise" stroke="darkturquoise" points="290.5,-758.5 290.5,-827.5 368.5,-827.5 368.5,-758.5 290.5,-758.5"/>
<text text-anchor="middle" x="329.5" y="-812.3" font-family="Sans-Serif" font-size="14.00">client →</text>
<polyline fill="none" stroke="darkturquoise" points="290.5,-804.5 368.5,-804.5 "/>
<text text-anchor="middle" x="329.5" y="-789.3" font-family="Sans-Serif" font-size="14.00">confirm!</text>
<polyline fill="none" stroke="darkturquoise" points="290.5,-781.5 368.5,-781.5 "/>
<text text-anchor="middle" x="329.5" y="-766.3" font-family="Sans-Serif" font-size="14.00">→ client&#45;0</text>
</g>
<!-- client @ idle , client&#45;0 @ check , server @ ready =&gt; client @ idle , client&#45;0 @ idle , server @ ready -->
<g id="node2" class="node">
<title>client @ idle , client&#45;0 @ check , server @ ready =&gt; client @ idle , client&#45;0 @ idle , server @ ready</title>
<polygon fill="none" stroke="#0063cd" stroke-width="4" points="330,-722 329,-722 329,-721 330,-721 330,-722"/>
</g>
<!-- client &rarr; | confirm! | &rarr; client&#45;0&#45;&gt;client @ idle , client&#45;0 @ check , server @ ready =&gt; client @ idle , client&#45;0 @ idle , server @ ready -->
<g id="edge1" class="edge">
<title>client &rarr; | confirm! | &rarr; client&#45;0&#45;&gt;client @ idle , client&#45;0 @ check , server @ ready =&gt; client @ idle , client&#45;0 @ idle , server @ ready</title>
<path fill="none" stroke="mediumblue" stroke-width="3" d="M329.5,-758.23C329.5,-748.75 329.5,-739.14 329.5,-732.21"/>
<polygon fill="mediumblue" stroke="mediumblue" stroke-width="3" points="333,-732.05 329.5,-722.05 326,-732.05 333,-732.05"/>
</g>
<!-- client @ idle , client&#45;0 @ idle , server @ ready -->
<g id="node4" class="node">
<title>client @ idle , client&#45;0 @ idle , server @ ready</title>
<polygon fill="palegreen" stroke="palegreen" points="484.5,-676.5 374.5,-676.5 374.5,-623.5 484.5,-623.5 484.5,-676.5"/>
<text text-anchor="middle" x="429.5" y="-661.3" font-family="Sans-Serif" font-size="14.00">client @ idle</text>
<text text-anchor="middle" x="429.5" y="-646.3" font-family="Sans-Serif" font-size="14.00">client&#45;0 @ idle</text>
<text text-anchor="middle" x="429.5" y="-631.3" font-family="Sans-Serif" font-size="14.00">server @ ready</text>
</g>
<!-- client @ idle , client&#45;0 @ check , server @ ready =&gt; client @ idle , client&#45;0 @ idle , server @ ready&#45;&gt;client @ idle , client&#45;0 @ idle , server @ ready -->
<g id="edge3" class="edge">
<title>client @ idle , client&#45;0 @ check , server @ ready =&gt; client @ idle , client&#45;0 @ idle , server @ ready&#45;&gt;client @ idle , client&#45;0 @ idle , server @ ready</title>
<path fill="none" stroke="darkgreen" stroke-width="3" d="M329.57,-720.95C331.17,-719.83 358.83,-700.47 384.64,-682.4"/>
<polygon fill="darkgreen" stroke="darkgreen" stroke-width="3" points="386.74,-685.2 392.92,-676.6 382.73,-679.47 386.74,-685.2"/>
</g>
<!-- client @ idle , client&#45;0 @ check , server @ ready -->
<g id="node3" class="node">
<title>client @ idle , client&#45;0 @ check , server @ ready</title>
<polygon fill="palegreen" stroke="palegreen" points="232,-533.5 115,-533.5 115,-480.5 232,-480.5 232,-533.5"/>
<text text-anchor="middle" x="173.5" y="-518.3" font-family="Sans-Serif" font-size="14.00">client @ idle</text>
<text text-anchor="middle" x="173.5" y="-503.3" font-family="Sans-Serif" font-size="14.00">client&#45;0 @ check</text>
<text text-anchor="middle" x="173.5" y="-488.3" font-family="Sans-Serif" font-size="14.00">server @ ready</text>
</g>
<!-- client @ idle , client&#45;0 @ check , server @ ready&#45;&gt;client @ idle , client&#45;0 @ check , server @ ready =&gt; client @ idle , client&#45;0 @ idle , server @ ready -->
<g id="edge2" class="edge">
<title>client @ idle , client&#45;0 @ check , server @ ready&#45;&gt;client @ idle , client&#45;0 @ check , server @ ready =&gt; client @ idle , client&#45;0 @ idle , server @ ready</title>
<path fill="none" stroke="darkgreen" stroke-width="3" d="M181.15,-533.77C193.33,-571.07 220.26,-640.49 263.5,-685 286.05,-708.22 326.85,-720.24 329.38,-720.96"/>
</g>
<!-- client @ idle , client&#45;0 @ check , server @ ready =&gt; client @ idle , client&#45;0 @ check , server @ ready -->
<g id="node6" class="node">
<title>client @ idle , client&#45;0 @ check , server @ ready =&gt; client @ idle , client&#45;0 @ check , server @ ready</title>
<polygon fill="none" stroke="#0063cd" stroke-width="4" points="174,-436 173,-436 173,-435 174,-435 174,-436"/>
</g>
<!-- client @ idle , client&#45;0 @ check , server @ ready&#45;&gt;client @ idle , client&#45;0 @ check , server @ ready =&gt; client @ idle , client&#45;0 @ check , server @ ready -->
<g id="edge5" class="edge">
<title>client @ idle , client&#45;0 @ check , server @ ready&#45;&gt;client @ idle , client&#45;0 @ check , server @ ready =&gt; client @ idle , client&#45;0 @ check , server @ ready</title>
<path fill="none" stroke="darkgreen" stroke-width="3" d="M166.97,-480.33C166.04,-460.98 168.06,-437.52 173.01,-436.07"/>
</g>
<!-- client @ idle , client&#45;0 @ idle , server @ ready =&gt; @ idle &#45;&gt; time &#45;&gt; client&#45;0 =&gt; client @ idle , client&#45;0 @ check , server @ ready -->
<g id="node10" class="node">
<title>client @ idle , client&#45;0 @ idle , server @ ready =&gt; @ idle &#45;&gt; time &#45;&gt; client&#45;0 =&gt; client @ idle , client&#45;0 @ check , server @ ready</title>
<polygon fill="none" stroke="#0063cd" stroke-width="4" points="301,-579 300,-579 300,-578 301,-578 301,-579"/>
</g>
<!-- client @ idle , client&#45;0 @ idle , server @ ready&#45;&gt;client @ idle , client&#45;0 @ idle , server @ ready =&gt; @ idle &#45;&gt; time &#45;&gt; client&#45;0 =&gt; client @ idle , client&#45;0 @ check , server @ ready -->
<g id="edge11" class="edge">
<title>client @ idle , client&#45;0 @ idle , server @ ready&#45;&gt;client @ idle , client&#45;0 @ idle , server @ ready =&gt; @ idle &#45;&gt; time &#45;&gt; client&#45;0 =&gt; client @ idle , client&#45;0 @ check , server @ ready</title>
<path fill="none" stroke="darkgreen" stroke-width="3" d="M382.2,-623.33C346.53,-603.98 303.3,-580.52 300.63,-579.07"/>
</g>
<!-- client @ idle , client&#45;0 @ idle , server @ ready =&gt; @ idle &#45;&gt; time &#45;&gt; client&#45;0 =&gt; client @ idle , client&#45;0 @ wait , server @ ready -->
<g id="node12" class="node">
<title>client @ idle , client&#45;0 @ idle , server @ ready =&gt; @ idle &#45;&gt; time &#45;&gt; client&#45;0 =&gt; client @ idle , client&#45;0 @ wait , server @ ready</title>
<polygon fill="none" stroke="#0063cd" stroke-width="4" points="452,-579 451,-579 451,-578 452,-578 452,-579"/>
</g>
<!-- client @ idle , client&#45;0 @ idle , server @ ready&#45;&gt;client @ idle , client&#45;0 @ idle , server @ ready =&gt; @ idle &#45;&gt; time &#45;&gt; client&#45;0 =&gt; client @ idle , client&#45;0 @ wait , server @ ready -->
<g id="edge15" class="edge">
<title>client @ idle , client&#45;0 @ idle , server @ ready&#45;&gt;client @ idle , client&#45;0 @ idle , server @ ready =&gt; @ idle &#45;&gt; time &#45;&gt; client&#45;0 =&gt; client @ idle , client&#45;0 @ wait , server @ ready</title>
<path fill="none" stroke="darkgreen" stroke-width="3" d="M437.57,-623.33C443.65,-603.98 451.02,-580.52 451.48,-579.07"/>
</g>
<!-- @ check &rarr; | time | &rarr; client&#45;0 -->
<g id="node5" class="node">
<title>@ check &rarr; | time | &rarr; client&#45;0</title>
<polygon fill="paleturquoise" stroke="paleturquoise" points="346.5,-472.5 346.5,-541.5 434.5,-541.5 434.5,-472.5 346.5,-472.5"/>
<text text-anchor="middle" x="390.5" y="-526.3" font-family="Sans-Serif" font-size="14.00">@ check →</text>
<polyline fill="none" stroke="paleturquoise" points="346.5,-518.5 434.5,-518.5 "/>
<text text-anchor="middle" x="390.5" y="-503.3" font-family="Sans-Serif" font-size="14.00">time</text>
<polyline fill="none" stroke="paleturquoise" points="346.5,-495.5 434.5,-495.5 "/>
<text text-anchor="middle" x="390.5" y="-480.3" font-family="Sans-Serif" font-size="14.00">→ client&#45;0</text>
</g>
<!-- @ check &rarr; | time | &rarr; client&#45;0&#45;&gt;client @ idle , client&#45;0 @ check , server @ ready =&gt; client @ idle , client&#45;0 @ check , server @ ready -->
<g id="edge4" class="edge">
<title>@ check &rarr; | time | &rarr; client&#45;0&#45;&gt;client @ idle , client&#45;0 @ check , server @ ready =&gt; client @ idle , client&#45;0 @ check , server @ ready</title>
<path fill="none" stroke="mediumblue" stroke-width="3" d="M346.29,-476.08C343.37,-474.59 340.43,-473.21 337.5,-472 282.11,-449.02 209.83,-439.73 183.58,-436.96"/>
<polygon fill="mediumblue" stroke="mediumblue" stroke-width="3" points="183.86,-433.47 173.57,-436.01 183.19,-440.44 183.86,-433.47"/>
</g>
<!-- client @ idle , client&#45;0 @ check , server @ ready =&gt; client @ idle , client&#45;0 @ check , server @ ready&#45;&gt;client @ idle , client&#45;0 @ check , server @ ready -->
<g id="edge6" class="edge">
<title>client @ idle , client&#45;0 @ check , server @ ready =&gt; client @ idle , client&#45;0 @ check , server @ ready&#45;&gt;client @ idle , client&#45;0 @ check , server @ ready</title>
<path fill="none" stroke="darkgreen" stroke-width="3" d="M173.99,-436.07C178.09,-437.27 180.18,-453.56 180.25,-470.12"/>
<polygon fill="darkgreen" stroke="darkgreen" stroke-width="3" points="176.74,-470.26 180.03,-480.33 183.74,-470.41 176.74,-470.26"/>
</g>
<!-- client&#45;0 &rarr; | check | &rarr; client -->
<g id="node7" class="node">
<title>client&#45;0 &rarr; | check | &rarr; client</title>
<polygon fill="paleturquoise" stroke="paleturquoise" points="250.5,-472.5 250.5,-541.5 328.5,-541.5 328.5,-472.5 250.5,-472.5"/>
<text text-anchor="middle" x="289.5" y="-526.3" font-family="Sans-Serif" font-size="14.00">client&#45;0 →</text>
<polyline fill="none" stroke="paleturquoise" points="250.5,-518.5 328.5,-518.5 "/>
<text text-anchor="middle" x="289.5" y="-503.3" font-family="Sans-Serif" font-size="14.00">check</text>
<polyline fill="none" stroke="paleturquoise" points="250.5,-495.5 328.5,-495.5 "/>
<text text-anchor="middle" x="289.5" y="-480.3" font-family="Sans-Serif" font-size="14.00">→ client</text>
</g>
<!-- client&#45;0 &rarr; | check | &rarr; client&#45;&gt;client @ idle , client&#45;0 @ check , server @ ready =&gt; client @ idle , client&#45;0 @ check , server @ ready -->
<g id="edge7" class="edge">
<title>client&#45;0 &rarr; | check | &rarr; client&#45;&gt;client @ idle , client&#45;0 @ check , server @ ready =&gt; client @ idle , client&#45;0 @ check , server @ ready</title>
<path fill="none" stroke="mediumblue" stroke-width="3" d="M250.45,-478.32C247.11,-476.14 243.77,-474 240.5,-472 220.43,-459.7 195.83,-447.08 182.73,-440.54"/>
<polygon fill="mediumblue" stroke="mediumblue" stroke-width="3" points="184.13,-437.33 173.61,-436.05 181.04,-443.61 184.13,-437.33"/>
</g>
<!-- client&#45;0 &rarr; | check&rArr;check | &rarr; client -->
<g id="node8" class="node">
<title>client&#45;0 &rarr; | check&rArr;check | &rarr; client</title>
<polygon fill="paleturquoise" stroke="paleturquoise" points="0,-472.5 0,-541.5 97,-541.5 97,-472.5 0,-472.5"/>
<text text-anchor="middle" x="48.5" y="-526.3" font-family="Sans-Serif" font-size="14.00">client&#45;0 →</text>
<polyline fill="none" stroke="paleturquoise" points="0,-518.5 97,-518.5 "/>
<text text-anchor="middle" x="48.5" y="-503.3" font-family="Sans-Serif" font-size="14.00">check⇒check</text>
<polyline fill="none" stroke="paleturquoise" points="0,-495.5 97,-495.5 "/>
<text text-anchor="middle" x="48.5" y="-480.3" font-family="Sans-Serif" font-size="14.00">→ client</text>
</g>
<!-- client&#45;0 &rarr; | check&rArr;check | &rarr; client&#45;&gt;client @ idle , client&#45;0 @ check , server @ ready =&gt; client @ idle , client&#45;0 @ check , server @ ready -->
<g id="edge8" class="edge">
<title>client&#45;0 &rarr; | check&rArr;check | &rarr; client&#45;&gt;client @ idle , client&#45;0 @ check , server @ ready =&gt; client @ idle , client&#45;0 @ check , server @ ready</title>
<path fill="none" stroke="mediumblue" stroke-width="3" d="M97.22,-476.72C100.01,-475.11 102.79,-473.53 105.5,-472 126.25,-460.33 151.07,-447.46 164.24,-440.71"/>
<polygon fill="mediumblue" stroke="mediumblue" stroke-width="3" points="166.07,-443.71 173.39,-436.06 162.89,-437.47 166.07,-443.71"/>
</g>
<!-- @ idle &rarr; | time | &rarr; client&#45;0 -->
<g id="node9" class="node">
<title>@ idle &rarr; | time | &rarr; client&#45;0</title>
<polygon fill="paleturquoise" stroke="paleturquoise" points="272.5,-615.5 272.5,-684.5 350.5,-684.5 350.5,-615.5 272.5,-615.5"/>
<text text-anchor="middle" x="311.5" y="-669.3" font-family="Sans-Serif" font-size="14.00">@ idle →</text>
<polyline fill="none" stroke="paleturquoise" points="272.5,-661.5 350.5,-661.5 "/>
<text text-anchor="middle" x="311.5" y="-646.3" font-family="Sans-Serif" font-size="14.00">time</text>
<polyline fill="none" stroke="paleturquoise" points="272.5,-638.5 350.5,-638.5 "/>
<text text-anchor="middle" x="311.5" y="-623.3" font-family="Sans-Serif" font-size="14.00">→ client&#45;0</text>
</g>
<!-- @ idle &rarr; | time | &rarr; client&#45;0&#45;&gt;client @ idle , client&#45;0 @ idle , server @ ready =&gt; @ idle &#45;&gt; time &#45;&gt; client&#45;0 =&gt; client @ idle , client&#45;0 @ check , server @ ready -->
<g id="edge10" class="edge">
<title>@ idle &rarr; | time | &rarr; client&#45;0&#45;&gt;client @ idle , client&#45;0 @ idle , server @ ready =&gt; @ idle &#45;&gt; time &#45;&gt; client&#45;0 =&gt; client @ idle , client&#45;0 @ check , server @ ready</title>
<path fill="none" stroke="mediumblue" stroke-width="3" d="M306.19,-615.23C303.47,-597.89 300.68,-580.15 300.51,-579.05"/>
</g>
<!-- @ idle &rarr; | time | &rarr; client&#45;0&#45;&gt;client @ idle , client&#45;0 @ idle , server @ ready =&gt; @ idle &#45;&gt; time &#45;&gt; client&#45;0 =&gt; client @ idle , client&#45;0 @ wait , server @ ready -->
<g id="edge14" class="edge">
<title>@ idle &rarr; | time | &rarr; client&#45;0&#45;&gt;client @ idle , client&#45;0 @ idle , server @ ready =&gt; @ idle &#45;&gt; time &#45;&gt; client&#45;0 =&gt; client @ idle , client&#45;0 @ wait , server @ ready</title>
<path fill="none" stroke="mediumblue" stroke-width="3" d="M350.58,-623.35C355.53,-620.41 360.58,-617.55 365.5,-615 401.12,-596.49 448.44,-580.06 451.36,-579.05"/>
</g>
<!-- client @ idle , client&#45;0 @ idle , server @ ready =&gt; @ idle &#45;&gt; time &#45;&gt; client&#45;0 =&gt; client @ idle , client&#45;0 @ check , server @ ready&#45;&gt;client @ idle , client&#45;0 @ check , server @ ready -->
<g id="edge12" class="edge">
<title>client @ idle , client&#45;0 @ idle , server @ ready =&gt; @ idle &#45;&gt; time &#45;&gt; client&#45;0 =&gt; client @ idle , client&#45;0 @ check , server @ ready&#45;&gt;client @ idle , client&#45;0 @ check , server @ ready</title>
<path fill="none" stroke="darkgreen" stroke-width="3" d="M300.41,-577.95C298.35,-576.81 262.02,-556.79 228.77,-538.46"/>
<polygon fill="darkgreen" stroke="darkgreen" stroke-width="3" points="230.4,-535.36 219.95,-533.6 227.02,-541.5 230.4,-535.36"/>
</g>
<!-- client @ idle , client&#45;0 @ idle , server @ ready =&gt; @ idle &#45;&gt; time &#45;&gt; client&#45;0 =&gt; client @ idle , client&#45;0 @ check , server @ ready&#45;&gt;client&#45;0 &rarr; | check | &rarr; client -->
<g id="edge9" class="edge">
<title>client @ idle , client&#45;0 @ idle , server @ ready =&gt; @ idle &#45;&gt; time &#45;&gt; client&#45;0 =&gt; client @ idle , client&#45;0 @ check , server @ ready&#45;&gt;client&#45;0 &rarr; | check | &rarr; client</title>
<path fill="none" stroke="mediumblue" stroke-width="3" d="M300.49,-577.95C300.36,-577.09 298.52,-565.43 296.39,-551.86"/>
<polygon fill="mediumblue" stroke="mediumblue" stroke-width="3" points="299.82,-551.11 294.81,-541.78 292.9,-552.2 299.82,-551.11"/>
</g>
<!-- client&#45;0 &rarr; | request@0 | &rarr; server -->
<g id="node11" class="node">
<title>client&#45;0 &rarr; | request@0 | &rarr; server</title>
<polygon fill="paleturquoise" stroke="paleturquoise" points="494,-472.5 494,-541.5 577,-541.5 577,-472.5 494,-472.5"/>
<text text-anchor="middle" x="535.5" y="-526.3" font-family="Sans-Serif" font-size="14.00">client&#45;0 →</text>
<polyline fill="none" stroke="paleturquoise" points="494,-518.5 577,-518.5 "/>
<text text-anchor="middle" x="535.5" y="-503.3" font-family="Sans-Serif" font-size="14.00">request@0</text>
<polyline fill="none" stroke="paleturquoise" points="494,-495.5 577,-495.5 "/>
<text text-anchor="middle" x="535.5" y="-480.3" font-family="Sans-Serif" font-size="14.00">→ server</text>
</g>
<!-- client @ idle , client&#45;0 @ wait , server @ ready =&gt; client @ idle , client&#45;0 @ wait , server @ busy -->
<g id="node22" class="node">
<title>client @ idle , client&#45;0 @ wait , server @ ready =&gt; client @ idle , client&#45;0 @ wait , server @ busy</title>
<polygon fill="none" stroke="#0063cd" stroke-width="4" points="539,-436 538,-436 538,-435 539,-435 539,-436"/>
</g>
<!-- client&#45;0 &rarr; | request@0 | &rarr; server&#45;&gt;client @ idle , client&#45;0 @ wait , server @ ready =&gt; client @ idle , client&#45;0 @ wait , server @ busy -->
<g id="edge29" class="edge">
<title>client&#45;0 &rarr; | request@0 | &rarr; server&#45;&gt;client @ idle , client&#45;0 @ wait , server @ ready =&gt; client @ idle , client&#45;0 @ wait , server @ busy</title>
<path fill="none" stroke="mediumblue" stroke-width="3" d="M536.95,-472.23C537.35,-462.75 537.77,-453.14 538.06,-446.21"/>
<polygon fill="mediumblue" stroke="mediumblue" stroke-width="3" points="541.57,-446.19 538.5,-436.05 534.57,-445.89 541.57,-446.19"/>
</g>
<!-- client @ idle , client&#45;0 @ idle , server @ ready =&gt; @ idle &#45;&gt; time &#45;&gt; client&#45;0 =&gt; client @ idle , client&#45;0 @ wait , server @ ready&#45;&gt;client&#45;0 &rarr; | request@0 | &rarr; server -->
<g id="edge13" class="edge">
<title>client @ idle , client&#45;0 @ idle , server @ ready =&gt; @ idle &#45;&gt; time &#45;&gt; client&#45;0 =&gt; client @ idle , client&#45;0 @ wait , server @ ready&#45;&gt;client&#45;0 &rarr; | request@0 | &rarr; server</title>
<path fill="none" stroke="mediumblue" stroke-width="3" d="M451.56,-577.95C452.68,-577.01 469.13,-563.31 487.18,-548.27"/>
<polygon fill="mediumblue" stroke="mediumblue" stroke-width="3" points="489.53,-550.87 494.97,-541.78 485.05,-545.49 489.53,-550.87"/>
</g>
<!-- client @ idle , client&#45;0 @ wait , server @ ready -->
<g id="node13" class="node">
<title>client @ idle , client&#45;0 @ wait , server @ ready</title>
<polygon fill="palegreen" stroke="palegreen" points="638.5,-247.5 528.5,-247.5 528.5,-194.5 638.5,-194.5 638.5,-247.5"/>
<text text-anchor="middle" x="583.5" y="-232.3" font-family="Sans-Serif" font-size="14.00">client @ idle</text>
<text text-anchor="middle" x="583.5" y="-217.3" font-family="Sans-Serif" font-size="14.00">client&#45;0 @ wait</text>
<text text-anchor="middle" x="583.5" y="-202.3" font-family="Sans-Serif" font-size="14.00">server @ ready</text>
</g>
<!-- client @ idle , client&#45;0 @ idle , server @ ready =&gt; @ idle &#45;&gt; time &#45;&gt; client&#45;0 =&gt; client @ idle , client&#45;0 @ wait , server @ ready&#45;&gt;client @ idle , client&#45;0 @ wait , server @ ready -->
<g id="edge16" class="edge">
<title>client @ idle , client&#45;0 @ idle , server @ ready =&gt; @ idle &#45;&gt; time &#45;&gt; client&#45;0 =&gt; client @ idle , client&#45;0 @ wait , server @ ready&#45;&gt;client @ idle , client&#45;0 @ wait , server @ ready</title>
<path fill="none" stroke="darkgreen" stroke-width="3" d="M451.51,-577.96C452.02,-576.15 468.42,-517.83 484.5,-472 511.76,-394.32 548.44,-305.03 568.63,-256.98"/>
<polygon fill="darkgreen" stroke="darkgreen" stroke-width="3" points="571.9,-258.23 572.56,-247.66 565.45,-255.52 571.9,-258.23"/>
</g>
<!-- client @ idle , client&#45;0 @ wait , server @ ready&#45;&gt;client @ idle , client&#45;0 @ wait , server @ ready =&gt; client @ idle , client&#45;0 @ wait , server @ busy -->
<g id="edge30" class="edge">
<title>client @ idle , client&#45;0 @ wait , server @ ready&#45;&gt;client @ idle , client&#45;0 @ wait , server @ ready =&gt; client @ idle , client&#45;0 @ wait , server @ busy</title>
<path fill="none" stroke="darkgreen" stroke-width="3" d="M576.75,-247.85C571.22,-269.45 563.38,-301.13 557.5,-329 547.78,-375.1 538.79,-433.15 538.51,-434.96"/>
</g>
<!-- client @ idle , client&#45;0 @ wait , server @ ready =&gt; client @ idle , client&#45;0 @ wait , server @ ready -->
<g id="node23" class="node">
<title>client @ idle , client&#45;0 @ wait , server @ ready =&gt; client @ idle , client&#45;0 @ wait , server @ ready</title>
<polygon fill="none" stroke="#0063cd" stroke-width="4" points="584,-150 583,-150 583,-149 584,-149 584,-150"/>
</g>
<!-- client @ idle , client&#45;0 @ wait , server @ ready&#45;&gt;client @ idle , client&#45;0 @ wait , server @ ready =&gt; client @ idle , client&#45;0 @ wait , server @ ready -->
<g id="edge33" class="edge">
<title>client @ idle , client&#45;0 @ wait , server @ ready&#45;&gt;client @ idle , client&#45;0 @ wait , server @ ready =&gt; client @ idle , client&#45;0 @ wait , server @ ready</title>
<path fill="none" stroke="darkgreen" stroke-width="3" d="M576.97,-194.33C576.04,-174.98 578.06,-151.52 583.01,-150.07"/>
</g>
<!-- client @ idle , client&#45;0 @ wait , server @ ready =&gt; @ wait &#45;&gt; time &#45;&gt; client&#45;0 =&gt; client @ idle , client&#45;0 @ wait , server @ ready -->
<g id="node25" class="node">
<title>client @ idle , client&#45;0 @ wait , server @ ready =&gt; @ wait &#45;&gt; time &#45;&gt; client&#45;0 =&gt; client @ idle , client&#45;0 @ wait , server @ ready</title>
<polygon fill="none" stroke="#0063cd" stroke-width="4" points="533,-150 532,-150 532,-149 533,-149 533,-150"/>
</g>
<!-- client @ idle , client&#45;0 @ wait , server @ ready&#45;&gt;client @ idle , client&#45;0 @ wait , server @ ready =&gt; @ wait &#45;&gt; time &#45;&gt; client&#45;0 =&gt; client @ idle , client&#45;0 @ wait , server @ ready -->
<g id="edge37" class="edge">
<title>client @ idle , client&#45;0 @ wait , server @ ready&#45;&gt;client @ idle , client&#45;0 @ wait , server @ ready =&gt; @ wait &#45;&gt; time &#45;&gt; client&#45;0 =&gt; client @ idle , client&#45;0 @ wait , server @ ready</title>
<path fill="none" stroke="darkgreen" stroke-width="3" d="M558.27,-194.33C543.24,-174.98 528.16,-151.52 532.06,-150.07"/>
</g>
<!-- client @ idle , client&#45;0 @ wait , server @ ready =&gt; client @ idle , client&#45;0 @ idle , server @ ready -->
<g id="node26" class="node">
<title>client @ idle , client&#45;0 @ wait , server @ ready =&gt; client @ idle , client&#45;0 @ idle , server @ ready</title>
<polygon fill="none" stroke="#0063cd" stroke-width="4" points="816,-150 815,-150 815,-149 816,-149 816,-150"/>
</g>
<!-- client @ idle , client&#45;0 @ wait , server @ ready&#45;&gt;client @ idle , client&#45;0 @ wait , server @ ready =&gt; client @ idle , client&#45;0 @ idle , server @ ready -->
<g id="edge41" class="edge">
<title>client @ idle , client&#45;0 @ wait , server @ ready&#45;&gt;client @ idle , client&#45;0 @ wait , server @ ready =&gt; client @ idle , client&#45;0 @ idle , server @ ready</title>
<path fill="none" stroke="darkgreen" stroke-width="3" d="M627.88,-194.42C634.34,-191.29 641,-188.37 647.5,-186 718.12,-160.25 812.5,-150.31 815.43,-150.01"/>
</g>
<!-- server &rarr; | response@0 | &rarr; client&#45;0 -->
<g id="node14" class="node">
<title>server &rarr; | response@0 | &rarr; client&#45;0</title>
<polygon fill="paleturquoise" stroke="paleturquoise" points="768.5,-186.5 768.5,-255.5 862.5,-255.5 862.5,-186.5 768.5,-186.5"/>
<text text-anchor="middle" x="815.5" y="-240.3" font-family="Sans-Serif" font-size="14.00">server →</text>
<polyline fill="none" stroke="paleturquoise" points="768.5,-232.5 862.5,-232.5 "/>
<text text-anchor="middle" x="815.5" y="-217.3" font-family="Sans-Serif" font-size="14.00">response@0</text>
<polyline fill="none" stroke="paleturquoise" points="768.5,-209.5 862.5,-209.5 "/>
<text text-anchor="middle" x="815.5" y="-194.3" font-family="Sans-Serif" font-size="14.00">→ client&#45;0</text>
</g>
<!-- client @ idle , client&#45;0 @ wait , server @ busy =&gt; client @ idle , client&#45;0 @ wait , server @ busy -->
<g id="node19" class="node">
<title>client @ idle , client&#45;0 @ wait , server @ busy =&gt; client @ idle , client&#45;0 @ wait , server @ busy</title>
<polygon fill="none" stroke="#0063cd" stroke-width="4" points="900,-150 899,-150 899,-149 900,-149 900,-150"/>
</g>
<!-- server &rarr; | response@0 | &rarr; client&#45;0&#45;&gt;client @ idle , client&#45;0 @ wait , server @ busy =&gt; client @ idle , client&#45;0 @ wait , server @ busy -->
<g id="edge22" class="edge">
<title>server &rarr; | response@0 | &rarr; client&#45;0&#45;&gt;client @ idle , client&#45;0 @ wait , server @ busy =&gt; client @ idle , client&#45;0 @ wait , server @ busy</title>
<path fill="none" stroke="mediumblue" stroke-width="3" d="M856.02,-186.23C869.52,-174.99 883.21,-163.57 891.53,-156.64"/>
<polygon fill="mediumblue" stroke="mediumblue" stroke-width="3" points="893.99,-159.14 899.44,-150.05 889.51,-153.77 893.99,-159.14"/>
</g>
<!-- server &rarr; | response@0 | &rarr; client&#45;0&#45;&gt;client @ idle , client&#45;0 @ wait , server @ ready =&gt; client @ idle , client&#45;0 @ wait , server @ ready -->
<g id="edge32" class="edge">
<title>server &rarr; | response@0 | &rarr; client&#45;0&#45;&gt;client @ idle , client&#45;0 @ wait , server @ ready =&gt; client @ idle , client&#45;0 @ wait , server @ ready</title>
<path fill="none" stroke="mediumblue" stroke-width="3" d="M768.42,-189.9C765.45,-188.48 762.46,-187.16 759.5,-186 699.48,-162.46 621.63,-153.46 593.88,-150.87"/>
<polygon fill="mediumblue" stroke="mediumblue" stroke-width="3" points="593.83,-147.36 583.57,-150.01 593.25,-154.33 593.83,-147.36"/>
</g>
<!-- server &rarr; | response@0 | &rarr; client&#45;0&#45;&gt;client @ idle , client&#45;0 @ wait , server @ ready =&gt; client @ idle , client&#45;0 @ idle , server @ ready -->
<g id="edge40" class="edge">
<title>server &rarr; | response@0 | &rarr; client&#45;0&#45;&gt;client @ idle , client&#45;0 @ wait , server @ ready =&gt; client @ idle , client&#45;0 @ idle , server @ ready</title>
<path fill="none" stroke="mediumblue" stroke-width="3" d="M815.5,-186.23C815.5,-176.75 815.5,-167.14 815.5,-160.21"/>
<polygon fill="mediumblue" stroke="mediumblue" stroke-width="3" points="819,-160.05 815.5,-150.05 812,-160.05 819,-160.05"/>
</g>
<!-- @ busy &rarr; | time | &rarr; server -->
<g id="node15" class="node">
<title>@ busy &rarr; | time | &rarr; server</title>
<polygon fill="paleturquoise" stroke="paleturquoise" points="701,-329.5 701,-398.5 782,-398.5 782,-329.5 701,-329.5"/>
<text text-anchor="middle" x="741.5" y="-383.3" font-family="Sans-Serif" font-size="14.00">@ busy →</text>
<polyline fill="none" stroke="paleturquoise" points="701,-375.5 782,-375.5 "/>
<text text-anchor="middle" x="741.5" y="-360.3" font-family="Sans-Serif" font-size="14.00">time</text>
<polyline fill="none" stroke="paleturquoise" points="701,-352.5 782,-352.5 "/>
<text text-anchor="middle" x="741.5" y="-337.3" font-family="Sans-Serif" font-size="14.00">→ server</text>
</g>
<!-- client @ idle , client&#45;0 @ wait , server @ busy =&gt; @ busy &#45;&gt; time &#45;&gt; server =&gt; client @ idle , client&#45;0 @ wait , server @ ready -->
<g id="node16" class="node">
<title>client @ idle , client&#45;0 @ wait , server @ busy =&gt; @ busy &#45;&gt; time &#45;&gt; server =&gt; client @ idle , client&#45;0 @ wait , server @ ready</title>
<polygon fill="none" stroke="#0063cd" stroke-width="4" points="742,-293 741,-293 741,-292 742,-292 742,-293"/>
</g>
<!-- @ busy &rarr; | time | &rarr; server&#45;&gt;client @ idle , client&#45;0 @ wait , server @ busy =&gt; @ busy &#45;&gt; time &#45;&gt; server =&gt; client @ idle , client&#45;0 @ wait , server @ ready -->
<g id="edge18" class="edge">
<title>@ busy &rarr; | time | &rarr; server&#45;&gt;client @ idle , client&#45;0 @ wait , server @ busy =&gt; @ busy &#45;&gt; time &#45;&gt; server =&gt; client @ idle , client&#45;0 @ wait , server @ ready</title>
<path fill="none" stroke="mediumblue" stroke-width="3" d="M741.5,-329.23C741.5,-311.89 741.5,-294.15 741.5,-293.05"/>
</g>
<!-- client @ idle , client&#45;0 @ wait , server @ busy =&gt; @ busy &#45;&gt; time &#45;&gt; server =&gt; client @ idle , client&#45;0 @ wait , server @ ready&#45;&gt;client @ idle , client&#45;0 @ wait , server @ ready -->
<g id="edge20" class="edge">
<title>client @ idle , client&#45;0 @ wait , server @ busy =&gt; @ busy &#45;&gt; time &#45;&gt; server =&gt; client @ idle , client&#45;0 @ wait , server @ ready&#45;&gt;client @ idle , client&#45;0 @ wait , server @ ready</title>
<path fill="none" stroke="darkgreen" stroke-width="3" d="M741.35,-291.95C738.18,-290.91 686.95,-273.95 647.5,-256 644.73,-254.74 641.9,-253.41 639.07,-252.04"/>
<polygon fill="darkgreen" stroke="darkgreen" stroke-width="3" points="640.52,-248.85 630.01,-247.55 637.42,-255.13 640.52,-248.85"/>
</g>
<!-- client @ idle , client&#45;0 @ wait , server @ busy =&gt; @ busy &#45;&gt; time &#45;&gt; server =&gt; client @ idle , client&#45;0 @ wait , server @ ready&#45;&gt;server &rarr; | response@0 | &rarr; client&#45;0 -->
<g id="edge17" class="edge">
<title>client @ idle , client&#45;0 @ wait , server @ busy =&gt; @ busy &#45;&gt; time &#45;&gt; server =&gt; client @ idle , client&#45;0 @ wait , server @ ready&#45;&gt;server &rarr; | response@0 | &rarr; client&#45;0</title>
<path fill="none" stroke="mediumblue" stroke-width="3" d="M741.55,-291.95C742.53,-291.02 756.78,-277.55 772.5,-262.67"/>
<polygon fill="mediumblue" stroke="mediumblue" stroke-width="3" points="774.93,-265.19 779.79,-255.78 770.12,-260.11 774.93,-265.19"/>
</g>
<!-- server &rarr; | response@1 | &rarr; client&#45;0 -->
<g id="node18" class="node">
<title>server &rarr; | response@1 | &rarr; client&#45;0</title>
<polygon fill="paleturquoise" stroke="paleturquoise" points="656.5,-186.5 656.5,-255.5 750.5,-255.5 750.5,-186.5 656.5,-186.5"/>
<text text-anchor="middle" x="703.5" y="-240.3" font-family="Sans-Serif" font-size="14.00">server →</text>
<polyline fill="none" stroke="paleturquoise" points="656.5,-232.5 750.5,-232.5 "/>
<text text-anchor="middle" x="703.5" y="-217.3" font-family="Sans-Serif" font-size="14.00">response@1</text>
<polyline fill="none" stroke="paleturquoise" points="656.5,-209.5 750.5,-209.5 "/>
<text text-anchor="middle" x="703.5" y="-194.3" font-family="Sans-Serif" font-size="14.00">→ client&#45;0</text>
</g>
<!-- client @ idle , client&#45;0 @ wait , server @ busy =&gt; @ busy &#45;&gt; time &#45;&gt; server =&gt; client @ idle , client&#45;0 @ wait , server @ ready&#45;&gt;server &rarr; | response@1 | &rarr; client&#45;0 -->
<g id="edge21" class="edge">
<title>client @ idle , client&#45;0 @ wait , server @ busy =&gt; @ busy &#45;&gt; time &#45;&gt; server =&gt; client @ idle , client&#45;0 @ wait , server @ ready&#45;&gt;server &rarr; | response@1 | &rarr; client&#45;0</title>
<path fill="none" stroke="mediumblue" stroke-width="3" d="M741.47,-291.95C740.99,-291.06 734.3,-278.74 726.66,-264.67"/>
<polygon fill="mediumblue" stroke="mediumblue" stroke-width="3" points="729.68,-262.89 721.84,-255.78 723.53,-266.23 729.68,-262.89"/>
</g>
<!-- client @ idle , client&#45;0 @ wait , server @ busy -->
<g id="node17" class="node">
<title>client @ idle , client&#45;0 @ wait , server @ busy</title>
<polygon fill="palegreen" stroke="palegreen" points="906.5,-390.5 800.5,-390.5 800.5,-337.5 906.5,-337.5 906.5,-390.5"/>
<text text-anchor="middle" x="853.5" y="-375.3" font-family="Sans-Serif" font-size="14.00">client @ idle</text>
<text text-anchor="middle" x="853.5" y="-360.3" font-family="Sans-Serif" font-size="14.00">client&#45;0 @ wait</text>
<text text-anchor="middle" x="853.5" y="-345.3" font-family="Sans-Serif" font-size="14.00">server @ busy</text>
</g>
<!-- client @ idle , client&#45;0 @ wait , server @ busy&#45;&gt;client @ idle , client&#45;0 @ wait , server @ busy =&gt; @ busy &#45;&gt; time &#45;&gt; server =&gt; client @ idle , client&#45;0 @ wait , server @ ready -->
<g id="edge19" class="edge">
<title>client @ idle , client&#45;0 @ wait , server @ busy&#45;&gt;client @ idle , client&#45;0 @ wait , server @ busy =&gt; @ busy &#45;&gt; time &#45;&gt; server =&gt; client @ idle , client&#45;0 @ wait , server @ ready</title>
<path fill="none" stroke="darkgreen" stroke-width="3" d="M812.43,-337.33C781.47,-317.98 743.93,-294.52 741.61,-293.07"/>
</g>
<!-- client @ idle , client&#45;0 @ wait , server @ busy&#45;&gt;client @ idle , client&#45;0 @ wait , server @ busy =&gt; client @ idle , client&#45;0 @ wait , server @ busy -->
<g id="edge23" class="edge">
<title>client @ idle , client&#45;0 @ wait , server @ busy&#45;&gt;client @ idle , client&#45;0 @ wait , server @ busy =&gt; client @ idle , client&#45;0 @ wait , server @ busy</title>
<path fill="none" stroke="darkgreen" stroke-width="3" d="M854.46,-337.31C862.58,-281.54 891.53,-154.06 899.15,-150.09"/>
</g>
<!-- client @ idle , client&#45;0 @ wait , server @ busy =&gt; @ wait &#45;&gt; time &#45;&gt; client&#45;0 =&gt; client @ idle , client&#45;0 @ wait , server @ busy -->
<g id="node21" class="node">
<title>client @ idle , client&#45;0 @ wait , server @ busy =&gt; @ wait &#45;&gt; time &#45;&gt; client&#45;0 =&gt; client @ idle , client&#45;0 @ wait , server @ busy</title>
<polygon fill="none" stroke="#0063cd" stroke-width="4" points="698,-293 697,-293 697,-292 698,-292 698,-293"/>
</g>
<!-- client @ idle , client&#45;0 @ wait , server @ busy&#45;&gt;client @ idle , client&#45;0 @ wait , server @ busy =&gt; @ wait &#45;&gt; time &#45;&gt; client&#45;0 =&gt; client @ idle , client&#45;0 @ wait , server @ busy -->
<g id="edge27" class="edge">
<title>client @ idle , client&#45;0 @ wait , server @ busy&#45;&gt;client @ idle , client&#45;0 @ wait , server @ busy =&gt; @ wait &#45;&gt; time &#45;&gt; client&#45;0 =&gt; client @ idle , client&#45;0 @ wait , server @ busy</title>
<path fill="none" stroke="darkgreen" stroke-width="3" d="M800.25,-337.75C794.29,-334.68 788.29,-331.68 782.5,-329 743.17,-310.79 691.83,-294.08 696.84,-293.05"/>
</g>
<!-- client @ idle , client&#45;0 @ wait , server @ busy =&gt; client @ idle , client&#45;0 @ wait , server @ busy&#45;&gt;client @ idle , client&#45;0 @ wait , server @ busy -->
<g id="edge24" class="edge">
<title>client @ idle , client&#45;0 @ wait , server @ busy =&gt; client @ idle , client&#45;0 @ wait , server @ busy&#45;&gt;client @ idle , client&#45;0 @ wait , server @ busy</title>
<path fill="none" stroke="darkgreen" stroke-width="3" d="M899.81,-150.09C905.39,-153.85 882.37,-267.97 866.34,-327.55"/>
<polygon fill="darkgreen" stroke="darkgreen" stroke-width="3" points="862.93,-326.74 863.63,-337.31 869.68,-328.61 862.93,-326.74"/>
</g>
<!-- @ wait &rarr; | time | &rarr; client&#45;0 -->
<g id="node20" class="node">
<title>@ wait &rarr; | time | &rarr; client&#45;0</title>
<polygon fill="paleturquoise" stroke="paleturquoise" points="566.5,-329.5 566.5,-398.5 644.5,-398.5 644.5,-329.5 566.5,-329.5"/>
<text text-anchor="middle" x="605.5" y="-383.3" font-family="Sans-Serif" font-size="14.00">@ wait →</text>
<polyline fill="none" stroke="paleturquoise" points="566.5,-375.5 644.5,-375.5 "/>
<text text-anchor="middle" x="605.5" y="-360.3" font-family="Sans-Serif" font-size="14.00">time</text>
<polyline fill="none" stroke="paleturquoise" points="566.5,-352.5 644.5,-352.5 "/>
<text text-anchor="middle" x="605.5" y="-337.3" font-family="Sans-Serif" font-size="14.00">→ client&#45;0</text>
</g>
<!-- @ wait &rarr; | time | &rarr; client&#45;0&#45;&gt;client @ idle , client&#45;0 @ wait , server @ busy =&gt; @ wait &#45;&gt; time &#45;&gt; client&#45;0 =&gt; client @ idle , client&#45;0 @ wait , server @ busy -->
<g id="edge26" class="edge">
<title>@ wait &rarr; | time | &rarr; client&#45;0&#45;&gt;client @ idle , client&#45;0 @ wait , server @ busy =&gt; @ wait &#45;&gt; time &#45;&gt; client&#45;0 =&gt; client @ idle , client&#45;0 @ wait , server @ busy</title>
<path fill="none" stroke="mediumblue" stroke-width="3" d="M644.52,-333.31C668.81,-314.83 695.76,-294.33 697.42,-293.06"/>
</g>
<!-- @ wait &rarr; | time | &rarr; client&#45;0&#45;&gt;client @ idle , client&#45;0 @ wait , server @ ready =&gt; @ wait &#45;&gt; time &#45;&gt; client&#45;0 =&gt; client @ idle , client&#45;0 @ wait , server @ ready -->
<g id="edge36" class="edge">
<title>@ wait &rarr; | time | &rarr; client&#45;0&#45;&gt;client @ idle , client&#45;0 @ wait , server @ ready =&gt; @ wait &#45;&gt; time &#45;&gt; client&#45;0 =&gt; client @ idle , client&#45;0 @ wait , server @ ready</title>
<path fill="none" stroke="mediumblue" stroke-width="3" d="M568.31,-329.23C549.8,-309.85 529.31,-283.88 519.5,-256 509.17,-226.65 514.14,-216.65 519.5,-186 522.34,-169.77 531.88,-151.2 532.47,-150.06"/>
</g>
<!-- client @ idle , client&#45;0 @ wait , server @ busy =&gt; @ wait &#45;&gt; time &#45;&gt; client&#45;0 =&gt; client @ idle , client&#45;0 @ wait , server @ busy&#45;&gt;client&#45;0 &rarr; | request@0 | &rarr; server -->
<g id="edge25" class="edge">
<title>client @ idle , client&#45;0 @ wait , server @ busy =&gt; @ wait &#45;&gt; time &#45;&gt; client&#45;0 =&gt; client @ idle , client&#45;0 @ wait , server @ busy&#45;&gt;client&#45;0 &rarr; | request@0 | &rarr; server</title>
<path fill="none" stroke="mediumblue" stroke-width="3" d="M697.49,-293.05C697.04,-295 682.42,-357.96 653.5,-399 634.76,-425.59 608.33,-450.34 585.23,-469.32"/>
<polygon fill="mediumblue" stroke="mediumblue" stroke-width="3" points="582.8,-466.78 577.22,-475.79 587.2,-472.23 582.8,-466.78"/>
</g>
<!-- client @ idle , client&#45;0 @ wait , server @ busy =&gt; @ wait &#45;&gt; time &#45;&gt; client&#45;0 =&gt; client @ idle , client&#45;0 @ wait , server @ busy&#45;&gt;client @ idle , client&#45;0 @ wait , server @ busy -->
<g id="edge28" class="edge">
<title>client @ idle , client&#45;0 @ wait , server @ busy =&gt; @ wait &#45;&gt; time &#45;&gt; client&#45;0 =&gt; client @ idle , client&#45;0 @ wait , server @ busy&#45;&gt;client @ idle , client&#45;0 @ wait , server @ busy</title>
<path fill="none" stroke="darkgreen" stroke-width="3" d="M697.72,-293C707.33,-293.27 760.22,-310.35 800.5,-329 803.11,-330.21 805.76,-331.48 808.42,-332.8"/>
<polygon fill="darkgreen" stroke="darkgreen" stroke-width="3" points="806.93,-335.96 817.42,-337.39 810.11,-329.73 806.93,-335.96"/>
</g>
<!-- client @ idle , client&#45;0 @ wait , server @ ready =&gt; client @ idle , client&#45;0 @ wait , server @ busy&#45;&gt;client @ idle , client&#45;0 @ wait , server @ busy -->
<g id="edge31" class="edge">
<title>client @ idle , client&#45;0 @ wait , server @ ready =&gt; client @ idle , client&#45;0 @ wait , server @ busy&#45;&gt;client @ idle , client&#45;0 @ wait , server @ busy</title>
<path fill="none" stroke="darkgreen" stroke-width="3" d="M538.61,-435C543.03,-434.99 685.43,-434.33 791.5,-399 795.19,-397.77 798.93,-396.32 802.63,-394.73"/>
<polygon fill="darkgreen" stroke="darkgreen" stroke-width="3" points="804.12,-397.89 811.73,-390.52 801.18,-391.54 804.12,-397.89"/>
</g>
<!-- client @ idle , client&#45;0 @ wait , server @ ready =&gt; client @ idle , client&#45;0 @ wait , server @ ready&#45;&gt;client @ idle , client&#45;0 @ wait , server @ ready -->
<g id="edge34" class="edge">
<title>client @ idle , client&#45;0 @ wait , server @ ready =&gt; client @ idle , client&#45;0 @ wait , server @ ready&#45;&gt;client @ idle , client&#45;0 @ wait , server @ ready</title>
<path fill="none" stroke="darkgreen" stroke-width="3" d="M583.99,-150.07C588.09,-151.27 590.18,-167.56 590.25,-184.12"/>
<polygon fill="darkgreen" stroke="darkgreen" stroke-width="3" points="586.74,-184.26 590.03,-194.33 593.74,-184.41 586.74,-184.26"/>
</g>
<!-- client&#45;0 &rarr; | request@1 | &rarr; server -->
<g id="node24" class="node">
<title>client&#45;0 &rarr; | request@1 | &rarr; server</title>
<polygon fill="paleturquoise" stroke="paleturquoise" points="491,-43.5 491,-112.5 574,-112.5 574,-43.5 491,-43.5"/>
<text text-anchor="middle" x="532.5" y="-97.3" font-family="Sans-Serif" font-size="14.00">client&#45;0 →</text>
<polyline fill="none" stroke="paleturquoise" points="491,-89.5 574,-89.5 "/>
<text text-anchor="middle" x="532.5" y="-74.3" font-family="Sans-Serif" font-size="14.00">request@1</text>
<polyline fill="none" stroke="paleturquoise" points="491,-66.5 574,-66.5 "/>
<text text-anchor="middle" x="532.5" y="-51.3" font-family="Sans-Serif" font-size="14.00">→ server</text>
</g>
<!-- client @ idle , client&#45;0 @ wait , server @ ready =&gt; @ wait &#45;&gt; time &#45;&gt; client&#45;0 =&gt; client @ idle , client&#45;0 @ wait , server @ ready&#45;&gt;client&#45;0 &rarr; | request@0 | &rarr; server -->
<g id="edge39" class="edge">
<title>client @ idle , client&#45;0 @ wait , server @ ready =&gt; @ wait &#45;&gt; time &#45;&gt; client&#45;0 =&gt; client @ idle , client&#45;0 @ wait , server @ ready&#45;&gt;client&#45;0 &rarr; | request@0 | &rarr; server</title>
<path fill="none" stroke="mediumblue" stroke-width="3" d="M532.45,-150.05C531.41,-151.11 514.66,-168.34 509.5,-186 500.77,-215.86 507.89,-224.93 509.5,-256 513.26,-328.42 523.09,-412.16 529.53,-462.01"/>
<polygon fill="mediumblue" stroke="mediumblue" stroke-width="3" points="526.09,-462.66 530.85,-472.12 533.03,-461.75 526.09,-462.66"/>
</g>
<!-- client @ idle , client&#45;0 @ wait , server @ ready =&gt; @ wait &#45;&gt; time &#45;&gt; client&#45;0 =&gt; client @ idle , client&#45;0 @ wait , server @ ready&#45;&gt;client @ idle , client&#45;0 @ wait , server @ ready -->
<g id="edge38" class="edge">
<title>client @ idle , client&#45;0 @ wait , server @ ready =&gt; @ wait &#45;&gt; time &#45;&gt; client&#45;0 =&gt; client @ idle , client&#45;0 @ wait , server @ ready&#45;&gt;client @ idle , client&#45;0 @ wait , server @ ready</title>
<path fill="none" stroke="darkgreen" stroke-width="3" d="M532.76,-150.02C537.63,-150.66 552.73,-168.4 565.37,-185.86"/>
<polygon fill="darkgreen" stroke="darkgreen" stroke-width="3" points="562.72,-188.16 571.33,-194.33 568.44,-184.14 562.72,-188.16"/>
</g>
<!-- client @ idle , client&#45;0 @ wait , server @ ready =&gt; @ wait &#45;&gt; time &#45;&gt; client&#45;0 =&gt; client @ idle , client&#45;0 @ wait , server @ ready&#45;&gt;client&#45;0 &rarr; | request@1 | &rarr; server -->
<g id="edge35" class="edge">
<title>client @ idle , client&#45;0 @ wait , server @ ready =&gt; @ wait &#45;&gt; time &#45;&gt; client&#45;0 =&gt; client @ idle , client&#45;0 @ wait , server @ ready&#45;&gt;client&#45;0 &rarr; | request@1 | &rarr; server</title>
<path fill="none" stroke="mediumblue" stroke-width="3" d="M532.5,-148.95C532.5,-148.09 532.5,-136.43 532.5,-122.86"/>
<polygon fill="mediumblue" stroke="mediumblue" stroke-width="3" points="536,-122.78 532.5,-112.78 529,-122.78 536,-122.78"/>
</g>
<!-- client @ idle , client&#45;0 @ wait , server @ ready =&gt; client @ idle , client&#45;0 @ idle , server @ ready&#45;&gt;client @ idle , client&#45;0 @ idle , server @ ready -->
<g id="edge42" class="edge">
<title>client @ idle , client&#45;0 @ wait , server @ ready =&gt; client @ idle , client&#45;0 @ idle , server @ ready&#45;&gt;client @ idle , client&#45;0 @ idle , server @ ready</title>
<path fill="none" stroke="darkgreen" stroke-width="3" d="M815.59,-150.04C819.56,-151.76 946.5,-207.48 946.5,-292 946.5,-508 946.5,-508 946.5,-508 946.5,-600.58 634.03,-634.43 494.94,-644.91"/>
<polygon fill="darkgreen" stroke="darkgreen" stroke-width="3" points="494.54,-641.43 484.83,-645.66 495.06,-648.41 494.54,-641.43"/>
</g>
</g>
</svg>
