<?xml version="1.0" encoding="UTF-8" standalone="no"?>
<!DOCTYPE svg PUBLIC "-//W3C//DTD SVG 1.1//EN"
 "http://www.w3.org/Graphics/SVG/1.1/DTD/svg11.dtd">
<!-- Generated by graphviz version 2.44.1 (0)
 -->
<!-- Title: G Pages: 1 -->
<svg width="978pt" height="836pt"
 viewBox="0.00 0.00 978.00 836.00" xmlns="http://www.w3.org/2000/svg" xmlns:xlink="http://www.w3.org/1999/xlink">
<g id="graph0" class="graph" transform="scale(1 1) rotate(0) translate(4 832)">
<title>G</title>
<polygon fill="white" stroke="transparent" points="-4,4 -4,-832 974,-832 974,4 -4,4"/>
<text text-anchor="middle" x="485" y="-13.4" font-family="Sans-Serif" font-size="32.00">Detail (w/ One Client)</text>
<!-- client &rarr; | confirm! | &rarr; client&#45;0 -->
<g id="node1" class="node">
<title>client &rarr; | confirm! | &rarr; client&#45;0</title>
<polygon fill="darkturquoise" stroke="darkturquoise" points="300,-758.5 300,-827.5 378,-827.5 378,-758.5 300,-758.5"/>
<text text-anchor="middle" x="339" y="-812.3" font-family="Sans-Serif" font-size="14.00">client →</text>
<polyline fill="none" stroke="darkturquoise" points="300,-804.5 378,-804.5 "/>
<text text-anchor="middle" x="339" y="-789.3" font-family="Sans-Serif" font-size="14.00">confirm!</text>
<polyline fill="none" stroke="darkturquoise" points="300,-781.5 378,-781.5 "/>
<text text-anchor="middle" x="339" y="-766.3" font-family="Sans-Serif" font-size="14.00">→ client&#45;0</text>
</g>
<!-- client @ idle , client&#45;0 @ check , server @ ready =&gt; client @ idle , client&#45;0 @ idle , server @ ready -->
<g id="node2" class="node">
<title>client @ idle , client&#45;0 @ check , server @ ready =&gt; client @ idle , client&#45;0 @ idle , server @ ready</title>
<polygon fill="none" stroke="#0063cd" stroke-width="4" points="339.5,-722 338.5,-722 338.5,-721 339.5,-721 339.5,-722"/>
</g>
<!-- client &rarr; | confirm! | &rarr; client&#45;0&#45;&gt;client @ idle , client&#45;0 @ check , server @ ready =&gt; client @ idle , client&#45;0 @ idle , server @ ready -->
<g id="edge1" class="edge">
<title>client &rarr; | confirm! | &rarr; client&#45;0&#45;&gt;client @ idle , client&#45;0 @ check , server @ ready =&gt; client @ idle , client&#45;0 @ idle , server @ ready</title>
<path fill="none" stroke="mediumblue" stroke-width="3" d="M339,-758.23C339,-748.75 339,-739.14 339,-732.21"/>
<polygon fill="mediumblue" stroke="mediumblue" stroke-width="3" points="342.5,-732.05 339,-722.05 335.5,-732.05 342.5,-732.05"/>
</g>
<!-- client @ idle , client&#45;0 @ idle , server @ ready -->
<g id="node4" class="node">
<title>client @ idle , client&#45;0 @ idle , server @ ready</title>
<polygon fill="palegreen" stroke="palegreen" points="488,-676.5 378,-676.5 378,-623.5 488,-623.5 488,-676.5"/>
<text text-anchor="middle" x="433" y="-661.3" font-family="Sans-Serif" font-size="14.00">client @ idle</text>
<text text-anchor="middle" x="433" y="-646.3" font-family="Sans-Serif" font-size="14.00">client&#45;0 @ idle</text>
<text text-anchor="middle" x="433" y="-631.3" font-family="Sans-Serif" font-size="14.00">server @ ready</text>
</g>
<!-- client @ idle , client&#45;0 @ check , server @ ready =&gt; client @ idle , client&#45;0 @ idle , server @ ready&#45;&gt;client @ idle , client&#45;0 @ idle , server @ ready -->
<g id="edge3" class="edge">
<title>client @ idle , client&#45;0 @ check , server @ ready =&gt; client @ idle , client&#45;0 @ idle , server @ ready&#45;&gt;client @ idle , client&#45;0 @ idle , server @ ready</title>
<path fill="none" stroke="darkgreen" stroke-width="3" d="M339.07,-720.95C340.56,-719.84 366.35,-700.64 390.52,-682.63"/>
<polygon fill="darkgreen" stroke="darkgreen" stroke-width="3" points="392.69,-685.38 398.62,-676.6 388.51,-679.77 392.69,-685.38"/>
</g>
<!-- client @ idle , client&#45;0 @ check , server @ ready -->
<g id="node3" class="node">
<title>client @ idle , client&#45;0 @ check , server @ ready</title>
<polygon fill="palegreen" stroke="palegreen" points="223.5,-533.5 106.5,-533.5 106.5,-480.5 223.5,-480.5 223.5,-533.5"/>
<text text-anchor="middle" x="165" y="-518.3" font-family="Sans-Serif" font-size="14.00">client @ idle</text>
<text text-anchor="middle" x="165" y="-503.3" font-family="Sans-Serif" font-size="14.00">client&#45;0 @ check</text>
<text text-anchor="middle" x="165" y="-488.3" font-family="Sans-Serif" font-size="14.00">server @ ready</text>
</g>
<!-- client @ idle , client&#45;0 @ check , server @ ready&#45;&gt;client @ idle , client&#45;0 @ check , server @ ready =&gt; client @ idle , client&#45;0 @ idle , server @ ready -->
<g id="edge2" class="edge">
<title>client @ idle , client&#45;0 @ check , server @ ready&#45;&gt;client @ idle , client&#45;0 @ check , server @ ready =&gt; client @ idle , client&#45;0 @ idle , server @ ready</title>
<path fill="none" stroke="darkgreen" stroke-width="3" d="M172.64,-533.59C185.08,-571.29 213.04,-641.95 259,-685 286.57,-710.82 335.8,-720.4 338.85,-720.97"/>
</g>
<!-- client @ idle , client&#45;0 @ check , server @ ready =&gt; client @ idle , client&#45;0 @ check , server @ ready -->
<g id="node6" class="node">
<title>client @ idle , client&#45;0 @ check , server @ ready =&gt; client @ idle , client&#45;0 @ check , server @ ready</title>
<polygon fill="none" stroke="#0063cd" stroke-width="4" points="165.5,-436 164.5,-436 164.5,-435 165.5,-435 165.5,-436"/>
</g>
<!-- client @ idle , client&#45;0 @ check , server @ ready&#45;&gt;client @ idle , client&#45;0 @ check , server @ ready =&gt; client @ idle , client&#45;0 @ check , server @ ready -->
<g id="edge5" class="edge">
<title>client @ idle , client&#45;0 @ check , server @ ready&#45;&gt;client @ idle , client&#45;0 @ check , server @ ready =&gt; client @ idle , client&#45;0 @ check , server @ ready</title>
<path fill="none" stroke="darkgreen" stroke-width="3" d="M158.47,-480.33C157.54,-460.98 159.56,-437.52 164.51,-436.07"/>
</g>
<!-- client @ idle , client&#45;0 @ idle , server @ ready =&gt; @ idle &#45;&gt; time &#45;&gt; client&#45;0 =&gt; client @ idle , client&#45;0 @ check , server @ ready -->
<g id="node10" class="node">
<title>client @ idle , client&#45;0 @ idle , server @ ready =&gt; @ idle &#45;&gt; time &#45;&gt; client&#45;0 =&gt; client @ idle , client&#45;0 @ check , server @ ready</title>
<polygon fill="none" stroke="#0063cd" stroke-width="4" points="294.5,-579 293.5,-579 293.5,-578 294.5,-578 294.5,-579"/>
</g>
<!-- client @ idle , client&#45;0 @ idle , server @ ready&#45;&gt;client @ idle , client&#45;0 @ idle , server @ ready =&gt; @ idle &#45;&gt; time &#45;&gt; client&#45;0 =&gt; client @ idle , client&#45;0 @ check , server @ ready -->
<g id="edge11" class="edge">
<title>client @ idle , client&#45;0 @ idle , server @ ready&#45;&gt;client @ idle , client&#45;0 @ idle , server @ ready =&gt; @ idle &#45;&gt; time &#45;&gt; client&#45;0 =&gt; client @ idle , client&#45;0 @ check , server @ ready</title>
<path fill="none" stroke="darkgreen" stroke-width="3" d="M382.03,-623.33C343.6,-603.98 297.01,-580.52 294.14,-579.07"/>
</g>
<!-- client @ idle , client&#45;0 @ idle , server @ ready =&gt; @ idle &#45;&gt; time &#45;&gt; client&#45;0 =&gt; client @ idle , client&#45;0 @ wait , server @ ready -->
<g id="node12" class="node">
<title>client @ idle , client&#45;0 @ idle , server @ ready =&gt; @ idle &#45;&gt; time &#45;&gt; client&#45;0 =&gt; client @ idle , client&#45;0 @ wait , server @ ready</title>
<polygon fill="none" stroke="#0063cd" stroke-width="4" points="459.5,-579 458.5,-579 458.5,-578 459.5,-578 459.5,-579"/>
</g>
<!-- client @ idle , client&#45;0 @ idle , server @ ready&#45;&gt;client @ idle , client&#45;0 @ idle , server @ ready =&gt; @ idle &#45;&gt; time &#45;&gt; client&#45;0 =&gt; client @ idle , client&#45;0 @ wait , server @ ready -->
<g id="edge15" class="edge">
<title>client @ idle , client&#45;0 @ idle , server @ ready&#45;&gt;client @ idle , client&#45;0 @ idle , server @ ready =&gt; @ idle &#45;&gt; time &#45;&gt; client&#45;0 =&gt; client @ idle , client&#45;0 @ wait , server @ ready</title>
<path fill="none" stroke="darkgreen" stroke-width="3" d="M442.53,-623.33C449.72,-603.98 458.44,-580.52 458.97,-579.07"/>
</g>
<!-- client&#45;0 &rarr; | check&rArr;check@0 | &rarr; client -->
<g id="node5" class="node">
<title>client&#45;0 &rarr; | check&rArr;check@0 | &rarr; client</title>
<polygon fill="paleturquoise" stroke="paleturquoise" points="338.5,-472.5 338.5,-541.5 457.5,-541.5 457.5,-472.5 338.5,-472.5"/>
<text text-anchor="middle" x="398" y="-526.3" font-family="Sans-Serif" font-size="14.00">client&#45;0 →</text>
<polyline fill="none" stroke="paleturquoise" points="338.5,-518.5 457.5,-518.5 "/>
<text text-anchor="middle" x="398" y="-503.3" font-family="Sans-Serif" font-size="14.00">check⇒check@0</text>
<polyline fill="none" stroke="paleturquoise" points="338.5,-495.5 457.5,-495.5 "/>
<text text-anchor="middle" x="398" y="-480.3" font-family="Sans-Serif" font-size="14.00">→ client</text>
</g>
<!-- client&#45;0 &rarr; | check&rArr;check@0 | &rarr; client&#45;&gt;client @ idle , client&#45;0 @ check , server @ ready =&gt; client @ idle , client&#45;0 @ check , server @ ready -->
<g id="edge4" class="edge">
<title>client&#45;0 &rarr; | check&rArr;check@0 | &rarr; client&#45;&gt;client @ idle , client&#45;0 @ check , server @ ready =&gt; client @ idle , client&#45;0 @ check , server @ ready</title>
<path fill="none" stroke="mediumblue" stroke-width="3" d="M338.16,-475.45C335.09,-474.22 332.02,-473.06 329,-472 272.67,-452.27 201.54,-441.07 175.31,-437.38"/>
<polygon fill="mediumblue" stroke="mediumblue" stroke-width="3" points="175.44,-433.86 165.07,-436.01 174.52,-440.8 175.44,-433.86"/>
</g>
<!-- client @ idle , client&#45;0 @ check , server @ ready =&gt; client @ idle , client&#45;0 @ check , server @ ready&#45;&gt;client @ idle , client&#45;0 @ check , server @ ready -->
<g id="edge6" class="edge">
<title>client @ idle , client&#45;0 @ check , server @ ready =&gt; client @ idle , client&#45;0 @ check , server @ ready&#45;&gt;client @ idle , client&#45;0 @ check , server @ ready</title>
<path fill="none" stroke="darkgreen" stroke-width="3" d="M165.49,-436.07C169.59,-437.27 171.68,-453.56 171.75,-470.12"/>
<polygon fill="darkgreen" stroke="darkgreen" stroke-width="3" points="168.24,-470.26 171.53,-480.33 175.24,-470.41 168.24,-470.26"/>
</g>
<!-- @ check &rarr; | time | &rarr; client&#45;0 -->
<g id="node7" class="node">
<title>@ check &rarr; | time | &rarr; client&#45;0</title>
<polygon fill="paleturquoise" stroke="paleturquoise" points="0,-472.5 0,-541.5 88,-541.5 88,-472.5 0,-472.5"/>
<text text-anchor="middle" x="44" y="-526.3" font-family="Sans-Serif" font-size="14.00">@ check →</text>
<polyline fill="none" stroke="paleturquoise" points="0,-518.5 88,-518.5 "/>
<text text-anchor="middle" x="44" y="-503.3" font-family="Sans-Serif" font-size="14.00">time</text>
<polyline fill="none" stroke="paleturquoise" points="0,-495.5 88,-495.5 "/>
<text text-anchor="middle" x="44" y="-480.3" font-family="Sans-Serif" font-size="14.00">→ client&#45;0</text>
</g>
<!-- @ check &rarr; | time | &rarr; client&#45;0&#45;&gt;client @ idle , client&#45;0 @ check , server @ ready =&gt; client @ idle , client&#45;0 @ check , server @ ready -->
<g id="edge7" class="edge">
<title>@ check &rarr; | time | &rarr; client&#45;0&#45;&gt;client @ idle , client&#45;0 @ check , server @ ready =&gt; client @ idle , client&#45;0 @ check , server @ ready</title>
<path fill="none" stroke="mediumblue" stroke-width="3" d="M88.08,-477.34C91.08,-475.5 94.07,-473.71 97,-472 117.56,-459.99 142.46,-447.25 155.68,-440.62"/>
<polygon fill="mediumblue" stroke="mediumblue" stroke-width="3" points="157.49,-443.63 164.89,-436.05 154.38,-437.36 157.49,-443.63"/>
</g>
<!-- client&#45;0 &rarr; | check@0 | &rarr; client -->
<g id="node8" class="node">
<title>client&#45;0 &rarr; | check@0 | &rarr; client</title>
<polygon fill="paleturquoise" stroke="paleturquoise" points="242,-472.5 242,-541.5 320,-541.5 320,-472.5 242,-472.5"/>
<text text-anchor="middle" x="281" y="-526.3" font-family="Sans-Serif" font-size="14.00">client&#45;0 →</text>
<polyline fill="none" stroke="paleturquoise" points="242,-518.5 320,-518.5 "/>
<text text-anchor="middle" x="281" y="-503.3" font-family="Sans-Serif" font-size="14.00">check@0</text>
<polyline fill="none" stroke="paleturquoise" points="242,-495.5 320,-495.5 "/>
<text text-anchor="middle" x="281" y="-480.3" font-family="Sans-Serif" font-size="14.00">→ client</text>
</g>
<!-- client&#45;0 &rarr; | check@0 | &rarr; client&#45;&gt;client @ idle , client&#45;0 @ check , server @ ready =&gt; client @ idle , client&#45;0 @ check , server @ ready -->
<g id="edge8" class="edge">
<title>client&#45;0 &rarr; | check@0 | &rarr; client&#45;&gt;client @ idle , client&#45;0 @ check , server @ ready =&gt; client @ idle , client&#45;0 @ check , server @ ready</title>
<path fill="none" stroke="mediumblue" stroke-width="3" d="M241.95,-478.32C238.61,-476.14 235.27,-474 232,-472 211.93,-459.7 187.33,-447.08 174.23,-440.54"/>
<polygon fill="mediumblue" stroke="mediumblue" stroke-width="3" points="175.63,-437.33 165.11,-436.05 172.54,-443.61 175.63,-437.33"/>
</g>
<!-- @ idle &rarr; | time | &rarr; client&#45;0 -->
<g id="node9" class="node">
<title>@ idle &rarr; | time | &rarr; client&#45;0</title>
<polygon fill="paleturquoise" stroke="paleturquoise" points="268,-615.5 268,-684.5 346,-684.5 346,-615.5 268,-615.5"/>
<text text-anchor="middle" x="307" y="-669.3" font-family="Sans-Serif" font-size="14.00">@ idle →</text>
<polyline fill="none" stroke="paleturquoise" points="268,-661.5 346,-661.5 "/>
<text text-anchor="middle" x="307" y="-646.3" font-family="Sans-Serif" font-size="14.00">time</text>
<polyline fill="none" stroke="paleturquoise" points="268,-638.5 346,-638.5 "/>
<text text-anchor="middle" x="307" y="-623.3" font-family="Sans-Serif" font-size="14.00">→ client&#45;0</text>
</g>
<!-- @ idle &rarr; | time | &rarr; client&#45;0&#45;&gt;client @ idle , client&#45;0 @ idle , server @ ready =&gt; @ idle &#45;&gt; time &#45;&gt; client&#45;0 =&gt; client @ idle , client&#45;0 @ check , server @ ready -->
<g id="edge10" class="edge">
<title>@ idle &rarr; | time | &rarr; client&#45;0&#45;&gt;client @ idle , client&#45;0 @ idle , server @ ready =&gt; @ idle &#45;&gt; time &#45;&gt; client&#45;0 =&gt; client @ idle , client&#45;0 @ check , server @ ready</title>
<path fill="none" stroke="mediumblue" stroke-width="3" d="M300.73,-615.23C297.51,-597.89 294.21,-580.15 294.01,-579.05"/>
</g>
<!-- @ idle &rarr; | time | &rarr; client&#45;0&#45;&gt;client @ idle , client&#45;0 @ idle , server @ ready =&gt; @ idle &#45;&gt; time &#45;&gt; client&#45;0 =&gt; client @ idle , client&#45;0 @ wait , server @ ready -->
<g id="edge14" class="edge">
<title>@ idle &rarr; | time | &rarr; client&#45;0&#45;&gt;client @ idle , client&#45;0 @ idle , server @ ready =&gt; @ idle &#45;&gt; time &#45;&gt; client&#45;0 =&gt; client @ idle , client&#45;0 @ wait , server @ ready</title>
<path fill="none" stroke="mediumblue" stroke-width="3" d="M346.32,-626.51C353.77,-622.51 361.56,-618.51 369,-615 406.74,-597.18 455.82,-580.1 458.85,-579.05"/>
</g>
<!-- client @ idle , client&#45;0 @ idle , server @ ready =&gt; @ idle &#45;&gt; time &#45;&gt; client&#45;0 =&gt; client @ idle , client&#45;0 @ check , server @ ready&#45;&gt;client @ idle , client&#45;0 @ check , server @ ready -->
<g id="edge12" class="edge">
<title>client @ idle , client&#45;0 @ idle , server @ ready =&gt; @ idle &#45;&gt; time &#45;&gt; client&#45;0 =&gt; client @ idle , client&#45;0 @ check , server @ ready&#45;&gt;client @ idle , client&#45;0 @ check , server @ ready</title>
<path fill="none" stroke="darkgreen" stroke-width="3" d="M293.91,-577.95C291.81,-576.81 254.92,-556.79 221.14,-538.46"/>
<polygon fill="darkgreen" stroke="darkgreen" stroke-width="3" points="222.64,-535.3 212.18,-533.6 219.3,-541.45 222.64,-535.3"/>
</g>
<!-- client @ idle , client&#45;0 @ idle , server @ ready =&gt; @ idle &#45;&gt; time &#45;&gt; client&#45;0 =&gt; client @ idle , client&#45;0 @ check , server @ ready&#45;&gt;client&#45;0 &rarr; | check@0 | &rarr; client -->
<g id="edge9" class="edge">
<title>client @ idle , client&#45;0 @ idle , server @ ready =&gt; @ idle &#45;&gt; time &#45;&gt; client&#45;0 =&gt; client @ idle , client&#45;0 @ check , server @ ready&#45;&gt;client&#45;0 &rarr; | check@0 | &rarr; client</title>
<path fill="none" stroke="mediumblue" stroke-width="3" d="M293.99,-577.95C293.83,-577.09 291.66,-565.43 289.15,-551.86"/>
<polygon fill="mediumblue" stroke="mediumblue" stroke-width="3" points="292.54,-550.97 287.27,-541.78 285.66,-552.25 292.54,-550.97"/>
</g>
<!-- client&#45;0 &rarr; | request@0 | &rarr; server -->
<g id="node11" class="node">
<title>client&#45;0 &rarr; | request@0 | &rarr; server</title>
<polygon fill="paleturquoise" stroke="paleturquoise" points="517.5,-472.5 517.5,-541.5 600.5,-541.5 600.5,-472.5 517.5,-472.5"/>
<text text-anchor="middle" x="559" y="-526.3" font-family="Sans-Serif" font-size="14.00">client&#45;0 →</text>
<polyline fill="none" stroke="paleturquoise" points="517.5,-518.5 600.5,-518.5 "/>
<text text-anchor="middle" x="559" y="-503.3" font-family="Sans-Serif" font-size="14.00">request@0</text>
<polyline fill="none" stroke="paleturquoise" points="517.5,-495.5 600.5,-495.5 "/>
<text text-anchor="middle" x="559" y="-480.3" font-family="Sans-Serif" font-size="14.00">→ server</text>
</g>
<!-- client @ idle , client&#45;0 @ wait , server @ ready =&gt; client @ idle , client&#45;0 @ wait , server @ busy -->
<g id="node22" class="node">
<title>client @ idle , client&#45;0 @ wait , server @ ready =&gt; client @ idle , client&#45;0 @ wait , server @ busy</title>
<polygon fill="none" stroke="#0063cd" stroke-width="4" points="562.5,-436 561.5,-436 561.5,-435 562.5,-435 562.5,-436"/>
</g>
<!-- client&#45;0 &rarr; | request@0 | &rarr; server&#45;&gt;client @ idle , client&#45;0 @ wait , server @ ready =&gt; client @ idle , client&#45;0 @ wait , server @ busy -->
<g id="edge29" class="edge">
<title>client&#45;0 &rarr; | request@0 | &rarr; server&#45;&gt;client @ idle , client&#45;0 @ wait , server @ ready =&gt; client @ idle , client&#45;0 @ wait , server @ busy</title>
<path fill="none" stroke="mediumblue" stroke-width="3" d="M560.45,-472.23C560.85,-462.75 561.27,-453.14 561.56,-446.21"/>
<polygon fill="mediumblue" stroke="mediumblue" stroke-width="3" points="565.07,-446.19 562,-436.05 558.07,-445.89 565.07,-446.19"/>
</g>
<!-- client @ idle , client&#45;0 @ idle , server @ ready =&gt; @ idle &#45;&gt; time &#45;&gt; client&#45;0 =&gt; client @ idle , client&#45;0 @ wait , server @ ready&#45;&gt;client&#45;0 &rarr; | request@0 | &rarr; server -->
<g id="edge13" class="edge">
<title>client @ idle , client&#45;0 @ idle , server @ ready =&gt; @ idle &#45;&gt; time &#45;&gt; client&#45;0 =&gt; client @ idle , client&#45;0 @ wait , server @ ready&#45;&gt;client&#45;0 &rarr; | request@0 | &rarr; server</title>
<path fill="none" stroke="mediumblue" stroke-width="3" d="M459.07,-577.95C460.57,-576.9 484.88,-559.88 509.15,-542.89"/>
<polygon fill="mediumblue" stroke="mediumblue" stroke-width="3" points="511.16,-545.76 517.35,-537.16 507.15,-540.02 511.16,-545.76"/>
</g>
<!-- client @ idle , client&#45;0 @ wait , server @ ready -->
<g id="node13" class="node">
<title>client @ idle , client&#45;0 @ wait , server @ ready</title>
<polygon fill="palegreen" stroke="palegreen" points="662,-247.5 552,-247.5 552,-194.5 662,-194.5 662,-247.5"/>
<text text-anchor="middle" x="607" y="-232.3" font-family="Sans-Serif" font-size="14.00">client @ idle</text>
<text text-anchor="middle" x="607" y="-217.3" font-family="Sans-Serif" font-size="14.00">client&#45;0 @ wait</text>
<text text-anchor="middle" x="607" y="-202.3" font-family="Sans-Serif" font-size="14.00">server @ ready</text>
</g>
<!-- client @ idle , client&#45;0 @ idle , server @ ready =&gt; @ idle &#45;&gt; time &#45;&gt; client&#45;0 =&gt; client @ idle , client&#45;0 @ wait , server @ ready&#45;&gt;client @ idle , client&#45;0 @ wait , server @ ready -->
<g id="edge16" class="edge">
<title>client @ idle , client&#45;0 @ idle , server @ ready =&gt; @ idle &#45;&gt; time &#45;&gt; client&#45;0 =&gt; client @ idle , client&#45;0 @ wait , server @ ready&#45;&gt;client @ idle , client&#45;0 @ wait , server @ ready</title>
<path fill="none" stroke="darkgreen" stroke-width="3" d="M459.03,-577.94C460.86,-573.53 555.58,-345.68 592.49,-256.89"/>
<polygon fill="darkgreen" stroke="darkgreen" stroke-width="3" points="595.79,-258.09 596.39,-247.51 589.32,-255.4 595.79,-258.09"/>
</g>
<!-- client @ idle , client&#45;0 @ wait , server @ ready&#45;&gt;client @ idle , client&#45;0 @ wait , server @ ready =&gt; client @ idle , client&#45;0 @ wait , server @ busy -->
<g id="edge30" class="edge">
<title>client @ idle , client&#45;0 @ wait , server @ ready&#45;&gt;client @ idle , client&#45;0 @ wait , server @ ready =&gt; client @ idle , client&#45;0 @ wait , server @ busy</title>
<path fill="none" stroke="darkgreen" stroke-width="3" d="M600.25,-247.85C594.72,-269.45 586.88,-301.13 581,-329 571.28,-375.1 562.29,-433.15 562.01,-434.96"/>
</g>
<!-- client @ idle , client&#45;0 @ wait , server @ ready =&gt; client @ idle , client&#45;0 @ wait , server @ ready -->
<g id="node23" class="node">
<title>client @ idle , client&#45;0 @ wait , server @ ready =&gt; client @ idle , client&#45;0 @ wait , server @ ready</title>
<polygon fill="none" stroke="#0063cd" stroke-width="4" points="607.5,-150 606.5,-150 606.5,-149 607.5,-149 607.5,-150"/>
</g>
<!-- client @ idle , client&#45;0 @ wait , server @ ready&#45;&gt;client @ idle , client&#45;0 @ wait , server @ ready =&gt; client @ idle , client&#45;0 @ wait , server @ ready -->
<g id="edge33" class="edge">
<title>client @ idle , client&#45;0 @ wait , server @ ready&#45;&gt;client @ idle , client&#45;0 @ wait , server @ ready =&gt; client @ idle , client&#45;0 @ wait , server @ ready</title>
<path fill="none" stroke="darkgreen" stroke-width="3" d="M600.47,-194.33C599.54,-174.98 601.56,-151.52 606.51,-150.07"/>
</g>
<!-- client @ idle , client&#45;0 @ wait , server @ ready =&gt; @ wait &#45;&gt; time &#45;&gt; client&#45;0 =&gt; client @ idle , client&#45;0 @ wait , server @ ready -->
<g id="node25" class="node">
<title>client @ idle , client&#45;0 @ wait , server @ ready =&gt; @ wait &#45;&gt; time &#45;&gt; client&#45;0 =&gt; client @ idle , client&#45;0 @ wait , server @ ready</title>
<polygon fill="none" stroke="#0063cd" stroke-width="4" points="556.5,-150 555.5,-150 555.5,-149 556.5,-149 556.5,-150"/>
</g>
<!-- client @ idle , client&#45;0 @ wait , server @ ready&#45;&gt;client @ idle , client&#45;0 @ wait , server @ ready =&gt; @ wait &#45;&gt; time &#45;&gt; client&#45;0 =&gt; client @ idle , client&#45;0 @ wait , server @ ready -->
<g id="edge37" class="edge">
<title>client @ idle , client&#45;0 @ wait , server @ ready&#45;&gt;client @ idle , client&#45;0 @ wait , server @ ready =&gt; @ wait &#45;&gt; time &#45;&gt; client&#45;0 =&gt; client @ idle , client&#45;0 @ wait , server @ ready</title>
<path fill="none" stroke="darkgreen" stroke-width="3" d="M581.77,-194.33C566.74,-174.98 551.66,-151.52 555.56,-150.07"/>
</g>
<!-- client @ idle , client&#45;0 @ wait , server @ ready =&gt; client @ idle , client&#45;0 @ idle , server @ ready -->
<g id="node26" class="node">
<title>client @ idle , client&#45;0 @ wait , server @ ready =&gt; client @ idle , client&#45;0 @ idle , server @ ready</title>
<polygon fill="none" stroke="#0063cd" stroke-width="4" points="839.5,-150 838.5,-150 838.5,-149 839.5,-149 839.5,-150"/>
</g>
<!-- client @ idle , client&#45;0 @ wait , server @ ready&#45;&gt;client @ idle , client&#45;0 @ wait , server @ ready =&gt; client @ idle , client&#45;0 @ idle , server @ ready -->
<g id="edge41" class="edge">
<title>client @ idle , client&#45;0 @ wait , server @ ready&#45;&gt;client @ idle , client&#45;0 @ wait , server @ ready =&gt; client @ idle , client&#45;0 @ idle , server @ ready</title>
<path fill="none" stroke="darkgreen" stroke-width="3" d="M651.38,-194.42C657.84,-191.29 664.5,-188.37 671,-186 741.62,-160.25 836,-150.31 838.93,-150.01"/>
</g>
<!-- server &rarr; | response@0 | &rarr; client&#45;0 -->
<g id="node14" class="node">
<title>server &rarr; | response@0 | &rarr; client&#45;0</title>
<polygon fill="paleturquoise" stroke="paleturquoise" points="792,-186.5 792,-255.5 886,-255.5 886,-186.5 792,-186.5"/>
<text text-anchor="middle" x="839" y="-240.3" font-family="Sans-Serif" font-size="14.00">server →</text>
<polyline fill="none" stroke="paleturquoise" points="792,-232.5 886,-232.5 "/>
<text text-anchor="middle" x="839" y="-217.3" font-family="Sans-Serif" font-size="14.00">response@0</text>
<polyline fill="none" stroke="paleturquoise" points="792,-209.5 886,-209.5 "/>
<text text-anchor="middle" x="839" y="-194.3" font-family="Sans-Serif" font-size="14.00">→ client&#45;0</text>
</g>
<!-- client @ idle , client&#45;0 @ wait , server @ busy =&gt; client @ idle , client&#45;0 @ wait , server @ busy -->
<g id="node19" class="node">
<title>client @ idle , client&#45;0 @ wait , server @ busy =&gt; client @ idle , client&#45;0 @ wait , server @ busy</title>
<polygon fill="none" stroke="#0063cd" stroke-width="4" points="923.5,-150 922.5,-150 922.5,-149 923.5,-149 923.5,-150"/>
</g>
<!-- server &rarr; | response@0 | &rarr; client&#45;0&#45;&gt;client @ idle , client&#45;0 @ wait , server @ busy =&gt; client @ idle , client&#45;0 @ wait , server @ busy -->
<g id="edge22" class="edge">
<title>server &rarr; | response@0 | &rarr; client&#45;0&#45;&gt;client @ idle , client&#45;0 @ wait , server @ busy =&gt; client @ idle , client&#45;0 @ wait , server @ busy</title>
<path fill="none" stroke="mediumblue" stroke-width="3" d="M879.52,-186.23C893.02,-174.99 906.71,-163.57 915.03,-156.64"/>
<polygon fill="mediumblue" stroke="mediumblue" stroke-width="3" points="917.49,-159.14 922.94,-150.05 913.01,-153.77 917.49,-159.14"/>
</g>
<!-- server &rarr; | response@0 | &rarr; client&#45;0&#45;&gt;client @ idle , client&#45;0 @ wait , server @ ready =&gt; client @ idle , client&#45;0 @ wait , server @ ready -->
<g id="edge32" class="edge">
<title>server &rarr; | response@0 | &rarr; client&#45;0&#45;&gt;client @ idle , client&#45;0 @ wait , server @ ready =&gt; client @ idle , client&#45;0 @ wait , server @ ready</title>
<path fill="none" stroke="mediumblue" stroke-width="3" d="M791.92,-189.9C788.95,-188.48 785.96,-187.16 783,-186 722.98,-162.46 645.13,-153.46 617.38,-150.87"/>
<polygon fill="mediumblue" stroke="mediumblue" stroke-width="3" points="617.33,-147.36 607.07,-150.01 616.75,-154.33 617.33,-147.36"/>
</g>
<!-- server &rarr; | response@0 | &rarr; client&#45;0&#45;&gt;client @ idle , client&#45;0 @ wait , server @ ready =&gt; client @ idle , client&#45;0 @ idle , server @ ready -->
<g id="edge40" class="edge">
<title>server &rarr; | response@0 | &rarr; client&#45;0&#45;&gt;client @ idle , client&#45;0 @ wait , server @ ready =&gt; client @ idle , client&#45;0 @ idle , server @ ready</title>
<path fill="none" stroke="mediumblue" stroke-width="3" d="M839,-186.23C839,-176.75 839,-167.14 839,-160.21"/>
<polygon fill="mediumblue" stroke="mediumblue" stroke-width="3" points="842.5,-160.05 839,-150.05 835.5,-160.05 842.5,-160.05"/>
</g>
<!-- @ busy &rarr; | time | &rarr; server -->
<g id="node15" class="node">
<title>@ busy &rarr; | time | &rarr; server</title>
<polygon fill="paleturquoise" stroke="paleturquoise" points="724.5,-329.5 724.5,-398.5 805.5,-398.5 805.5,-329.5 724.5,-329.5"/>
<text text-anchor="middle" x="765" y="-383.3" font-family="Sans-Serif" font-size="14.00">@ busy →</text>
<polyline fill="none" stroke="paleturquoise" points="724.5,-375.5 805.5,-375.5 "/>
<text text-anchor="middle" x="765" y="-360.3" font-family="Sans-Serif" font-size="14.00">time</text>
<polyline fill="none" stroke="paleturquoise" points="724.5,-352.5 805.5,-352.5 "/>
<text text-anchor="middle" x="765" y="-337.3" font-family="Sans-Serif" font-size="14.00">→ server</text>
</g>
<!-- client @ idle , client&#45;0 @ wait , server @ busy =&gt; @ busy &#45;&gt; time &#45;&gt; server =&gt; client @ idle , client&#45;0 @ wait , server @ ready -->
<g id="node16" class="node">
<title>client @ idle , client&#45;0 @ wait , server @ busy =&gt; @ busy &#45;&gt; time &#45;&gt; server =&gt; client @ idle , client&#45;0 @ wait , server @ ready</title>
<polygon fill="none" stroke="#0063cd" stroke-width="4" points="765.5,-293 764.5,-293 764.5,-292 765.5,-292 765.5,-293"/>
</g>
<!-- @ busy &rarr; | time | &rarr; server&#45;&gt;client @ idle , client&#45;0 @ wait , server @ busy =&gt; @ busy &#45;&gt; time &#45;&gt; server =&gt; client @ idle , client&#45;0 @ wait , server @ ready -->
<g id="edge18" class="edge">
<title>@ busy &rarr; | time | &rarr; server&#45;&gt;client @ idle , client&#45;0 @ wait , server @ busy =&gt; @ busy &#45;&gt; time &#45;&gt; server =&gt; client @ idle , client&#45;0 @ wait , server @ ready</title>
<path fill="none" stroke="mediumblue" stroke-width="3" d="M765,-329.23C765,-311.89 765,-294.15 765,-293.05"/>
</g>
<!-- client @ idle , client&#45;0 @ wait , server @ busy =&gt; @ busy &#45;&gt; time &#45;&gt; server =&gt; client @ idle , client&#45;0 @ wait , server @ ready&#45;&gt;client @ idle , client&#45;0 @ wait , server @ ready -->
<g id="edge20" class="edge">
<title>client @ idle , client&#45;0 @ wait , server @ busy =&gt; @ busy &#45;&gt; time &#45;&gt; server =&gt; client @ idle , client&#45;0 @ wait , server @ ready&#45;&gt;client @ idle , client&#45;0 @ wait , server @ ready</title>
<path fill="none" stroke="darkgreen" stroke-width="3" d="M764.85,-291.95C761.68,-290.91 710.45,-273.95 671,-256 668.23,-254.74 665.4,-253.41 662.57,-252.04"/>
<polygon fill="darkgreen" stroke="darkgreen" stroke-width="3" points="664.02,-248.85 653.51,-247.55 660.92,-255.13 664.02,-248.85"/>
</g>
<!-- client @ idle , client&#45;0 @ wait , server @ busy =&gt; @ busy &#45;&gt; time &#45;&gt; server =&gt; client @ idle , client&#45;0 @ wait , server @ ready&#45;&gt;server &rarr; | response@0 | &rarr; client&#45;0 -->
<g id="edge17" class="edge">
<title>client @ idle , client&#45;0 @ wait , server @ busy =&gt; @ busy &#45;&gt; time &#45;&gt; server =&gt; client @ idle , client&#45;0 @ wait , server @ ready&#45;&gt;server &rarr; | response@0 | &rarr; client&#45;0</title>
<path fill="none" stroke="mediumblue" stroke-width="3" d="M765.05,-291.95C766.03,-291.02 780.28,-277.55 796,-262.67"/>
<polygon fill="mediumblue" stroke="mediumblue" stroke-width="3" points="798.43,-265.19 803.29,-255.78 793.62,-260.11 798.43,-265.19"/>
</g>
<!-- server &rarr; | response@1 | &rarr; client&#45;0 -->
<g id="node18" class="node">
<title>server &rarr; | response@1 | &rarr; client&#45;0</title>
<polygon fill="paleturquoise" stroke="paleturquoise" points="680,-186.5 680,-255.5 774,-255.5 774,-186.5 680,-186.5"/>
<text text-anchor="middle" x="727" y="-240.3" font-family="Sans-Serif" font-size="14.00">server →</text>
<polyline fill="none" stroke="paleturquoise" points="680,-232.5 774,-232.5 "/>
<text text-anchor="middle" x="727" y="-217.3" font-family="Sans-Serif" font-size="14.00">response@1</text>
<polyline fill="none" stroke="paleturquoise" points="680,-209.5 774,-209.5 "/>
<text text-anchor="middle" x="727" y="-194.3" font-family="Sans-Serif" font-size="14.00">→ client&#45;0</text>
</g>
<!-- client @ idle , client&#45;0 @ wait , server @ busy =&gt; @ busy &#45;&gt; time &#45;&gt; server =&gt; client @ idle , client&#45;0 @ wait , server @ ready&#45;&gt;server &rarr; | response@1 | &rarr; client&#45;0 -->
<g id="edge21" class="edge">
<title>client @ idle , client&#45;0 @ wait , server @ busy =&gt; @ busy &#45;&gt; time &#45;&gt; server =&gt; client @ idle , client&#45;0 @ wait , server @ ready&#45;&gt;server &rarr; | response@1 | &rarr; client&#45;0</title>
<path fill="none" stroke="mediumblue" stroke-width="3" d="M764.97,-291.95C764.49,-291.06 757.8,-278.74 750.16,-264.67"/>
<polygon fill="mediumblue" stroke="mediumblue" stroke-width="3" points="753.18,-262.89 745.34,-255.78 747.03,-266.23 753.18,-262.89"/>
</g>
<!-- client @ idle , client&#45;0 @ wait , server @ busy -->
<g id="node17" class="node">
<title>client @ idle , client&#45;0 @ wait , server @ busy</title>
<polygon fill="palegreen" stroke="palegreen" points="930,-390.5 824,-390.5 824,-337.5 930,-337.5 930,-390.5"/>
<text text-anchor="middle" x="877" y="-375.3" font-family="Sans-Serif" font-size="14.00">client @ idle</text>
<text text-anchor="middle" x="877" y="-360.3" font-family="Sans-Serif" font-size="14.00">client&#45;0 @ wait</text>
<text text-anchor="middle" x="877" y="-345.3" font-family="Sans-Serif" font-size="14.00">server @ busy</text>
</g>
<!-- client @ idle , client&#45;0 @ wait , server @ busy&#45;&gt;client @ idle , client&#45;0 @ wait , server @ busy =&gt; @ busy &#45;&gt; time &#45;&gt; server =&gt; client @ idle , client&#45;0 @ wait , server @ ready -->
<g id="edge19" class="edge">
<title>client @ idle , client&#45;0 @ wait , server @ busy&#45;&gt;client @ idle , client&#45;0 @ wait , server @ busy =&gt; @ busy &#45;&gt; time &#45;&gt; server =&gt; client @ idle , client&#45;0 @ wait , server @ ready</title>
<path fill="none" stroke="darkgreen" stroke-width="3" d="M835.93,-337.33C804.97,-317.98 767.43,-294.52 765.11,-293.07"/>
</g>
<!-- client @ idle , client&#45;0 @ wait , server @ busy&#45;&gt;client @ idle , client&#45;0 @ wait , server @ busy =&gt; client @ idle , client&#45;0 @ wait , server @ busy -->
<g id="edge23" class="edge">
<title>client @ idle , client&#45;0 @ wait , server @ busy&#45;&gt;client @ idle , client&#45;0 @ wait , server @ busy =&gt; client @ idle , client&#45;0 @ wait , server @ busy</title>
<path fill="none" stroke="darkgreen" stroke-width="3" d="M877.96,-337.31C886.08,-281.54 915.03,-154.06 922.65,-150.09"/>
</g>
<!-- client @ idle , client&#45;0 @ wait , server @ busy =&gt; @ wait &#45;&gt; time &#45;&gt; client&#45;0 =&gt; client @ idle , client&#45;0 @ wait , server @ busy -->
<g id="node21" class="node">
<title>client @ idle , client&#45;0 @ wait , server @ busy =&gt; @ wait &#45;&gt; time &#45;&gt; client&#45;0 =&gt; client @ idle , client&#45;0 @ wait , server @ busy</title>
<polygon fill="none" stroke="#0063cd" stroke-width="4" points="721.5,-293 720.5,-293 720.5,-292 721.5,-292 721.5,-293"/>
</g>
<!-- client @ idle , client&#45;0 @ wait , server @ busy&#45;&gt;client @ idle , client&#45;0 @ wait , server @ busy =&gt; @ wait &#45;&gt; time &#45;&gt; client&#45;0 =&gt; client @ idle , client&#45;0 @ wait , server @ busy -->
<g id="edge27" class="edge">
<title>client @ idle , client&#45;0 @ wait , server @ busy&#45;&gt;client @ idle , client&#45;0 @ wait , server @ busy =&gt; @ wait &#45;&gt; time &#45;&gt; client&#45;0 =&gt; client @ idle , client&#45;0 @ wait , server @ busy</title>
<path fill="none" stroke="darkgreen" stroke-width="3" d="M823.75,-337.75C817.79,-334.68 811.79,-331.68 806,-329 766.67,-310.79 715.33,-294.08 720.34,-293.05"/>
</g>
<!-- client @ idle , client&#45;0 @ wait , server @ busy =&gt; client @ idle , client&#45;0 @ wait , server @ busy&#45;&gt;client @ idle , client&#45;0 @ wait , server @ busy -->
<g id="edge24" class="edge">
<title>client @ idle , client&#45;0 @ wait , server @ busy =&gt; client @ idle , client&#45;0 @ wait , server @ busy&#45;&gt;client @ idle , client&#45;0 @ wait , server @ busy</title>
<path fill="none" stroke="darkgreen" stroke-width="3" d="M923.31,-150.09C928.89,-153.85 905.87,-267.97 889.84,-327.55"/>
<polygon fill="darkgreen" stroke="darkgreen" stroke-width="3" points="886.43,-326.74 887.13,-337.31 893.18,-328.61 886.43,-326.74"/>
</g>
<!-- @ wait &rarr; | time | &rarr; client&#45;0 -->
<g id="node20" class="node">
<title>@ wait &rarr; | time | &rarr; client&#45;0</title>
<polygon fill="paleturquoise" stroke="paleturquoise" points="590,-329.5 590,-398.5 668,-398.5 668,-329.5 590,-329.5"/>
<text text-anchor="middle" x="629" y="-383.3" font-family="Sans-Serif" font-size="14.00">@ wait →</text>
<polyline fill="none" stroke="paleturquoise" points="590,-375.5 668,-375.5 "/>
<text text-anchor="middle" x="629" y="-360.3" font-family="Sans-Serif" font-size="14.00">time</text>
<polyline fill="none" stroke="paleturquoise" points="590,-352.5 668,-352.5 "/>
<text text-anchor="middle" x="629" y="-337.3" font-family="Sans-Serif" font-size="14.00">→ client&#45;0</text>
</g>
<!-- @ wait &rarr; | time | &rarr; client&#45;0&#45;&gt;client @ idle , client&#45;0 @ wait , server @ busy =&gt; @ wait &#45;&gt; time &#45;&gt; client&#45;0 =&gt; client @ idle , client&#45;0 @ wait , server @ busy -->
<g id="edge26" class="edge">
<title>@ wait &rarr; | time | &rarr; client&#45;0&#45;&gt;client @ idle , client&#45;0 @ wait , server @ busy =&gt; @ wait &#45;&gt; time &#45;&gt; client&#45;0 =&gt; client @ idle , client&#45;0 @ wait , server @ busy</title>
<path fill="none" stroke="mediumblue" stroke-width="3" d="M668.02,-333.31C692.31,-314.83 719.26,-294.33 720.92,-293.06"/>
</g>
<!-- @ wait &rarr; | time | &rarr; client&#45;0&#45;&gt;client @ idle , client&#45;0 @ wait , server @ ready =&gt; @ wait &#45;&gt; time &#45;&gt; client&#45;0 =&gt; client @ idle , client&#45;0 @ wait , server @ ready -->
<g id="edge36" class="edge">
<title>@ wait &rarr; | time | &rarr; client&#45;0&#45;&gt;client @ idle , client&#45;0 @ wait , server @ ready =&gt; @ wait &#45;&gt; time &#45;&gt; client&#45;0 =&gt; client @ idle , client&#45;0 @ wait , server @ ready</title>
<path fill="none" stroke="mediumblue" stroke-width="3" d="M591.81,-329.23C573.3,-309.85 552.81,-283.88 543,-256 532.67,-226.65 537.64,-216.65 543,-186 545.84,-169.77 555.38,-151.2 555.97,-150.06"/>
</g>
<!-- client @ idle , client&#45;0 @ wait , server @ busy =&gt; @ wait &#45;&gt; time &#45;&gt; client&#45;0 =&gt; client @ idle , client&#45;0 @ wait , server @ busy&#45;&gt;client&#45;0 &rarr; | request@0 | &rarr; server -->
<g id="edge25" class="edge">
<title>client @ idle , client&#45;0 @ wait , server @ busy =&gt; @ wait &#45;&gt; time &#45;&gt; client&#45;0 =&gt; client @ idle , client&#45;0 @ wait , server @ busy&#45;&gt;client&#45;0 &rarr; | request@0 | &rarr; server</title>
<path fill="none" stroke="mediumblue" stroke-width="3" d="M720.99,-293.05C720.54,-295 705.92,-357.96 677,-399 658.26,-425.59 631.83,-450.34 608.73,-469.32"/>
<polygon fill="mediumblue" stroke="mediumblue" stroke-width="3" points="606.3,-466.78 600.72,-475.79 610.7,-472.23 606.3,-466.78"/>
</g>
<!-- client @ idle , client&#45;0 @ wait , server @ busy =&gt; @ wait &#45;&gt; time &#45;&gt; client&#45;0 =&gt; client @ idle , client&#45;0 @ wait , server @ busy&#45;&gt;client @ idle , client&#45;0 @ wait , server @ busy -->
<g id="edge28" class="edge">
<title>client @ idle , client&#45;0 @ wait , server @ busy =&gt; @ wait &#45;&gt; time &#45;&gt; client&#45;0 =&gt; client @ idle , client&#45;0 @ wait , server @ busy&#45;&gt;client @ idle , client&#45;0 @ wait , server @ busy</title>
<path fill="none" stroke="darkgreen" stroke-width="3" d="M721.22,-293C730.83,-293.27 783.72,-310.35 824,-329 826.61,-330.21 829.26,-331.48 831.92,-332.8"/>
<polygon fill="darkgreen" stroke="darkgreen" stroke-width="3" points="830.43,-335.96 840.92,-337.39 833.61,-329.73 830.43,-335.96"/>
</g>
<!-- client @ idle , client&#45;0 @ wait , server @ ready =&gt; client @ idle , client&#45;0 @ wait , server @ busy&#45;&gt;client @ idle , client&#45;0 @ wait , server @ busy -->
<g id="edge31" class="edge">
<title>client @ idle , client&#45;0 @ wait , server @ ready =&gt; client @ idle , client&#45;0 @ wait , server @ busy&#45;&gt;client @ idle , client&#45;0 @ wait , server @ busy</title>
<path fill="none" stroke="darkgreen" stroke-width="3" d="M562.11,-435C566.53,-434.99 708.93,-434.33 815,-399 818.69,-397.77 822.43,-396.32 826.13,-394.73"/>
<polygon fill="darkgreen" stroke="darkgreen" stroke-width="3" points="827.62,-397.89 835.23,-390.52 824.68,-391.54 827.62,-397.89"/>
</g>
<!-- client @ idle , client&#45;0 @ wait , server @ ready =&gt; client @ idle , client&#45;0 @ wait , server @ ready&#45;&gt;client @ idle , client&#45;0 @ wait , server @ ready -->
<g id="edge34" class="edge">
<title>client @ idle , client&#45;0 @ wait , server @ ready =&gt; client @ idle , client&#45;0 @ wait , server @ ready&#45;&gt;client @ idle , client&#45;0 @ wait , server @ ready</title>
<path fill="none" stroke="darkgreen" stroke-width="3" d="M607.49,-150.07C611.59,-151.27 613.68,-167.56 613.75,-184.12"/>
<polygon fill="darkgreen" stroke="darkgreen" stroke-width="3" points="610.24,-184.26 613.53,-194.33 617.24,-184.41 610.24,-184.26"/>
</g>
<!-- client&#45;0 &rarr; | request@1 | &rarr; server -->
<g id="node24" class="node">
<title>client&#45;0 &rarr; | request@1 | &rarr; server</title>
<polygon fill="paleturquoise" stroke="paleturquoise" points="514.5,-43.5 514.5,-112.5 597.5,-112.5 597.5,-43.5 514.5,-43.5"/>
<text text-anchor="middle" x="556" y="-97.3" font-family="Sans-Serif" font-size="14.00">client&#45;0 →</text>
<polyline fill="none" stroke="paleturquoise" points="514.5,-89.5 597.5,-89.5 "/>
<text text-anchor="middle" x="556" y="-74.3" font-family="Sans-Serif" font-size="14.00">request@1</text>
<polyline fill="none" stroke="paleturquoise" points="514.5,-66.5 597.5,-66.5 "/>
<text text-anchor="middle" x="556" y="-51.3" font-family="Sans-Serif" font-size="14.00">→ server</text>
</g>
<!-- client @ idle , client&#45;0 @ wait , server @ ready =&gt; @ wait &#45;&gt; time &#45;&gt; client&#45;0 =&gt; client @ idle , client&#45;0 @ wait , server @ ready&#45;&gt;client&#45;0 &rarr; | request@0 | &rarr; server -->
<g id="edge39" class="edge">
<title>client @ idle , client&#45;0 @ wait , server @ ready =&gt; @ wait &#45;&gt; time &#45;&gt; client&#45;0 =&gt; client @ idle , client&#45;0 @ wait , server @ ready&#45;&gt;client&#45;0 &rarr; | request@0 | &rarr; server</title>
<path fill="none" stroke="mediumblue" stroke-width="3" d="M555.95,-150.05C554.91,-151.11 538.16,-168.34 533,-186 524.27,-215.86 531.39,-224.93 533,-256 536.76,-328.42 546.59,-412.16 553.03,-462.01"/>
<polygon fill="mediumblue" stroke="mediumblue" stroke-width="3" points="549.59,-462.66 554.35,-472.12 556.53,-461.75 549.59,-462.66"/>
</g>
<!-- client @ idle , client&#45;0 @ wait , server @ ready =&gt; @ wait &#45;&gt; time &#45;&gt; client&#45;0 =&gt; client @ idle , client&#45;0 @ wait , server @ ready&#45;&gt;client @ idle , client&#45;0 @ wait , server @ ready -->
<g id="edge38" class="edge">
<title>client @ idle , client&#45;0 @ wait , server @ ready =&gt; @ wait &#45;&gt; time &#45;&gt; client&#45;0 =&gt; client @ idle , client&#45;0 @ wait , server @ ready&#45;&gt;client @ idle , client&#45;0 @ wait , server @ ready</title>
<path fill="none" stroke="darkgreen" stroke-width="3" d="M556.26,-150.02C561.13,-150.66 576.23,-168.4 588.87,-185.86"/>
<polygon fill="darkgreen" stroke="darkgreen" stroke-width="3" points="586.22,-188.16 594.83,-194.33 591.94,-184.14 586.22,-188.16"/>
</g>
<!-- client @ idle , client&#45;0 @ wait , server @ ready =&gt; @ wait &#45;&gt; time &#45;&gt; client&#45;0 =&gt; client @ idle , client&#45;0 @ wait , server @ ready&#45;&gt;client&#45;0 &rarr; | request@1 | &rarr; server -->
<g id="edge35" class="edge">
<title>client @ idle , client&#45;0 @ wait , server @ ready =&gt; @ wait &#45;&gt; time &#45;&gt; client&#45;0 =&gt; client @ idle , client&#45;0 @ wait , server @ ready&#45;&gt;client&#45;0 &rarr; | request@1 | &rarr; server</title>
<path fill="none" stroke="mediumblue" stroke-width="3" d="M556,-148.95C556,-148.09 556,-136.43 556,-122.86"/>
<polygon fill="mediumblue" stroke="mediumblue" stroke-width="3" points="559.5,-122.78 556,-112.78 552.5,-122.78 559.5,-122.78"/>
</g>
<!-- client @ idle , client&#45;0 @ wait , server @ ready =&gt; client @ idle , client&#45;0 @ idle , server @ ready&#45;&gt;client @ idle , client&#45;0 @ idle , server @ ready -->
<g id="edge42" class="edge">
<title>client @ idle , client&#45;0 @ wait , server @ ready =&gt; client @ idle , client&#45;0 @ idle , server @ ready&#45;&gt;client @ idle , client&#45;0 @ idle , server @ ready</title>
<path fill="none" stroke="darkgreen" stroke-width="3" d="M839.09,-150.04C843.06,-151.76 970,-207.48 970,-292 970,-508 970,-508 970,-508 970,-604.48 641.6,-636.29 498.43,-645.58"/>
<polygon fill="darkgreen" stroke="darkgreen" stroke-width="3" points="498.21,-642.08 488.45,-646.21 498.65,-649.07 498.21,-642.08"/>
</g>
</g>
</svg>
