<?xml version="1.0" encoding="UTF-8" standalone="no"?>
<!DOCTYPE svg PUBLIC "-//W3C//DTD SVG 1.1//EN"
 "http://www.w3.org/Graphics/SVG/1.1/DTD/svg11.dtd">
<!-- Generated by graphviz version 2.46.0 (0)
 -->
<!-- Title: G Pages: 1 -->
<svg width="431pt" height="516pt"
 viewBox="0.00 0.00 431.00 516.00" xmlns="http://www.w3.org/2000/svg" xmlns:xlink="http://www.w3.org/1999/xlink">
<g id="graph0" class="graph" transform="scale(1 1) rotate(0) translate(4 512)">
<title>G</title>
<polygon fill="white" stroke="transparent" points="-4,4 -4,-512 427,-512 427,4 -4,4"/>
<text text-anchor="middle" x="211.5" y="-13.4" font-family="Sans-Serif" font-size="32.00">Server Detail (w/ One Client)</text>
<!-- server &#8594; | response@0 | &#8594; client&#45;0 | server @ busy =&gt; server @ ready -->
<g id="node1" class="node">
<title>server &#8594; | response@0 | &#8594; client&#45;0 | server @ busy =&gt; server @ ready</title>
<polygon fill="paleturquoise" stroke="paleturquoise" points="89.26,-295.5 89.26,-364.5 183.26,-364.5 183.26,-295.5 89.26,-295.5"/>
<text text-anchor="middle" x="136.26" y="-349.3" font-family="Sans-Serif" font-size="14.00">server →</text>
<polyline fill="none" stroke="paleturquoise" points="89.26,-341.5 183.26,-341.5 "/>
<text text-anchor="middle" x="136.26" y="-326.3" font-family="Sans-Serif" font-size="14.00">response@0</text>
<polyline fill="none" stroke="paleturquoise" points="89.26,-318.5 183.26,-318.5 "/>
<text text-anchor="middle" x="136.26" y="-303.3" font-family="Sans-Serif" font-size="14.00">→ client&#45;0</text>
</g>
<!-- @ busy &#8594; | time | &#8594; server | server @ busy =&gt; server @ ready -->
<g id="node2" class="node">
<title>@ busy &#8594; | time | &#8594; server | server @ busy =&gt; server @ ready</title>
<polygon fill="paleturquoise" stroke="paleturquoise" points="194.76,-438.5 194.76,-507.5 275.76,-507.5 275.76,-438.5 194.76,-438.5"/>
<text text-anchor="middle" x="235.26" y="-492.3" font-family="Sans-Serif" font-size="14.00">@ busy →</text>
<polyline fill="none" stroke="paleturquoise" points="194.76,-484.5 275.76,-484.5 "/>
<text text-anchor="middle" x="235.26" y="-469.3" font-family="Sans-Serif" font-size="14.00">time</text>
<polyline fill="none" stroke="paleturquoise" points="194.76,-461.5 275.76,-461.5 "/>
<text text-anchor="middle" x="235.26" y="-446.3" font-family="Sans-Serif" font-size="14.00">→ server</text>
</g>
<!-- server @ busy =&gt; @ busy &#45;&gt; time &#45;&gt; server =&gt; server @ ready -->
<g id="node3" class="node">
<title>server @ busy =&gt; @ busy &#45;&gt; time &#45;&gt; server =&gt; server @ ready</title>
<polygon fill="none" stroke="#0063cd" stroke-width="4" points="235.76,-402 234.76,-402 234.76,-401 235.76,-401 235.76,-402"/>
</g>
<!-- @ busy &#8594; | time | &#8594; server | server @ busy =&gt; server @ ready&#45;&gt;server @ busy =&gt; @ busy &#45;&gt; time &#45;&gt; server =&gt; server @ ready -->
<g id="edge2" class="edge">
<title>@ busy &#8594; | time | &#8594; server | server @ busy =&gt; server @ ready&#45;&gt;server @ busy =&gt; @ busy &#45;&gt; time &#45;&gt; server =&gt; server @ ready</title>
<path fill="none" stroke="mediumblue" stroke-width="3" d="M235.26,-438.23C235.26,-420.89 235.26,-403.15 235.26,-402.05"/>
</g>
<!-- server @ busy =&gt; @ busy &#45;&gt; time &#45;&gt; server =&gt; server @ ready&#45;&gt;server &#8594; | response@0 | &#8594; client&#45;0 | server @ busy =&gt; server @ ready -->
<g id="edge1" class="edge">
<title>server @ busy =&gt; @ busy &#45;&gt; time &#45;&gt; server =&gt; server @ ready&#45;&gt;server &#8594; | response@0 | &#8594; client&#45;0 | server @ busy =&gt; server @ ready</title>
<path fill="none" stroke="mediumblue" stroke-width="3" d="M235.19,-400.95C233.84,-399.99 213.64,-385.72 191.85,-370.31"/>
<polygon fill="mediumblue" stroke="mediumblue" stroke-width="3" points="193.64,-367.29 183.46,-364.37 189.6,-373 193.64,-367.29"/>
</g>
<!-- server @ busy =&gt; @ busy &#45;&gt; time &#45;&gt; server =&gt; server @ ready&#45;2 -->
<g id="node4" class="node">
<title>server @ busy =&gt; @ busy &#45;&gt; time &#45;&gt; server =&gt; server @ ready&#45;2</title>
<polygon fill="none" stroke="darkgreen" stroke-width="2" points="202.76,-330.5 201.76,-330.5 201.76,-329.5 202.76,-329.5 202.76,-330.5"/>
</g>
<!-- server @ busy =&gt; @ busy &#45;&gt; time &#45;&gt; server =&gt; server @ ready&#45;&gt;server @ busy =&gt; @ busy &#45;&gt; time &#45;&gt; server =&gt; server @ ready&#45;2 -->
<g id="edge4" class="edge">
<title>server @ busy =&gt; @ busy &#45;&gt; time &#45;&gt; server =&gt; server @ ready&#45;&gt;server @ busy =&gt; @ busy &#45;&gt; time &#45;&gt; server =&gt; server @ ready&#45;2</title>
<path fill="none" stroke="darkgreen" stroke-width="3" d="M235.22,-400.95C234.32,-399.83 219.88,-381.74 212.26,-365 205.94,-351.11 202.48,-332.22 202.27,-331.06"/>
</g>
<!-- server &#8594; | response@1 | &#8594; client&#45;0 | server @ busy =&gt; server @ ready -->
<g id="node7" class="node">
<title>server &#8594; | response@1 | &#8594; client&#45;0 | server @ busy =&gt; server @ ready</title>
<polygon fill="paleturquoise" stroke="paleturquoise" points="221.26,-295.5 221.26,-364.5 315.26,-364.5 315.26,-295.5 221.26,-295.5"/>
<text text-anchor="middle" x="268.26" y="-349.3" font-family="Sans-Serif" font-size="14.00">server →</text>
<polyline fill="none" stroke="paleturquoise" points="221.26,-341.5 315.26,-341.5 "/>
<text text-anchor="middle" x="268.26" y="-326.3" font-family="Sans-Serif" font-size="14.00">response@1</text>
<polyline fill="none" stroke="paleturquoise" points="221.26,-318.5 315.26,-318.5 "/>
<text text-anchor="middle" x="268.26" y="-303.3" font-family="Sans-Serif" font-size="14.00">→ client&#45;0</text>
</g>
<!-- server @ busy =&gt; @ busy &#45;&gt; time &#45;&gt; server =&gt; server @ ready&#45;&gt;server &#8594; | response@1 | &#8594; client&#45;0 | server @ busy =&gt; server @ ready -->
<g id="edge6" class="edge">
<title>server @ busy =&gt; @ busy &#45;&gt; time &#45;&gt; server =&gt; server @ ready&#45;&gt;server &#8594; | response@1 | &#8594; client&#45;0 | server @ busy =&gt; server @ ready</title>
<path fill="none" stroke="mediumblue" stroke-width="3" d="M235.28,-400.95C235.7,-400.07 241.4,-387.97 247.95,-374.07"/>
<polygon fill="mediumblue" stroke="mediumblue" stroke-width="3" points="251.24,-375.31 252.34,-364.78 244.91,-372.33 251.24,-375.31"/>
</g>
<!-- server @ ready -->
<g id="node6" class="node">
<title>server @ ready</title>
<polygon fill="palegreen" stroke="palegreen" points="286.26,-242 176.26,-242 176.26,-206 286.26,-206 286.26,-242"/>
<text text-anchor="middle" x="231.26" y="-220.3" font-family="Sans-Serif" font-size="14.00">server @ ready</text>
</g>
<!-- server @ busy =&gt; @ busy &#45;&gt; time &#45;&gt; server =&gt; server @ ready&#45;2&#45;&gt;server @ ready -->
<g id="edge5" class="edge">
<title>server @ busy =&gt; @ busy &#45;&gt; time &#45;&gt; server =&gt; server @ ready&#45;2&#45;&gt;server @ ready</title>
<path fill="none" stroke="darkgreen" stroke-width="3" d="M202.28,-328.92C202.86,-326.84 215.31,-282.19 223.7,-252.09"/>
<polygon fill="darkgreen" stroke="darkgreen" stroke-width="3" points="227.16,-252.72 226.48,-242.15 220.42,-250.84 227.16,-252.72"/>
</g>
<!-- server @ busy -->
<g id="node5" class="node">
<title>server @ busy</title>
<polygon fill="palegreen" stroke="palegreen" points="339.76,-79 234.76,-79 234.76,-43 339.76,-43 339.76,-79"/>
<text text-anchor="middle" x="287.26" y="-57.3" font-family="Sans-Serif" font-size="14.00">server @ busy</text>
</g>
<!-- server @ busy&#45;&gt;server @ busy =&gt; @ busy &#45;&gt; time &#45;&gt; server =&gt; server @ ready -->
<g id="edge3" class="edge">
<title>server @ busy&#45;&gt;server @ busy =&gt; @ busy &#45;&gt; time &#45;&gt; server =&gt; server @ ready</title>
<path fill="none" stroke="darkgreen" stroke-width="3" d="M305.91,-79.01C322.2,-95.8 343.26,-123.11 343.26,-152 343.26,-225 343.26,-225 343.26,-225 343.26,-287.79 362.79,-315.42 324.26,-365 298.48,-398.16 237.21,-400.92 235.3,-401"/>
</g>
<!-- server @ ready =&gt; server @ busy -->
<g id="node9" class="node">
<title>server @ ready =&gt; server @ busy</title>
<polygon fill="none" stroke="#0063cd" stroke-width="4" points="231.76,-153 230.76,-153 230.76,-152 231.76,-152 231.76,-153"/>
</g>
<!-- server @ ready&#45;&gt;server @ ready =&gt; server @ busy -->
<g id="edge8" class="edge">
<title>server @ ready&#45;&gt;server @ ready =&gt; server @ busy</title>
<path fill="none" stroke="darkgreen" stroke-width="3" d="M231.26,-205.7C231.26,-185.62 231.26,-154.99 231.26,-153.09"/>
</g>
<!-- client&#45;0 &#8594; | request@0 | &#8594; server | server @ ready =&gt; server @ busy -->
<g id="node8" class="node">
<title>client&#45;0 &#8594; | request@0 | &#8594; server | server @ ready =&gt; server @ busy</title>
<polygon fill="paleturquoise" stroke="paleturquoise" points="74.76,-189.5 74.76,-258.5 157.76,-258.5 157.76,-189.5 74.76,-189.5"/>
<text text-anchor="middle" x="116.26" y="-243.3" font-family="Sans-Serif" font-size="14.00">client&#45;0 →</text>
<polyline fill="none" stroke="paleturquoise" points="74.76,-235.5 157.76,-235.5 "/>
<text text-anchor="middle" x="116.26" y="-220.3" font-family="Sans-Serif" font-size="14.00">request@0</text>
<polyline fill="none" stroke="paleturquoise" points="74.76,-212.5 157.76,-212.5 "/>
<text text-anchor="middle" x="116.26" y="-197.3" font-family="Sans-Serif" font-size="14.00">→ server</text>
</g>
<!-- client&#45;0 &#8594; | request@0 | &#8594; server | server @ ready =&gt; server @ busy&#45;&gt;server @ ready =&gt; server @ busy -->
<g id="edge7" class="edge">
<title>client&#45;0 &#8594; | request@0 | &#8594; server | server @ ready =&gt; server @ busy&#45;&gt;server @ ready =&gt; server @ busy</title>
<path fill="none" stroke="mediumblue" stroke-width="3" d="M157.84,-194.91C161.01,-192.88 164.17,-190.89 167.26,-189 186.42,-177.25 209.54,-164.61 222.08,-157.88"/>
<polygon fill="mediumblue" stroke="mediumblue" stroke-width="3" points="223.97,-160.84 231.15,-153.05 220.68,-154.66 223.97,-160.84"/>
</g>
<!-- server @ ready =&gt; server @ busy&#45;2 -->
<g id="node10" class="node">
<title>server @ ready =&gt; server @ busy&#45;2</title>
<polygon fill="none" stroke="darkgreen" stroke-width="2" points="273.76,-116 272.76,-116 272.76,-115 273.76,-115 273.76,-116"/>
</g>
<!-- server @ ready =&gt; server @ busy&#45;&gt;server @ ready =&gt; server @ busy&#45;2 -->
<g id="edge9" class="edge">
<title>server @ ready =&gt; server @ busy&#45;&gt;server @ ready =&gt; server @ busy&#45;2</title>
<path fill="none" stroke="darkgreen" stroke-width="3" d="M231.38,-151.9C233.77,-149.85 270.83,-118.08 273.15,-116.1"/>
</g>
<!-- server @ ready =&gt; server @ busy&#45;2&#45;&gt;server @ busy -->
<g id="edge10" class="edge">
<title>server @ ready =&gt; server @ busy&#45;2&#45;&gt;server @ busy</title>
<path fill="none" stroke="darkgreen" stroke-width="3" d="M273.3,-114.85C273.69,-113.35 276.94,-101.08 280.2,-88.73"/>
<polygon fill="darkgreen" stroke="darkgreen" stroke-width="3" points="283.59,-89.59 282.76,-79.02 276.82,-87.8 283.59,-89.59"/>
</g>
</g>
</svg>
