<?xml version="1.0" encoding="UTF-8" standalone="no"?>
<!DOCTYPE svg PUBLIC "-//W3C//DTD SVG 1.1//EN"
 "http://www.w3.org/Graphics/SVG/1.1/DTD/svg11.dtd">
<!-- Generated by graphviz version 2.46.0 (0)
 -->
<!-- Title: G Pages: 1 -->
<svg width="724pt" height="693pt"
 viewBox="0.00 0.00 724.00 693.00" xmlns="http://www.w3.org/2000/svg" xmlns:xlink="http://www.w3.org/1999/xlink">
<g id="graph0" class="graph" transform="scale(1 1) rotate(0) translate(4 689)">
<title>G</title>
<polygon fill="white" stroke="transparent" points="-4,4 -4,-689 720,-689 720,4 -4,4"/>
<text text-anchor="middle" x="358" y="-13.4" font-family="Sans-Serif" font-size="32.00">Client&#45;1 Detail</text>
<!-- client &#8594; | confirm! | &#8594; client&#45;1 | client&#45;1 @ check =&gt; client&#45;1 @ idle -->
<g id="node1" class="node">
<title>client &#8594; | confirm! | &#8594; client&#45;1 | client&#45;1 @ check =&gt; client&#45;1 @ idle</title>
<polygon fill="darkturquoise" stroke="darkturquoise" points="98,-615.5 98,-684.5 176,-684.5 176,-615.5 98,-615.5"/>
<text text-anchor="middle" x="137" y="-669.3" font-family="Sans-Serif" font-size="14.00">client →</text>
<polyline fill="none" stroke="darkturquoise" points="98,-661.5 176,-661.5 "/>
<text text-anchor="middle" x="137" y="-646.3" font-family="Sans-Serif" font-size="14.00">confirm!</text>
<polyline fill="none" stroke="darkturquoise" points="98,-638.5 176,-638.5 "/>
<text text-anchor="middle" x="137" y="-623.3" font-family="Sans-Serif" font-size="14.00">→ client&#45;1</text>
</g>
<!-- client&#45;1 @ check =&gt; client&#45;1 @ idle -->
<g id="node2" class="node">
<title>client&#45;1 @ check =&gt; client&#45;1 @ idle</title>
<polygon fill="none" stroke="#0063cd" stroke-width="4" points="137.5,-579 136.5,-579 136.5,-578 137.5,-578 137.5,-579"/>
</g>
<!-- client &#8594; | confirm! | &#8594; client&#45;1 | client&#45;1 @ check =&gt; client&#45;1 @ idle&#45;&gt;client&#45;1 @ check =&gt; client&#45;1 @ idle -->
<g id="edge1" class="edge">
<title>client &#8594; | confirm! | &#8594; client&#45;1 | client&#45;1 @ check =&gt; client&#45;1 @ idle&#45;&gt;client&#45;1 @ check =&gt; client&#45;1 @ idle</title>
<path fill="none" stroke="mediumblue" stroke-width="3" d="M137,-615.23C137,-605.75 137,-596.14 137,-589.21"/>
<polygon fill="mediumblue" stroke="mediumblue" stroke-width="3" points="140.5,-589.05 137,-579.05 133.5,-589.05 140.5,-589.05"/>
</g>
<!-- client&#45;1 @ check =&gt; client&#45;1 @ idle&#45;2 -->
<g id="node3" class="node">
<title>client&#45;1 @ check =&gt; client&#45;1 @ idle&#45;2</title>
<polygon fill="none" stroke="darkgreen" stroke-width="2" points="225.5,-542 224.5,-542 224.5,-541 225.5,-541 225.5,-542"/>
</g>
<!-- client&#45;1 @ check =&gt; client&#45;1 @ idle&#45;&gt;client&#45;1 @ check =&gt; client&#45;1 @ idle&#45;2 -->
<g id="edge3" class="edge">
<title>client&#45;1 @ check =&gt; client&#45;1 @ idle&#45;&gt;client&#45;1 @ check =&gt; client&#45;1 @ idle&#45;2</title>
<path fill="none" stroke="darkgreen" stroke-width="3" d="M137.06,-577.97C139.69,-576.9 222.36,-543.08 224.94,-542.03"/>
</g>
<!-- client&#45;1 @ idle -->
<g id="node5" class="node">
<title>client&#45;1 @ idle</title>
<polygon fill="palegreen" stroke="palegreen" points="350.5,-488 247.5,-488 247.5,-452 350.5,-452 350.5,-488"/>
<text text-anchor="middle" x="299" y="-466.3" font-family="Sans-Serif" font-size="14.00">client&#45;1 @ idle</text>
</g>
<!-- client&#45;1 @ check =&gt; client&#45;1 @ idle&#45;2&#45;&gt;client&#45;1 @ idle -->
<g id="edge4" class="edge">
<title>client&#45;1 @ check =&gt; client&#45;1 @ idle&#45;2&#45;&gt;client&#45;1 @ idle</title>
<path fill="none" stroke="darkgreen" stroke-width="3" d="M225.05,-540.95C226.39,-539.68 252.61,-514.88 273.45,-495.17"/>
<polygon fill="darkgreen" stroke="darkgreen" stroke-width="3" points="275.97,-497.61 280.83,-488.19 271.16,-492.52 275.97,-497.61"/>
</g>
<!-- client&#45;1 @ check -->
<g id="node4" class="node">
<title>client&#45;1 @ check</title>
<polygon fill="palegreen" stroke="palegreen" points="223.5,-239 106.5,-239 106.5,-203 223.5,-203 223.5,-239"/>
<text text-anchor="middle" x="165" y="-217.3" font-family="Sans-Serif" font-size="14.00">client&#45;1 @ check</text>
</g>
<!-- client&#45;1 @ check&#45;&gt;client&#45;1 @ check =&gt; client&#45;1 @ idle -->
<g id="edge2" class="edge">
<title>client&#45;1 @ check&#45;&gt;client&#45;1 @ check =&gt; client&#45;1 @ idle</title>
<path fill="none" stroke="darkgreen" stroke-width="3" d="M158.06,-239.16C146.14,-270.28 123,-338.31 123,-398 123,-471 123,-471 123,-471 123,-518.21 136.57,-576.16 136.99,-577.96"/>
</g>
<!-- client&#45;1 @ check =&gt; client&#45;1 @ check -->
<g id="node7" class="node">
<title>client&#45;1 @ check =&gt; client&#45;1 @ check</title>
<polygon fill="none" stroke="#0063cd" stroke-width="4" points="136.5,-150 135.5,-150 135.5,-149 136.5,-149 136.5,-150"/>
</g>
<!-- client&#45;1 @ check&#45;&gt;client&#45;1 @ check =&gt; client&#45;1 @ check -->
<g id="edge6" class="edge">
<title>client&#45;1 @ check&#45;&gt;client&#45;1 @ check =&gt; client&#45;1 @ check</title>
<path fill="none" stroke="darkgreen" stroke-width="3" d="M157.83,-202.7C149.51,-182.62 136.82,-151.99 136.04,-150.09"/>
</g>
<!-- client&#45;1 @ idle =&gt; @ idle &#45;&gt; time &#45;&gt; client&#45;1 =&gt; client&#45;1 @ check -->
<g id="node11" class="node">
<title>client&#45;1 @ idle =&gt; @ idle &#45;&gt; time &#45;&gt; client&#45;1 =&gt; client&#45;1 @ check</title>
<polygon fill="none" stroke="#0063cd" stroke-width="4" points="219.5,-399 218.5,-399 218.5,-398 219.5,-398 219.5,-399"/>
</g>
<!-- client&#45;1 @ idle&#45;&gt;client&#45;1 @ idle =&gt; @ idle &#45;&gt; time &#45;&gt; client&#45;1 =&gt; client&#45;1 @ check -->
<g id="edge11" class="edge">
<title>client&#45;1 @ idle&#45;&gt;client&#45;1 @ idle =&gt; @ idle &#45;&gt; time &#45;&gt; client&#45;1 =&gt; client&#45;1 @ check</title>
<path fill="none" stroke="darkgreen" stroke-width="3" d="M279.22,-451.7C256.27,-431.62 221.27,-400.99 219.11,-399.09"/>
</g>
<!-- client&#45;1 @ idle =&gt; @ idle &#45;&gt; time &#45;&gt; client&#45;1 =&gt; client&#45;1 @ wait -->
<g id="node15" class="node">
<title>client&#45;1 @ idle =&gt; @ idle &#45;&gt; time &#45;&gt; client&#45;1 =&gt; client&#45;1 @ wait</title>
<polygon fill="none" stroke="#0063cd" stroke-width="4" points="409.5,-399 408.5,-399 408.5,-398 409.5,-398 409.5,-399"/>
</g>
<!-- client&#45;1 @ idle&#45;&gt;client&#45;1 @ idle =&gt; @ idle &#45;&gt; time &#45;&gt; client&#45;1 =&gt; client&#45;1 @ wait -->
<g id="edge16" class="edge">
<title>client&#45;1 @ idle&#45;&gt;client&#45;1 @ idle =&gt; @ idle &#45;&gt; time &#45;&gt; client&#45;1 =&gt; client&#45;1 @ wait</title>
<path fill="none" stroke="darkgreen" stroke-width="3" d="M325.91,-451.88C357.46,-431.8 405.86,-401 408.85,-399.09"/>
</g>
<!-- @ check &#8594; | time | &#8594; client&#45;1 | client&#45;1 @ check =&gt; client&#45;1 @ check -->
<g id="node6" class="node">
<title>@ check &#8594; | time | &#8594; client&#45;1 | client&#45;1 @ check =&gt; client&#45;1 @ check</title>
<polygon fill="paleturquoise" stroke="paleturquoise" points="0,-186.5 0,-255.5 88,-255.5 88,-186.5 0,-186.5"/>
<text text-anchor="middle" x="44" y="-240.3" font-family="Sans-Serif" font-size="14.00">@ check →</text>
<polyline fill="none" stroke="paleturquoise" points="0,-232.5 88,-232.5 "/>
<text text-anchor="middle" x="44" y="-217.3" font-family="Sans-Serif" font-size="14.00">time</text>
<polyline fill="none" stroke="paleturquoise" points="0,-209.5 88,-209.5 "/>
<text text-anchor="middle" x="44" y="-194.3" font-family="Sans-Serif" font-size="14.00">→ client&#45;1</text>
</g>
<!-- @ check &#8594; | time | &#8594; client&#45;1 | client&#45;1 @ check =&gt; client&#45;1 @ check&#45;&gt;client&#45;1 @ check =&gt; client&#45;1 @ check -->
<g id="edge5" class="edge">
<title>@ check &#8594; | time | &#8594; client&#45;1 | client&#45;1 @ check =&gt; client&#45;1 @ check&#45;&gt;client&#45;1 @ check =&gt; client&#45;1 @ check</title>
<path fill="none" stroke="mediumblue" stroke-width="3" d="M88.11,-186.44C103.3,-174.88 118.77,-163.11 127.87,-156.19"/>
<polygon fill="mediumblue" stroke="mediumblue" stroke-width="3" points="130.09,-158.89 135.93,-150.05 125.85,-153.32 130.09,-158.89"/>
</g>
<!-- client&#45;1 @ check =&gt; client&#45;1 @ check&#45;2 -->
<g id="node8" class="node">
<title>client&#45;1 @ check =&gt; client&#45;1 @ check&#45;2</title>
<polygon fill="none" stroke="darkgreen" stroke-width="2" points="151.5,-78.5 150.5,-78.5 150.5,-77.5 151.5,-77.5 151.5,-78.5"/>
</g>
<!-- client&#45;1 @ check =&gt; client&#45;1 @ check&#45;&gt;client&#45;1 @ check =&gt; client&#45;1 @ check&#45;2 -->
<g id="edge7" class="edge">
<title>client&#45;1 @ check =&gt; client&#45;1 @ check&#45;&gt;client&#45;1 @ check =&gt; client&#45;1 @ check&#45;2</title>
<path fill="none" stroke="darkgreen" stroke-width="3" d="M136.01,-148.95C136.46,-146.86 150.55,-81.1 150.99,-79.05"/>
</g>
<!-- client&#45;1 @ check =&gt; client&#45;1 @ check&#45;2&#45;&gt;client&#45;1 @ check -->
<g id="edge8" class="edge">
<title>client&#45;1 @ check =&gt; client&#45;1 @ check&#45;2&#45;&gt;client&#45;1 @ check</title>
<path fill="none" stroke="darkgreen" stroke-width="3" d="M151.01,-79.06C151.25,-81.48 158.33,-152.78 162.32,-193.02"/>
<polygon fill="darkgreen" stroke="darkgreen" stroke-width="3" points="158.84,-193.39 163.31,-202.99 165.81,-192.7 158.84,-193.39"/>
</g>
<!-- client&#45;1 &#8594; | check | &#8594; client | client&#45;1 @ idle =&gt; client&#45;1 @ check -->
<g id="node9" class="node">
<title>client&#45;1 &#8594; | check | &#8594; client | client&#45;1 @ idle =&gt; client&#45;1 @ check</title>
<polygon fill="paleturquoise" stroke="paleturquoise" points="151,-292.5 151,-361.5 229,-361.5 229,-292.5 151,-292.5"/>
<text text-anchor="middle" x="190" y="-346.3" font-family="Sans-Serif" font-size="14.00">client&#45;1 →</text>
<polyline fill="none" stroke="paleturquoise" points="151,-338.5 229,-338.5 "/>
<text text-anchor="middle" x="190" y="-323.3" font-family="Sans-Serif" font-size="14.00">check</text>
<polyline fill="none" stroke="paleturquoise" points="151,-315.5 229,-315.5 "/>
<text text-anchor="middle" x="190" y="-300.3" font-family="Sans-Serif" font-size="14.00">→ client</text>
</g>
<!-- @ idle &#8594; | time | &#8594; client&#45;1 | client&#45;1 @ idle =&gt; client&#45;1 @ check -->
<g id="node10" class="node">
<title>@ idle &#8594; | time | &#8594; client&#45;1 | client&#45;1 @ idle =&gt; client&#45;1 @ check</title>
<polygon fill="paleturquoise" stroke="paleturquoise" points="151,-435.5 151,-504.5 229,-504.5 229,-435.5 151,-435.5"/>
<text text-anchor="middle" x="190" y="-489.3" font-family="Sans-Serif" font-size="14.00">@ idle →</text>
<polyline fill="none" stroke="paleturquoise" points="151,-481.5 229,-481.5 "/>
<text text-anchor="middle" x="190" y="-466.3" font-family="Sans-Serif" font-size="14.00">time</text>
<polyline fill="none" stroke="paleturquoise" points="151,-458.5 229,-458.5 "/>
<text text-anchor="middle" x="190" y="-443.3" font-family="Sans-Serif" font-size="14.00">→ client&#45;1</text>
</g>
<!-- @ idle &#8594; | time | &#8594; client&#45;1 | client&#45;1 @ idle =&gt; client&#45;1 @ check&#45;&gt;client&#45;1 @ idle =&gt; @ idle &#45;&gt; time &#45;&gt; client&#45;1 =&gt; client&#45;1 @ check -->
<g id="edge10" class="edge">
<title>@ idle &#8594; | time | &#8594; client&#45;1 | client&#45;1 @ idle =&gt; client&#45;1 @ check&#45;&gt;client&#45;1 @ idle =&gt; @ idle &#45;&gt; time &#45;&gt; client&#45;1 =&gt; client&#45;1 @ check</title>
<path fill="none" stroke="mediumblue" stroke-width="3" d="M203.99,-435.23C211.17,-417.89 218.53,-400.15 218.98,-399.05"/>
</g>
<!-- client&#45;1 @ idle =&gt; @ idle &#45;&gt; time &#45;&gt; client&#45;1 =&gt; client&#45;1 @ check&#45;&gt;client&#45;1 &#8594; | check | &#8594; client | client&#45;1 @ idle =&gt; client&#45;1 @ check -->
<g id="edge9" class="edge">
<title>client&#45;1 @ idle =&gt; @ idle &#45;&gt; time &#45;&gt; client&#45;1 =&gt; client&#45;1 @ check&#45;&gt;client&#45;1 &#8594; | check | &#8594; client | client&#45;1 @ idle =&gt; client&#45;1 @ check</title>
<path fill="none" stroke="mediumblue" stroke-width="3" d="M218.98,-397.95C218.62,-397.07 213.6,-384.97 207.84,-371.07"/>
<polygon fill="mediumblue" stroke="mediumblue" stroke-width="3" points="211.05,-369.68 203.99,-361.78 204.59,-372.35 211.05,-369.68"/>
</g>
<!-- client&#45;1 @ idle =&gt; @ idle &#45;&gt; time &#45;&gt; client&#45;1 =&gt; client&#45;1 @ check&#45;2 -->
<g id="node12" class="node">
<title>client&#45;1 @ idle =&gt; @ idle &#45;&gt; time &#45;&gt; client&#45;1 =&gt; client&#45;1 @ check&#45;2</title>
<polygon fill="none" stroke="darkgreen" stroke-width="2" points="248.5,-327.5 247.5,-327.5 247.5,-326.5 248.5,-326.5 248.5,-327.5"/>
</g>
<!-- client&#45;1 @ idle =&gt; @ idle &#45;&gt; time &#45;&gt; client&#45;1 =&gt; client&#45;1 @ check&#45;&gt;client&#45;1 @ idle =&gt; @ idle &#45;&gt; time &#45;&gt; client&#45;1 =&gt; client&#45;1 @ check&#45;2 -->
<g id="edge12" class="edge">
<title>client&#45;1 @ idle =&gt; @ idle &#45;&gt; time &#45;&gt; client&#45;1 =&gt; client&#45;1 @ check&#45;&gt;client&#45;1 @ idle =&gt; @ idle &#45;&gt; time &#45;&gt; client&#45;1 =&gt; client&#45;1 @ check&#45;2</title>
<path fill="none" stroke="darkgreen" stroke-width="3" d="M219.04,-397.94C219.76,-396.8 231.4,-378.24 238,-362 243.74,-347.86 247.74,-329.21 247.99,-328.06"/>
</g>
<!-- client&#45;1 @ idle =&gt; @ idle &#45;&gt; time &#45;&gt; client&#45;1 =&gt; client&#45;1 @ check&#45;2&#45;&gt;client&#45;1 @ check -->
<g id="edge13" class="edge">
<title>client&#45;1 @ idle =&gt; @ idle &#45;&gt; time &#45;&gt; client&#45;1 =&gt; client&#45;1 @ check&#45;2&#45;&gt;client&#45;1 @ check</title>
<path fill="none" stroke="darkgreen" stroke-width="3" d="M247.99,-325.94C247.88,-324.72 245.93,-305.04 238,-292 227.23,-274.28 210.85,-258.01 196.34,-245.62"/>
<polygon fill="darkgreen" stroke="darkgreen" stroke-width="3" points="198.45,-242.83 188.52,-239.15 194,-248.22 198.45,-242.83"/>
</g>
<!-- client&#45;1 &#8594; | request | &#8594; server | client&#45;1 @ idle =&gt; client&#45;1 @ wait -->
<g id="node13" class="node">
<title>client&#45;1 &#8594; | request | &#8594; server | client&#45;1 @ idle =&gt; client&#45;1 @ wait</title>
<polygon fill="paleturquoise" stroke="paleturquoise" points="370,-292.5 370,-361.5 448,-361.5 448,-292.5 370,-292.5"/>
<text text-anchor="middle" x="409" y="-346.3" font-family="Sans-Serif" font-size="14.00">client&#45;1 →</text>
<polyline fill="none" stroke="paleturquoise" points="370,-338.5 448,-338.5 "/>
<text text-anchor="middle" x="409" y="-323.3" font-family="Sans-Serif" font-size="14.00">request</text>
<polyline fill="none" stroke="paleturquoise" points="370,-315.5 448,-315.5 "/>
<text text-anchor="middle" x="409" y="-300.3" font-family="Sans-Serif" font-size="14.00">→ server</text>
</g>
<!-- @ idle &#8594; | time | &#8594; client&#45;1 | client&#45;1 @ idle =&gt; client&#45;1 @ wait -->
<g id="node14" class="node">
<title>@ idle &#8594; | time | &#8594; client&#45;1 | client&#45;1 @ idle =&gt; client&#45;1 @ wait</title>
<polygon fill="paleturquoise" stroke="paleturquoise" points="370,-435.5 370,-504.5 448,-504.5 448,-435.5 370,-435.5"/>
<text text-anchor="middle" x="409" y="-489.3" font-family="Sans-Serif" font-size="14.00">@ idle →</text>
<polyline fill="none" stroke="paleturquoise" points="370,-481.5 448,-481.5 "/>
<text text-anchor="middle" x="409" y="-466.3" font-family="Sans-Serif" font-size="14.00">time</text>
<polyline fill="none" stroke="paleturquoise" points="370,-458.5 448,-458.5 "/>
<text text-anchor="middle" x="409" y="-443.3" font-family="Sans-Serif" font-size="14.00">→ client&#45;1</text>
</g>
<!-- @ idle &#8594; | time | &#8594; client&#45;1 | client&#45;1 @ idle =&gt; client&#45;1 @ wait&#45;&gt;client&#45;1 @ idle =&gt; @ idle &#45;&gt; time &#45;&gt; client&#45;1 =&gt; client&#45;1 @ wait -->
<g id="edge15" class="edge">
<title>@ idle &#8594; | time | &#8594; client&#45;1 | client&#45;1 @ idle =&gt; client&#45;1 @ wait&#45;&gt;client&#45;1 @ idle =&gt; @ idle &#45;&gt; time &#45;&gt; client&#45;1 =&gt; client&#45;1 @ wait</title>
<path fill="none" stroke="mediumblue" stroke-width="3" d="M409,-435.23C409,-417.89 409,-400.15 409,-399.05"/>
</g>
<!-- client&#45;1 @ idle =&gt; @ idle &#45;&gt; time &#45;&gt; client&#45;1 =&gt; client&#45;1 @ wait&#45;&gt;client&#45;1 &#8594; | request | &#8594; server | client&#45;1 @ idle =&gt; client&#45;1 @ wait -->
<g id="edge14" class="edge">
<title>client&#45;1 @ idle =&gt; @ idle &#45;&gt; time &#45;&gt; client&#45;1 =&gt; client&#45;1 @ wait&#45;&gt;client&#45;1 &#8594; | request | &#8594; server | client&#45;1 @ idle =&gt; client&#45;1 @ wait</title>
<path fill="none" stroke="mediumblue" stroke-width="3" d="M409,-397.95C409,-397.09 409,-385.43 409,-371.86"/>
<polygon fill="mediumblue" stroke="mediumblue" stroke-width="3" points="412.5,-371.78 409,-361.78 405.5,-371.78 412.5,-371.78"/>
</g>
<!-- client&#45;1 @ idle =&gt; @ idle &#45;&gt; time &#45;&gt; client&#45;1 =&gt; client&#45;1 @ wait&#45;2 -->
<g id="node16" class="node">
<title>client&#45;1 @ idle =&gt; @ idle &#45;&gt; time &#45;&gt; client&#45;1 =&gt; client&#45;1 @ wait&#45;2</title>
<polygon fill="none" stroke="darkgreen" stroke-width="2" points="469.5,-327.5 468.5,-327.5 468.5,-326.5 469.5,-326.5 469.5,-327.5"/>
</g>
<!-- client&#45;1 @ idle =&gt; @ idle &#45;&gt; time &#45;&gt; client&#45;1 =&gt; client&#45;1 @ wait&#45;&gt;client&#45;1 @ idle =&gt; @ idle &#45;&gt; time &#45;&gt; client&#45;1 =&gt; client&#45;1 @ wait&#45;2 -->
<g id="edge17" class="edge">
<title>client&#45;1 @ idle =&gt; @ idle &#45;&gt; time &#45;&gt; client&#45;1 =&gt; client&#45;1 @ wait&#45;&gt;client&#45;1 @ idle =&gt; @ idle &#45;&gt; time &#45;&gt; client&#45;1 =&gt; client&#45;1 @ wait&#45;2</title>
<path fill="none" stroke="darkgreen" stroke-width="3" d="M409.09,-397.96C411,-397.09 441.71,-382.82 457,-362 466.19,-349.49 468.84,-329.31 468.99,-328.06"/>
</g>
<!-- client&#45;1 @ wait -->
<g id="node17" class="node">
<title>client&#45;1 @ wait</title>
<polygon fill="palegreen" stroke="palegreen" points="524,-239 418,-239 418,-203 524,-203 524,-239"/>
<text text-anchor="middle" x="471" y="-217.3" font-family="Sans-Serif" font-size="14.00">client&#45;1 @ wait</text>
</g>
<!-- client&#45;1 @ idle =&gt; @ idle &#45;&gt; time &#45;&gt; client&#45;1 =&gt; client&#45;1 @ wait&#45;2&#45;&gt;client&#45;1 @ wait -->
<g id="edge18" class="edge">
<title>client&#45;1 @ idle =&gt; @ idle &#45;&gt; time &#45;&gt; client&#45;1 =&gt; client&#45;1 @ wait&#45;2&#45;&gt;client&#45;1 @ wait</title>
<path fill="none" stroke="darkgreen" stroke-width="3" d="M469,-325.92C469.04,-323.85 469.89,-279.57 470.47,-249.49"/>
<polygon fill="darkgreen" stroke="darkgreen" stroke-width="3" points="473.98,-249.22 470.67,-239.15 466.98,-249.08 473.98,-249.22"/>
</g>
<!-- client&#45;1 @ wait =&gt; client&#45;1 @ wait -->
<g id="node19" class="node">
<title>client&#45;1 @ wait =&gt; client&#45;1 @ wait</title>
<polygon fill="none" stroke="#0063cd" stroke-width="4" points="541.5,-150 540.5,-150 540.5,-149 541.5,-149 541.5,-150"/>
</g>
<!-- client&#45;1 @ wait&#45;&gt;client&#45;1 @ wait =&gt; client&#45;1 @ wait -->
<g id="edge20" class="edge">
<title>client&#45;1 @ wait&#45;&gt;client&#45;1 @ wait =&gt; client&#45;1 @ wait</title>
<path fill="none" stroke="darkgreen" stroke-width="3" d="M488.3,-202.7C508.38,-182.62 539.01,-151.99 540.91,-150.09"/>
</g>
<!-- client&#45;1 @ wait =&gt; @ wait &#45;&gt; time &#45;&gt; client&#45;1 =&gt; client&#45;1 @ wait -->
<g id="node23" class="node">
<title>client&#45;1 @ wait =&gt; @ wait &#45;&gt; time &#45;&gt; client&#45;1 =&gt; client&#45;1 @ wait</title>
<polygon fill="none" stroke="#0063cd" stroke-width="4" points="565.5,-150 564.5,-150 564.5,-149 565.5,-149 565.5,-150"/>
</g>
<!-- client&#45;1 @ wait&#45;&gt;client&#45;1 @ wait =&gt; @ wait &#45;&gt; time &#45;&gt; client&#45;1 =&gt; client&#45;1 @ wait -->
<g id="edge26" class="edge">
<title>client&#45;1 @ wait&#45;&gt;client&#45;1 @ wait =&gt; @ wait &#45;&gt; time &#45;&gt; client&#45;1 =&gt; client&#45;1 @ wait</title>
<path fill="none" stroke="darkgreen" stroke-width="3" d="M494.24,-202.7C521.2,-182.62 562.33,-151.99 564.88,-150.09"/>
</g>
<!-- client&#45;1 @ wait =&gt; client&#45;1 @ idle -->
<g id="node26" class="node">
<title>client&#45;1 @ wait =&gt; client&#45;1 @ idle</title>
<polygon fill="none" stroke="#0063cd" stroke-width="4" points="361.5,-150 360.5,-150 360.5,-149 361.5,-149 361.5,-150"/>
</g>
<!-- client&#45;1 @ wait&#45;&gt;client&#45;1 @ wait =&gt; client&#45;1 @ idle -->
<g id="edge30" class="edge">
<title>client&#45;1 @ wait&#45;&gt;client&#45;1 @ wait =&gt; client&#45;1 @ idle</title>
<path fill="none" stroke="darkgreen" stroke-width="3" d="M444.09,-202.88C412.54,-182.8 364.14,-152 361.15,-150.09"/>
</g>
<!-- server &#8594; | response | &#8594; client&#45;1 | client&#45;1 @ wait =&gt; client&#45;1 @ wait -->
<g id="node18" class="node">
<title>server &#8594; | response | &#8594; client&#45;1 | client&#45;1 @ wait =&gt; client&#45;1 @ wait</title>
<polygon fill="paleturquoise" stroke="paleturquoise" points="542,-186.5 542,-255.5 620,-255.5 620,-186.5 542,-186.5"/>
<text text-anchor="middle" x="581" y="-240.3" font-family="Sans-Serif" font-size="14.00">server →</text>
<polyline fill="none" stroke="paleturquoise" points="542,-232.5 620,-232.5 "/>
<text text-anchor="middle" x="581" y="-217.3" font-family="Sans-Serif" font-size="14.00">response</text>
<polyline fill="none" stroke="paleturquoise" points="542,-209.5 620,-209.5 "/>
<text text-anchor="middle" x="581" y="-194.3" font-family="Sans-Serif" font-size="14.00">→ client&#45;1</text>
</g>
<!-- server &#8594; | response | &#8594; client&#45;1 | client&#45;1 @ wait =&gt; client&#45;1 @ wait&#45;&gt;client&#45;1 @ wait =&gt; client&#45;1 @ wait -->
<g id="edge19" class="edge">
<title>server &#8594; | response | &#8594; client&#45;1 | client&#45;1 @ wait =&gt; client&#45;1 @ wait&#45;&gt;client&#45;1 @ wait =&gt; client&#45;1 @ wait</title>
<path fill="none" stroke="mediumblue" stroke-width="3" d="M561.7,-186.23C555.9,-176.07 550.01,-165.77 546.01,-158.76"/>
<polygon fill="mediumblue" stroke="mediumblue" stroke-width="3" points="549.03,-157 541.03,-150.05 542.95,-160.47 549.03,-157"/>
</g>
<!-- client&#45;1 @ wait =&gt; client&#45;1 @ wait&#45;2 -->
<g id="node20" class="node">
<title>client&#45;1 @ wait =&gt; client&#45;1 @ wait&#45;2</title>
<polygon fill="none" stroke="darkgreen" stroke-width="2" points="480.5,-78.5 479.5,-78.5 479.5,-77.5 480.5,-77.5 480.5,-78.5"/>
</g>
<!-- client&#45;1 @ wait =&gt; client&#45;1 @ wait&#45;&gt;client&#45;1 @ wait =&gt; client&#45;1 @ wait&#45;2 -->
<g id="edge21" class="edge">
<title>client&#45;1 @ wait =&gt; client&#45;1 @ wait&#45;&gt;client&#45;1 @ wait =&gt; client&#45;1 @ wait&#45;2</title>
<path fill="none" stroke="darkgreen" stroke-width="3" d="M540.93,-148.95C539.41,-147.92 514.97,-131.1 500,-113 489.18,-99.91 480.55,-80.27 480.03,-79.06"/>
</g>
<!-- client&#45;1 @ wait =&gt; client&#45;1 @ wait&#45;2&#45;&gt;client&#45;1 @ wait -->
<g id="edge22" class="edge">
<title>client&#45;1 @ wait =&gt; client&#45;1 @ wait&#45;2&#45;&gt;client&#45;1 @ wait</title>
<path fill="none" stroke="darkgreen" stroke-width="3" d="M480,-79.06C479.84,-81.47 475.31,-152.48 472.74,-192.76"/>
<polygon fill="darkgreen" stroke="darkgreen" stroke-width="3" points="469.23,-192.79 472.09,-202.99 476.22,-193.24 469.23,-192.79"/>
</g>
<!-- @ wait &#8594; | time | &#8594; client&#45;1 | client&#45;1 @ wait =&gt; client&#45;1 @ wait -->
<g id="node21" class="node">
<title>@ wait &#8594; | time | &#8594; client&#45;1 | client&#45;1 @ wait =&gt; client&#45;1 @ wait</title>
<polygon fill="paleturquoise" stroke="paleturquoise" points="638,-186.5 638,-255.5 716,-255.5 716,-186.5 638,-186.5"/>
<text text-anchor="middle" x="677" y="-240.3" font-family="Sans-Serif" font-size="14.00">@ wait →</text>
<polyline fill="none" stroke="paleturquoise" points="638,-232.5 716,-232.5 "/>
<text text-anchor="middle" x="677" y="-217.3" font-family="Sans-Serif" font-size="14.00">time</text>
<polyline fill="none" stroke="paleturquoise" points="638,-209.5 716,-209.5 "/>
<text text-anchor="middle" x="677" y="-194.3" font-family="Sans-Serif" font-size="14.00">→ client&#45;1</text>
</g>
<!-- @ wait &#8594; | time | &#8594; client&#45;1 | client&#45;1 @ wait =&gt; client&#45;1 @ wait&#45;&gt;client&#45;1 @ wait =&gt; client&#45;1 @ wait -->
<g id="edge23" class="edge">
<title>@ wait &#8594; | time | &#8594; client&#45;1 | client&#45;1 @ wait =&gt; client&#45;1 @ wait&#45;&gt;client&#45;1 @ wait =&gt; client&#45;1 @ wait</title>
<path fill="none" stroke="mediumblue" stroke-width="3" d="M637.91,-191.24C634.94,-189.39 631.95,-187.62 629,-186 601.95,-171.14 567.47,-158.78 550.84,-153.2"/>
<polygon fill="mediumblue" stroke="mediumblue" stroke-width="3" points="551.74,-149.81 541.15,-150.05 549.57,-156.47 551.74,-149.81"/>
</g>
<!-- @ wait &#8594; | time | &#8594; client&#45;1 | client&#45;1 @ wait =&gt; client&#45;1 @ wait&#45;&gt;client&#45;1 @ wait =&gt; @ wait &#45;&gt; time &#45;&gt; client&#45;1 =&gt; client&#45;1 @ wait -->
<g id="edge25" class="edge">
<title>@ wait &#8594; | time | &#8594; client&#45;1 | client&#45;1 @ wait =&gt; client&#45;1 @ wait&#45;&gt;client&#45;1 @ wait =&gt; @ wait &#45;&gt; time &#45;&gt; client&#45;1 =&gt; client&#45;1 @ wait</title>
<path fill="none" stroke="mediumblue" stroke-width="3" d="M637.93,-191.83C634.93,-189.82 631.93,-187.86 629,-186 602.29,-169.09 567.27,-151.16 565.11,-150.05"/>
</g>
<!-- client&#45;1 &#8594; | request | &#8594; server | client&#45;1 @ wait =&gt; client&#45;1 @ wait -->
<g id="node22" class="node">
<title>client&#45;1 &#8594; | request | &#8594; server | client&#45;1 @ wait =&gt; client&#45;1 @ wait</title>
<polygon fill="paleturquoise" stroke="paleturquoise" points="528,-43.5 528,-112.5 606,-112.5 606,-43.5 528,-43.5"/>
<text text-anchor="middle" x="567" y="-97.3" font-family="Sans-Serif" font-size="14.00">client&#45;1 →</text>
<polyline fill="none" stroke="paleturquoise" points="528,-89.5 606,-89.5 "/>
<text text-anchor="middle" x="567" y="-74.3" font-family="Sans-Serif" font-size="14.00">request</text>
<polyline fill="none" stroke="paleturquoise" points="528,-66.5 606,-66.5 "/>
<text text-anchor="middle" x="567" y="-51.3" font-family="Sans-Serif" font-size="14.00">→ server</text>
</g>
<!-- client&#45;1 @ wait =&gt; @ wait &#45;&gt; time &#45;&gt; client&#45;1 =&gt; client&#45;1 @ wait&#45;&gt;client&#45;1 &#8594; | request | &#8594; server | client&#45;1 @ wait =&gt; client&#45;1 @ wait -->
<g id="edge24" class="edge">
<title>client&#45;1 @ wait =&gt; @ wait &#45;&gt; time &#45;&gt; client&#45;1 =&gt; client&#45;1 @ wait&#45;&gt;client&#45;1 &#8594; | request | &#8594; server | client&#45;1 @ wait =&gt; client&#45;1 @ wait</title>
<path fill="none" stroke="mediumblue" stroke-width="3" d="M565,-148.95C565.03,-148.09 565.36,-136.43 565.75,-122.86"/>
<polygon fill="mediumblue" stroke="mediumblue" stroke-width="3" points="569.25,-122.87 566.03,-112.78 562.25,-122.67 569.25,-122.87"/>
</g>
<!-- client&#45;1 @ wait =&gt; @ wait &#45;&gt; time &#45;&gt; client&#45;1 =&gt; client&#45;1 @ wait&#45;2 -->
<g id="node24" class="node">
<title>client&#45;1 @ wait =&gt; @ wait &#45;&gt; time &#45;&gt; client&#45;1 =&gt; client&#45;1 @ wait&#45;2</title>
<polygon fill="none" stroke="darkgreen" stroke-width="2" points="509.5,-78.5 508.5,-78.5 508.5,-77.5 509.5,-77.5 509.5,-78.5"/>
</g>
<!-- client&#45;1 @ wait =&gt; @ wait &#45;&gt; time &#45;&gt; client&#45;1 =&gt; client&#45;1 @ wait&#45;&gt;client&#45;1 @ wait =&gt; @ wait &#45;&gt; time &#45;&gt; client&#45;1 =&gt; client&#45;1 @ wait&#45;2 -->
<g id="edge27" class="edge">
<title>client&#45;1 @ wait =&gt; @ wait &#45;&gt; time &#45;&gt; client&#45;1 =&gt; client&#45;1 @ wait&#45;&gt;client&#45;1 @ wait =&gt; @ wait &#45;&gt; time &#45;&gt; client&#45;1 =&gt; client&#45;1 @ wait&#45;2</title>
<path fill="none" stroke="darkgreen" stroke-width="3" d="M564.91,-148.96C563.05,-148.09 533.13,-133.81 519,-113 510.43,-100.38 509.08,-80.3 509,-79.06"/>
</g>
<!-- client&#45;1 @ wait =&gt; @ wait &#45;&gt; time &#45;&gt; client&#45;1 =&gt; client&#45;1 @ wait&#45;2&#45;&gt;client&#45;1 @ wait -->
<g id="edge28" class="edge">
<title>client&#45;1 @ wait =&gt; @ wait &#45;&gt; time &#45;&gt; client&#45;1 =&gt; client&#45;1 @ wait&#45;2&#45;&gt;client&#45;1 @ wait</title>
<path fill="none" stroke="darkgreen" stroke-width="3" d="M508.98,-79.06C508.33,-81.48 489.03,-153.09 478.2,-193.28"/>
<polygon fill="darkgreen" stroke="darkgreen" stroke-width="3" points="474.81,-192.43 475.58,-202.99 481.57,-194.25 474.81,-192.43"/>
</g>
<!-- server &#8594; | response | &#8594; client&#45;1 | client&#45;1 @ wait =&gt; client&#45;1 @ idle -->
<g id="node25" class="node">
<title>server &#8594; | response | &#8594; client&#45;1 | client&#45;1 @ wait =&gt; client&#45;1 @ idle</title>
<polygon fill="paleturquoise" stroke="paleturquoise" points="322,-186.5 322,-255.5 400,-255.5 400,-186.5 322,-186.5"/>
<text text-anchor="middle" x="361" y="-240.3" font-family="Sans-Serif" font-size="14.00">server →</text>
<polyline fill="none" stroke="paleturquoise" points="322,-232.5 400,-232.5 "/>
<text text-anchor="middle" x="361" y="-217.3" font-family="Sans-Serif" font-size="14.00">response</text>
<polyline fill="none" stroke="paleturquoise" points="322,-209.5 400,-209.5 "/>
<text text-anchor="middle" x="361" y="-194.3" font-family="Sans-Serif" font-size="14.00">→ client&#45;1</text>
</g>
<!-- server &#8594; | response | &#8594; client&#45;1 | client&#45;1 @ wait =&gt; client&#45;1 @ idle&#45;&gt;client&#45;1 @ wait =&gt; client&#45;1 @ idle -->
<g id="edge29" class="edge">
<title>server &#8594; | response | &#8594; client&#45;1 | client&#45;1 @ wait =&gt; client&#45;1 @ idle&#45;&gt;client&#45;1 @ wait =&gt; client&#45;1 @ idle</title>
<path fill="none" stroke="mediumblue" stroke-width="3" d="M361,-186.23C361,-176.75 361,-167.14 361,-160.21"/>
<polygon fill="mediumblue" stroke="mediumblue" stroke-width="3" points="364.5,-160.05 361,-150.05 357.5,-160.05 364.5,-160.05"/>
</g>
<!-- client&#45;1 @ wait =&gt; client&#45;1 @ idle&#45;2 -->
<g id="node27" class="node">
<title>client&#45;1 @ wait =&gt; client&#45;1 @ idle&#45;2</title>
<polygon fill="none" stroke="darkgreen" stroke-width="2" points="327.5,-78.5 326.5,-78.5 326.5,-77.5 327.5,-77.5 327.5,-78.5"/>
</g>
<!-- client&#45;1 @ wait =&gt; client&#45;1 @ idle&#45;&gt;client&#45;1 @ wait =&gt; client&#45;1 @ idle&#45;2 -->
<g id="edge31" class="edge">
<title>client&#45;1 @ wait =&gt; client&#45;1 @ idle&#45;&gt;client&#45;1 @ wait =&gt; client&#45;1 @ idle&#45;2</title>
<path fill="none" stroke="darkgreen" stroke-width="3" d="M360.98,-148.95C359.96,-146.86 328.02,-81.1 327.02,-79.05"/>
</g>
<!-- client&#45;1 @ wait =&gt; client&#45;1 @ idle&#45;2&#45;&gt;client&#45;1 @ idle -->
<g id="edge32" class="edge">
<title>client&#45;1 @ wait =&gt; client&#45;1 @ idle&#45;2&#45;&gt;client&#45;1 @ idle</title>
<path fill="none" stroke="darkgreen" stroke-width="3" d="M326.98,-79.06C325.98,-81.39 294,-156.65 294,-220 294,-328 294,-328 294,-328 294,-367.53 295.99,-413.25 297.46,-441.65"/>
<polygon fill="darkgreen" stroke="darkgreen" stroke-width="3" points="293.96,-441.84 297.99,-451.64 300.95,-441.47 293.96,-441.84"/>
</g>
</g>
</svg>
