<?xml version="1.0" encoding="UTF-8" standalone="no"?>
<!DOCTYPE svg PUBLIC "-//W3C//DTD SVG 1.1//EN"
 "http://www.w3.org/Graphics/SVG/1.1/DTD/svg11.dtd">
<!-- Generated by graphviz version 2.46.0 (0)
 -->
<!-- Title: G Pages: 1 -->
<svg width="431pt" height="590pt"
 viewBox="0.00 0.00 431.00 590.00" xmlns="http://www.w3.org/2000/svg" xmlns:xlink="http://www.w3.org/1999/xlink">
<g id="graph0" class="graph" transform="scale(1 1) rotate(0) translate(4 586)">
<title>G</title>
<polygon fill="white" stroke="transparent" points="-4,4 -4,-586 427,-586 427,4 -4,4"/>
<text text-anchor="middle" x="211.5" y="-13.4" font-family="Sans-Serif" font-size="32.00">Server Detail (w/ One Client)</text>
<!-- server &#8594; | response | &#8594; client&#45;0 | server @ busy =&gt; server @ ready -->
<g id="node1" class="node">
<title>server &#8594; | response | &#8594; client&#45;0 | server @ busy =&gt; server @ ready</title>
<polygon fill="paleturquoise" stroke="paleturquoise" points="59.25,-369.5 59.25,-438.5 137.25,-438.5 137.25,-369.5 59.25,-369.5"/>
<text text-anchor="middle" x="98.25" y="-423.3" font-family="Sans-Serif" font-size="14.00">server →</text>
<polyline fill="none" stroke="paleturquoise" points="59.25,-415.5 137.25,-415.5 "/>
<text text-anchor="middle" x="98.25" y="-400.3" font-family="Sans-Serif" font-size="14.00">response</text>
<polyline fill="none" stroke="paleturquoise" points="59.25,-392.5 137.25,-392.5 "/>
<text text-anchor="middle" x="98.25" y="-377.3" font-family="Sans-Serif" font-size="14.00">→ client&#45;0</text>
</g>
<!-- @ busy &#8594; | time | &#8594; server | server @ busy =&gt; server @ ready -->
<g id="node2" class="node">
<title>@ busy &#8594; | time | &#8594; server | server @ busy =&gt; server @ ready</title>
<polygon fill="paleturquoise" stroke="paleturquoise" points="23.75,-512.5 23.75,-581.5 104.75,-581.5 104.75,-512.5 23.75,-512.5"/>
<text text-anchor="middle" x="64.25" y="-566.3" font-family="Sans-Serif" font-size="14.00">@ busy →</text>
<polyline fill="none" stroke="paleturquoise" points="23.75,-558.5 104.75,-558.5 "/>
<text text-anchor="middle" x="64.25" y="-543.3" font-family="Sans-Serif" font-size="14.00">time</text>
<polyline fill="none" stroke="paleturquoise" points="23.75,-535.5 104.75,-535.5 "/>
<text text-anchor="middle" x="64.25" y="-520.3" font-family="Sans-Serif" font-size="14.00">→ server</text>
</g>
<!-- server @ busy =&gt; @ busy &#45;&gt; time &#45;&gt; server =&gt; server @ ready -->
<g id="node3" class="node">
<title>server @ busy =&gt; @ busy &#45;&gt; time &#45;&gt; server =&gt; server @ ready</title>
<polygon fill="none" stroke="#0063cd" stroke-width="4" points="131.75,-476 130.75,-476 130.75,-475 131.75,-475 131.75,-476"/>
</g>
<!-- @ busy &#8594; | time | &#8594; server | server @ busy =&gt; server @ ready&#45;&gt;server @ busy =&gt; @ busy &#45;&gt; time &#45;&gt; server =&gt; server @ ready -->
<g id="edge2" class="edge">
<title>@ busy &#8594; | time | &#8594; server | server @ busy =&gt; server @ ready&#45;&gt;server @ busy =&gt; @ busy &#45;&gt; time &#45;&gt; server =&gt; server @ ready</title>
<path fill="none" stroke="mediumblue" stroke-width="3" d="M96.57,-512.23C113.17,-494.89 130.15,-477.15 131.2,-476.05"/>
</g>
<!-- server @ busy =&gt; server @ ready -->
<g id="node7" class="node">
<title>server @ busy =&gt; server @ ready</title>
<polygon fill="none" stroke="#0063cd" stroke-width="4" points="193.75,-81 192.75,-81 192.75,-80 193.75,-80 193.75,-81"/>
</g>
<!-- @ busy &#8594; | time | &#8594; server | server @ busy =&gt; server @ ready&#45;&gt;server @ busy =&gt; server @ ready -->
<g id="edge6" class="edge">
<title>@ busy &#8594; | time | &#8594; server | server @ busy =&gt; server @ ready&#45;&gt;server @ busy =&gt; server @ ready</title>
<path fill="none" stroke="mediumblue" stroke-width="3" d="M51.77,-512.33C42.43,-484.08 31.25,-442.46 31.25,-405 31.25,-405 31.25,-405 31.25,-189 31.25,-115.8 147.18,-89.16 182.9,-82.69"/>
<polygon fill="mediumblue" stroke="mediumblue" stroke-width="3" points="183.83,-86.08 193.13,-81.02 182.7,-79.17 183.83,-86.08"/>
</g>
<!-- server @ busy =&gt; @ busy &#45;&gt; time &#45;&gt; server =&gt; server @ ready&#45;&gt;server &#8594; | response | &#8594; client&#45;0 | server @ busy =&gt; server @ ready -->
<g id="edge1" class="edge">
<title>server @ busy =&gt; @ busy &#45;&gt; time &#45;&gt; server =&gt; server @ ready&#45;&gt;server &#8594; | response | &#8594; client&#45;0 | server @ busy =&gt; server @ ready</title>
<path fill="none" stroke="mediumblue" stroke-width="3" d="M131.23,-474.95C130.81,-474.07 125.11,-461.97 118.55,-448.07"/>
<polygon fill="mediumblue" stroke="mediumblue" stroke-width="3" points="121.6,-446.33 114.17,-438.78 115.27,-449.31 121.6,-446.33"/>
</g>
<!-- server @ busy =&gt; @ busy &#45;&gt; time &#45;&gt; server =&gt; server @ ready&#45;2 -->
<g id="node4" class="node">
<title>server @ busy =&gt; @ busy &#45;&gt; time &#45;&gt; server =&gt; server @ ready&#45;2</title>
<polygon fill="none" stroke="darkgreen" stroke-width="2" points="269.75,-404.5 268.75,-404.5 268.75,-403.5 269.75,-403.5 269.75,-404.5"/>
</g>
<!-- server @ busy =&gt; @ busy &#45;&gt; time &#45;&gt; server =&gt; server @ ready&#45;&gt;server @ busy =&gt; @ busy &#45;&gt; time &#45;&gt; server =&gt; server @ ready&#45;2 -->
<g id="edge4" class="edge">
<title>server @ busy =&gt; @ busy &#45;&gt; time &#45;&gt; server =&gt; server @ ready&#45;&gt;server @ busy =&gt; @ busy &#45;&gt; time &#45;&gt; server =&gt; server @ ready&#45;2</title>
<path fill="none" stroke="darkgreen" stroke-width="3" d="M131.35,-474.95C135.46,-472.86 265.1,-407.1 269.15,-405.05"/>
</g>
<!-- server @ ready -->
<g id="node6" class="node">
<title>server @ ready</title>
<polygon fill="palegreen" stroke="palegreen" points="399.25,-316 289.25,-316 289.25,-280 399.25,-280 399.25,-316"/>
<text text-anchor="middle" x="344.25" y="-294.3" font-family="Sans-Serif" font-size="14.00">server @ ready</text>
</g>
<!-- server @ busy =&gt; @ busy &#45;&gt; time &#45;&gt; server =&gt; server @ ready&#45;2&#45;&gt;server @ ready -->
<g id="edge5" class="edge">
<title>server @ busy =&gt; @ busy &#45;&gt; time &#45;&gt; server =&gt; server @ ready&#45;2&#45;&gt;server @ ready</title>
<path fill="none" stroke="darkgreen" stroke-width="3" d="M269.3,-402.92C270.83,-400.81 304.14,-354.61 325.84,-324.53"/>
<polygon fill="darkgreen" stroke="darkgreen" stroke-width="3" points="328.87,-326.31 331.88,-316.15 323.19,-322.22 328.87,-326.31"/>
</g>
<!-- server @ busy -->
<g id="node5" class="node">
<title>server @ busy</title>
<polygon fill="palegreen" stroke="palegreen" points="245.75,-153 140.75,-153 140.75,-117 245.75,-117 245.75,-153"/>
<text text-anchor="middle" x="193.25" y="-131.3" font-family="Sans-Serif" font-size="14.00">server @ busy</text>
</g>
<!-- server @ busy&#45;&gt;server @ busy =&gt; @ busy &#45;&gt; time &#45;&gt; server =&gt; server @ ready -->
<g id="edge3" class="edge">
<title>server @ busy&#45;&gt;server @ busy =&gt; @ busy &#45;&gt; time &#45;&gt; server =&gt; server @ ready</title>
<path fill="none" stroke="darkgreen" stroke-width="3" d="M184.54,-153.1C176.32,-170.85 165.25,-199.65 165.25,-226 165.25,-299 165.25,-299 165.25,-299 165.25,-361.79 162.69,-378.4 146.25,-439 141.85,-455.21 131.9,-473.8 131.28,-474.94"/>
</g>
<!-- server @ busy&#45;&gt;server @ busy =&gt; server @ ready -->
<g id="edge7" class="edge">
<title>server @ busy&#45;&gt;server @ busy =&gt; server @ ready</title>
<path fill="none" stroke="darkgreen" stroke-width="3" d="M193.25,-116.94C193.25,-101.93 193.25,-82.27 193.25,-81.06"/>
</g>
<!-- server @ ready =&gt; server @ busy -->
<g id="node10" class="node">
<title>server @ ready =&gt; server @ busy</title>
<polygon fill="none" stroke="#0063cd" stroke-width="4" points="232.75,-227 231.75,-227 231.75,-226 232.75,-226 232.75,-227"/>
</g>
<!-- server @ ready&#45;&gt;server @ ready =&gt; server @ busy -->
<g id="edge11" class="edge">
<title>server @ ready&#45;&gt;server @ ready =&gt; server @ busy</title>
<path fill="none" stroke="darkgreen" stroke-width="3" d="M316.85,-279.88C284.73,-259.8 235.45,-229 232.4,-227.09"/>
</g>
<!-- server @ busy =&gt; server @ ready&#45;2 -->
<g id="node8" class="node">
<title>server @ busy =&gt; server @ ready&#45;2</title>
<polygon fill="none" stroke="darkgreen" stroke-width="2" points="233.75,-44 232.75,-44 232.75,-43 233.75,-43 233.75,-44"/>
</g>
<!-- server @ busy =&gt; server @ ready&#45;&gt;server @ busy =&gt; server @ ready&#45;2 -->
<g id="edge8" class="edge">
<title>server @ busy =&gt; server @ ready&#45;&gt;server @ busy =&gt; server @ ready&#45;2</title>
<path fill="none" stroke="darkgreen" stroke-width="3" d="M193.36,-79.9C195.64,-77.85 230.94,-46.08 233.14,-44.1"/>
</g>
<!-- server @ busy =&gt; server @ ready&#45;2&#45;&gt;server @ ready -->
<g id="edge9" class="edge">
<title>server @ busy =&gt; server @ ready&#45;2&#45;&gt;server @ ready</title>
<path fill="none" stroke="darkgreen" stroke-width="3" d="M233.39,-44.13C236.2,-46.79 281.25,-90.08 281.25,-134 281.25,-190 281.25,-190 281.25,-190 281.25,-221.59 301.89,-252.08 319.55,-272.37"/>
<polygon fill="darkgreen" stroke="darkgreen" stroke-width="3" points="317.06,-274.83 326.37,-279.89 322.24,-270.13 317.06,-274.83"/>
</g>
<!-- client&#45;0 &#8594; | request | &#8594; server | server @ ready =&gt; server @ busy -->
<g id="node9" class="node">
<title>client&#45;0 &#8594; | request | &#8594; server | server @ ready =&gt; server @ busy</title>
<polygon fill="paleturquoise" stroke="paleturquoise" points="193.25,-263.5 193.25,-332.5 271.25,-332.5 271.25,-263.5 193.25,-263.5"/>
<text text-anchor="middle" x="232.25" y="-317.3" font-family="Sans-Serif" font-size="14.00">client&#45;0 →</text>
<polyline fill="none" stroke="paleturquoise" points="193.25,-309.5 271.25,-309.5 "/>
<text text-anchor="middle" x="232.25" y="-294.3" font-family="Sans-Serif" font-size="14.00">request</text>
<polyline fill="none" stroke="paleturquoise" points="193.25,-286.5 271.25,-286.5 "/>
<text text-anchor="middle" x="232.25" y="-271.3" font-family="Sans-Serif" font-size="14.00">→ server</text>
</g>
<!-- client&#45;0 &#8594; | request | &#8594; server | server @ ready =&gt; server @ busy&#45;&gt;server @ ready =&gt; server @ busy -->
<g id="edge10" class="edge">
<title>client&#45;0 &#8594; | request | &#8594; server | server @ ready =&gt; server @ busy&#45;&gt;server @ ready =&gt; server @ busy</title>
<path fill="none" stroke="mediumblue" stroke-width="3" d="M232.25,-263.23C232.25,-253.75 232.25,-244.14 232.25,-237.21"/>
<polygon fill="mediumblue" stroke="mediumblue" stroke-width="3" points="235.75,-237.05 232.25,-227.05 228.75,-237.05 235.75,-237.05"/>
</g>
<!-- server @ ready =&gt; server @ busy&#45;2 -->
<g id="node11" class="node">
<title>server @ ready =&gt; server @ busy&#45;2</title>
<polygon fill="none" stroke="darkgreen" stroke-width="2" points="213.75,-190 212.75,-190 212.75,-189 213.75,-189 213.75,-190"/>
</g>
<!-- server @ ready =&gt; server @ busy&#45;&gt;server @ ready =&gt; server @ busy&#45;2 -->
<g id="edge12" class="edge">
<title>server @ ready =&gt; server @ busy&#45;&gt;server @ ready =&gt; server @ busy&#45;2</title>
<path fill="none" stroke="darkgreen" stroke-width="3" d="M232.2,-225.9C231.12,-223.85 214.35,-192.08 213.3,-190.1"/>
</g>
<!-- server @ ready =&gt; server @ busy&#45;2&#45;&gt;server @ busy -->
<g id="edge13" class="edge">
<title>server @ ready =&gt; server @ busy&#45;2&#45;&gt;server @ busy</title>
<path fill="none" stroke="darkgreen" stroke-width="3" d="M213.19,-188.85C212.63,-187.35 208,-175.08 203.34,-162.73"/>
<polygon fill="darkgreen" stroke="darkgreen" stroke-width="3" points="206.48,-161.15 199.67,-153.02 199.93,-163.62 206.48,-161.15"/>
</g>
</g>
</svg>
