<?xml version="1.0" encoding="UTF-8" standalone="no"?>
<!DOCTYPE svg PUBLIC "-//W3C//DTD SVG 1.1//EN"
 "http://www.w3.org/Graphics/SVG/1.1/DTD/svg11.dtd">
<!-- Generated by graphviz version 2.46.0 (0)
 -->
<!-- Title: G Pages: 1 -->
<svg width="463pt" height="373pt"
 viewBox="0.00 0.00 463.36 373.00" xmlns="http://www.w3.org/2000/svg" xmlns:xlink="http://www.w3.org/1999/xlink">
<g id="graph0" class="graph" transform="scale(1 1) rotate(0) translate(4 369)">
<title>G</title>
<polygon fill="white" stroke="transparent" points="-4,4 -4,-369 459.36,-369 459.36,4 -4,4"/>
<text text-anchor="middle" x="227.68" y="-13.4" font-family="Sans-Serif" font-size="32.00">Server Detail (w/ One Client)</text>
<!-- server &#8594; | response@0 | &#8594; client&#45;0 -->
<g id="node1" class="node">
<title>server &#8594; | response@0 | &#8594; client&#45;0</title>
<polygon fill="paleturquoise" stroke="paleturquoise" points="101.5,-152.5 101.5,-221.5 195.5,-221.5 195.5,-152.5 101.5,-152.5"/>
<text text-anchor="middle" x="148.5" y="-206.3" font-family="Sans-Serif" font-size="14.00">server →</text>
<polyline fill="none" stroke="paleturquoise" points="101.5,-198.5 195.5,-198.5 "/>
<text text-anchor="middle" x="148.5" y="-183.3" font-family="Sans-Serif" font-size="14.00">response@0</text>
<polyline fill="none" stroke="paleturquoise" points="101.5,-175.5 195.5,-175.5 "/>
<text text-anchor="middle" x="148.5" y="-160.3" font-family="Sans-Serif" font-size="14.00">→ client&#45;0</text>
</g>
<!-- @ busy &#8594; | time | &#8594; server -->
<g id="node2" class="node">
<title>@ busy &#8594; | time | &#8594; server</title>
<polygon fill="paleturquoise" stroke="paleturquoise" points="288,-295.5 288,-364.5 369,-364.5 369,-295.5 288,-295.5"/>
<text text-anchor="middle" x="328.5" y="-349.3" font-family="Sans-Serif" font-size="14.00">@ busy →</text>
<polyline fill="none" stroke="paleturquoise" points="288,-341.5 369,-341.5 "/>
<text text-anchor="middle" x="328.5" y="-326.3" font-family="Sans-Serif" font-size="14.00">time</text>
<polyline fill="none" stroke="paleturquoise" points="288,-318.5 369,-318.5 "/>
<text text-anchor="middle" x="328.5" y="-303.3" font-family="Sans-Serif" font-size="14.00">→ server</text>
</g>
<!-- server @ busy =&gt; @ busy &#45;&gt; time &#45;&gt; server =&gt; server @ ready -->
<g id="node3" class="node">
<title>server @ busy =&gt; @ busy &#45;&gt; time &#45;&gt; server =&gt; server @ ready</title>
<polygon fill="none" stroke="#0063cd" stroke-width="4" points="329,-259 328,-259 328,-258 329,-258 329,-259"/>
</g>
<!-- @ busy &#8594; | time | &#8594; server&#45;&gt;server @ busy =&gt; @ busy &#45;&gt; time &#45;&gt; server =&gt; server @ ready -->
<g id="edge2" class="edge">
<title>@ busy &#8594; | time | &#8594; server&#45;&gt;server @ busy =&gt; @ busy &#45;&gt; time &#45;&gt; server =&gt; server @ ready</title>
<path fill="none" stroke="mediumblue" stroke-width="3" d="M328.5,-295.23C328.5,-277.89 328.5,-260.15 328.5,-259.05"/>
</g>
<!-- server @ busy =&gt; @ busy &#45;&gt; time &#45;&gt; server =&gt; server @ ready&#45;&gt;server &#8594; | response@0 | &#8594; client&#45;0 -->
<g id="edge1" class="edge">
<title>server @ busy =&gt; @ busy &#45;&gt; time &#45;&gt; server =&gt; server @ ready&#45;&gt;server &#8594; | response@0 | &#8594; client&#45;0</title>
<path fill="none" stroke="mediumblue" stroke-width="3" d="M328.45,-257.99C326.38,-257.61 263.16,-246 204.98,-221.81"/>
<polygon fill="mediumblue" stroke="mediumblue" stroke-width="3" points="206.27,-218.55 195.7,-217.82 203.5,-224.98 206.27,-218.55"/>
</g>
<!-- server @ ready -->
<g id="node5" class="node">
<title>server @ ready</title>
<polygon fill="palegreen" stroke="palegreen" points="323.5,-205 213.5,-205 213.5,-169 323.5,-169 323.5,-205"/>
<text text-anchor="middle" x="268.5" y="-183.3" font-family="Sans-Serif" font-size="14.00">server @ ready</text>
</g>
<!-- server @ busy =&gt; @ busy &#45;&gt; time &#45;&gt; server =&gt; server @ ready&#45;&gt;server @ ready -->
<g id="edge4" class="edge">
<title>server @ busy =&gt; @ busy &#45;&gt; time &#45;&gt; server =&gt; server @ ready&#45;&gt;server @ ready</title>
<path fill="none" stroke="darkgreen" stroke-width="3" d="M328.46,-257.95C327.38,-256.7 306.67,-232.53 289.89,-212.95"/>
<polygon fill="darkgreen" stroke="darkgreen" stroke-width="3" points="292.4,-210.51 283.24,-205.19 287.09,-215.06 292.4,-210.51"/>
</g>
<!-- server &#8594; | response@1 | &#8594; client&#45;0 -->
<g id="node6" class="node">
<title>server &#8594; | response@1 | &#8594; client&#45;0</title>
<polygon fill="paleturquoise" stroke="paleturquoise" points="341.5,-152.5 341.5,-221.5 435.5,-221.5 435.5,-152.5 341.5,-152.5"/>
<text text-anchor="middle" x="388.5" y="-206.3" font-family="Sans-Serif" font-size="14.00">server →</text>
<polyline fill="none" stroke="paleturquoise" points="341.5,-198.5 435.5,-198.5 "/>
<text text-anchor="middle" x="388.5" y="-183.3" font-family="Sans-Serif" font-size="14.00">response@1</text>
<polyline fill="none" stroke="paleturquoise" points="341.5,-175.5 435.5,-175.5 "/>
<text text-anchor="middle" x="388.5" y="-160.3" font-family="Sans-Serif" font-size="14.00">→ client&#45;0</text>
</g>
<!-- server @ busy =&gt; @ busy &#45;&gt; time &#45;&gt; server =&gt; server @ ready&#45;&gt;server &#8594; | response@1 | &#8594; client&#45;0 -->
<g id="edge5" class="edge">
<title>server @ busy =&gt; @ busy &#45;&gt; time &#45;&gt; server =&gt; server @ ready&#45;&gt;server &#8594; | response@1 | &#8594; client&#45;0</title>
<path fill="none" stroke="mediumblue" stroke-width="3" d="M328.54,-257.95C329.32,-257.04 340.47,-244.03 352.95,-229.47"/>
<polygon fill="mediumblue" stroke="mediumblue" stroke-width="3" points="355.7,-231.65 359.55,-221.78 350.38,-227.09 355.7,-231.65"/>
</g>
<!-- server @ busy -->
<g id="node4" class="node">
<title>server @ busy</title>
<polygon fill="palegreen" stroke="palegreen" points="418,-79 313,-79 313,-43 418,-43 418,-79"/>
<text text-anchor="middle" x="365.5" y="-57.3" font-family="Sans-Serif" font-size="14.00">server @ busy</text>
</g>
<!-- server @ busy&#45;&gt;server @ busy =&gt; @ busy &#45;&gt; time &#45;&gt; server =&gt; server @ ready -->
<g id="edge3" class="edge">
<title>server @ busy&#45;&gt;server @ busy =&gt; @ busy &#45;&gt; time &#45;&gt; server =&gt; server @ ready</title>
<path fill="none" stroke="darkgreen" stroke-width="3" d="M385.77,-79.21C419.3,-109.77 479.32,-174.74 444.5,-222 413.98,-263.42 336.26,-258.59 329.04,-258.04"/>
</g>
<!-- server @ ready =&gt; server @ busy -->
<g id="node8" class="node">
<title>server @ ready =&gt; server @ busy</title>
<polygon fill="none" stroke="#0063cd" stroke-width="4" points="269,-116 268,-116 268,-115 269,-115 269,-116"/>
</g>
<!-- server @ ready&#45;&gt;server @ ready =&gt; server @ busy -->
<g id="edge7" class="edge">
<title>server @ ready&#45;&gt;server @ ready =&gt; server @ busy</title>
<path fill="none" stroke="darkgreen" stroke-width="3" d="M268.5,-168.7C268.5,-148.62 268.5,-117.99 268.5,-116.09"/>
</g>
<!-- client&#45;0 &#8594; | request@0 | &#8594; server -->
<g id="node7" class="node">
<title>client&#45;0 &#8594; | request@0 | &#8594; server</title>
<polygon fill="paleturquoise" stroke="paleturquoise" points="0,-152.5 0,-221.5 83,-221.5 83,-152.5 0,-152.5"/>
<text text-anchor="middle" x="41.5" y="-206.3" font-family="Sans-Serif" font-size="14.00">client&#45;0 →</text>
<polyline fill="none" stroke="paleturquoise" points="0,-198.5 83,-198.5 "/>
<text text-anchor="middle" x="41.5" y="-183.3" font-family="Sans-Serif" font-size="14.00">request@0</text>
<polyline fill="none" stroke="paleturquoise" points="0,-175.5 83,-175.5 "/>
<text text-anchor="middle" x="41.5" y="-160.3" font-family="Sans-Serif" font-size="14.00">→ server</text>
</g>
<!-- client&#45;0 &#8594; | request@0 | &#8594; server&#45;&gt;server @ ready =&gt; server @ busy -->
<g id="edge6" class="edge">
<title>client&#45;0 &#8594; | request@0 | &#8594; server&#45;&gt;server @ ready =&gt; server @ busy</title>
<path fill="none" stroke="mediumblue" stroke-width="3" d="M83.09,-156.47C86.2,-154.82 89.36,-153.31 92.5,-152 152.01,-127.2 230.17,-118.98 258.06,-116.73"/>
<polygon fill="mediumblue" stroke="mediumblue" stroke-width="3" points="258.7,-120.2 268.43,-116 258.21,-113.21 258.7,-120.2"/>
</g>
<!-- server @ ready =&gt; server @ busy&#45;&gt;server @ busy -->
<g id="edge8" class="edge">
<title>server @ ready =&gt; server @ busy&#45;&gt;server @ busy</title>
<path fill="none" stroke="darkgreen" stroke-width="3" d="M268.57,-114.96C270.19,-114.08 299.38,-98.13 325.31,-83.96"/>
<polygon fill="darkgreen" stroke="darkgreen" stroke-width="3" points="327.2,-86.92 334.3,-79.05 323.84,-80.77 327.2,-86.92"/>
</g>
</g>
</svg>
