<?xml version="1.0" encoding="UTF-8" standalone="no"?>
<!DOCTYPE svg PUBLIC "-//W3C//DTD SVG 1.1//EN"
 "http://www.w3.org/Graphics/SVG/1.1/DTD/svg11.dtd">
<!-- Generated by graphviz version 2.44.1 (0)
 -->
<!-- Title: G Pages: 1 -->
<svg width="719pt" height="550pt"
 viewBox="0.00 0.00 719.21 550.00" xmlns="http://www.w3.org/2000/svg" xmlns:xlink="http://www.w3.org/1999/xlink">
<g id="graph0" class="graph" transform="scale(1 1) rotate(0) translate(4 546)">
<title>G</title>
<polygon fill="white" stroke="transparent" points="-4,4 -4,-546 715.21,-546 715.21,4 -4,4"/>
<text text-anchor="middle" x="355.61" y="-13.4" font-family="Sans-Serif" font-size="32.00">Client&#45;1 Detail</text>
<!-- client &rarr; | confirm! | &rarr; client&#45;1 -->
<g id="node1" class="node">
<title>client &rarr; | confirm! | &rarr; client&#45;1</title>
<polygon fill="darkturquoise" stroke="darkturquoise" points="261.5,-472.5 261.5,-541.5 339.5,-541.5 339.5,-472.5 261.5,-472.5"/>
<text text-anchor="middle" x="300.5" y="-526.3" font-family="Sans-Serif" font-size="14.00">client →</text>
<polyline fill="none" stroke="darkturquoise" points="261.5,-518.5 339.5,-518.5 "/>
<text text-anchor="middle" x="300.5" y="-503.3" font-family="Sans-Serif" font-size="14.00">confirm!</text>
<polyline fill="none" stroke="darkturquoise" points="261.5,-495.5 339.5,-495.5 "/>
<text text-anchor="middle" x="300.5" y="-480.3" font-family="Sans-Serif" font-size="14.00">→ client&#45;1</text>
</g>
<!-- client&#45;1 @ check =&gt; client&#45;1 @ idle -->
<g id="node2" class="node">
<title>client&#45;1 @ check =&gt; client&#45;1 @ idle</title>
<polygon fill="none" stroke="#0063cd" stroke-width="4" points="301,-436 300,-436 300,-435 301,-435 301,-436"/>
</g>
<!-- client &rarr; | confirm! | &rarr; client&#45;1&#45;&gt;client&#45;1 @ check =&gt; client&#45;1 @ idle -->
<g id="edge1" class="edge">
<title>client &rarr; | confirm! | &rarr; client&#45;1&#45;&gt;client&#45;1 @ check =&gt; client&#45;1 @ idle</title>
<path fill="none" stroke="mediumblue" stroke-width="3" d="M300.5,-472.23C300.5,-462.75 300.5,-453.14 300.5,-446.21"/>
<polygon fill="mediumblue" stroke="mediumblue" stroke-width="3" points="304,-446.05 300.5,-436.05 297,-446.05 304,-446.05"/>
</g>
<!-- client&#45;1 @ idle -->
<g id="node4" class="node">
<title>client&#45;1 @ idle</title>
<polygon fill="palegreen" stroke="palegreen" points="410,-382 307,-382 307,-346 410,-346 410,-382"/>
<text text-anchor="middle" x="358.5" y="-360.3" font-family="Sans-Serif" font-size="14.00">client&#45;1 @ idle</text>
</g>
<!-- client&#45;1 @ check =&gt; client&#45;1 @ idle&#45;&gt;client&#45;1 @ idle -->
<g id="edge3" class="edge">
<title>client&#45;1 @ check =&gt; client&#45;1 @ idle&#45;&gt;client&#45;1 @ idle</title>
<path fill="none" stroke="darkgreen" stroke-width="3" d="M300.54,-434.95C301.58,-433.7 321.6,-409.53 337.83,-389.95"/>
<polygon fill="darkgreen" stroke="darkgreen" stroke-width="3" points="340.57,-392.12 344.26,-382.19 335.18,-387.66 340.57,-392.12"/>
</g>
<!-- client&#45;1 @ check -->
<g id="node3" class="node">
<title>client&#45;1 @ check</title>
<polygon fill="palegreen" stroke="palegreen" points="117,-239 0,-239 0,-203 117,-203 117,-239"/>
<text text-anchor="middle" x="58.5" y="-217.3" font-family="Sans-Serif" font-size="14.00">client&#45;1 @ check</text>
</g>
<!-- client&#45;1 @ check&#45;&gt;client&#45;1 @ check =&gt; client&#45;1 @ idle -->
<g id="edge2" class="edge">
<title>client&#45;1 @ check&#45;&gt;client&#45;1 @ check =&gt; client&#45;1 @ idle</title>
<path fill="none" stroke="darkgreen" stroke-width="3" d="M68,-239.2C88.14,-274.16 138.48,-354.01 201.5,-399 239.01,-425.78 298.6,-434.72 300.46,-434.99"/>
</g>
<!-- client&#45;1 @ check =&gt; client&#45;1 @ check -->
<g id="node6" class="node">
<title>client&#45;1 @ check =&gt; client&#45;1 @ check</title>
<polygon fill="none" stroke="#0063cd" stroke-width="4" points="59,-150 58,-150 58,-149 59,-149 59,-150"/>
</g>
<!-- client&#45;1 @ check&#45;&gt;client&#45;1 @ check =&gt; client&#45;1 @ check -->
<g id="edge5" class="edge">
<title>client&#45;1 @ check&#45;&gt;client&#45;1 @ check =&gt; client&#45;1 @ check</title>
<path fill="none" stroke="darkgreen" stroke-width="3" d="M52.58,-202.7C50.48,-182.29 52.36,-151 58.22,-150.02"/>
</g>
<!-- client&#45;1 @ idle =&gt; @ idle &#45;&gt; time &#45;&gt; client&#45;1 =&gt; client&#45;1 @ check -->
<g id="node9" class="node">
<title>client&#45;1 @ idle =&gt; @ idle &#45;&gt; time &#45;&gt; client&#45;1 =&gt; client&#45;1 @ check</title>
<polygon fill="none" stroke="#0063cd" stroke-width="4" points="260,-293 259,-293 259,-292 260,-292 260,-293"/>
</g>
<!-- client&#45;1 @ idle&#45;&gt;client&#45;1 @ idle =&gt; @ idle &#45;&gt; time &#45;&gt; client&#45;1 =&gt; client&#45;1 @ check -->
<g id="edge9" class="edge">
<title>client&#45;1 @ idle&#45;&gt;client&#45;1 @ idle =&gt; @ idle &#45;&gt; time &#45;&gt; client&#45;1 =&gt; client&#45;1 @ check</title>
<path fill="none" stroke="darkgreen" stroke-width="3" d="M334.28,-345.88C305.89,-325.8 262.33,-295 259.63,-293.09"/>
</g>
<!-- client&#45;1 @ idle =&gt; @ idle &#45;&gt; time &#45;&gt; client&#45;1 =&gt; client&#45;1 @ wait -->
<g id="node11" class="node">
<title>client&#45;1 @ idle =&gt; @ idle &#45;&gt; time &#45;&gt; client&#45;1 =&gt; client&#45;1 @ wait</title>
<polygon fill="none" stroke="#0063cd" stroke-width="4" points="353,-293 352,-293 352,-292 353,-292 353,-293"/>
</g>
<!-- client&#45;1 @ idle&#45;&gt;client&#45;1 @ idle =&gt; @ idle &#45;&gt; time &#45;&gt; client&#45;1 =&gt; client&#45;1 @ wait -->
<g id="edge13" class="edge">
<title>client&#45;1 @ idle&#45;&gt;client&#45;1 @ idle =&gt; @ idle &#45;&gt; time &#45;&gt; client&#45;1 =&gt; client&#45;1 @ wait</title>
<path fill="none" stroke="darkgreen" stroke-width="3" d="M357.02,-345.7C355.3,-325.62 352.67,-294.99 352.51,-293.09"/>
</g>
<!-- @ check &rarr; | time | &rarr; client&#45;1 -->
<g id="node5" class="node">
<title>@ check &rarr; | time | &rarr; client&#45;1</title>
<polygon fill="paleturquoise" stroke="paleturquoise" points="135.5,-186.5 135.5,-255.5 223.5,-255.5 223.5,-186.5 135.5,-186.5"/>
<text text-anchor="middle" x="179.5" y="-240.3" font-family="Sans-Serif" font-size="14.00">@ check →</text>
<polyline fill="none" stroke="paleturquoise" points="135.5,-232.5 223.5,-232.5 "/>
<text text-anchor="middle" x="179.5" y="-217.3" font-family="Sans-Serif" font-size="14.00">time</text>
<polyline fill="none" stroke="paleturquoise" points="135.5,-209.5 223.5,-209.5 "/>
<text text-anchor="middle" x="179.5" y="-194.3" font-family="Sans-Serif" font-size="14.00">→ client&#45;1</text>
</g>
<!-- @ check &rarr; | time | &rarr; client&#45;1&#45;&gt;client&#45;1 @ check =&gt; client&#45;1 @ check -->
<g id="edge4" class="edge">
<title>@ check &rarr; | time | &rarr; client&#45;1&#45;&gt;client&#45;1 @ check =&gt; client&#45;1 @ check</title>
<path fill="none" stroke="mediumblue" stroke-width="3" d="M135.45,-191.92C132.1,-189.89 128.75,-187.9 125.5,-186 105.16,-174.15 80.66,-161.35 67.66,-154.67"/>
<polygon fill="mediumblue" stroke="mediumblue" stroke-width="3" points="69.11,-151.48 58.61,-150.05 65.93,-157.71 69.11,-151.48"/>
</g>
<!-- client&#45;1 @ check =&gt; client&#45;1 @ check&#45;&gt;client&#45;1 @ check -->
<g id="edge6" class="edge">
<title>client&#45;1 @ check =&gt; client&#45;1 @ check&#45;&gt;client&#45;1 @ check</title>
<path fill="none" stroke="darkgreen" stroke-width="3" d="M58.78,-150.02C63.73,-150.84 65.84,-173.25 65.11,-192.49"/>
<polygon fill="darkgreen" stroke="darkgreen" stroke-width="3" points="61.6,-192.48 64.42,-202.7 68.59,-192.96 61.6,-192.48"/>
</g>
<!-- client&#45;1 &rarr; | check | &rarr; client -->
<g id="node7" class="node">
<title>client&#45;1 &rarr; | check | &rarr; client</title>
<polygon fill="paleturquoise" stroke="paleturquoise" points="241.5,-186.5 241.5,-255.5 319.5,-255.5 319.5,-186.5 241.5,-186.5"/>
<text text-anchor="middle" x="280.5" y="-240.3" font-family="Sans-Serif" font-size="14.00">client&#45;1 →</text>
<polyline fill="none" stroke="paleturquoise" points="241.5,-232.5 319.5,-232.5 "/>
<text text-anchor="middle" x="280.5" y="-217.3" font-family="Sans-Serif" font-size="14.00">check</text>
<polyline fill="none" stroke="paleturquoise" points="241.5,-209.5 319.5,-209.5 "/>
<text text-anchor="middle" x="280.5" y="-194.3" font-family="Sans-Serif" font-size="14.00">→ client</text>
</g>
<!-- @ idle &rarr; | time | &rarr; client&#45;1 -->
<g id="node8" class="node">
<title>@ idle &rarr; | time | &rarr; client&#45;1</title>
<polygon fill="paleturquoise" stroke="paleturquoise" points="210.5,-329.5 210.5,-398.5 288.5,-398.5 288.5,-329.5 210.5,-329.5"/>
<text text-anchor="middle" x="249.5" y="-383.3" font-family="Sans-Serif" font-size="14.00">@ idle →</text>
<polyline fill="none" stroke="paleturquoise" points="210.5,-375.5 288.5,-375.5 "/>
<text text-anchor="middle" x="249.5" y="-360.3" font-family="Sans-Serif" font-size="14.00">time</text>
<polyline fill="none" stroke="paleturquoise" points="210.5,-352.5 288.5,-352.5 "/>
<text text-anchor="middle" x="249.5" y="-337.3" font-family="Sans-Serif" font-size="14.00">→ client&#45;1</text>
</g>
<!-- @ idle &rarr; | time | &rarr; client&#45;1&#45;&gt;client&#45;1 @ idle =&gt; @ idle &#45;&gt; time &#45;&gt; client&#45;1 =&gt; client&#45;1 @ check -->
<g id="edge8" class="edge">
<title>@ idle &rarr; | time | &rarr; client&#45;1&#45;&gt;client&#45;1 @ idle =&gt; @ idle &#45;&gt; time &#45;&gt; client&#45;1 =&gt; client&#45;1 @ check</title>
<path fill="none" stroke="mediumblue" stroke-width="3" d="M254.32,-329.23C256.8,-311.89 259.34,-294.15 259.49,-293.05"/>
</g>
<!-- @ idle &rarr; | time | &rarr; client&#45;1&#45;&gt;client&#45;1 @ idle =&gt; @ idle &#45;&gt; time &#45;&gt; client&#45;1 =&gt; client&#45;1 @ wait -->
<g id="edge12" class="edge">
<title>@ idle &rarr; | time | &rarr; client&#45;1&#45;&gt;client&#45;1 @ idle =&gt; @ idle &#45;&gt; time &#45;&gt; client&#45;1 =&gt; client&#45;1 @ wait</title>
<path fill="none" stroke="mediumblue" stroke-width="3" d="M288.71,-335.05C291.68,-332.99 294.63,-330.95 297.5,-329 320.89,-313.07 350.58,-294.22 352.41,-293.06"/>
</g>
<!-- client&#45;1 @ idle =&gt; @ idle &#45;&gt; time &#45;&gt; client&#45;1 =&gt; client&#45;1 @ check&#45;&gt;client&#45;1 @ check -->
<g id="edge10" class="edge">
<title>client&#45;1 @ idle =&gt; @ idle &#45;&gt; time &#45;&gt; client&#45;1 =&gt; client&#45;1 @ check&#45;&gt;client&#45;1 @ check</title>
<path fill="none" stroke="darkgreen" stroke-width="3" d="M259.44,-291.99C257.14,-291.55 182.83,-277.46 126.5,-256 117.25,-252.48 107.59,-248.1 98.55,-243.68"/>
<polygon fill="darkgreen" stroke="darkgreen" stroke-width="3" points="99.9,-240.44 89.4,-239.08 96.76,-246.7 99.9,-240.44"/>
</g>
<!-- client&#45;1 @ idle =&gt; @ idle &#45;&gt; time &#45;&gt; client&#45;1 =&gt; client&#45;1 @ check&#45;&gt;client&#45;1 &rarr; | check | &rarr; client -->
<g id="edge7" class="edge">
<title>client&#45;1 @ idle =&gt; @ idle &#45;&gt; time &#45;&gt; client&#45;1 =&gt; client&#45;1 @ check&#45;&gt;client&#45;1 &rarr; | check | &rarr; client</title>
<path fill="none" stroke="mediumblue" stroke-width="3" d="M259.52,-291.95C259.78,-291.08 263.34,-279.2 267.46,-265.47"/>
<polygon fill="mediumblue" stroke="mediumblue" stroke-width="3" points="270.85,-266.36 270.37,-255.78 264.14,-264.35 270.85,-266.36"/>
</g>
<!-- client&#45;1 &rarr; | request@0 | &rarr; server -->
<g id="node10" class="node">
<title>client&#45;1 &rarr; | request@0 | &rarr; server</title>
<polygon fill="paleturquoise" stroke="paleturquoise" points="321,-43.5 321,-112.5 404,-112.5 404,-43.5 321,-43.5"/>
<text text-anchor="middle" x="362.5" y="-97.3" font-family="Sans-Serif" font-size="14.00">client&#45;1 →</text>
<polyline fill="none" stroke="paleturquoise" points="321,-89.5 404,-89.5 "/>
<text text-anchor="middle" x="362.5" y="-74.3" font-family="Sans-Serif" font-size="14.00">request@0</text>
<polyline fill="none" stroke="paleturquoise" points="321,-66.5 404,-66.5 "/>
<text text-anchor="middle" x="362.5" y="-51.3" font-family="Sans-Serif" font-size="14.00">→ server</text>
</g>
<!-- client&#45;1 @ idle =&gt; @ idle &#45;&gt; time &#45;&gt; client&#45;1 =&gt; client&#45;1 @ wait&#45;&gt;client&#45;1 &rarr; | request@0 | &rarr; server -->
<g id="edge11" class="edge">
<title>client&#45;1 @ idle =&gt; @ idle &#45;&gt; time &#45;&gt; client&#45;1 =&gt; client&#45;1 @ wait&#45;&gt;client&#45;1 &rarr; | request@0 | &rarr; server</title>
<path fill="none" stroke="mediumblue" stroke-width="3" d="M352.51,-291.85C352.72,-287.31 357.58,-183.83 360.44,-122.86"/>
<polygon fill="mediumblue" stroke="mediumblue" stroke-width="3" points="363.94,-122.88 360.92,-112.73 356.95,-122.55 363.94,-122.88"/>
</g>
<!-- client&#45;1 @ wait -->
<g id="node12" class="node">
<title>client&#45;1 @ wait</title>
<polygon fill="palegreen" stroke="palegreen" points="577.5,-239 471.5,-239 471.5,-203 577.5,-203 577.5,-239"/>
<text text-anchor="middle" x="524.5" y="-217.3" font-family="Sans-Serif" font-size="14.00">client&#45;1 @ wait</text>
</g>
<!-- client&#45;1 @ idle =&gt; @ idle &#45;&gt; time &#45;&gt; client&#45;1 =&gt; client&#45;1 @ wait&#45;&gt;client&#45;1 @ wait -->
<g id="edge14" class="edge">
<title>client&#45;1 @ idle =&gt; @ idle &#45;&gt; time &#45;&gt; client&#45;1 =&gt; client&#45;1 @ wait&#45;&gt;client&#45;1 @ wait</title>
<path fill="none" stroke="darkgreen" stroke-width="3" d="M352.55,-291.99C354.46,-291.51 416.04,-276.14 462.5,-256 470.68,-252.45 479.22,-248.18 487.24,-243.88"/>
<polygon fill="darkgreen" stroke="darkgreen" stroke-width="3" points="488.96,-246.93 496.04,-239.05 485.59,-240.8 488.96,-246.93"/>
</g>
<!-- client&#45;1 @ wait =&gt; client&#45;1 @ wait -->
<g id="node14" class="node">
<title>client&#45;1 @ wait =&gt; client&#45;1 @ wait</title>
<polygon fill="none" stroke="#0063cd" stroke-width="4" points="525,-150 524,-150 524,-149 525,-149 525,-150"/>
</g>
<!-- client&#45;1 @ wait&#45;&gt;client&#45;1 @ wait =&gt; client&#45;1 @ wait -->
<g id="edge16" class="edge">
<title>client&#45;1 @ wait&#45;&gt;client&#45;1 @ wait =&gt; client&#45;1 @ wait</title>
<path fill="none" stroke="darkgreen" stroke-width="3" d="M518.58,-202.7C516.48,-182.29 518.36,-151 524.22,-150.02"/>
</g>
<!-- client&#45;1 @ wait =&gt; @ wait &#45;&gt; time &#45;&gt; client&#45;1 =&gt; client&#45;1 @ wait -->
<g id="node17" class="node">
<title>client&#45;1 @ wait =&gt; @ wait &#45;&gt; time &#45;&gt; client&#45;1 =&gt; client&#45;1 @ wait</title>
<polygon fill="none" stroke="#0063cd" stroke-width="4" points="492,-150 491,-150 491,-149 492,-149 492,-150"/>
</g>
<!-- client&#45;1 @ wait&#45;&gt;client&#45;1 @ wait =&gt; @ wait &#45;&gt; time &#45;&gt; client&#45;1 =&gt; client&#45;1 @ wait -->
<g id="edge20" class="edge">
<title>client&#45;1 @ wait&#45;&gt;client&#45;1 @ wait =&gt; @ wait &#45;&gt; time &#45;&gt; client&#45;1 =&gt; client&#45;1 @ wait</title>
<path fill="none" stroke="darkgreen" stroke-width="3" d="M510.43,-202.7C498.89,-182.62 486.24,-151.99 490.99,-150.09"/>
</g>
<!-- client&#45;1 @ wait =&gt; client&#45;1 @ idle -->
<g id="node18" class="node">
<title>client&#45;1 @ wait =&gt; client&#45;1 @ idle</title>
<polygon fill="none" stroke="#0063cd" stroke-width="4" points="643,-150 642,-150 642,-149 643,-149 643,-150"/>
</g>
<!-- client&#45;1 @ wait&#45;&gt;client&#45;1 @ wait =&gt; client&#45;1 @ idle -->
<g id="edge24" class="edge">
<title>client&#45;1 @ wait&#45;&gt;client&#45;1 @ wait =&gt; client&#45;1 @ idle</title>
<path fill="none" stroke="darkgreen" stroke-width="3" d="M553.37,-202.88C587.21,-182.8 639.13,-152 642.34,-150.09"/>
</g>
<!-- server &rarr; | response@0 | &rarr; client&#45;1 -->
<g id="node13" class="node">
<title>server &rarr; | response@0 | &rarr; client&#45;1</title>
<polygon fill="paleturquoise" stroke="paleturquoise" points="595.5,-186.5 595.5,-255.5 689.5,-255.5 689.5,-186.5 595.5,-186.5"/>
<text text-anchor="middle" x="642.5" y="-240.3" font-family="Sans-Serif" font-size="14.00">server →</text>
<polyline fill="none" stroke="paleturquoise" points="595.5,-232.5 689.5,-232.5 "/>
<text text-anchor="middle" x="642.5" y="-217.3" font-family="Sans-Serif" font-size="14.00">response@0</text>
<polyline fill="none" stroke="paleturquoise" points="595.5,-209.5 689.5,-209.5 "/>
<text text-anchor="middle" x="642.5" y="-194.3" font-family="Sans-Serif" font-size="14.00">→ client&#45;1</text>
</g>
<!-- server &rarr; | response@0 | &rarr; client&#45;1&#45;&gt;client&#45;1 @ wait =&gt; client&#45;1 @ wait -->
<g id="edge15" class="edge">
<title>server &rarr; | response@0 | &rarr; client&#45;1&#45;&gt;client&#45;1 @ wait =&gt; client&#45;1 @ wait</title>
<path fill="none" stroke="mediumblue" stroke-width="3" d="M595.49,-191.36C592.45,-189.54 589.43,-187.74 586.5,-186 567.63,-174.8 545.34,-161.95 533.3,-155.04"/>
<polygon fill="mediumblue" stroke="mediumblue" stroke-width="3" points="535.02,-151.99 524.6,-150.06 531.54,-158.06 535.02,-151.99"/>
</g>
<!-- server &rarr; | response@0 | &rarr; client&#45;1&#45;&gt;client&#45;1 @ wait =&gt; client&#45;1 @ idle -->
<g id="edge23" class="edge">
<title>server &rarr; | response@0 | &rarr; client&#45;1&#45;&gt;client&#45;1 @ wait =&gt; client&#45;1 @ idle</title>
<path fill="none" stroke="mediumblue" stroke-width="3" d="M642.5,-186.23C642.5,-176.75 642.5,-167.14 642.5,-160.21"/>
<polygon fill="mediumblue" stroke="mediumblue" stroke-width="3" points="646,-160.05 642.5,-150.05 639,-160.05 646,-160.05"/>
</g>
<!-- client&#45;1 @ wait =&gt; client&#45;1 @ wait&#45;&gt;client&#45;1 @ wait -->
<g id="edge17" class="edge">
<title>client&#45;1 @ wait =&gt; client&#45;1 @ wait&#45;&gt;client&#45;1 @ wait</title>
<path fill="none" stroke="darkgreen" stroke-width="3" d="M524.78,-150.02C529.73,-150.84 531.84,-173.25 531.11,-192.49"/>
<polygon fill="darkgreen" stroke="darkgreen" stroke-width="3" points="527.6,-192.48 530.42,-202.7 534.59,-192.96 527.6,-192.48"/>
</g>
<!-- client&#45;1 &rarr; | request@1 | &rarr; server -->
<g id="node15" class="node">
<title>client&#45;1 &rarr; | request@1 | &rarr; server</title>
<polygon fill="paleturquoise" stroke="paleturquoise" points="450,-43.5 450,-112.5 533,-112.5 533,-43.5 450,-43.5"/>
<text text-anchor="middle" x="491.5" y="-97.3" font-family="Sans-Serif" font-size="14.00">client&#45;1 →</text>
<polyline fill="none" stroke="paleturquoise" points="450,-89.5 533,-89.5 "/>
<text text-anchor="middle" x="491.5" y="-74.3" font-family="Sans-Serif" font-size="14.00">request@1</text>
<polyline fill="none" stroke="paleturquoise" points="450,-66.5 533,-66.5 "/>
<text text-anchor="middle" x="491.5" y="-51.3" font-family="Sans-Serif" font-size="14.00">→ server</text>
</g>
<!-- @ wait &rarr; | time | &rarr; client&#45;1 -->
<g id="node16" class="node">
<title>@ wait &rarr; | time | &rarr; client&#45;1</title>
<polygon fill="paleturquoise" stroke="paleturquoise" points="375.5,-186.5 375.5,-255.5 453.5,-255.5 453.5,-186.5 375.5,-186.5"/>
<text text-anchor="middle" x="414.5" y="-240.3" font-family="Sans-Serif" font-size="14.00">@ wait →</text>
<polyline fill="none" stroke="paleturquoise" points="375.5,-232.5 453.5,-232.5 "/>
<text text-anchor="middle" x="414.5" y="-217.3" font-family="Sans-Serif" font-size="14.00">time</text>
<polyline fill="none" stroke="paleturquoise" points="375.5,-209.5 453.5,-209.5 "/>
<text text-anchor="middle" x="414.5" y="-194.3" font-family="Sans-Serif" font-size="14.00">→ client&#45;1</text>
</g>
<!-- @ wait &rarr; | time | &rarr; client&#45;1&#45;&gt;client&#45;1 @ wait =&gt; @ wait &#45;&gt; time &#45;&gt; client&#45;1 =&gt; client&#45;1 @ wait -->
<g id="edge19" class="edge">
<title>@ wait &rarr; | time | &rarr; client&#45;1&#45;&gt;client&#45;1 @ wait =&gt; @ wait &#45;&gt; time &#45;&gt; client&#45;1 =&gt; client&#45;1 @ wait</title>
<path fill="none" stroke="mediumblue" stroke-width="3" d="M451.65,-186.23C470.72,-168.89 490.24,-151.15 491.44,-150.05"/>
</g>
<!-- client&#45;1 @ wait =&gt; @ wait &#45;&gt; time &#45;&gt; client&#45;1 =&gt; client&#45;1 @ wait&#45;&gt;client&#45;1 &rarr; | request@0 | &rarr; server -->
<g id="edge22" class="edge">
<title>client&#45;1 @ wait =&gt; @ wait &#45;&gt; time &#45;&gt; client&#45;1 =&gt; client&#45;1 @ wait&#45;&gt;client&#45;1 &rarr; | request@0 | &rarr; server</title>
<path fill="none" stroke="mediumblue" stroke-width="3" d="M491.41,-148.95C489.21,-147.76 448.63,-125.74 413.58,-106.72"/>
<polygon fill="mediumblue" stroke="mediumblue" stroke-width="3" points="414.81,-103.4 404.35,-101.71 411.47,-109.55 414.81,-103.4"/>
</g>
<!-- client&#45;1 @ wait =&gt; @ wait &#45;&gt; time &#45;&gt; client&#45;1 =&gt; client&#45;1 @ wait&#45;&gt;client&#45;1 @ wait -->
<g id="edge21" class="edge">
<title>client&#45;1 @ wait =&gt; @ wait &#45;&gt; time &#45;&gt; client&#45;1 =&gt; client&#45;1 @ wait&#45;&gt;client&#45;1 @ wait</title>
<path fill="none" stroke="darkgreen" stroke-width="3" d="M491.79,-150.02C497.2,-150.86 510.15,-173.88 518.49,-193.29"/>
<polygon fill="darkgreen" stroke="darkgreen" stroke-width="3" points="515.29,-194.72 522.26,-202.7 521.79,-192.11 515.29,-194.72"/>
</g>
<!-- client&#45;1 @ wait =&gt; @ wait &#45;&gt; time &#45;&gt; client&#45;1 =&gt; client&#45;1 @ wait&#45;&gt;client&#45;1 &rarr; | request@1 | &rarr; server -->
<g id="edge18" class="edge">
<title>client&#45;1 @ wait =&gt; @ wait &#45;&gt; time &#45;&gt; client&#45;1 =&gt; client&#45;1 @ wait&#45;&gt;client&#45;1 &rarr; | request@1 | &rarr; server</title>
<path fill="none" stroke="mediumblue" stroke-width="3" d="M491.5,-148.95C491.5,-148.09 491.5,-136.43 491.5,-122.86"/>
<polygon fill="mediumblue" stroke="mediumblue" stroke-width="3" points="495,-122.78 491.5,-112.78 488,-122.78 495,-122.78"/>
</g>
<!-- client&#45;1 @ wait =&gt; client&#45;1 @ idle&#45;&gt;client&#45;1 @ idle -->
<g id="edge25" class="edge">
<title>client&#45;1 @ wait =&gt; client&#45;1 @ idle&#45;&gt;client&#45;1 @ idle</title>
<path fill="none" stroke="darkgreen" stroke-width="3" d="M642.62,-150.03C645.09,-150.64 684.76,-160.84 698.5,-186 713.41,-213.31 716.9,-230.92 698.5,-256 665.32,-301.22 508.67,-336.05 420.03,-352.53"/>
<polygon fill="darkgreen" stroke="darkgreen" stroke-width="3" points="419.3,-349.1 410.1,-354.35 420.56,-355.99 419.3,-349.1"/>
</g>
</g>
</svg>
