<?xml version="1.0" encoding="UTF-8" standalone="no"?>
<!DOCTYPE svg PUBLIC "-//W3C//DTD SVG 1.1//EN"
 "http://www.w3.org/Graphics/SVG/1.1/DTD/svg11.dtd">
<!-- Generated by graphviz version 2.46.0 (0)
 -->
<!-- Title: G Pages: 1 -->
<svg width="497pt" height="516pt"
 viewBox="0.00 0.00 496.63 516.00" xmlns="http://www.w3.org/2000/svg" xmlns:xlink="http://www.w3.org/1999/xlink">
<g id="graph0" class="graph" transform="scale(1 1) rotate(0) translate(4 512)">
<title>G</title>
<polygon fill="white" stroke="transparent" points="-4,4 -4,-512 492.63,-512 492.63,4 -4,4"/>
<text text-anchor="middle" x="244.31" y="-13.4" font-family="Sans-Serif" font-size="32.00">Server Detail (w/ Two Clients)</text>
<!-- server &#8594; | response@0 | &#8594; client&#45;1 | server @ busy =&gt; server @ ready -->
<g id="node1" class="node">
<title>server &#8594; | response@0 | &#8594; client&#45;1 | server @ busy =&gt; server @ ready</title>
<polygon fill="paleturquoise" stroke="paleturquoise" points="3.5,-295.5 3.5,-364.5 97.5,-364.5 97.5,-295.5 3.5,-295.5"/>
<text text-anchor="middle" x="50.5" y="-349.3" font-family="Sans-Serif" font-size="14.00">server →</text>
<polyline fill="none" stroke="paleturquoise" points="3.5,-341.5 97.5,-341.5 "/>
<text text-anchor="middle" x="50.5" y="-326.3" font-family="Sans-Serif" font-size="14.00">response@0</text>
<polyline fill="none" stroke="paleturquoise" points="3.5,-318.5 97.5,-318.5 "/>
<text text-anchor="middle" x="50.5" y="-303.3" font-family="Sans-Serif" font-size="14.00">→ client&#45;1</text>
</g>
<!-- @ busy &#8594; | time | &#8594; server | server @ busy =&gt; server @ ready -->
<g id="node2" class="node">
<title>@ busy &#8594; | time | &#8594; server | server @ busy =&gt; server @ ready</title>
<polygon fill="paleturquoise" stroke="paleturquoise" points="198,-438.5 198,-507.5 279,-507.5 279,-438.5 198,-438.5"/>
<text text-anchor="middle" x="238.5" y="-492.3" font-family="Sans-Serif" font-size="14.00">@ busy →</text>
<polyline fill="none" stroke="paleturquoise" points="198,-484.5 279,-484.5 "/>
<text text-anchor="middle" x="238.5" y="-469.3" font-family="Sans-Serif" font-size="14.00">time</text>
<polyline fill="none" stroke="paleturquoise" points="198,-461.5 279,-461.5 "/>
<text text-anchor="middle" x="238.5" y="-446.3" font-family="Sans-Serif" font-size="14.00">→ server</text>
</g>
<!-- server @ busy =&gt; @ busy &#45;&gt; time &#45;&gt; server =&gt; server @ ready -->
<g id="node3" class="node">
<title>server @ busy =&gt; @ busy &#45;&gt; time &#45;&gt; server =&gt; server @ ready</title>
<polygon fill="none" stroke="#0063cd" stroke-width="4" points="239,-402 238,-402 238,-401 239,-401 239,-402"/>
</g>
<!-- @ busy &#8594; | time | &#8594; server | server @ busy =&gt; server @ ready&#45;&gt;server @ busy =&gt; @ busy &#45;&gt; time &#45;&gt; server =&gt; server @ ready -->
<g id="edge2" class="edge">
<title>@ busy &#8594; | time | &#8594; server | server @ busy =&gt; server @ ready&#45;&gt;server @ busy =&gt; @ busy &#45;&gt; time &#45;&gt; server =&gt; server @ ready</title>
<path fill="none" stroke="mediumblue" stroke-width="3" d="M238.5,-438.23C238.5,-420.89 238.5,-403.15 238.5,-402.05"/>
</g>
<!-- server @ busy =&gt; @ busy &#45;&gt; time &#45;&gt; server =&gt; server @ ready&#45;&gt;server &#8594; | response@0 | &#8594; client&#45;1 | server @ busy =&gt; server @ ready -->
<g id="edge1" class="edge">
<title>server @ busy =&gt; @ busy &#45;&gt; time &#45;&gt; server =&gt; server @ ready&#45;&gt;server &#8594; | response@0 | &#8594; client&#45;1 | server @ busy =&gt; server @ ready</title>
<path fill="none" stroke="mediumblue" stroke-width="3" d="M238.44,-400.99C236.24,-400.64 168.61,-389.78 107.09,-364.83"/>
<polygon fill="mediumblue" stroke="mediumblue" stroke-width="3" points="108.25,-361.52 97.67,-360.88 105.54,-367.98 108.25,-361.52"/>
</g>
<!-- server @ busy =&gt; @ busy &#45;&gt; time &#45;&gt; server =&gt; server @ ready&#45;2 -->
<g id="node4" class="node">
<title>server @ busy =&gt; @ busy &#45;&gt; time &#45;&gt; server =&gt; server @ ready&#45;2</title>
<polygon fill="none" stroke="darkgreen" stroke-width="2" points="117,-330.5 116,-330.5 116,-329.5 117,-329.5 117,-330.5"/>
</g>
<!-- server @ busy =&gt; @ busy &#45;&gt; time &#45;&gt; server =&gt; server @ ready&#45;&gt;server @ busy =&gt; @ busy &#45;&gt; time &#45;&gt; server =&gt; server @ ready&#45;2 -->
<g id="edge4" class="edge">
<title>server @ busy =&gt; @ busy &#45;&gt; time &#45;&gt; server =&gt; server @ ready&#45;&gt;server @ busy =&gt; @ busy &#45;&gt; time &#45;&gt; server =&gt; server @ ready&#45;2</title>
<path fill="none" stroke="darkgreen" stroke-width="3" d="M237.64,-401.01C229.22,-401.03 160.73,-400.09 126.5,-365 115.85,-354.08 116.45,-332.41 116.5,-331.07"/>
</g>
<!-- server &#8594; | response@1 | &#8594; client&#45;1 | server @ busy =&gt; server @ ready -->
<g id="node7" class="node">
<title>server &#8594; | response@1 | &#8594; client&#45;1 | server @ busy =&gt; server @ ready</title>
<polygon fill="paleturquoise" stroke="paleturquoise" points="135.5,-295.5 135.5,-364.5 229.5,-364.5 229.5,-295.5 135.5,-295.5"/>
<text text-anchor="middle" x="182.5" y="-349.3" font-family="Sans-Serif" font-size="14.00">server →</text>
<polyline fill="none" stroke="paleturquoise" points="135.5,-341.5 229.5,-341.5 "/>
<text text-anchor="middle" x="182.5" y="-326.3" font-family="Sans-Serif" font-size="14.00">response@1</text>
<polyline fill="none" stroke="paleturquoise" points="135.5,-318.5 229.5,-318.5 "/>
<text text-anchor="middle" x="182.5" y="-303.3" font-family="Sans-Serif" font-size="14.00">→ client&#45;1</text>
</g>
<!-- server @ busy =&gt; @ busy &#45;&gt; time &#45;&gt; server =&gt; server @ ready&#45;&gt;server &#8594; | response@1 | &#8594; client&#45;1 | server @ busy =&gt; server @ ready -->
<g id="edge6" class="edge">
<title>server @ busy =&gt; @ busy &#45;&gt; time &#45;&gt; server =&gt; server @ ready&#45;&gt;server &#8594; | response@1 | &#8594; client&#45;1 | server @ busy =&gt; server @ ready</title>
<path fill="none" stroke="mediumblue" stroke-width="3" d="M238.46,-400.95C237.74,-400.05 227.51,-387.27 216,-372.87"/>
<polygon fill="mediumblue" stroke="mediumblue" stroke-width="3" points="218.5,-370.4 209.52,-364.78 213.03,-374.77 218.5,-370.4"/>
</g>
<!-- server &#8594; | response@0 | &#8594; client&#45;0 | server @ busy =&gt; server @ ready -->
<g id="node8" class="node">
<title>server &#8594; | response@0 | &#8594; client&#45;0 | server @ busy =&gt; server @ ready</title>
<polygon fill="paleturquoise" stroke="paleturquoise" points="247.5,-295.5 247.5,-364.5 341.5,-364.5 341.5,-295.5 247.5,-295.5"/>
<text text-anchor="middle" x="294.5" y="-349.3" font-family="Sans-Serif" font-size="14.00">server →</text>
<polyline fill="none" stroke="paleturquoise" points="247.5,-341.5 341.5,-341.5 "/>
<text text-anchor="middle" x="294.5" y="-326.3" font-family="Sans-Serif" font-size="14.00">response@0</text>
<polyline fill="none" stroke="paleturquoise" points="247.5,-318.5 341.5,-318.5 "/>
<text text-anchor="middle" x="294.5" y="-303.3" font-family="Sans-Serif" font-size="14.00">→ client&#45;0</text>
</g>
<!-- server @ busy =&gt; @ busy &#45;&gt; time &#45;&gt; server =&gt; server @ ready&#45;&gt;server &#8594; | response@0 | &#8594; client&#45;0 | server @ busy =&gt; server @ ready -->
<g id="edge7" class="edge">
<title>server @ busy =&gt; @ busy &#45;&gt; time &#45;&gt; server =&gt; server @ ready&#45;&gt;server &#8594; | response@0 | &#8594; client&#45;0 | server @ busy =&gt; server @ ready</title>
<path fill="none" stroke="mediumblue" stroke-width="3" d="M238.54,-400.95C239.26,-400.05 249.49,-387.27 261,-372.87"/>
<polygon fill="mediumblue" stroke="mediumblue" stroke-width="3" points="263.97,-374.77 267.48,-364.78 258.5,-370.4 263.97,-374.77"/>
</g>
<!-- server &#8594; | response@1 | &#8594; client&#45;0 | server @ busy =&gt; server @ ready -->
<g id="node9" class="node">
<title>server &#8594; | response@1 | &#8594; client&#45;0 | server @ busy =&gt; server @ ready</title>
<polygon fill="paleturquoise" stroke="paleturquoise" points="359.5,-295.5 359.5,-364.5 453.5,-364.5 453.5,-295.5 359.5,-295.5"/>
<text text-anchor="middle" x="406.5" y="-349.3" font-family="Sans-Serif" font-size="14.00">server →</text>
<polyline fill="none" stroke="paleturquoise" points="359.5,-341.5 453.5,-341.5 "/>
<text text-anchor="middle" x="406.5" y="-326.3" font-family="Sans-Serif" font-size="14.00">response@1</text>
<polyline fill="none" stroke="paleturquoise" points="359.5,-318.5 453.5,-318.5 "/>
<text text-anchor="middle" x="406.5" y="-303.3" font-family="Sans-Serif" font-size="14.00">→ client&#45;0</text>
</g>
<!-- server @ busy =&gt; @ busy &#45;&gt; time &#45;&gt; server =&gt; server @ ready&#45;&gt;server &#8594; | response@1 | &#8594; client&#45;0 | server @ busy =&gt; server @ ready -->
<g id="edge8" class="edge">
<title>server @ busy =&gt; @ busy &#45;&gt; time &#45;&gt; server =&gt; server @ ready&#45;&gt;server &#8594; | response@1 | &#8594; client&#45;0 | server @ busy =&gt; server @ ready</title>
<path fill="none" stroke="mediumblue" stroke-width="3" d="M238.55,-400.99C240.4,-400.58 296.95,-387.89 350.08,-364.83"/>
<polygon fill="mediumblue" stroke="mediumblue" stroke-width="3" points="351.56,-368 359.26,-360.72 348.7,-361.61 351.56,-368"/>
</g>
<!-- server @ ready -->
<g id="node6" class="node">
<title>server @ ready</title>
<polygon fill="palegreen" stroke="palegreen" points="312.5,-242 202.5,-242 202.5,-206 312.5,-206 312.5,-242"/>
<text text-anchor="middle" x="257.5" y="-220.3" font-family="Sans-Serif" font-size="14.00">server @ ready</text>
</g>
<!-- server @ busy =&gt; @ busy &#45;&gt; time &#45;&gt; server =&gt; server @ ready&#45;2&#45;&gt;server @ ready -->
<g id="edge5" class="edge">
<title>server @ busy =&gt; @ busy &#45;&gt; time &#45;&gt; server =&gt; server @ ready&#45;2&#45;&gt;server @ ready</title>
<path fill="none" stroke="darkgreen" stroke-width="3" d="M116.5,-328.94C116.51,-327.65 116.87,-306.84 126.5,-295 128.11,-293.02 177.69,-266.79 215.38,-247.01"/>
<polygon fill="darkgreen" stroke="darkgreen" stroke-width="3" points="217.44,-249.89 224.67,-242.14 214.19,-243.69 217.44,-249.89"/>
</g>
<!-- server @ busy -->
<g id="node5" class="node">
<title>server @ busy</title>
<polygon fill="palegreen" stroke="palegreen" points="464,-79 359,-79 359,-43 464,-43 464,-79"/>
<text text-anchor="middle" x="411.5" y="-57.3" font-family="Sans-Serif" font-size="14.00">server @ busy</text>
</g>
<!-- server @ busy&#45;&gt;server @ busy =&gt; @ busy &#45;&gt; time &#45;&gt; server =&gt; server @ ready -->
<g id="edge3" class="edge">
<title>server @ busy&#45;&gt;server @ busy =&gt; @ busy &#45;&gt; time &#45;&gt; server =&gt; server @ ready</title>
<path fill="none" stroke="darkgreen" stroke-width="3" d="M436.38,-79.28C456.5,-95.48 481.5,-121.71 481.5,-152 481.5,-225 481.5,-225 481.5,-225 481.5,-287.79 506.35,-320.06 462.5,-365 427.84,-400.52 244.36,-400.99 238.64,-401"/>
</g>
<!-- server @ ready =&gt; server @ busy -->
<g id="node11" class="node">
<title>server @ ready =&gt; server @ busy</title>
<polygon fill="none" stroke="#0063cd" stroke-width="4" points="201,-153 200,-153 200,-152 201,-152 201,-153"/>
</g>
<!-- server @ ready&#45;&gt;server @ ready =&gt; server @ busy -->
<g id="edge10" class="edge">
<title>server @ ready&#45;&gt;server @ ready =&gt; server @ busy</title>
<path fill="none" stroke="darkgreen" stroke-width="3" d="M243.41,-205.7C227.06,-185.62 202.12,-154.99 200.58,-153.09"/>
</g>
<!-- client&#45;0 &#8594; | request@0 | &#8594; server | server @ ready =&gt; server @ busy -->
<g id="node10" class="node">
<title>client&#45;0 &#8594; | request@0 | &#8594; server | server @ ready =&gt; server @ busy</title>
<polygon fill="paleturquoise" stroke="paleturquoise" points="0,-189.5 0,-258.5 83,-258.5 83,-189.5 0,-189.5"/>
<text text-anchor="middle" x="41.5" y="-243.3" font-family="Sans-Serif" font-size="14.00">client&#45;0 →</text>
<polyline fill="none" stroke="paleturquoise" points="0,-235.5 83,-235.5 "/>
<text text-anchor="middle" x="41.5" y="-220.3" font-family="Sans-Serif" font-size="14.00">request@0</text>
<polyline fill="none" stroke="paleturquoise" points="0,-212.5 83,-212.5 "/>
<text text-anchor="middle" x="41.5" y="-197.3" font-family="Sans-Serif" font-size="14.00">→ server</text>
</g>
<!-- client&#45;0 &#8594; | request@0 | &#8594; server | server @ ready =&gt; server @ busy&#45;&gt;server @ ready =&gt; server @ busy -->
<g id="edge9" class="edge">
<title>client&#45;0 &#8594; | request@0 | &#8594; server | server @ ready =&gt; server @ busy&#45;&gt;server @ ready =&gt; server @ busy</title>
<path fill="none" stroke="mediumblue" stroke-width="3" d="M83.28,-193.39C86.02,-191.82 88.77,-190.35 91.5,-189 126.16,-171.91 170.86,-160.05 190.49,-155.31"/>
<polygon fill="mediumblue" stroke="mediumblue" stroke-width="3" points="191.5,-158.67 200.45,-153.01 189.92,-151.85 191.5,-158.67"/>
</g>
<!-- server @ ready =&gt; server @ busy&#45;2 -->
<g id="node12" class="node">
<title>server @ ready =&gt; server @ busy&#45;2</title>
<polygon fill="none" stroke="darkgreen" stroke-width="2" points="398,-116 397,-116 397,-115 398,-115 398,-116"/>
</g>
<!-- server @ ready =&gt; server @ busy&#45;&gt;server @ ready =&gt; server @ busy&#45;2 -->
<g id="edge11" class="edge">
<title>server @ ready =&gt; server @ busy&#45;&gt;server @ ready =&gt; server @ busy&#45;2</title>
<path fill="none" stroke="darkgreen" stroke-width="3" d="M200.64,-151.97C206.51,-150.9 391.58,-117.08 397.36,-116.03"/>
</g>
<!-- server @ ready =&gt; server @ busy&#45;2&#45;&gt;server @ busy -->
<g id="edge12" class="edge">
<title>server @ ready =&gt; server @ busy&#45;2&#45;&gt;server @ busy</title>
<path fill="none" stroke="darkgreen" stroke-width="3" d="M397.54,-114.85C397.94,-113.35 401.18,-101.08 404.44,-88.73"/>
<polygon fill="darkgreen" stroke="darkgreen" stroke-width="3" points="407.83,-89.59 407,-79.02 401.06,-87.8 407.83,-89.59"/>
</g>
<!-- client&#45;1 &#8594; | request@0 | &#8594; server | server @ ready =&gt; server @ busy -->
<g id="node13" class="node">
<title>client&#45;1 &#8594; | request@0 | &#8594; server | server @ ready =&gt; server @ busy</title>
<polygon fill="paleturquoise" stroke="paleturquoise" points="101,-189.5 101,-258.5 184,-258.5 184,-189.5 101,-189.5"/>
<text text-anchor="middle" x="142.5" y="-243.3" font-family="Sans-Serif" font-size="14.00">client&#45;1 →</text>
<polyline fill="none" stroke="paleturquoise" points="101,-235.5 184,-235.5 "/>
<text text-anchor="middle" x="142.5" y="-220.3" font-family="Sans-Serif" font-size="14.00">request@0</text>
<polyline fill="none" stroke="paleturquoise" points="101,-212.5 184,-212.5 "/>
<text text-anchor="middle" x="142.5" y="-197.3" font-family="Sans-Serif" font-size="14.00">→ server</text>
</g>
<!-- client&#45;1 &#8594; | request@0 | &#8594; server | server @ ready =&gt; server @ busy&#45;&gt;server @ ready =&gt; server @ busy -->
<g id="edge13" class="edge">
<title>client&#45;1 &#8594; | request@0 | &#8594; server | server @ ready =&gt; server @ busy&#45;&gt;server @ ready =&gt; server @ busy</title>
<path fill="none" stroke="mediumblue" stroke-width="3" d="M170.48,-189.23C179.24,-178.66 188.12,-167.95 193.92,-160.94"/>
<polygon fill="mediumblue" stroke="mediumblue" stroke-width="3" points="196.77,-162.99 200.46,-153.05 191.38,-158.52 196.77,-162.99"/>
</g>
</g>
</svg>
