<?xml version="1.0" encoding="UTF-8" standalone="no"?>
<!DOCTYPE svg PUBLIC "-//W3C//DTD SVG 1.1//EN"
 "http://www.w3.org/Graphics/SVG/1.1/DTD/svg11.dtd">
<!-- Generated by graphviz version 2.46.0 (0)
 -->
<!-- Title: G Pages: 1 -->
<svg width="472pt" height="590pt"
 viewBox="0.00 0.00 472.00 590.00" xmlns="http://www.w3.org/2000/svg" xmlns:xlink="http://www.w3.org/1999/xlink">
<g id="graph0" class="graph" transform="scale(1 1) rotate(0) translate(4 586)">
<title>G</title>
<polygon fill="white" stroke="transparent" points="-4,4 -4,-586 468,-586 468,4 -4,4"/>
<text text-anchor="middle" x="232" y="-13.4" font-family="Sans-Serif" font-size="32.00">Server Detail (w/ Two Clients)</text>
<!-- server &#8594; | response | &#8594; client&#45;1 | server @ busy =&gt; server @ ready -->
<g id="node1" class="node">
<title>server &#8594; | response | &#8594; client&#45;1 | server @ busy =&gt; server @ ready</title>
<polygon fill="paleturquoise" stroke="paleturquoise" points="358,-369.5 358,-438.5 436,-438.5 436,-369.5 358,-369.5"/>
<text text-anchor="middle" x="397" y="-423.3" font-family="Sans-Serif" font-size="14.00">server →</text>
<polyline fill="none" stroke="paleturquoise" points="358,-415.5 436,-415.5 "/>
<text text-anchor="middle" x="397" y="-400.3" font-family="Sans-Serif" font-size="14.00">response</text>
<polyline fill="none" stroke="paleturquoise" points="358,-392.5 436,-392.5 "/>
<text text-anchor="middle" x="397" y="-377.3" font-family="Sans-Serif" font-size="14.00">→ client&#45;1</text>
</g>
<!-- @ busy &#8594; | time | &#8594; server | server @ busy =&gt; server @ ready -->
<g id="node2" class="node">
<title>@ busy &#8594; | time | &#8594; server | server @ busy =&gt; server @ ready</title>
<polygon fill="paleturquoise" stroke="paleturquoise" points="356.5,-512.5 356.5,-581.5 437.5,-581.5 437.5,-512.5 356.5,-512.5"/>
<text text-anchor="middle" x="397" y="-566.3" font-family="Sans-Serif" font-size="14.00">@ busy →</text>
<polyline fill="none" stroke="paleturquoise" points="356.5,-558.5 437.5,-558.5 "/>
<text text-anchor="middle" x="397" y="-543.3" font-family="Sans-Serif" font-size="14.00">time</text>
<polyline fill="none" stroke="paleturquoise" points="356.5,-535.5 437.5,-535.5 "/>
<text text-anchor="middle" x="397" y="-520.3" font-family="Sans-Serif" font-size="14.00">→ server</text>
</g>
<!-- server @ busy =&gt; @ busy &#45;&gt; time &#45;&gt; server =&gt; server @ ready -->
<g id="node3" class="node">
<title>server @ busy =&gt; @ busy &#45;&gt; time &#45;&gt; server =&gt; server @ ready</title>
<polygon fill="none" stroke="#0063cd" stroke-width="4" points="330.5,-476 329.5,-476 329.5,-475 330.5,-475 330.5,-476"/>
</g>
<!-- @ busy &#8594; | time | &#8594; server | server @ busy =&gt; server @ ready&#45;&gt;server @ busy =&gt; @ busy &#45;&gt; time &#45;&gt; server =&gt; server @ ready -->
<g id="edge2" class="edge">
<title>@ busy &#8594; | time | &#8594; server | server @ busy =&gt; server @ ready&#45;&gt;server @ busy =&gt; @ busy &#45;&gt; time &#45;&gt; server =&gt; server @ ready</title>
<path fill="none" stroke="mediumblue" stroke-width="3" d="M364.68,-512.23C348.08,-494.89 331.1,-477.15 330.05,-476.05"/>
</g>
<!-- server @ busy =&gt; server @ ready -->
<g id="node7" class="node">
<title>server @ busy =&gt; server @ ready</title>
<polygon fill="none" stroke="#0063cd" stroke-width="4" points="265.5,-81 264.5,-81 264.5,-80 265.5,-80 265.5,-81"/>
</g>
<!-- @ busy &#8594; | time | &#8594; server | server @ busy =&gt; server @ ready&#45;&gt;server @ busy =&gt; server @ ready -->
<g id="edge6" class="edge">
<title>@ busy &#8594; | time | &#8594; server | server @ busy =&gt; server @ ready&#45;&gt;server @ busy =&gt; server @ ready</title>
<path fill="none" stroke="mediumblue" stroke-width="3" d="M423.29,-512.47C442.06,-485.14 464,-444.7 464,-405 464,-405 464,-405 464,-189 464,-102.13 315.7,-84.76 275.15,-81.63"/>
<polygon fill="mediumblue" stroke="mediumblue" stroke-width="3" points="275.34,-78.14 265.14,-81.01 274.91,-85.12 275.34,-78.14"/>
</g>
<!-- server @ busy =&gt; @ busy &#45;&gt; time &#45;&gt; server =&gt; server @ ready&#45;&gt;server &#8594; | response | &#8594; client&#45;1 | server @ busy =&gt; server @ ready -->
<g id="edge1" class="edge">
<title>server @ busy =&gt; @ busy &#45;&gt; time &#45;&gt; server =&gt; server @ ready&#45;&gt;server &#8594; | response | &#8594; client&#45;1 | server @ busy =&gt; server @ ready</title>
<path fill="none" stroke="mediumblue" stroke-width="3" d="M330.05,-474.95C330.93,-474.03 343.6,-460.79 357.69,-446.07"/>
<polygon fill="mediumblue" stroke="mediumblue" stroke-width="3" points="360.29,-448.42 364.67,-438.78 355.23,-443.58 360.29,-448.42"/>
</g>
<!-- server @ busy =&gt; @ busy &#45;&gt; time &#45;&gt; server =&gt; server @ ready&#45;2 -->
<g id="node4" class="node">
<title>server @ busy =&gt; @ busy &#45;&gt; time &#45;&gt; server =&gt; server @ ready&#45;2</title>
<polygon fill="none" stroke="darkgreen" stroke-width="2" points="130.5,-404.5 129.5,-404.5 129.5,-403.5 130.5,-403.5 130.5,-404.5"/>
</g>
<!-- server @ busy =&gt; @ busy &#45;&gt; time &#45;&gt; server =&gt; server @ ready&#45;&gt;server @ busy =&gt; @ busy &#45;&gt; time &#45;&gt; server =&gt; server @ ready&#45;2 -->
<g id="edge4" class="edge">
<title>server @ busy =&gt; @ busy &#45;&gt; time &#45;&gt; server =&gt; server @ ready&#45;&gt;server @ busy =&gt; @ busy &#45;&gt; time &#45;&gt; server =&gt; server @ ready&#45;2</title>
<path fill="none" stroke="darkgreen" stroke-width="3" d="M329.95,-474.99C327.99,-474.44 264.67,-456.68 215,-439 177.87,-425.78 132.91,-406.27 130.14,-405.06"/>
</g>
<!-- server &#8594; | response | &#8594; client&#45;0 | server @ busy =&gt; server @ ready -->
<g id="node9" class="node">
<title>server &#8594; | response | &#8594; client&#45;0 | server @ busy =&gt; server @ ready</title>
<polygon fill="paleturquoise" stroke="paleturquoise" points="224,-369.5 224,-438.5 302,-438.5 302,-369.5 224,-369.5"/>
<text text-anchor="middle" x="263" y="-423.3" font-family="Sans-Serif" font-size="14.00">server →</text>
<polyline fill="none" stroke="paleturquoise" points="224,-415.5 302,-415.5 "/>
<text text-anchor="middle" x="263" y="-400.3" font-family="Sans-Serif" font-size="14.00">response</text>
<polyline fill="none" stroke="paleturquoise" points="224,-392.5 302,-392.5 "/>
<text text-anchor="middle" x="263" y="-377.3" font-family="Sans-Serif" font-size="14.00">→ client&#45;0</text>
</g>
<!-- server @ busy =&gt; @ busy &#45;&gt; time &#45;&gt; server =&gt; server @ ready&#45;&gt;server &#8594; | response | &#8594; client&#45;0 | server @ busy =&gt; server @ ready -->
<g id="edge10" class="edge">
<title>server @ busy =&gt; @ busy &#45;&gt; time &#45;&gt; server =&gt; server @ ready&#45;&gt;server &#8594; | response | &#8594; client&#45;0 | server @ busy =&gt; server @ ready</title>
<path fill="none" stroke="mediumblue" stroke-width="3" d="M329.95,-474.95C329.07,-474.03 316.4,-460.79 302.31,-446.07"/>
<polygon fill="mediumblue" stroke="mediumblue" stroke-width="3" points="304.77,-443.58 295.33,-438.78 299.71,-448.42 304.77,-443.58"/>
</g>
<!-- server @ ready -->
<g id="node6" class="node">
<title>server @ ready</title>
<polygon fill="palegreen" stroke="palegreen" points="110,-316 0,-316 0,-280 110,-280 110,-316"/>
<text text-anchor="middle" x="55" y="-294.3" font-family="Sans-Serif" font-size="14.00">server @ ready</text>
</g>
<!-- server @ busy =&gt; @ busy &#45;&gt; time &#45;&gt; server =&gt; server @ ready&#45;2&#45;&gt;server @ ready -->
<g id="edge5" class="edge">
<title>server @ busy =&gt; @ busy &#45;&gt; time &#45;&gt; server =&gt; server @ ready&#45;2&#45;&gt;server @ ready</title>
<path fill="none" stroke="darkgreen" stroke-width="3" d="M129.95,-402.92C128.42,-400.81 95.11,-354.61 73.41,-324.53"/>
<polygon fill="darkgreen" stroke="darkgreen" stroke-width="3" points="76.06,-322.22 67.37,-316.15 70.38,-326.31 76.06,-322.22"/>
</g>
<!-- server @ busy -->
<g id="node5" class="node">
<title>server @ busy</title>
<polygon fill="palegreen" stroke="palegreen" points="317.5,-153 212.5,-153 212.5,-117 317.5,-117 317.5,-153"/>
<text text-anchor="middle" x="265" y="-131.3" font-family="Sans-Serif" font-size="14.00">server @ busy</text>
</g>
<!-- server @ busy&#45;&gt;server @ busy =&gt; @ busy &#45;&gt; time &#45;&gt; server =&gt; server @ ready -->
<g id="edge3" class="edge">
<title>server @ busy&#45;&gt;server @ busy =&gt; @ busy &#45;&gt; time &#45;&gt; server =&gt; server @ ready</title>
<path fill="none" stroke="darkgreen" stroke-width="3" d="M287.37,-153.02C306.17,-169.43 330,-196.13 330,-226 330,-299 330,-299 330,-299 330,-376 330,-471.95 330,-474.93"/>
</g>
<!-- server @ busy&#45;&gt;server @ busy =&gt; server @ ready -->
<g id="edge7" class="edge">
<title>server @ busy&#45;&gt;server @ busy =&gt; server @ ready</title>
<path fill="none" stroke="darkgreen" stroke-width="3" d="M265,-116.94C265,-101.93 265,-82.27 265,-81.06"/>
</g>
<!-- server @ ready =&gt; server @ busy -->
<g id="node11" class="node">
<title>server @ ready =&gt; server @ busy</title>
<polygon fill="none" stroke="#0063cd" stroke-width="4" points="215.5,-227 214.5,-227 214.5,-226 215.5,-226 215.5,-227"/>
</g>
<!-- server @ ready&#45;&gt;server @ ready =&gt; server @ busy -->
<g id="edge12" class="edge">
<title>server @ ready&#45;&gt;server @ ready =&gt; server @ busy</title>
<path fill="none" stroke="darkgreen" stroke-width="3" d="M85.2,-279.92C95.75,-274.24 107.76,-268.07 119,-263 159.24,-244.86 211.61,-228.08 214.84,-227.05"/>
</g>
<!-- server @ busy =&gt; server @ ready&#45;2 -->
<g id="node8" class="node">
<title>server @ busy =&gt; server @ ready&#45;2</title>
<polygon fill="none" stroke="darkgreen" stroke-width="2" points="209.5,-44 208.5,-44 208.5,-43 209.5,-43 209.5,-44"/>
</g>
<!-- server @ busy =&gt; server @ ready&#45;&gt;server @ busy =&gt; server @ ready&#45;2 -->
<g id="edge8" class="edge">
<title>server @ busy =&gt; server @ ready&#45;&gt;server @ busy =&gt; server @ ready&#45;2</title>
<path fill="none" stroke="darkgreen" stroke-width="3" d="M264.84,-79.9C261.66,-77.85 212.24,-46.08 209.15,-44.1"/>
</g>
<!-- server @ busy =&gt; server @ ready&#45;2&#45;&gt;server @ ready -->
<g id="edge9" class="edge">
<title>server @ busy =&gt; server @ ready&#45;2&#45;&gt;server @ ready</title>
<path fill="none" stroke="darkgreen" stroke-width="3" d="M208.89,-44.13C206.54,-46.89 169,-91.6 169,-134 169,-190 169,-190 169,-190 169,-212.27 122.16,-249.95 88.53,-274.14"/>
<polygon fill="darkgreen" stroke="darkgreen" stroke-width="3" points="86.43,-271.34 80.3,-279.98 90.48,-277.05 86.43,-271.34"/>
</g>
<!-- client&#45;0 &#8594; | request | &#8594; server | server @ ready =&gt; server @ busy -->
<g id="node10" class="node">
<title>client&#45;0 &#8594; | request | &#8594; server | server @ ready =&gt; server @ busy</title>
<polygon fill="paleturquoise" stroke="paleturquoise" points="128,-263.5 128,-332.5 206,-332.5 206,-263.5 128,-263.5"/>
<text text-anchor="middle" x="167" y="-317.3" font-family="Sans-Serif" font-size="14.00">client&#45;0 →</text>
<polyline fill="none" stroke="paleturquoise" points="128,-309.5 206,-309.5 "/>
<text text-anchor="middle" x="167" y="-294.3" font-family="Sans-Serif" font-size="14.00">request</text>
<polyline fill="none" stroke="paleturquoise" points="128,-286.5 206,-286.5 "/>
<text text-anchor="middle" x="167" y="-271.3" font-family="Sans-Serif" font-size="14.00">→ server</text>
</g>
<!-- client&#45;0 &#8594; | request | &#8594; server | server @ ready =&gt; server @ busy&#45;&gt;server @ ready =&gt; server @ busy -->
<g id="edge11" class="edge">
<title>client&#45;0 &#8594; | request | &#8594; server | server @ ready =&gt; server @ busy&#45;&gt;server @ ready =&gt; server @ busy</title>
<path fill="none" stroke="mediumblue" stroke-width="3" d="M190.16,-263.23C197.22,-252.93 204.37,-242.5 209.18,-235.49"/>
<polygon fill="mediumblue" stroke="mediumblue" stroke-width="3" points="212.19,-237.28 214.96,-227.05 206.42,-233.32 212.19,-237.28"/>
</g>
<!-- server @ ready =&gt; server @ busy&#45;2 -->
<g id="node12" class="node">
<title>server @ ready =&gt; server @ busy&#45;2</title>
<polygon fill="none" stroke="darkgreen" stroke-width="2" points="248.5,-190 247.5,-190 247.5,-189 248.5,-189 248.5,-190"/>
</g>
<!-- server @ ready =&gt; server @ busy&#45;&gt;server @ ready =&gt; server @ busy&#45;2 -->
<g id="edge13" class="edge">
<title>server @ ready =&gt; server @ busy&#45;&gt;server @ ready =&gt; server @ busy&#45;2</title>
<path fill="none" stroke="darkgreen" stroke-width="3" d="M215.09,-225.9C216.97,-223.85 246.09,-192.08 247.91,-190.1"/>
</g>
<!-- server @ ready =&gt; server @ busy&#45;2&#45;&gt;server @ busy -->
<g id="edge14" class="edge">
<title>server @ ready =&gt; server @ busy&#45;2&#45;&gt;server @ busy</title>
<path fill="none" stroke="darkgreen" stroke-width="3" d="M248.05,-188.85C248.53,-187.35 252.47,-175.08 256.43,-162.73"/>
<polygon fill="darkgreen" stroke="darkgreen" stroke-width="3" points="259.82,-163.62 259.54,-153.02 253.15,-161.48 259.82,-163.62"/>
</g>
<!-- client&#45;1 &#8594; | request | &#8594; server | server @ ready =&gt; server @ busy -->
<g id="node13" class="node">
<title>client&#45;1 &#8594; | request | &#8594; server | server @ ready =&gt; server @ busy</title>
<polygon fill="paleturquoise" stroke="paleturquoise" points="224,-263.5 224,-332.5 302,-332.5 302,-263.5 224,-263.5"/>
<text text-anchor="middle" x="263" y="-317.3" font-family="Sans-Serif" font-size="14.00">client&#45;1 →</text>
<polyline fill="none" stroke="paleturquoise" points="224,-309.5 302,-309.5 "/>
<text text-anchor="middle" x="263" y="-294.3" font-family="Sans-Serif" font-size="14.00">request</text>
<polyline fill="none" stroke="paleturquoise" points="224,-286.5 302,-286.5 "/>
<text text-anchor="middle" x="263" y="-271.3" font-family="Sans-Serif" font-size="14.00">→ server</text>
</g>
<!-- client&#45;1 &#8594; | request | &#8594; server | server @ ready =&gt; server @ busy&#45;&gt;server @ ready =&gt; server @ busy -->
<g id="edge15" class="edge">
<title>client&#45;1 &#8594; | request | &#8594; server | server @ ready =&gt; server @ busy&#45;&gt;server @ ready =&gt; server @ busy</title>
<path fill="none" stroke="mediumblue" stroke-width="3" d="M239.84,-263.23C232.78,-252.93 225.63,-242.5 220.82,-235.49"/>
<polygon fill="mediumblue" stroke="mediumblue" stroke-width="3" points="223.58,-233.32 215.04,-227.05 217.81,-237.28 223.58,-233.32"/>
</g>
</g>
</svg>
