<?xml version="1.0" encoding="UTF-8" standalone="no"?>
<!DOCTYPE svg PUBLIC "-//W3C//DTD SVG 1.1//EN"
 "http://www.w3.org/Graphics/SVG/1.1/DTD/svg11.dtd">
<!-- Generated by graphviz version 2.44.1 (0)
 -->
<!-- Title: G Pages: 1 -->
<svg width="782pt" height="1093pt"
 viewBox="0.00 0.00 782.00 1093.00" xmlns="http://www.w3.org/2000/svg" xmlns:xlink="http://www.w3.org/1999/xlink">
<g id="graph0" class="graph" transform="scale(1 1) rotate(0) translate(4 1089)">
<title>G</title>
<polygon fill="white" stroke="transparent" points="-4,4 -4,-1089 778,-1089 778,4 -4,4"/>
<text text-anchor="middle" x="387" y="-13.4" font-family="Sans-Serif" font-size="32.00">Focus on Client&#45;1</text>
<!-- client&#45;1 @ check ; client &#45;&gt; confirm! / client&#45;1 &#45;&gt; client&#45;1 -->
<g id="node1" class="node">
<title>client&#45;1 @ check ; client &#45;&gt; confirm! / client&#45;1 &#45;&gt; client&#45;1</title>
<polygon fill="palegreen" stroke="palegreen" points="615,-1085 379,-1085 379,-1047 615,-1047 615,-1085"/>
<text text-anchor="middle" x="497" y="-1069.8" font-family="Sans-Serif" font-size="14.00">client&#45;1 @ check</text>
<text text-anchor="middle" x="497" y="-1054.8" font-family="Sans-Serif" font-size="14.00">client &#45;&gt; confirm! / client&#45;1 &#45;&gt; client&#45;1</text>
</g>
<!-- client&#45;1 @ idle -->
<g id="node2" class="node">
<title>client&#45;1 @ idle</title>
<polygon fill="palegreen" stroke="palegreen" points="387.5,-961.5 284.5,-961.5 284.5,-925.5 387.5,-925.5 387.5,-961.5"/>
<text text-anchor="middle" x="336" y="-939.8" font-family="Sans-Serif" font-size="14.00">client&#45;1 @ idle</text>
</g>
<!-- client&#45;1 @ check ; client &#45;&gt; confirm! / client&#45;1 &#45;&gt; client&#45;1&#45;&gt;client&#45;1 @ idle -->
<g id="edge1" class="edge">
<title>client&#45;1 @ check ; client &#45;&gt; confirm! / client&#45;1 &#45;&gt; client&#45;1&#45;&gt;client&#45;1 @ idle</title>
<path fill="none" stroke="black" stroke-width="3" d="M408.78,-1046.89C398.04,-1042.22 387.78,-1036.37 379,-1029 361.23,-1014.09 350,-990 343.49,-971.34"/>
<polygon fill="black" stroke="black" stroke-width="3" points="346.75,-970.07 340.34,-961.63 340.09,-972.22 346.75,-970.07"/>
<text text-anchor="middle" x="431" y="-1017.8" font-family="Sans-Serif" font-size="14.00">client →</text>
<text text-anchor="middle" x="431" y="-1002.8" font-family="Sans-Serif" font-size="14.00">confirm! / client&#45;1</text>
<text text-anchor="middle" x="431" y="-987.8" font-family="Sans-Serif" font-size="14.00">→ client&#45;1</text>
</g>
<!-- client&#45;1 @ check ; client&#45;1 &#45;&gt; check / client&#45;1 &#45;&gt; client -->
<g id="node3" class="node">
<title>client&#45;1 @ check ; client&#45;1 &#45;&gt; check / client&#45;1 &#45;&gt; client</title>
<polygon fill="palegreen" stroke="palegreen" points="748,-840 526,-840 526,-802 748,-802 748,-840"/>
<text text-anchor="middle" x="637" y="-824.8" font-family="Sans-Serif" font-size="14.00">client&#45;1 @ check</text>
<text text-anchor="middle" x="637" y="-809.8" font-family="Sans-Serif" font-size="14.00">client&#45;1 &#45;&gt; check / client&#45;1 &#45;&gt; client</text>
</g>
<!-- client&#45;1 @ idle&#45;&gt;client&#45;1 @ check ; client&#45;1 &#45;&gt; check / client&#45;1 &#45;&gt; client -->
<g id="edge5" class="edge">
<title>client&#45;1 @ idle&#45;&gt;client&#45;1 @ check ; client&#45;1 &#45;&gt; check / client&#45;1 &#45;&gt; client</title>
<path fill="none" stroke="black" stroke-width="3" d="M359.76,-925.35C367.93,-918.85 376.82,-911.06 384,-903 399.82,-885.23 393.08,-871.02 413,-858 430.67,-846.46 472.79,-838.27 515.8,-832.65"/>
<polygon fill="black" stroke="black" stroke-width="3" points="516.37,-836.11 525.85,-831.38 515.49,-829.16 516.37,-836.11"/>
<text text-anchor="middle" x="444" y="-891.8" font-family="Sans-Serif" font-size="14.00">@ idle →</text>
<text text-anchor="middle" x="444" y="-876.8" font-family="Sans-Serif" font-size="14.00">time</text>
<text text-anchor="middle" x="444" y="-861.8" font-family="Sans-Serif" font-size="14.00">→ client&#45;1</text>
</g>
<!-- client&#45;1 @ wait / 1 ; client&#45;1 &#45;&gt; request@0 / client&#45;1 &#45;&gt; server -->
<g id="node5" class="node">
<title>client&#45;1 @ wait / 1 ; client&#45;1 &#45;&gt; request@0 / client&#45;1 &#45;&gt; server</title>
<polygon fill="palegreen" stroke="palegreen" points="448,-840 188,-840 188,-802 448,-802 448,-840"/>
<text text-anchor="middle" x="318" y="-824.8" font-family="Sans-Serif" font-size="14.00">client&#45;1 @ wait / 1</text>
<text text-anchor="middle" x="318" y="-809.8" font-family="Sans-Serif" font-size="14.00">client&#45;1 &#45;&gt; request@0 / client&#45;1 &#45;&gt; server</text>
</g>
<!-- client&#45;1 @ idle&#45;&gt;client&#45;1 @ wait / 1 ; client&#45;1 &#45;&gt; request@0 / client&#45;1 &#45;&gt; server -->
<g id="edge6" class="edge">
<title>client&#45;1 @ idle&#45;&gt;client&#45;1 @ wait / 1 ; client&#45;1 &#45;&gt; request@0 / client&#45;1 &#45;&gt; server</title>
<path fill="none" stroke="black" stroke-width="3" d="M328.6,-925.11C326.05,-918.33 323.47,-910.42 322,-903 318.59,-885.72 317.55,-865.98 317.39,-850.31"/>
<polygon fill="black" stroke="black" stroke-width="3" points="320.89,-850.2 317.4,-840.2 313.89,-850.2 320.89,-850.2"/>
<text text-anchor="middle" x="353" y="-891.8" font-family="Sans-Serif" font-size="14.00">@ idle →</text>
<text text-anchor="middle" x="353" y="-876.8" font-family="Sans-Serif" font-size="14.00">time</text>
<text text-anchor="middle" x="353" y="-861.8" font-family="Sans-Serif" font-size="14.00">→ client&#45;1</text>
</g>
<!-- client&#45;1 @ check ; client&#45;1 &#45;&gt; check / client&#45;1 &#45;&gt; client&#45;&gt;client&#45;1 @ check ; client &#45;&gt; confirm! / client&#45;1 &#45;&gt; client&#45;1 -->
<g id="edge3" class="edge">
<title>client&#45;1 @ check ; client&#45;1 &#45;&gt; check / client&#45;1 &#45;&gt; client&#45;&gt;client&#45;1 @ check ; client &#45;&gt; confirm! / client&#45;1 &#45;&gt; client&#45;1</title>
<path fill="none" stroke="black" stroke-width="3" d="M639.61,-840.05C641.31,-856.93 641.93,-882.53 634,-903 611.83,-960.24 560.47,-1011.6 527.32,-1040.49"/>
<polygon fill="black" stroke="black" stroke-width="3" points="525.04,-1037.83 519.72,-1046.99 529.6,-1043.15 525.04,-1037.83"/>
<text text-anchor="middle" x="669.5" y="-954.8" font-family="Sans-Serif" font-size="14.00">client&#45;1 →</text>
<text text-anchor="middle" x="669.5" y="-939.8" font-family="Sans-Serif" font-size="14.00">check / client&#45;1</text>
<text text-anchor="middle" x="669.5" y="-924.8" font-family="Sans-Serif" font-size="14.00">→ client</text>
</g>
<!-- client&#45;1 @ check ; client&#45;1 &#45;&gt; check=&gt;check / client&#45;1 &#45;&gt; client -->
<g id="node4" class="node">
<title>client&#45;1 @ check ; client&#45;1 &#45;&gt; check=&gt;check / client&#45;1 &#45;&gt; client</title>
<polygon fill="palegreen" stroke="palegreen" points="774,-713.5 500,-713.5 500,-675.5 774,-675.5 774,-713.5"/>
<text text-anchor="middle" x="637" y="-698.3" font-family="Sans-Serif" font-size="14.00">client&#45;1 @ check</text>
<text text-anchor="middle" x="637" y="-683.3" font-family="Sans-Serif" font-size="14.00">client&#45;1 &#45;&gt; check=&gt;check / client&#45;1 &#45;&gt; client</text>
</g>
<!-- client&#45;1 @ check ; client&#45;1 &#45;&gt; check / client&#45;1 &#45;&gt; client&#45;&gt;client&#45;1 @ check ; client&#45;1 &#45;&gt; check=&gt;check / client&#45;1 &#45;&gt; client -->
<g id="edge2" class="edge">
<title>client&#45;1 @ check ; client&#45;1 &#45;&gt; check / client&#45;1 &#45;&gt; client&#45;&gt;client&#45;1 @ check ; client&#45;1 &#45;&gt; check=&gt;check / client&#45;1 &#45;&gt; client</title>
<path fill="none" stroke="black" stroke-width="3" d="M637,-801.9C637,-781.43 637,-747.84 637,-723.88"/>
<polygon fill="black" stroke="black" stroke-width="3" points="640.5,-723.63 637,-713.63 633.5,-723.63 640.5,-723.63"/>
<text text-anchor="middle" x="673" y="-772.8" font-family="Sans-Serif" font-size="14.00">@ check →</text>
<text text-anchor="middle" x="673" y="-757.8" font-family="Sans-Serif" font-size="14.00">time</text>
<text text-anchor="middle" x="673" y="-742.8" font-family="Sans-Serif" font-size="14.00">→ client&#45;1</text>
</g>
<!-- client&#45;1 @ check ; client&#45;1 &#45;&gt; check=&gt;check / client&#45;1 &#45;&gt; client&#45;&gt;client&#45;1 @ check ; client &#45;&gt; confirm! / client&#45;1 &#45;&gt; client&#45;1 -->
<g id="edge4" class="edge">
<title>client&#45;1 @ check ; client&#45;1 &#45;&gt; check=&gt;check / client&#45;1 &#45;&gt; client&#45;&gt;client&#45;1 @ check ; client &#45;&gt; confirm! / client&#45;1 &#45;&gt; client&#45;1</title>
<path fill="none" stroke="black" stroke-width="3" d="M610.41,-713.51C583.73,-732.74 542.96,-765.43 517,-802 501.43,-823.94 499.21,-831.6 494,-858 481.6,-920.82 487.91,-996.46 492.9,-1036.65"/>
<polygon fill="black" stroke="black" stroke-width="3" points="489.45,-1037.31 494.22,-1046.77 496.4,-1036.41 489.45,-1037.31"/>
<text text-anchor="middle" x="562" y="-891.8" font-family="Sans-Serif" font-size="14.00">client&#45;1 →</text>
<text text-anchor="middle" x="562" y="-876.8" font-family="Sans-Serif" font-size="14.00">check⇒check / client&#45;1</text>
<text text-anchor="middle" x="562" y="-861.8" font-family="Sans-Serif" font-size="14.00">→ client</text>
</g>
<!-- client&#45;1 @ wait / 2 ; client&#45;1 &#45;&gt; request@0 / client&#45;1 &#45;&gt; server , client&#45;1 &#45;&gt; request@1 / client&#45;1 &#45;&gt; server -->
<g id="node6" class="node">
<title>client&#45;1 @ wait / 2 ; client&#45;1 &#45;&gt; request@0 / client&#45;1 &#45;&gt; server , client&#45;1 &#45;&gt; request@1 / client&#45;1 &#45;&gt; server</title>
<polygon fill="palegreen" stroke="palegreen" points="444,-721 184,-721 184,-668 444,-668 444,-721"/>
<text text-anchor="middle" x="314" y="-705.8" font-family="Sans-Serif" font-size="14.00">client&#45;1 @ wait / 2</text>
<text text-anchor="middle" x="314" y="-690.8" font-family="Sans-Serif" font-size="14.00">client&#45;1 &#45;&gt; request@0 / client&#45;1 &#45;&gt; server</text>
<text text-anchor="middle" x="314" y="-675.8" font-family="Sans-Serif" font-size="14.00">client&#45;1 &#45;&gt; request@1 / client&#45;1 &#45;&gt; server</text>
</g>
<!-- client&#45;1 @ wait / 1 ; client&#45;1 &#45;&gt; request@0 / client&#45;1 &#45;&gt; server&#45;&gt;client&#45;1 @ wait / 2 ; client&#45;1 &#45;&gt; request@0 / client&#45;1 &#45;&gt; server , client&#45;1 &#45;&gt; request@1 / client&#45;1 &#45;&gt; server -->
<g id="edge7" class="edge">
<title>client&#45;1 @ wait / 1 ; client&#45;1 &#45;&gt; request@0 / client&#45;1 &#45;&gt; server&#45;&gt;client&#45;1 @ wait / 2 ; client&#45;1 &#45;&gt; request@0 / client&#45;1 &#45;&gt; server , client&#45;1 &#45;&gt; request@1 / client&#45;1 &#45;&gt; server</title>
<path fill="none" stroke="black" stroke-width="3" d="M317.42,-801.9C316.83,-783.53 315.9,-754.61 315.16,-731.55"/>
<polygon fill="black" stroke="black" stroke-width="3" points="318.65,-731.31 314.83,-721.43 311.66,-731.53 318.65,-731.31"/>
<text text-anchor="middle" x="347" y="-772.8" font-family="Sans-Serif" font-size="14.00">@ wait →</text>
<text text-anchor="middle" x="347" y="-757.8" font-family="Sans-Serif" font-size="14.00">time</text>
<text text-anchor="middle" x="347" y="-742.8" font-family="Sans-Serif" font-size="14.00">→ client&#45;1</text>
</g>
<!-- client&#45;1 @ wait / 1 -->
<g id="node7" class="node">
<title>client&#45;1 @ wait / 1</title>
<polygon fill="palegreen" stroke="palegreen" points="323.5,-206.5 198.5,-206.5 198.5,-170.5 323.5,-170.5 323.5,-206.5"/>
<text text-anchor="middle" x="261" y="-184.8" font-family="Sans-Serif" font-size="14.00">client&#45;1 @ wait / 1</text>
</g>
<!-- client&#45;1 @ wait / 1 ; client&#45;1 &#45;&gt; request@0 / client&#45;1 &#45;&gt; server&#45;&gt;client&#45;1 @ wait / 1 -->
<g id="edge8" class="edge">
<title>client&#45;1 @ wait / 1 ; client&#45;1 &#45;&gt; request@0 / client&#45;1 &#45;&gt; server&#45;&gt;client&#45;1 @ wait / 1</title>
<path fill="none" stroke="black" stroke-width="3" d="M259.97,-801.93C213.49,-783.42 156,-749.59 156,-695.5 156,-695.5 156,-695.5 156,-314 156,-270.58 193.78,-234.45 224.02,-212.49"/>
<polygon fill="black" stroke="black" stroke-width="3" points="226.13,-215.29 232.31,-206.68 222.11,-209.56 226.13,-215.29"/>
<text text-anchor="middle" x="217" y="-519.8" font-family="Sans-Serif" font-size="14.00">client&#45;1 →</text>
<text text-anchor="middle" x="217" y="-504.8" font-family="Sans-Serif" font-size="14.00">request@0 / client&#45;1</text>
<text text-anchor="middle" x="217" y="-489.8" font-family="Sans-Serif" font-size="14.00">→ server</text>
</g>
<!-- client&#45;1 @ wait / 2 ; client&#45;1 &#45;&gt; request@0 / client&#45;1 &#45;&gt; server -->
<g id="node10" class="node">
<title>client&#45;1 @ wait / 2 ; client&#45;1 &#45;&gt; request@0 / client&#45;1 &#45;&gt; server</title>
<polygon fill="palegreen" stroke="palegreen" points="444,-587 184,-587 184,-549 444,-549 444,-587"/>
<text text-anchor="middle" x="314" y="-571.8" font-family="Sans-Serif" font-size="14.00">client&#45;1 @ wait / 2</text>
<text text-anchor="middle" x="314" y="-556.8" font-family="Sans-Serif" font-size="14.00">client&#45;1 &#45;&gt; request@0 / client&#45;1 &#45;&gt; server</text>
</g>
<!-- client&#45;1 @ wait / 2 ; client&#45;1 &#45;&gt; request@0 / client&#45;1 &#45;&gt; server , client&#45;1 &#45;&gt; request@1 / client&#45;1 &#45;&gt; server&#45;&gt;client&#45;1 @ wait / 2 ; client&#45;1 &#45;&gt; request@0 / client&#45;1 &#45;&gt; server -->
<g id="edge13" class="edge">
<title>client&#45;1 @ wait / 2 ; client&#45;1 &#45;&gt; request@0 / client&#45;1 &#45;&gt; server , client&#45;1 &#45;&gt; request@1 / client&#45;1 &#45;&gt; server&#45;&gt;client&#45;1 @ wait / 2 ; client&#45;1 &#45;&gt; request@0 / client&#45;1 &#45;&gt; server</title>
<path fill="none" stroke="black" stroke-width="3" d="M314,-667.7C314,-647.11 314,-618.3 314,-597.12"/>
<polygon fill="black" stroke="black" stroke-width="3" points="317.5,-597.11 314,-587.11 310.5,-597.11 317.5,-597.11"/>
<text text-anchor="middle" x="375" y="-638.8" font-family="Sans-Serif" font-size="14.00">client&#45;1 →</text>
<text text-anchor="middle" x="375" y="-623.8" font-family="Sans-Serif" font-size="14.00">request@0 / client&#45;1</text>
<text text-anchor="middle" x="375" y="-608.8" font-family="Sans-Serif" font-size="14.00">→ server</text>
</g>
<!-- client&#45;1 @ wait / 1 ; server &#45;&gt; response@0 / client&#45;1 &#45;&gt; client&#45;1 -->
<g id="node8" class="node">
<title>client&#45;1 @ wait / 1 ; server &#45;&gt; response@0 / client&#45;1 &#45;&gt; client&#45;1</title>
<polygon fill="palegreen" stroke="palegreen" points="531.5,-81 260.5,-81 260.5,-43 531.5,-43 531.5,-81"/>
<text text-anchor="middle" x="396" y="-65.8" font-family="Sans-Serif" font-size="14.00">client&#45;1 @ wait / 1</text>
<text text-anchor="middle" x="396" y="-50.8" font-family="Sans-Serif" font-size="14.00">server &#45;&gt; response@0 / client&#45;1 &#45;&gt; client&#45;1</text>
</g>
<!-- client&#45;1 @ wait / 1&#45;&gt;client&#45;1 @ wait / 1 ; server &#45;&gt; response@0 / client&#45;1 &#45;&gt; client&#45;1 -->
<g id="edge11" class="edge">
<title>client&#45;1 @ wait / 1&#45;&gt;client&#45;1 @ wait / 1 ; server &#45;&gt; response@0 / client&#45;1 &#45;&gt; client&#45;1</title>
<path fill="none" stroke="black" stroke-width="3" d="M277.16,-170.25C294.57,-151.96 323.38,-122.51 350,-99 354.38,-95.13 359.12,-91.18 363.84,-87.38"/>
<polygon fill="black" stroke="black" stroke-width="3" points="366.02,-90.11 371.69,-81.16 361.68,-84.63 366.02,-90.11"/>
<text text-anchor="middle" x="382.5" y="-132.8" font-family="Sans-Serif" font-size="14.00">@ busy →</text>
<text text-anchor="middle" x="382.5" y="-117.8" font-family="Sans-Serif" font-size="14.00">time</text>
<text text-anchor="middle" x="382.5" y="-102.8" font-family="Sans-Serif" font-size="14.00">→ server</text>
</g>
<!-- client&#45;1 @ wait / 1&#45;&gt;client&#45;1 @ wait / 2 ; client&#45;1 &#45;&gt; request@0 / client&#45;1 &#45;&gt; server -->
<g id="edge12" class="edge">
<title>client&#45;1 @ wait / 1&#45;&gt;client&#45;1 @ wait / 2 ; client&#45;1 &#45;&gt; request@0 / client&#45;1 &#45;&gt; server</title>
<path fill="none" stroke="black" stroke-width="3" d="M263.41,-206.65C271.78,-266.25 299.64,-464.72 310.04,-538.8"/>
<polygon fill="black" stroke="black" stroke-width="3" points="306.59,-539.38 311.44,-548.79 313.52,-538.4 306.59,-539.38"/>
<text text-anchor="middle" x="320" y="-385.8" font-family="Sans-Serif" font-size="14.00">@ wait →</text>
<text text-anchor="middle" x="320" y="-370.8" font-family="Sans-Serif" font-size="14.00">time</text>
<text text-anchor="middle" x="320" y="-355.8" font-family="Sans-Serif" font-size="14.00">→ client&#45;1</text>
</g>
<!-- client&#45;1 @ wait / 1 ; server &#45;&gt; response@0 / client&#45;1 &#45;&gt; client&#45;1&#45;&gt;client&#45;1 @ idle -->
<g id="edge10" class="edge">
<title>client&#45;1 @ wait / 1 ; server &#45;&gt; response@0 / client&#45;1 &#45;&gt; client&#45;1&#45;&gt;client&#45;1 @ idle</title>
<path fill="none" stroke="black" stroke-width="3" d="M260.27,-79.68C145.64,-97.68 0,-131.56 0,-187.5 0,-822 0,-822 0,-822 0,-879.61 177.22,-917.1 274.25,-933.31"/>
<polygon fill="black" stroke="black" stroke-width="3" points="273.8,-936.78 284.24,-934.95 274.94,-929.87 273.8,-936.78"/>
<text text-anchor="middle" x="66.5" y="-519.8" font-family="Sans-Serif" font-size="14.00">server →</text>
<text text-anchor="middle" x="66.5" y="-504.8" font-family="Sans-Serif" font-size="14.00">response@0 / client&#45;1</text>
<text text-anchor="middle" x="66.5" y="-489.8" font-family="Sans-Serif" font-size="14.00">→ client&#45;1</text>
</g>
<!-- client&#45;1 @ wait / 2 ; client&#45;1 &#45;&gt; request@0 / client&#45;1 &#45;&gt; server , server &#45;&gt; response@0 / client&#45;1 &#45;&gt; client&#45;1 -->
<g id="node9" class="node">
<title>client&#45;1 @ wait / 2 ; client&#45;1 &#45;&gt; request@0 / client&#45;1 &#45;&gt; server , server &#45;&gt; response@0 / client&#45;1 &#45;&gt; client&#45;1</title>
<polygon fill="palegreen" stroke="palegreen" points="607.5,-468 336.5,-468 336.5,-415 607.5,-415 607.5,-468"/>
<text text-anchor="middle" x="472" y="-452.8" font-family="Sans-Serif" font-size="14.00">client&#45;1 @ wait / 2</text>
<text text-anchor="middle" x="472" y="-437.8" font-family="Sans-Serif" font-size="14.00">client&#45;1 &#45;&gt; request@0 / client&#45;1 &#45;&gt; server</text>
<text text-anchor="middle" x="472" y="-422.8" font-family="Sans-Serif" font-size="14.00">server &#45;&gt; response@0 / client&#45;1 &#45;&gt; client&#45;1</text>
</g>
<!-- client&#45;1 @ wait / 1 ; server &#45;&gt; response@0 / client&#45;1 &#45;&gt; client&#45;1&#45;&gt;client&#45;1 @ wait / 2 ; client&#45;1 &#45;&gt; request@0 / client&#45;1 &#45;&gt; server , server &#45;&gt; response@0 / client&#45;1 &#45;&gt; client&#45;1 -->
<g id="edge9" class="edge">
<title>client&#45;1 @ wait / 1 ; server &#45;&gt; response@0 / client&#45;1 &#45;&gt; client&#45;1&#45;&gt;client&#45;1 @ wait / 2 ; client&#45;1 &#45;&gt; request@0 / client&#45;1 &#45;&gt; server , server &#45;&gt; response@0 / client&#45;1 &#45;&gt; client&#45;1</title>
<path fill="none" stroke="black" stroke-width="3" d="M531.91,-81.02C555.12,-85.95 574.97,-91.93 585,-99 611.54,-117.71 613.48,-130.67 622,-162 649.55,-263.31 670.76,-321.31 598,-397 593.53,-401.65 588.53,-405.81 583.19,-409.52"/>
<polygon fill="black" stroke="black" stroke-width="3" points="581.1,-406.7 574.51,-414.99 584.84,-412.62 581.1,-406.7"/>
<text text-anchor="middle" x="678" y="-266.8" font-family="Sans-Serif" font-size="14.00">@ wait →</text>
<text text-anchor="middle" x="678" y="-251.8" font-family="Sans-Serif" font-size="14.00">time</text>
<text text-anchor="middle" x="678" y="-236.8" font-family="Sans-Serif" font-size="14.00">→ client&#45;1</text>
</g>
<!-- client&#45;1 @ wait / 2 ; client&#45;1 &#45;&gt; request@0 / client&#45;1 &#45;&gt; server , server &#45;&gt; response@0 / client&#45;1 &#45;&gt; client&#45;1&#45;&gt;client&#45;1 @ wait / 1 ; client&#45;1 &#45;&gt; request@0 / client&#45;1 &#45;&gt; server -->
<g id="edge15" class="edge">
<title>client&#45;1 @ wait / 2 ; client&#45;1 &#45;&gt; request@0 / client&#45;1 &#45;&gt; server , server &#45;&gt; response@0 / client&#45;1 &#45;&gt; client&#45;1&#45;&gt;client&#45;1 @ wait / 1 ; client&#45;1 &#45;&gt; request@0 / client&#45;1 &#45;&gt; server</title>
<path fill="none" stroke="black" stroke-width="3" d="M476.43,-468.35C483.93,-519.59 494.56,-636.39 453,-721 436.05,-755.52 400.55,-780.8 370.22,-797.17"/>
<polygon fill="black" stroke="black" stroke-width="3" points="368.25,-794.25 360.99,-801.97 371.48,-800.46 368.25,-794.25"/>
<text text-anchor="middle" x="547.5" y="-638.8" font-family="Sans-Serif" font-size="14.00">server →</text>
<text text-anchor="middle" x="547.5" y="-623.8" font-family="Sans-Serif" font-size="14.00">response@0 / client&#45;1</text>
<text text-anchor="middle" x="547.5" y="-608.8" font-family="Sans-Serif" font-size="14.00">→ client&#45;1</text>
</g>
<!-- client&#45;1 @ wait / 2 ; server &#45;&gt; response@0 / client&#45;1 &#45;&gt; client&#45;1 -->
<g id="node11" class="node">
<title>client&#45;1 @ wait / 2 ; server &#45;&gt; response@0 / client&#45;1 &#45;&gt; client&#45;1</title>
<polygon fill="palegreen" stroke="palegreen" points="607.5,-334 336.5,-334 336.5,-296 607.5,-296 607.5,-334"/>
<text text-anchor="middle" x="472" y="-318.8" font-family="Sans-Serif" font-size="14.00">client&#45;1 @ wait / 2</text>
<text text-anchor="middle" x="472" y="-303.8" font-family="Sans-Serif" font-size="14.00">server &#45;&gt; response@0 / client&#45;1 &#45;&gt; client&#45;1</text>
</g>
<!-- client&#45;1 @ wait / 2 ; client&#45;1 &#45;&gt; request@0 / client&#45;1 &#45;&gt; server , server &#45;&gt; response@0 / client&#45;1 &#45;&gt; client&#45;1&#45;&gt;client&#45;1 @ wait / 2 ; server &#45;&gt; response@0 / client&#45;1 &#45;&gt; client&#45;1 -->
<g id="edge14" class="edge">
<title>client&#45;1 @ wait / 2 ; client&#45;1 &#45;&gt; request@0 / client&#45;1 &#45;&gt; server , server &#45;&gt; response@0 / client&#45;1 &#45;&gt; client&#45;1&#45;&gt;client&#45;1 @ wait / 2 ; server &#45;&gt; response@0 / client&#45;1 &#45;&gt; client&#45;1</title>
<path fill="none" stroke="black" stroke-width="3" d="M472,-414.7C472,-394.11 472,-365.3 472,-344.12"/>
<polygon fill="black" stroke="black" stroke-width="3" points="475.5,-344.11 472,-334.11 468.5,-344.11 475.5,-344.11"/>
<text text-anchor="middle" x="533" y="-385.8" font-family="Sans-Serif" font-size="14.00">client&#45;1 →</text>
<text text-anchor="middle" x="533" y="-370.8" font-family="Sans-Serif" font-size="14.00">request@0 / client&#45;1</text>
<text text-anchor="middle" x="533" y="-355.8" font-family="Sans-Serif" font-size="14.00">→ server</text>
</g>
<!-- client&#45;1 @ wait / 2 ; client&#45;1 &#45;&gt; request@0 / client&#45;1 &#45;&gt; server&#45;&gt;client&#45;1 @ wait / 2 ; client&#45;1 &#45;&gt; request@0 / client&#45;1 &#45;&gt; server , server &#45;&gt; response@0 / client&#45;1 &#45;&gt; client&#45;1 -->
<g id="edge16" class="edge">
<title>client&#45;1 @ wait / 2 ; client&#45;1 &#45;&gt; request@0 / client&#45;1 &#45;&gt; server&#45;&gt;client&#45;1 @ wait / 2 ; client&#45;1 &#45;&gt; request@0 / client&#45;1 &#45;&gt; server , server &#45;&gt; response@0 / client&#45;1 &#45;&gt; client&#45;1</title>
<path fill="none" stroke="black" stroke-width="3" d="M329.01,-548.74C344,-531.25 368.3,-504.8 393,-486 398.74,-481.63 404.97,-477.43 411.33,-473.47"/>
<polygon fill="black" stroke="black" stroke-width="3" points="413.28,-476.38 420.05,-468.23 409.68,-470.38 413.28,-476.38"/>
<text text-anchor="middle" x="425.5" y="-519.8" font-family="Sans-Serif" font-size="14.00">@ busy →</text>
<text text-anchor="middle" x="425.5" y="-504.8" font-family="Sans-Serif" font-size="14.00">time</text>
<text text-anchor="middle" x="425.5" y="-489.8" font-family="Sans-Serif" font-size="14.00">→ server</text>
</g>
<!-- client&#45;1 @ wait / 2 ; server &#45;&gt; response@0 / client&#45;1 &#45;&gt; client&#45;1&#45;&gt;client&#45;1 @ wait / 1 -->
<g id="edge19" class="edge">
<title>client&#45;1 @ wait / 2 ; server &#45;&gt; response@0 / client&#45;1 &#45;&gt; client&#45;1&#45;&gt;client&#45;1 @ wait / 1</title>
<path fill="none" stroke="black" stroke-width="3" d="M371.15,-295.89C358.71,-291.23 346.64,-285.37 336,-278 315.82,-264.03 319.79,-251.79 304,-233 298.62,-226.6 292.48,-220.02 286.56,-213.98"/>
<polygon fill="black" stroke="black" stroke-width="3" points="288.79,-211.26 279.25,-206.66 283.84,-216.21 288.79,-211.26"/>
<text text-anchor="middle" x="402.5" y="-266.8" font-family="Sans-Serif" font-size="14.00">server →</text>
<text text-anchor="middle" x="402.5" y="-251.8" font-family="Sans-Serif" font-size="14.00">response@0 / client&#45;1</text>
<text text-anchor="middle" x="402.5" y="-236.8" font-family="Sans-Serif" font-size="14.00">→ client&#45;1</text>
</g>
<!-- client&#45;1 @ wait / 2 ; server &#45;&gt; response@0 / client&#45;1 &#45;&gt; client&#45;1 , server &#45;&gt; response@1 / client&#45;1 &#45;&gt; client&#45;1 -->
<g id="node12" class="node">
<title>client&#45;1 @ wait / 2 ; server &#45;&gt; response@0 / client&#45;1 &#45;&gt; client&#45;1 , server &#45;&gt; response@1 / client&#45;1 &#45;&gt; client&#45;1</title>
<polygon fill="palegreen" stroke="palegreen" points="612.5,-215 341.5,-215 341.5,-162 612.5,-162 612.5,-215"/>
<text text-anchor="middle" x="477" y="-199.8" font-family="Sans-Serif" font-size="14.00">client&#45;1 @ wait / 2</text>
<text text-anchor="middle" x="477" y="-184.8" font-family="Sans-Serif" font-size="14.00">server &#45;&gt; response@0 / client&#45;1 &#45;&gt; client&#45;1</text>
<text text-anchor="middle" x="477" y="-169.8" font-family="Sans-Serif" font-size="14.00">server &#45;&gt; response@1 / client&#45;1 &#45;&gt; client&#45;1</text>
</g>
<!-- client&#45;1 @ wait / 2 ; server &#45;&gt; response@0 / client&#45;1 &#45;&gt; client&#45;1&#45;&gt;client&#45;1 @ wait / 2 ; server &#45;&gt; response@0 / client&#45;1 &#45;&gt; client&#45;1 , server &#45;&gt; response@1 / client&#45;1 &#45;&gt; client&#45;1 -->
<g id="edge18" class="edge">
<title>client&#45;1 @ wait / 2 ; server &#45;&gt; response@0 / client&#45;1 &#45;&gt; client&#45;1&#45;&gt;client&#45;1 @ wait / 2 ; server &#45;&gt; response@0 / client&#45;1 &#45;&gt; client&#45;1 , server &#45;&gt; response@1 / client&#45;1 &#45;&gt; client&#45;1</title>
<path fill="none" stroke="black" stroke-width="3" d="M472.73,-295.9C473.46,-277.53 474.63,-248.61 475.55,-225.55"/>
<polygon fill="black" stroke="black" stroke-width="3" points="479.05,-225.56 475.96,-215.43 472.06,-225.28 479.05,-225.56"/>
<text text-anchor="middle" x="507.5" y="-266.8" font-family="Sans-Serif" font-size="14.00">@ busy →</text>
<text text-anchor="middle" x="507.5" y="-251.8" font-family="Sans-Serif" font-size="14.00">time</text>
<text text-anchor="middle" x="507.5" y="-236.8" font-family="Sans-Serif" font-size="14.00">→ server</text>
</g>
<!-- client&#45;1 @ wait / 2 ; server &#45;&gt; response@0 / client&#45;1 &#45;&gt; client&#45;1 , server &#45;&gt; response@1 / client&#45;1 &#45;&gt; client&#45;1&#45;&gt;client&#45;1 @ wait / 1 ; server &#45;&gt; response@0 / client&#45;1 &#45;&gt; client&#45;1 -->
<g id="edge17" class="edge">
<title>client&#45;1 @ wait / 2 ; server &#45;&gt; response@0 / client&#45;1 &#45;&gt; client&#45;1 , server &#45;&gt; response@1 / client&#45;1 &#45;&gt; client&#45;1&#45;&gt;client&#45;1 @ wait / 1 ; server &#45;&gt; response@0 / client&#45;1 &#45;&gt; client&#45;1</title>
<path fill="none" stroke="black" stroke-width="3" d="M460.22,-161.7C446.51,-140.64 427.21,-110.98 413.36,-89.68"/>
<polygon fill="black" stroke="black" stroke-width="3" points="416.17,-87.58 407.78,-81.11 410.3,-91.4 416.17,-87.58"/>
<text text-anchor="middle" x="514.5" y="-132.8" font-family="Sans-Serif" font-size="14.00">server →</text>
<text text-anchor="middle" x="514.5" y="-117.8" font-family="Sans-Serif" font-size="14.00">response@0 / client&#45;1</text>
<text text-anchor="middle" x="514.5" y="-102.8" font-family="Sans-Serif" font-size="14.00">→ client&#45;1</text>
</g>
</g>
</svg>
