<?xml version="1.0" encoding="UTF-8" standalone="no"?>
<!DOCTYPE svg PUBLIC "-//W3C//DTD SVG 1.1//EN"
 "http://www.w3.org/Graphics/SVG/1.1/DTD/svg11.dtd">
<!-- Generated by graphviz version 2.44.1 (0)
 -->
<!-- Title: G Pages: 1 -->
<svg width="768pt" height="965pt"
 viewBox="0.00 0.00 768.00 965.00" xmlns="http://www.w3.org/2000/svg" xmlns:xlink="http://www.w3.org/1999/xlink">
<g id="graph0" class="graph" transform="scale(1 1) rotate(0) translate(4 961)">
<title>G</title>
<polygon fill="white" stroke="transparent" points="-4,4 -4,-961 764,-961 764,4 -4,4"/>
<text text-anchor="middle" x="380" y="-13.4" font-family="Sans-Serif" font-size="32.00">Focus on Server (w/ One Client)</text>
<!-- server @ busy / client&#45;0 ; client&#45;0 &#45;&gt; request@0 / client&#45;0 &#45;&gt; server -->
<g id="node1" class="node">
<title>server @ busy / client&#45;0 ; client&#45;0 &#45;&gt; request@0 / client&#45;0 &#45;&gt; server</title>
<polygon fill="palegreen" stroke="palegreen" points="535,-957 275,-957 275,-919 535,-919 535,-957"/>
<text text-anchor="middle" x="405" y="-941.8" font-family="Sans-Serif" font-size="14.00">server @ busy / client&#45;0</text>
<text text-anchor="middle" x="405" y="-926.8" font-family="Sans-Serif" font-size="14.00">client&#45;0 &#45;&gt; request@0 / client&#45;0 &#45;&gt; server</text>
</g>
<!-- server @ ready ; client&#45;0 &#45;&gt; request@0 / client&#45;0 &#45;&gt; server , server &#45;&gt; response@0 / client&#45;0 &#45;&gt; client&#45;0 -->
<g id="node2" class="node">
<title>server @ ready ; client&#45;0 &#45;&gt; request@0 / client&#45;0 &#45;&gt; server , server &#45;&gt; response@0 / client&#45;0 &#45;&gt; client&#45;0</title>
<polygon fill="palegreen" stroke="palegreen" points="540.5,-838 269.5,-838 269.5,-785 540.5,-785 540.5,-838"/>
<text text-anchor="middle" x="405" y="-822.8" font-family="Sans-Serif" font-size="14.00">server @ ready</text>
<text text-anchor="middle" x="405" y="-807.8" font-family="Sans-Serif" font-size="14.00">client&#45;0 &#45;&gt; request@0 / client&#45;0 &#45;&gt; server</text>
<text text-anchor="middle" x="405" y="-792.8" font-family="Sans-Serif" font-size="14.00">server &#45;&gt; response@0 / client&#45;0 &#45;&gt; client&#45;0</text>
</g>
<!-- server @ busy / client&#45;0 ; client&#45;0 &#45;&gt; request@0 / client&#45;0 &#45;&gt; server&#45;&gt;server @ ready ; client&#45;0 &#45;&gt; request@0 / client&#45;0 &#45;&gt; server , server &#45;&gt; response@0 / client&#45;0 &#45;&gt; client&#45;0 -->
<g id="edge1" class="edge">
<title>server @ busy / client&#45;0 ; client&#45;0 &#45;&gt; request@0 / client&#45;0 &#45;&gt; server&#45;&gt;server @ ready ; client&#45;0 &#45;&gt; request@0 / client&#45;0 &#45;&gt; server , server &#45;&gt; response@0 / client&#45;0 &#45;&gt; client&#45;0</title>
<path fill="none" stroke="black" stroke-width="3" d="M405,-918.9C405,-900.53 405,-871.61 405,-848.55"/>
<polygon fill="black" stroke="black" stroke-width="3" points="408.5,-848.43 405,-838.43 401.5,-848.43 408.5,-848.43"/>
<text text-anchor="middle" x="437.5" y="-889.8" font-family="Sans-Serif" font-size="14.00">@ busy →</text>
<text text-anchor="middle" x="437.5" y="-874.8" font-family="Sans-Serif" font-size="14.00">time</text>
<text text-anchor="middle" x="437.5" y="-859.8" font-family="Sans-Serif" font-size="14.00">→ server</text>
</g>
<!-- server @ busy / client&#45;0 ; server &#45;&gt; response@0 / client&#45;0 &#45;&gt; client&#45;0 -->
<g id="node3" class="node">
<title>server @ busy / client&#45;0 ; server &#45;&gt; response@0 / client&#45;0 &#45;&gt; client&#45;0</title>
<polygon fill="palegreen" stroke="palegreen" points="376.5,-704 105.5,-704 105.5,-666 376.5,-666 376.5,-704"/>
<text text-anchor="middle" x="241" y="-688.8" font-family="Sans-Serif" font-size="14.00">server @ busy / client&#45;0</text>
<text text-anchor="middle" x="241" y="-673.8" font-family="Sans-Serif" font-size="14.00">server &#45;&gt; response@0 / client&#45;0 &#45;&gt; client&#45;0</text>
</g>
<!-- server @ ready ; client&#45;0 &#45;&gt; request@0 / client&#45;0 &#45;&gt; server , server &#45;&gt; response@0 / client&#45;0 &#45;&gt; client&#45;0&#45;&gt;server @ busy / client&#45;0 ; server &#45;&gt; response@0 / client&#45;0 &#45;&gt; client&#45;0 -->
<g id="edge7" class="edge">
<title>server @ ready ; client&#45;0 &#45;&gt; request@0 / client&#45;0 &#45;&gt; server , server &#45;&gt; response@0 / client&#45;0 &#45;&gt; client&#45;0&#45;&gt;server @ busy / client&#45;0 ; server &#45;&gt; response@0 / client&#45;0 &#45;&gt; client&#45;0</title>
<path fill="none" stroke="black" stroke-width="3" d="M293.4,-784.84C284.49,-779.9 276.18,-774.02 269,-767 254.81,-753.14 247.81,-731.74 244.35,-714.42"/>
<polygon fill="black" stroke="black" stroke-width="3" points="247.75,-713.54 242.63,-704.27 240.85,-714.71 247.75,-713.54"/>
<text text-anchor="middle" x="330" y="-755.8" font-family="Sans-Serif" font-size="14.00">client&#45;0 →</text>
<text text-anchor="middle" x="330" y="-740.8" font-family="Sans-Serif" font-size="14.00">request@0 / client&#45;0</text>
<text text-anchor="middle" x="330" y="-725.8" font-family="Sans-Serif" font-size="14.00">→ server</text>
</g>
<!-- server @ ready ; client&#45;0 &#45;&gt; request@0 / client&#45;0 &#45;&gt; server -->
<g id="node8" class="node">
<title>server @ ready ; client&#45;0 &#45;&gt; request@0 / client&#45;0 &#45;&gt; server</title>
<polygon fill="palegreen" stroke="palegreen" points="582,-215 322,-215 322,-177 582,-177 582,-215"/>
<text text-anchor="middle" x="452" y="-199.8" font-family="Sans-Serif" font-size="14.00">server @ ready</text>
<text text-anchor="middle" x="452" y="-184.8" font-family="Sans-Serif" font-size="14.00">client&#45;0 &#45;&gt; request@0 / client&#45;0 &#45;&gt; server</text>
</g>
<!-- server @ ready ; client&#45;0 &#45;&gt; request@0 / client&#45;0 &#45;&gt; server , server &#45;&gt; response@0 / client&#45;0 &#45;&gt; client&#45;0&#45;&gt;server @ ready ; client&#45;0 &#45;&gt; request@0 / client&#45;0 &#45;&gt; server -->
<g id="edge8" class="edge">
<title>server @ ready ; client&#45;0 &#45;&gt; request@0 / client&#45;0 &#45;&gt; server , server &#45;&gt; response@0 / client&#45;0 &#45;&gt; client&#45;0&#45;&gt;server @ ready ; client&#45;0 &#45;&gt; request@0 / client&#45;0 &#45;&gt; server</title>
<path fill="none" stroke="black" stroke-width="3" d="M432.8,-784.68C454.85,-761.28 482,-724.63 482,-686 482,-686 482,-686 482,-313 482,-276.9 478.52,-267.53 468,-233 467.16,-230.24 466.16,-227.41 465.08,-224.61"/>
<polygon fill="black" stroke="black" stroke-width="3" points="468.29,-223.22 461.19,-215.35 461.84,-225.93 468.29,-223.22"/>
<text text-anchor="middle" x="548.5" y="-502.8" font-family="Sans-Serif" font-size="14.00">server →</text>
<text text-anchor="middle" x="548.5" y="-487.8" font-family="Sans-Serif" font-size="14.00">response@0 / client&#45;0</text>
<text text-anchor="middle" x="548.5" y="-472.8" font-family="Sans-Serif" font-size="14.00">→ client&#45;0</text>
</g>
<!-- server @ ready ; server &#45;&gt; response@0 / client&#45;0 &#45;&gt; client&#45;0 , server &#45;&gt; response@1 / client&#45;0 &#45;&gt; client&#45;0 -->
<g id="node4" class="node">
<title>server @ ready ; server &#45;&gt; response@0 / client&#45;0 &#45;&gt; client&#45;0 , server &#45;&gt; response@1 / client&#45;0 &#45;&gt; client&#45;0</title>
<polygon fill="palegreen" stroke="palegreen" points="376.5,-585 105.5,-585 105.5,-532 376.5,-532 376.5,-585"/>
<text text-anchor="middle" x="241" y="-569.8" font-family="Sans-Serif" font-size="14.00">server @ ready</text>
<text text-anchor="middle" x="241" y="-554.8" font-family="Sans-Serif" font-size="14.00">server &#45;&gt; response@0 / client&#45;0 &#45;&gt; client&#45;0</text>
<text text-anchor="middle" x="241" y="-539.8" font-family="Sans-Serif" font-size="14.00">server &#45;&gt; response@1 / client&#45;0 &#45;&gt; client&#45;0</text>
</g>
<!-- server @ busy / client&#45;0 ; server &#45;&gt; response@0 / client&#45;0 &#45;&gt; client&#45;0&#45;&gt;server @ ready ; server &#45;&gt; response@0 / client&#45;0 &#45;&gt; client&#45;0 , server &#45;&gt; response@1 / client&#45;0 &#45;&gt; client&#45;0 -->
<g id="edge2" class="edge">
<title>server @ busy / client&#45;0 ; server &#45;&gt; response@0 / client&#45;0 &#45;&gt; client&#45;0&#45;&gt;server @ ready ; server &#45;&gt; response@0 / client&#45;0 &#45;&gt; client&#45;0 , server &#45;&gt; response@1 / client&#45;0 &#45;&gt; client&#45;0</title>
<path fill="none" stroke="black" stroke-width="3" d="M241,-665.9C241,-647.53 241,-618.61 241,-595.55"/>
<polygon fill="black" stroke="black" stroke-width="3" points="244.5,-595.43 241,-585.43 237.5,-595.43 244.5,-595.43"/>
<text text-anchor="middle" x="273.5" y="-636.8" font-family="Sans-Serif" font-size="14.00">@ busy →</text>
<text text-anchor="middle" x="273.5" y="-621.8" font-family="Sans-Serif" font-size="14.00">time</text>
<text text-anchor="middle" x="273.5" y="-606.8" font-family="Sans-Serif" font-size="14.00">→ server</text>
</g>
<!-- server @ busy / client&#45;0 -->
<g id="node5" class="node">
<title>server @ busy / client&#45;0</title>
<polygon fill="palegreen" stroke="palegreen" points="335,-87.5 175,-87.5 175,-51.5 335,-51.5 335,-87.5"/>
<text text-anchor="middle" x="255" y="-65.8" font-family="Sans-Serif" font-size="14.00">server @ busy / client&#45;0</text>
</g>
<!-- server @ busy / client&#45;0 ; server &#45;&gt; response@0 / client&#45;0 &#45;&gt; client&#45;0&#45;&gt;server @ busy / client&#45;0 -->
<g id="edge3" class="edge">
<title>server @ busy / client&#45;0 ; server &#45;&gt; response@0 / client&#45;0 &#45;&gt; client&#45;0&#45;&gt;server @ busy / client&#45;0</title>
<path fill="none" stroke="black" stroke-width="3" d="M181.79,-665.96C134.82,-647.54 77,-613.84 77,-559.5 77,-559.5 77,-559.5 77,-195 77,-141.7 131.25,-109.31 179.85,-90.98"/>
<polygon fill="black" stroke="black" stroke-width="3" points="181.26,-94.19 189.48,-87.5 178.88,-87.61 181.26,-94.19"/>
<text text-anchor="middle" x="143.5" y="-383.8" font-family="Sans-Serif" font-size="14.00">server →</text>
<text text-anchor="middle" x="143.5" y="-368.8" font-family="Sans-Serif" font-size="14.00">response@0 / client&#45;0</text>
<text text-anchor="middle" x="143.5" y="-353.8" font-family="Sans-Serif" font-size="14.00">→ client&#45;0</text>
</g>
<!-- server @ ready ; server &#45;&gt; response@0 / client&#45;0 &#45;&gt; client&#45;0 -->
<g id="node6" class="node">
<title>server @ ready ; server &#45;&gt; response@0 / client&#45;0 &#45;&gt; client&#45;0</title>
<polygon fill="palegreen" stroke="palegreen" points="445.5,-451 174.5,-451 174.5,-413 445.5,-413 445.5,-451"/>
<text text-anchor="middle" x="310" y="-435.8" font-family="Sans-Serif" font-size="14.00">server @ ready</text>
<text text-anchor="middle" x="310" y="-420.8" font-family="Sans-Serif" font-size="14.00">server &#45;&gt; response@0 / client&#45;0 &#45;&gt; client&#45;0</text>
</g>
<!-- server @ ready ; server &#45;&gt; response@0 / client&#45;0 &#45;&gt; client&#45;0 , server &#45;&gt; response@1 / client&#45;0 &#45;&gt; client&#45;0&#45;&gt;server @ ready ; server &#45;&gt; response@0 / client&#45;0 &#45;&gt; client&#45;0 -->
<g id="edge11" class="edge">
<title>server @ ready ; server &#45;&gt; response@0 / client&#45;0 &#45;&gt; client&#45;0 , server &#45;&gt; response@1 / client&#45;0 &#45;&gt; client&#45;0&#45;&gt;server @ ready ; server &#45;&gt; response@0 / client&#45;0 &#45;&gt; client&#45;0</title>
<path fill="none" stroke="black" stroke-width="3" d="M240.87,-531.95C241.91,-513.16 245.79,-487.74 258,-469 260.67,-464.9 263.98,-461.14 267.64,-457.72"/>
<polygon fill="black" stroke="black" stroke-width="3" points="270.05,-460.27 275.52,-451.19 265.58,-454.88 270.05,-460.27"/>
<text text-anchor="middle" x="324.5" y="-502.8" font-family="Sans-Serif" font-size="14.00">server →</text>
<text text-anchor="middle" x="324.5" y="-487.8" font-family="Sans-Serif" font-size="14.00">response@0 / client&#45;0</text>
<text text-anchor="middle" x="324.5" y="-472.8" font-family="Sans-Serif" font-size="14.00">→ client&#45;0</text>
</g>
<!-- server @ busy / client&#45;0&#45;&gt;server @ busy / client&#45;0 ; client&#45;0 &#45;&gt; request@0 / client&#45;0 &#45;&gt; server -->
<g id="edge5" class="edge">
<title>server @ busy / client&#45;0&#45;&gt;server @ busy / client&#45;0 ; client&#45;0 &#45;&gt; request@0 / client&#45;0 &#45;&gt; server</title>
<path fill="none" stroke="black" stroke-width="3" d="M174.67,-76.59C99.92,-87.16 0,-116.05 0,-195 0,-812.5 0,-812.5 0,-812.5 0,-869.37 147.74,-902.96 264.76,-920.64"/>
<polygon fill="black" stroke="black" stroke-width="3" points="264.5,-924.14 274.91,-922.15 265.53,-917.22 264.5,-924.14"/>
<text text-anchor="middle" x="31" y="-502.8" font-family="Sans-Serif" font-size="14.00">@ wait →</text>
<text text-anchor="middle" x="31" y="-487.8" font-family="Sans-Serif" font-size="14.00">time</text>
<text text-anchor="middle" x="31" y="-472.8" font-family="Sans-Serif" font-size="14.00">→ client&#45;0</text>
</g>
<!-- server @ busy / client&#45;0&#45;&gt;server @ ready ; server &#45;&gt; response@0 / client&#45;0 &#45;&gt; client&#45;0 -->
<g id="edge4" class="edge">
<title>server @ busy / client&#45;0&#45;&gt;server @ ready ; server &#45;&gt; response@0 / client&#45;0 &#45;&gt; client&#45;0</title>
<path fill="none" stroke="black" stroke-width="3" d="M256.9,-87.69C261.62,-129.6 274.62,-240.3 290,-332 294.03,-356.04 299.58,-383.16 303.81,-402.93"/>
<polygon fill="black" stroke="black" stroke-width="3" points="300.42,-403.79 305.95,-412.82 307.26,-402.31 300.42,-403.79"/>
<text text-anchor="middle" x="314.5" y="-266.8" font-family="Sans-Serif" font-size="14.00">@ busy →</text>
<text text-anchor="middle" x="314.5" y="-251.8" font-family="Sans-Serif" font-size="14.00">time</text>
<text text-anchor="middle" x="314.5" y="-236.8" font-family="Sans-Serif" font-size="14.00">→ server</text>
</g>
<!-- server @ ready ; server &#45;&gt; response@0 / client&#45;0 &#45;&gt; client&#45;0&#45;&gt;server @ ready ; client&#45;0 &#45;&gt; request@0 / client&#45;0 &#45;&gt; server , server &#45;&gt; response@0 / client&#45;0 &#45;&gt; client&#45;0 -->
<g id="edge12" class="edge">
<title>server @ ready ; server &#45;&gt; response@0 / client&#45;0 &#45;&gt; client&#45;0&#45;&gt;server @ ready ; client&#45;0 &#45;&gt; request@0 / client&#45;0 &#45;&gt; server , server &#45;&gt; response@0 / client&#45;0 &#45;&gt; client&#45;0</title>
<path fill="none" stroke="black" stroke-width="3" d="M371.41,-451.04C379.08,-455.73 385.98,-461.62 391,-469 407.85,-493.8 406.82,-692.36 405.64,-774.81"/>
<polygon fill="black" stroke="black" stroke-width="3" points="402.14,-774.9 405.48,-784.95 409.14,-775.01 402.14,-774.9"/>
<text text-anchor="middle" x="436" y="-636.8" font-family="Sans-Serif" font-size="14.00">@ wait →</text>
<text text-anchor="middle" x="436" y="-621.8" font-family="Sans-Serif" font-size="14.00">time</text>
<text text-anchor="middle" x="436" y="-606.8" font-family="Sans-Serif" font-size="14.00">→ client&#45;0</text>
</g>
<!-- server @ ready -->
<g id="node9" class="node">
<title>server @ ready</title>
<polygon fill="palegreen" stroke="palegreen" points="409,-332 299,-332 299,-296 409,-296 409,-332"/>
<text text-anchor="middle" x="354" y="-310.3" font-family="Sans-Serif" font-size="14.00">server @ ready</text>
</g>
<!-- server @ ready ; server &#45;&gt; response@0 / client&#45;0 &#45;&gt; client&#45;0&#45;&gt;server @ ready -->
<g id="edge13" class="edge">
<title>server @ ready ; server &#45;&gt; response@0 / client&#45;0 &#45;&gt; client&#45;0&#45;&gt;server @ ready</title>
<path fill="none" stroke="black" stroke-width="3" d="M314.47,-412.94C318.85,-396.28 326.15,-371.03 335,-350 336.22,-347.1 337.61,-344.12 339.07,-341.19"/>
<polygon fill="black" stroke="black" stroke-width="3" points="342.28,-342.59 343.83,-332.11 336.08,-339.34 342.28,-342.59"/>
<text text-anchor="middle" x="401.5" y="-383.8" font-family="Sans-Serif" font-size="14.00">server →</text>
<text text-anchor="middle" x="401.5" y="-368.8" font-family="Sans-Serif" font-size="14.00">response@0 / client&#45;0</text>
<text text-anchor="middle" x="401.5" y="-353.8" font-family="Sans-Serif" font-size="14.00">→ client&#45;0</text>
</g>
<!-- server @ ready ; client&#45;0 &#45;&gt; request@0 / client&#45;0 &#45;&gt; server , client&#45;0 &#45;&gt; request@1 / client&#45;0 &#45;&gt; server -->
<g id="node7" class="node">
<title>server @ ready ; client&#45;0 &#45;&gt; request@0 / client&#45;0 &#45;&gt; server , client&#45;0 &#45;&gt; request@1 / client&#45;0 &#45;&gt; server</title>
<polygon fill="palegreen" stroke="palegreen" points="662,-96 402,-96 402,-43 662,-43 662,-96"/>
<text text-anchor="middle" x="532" y="-80.8" font-family="Sans-Serif" font-size="14.00">server @ ready</text>
<text text-anchor="middle" x="532" y="-65.8" font-family="Sans-Serif" font-size="14.00">client&#45;0 &#45;&gt; request@0 / client&#45;0 &#45;&gt; server</text>
<text text-anchor="middle" x="532" y="-50.8" font-family="Sans-Serif" font-size="14.00">client&#45;0 &#45;&gt; request@1 / client&#45;0 &#45;&gt; server</text>
</g>
<!-- server @ ready ; client&#45;0 &#45;&gt; request@0 / client&#45;0 &#45;&gt; server , client&#45;0 &#45;&gt; request@1 / client&#45;0 &#45;&gt; server&#45;&gt;server @ busy / client&#45;0 ; client&#45;0 &#45;&gt; request@0 / client&#45;0 &#45;&gt; server -->
<g id="edge6" class="edge">
<title>server @ ready ; client&#45;0 &#45;&gt; request@0 / client&#45;0 &#45;&gt; server , client&#45;0 &#45;&gt; request@1 / client&#45;0 &#45;&gt; server&#45;&gt;server @ busy / client&#45;0 ; client&#45;0 &#45;&gt; request@0 / client&#45;0 &#45;&gt; server</title>
<path fill="none" stroke="black" stroke-width="3" d="M572.98,-96.07C602.81,-118.18 638,-153.13 638,-195 638,-812.5 638,-812.5 638,-812.5 638,-868.1 585.76,-898.96 530.75,-916.04"/>
<polygon fill="black" stroke="black" stroke-width="3" points="529.42,-912.78 520.82,-918.97 531.4,-919.5 529.42,-912.78"/>
<text text-anchor="middle" x="699" y="-502.8" font-family="Sans-Serif" font-size="14.00">client&#45;0 →</text>
<text text-anchor="middle" x="699" y="-487.8" font-family="Sans-Serif" font-size="14.00">request@0 / client&#45;0</text>
<text text-anchor="middle" x="699" y="-472.8" font-family="Sans-Serif" font-size="14.00">→ server</text>
</g>
<!-- server @ ready ; client&#45;0 &#45;&gt; request@0 / client&#45;0 &#45;&gt; server&#45;&gt;server @ busy / client&#45;0 -->
<g id="edge10" class="edge">
<title>server @ ready ; client&#45;0 &#45;&gt; request@0 / client&#45;0 &#45;&gt; server&#45;&gt;server @ busy / client&#45;0</title>
<path fill="none" stroke="black" stroke-width="3" d="M394.22,-176.83C381.56,-171.84 368.51,-165.87 357,-159 327.15,-141.17 297.65,-114.29 278.12,-94.84"/>
<polygon fill="black" stroke="black" stroke-width="3" points="280.4,-92.18 270.89,-87.52 275.42,-97.1 280.4,-92.18"/>
<text text-anchor="middle" x="418" y="-147.8" font-family="Sans-Serif" font-size="14.00">client&#45;0 →</text>
<text text-anchor="middle" x="418" y="-132.8" font-family="Sans-Serif" font-size="14.00">request@0 / client&#45;0</text>
<text text-anchor="middle" x="418" y="-117.8" font-family="Sans-Serif" font-size="14.00">→ server</text>
</g>
<!-- server @ ready ; client&#45;0 &#45;&gt; request@0 / client&#45;0 &#45;&gt; server&#45;&gt;server @ ready ; client&#45;0 &#45;&gt; request@0 / client&#45;0 &#45;&gt; server , client&#45;0 &#45;&gt; request@1 / client&#45;0 &#45;&gt; server -->
<g id="edge9" class="edge">
<title>server @ ready ; client&#45;0 &#45;&gt; request@0 / client&#45;0 &#45;&gt; server&#45;&gt;server @ ready ; client&#45;0 &#45;&gt; request@0 / client&#45;0 &#45;&gt; server , client&#45;0 &#45;&gt; request@1 / client&#45;0 &#45;&gt; server</title>
<path fill="none" stroke="black" stroke-width="3" d="M468.85,-176.9C473.67,-171.35 478.76,-165.09 483,-159 494.86,-141.98 506.2,-121.82 514.99,-105.05"/>
<polygon fill="black" stroke="black" stroke-width="3" points="518.12,-106.61 519.59,-96.12 511.9,-103.4 518.12,-106.61"/>
<text text-anchor="middle" x="541" y="-147.8" font-family="Sans-Serif" font-size="14.00">@ wait →</text>
<text text-anchor="middle" x="541" y="-132.8" font-family="Sans-Serif" font-size="14.00">time</text>
<text text-anchor="middle" x="541" y="-117.8" font-family="Sans-Serif" font-size="14.00">→ client&#45;0</text>
</g>
<!-- server @ ready&#45;&gt;server @ ready ; client&#45;0 &#45;&gt; request@0 / client&#45;0 &#45;&gt; server -->
<g id="edge14" class="edge">
<title>server @ ready&#45;&gt;server @ ready ; client&#45;0 &#45;&gt; request@0 / client&#45;0 &#45;&gt; server</title>
<path fill="none" stroke="black" stroke-width="3" d="M362.9,-295.93C372.26,-278.91 388.1,-252.54 406,-233 409.68,-228.98 413.85,-225.06 418.13,-221.38"/>
<polygon fill="black" stroke="black" stroke-width="3" points="420.36,-224.08 425.88,-215.03 415.92,-218.66 420.36,-224.08"/>
<text text-anchor="middle" x="437" y="-266.8" font-family="Sans-Serif" font-size="14.00">@ idle →</text>
<text text-anchor="middle" x="437" y="-251.8" font-family="Sans-Serif" font-size="14.00">time</text>
<text text-anchor="middle" x="437" y="-236.8" font-family="Sans-Serif" font-size="14.00">→ client&#45;0</text>
</g>
</g>
</svg>
