<?xml version="1.0" encoding="UTF-8" standalone="no"?>
<!DOCTYPE svg PUBLIC "-//W3C//DTD SVG 1.1//EN"
 "http://www.w3.org/Graphics/SVG/1.1/DTD/svg11.dtd">
<!-- Generated by graphviz version 2.46.0 (0)
 -->
<!-- Title: G Pages: 1 -->
<svg width="899pt" height="1093pt"
 viewBox="0.00 0.00 898.50 1093.00" xmlns="http://www.w3.org/2000/svg" xmlns:xlink="http://www.w3.org/1999/xlink">
<g id="graph0" class="graph" transform="scale(1 1) rotate(0) translate(4 1089)">
<title>G</title>
<polygon fill="white" stroke="transparent" points="-4,4 -4,-1089 894.5,-1089 894.5,4 -4,4"/>
<text text-anchor="middle" x="445.25" y="-13.4" font-family="Sans-Serif" font-size="32.00">Focus on Client&#45;1</text>
<!-- client&#45;1 @ check ; client &#45;&gt; confirm! / client&#45;1 &#45;&gt; client&#45;1 -->
<g id="node1" class="node">
<title>client&#45;1 @ check ; client &#45;&gt; confirm! / client&#45;1 &#45;&gt; client&#45;1</title>
<polygon fill="palegreen" stroke="palegreen" points="706.5,-1085 470.5,-1085 470.5,-1047 706.5,-1047 706.5,-1085"/>
<text text-anchor="middle" x="588.5" y="-1069.8" font-family="Sans-Serif" font-size="14.00">client&#45;1 @ check</text>
<text text-anchor="middle" x="588.5" y="-1054.8" font-family="Sans-Serif" font-size="14.00">client &#45;&gt; confirm! / client&#45;1 &#45;&gt; client&#45;1</text>
</g>
<!-- client&#45;1 @ idle -->
<g id="node2" class="node">
<title>client&#45;1 @ idle</title>
<polygon fill="palegreen" stroke="palegreen" points="427,-961.5 324,-961.5 324,-925.5 427,-925.5 427,-961.5"/>
<text text-anchor="middle" x="375.5" y="-939.8" font-family="Sans-Serif" font-size="14.00">client&#45;1 @ idle</text>
</g>
<!-- client&#45;1 @ check ; client &#45;&gt; confirm! / client&#45;1 &#45;&gt; client&#45;1&#45;&gt;client&#45;1 @ idle -->
<g id="edge1" class="edge">
<title>client&#45;1 @ check ; client &#45;&gt; confirm! / client&#45;1 &#45;&gt; client&#45;1&#45;&gt;client&#45;1 @ idle</title>
<path fill="none" stroke="black" stroke-width="3" d="M511.91,-1046.91C497.69,-1042.1 483.29,-1036.18 470.5,-1029 442.54,-1013.31 415.73,-988.22 397.76,-969.45"/>
<polygon fill="black" stroke="black" stroke-width="3" points="400.02,-966.74 390.62,-961.84 394.91,-971.53 400.02,-966.74"/>
<text text-anchor="middle" x="522.5" y="-1017.8" font-family="Sans-Serif" font-size="14.00">client →</text>
<text text-anchor="middle" x="522.5" y="-1002.8" font-family="Sans-Serif" font-size="14.00">confirm! / client&#45;1</text>
<text text-anchor="middle" x="522.5" y="-987.8" font-family="Sans-Serif" font-size="14.00">→ client&#45;1</text>
</g>
<!-- client&#45;1 @ check ; client&#45;1 &#45;&gt; check@0 / client&#45;1 &#45;&gt; client -->
<g id="node4" class="node">
<title>client&#45;1 @ check ; client&#45;1 &#45;&gt; check@0 / client&#45;1 &#45;&gt; client</title>
<polygon fill="palegreen" stroke="palegreen" points="710.5,-840 466.5,-840 466.5,-802 710.5,-802 710.5,-840"/>
<text text-anchor="middle" x="588.5" y="-824.8" font-family="Sans-Serif" font-size="14.00">client&#45;1 @ check</text>
<text text-anchor="middle" x="588.5" y="-809.8" font-family="Sans-Serif" font-size="14.00">client&#45;1 &#45;&gt; check@0 / client&#45;1 &#45;&gt; client</text>
</g>
<!-- client&#45;1 @ idle&#45;&gt;client&#45;1 @ check ; client&#45;1 &#45;&gt; check@0 / client&#45;1 &#45;&gt; client -->
<g id="edge5" class="edge">
<title>client&#45;1 @ idle&#45;&gt;client&#45;1 @ check ; client&#45;1 &#45;&gt; check@0 / client&#45;1 &#45;&gt; client</title>
<path fill="none" stroke="black" stroke-width="3" d="M401.26,-925.43C428.42,-907.7 472.72,-879.61 512.5,-858 520.97,-853.4 530.14,-848.77 539.07,-844.45"/>
<polygon fill="black" stroke="black" stroke-width="3" points="540.74,-847.53 548.25,-840.06 537.72,-841.21 540.74,-847.53"/>
<text text-anchor="middle" x="543.5" y="-891.8" font-family="Sans-Serif" font-size="14.00">@ idle →</text>
<text text-anchor="middle" x="543.5" y="-876.8" font-family="Sans-Serif" font-size="14.00">time</text>
<text text-anchor="middle" x="543.5" y="-861.8" font-family="Sans-Serif" font-size="14.00">→ client&#45;1</text>
</g>
<!-- client&#45;1 @ wait / 1 ; client&#45;1 &#45;&gt; request@0 / client&#45;1 &#45;&gt; server -->
<g id="node5" class="node">
<title>client&#45;1 @ wait / 1 ; client&#45;1 &#45;&gt; request@0 / client&#45;1 &#45;&gt; server</title>
<polygon fill="palegreen" stroke="palegreen" points="448.5,-840 188.5,-840 188.5,-802 448.5,-802 448.5,-840"/>
<text text-anchor="middle" x="318.5" y="-824.8" font-family="Sans-Serif" font-size="14.00">client&#45;1 @ wait / 1</text>
<text text-anchor="middle" x="318.5" y="-809.8" font-family="Sans-Serif" font-size="14.00">client&#45;1 &#45;&gt; request@0 / client&#45;1 &#45;&gt; server</text>
</g>
<!-- client&#45;1 @ idle&#45;&gt;client&#45;1 @ wait / 1 ; client&#45;1 &#45;&gt; request@0 / client&#45;1 &#45;&gt; server -->
<g id="edge6" class="edge">
<title>client&#45;1 @ idle&#45;&gt;client&#45;1 @ wait / 1 ; client&#45;1 &#45;&gt; request@0 / client&#45;1 &#45;&gt; server</title>
<path fill="none" stroke="black" stroke-width="3" d="M367.45,-925.49C358.07,-905.65 342.43,-872.58 331.35,-849.17"/>
<polygon fill="black" stroke="black" stroke-width="3" points="334.5,-847.65 327.06,-840.1 328.18,-850.64 334.5,-847.65"/>
<text text-anchor="middle" x="386.5" y="-891.8" font-family="Sans-Serif" font-size="14.00">@ idle →</text>
<text text-anchor="middle" x="386.5" y="-876.8" font-family="Sans-Serif" font-size="14.00">time</text>
<text text-anchor="middle" x="386.5" y="-861.8" font-family="Sans-Serif" font-size="14.00">→ client&#45;1</text>
</g>
<!-- client&#45;1 @ check ; client&#45;1 &#45;&gt; check=&gt;check@0 / client&#45;1 &#45;&gt; client -->
<g id="node3" class="node">
<title>client&#45;1 @ check ; client&#45;1 &#45;&gt; check=&gt;check@0 / client&#45;1 &#45;&gt; client</title>
<polygon fill="palegreen" stroke="palegreen" points="870.5,-713.5 574.5,-713.5 574.5,-675.5 870.5,-675.5 870.5,-713.5"/>
<text text-anchor="middle" x="722.5" y="-698.3" font-family="Sans-Serif" font-size="14.00">client&#45;1 @ check</text>
<text text-anchor="middle" x="722.5" y="-683.3" font-family="Sans-Serif" font-size="14.00">client&#45;1 &#45;&gt; check=&gt;check@0 / client&#45;1 &#45;&gt; client</text>
</g>
<!-- client&#45;1 @ check ; client&#45;1 &#45;&gt; check=&gt;check@0 / client&#45;1 &#45;&gt; client&#45;&gt;client&#45;1 @ check ; client &#45;&gt; confirm! / client&#45;1 &#45;&gt; client&#45;1 -->
<g id="edge2" class="edge">
<title>client&#45;1 @ check ; client&#45;1 &#45;&gt; check=&gt;check@0 / client&#45;1 &#45;&gt; client&#45;&gt;client&#45;1 @ check ; client &#45;&gt; confirm! / client&#45;1 &#45;&gt; client&#45;1</title>
<path fill="none" stroke="black" stroke-width="3" d="M726.12,-713.63C734.26,-759.24 749.92,-881.14 704.5,-966 687.38,-997.98 655.36,-1024.09 629.29,-1041.45"/>
<polygon fill="black" stroke="black" stroke-width="3" points="627.21,-1038.63 620.71,-1046.99 631.01,-1044.51 627.21,-1038.63"/>
<text text-anchor="middle" x="812" y="-891.8" font-family="Sans-Serif" font-size="14.00">client&#45;1 →</text>
<text text-anchor="middle" x="812" y="-876.8" font-family="Sans-Serif" font-size="14.00">check⇒check@0 / client&#45;1</text>
<text text-anchor="middle" x="812" y="-861.8" font-family="Sans-Serif" font-size="14.00">→ client</text>
</g>
<!-- client&#45;1 @ check ; client&#45;1 &#45;&gt; check@0 / client&#45;1 &#45;&gt; client&#45;&gt;client&#45;1 @ check ; client &#45;&gt; confirm! / client&#45;1 &#45;&gt; client&#45;1 -->
<g id="edge4" class="edge">
<title>client&#45;1 @ check ; client&#45;1 &#45;&gt; check@0 / client&#45;1 &#45;&gt; client&#45;&gt;client&#45;1 @ check ; client &#45;&gt; confirm! / client&#45;1 &#45;&gt; client&#45;1</title>
<path fill="none" stroke="black" stroke-width="3" d="M588.5,-840.14C588.5,-882.09 588.5,-986.01 588.5,-1036.52"/>
<polygon fill="black" stroke="black" stroke-width="3" points="585,-1036.74 588.5,-1046.74 592,-1036.74 585,-1036.74"/>
<text text-anchor="middle" x="644.5" y="-954.8" font-family="Sans-Serif" font-size="14.00">client&#45;1 →</text>
<text text-anchor="middle" x="644.5" y="-939.8" font-family="Sans-Serif" font-size="14.00">check@0 / client&#45;1</text>
<text text-anchor="middle" x="644.5" y="-924.8" font-family="Sans-Serif" font-size="14.00">→ client</text>
</g>
<!-- client&#45;1 @ check ; client&#45;1 &#45;&gt; check@0 / client&#45;1 &#45;&gt; client&#45;&gt;client&#45;1 @ check ; client&#45;1 &#45;&gt; check=&gt;check@0 / client&#45;1 &#45;&gt; client -->
<g id="edge3" class="edge">
<title>client&#45;1 @ check ; client&#45;1 &#45;&gt; check@0 / client&#45;1 &#45;&gt; client&#45;&gt;client&#45;1 @ check ; client&#45;1 &#45;&gt; check=&gt;check@0 / client&#45;1 &#45;&gt; client</title>
<path fill="none" stroke="black" stroke-width="3" d="M600.17,-801.77C611.95,-784.3 631.38,-757.86 652.5,-739 660.59,-731.78 670.02,-725.02 679.29,-719.08"/>
<polygon fill="black" stroke="black" stroke-width="3" points="681.42,-721.89 688.09,-713.65 677.74,-715.93 681.42,-721.89"/>
<text text-anchor="middle" x="688.5" y="-772.8" font-family="Sans-Serif" font-size="14.00">@ check →</text>
<text text-anchor="middle" x="688.5" y="-757.8" font-family="Sans-Serif" font-size="14.00">time</text>
<text text-anchor="middle" x="688.5" y="-742.8" font-family="Sans-Serif" font-size="14.00">→ client&#45;1</text>
</g>
<!-- client&#45;1 @ wait / 2 ; client&#45;1 &#45;&gt; request@0 / client&#45;1 &#45;&gt; server , client&#45;1 &#45;&gt; request@1 / client&#45;1 &#45;&gt; server -->
<g id="node6" class="node">
<title>client&#45;1 @ wait / 2 ; client&#45;1 &#45;&gt; request@0 / client&#45;1 &#45;&gt; server , client&#45;1 &#45;&gt; request@1 / client&#45;1 &#45;&gt; server</title>
<polygon fill="palegreen" stroke="palegreen" points="515.5,-721 255.5,-721 255.5,-668 515.5,-668 515.5,-721"/>
<text text-anchor="middle" x="385.5" y="-705.8" font-family="Sans-Serif" font-size="14.00">client&#45;1 @ wait / 2</text>
<text text-anchor="middle" x="385.5" y="-690.8" font-family="Sans-Serif" font-size="14.00">client&#45;1 &#45;&gt; request@0 / client&#45;1 &#45;&gt; server</text>
<text text-anchor="middle" x="385.5" y="-675.8" font-family="Sans-Serif" font-size="14.00">client&#45;1 &#45;&gt; request@1 / client&#45;1 &#45;&gt; server</text>
</g>
<!-- client&#45;1 @ wait / 1 ; client&#45;1 &#45;&gt; request@0 / client&#45;1 &#45;&gt; server&#45;&gt;client&#45;1 @ wait / 2 ; client&#45;1 &#45;&gt; request@0 / client&#45;1 &#45;&gt; server , client&#45;1 &#45;&gt; request@1 / client&#45;1 &#45;&gt; server -->
<g id="edge7" class="edge">
<title>client&#45;1 @ wait / 1 ; client&#45;1 &#45;&gt; request@0 / client&#45;1 &#45;&gt; server&#45;&gt;client&#45;1 @ wait / 2 ; client&#45;1 &#45;&gt; request@0 / client&#45;1 &#45;&gt; server , client&#45;1 &#45;&gt; request@1 / client&#45;1 &#45;&gt; server</title>
<path fill="none" stroke="black" stroke-width="3" d="M328.24,-801.9C338.3,-783.2 354.25,-753.56 366.77,-730.31"/>
<polygon fill="black" stroke="black" stroke-width="3" points="369.89,-731.89 371.55,-721.43 363.73,-728.57 369.89,-731.89"/>
<text text-anchor="middle" x="393.5" y="-772.8" font-family="Sans-Serif" font-size="14.00">@ wait →</text>
<text text-anchor="middle" x="393.5" y="-757.8" font-family="Sans-Serif" font-size="14.00">time</text>
<text text-anchor="middle" x="393.5" y="-742.8" font-family="Sans-Serif" font-size="14.00">→ client&#45;1</text>
</g>
<!-- client&#45;1 @ wait / 1 -->
<g id="node7" class="node">
<title>client&#45;1 @ wait / 1</title>
<polygon fill="palegreen" stroke="palegreen" points="529,-206.5 404,-206.5 404,-170.5 529,-170.5 529,-206.5"/>
<text text-anchor="middle" x="466.5" y="-184.8" font-family="Sans-Serif" font-size="14.00">client&#45;1 @ wait / 1</text>
</g>
<!-- client&#45;1 @ wait / 1 ; client&#45;1 &#45;&gt; request@0 / client&#45;1 &#45;&gt; server&#45;&gt;client&#45;1 @ wait / 1 -->
<g id="edge8" class="edge">
<title>client&#45;1 @ wait / 1 ; client&#45;1 &#45;&gt; request@0 / client&#45;1 &#45;&gt; server&#45;&gt;client&#45;1 @ wait / 1</title>
<path fill="none" stroke="black" stroke-width="3" d="M426.39,-801.96C484.13,-785.45 543.5,-754.21 543.5,-695.5 543.5,-695.5 543.5,-695.5 543.5,-314 543.5,-274.73 515.44,-237.5 493.2,-214.16"/>
<polygon fill="black" stroke="black" stroke-width="3" points="495.45,-211.46 485.93,-206.8 490.46,-216.37 495.45,-211.46"/>
<text text-anchor="middle" x="604.5" y="-519.8" font-family="Sans-Serif" font-size="14.00">client&#45;1 →</text>
<text text-anchor="middle" x="604.5" y="-504.8" font-family="Sans-Serif" font-size="14.00">request@0 / client&#45;1</text>
<text text-anchor="middle" x="604.5" y="-489.8" font-family="Sans-Serif" font-size="14.00">→ server</text>
</g>
<!-- client&#45;1 @ wait / 2 ; client&#45;1 &#45;&gt; request@0 / client&#45;1 &#45;&gt; server -->
<g id="node10" class="node">
<title>client&#45;1 @ wait / 2 ; client&#45;1 &#45;&gt; request@0 / client&#45;1 &#45;&gt; server</title>
<polygon fill="palegreen" stroke="palegreen" points="515.5,-587 255.5,-587 255.5,-549 515.5,-549 515.5,-587"/>
<text text-anchor="middle" x="385.5" y="-571.8" font-family="Sans-Serif" font-size="14.00">client&#45;1 @ wait / 2</text>
<text text-anchor="middle" x="385.5" y="-556.8" font-family="Sans-Serif" font-size="14.00">client&#45;1 &#45;&gt; request@0 / client&#45;1 &#45;&gt; server</text>
</g>
<!-- client&#45;1 @ wait / 2 ; client&#45;1 &#45;&gt; request@0 / client&#45;1 &#45;&gt; server , client&#45;1 &#45;&gt; request@1 / client&#45;1 &#45;&gt; server&#45;&gt;client&#45;1 @ wait / 2 ; client&#45;1 &#45;&gt; request@0 / client&#45;1 &#45;&gt; server -->
<g id="edge13" class="edge">
<title>client&#45;1 @ wait / 2 ; client&#45;1 &#45;&gt; request@0 / client&#45;1 &#45;&gt; server , client&#45;1 &#45;&gt; request@1 / client&#45;1 &#45;&gt; server&#45;&gt;client&#45;1 @ wait / 2 ; client&#45;1 &#45;&gt; request@0 / client&#45;1 &#45;&gt; server</title>
<path fill="none" stroke="black" stroke-width="3" d="M385.5,-667.7C385.5,-647.11 385.5,-618.3 385.5,-597.12"/>
<polygon fill="black" stroke="black" stroke-width="3" points="389,-597.11 385.5,-587.11 382,-597.11 389,-597.11"/>
<text text-anchor="middle" x="446.5" y="-638.8" font-family="Sans-Serif" font-size="14.00">client&#45;1 →</text>
<text text-anchor="middle" x="446.5" y="-623.8" font-family="Sans-Serif" font-size="14.00">request@0 / client&#45;1</text>
<text text-anchor="middle" x="446.5" y="-608.8" font-family="Sans-Serif" font-size="14.00">→ server</text>
</g>
<!-- client&#45;1 @ wait / 1 ; server &#45;&gt; response@0 / client&#45;1 &#45;&gt; client&#45;1 -->
<g id="node8" class="node">
<title>client&#45;1 @ wait / 1 ; server &#45;&gt; response@0 / client&#45;1 &#45;&gt; client&#45;1</title>
<polygon fill="palegreen" stroke="palegreen" points="271,-81 0,-81 0,-43 271,-43 271,-81"/>
<text text-anchor="middle" x="135.5" y="-65.8" font-family="Sans-Serif" font-size="14.00">client&#45;1 @ wait / 1</text>
<text text-anchor="middle" x="135.5" y="-50.8" font-family="Sans-Serif" font-size="14.00">server &#45;&gt; response@0 / client&#45;1 &#45;&gt; client&#45;1</text>
</g>
<!-- client&#45;1 @ wait / 1&#45;&gt;client&#45;1 @ wait / 1 ; server &#45;&gt; response@0 / client&#45;1 &#45;&gt; client&#45;1 -->
<g id="edge11" class="edge">
<title>client&#45;1 @ wait / 1&#45;&gt;client&#45;1 @ wait / 1 ; server &#45;&gt; response@0 / client&#45;1 &#45;&gt; client&#45;1</title>
<path fill="none" stroke="black" stroke-width="3" d="M449.24,-170.43C427.48,-149.98 387.99,-116.3 347.5,-99 326.72,-90.12 303.91,-83.42 281.19,-78.38"/>
<polygon fill="black" stroke="black" stroke-width="3" points="281.63,-74.9 271.12,-76.25 280.18,-81.74 281.63,-74.9"/>
<text text-anchor="middle" x="452" y="-132.8" font-family="Sans-Serif" font-size="14.00">@ busy →</text>
<text text-anchor="middle" x="452" y="-117.8" font-family="Sans-Serif" font-size="14.00">time</text>
<text text-anchor="middle" x="452" y="-102.8" font-family="Sans-Serif" font-size="14.00">→ server</text>
</g>
<!-- client&#45;1 @ wait / 1&#45;&gt;client&#45;1 @ wait / 2 ; client&#45;1 &#45;&gt; request@0 / client&#45;1 &#45;&gt; server -->
<g id="edge12" class="edge">
<title>client&#45;1 @ wait / 1&#45;&gt;client&#45;1 @ wait / 2 ; client&#45;1 &#45;&gt; request@0 / client&#45;1 &#45;&gt; server</title>
<path fill="none" stroke="black" stroke-width="3" d="M463.78,-206.8C460.98,-224.64 456.46,-253.27 452.5,-278 434.49,-390.48 455.13,-425.78 411.5,-531 410.16,-534.23 408.48,-537.45 406.62,-540.55"/>
<polygon fill="black" stroke="black" stroke-width="3" points="403.67,-538.67 401.04,-548.93 409.49,-542.55 403.67,-538.67"/>
<text text-anchor="middle" x="475.5" y="-385.8" font-family="Sans-Serif" font-size="14.00">@ wait →</text>
<text text-anchor="middle" x="475.5" y="-370.8" font-family="Sans-Serif" font-size="14.00">time</text>
<text text-anchor="middle" x="475.5" y="-355.8" font-family="Sans-Serif" font-size="14.00">→ client&#45;1</text>
</g>
<!-- client&#45;1 @ wait / 1 ; server &#45;&gt; response@0 / client&#45;1 &#45;&gt; client&#45;1&#45;&gt;client&#45;1 @ idle -->
<g id="edge10" class="edge">
<title>client&#45;1 @ wait / 1 ; server &#45;&gt; response@0 / client&#45;1 &#45;&gt; client&#45;1&#45;&gt;client&#45;1 @ idle</title>
<path fill="none" stroke="black" stroke-width="3" d="M111.73,-81.32C85.97,-103.43 48.5,-143.2 48.5,-187.5 48.5,-822 48.5,-822 48.5,-822 48.5,-877.89 218.84,-915.88 313.64,-932.69"/>
<polygon fill="black" stroke="black" stroke-width="3" points="313.23,-936.17 323.69,-934.44 314.44,-929.27 313.23,-936.17"/>
<text text-anchor="middle" x="115" y="-519.8" font-family="Sans-Serif" font-size="14.00">server →</text>
<text text-anchor="middle" x="115" y="-504.8" font-family="Sans-Serif" font-size="14.00">response@0 / client&#45;1</text>
<text text-anchor="middle" x="115" y="-489.8" font-family="Sans-Serif" font-size="14.00">→ client&#45;1</text>
</g>
<!-- client&#45;1 @ wait / 2 ; client&#45;1 &#45;&gt; request@0 / client&#45;1 &#45;&gt; server , server &#45;&gt; response@0 / client&#45;1 &#45;&gt; client&#45;1 -->
<g id="node9" class="node">
<title>client&#45;1 @ wait / 2 ; client&#45;1 &#45;&gt; request@0 / client&#45;1 &#45;&gt; server , server &#45;&gt; response@0 / client&#45;1 &#45;&gt; client&#45;1</title>
<polygon fill="palegreen" stroke="palegreen" points="374,-468 103,-468 103,-415 374,-415 374,-468"/>
<text text-anchor="middle" x="238.5" y="-452.8" font-family="Sans-Serif" font-size="14.00">client&#45;1 @ wait / 2</text>
<text text-anchor="middle" x="238.5" y="-437.8" font-family="Sans-Serif" font-size="14.00">client&#45;1 &#45;&gt; request@0 / client&#45;1 &#45;&gt; server</text>
<text text-anchor="middle" x="238.5" y="-422.8" font-family="Sans-Serif" font-size="14.00">server &#45;&gt; response@0 / client&#45;1 &#45;&gt; client&#45;1</text>
</g>
<!-- client&#45;1 @ wait / 1 ; server &#45;&gt; response@0 / client&#45;1 &#45;&gt; client&#45;1&#45;&gt;client&#45;1 @ wait / 2 ; client&#45;1 &#45;&gt; request@0 / client&#45;1 &#45;&gt; server , server &#45;&gt; response@0 / client&#45;1 &#45;&gt; client&#45;1 -->
<g id="edge9" class="edge">
<title>client&#45;1 @ wait / 1 ; server &#45;&gt; response@0 / client&#45;1 &#45;&gt; client&#45;1&#45;&gt;client&#45;1 @ wait / 2 ; client&#45;1 &#45;&gt; request@0 / client&#45;1 &#45;&gt; server , server &#45;&gt; response@0 / client&#45;1 &#45;&gt; client&#45;1</title>
<path fill="none" stroke="black" stroke-width="3" d="M127.11,-81.23C107.56,-126.55 63.69,-246.96 105.5,-334 120.94,-366.14 151.32,-391.62 179.16,-409.59"/>
<polygon fill="black" stroke="black" stroke-width="3" points="177.36,-412.6 187.69,-414.93 181.07,-406.66 177.36,-412.6"/>
<text text-anchor="middle" x="121.5" y="-266.8" font-family="Sans-Serif" font-size="14.00">@ wait →</text>
<text text-anchor="middle" x="121.5" y="-251.8" font-family="Sans-Serif" font-size="14.00">time</text>
<text text-anchor="middle" x="121.5" y="-236.8" font-family="Sans-Serif" font-size="14.00">→ client&#45;1</text>
</g>
<!-- client&#45;1 @ wait / 2 ; client&#45;1 &#45;&gt; request@0 / client&#45;1 &#45;&gt; server , server &#45;&gt; response@0 / client&#45;1 &#45;&gt; client&#45;1&#45;&gt;client&#45;1 @ wait / 1 ; client&#45;1 &#45;&gt; request@0 / client&#45;1 &#45;&gt; server -->
<g id="edge15" class="edge">
<title>client&#45;1 @ wait / 2 ; client&#45;1 &#45;&gt; request@0 / client&#45;1 &#45;&gt; server , server &#45;&gt; response@0 / client&#45;1 &#45;&gt; client&#45;1&#45;&gt;client&#45;1 @ wait / 1 ; client&#45;1 &#45;&gt; request@0 / client&#45;1 &#45;&gt; server</title>
<path fill="none" stroke="black" stroke-width="3" d="M234.29,-468.35C227.17,-518.63 216.28,-632.42 246.5,-721 256.05,-748.98 276.48,-775.79 293.15,-794.44"/>
<polygon fill="black" stroke="black" stroke-width="3" points="290.68,-796.91 300.02,-801.91 295.83,-792.18 290.68,-796.91"/>
<text text-anchor="middle" x="298" y="-638.8" font-family="Sans-Serif" font-size="14.00">server →</text>
<text text-anchor="middle" x="298" y="-623.8" font-family="Sans-Serif" font-size="14.00">response@0 / client&#45;1</text>
<text text-anchor="middle" x="298" y="-608.8" font-family="Sans-Serif" font-size="14.00">→ client&#45;1</text>
</g>
<!-- client&#45;1 @ wait / 2 ; server &#45;&gt; response@0 / client&#45;1 &#45;&gt; client&#45;1 -->
<g id="node11" class="node">
<title>client&#45;1 @ wait / 2 ; server &#45;&gt; response@0 / client&#45;1 &#45;&gt; client&#45;1</title>
<polygon fill="palegreen" stroke="palegreen" points="386,-334 115,-334 115,-296 386,-296 386,-334"/>
<text text-anchor="middle" x="250.5" y="-318.8" font-family="Sans-Serif" font-size="14.00">client&#45;1 @ wait / 2</text>
<text text-anchor="middle" x="250.5" y="-303.8" font-family="Sans-Serif" font-size="14.00">server &#45;&gt; response@0 / client&#45;1 &#45;&gt; client&#45;1</text>
</g>
<!-- client&#45;1 @ wait / 2 ; client&#45;1 &#45;&gt; request@0 / client&#45;1 &#45;&gt; server , server &#45;&gt; response@0 / client&#45;1 &#45;&gt; client&#45;1&#45;&gt;client&#45;1 @ wait / 2 ; server &#45;&gt; response@0 / client&#45;1 &#45;&gt; client&#45;1 -->
<g id="edge14" class="edge">
<title>client&#45;1 @ wait / 2 ; client&#45;1 &#45;&gt; request@0 / client&#45;1 &#45;&gt; server , server &#45;&gt; response@0 / client&#45;1 &#45;&gt; client&#45;1&#45;&gt;client&#45;1 @ wait / 2 ; server &#45;&gt; response@0 / client&#45;1 &#45;&gt; client&#45;1</title>
<path fill="none" stroke="black" stroke-width="3" d="M240.99,-414.7C242.97,-394.11 245.75,-365.3 247.79,-344.12"/>
<polygon fill="black" stroke="black" stroke-width="3" points="251.28,-344.4 248.75,-334.11 244.31,-343.73 251.28,-344.4"/>
<text text-anchor="middle" x="308.5" y="-385.8" font-family="Sans-Serif" font-size="14.00">client&#45;1 →</text>
<text text-anchor="middle" x="308.5" y="-370.8" font-family="Sans-Serif" font-size="14.00">request@0 / client&#45;1</text>
<text text-anchor="middle" x="308.5" y="-355.8" font-family="Sans-Serif" font-size="14.00">→ server</text>
</g>
<!-- client&#45;1 @ wait / 2 ; client&#45;1 &#45;&gt; request@0 / client&#45;1 &#45;&gt; server&#45;&gt;client&#45;1 @ wait / 2 ; client&#45;1 &#45;&gt; request@0 / client&#45;1 &#45;&gt; server , server &#45;&gt; response@0 / client&#45;1 &#45;&gt; client&#45;1 -->
<g id="edge16" class="edge">
<title>client&#45;1 @ wait / 2 ; client&#45;1 &#45;&gt; request@0 / client&#45;1 &#45;&gt; server&#45;&gt;client&#45;1 @ wait / 2 ; client&#45;1 &#45;&gt; request@0 / client&#45;1 &#45;&gt; server , server &#45;&gt; response@0 / client&#45;1 &#45;&gt; client&#45;1</title>
<path fill="none" stroke="black" stroke-width="3" d="M364.12,-548.9C341.3,-529.56 304.64,-498.52 276.81,-474.94"/>
<polygon fill="black" stroke="black" stroke-width="3" points="278.74,-471.99 268.84,-468.2 274.21,-477.33 278.74,-471.99"/>
<text text-anchor="middle" x="375" y="-519.8" font-family="Sans-Serif" font-size="14.00">@ busy →</text>
<text text-anchor="middle" x="375" y="-504.8" font-family="Sans-Serif" font-size="14.00">time</text>
<text text-anchor="middle" x="375" y="-489.8" font-family="Sans-Serif" font-size="14.00">→ server</text>
</g>
<!-- client&#45;1 @ wait / 2 ; server &#45;&gt; response@0 / client&#45;1 &#45;&gt; client&#45;1&#45;&gt;client&#45;1 @ wait / 1 -->
<g id="edge19" class="edge">
<title>client&#45;1 @ wait / 2 ; server &#45;&gt; response@0 / client&#45;1 &#45;&gt; client&#45;1&#45;&gt;client&#45;1 @ wait / 1</title>
<path fill="none" stroke="black" stroke-width="3" d="M277.55,-295.98C284.26,-290.71 291.08,-284.57 296.5,-278 310.79,-260.67 301.85,-246.89 319.5,-233 346.43,-211.8 361.63,-224.74 394.5,-215 399.82,-213.42 405.33,-211.68 410.82,-209.87"/>
<polygon fill="black" stroke="black" stroke-width="3" points="412.29,-213.07 420.64,-206.55 410.05,-206.43 412.29,-213.07"/>
<text text-anchor="middle" x="386" y="-266.8" font-family="Sans-Serif" font-size="14.00">server →</text>
<text text-anchor="middle" x="386" y="-251.8" font-family="Sans-Serif" font-size="14.00">response@0 / client&#45;1</text>
<text text-anchor="middle" x="386" y="-236.8" font-family="Sans-Serif" font-size="14.00">→ client&#45;1</text>
</g>
<!-- client&#45;1 @ wait / 2 ; server &#45;&gt; response@0 / client&#45;1 &#45;&gt; client&#45;1 , server &#45;&gt; response@1 / client&#45;1 &#45;&gt; client&#45;1 -->
<g id="node12" class="node">
<title>client&#45;1 @ wait / 2 ; server &#45;&gt; response@0 / client&#45;1 &#45;&gt; client&#45;1 , server &#45;&gt; response@1 / client&#45;1 &#45;&gt; client&#45;1</title>
<polygon fill="palegreen" stroke="palegreen" points="386,-215 115,-215 115,-162 386,-162 386,-215"/>
<text text-anchor="middle" x="250.5" y="-199.8" font-family="Sans-Serif" font-size="14.00">client&#45;1 @ wait / 2</text>
<text text-anchor="middle" x="250.5" y="-184.8" font-family="Sans-Serif" font-size="14.00">server &#45;&gt; response@0 / client&#45;1 &#45;&gt; client&#45;1</text>
<text text-anchor="middle" x="250.5" y="-169.8" font-family="Sans-Serif" font-size="14.00">server &#45;&gt; response@1 / client&#45;1 &#45;&gt; client&#45;1</text>
</g>
<!-- client&#45;1 @ wait / 2 ; server &#45;&gt; response@0 / client&#45;1 &#45;&gt; client&#45;1&#45;&gt;client&#45;1 @ wait / 2 ; server &#45;&gt; response@0 / client&#45;1 &#45;&gt; client&#45;1 , server &#45;&gt; response@1 / client&#45;1 &#45;&gt; client&#45;1 -->
<g id="edge18" class="edge">
<title>client&#45;1 @ wait / 2 ; server &#45;&gt; response@0 / client&#45;1 &#45;&gt; client&#45;1&#45;&gt;client&#45;1 @ wait / 2 ; server &#45;&gt; response@0 / client&#45;1 &#45;&gt; client&#45;1 , server &#45;&gt; response@1 / client&#45;1 &#45;&gt; client&#45;1</title>
<path fill="none" stroke="black" stroke-width="3" d="M238.62,-295.64C235.71,-290.18 233,-284.04 231.5,-278 226.69,-258.59 227.41,-252.58 231.5,-233 232.08,-230.2 232.86,-227.36 233.76,-224.55"/>
<polygon fill="black" stroke="black" stroke-width="3" points="237.05,-225.74 237.24,-215.15 230.49,-223.31 237.05,-225.74"/>
<text text-anchor="middle" x="264" y="-266.8" font-family="Sans-Serif" font-size="14.00">@ busy →</text>
<text text-anchor="middle" x="264" y="-251.8" font-family="Sans-Serif" font-size="14.00">time</text>
<text text-anchor="middle" x="264" y="-236.8" font-family="Sans-Serif" font-size="14.00">→ server</text>
</g>
<!-- client&#45;1 @ wait / 2 ; server &#45;&gt; response@0 / client&#45;1 &#45;&gt; client&#45;1 , server &#45;&gt; response@1 / client&#45;1 &#45;&gt; client&#45;1&#45;&gt;client&#45;1 @ wait / 1 ; server &#45;&gt; response@0 / client&#45;1 &#45;&gt; client&#45;1 -->
<g id="edge17" class="edge">
<title>client&#45;1 @ wait / 2 ; server &#45;&gt; response@0 / client&#45;1 &#45;&gt; client&#45;1 , server &#45;&gt; response@1 / client&#45;1 &#45;&gt; client&#45;1&#45;&gt;client&#45;1 @ wait / 1 ; server &#45;&gt; response@0 / client&#45;1 &#45;&gt; client&#45;1</title>
<path fill="none" stroke="black" stroke-width="3" d="M226.67,-161.7C206.87,-140.26 178.83,-109.91 159.09,-88.54"/>
<polygon fill="black" stroke="black" stroke-width="3" points="161.58,-86.08 152.23,-81.11 156.44,-90.83 161.58,-86.08"/>
<text text-anchor="middle" x="277" y="-132.8" font-family="Sans-Serif" font-size="14.00">server →</text>
<text text-anchor="middle" x="277" y="-117.8" font-family="Sans-Serif" font-size="14.00">response@0 / client&#45;1</text>
<text text-anchor="middle" x="277" y="-102.8" font-family="Sans-Serif" font-size="14.00">→ client&#45;1</text>
</g>
</g>
</svg>
