<?xml version="1.0" encoding="UTF-8" standalone="no"?>
<!DOCTYPE svg PUBLIC "-//W3C//DTD SVG 1.1//EN"
 "http://www.w3.org/Graphics/SVG/1.1/DTD/svg11.dtd">
<!-- Generated by graphviz version 2.46.0 (0)
 -->
<!-- Title: G Pages: 1 -->
<svg width="480pt" height="592pt"
 viewBox="0.00 0.00 479.50 592.00" xmlns="http://www.w3.org/2000/svg" xmlns:xlink="http://www.w3.org/1999/xlink">
<g id="graph0" class="graph" transform="scale(1 1) rotate(0) translate(4 588)">
<title>G</title>
<polygon fill="white" stroke="transparent" points="-4,4 -4,-588 475.5,-588 475.5,4 -4,4"/>
<text text-anchor="middle" x="235.75" y="-13.4" font-family="Sans-Serif" font-size="32.00">Invalid Server Detail</text>
<!-- server &#8594; | response | &#8594; client&#45;0 | server @ busy =&gt; server @ ready -->
<g id="node1" class="node">
<title>server &#8594; | response | &#8594; client&#45;0 | server @ busy =&gt; server @ ready</title>
<polygon fill="paleturquoise" stroke="paleturquoise" points="365.5,-371.5 365.5,-440.5 443.5,-440.5 443.5,-371.5 365.5,-371.5"/>
<text text-anchor="middle" x="404.5" y="-425.3" font-family="Sans-Serif" font-size="14.00">server →</text>
<polyline fill="none" stroke="paleturquoise" points="365.5,-417.5 443.5,-417.5 "/>
<text text-anchor="middle" x="404.5" y="-402.3" font-family="Sans-Serif" font-size="14.00">response</text>
<polyline fill="none" stroke="paleturquoise" points="365.5,-394.5 443.5,-394.5 "/>
<text text-anchor="middle" x="404.5" y="-379.3" font-family="Sans-Serif" font-size="14.00">→ client&#45;0</text>
</g>
<!-- @ busy &#8594; | time | &#8594; server | server @ busy =&gt; server @ ready -->
<g id="node2" class="node">
<title>@ busy &#8594; | time | &#8594; server | server @ busy =&gt; server @ ready</title>
<polygon fill="paleturquoise" stroke="paleturquoise" points="364,-514.5 364,-583.5 445,-583.5 445,-514.5 364,-514.5"/>
<text text-anchor="middle" x="404.5" y="-568.3" font-family="Sans-Serif" font-size="14.00">@ busy →</text>
<polyline fill="none" stroke="paleturquoise" points="364,-560.5 445,-560.5 "/>
<text text-anchor="middle" x="404.5" y="-545.3" font-family="Sans-Serif" font-size="14.00">time</text>
<polyline fill="none" stroke="paleturquoise" points="364,-537.5 445,-537.5 "/>
<text text-anchor="middle" x="404.5" y="-522.3" font-family="Sans-Serif" font-size="14.00">→ server</text>
</g>
<!-- server @ busy =&gt; @ busy &#45;&gt; time &#45;&gt; server =&gt; server @ ready -->
<g id="node3" class="node">
<title>server @ busy =&gt; @ busy &#45;&gt; time &#45;&gt; server =&gt; server @ ready</title>
<polygon fill="none" stroke="#0063cd" stroke-width="4" points="372,-478 371,-478 371,-477 372,-477 372,-478"/>
</g>
<!-- @ busy &#8594; | time | &#8594; server | server @ busy =&gt; server @ ready&#45;&gt;server @ busy =&gt; @ busy &#45;&gt; time &#45;&gt; server =&gt; server @ ready -->
<g id="edge2" class="edge">
<title>@ busy &#8594; | time | &#8594; server | server @ busy =&gt; server @ ready&#45;&gt;server @ busy =&gt; @ busy &#45;&gt; time &#45;&gt; server =&gt; server @ ready</title>
<path fill="none" stroke="mediumblue" stroke-width="3" d="M388.58,-514.23C380.4,-496.89 372.04,-479.15 371.53,-478.05"/>
</g>
<!-- server @ busy =&gt; server @ ready -->
<g id="node7" class="node">
<title>server @ busy =&gt; server @ ready</title>
<polygon fill="none" stroke="#0063cd" stroke-width="4" points="309,-81 308,-81 308,-80 309,-80 309,-81"/>
</g>
<!-- @ busy &#8594; | time | &#8594; server | server @ busy =&gt; server @ ready&#45;&gt;server @ busy =&gt; server @ ready -->
<g id="edge6" class="edge">
<title>@ busy &#8594; | time | &#8594; server | server @ busy =&gt; server @ ready&#45;&gt;server @ busy =&gt; server @ ready</title>
<path fill="none" stroke="mediumblue" stroke-width="3" d="M430.79,-514.47C449.56,-487.14 471.5,-446.7 471.5,-407 471.5,-407 471.5,-407 471.5,-191 471.5,-117.07 354.85,-89.5 318.91,-82.76"/>
<polygon fill="mediumblue" stroke="mediumblue" stroke-width="3" points="319.06,-79.24 308.62,-81.02 317.89,-86.14 319.06,-79.24"/>
</g>
<!-- server @ busy =&gt; @ busy &#45;&gt; time &#45;&gt; server =&gt; server @ ready&#45;&gt;server &#8594; | response | &#8594; client&#45;0 | server @ busy =&gt; server @ ready -->
<g id="edge1" class="edge">
<title>server @ busy =&gt; @ busy &#45;&gt; time &#45;&gt; server =&gt; server @ ready&#45;&gt;server &#8594; | response | &#8594; client&#45;0 | server @ busy =&gt; server @ ready</title>
<path fill="none" stroke="mediumblue" stroke-width="3" d="M371.52,-476.95C371.94,-476.07 377.64,-463.97 384.2,-450.07"/>
<polygon fill="mediumblue" stroke="mediumblue" stroke-width="3" points="387.48,-451.31 388.58,-440.78 381.15,-448.33 387.48,-451.31"/>
</g>
<!-- server @ busy =&gt; @ busy &#45;&gt; time &#45;&gt; server =&gt; server @ ready&#45;2 -->
<g id="node4" class="node">
<title>server @ busy =&gt; @ busy &#45;&gt; time &#45;&gt; server =&gt; server @ ready&#45;2</title>
<polygon fill="none" stroke="darkgreen" stroke-width="2" points="234,-406.5 233,-406.5 233,-405.5 234,-405.5 234,-406.5"/>
</g>
<!-- server @ busy =&gt; @ busy &#45;&gt; time &#45;&gt; server =&gt; server @ ready&#45;&gt;server @ busy =&gt; @ busy &#45;&gt; time &#45;&gt; server =&gt; server @ ready&#45;2 -->
<g id="edge4" class="edge">
<title>server @ busy =&gt; @ busy &#45;&gt; time &#45;&gt; server =&gt; server @ ready&#45;&gt;server @ busy =&gt; @ busy &#45;&gt; time &#45;&gt; server =&gt; server @ ready&#45;2</title>
<path fill="none" stroke="darkgreen" stroke-width="3" d="M371.4,-476.95C367.29,-474.86 237.65,-409.1 233.6,-407.05"/>
</g>
<!-- server @ ready -->
<g id="node6" class="node">
<title>server @ ready</title>
<polygon fill="palegreen" stroke="palegreen" points="213.5,-318 103.5,-318 103.5,-282 213.5,-282 213.5,-318"/>
<text text-anchor="middle" x="158.5" y="-296.3" font-family="Sans-Serif" font-size="14.00">server @ ready</text>
</g>
<!-- server @ busy =&gt; @ busy &#45;&gt; time &#45;&gt; server =&gt; server @ ready&#45;2&#45;&gt;server @ ready -->
<g id="edge5" class="edge">
<title>server @ busy =&gt; @ busy &#45;&gt; time &#45;&gt; server =&gt; server @ ready&#45;2&#45;&gt;server @ ready</title>
<path fill="none" stroke="darkgreen" stroke-width="3" d="M233.45,-404.92C231.92,-402.81 198.61,-356.61 176.91,-326.53"/>
<polygon fill="darkgreen" stroke="darkgreen" stroke-width="3" points="179.56,-324.22 170.87,-318.15 173.88,-328.31 179.56,-324.22"/>
</g>
<!-- server @ busy -->
<g id="node5" class="node">
<title>server @ busy</title>
<polygon fill="palegreen" stroke="palegreen" points="361,-154 256,-154 256,-118 361,-118 361,-154"/>
<text text-anchor="middle" x="308.5" y="-132.3" font-family="Sans-Serif" font-size="14.00">server @ busy</text>
</g>
<!-- server @ busy&#45;&gt;server @ busy =&gt; @ busy &#45;&gt; time &#45;&gt; server =&gt; server @ ready -->
<g id="edge3" class="edge">
<title>server @ busy&#45;&gt;server @ busy =&gt; @ busy &#45;&gt; time &#45;&gt; server =&gt; server @ ready</title>
<path fill="none" stroke="darkgreen" stroke-width="3" d="M317.52,-154.27C326.03,-172.19 337.5,-201.3 337.5,-228 337.5,-301 337.5,-301 337.5,-301 337.5,-363.79 340.06,-380.4 356.5,-441 360.9,-457.21 370.85,-475.8 371.47,-476.94"/>
</g>
<!-- server @ busy&#45;&gt;server @ busy =&gt; server @ ready -->
<g id="edge7" class="edge">
<title>server @ busy&#45;&gt;server @ busy =&gt; server @ ready</title>
<path fill="none" stroke="darkgreen" stroke-width="3" d="M308.5,-117.91C308.5,-102.59 308.5,-82.31 308.5,-81.06"/>
</g>
<!-- server @ ready =&gt; server @ busy -->
<g id="node10" class="node">
<title>server @ ready =&gt; server @ busy</title>
<polygon fill="none" stroke="#0063cd" stroke-width="4" points="271,-229 270,-229 270,-228 271,-228 271,-229"/>
</g>
<!-- server @ ready&#45;&gt;server @ ready =&gt; server @ busy -->
<g id="edge11" class="edge">
<title>server @ ready&#45;&gt;server @ ready =&gt; server @ busy</title>
<path fill="none" stroke="darkgreen" stroke-width="3" d="M185.9,-281.88C218.02,-261.8 267.3,-231 270.35,-229.09"/>
</g>
<!-- server @ ready =&gt; server @ busy ! agent: server is invalid because: client&#45;1 is banned -->
<g id="node13" class="node">
<title>server @ ready =&gt; server @ busy ! agent: server is invalid because: client&#45;1 is banned</title>
<polygon fill="none" stroke="#0063cd" stroke-width="4" points="91,-229 90,-229 90,-228 91,-228 91,-229"/>
</g>
<!-- server @ ready&#45;&gt;server @ ready =&gt; server @ busy ! agent: server is invalid because: client&#45;1 is banned -->
<g id="edge15" class="edge">
<title>server @ ready&#45;&gt;server @ ready =&gt; server @ busy ! agent: server is invalid because: client&#45;1 is banned</title>
<path fill="none" stroke="crimson" stroke-width="3" d="M141.69,-281.7C122.18,-261.62 92.43,-230.99 90.59,-229.09"/>
</g>
<!-- server @ busy =&gt; server @ ready&#45;2 -->
<g id="node8" class="node">
<title>server @ busy =&gt; server @ ready&#45;2</title>
<polygon fill="none" stroke="darkgreen" stroke-width="2" points="265,-44 264,-44 264,-43 265,-43 265,-44"/>
</g>
<!-- server @ busy =&gt; server @ ready&#45;&gt;server @ busy =&gt; server @ ready&#45;2 -->
<g id="edge8" class="edge">
<title>server @ busy =&gt; server @ ready&#45;&gt;server @ busy =&gt; server @ ready&#45;2</title>
<path fill="none" stroke="darkgreen" stroke-width="3" d="M308.37,-79.9C305.87,-77.85 267.04,-46.08 264.62,-44.1"/>
</g>
<!-- server @ busy =&gt; server @ ready&#45;2&#45;&gt;server @ ready -->
<g id="edge9" class="edge">
<title>server @ busy =&gt; server @ ready&#45;2&#45;&gt;server @ ready</title>
<path fill="none" stroke="darkgreen" stroke-width="3" d="M264.38,-44.13C261.85,-46.89 221.5,-91.67 221.5,-135 221.5,-192 221.5,-192 221.5,-192 221.5,-223.59 200.86,-254.08 183.2,-274.37"/>
<polygon fill="darkgreen" stroke="darkgreen" stroke-width="3" points="180.51,-272.13 176.38,-281.89 185.69,-276.83 180.51,-272.13"/>
</g>
<!-- client&#45;0 &#8594; | request | &#8594; server | server @ ready =&gt; server @ busy -->
<g id="node9" class="node">
<title>client&#45;0 &#8594; | request | &#8594; server | server @ ready =&gt; server @ busy</title>
<polygon fill="paleturquoise" stroke="paleturquoise" points="231.5,-265.5 231.5,-334.5 309.5,-334.5 309.5,-265.5 231.5,-265.5"/>
<text text-anchor="middle" x="270.5" y="-319.3" font-family="Sans-Serif" font-size="14.00">client&#45;0 →</text>
<polyline fill="none" stroke="paleturquoise" points="231.5,-311.5 309.5,-311.5 "/>
<text text-anchor="middle" x="270.5" y="-296.3" font-family="Sans-Serif" font-size="14.00">request</text>
<polyline fill="none" stroke="paleturquoise" points="231.5,-288.5 309.5,-288.5 "/>
<text text-anchor="middle" x="270.5" y="-273.3" font-family="Sans-Serif" font-size="14.00">→ server</text>
</g>
<!-- client&#45;0 &#8594; | request | &#8594; server | server @ ready =&gt; server @ busy&#45;&gt;server @ ready =&gt; server @ busy -->
<g id="edge10" class="edge">
<title>client&#45;0 &#8594; | request | &#8594; server | server @ ready =&gt; server @ busy&#45;&gt;server @ ready =&gt; server @ busy</title>
<path fill="none" stroke="mediumblue" stroke-width="3" d="M270.5,-265.23C270.5,-255.75 270.5,-246.14 270.5,-239.21"/>
<polygon fill="mediumblue" stroke="mediumblue" stroke-width="3" points="274,-239.05 270.5,-229.05 267,-239.05 274,-239.05"/>
</g>
<!-- server @ ready =&gt; server @ busy&#45;2 -->
<g id="node11" class="node">
<title>server @ ready =&gt; server @ busy&#45;2</title>
<polygon fill="none" stroke="darkgreen" stroke-width="2" points="290,-192 289,-192 289,-191 290,-191 290,-192"/>
</g>
<!-- server @ ready =&gt; server @ busy&#45;&gt;server @ ready =&gt; server @ busy&#45;2 -->
<g id="edge12" class="edge">
<title>server @ ready =&gt; server @ busy&#45;&gt;server @ ready =&gt; server @ busy&#45;2</title>
<path fill="none" stroke="darkgreen" stroke-width="3" d="M270.55,-227.9C271.63,-225.85 288.4,-194.08 289.45,-192.1"/>
</g>
<!-- server @ ready =&gt; server @ busy&#45;2&#45;&gt;server @ busy -->
<g id="edge13" class="edge">
<title>server @ ready =&gt; server @ busy&#45;2&#45;&gt;server @ busy</title>
<path fill="none" stroke="darkgreen" stroke-width="3" d="M289.55,-190.85C290.1,-189.3 294.64,-176.4 299.13,-163.62"/>
<polygon fill="darkgreen" stroke="darkgreen" stroke-width="3" points="302.48,-164.65 302.5,-154.06 295.88,-162.33 302.48,-164.65"/>
</g>
<!-- client&#45;1 &#8594; | request | &#8594; server | server @ ready =&gt; server @ busy ! agent: server is invalid because: client&#45;1 is banned -->
<g id="node12" class="node">
<title>client&#45;1 &#8594; | request | &#8594; server | server @ ready =&gt; server @ busy ! agent: server is invalid because: client&#45;1 is banned</title>
<polygon fill="paleturquoise" stroke="paleturquoise" points="7.5,-265.5 7.5,-334.5 85.5,-334.5 85.5,-265.5 7.5,-265.5"/>
<text text-anchor="middle" x="46.5" y="-319.3" font-family="Sans-Serif" font-size="14.00">client&#45;1 →</text>
<polyline fill="none" stroke="paleturquoise" points="7.5,-311.5 85.5,-311.5 "/>
<text text-anchor="middle" x="46.5" y="-296.3" font-family="Sans-Serif" font-size="14.00">request</text>
<polyline fill="none" stroke="paleturquoise" points="7.5,-288.5 85.5,-288.5 "/>
<text text-anchor="middle" x="46.5" y="-273.3" font-family="Sans-Serif" font-size="14.00">→ server</text>
</g>
<!-- client&#45;1 &#8594; | request | &#8594; server | server @ ready =&gt; server @ busy ! agent: server is invalid because: client&#45;1 is banned&#45;&gt;server @ ready =&gt; server @ busy ! agent: server is invalid because: client&#45;1 is banned -->
<g id="edge14" class="edge">
<title>client&#45;1 &#8594; | request | &#8594; server | server @ ready =&gt; server @ busy ! agent: server is invalid because: client&#45;1 is banned&#45;&gt;server @ ready =&gt; server @ busy ! agent: server is invalid because: client&#45;1 is banned</title>
<path fill="none" stroke="mediumblue" stroke-width="3" d="M67.73,-265.23C74.11,-255.07 80.59,-244.77 84.99,-237.76"/>
<polygon fill="mediumblue" stroke="mediumblue" stroke-width="3" points="88.11,-239.38 90.47,-229.05 82.18,-235.66 88.11,-239.38"/>
</g>
<!-- server @ ready =&gt; server @ busy ! agent: server is invalid because: client&#45;1 is banned&#45;2 -->
<g id="node14" class="node">
<title>server @ ready =&gt; server @ busy ! agent: server is invalid because: client&#45;1 is banned&#45;2</title>
<polygon fill="none" stroke="darkgreen" stroke-width="2" points="91,-192 90,-192 90,-191 91,-191 91,-192"/>
</g>
<!-- server @ ready =&gt; server @ busy ! agent: server is invalid because: client&#45;1 is banned&#45;&gt;server @ ready =&gt; server @ busy ! agent: server is invalid because: client&#45;1 is banned&#45;2 -->
<g id="edge16" class="edge">
<title>server @ ready =&gt; server @ busy ! agent: server is invalid because: client&#45;1 is banned&#45;&gt;server @ ready =&gt; server @ busy ! agent: server is invalid because: client&#45;1 is banned&#45;2</title>
<path fill="none" stroke="crimson" stroke-width="3" d="M90.5,-227.9C90.5,-225.85 90.5,-194.08 90.5,-192.1"/>
</g>
<!-- server @ busy ! agent: server is invalid because: client&#45;1 is banned -->
<g id="node15" class="node">
<title>server @ busy ! agent: server is invalid because: client&#45;1 is banned</title>
<polygon fill="lightcoral" stroke="lightcoral" points="181,-155 0,-155 0,-117 181,-117 181,-155"/>
<text text-anchor="middle" x="90.5" y="-139.8" font-family="Sans-Serif" font-size="14.00">agent: server is invalid</text>
<text text-anchor="middle" x="90.5" y="-124.8" font-family="Sans-Serif" font-size="14.00">because: client&#45;1 is banned</text>
</g>
<!-- server @ ready =&gt; server @ busy ! agent: server is invalid because: client&#45;1 is banned&#45;2&#45;&gt;server @ busy ! agent: server is invalid because: client&#45;1 is banned -->
<g id="edge17" class="edge">
<title>server @ ready =&gt; server @ busy ! agent: server is invalid because: client&#45;1 is banned&#45;2&#45;&gt;server @ busy ! agent: server is invalid because: client&#45;1 is banned</title>
<path fill="none" stroke="crimson" stroke-width="3" d="M90.5,-190.85C90.5,-189.37 90.5,-177.53 90.5,-165.33"/>
<polygon fill="crimson" stroke="crimson" stroke-width="3" points="94,-165.22 90.5,-155.22 87,-165.22 94,-165.22"/>
</g>
</g>
</svg>
