<?xml version="1.0" encoding="UTF-8" standalone="no"?>
<!DOCTYPE svg PUBLIC "-//W3C//DTD SVG 1.1//EN"
 "http://www.w3.org/Graphics/SVG/1.1/DTD/svg11.dtd">
<!-- Generated by graphviz version 2.46.0 (0)
 -->
<!-- Title: G Pages: 1 -->
<svg width="472pt" height="518pt"
 viewBox="0.00 0.00 471.50 518.00" xmlns="http://www.w3.org/2000/svg" xmlns:xlink="http://www.w3.org/1999/xlink">
<g id="graph0" class="graph" transform="scale(1 1) rotate(0) translate(4 514)">
<title>G</title>
<polygon fill="white" stroke="transparent" points="-4,4 -4,-514 467.5,-514 467.5,4 -4,4"/>
<text text-anchor="middle" x="231.75" y="-13.4" font-family="Sans-Serif" font-size="32.00">Invalid Server Detail</text>
<!-- server &#8594; | response@0 | &#8594; client&#45;0 | server @ busy =&gt; server @ ready -->
<g id="node1" class="node">
<title>server &#8594; | response@0 | &#8594; client&#45;0 | server @ busy =&gt; server @ ready</title>
<polygon fill="paleturquoise" stroke="paleturquoise" points="0,-297.5 0,-366.5 94,-366.5 94,-297.5 0,-297.5"/>
<text text-anchor="middle" x="47" y="-351.3" font-family="Sans-Serif" font-size="14.00">server →</text>
<polyline fill="none" stroke="paleturquoise" points="0,-343.5 94,-343.5 "/>
<text text-anchor="middle" x="47" y="-328.3" font-family="Sans-Serif" font-size="14.00">response@0</text>
<polyline fill="none" stroke="paleturquoise" points="0,-320.5 94,-320.5 "/>
<text text-anchor="middle" x="47" y="-305.3" font-family="Sans-Serif" font-size="14.00">→ client&#45;0</text>
</g>
<!-- @ busy &#8594; | time | &#8594; server | server @ busy =&gt; server @ ready -->
<g id="node2" class="node">
<title>@ busy &#8594; | time | &#8594; server | server @ busy =&gt; server @ ready</title>
<polygon fill="paleturquoise" stroke="paleturquoise" points="95.5,-440.5 95.5,-509.5 176.5,-509.5 176.5,-440.5 95.5,-440.5"/>
<text text-anchor="middle" x="136" y="-494.3" font-family="Sans-Serif" font-size="14.00">@ busy →</text>
<polyline fill="none" stroke="paleturquoise" points="95.5,-486.5 176.5,-486.5 "/>
<text text-anchor="middle" x="136" y="-471.3" font-family="Sans-Serif" font-size="14.00">time</text>
<polyline fill="none" stroke="paleturquoise" points="95.5,-463.5 176.5,-463.5 "/>
<text text-anchor="middle" x="136" y="-448.3" font-family="Sans-Serif" font-size="14.00">→ server</text>
</g>
<!-- server @ busy =&gt; @ busy &#45;&gt; time &#45;&gt; server =&gt; server @ ready -->
<g id="node3" class="node">
<title>server @ busy =&gt; @ busy &#45;&gt; time &#45;&gt; server =&gt; server @ ready</title>
<polygon fill="none" stroke="#0063cd" stroke-width="4" points="136.5,-404 135.5,-404 135.5,-403 136.5,-403 136.5,-404"/>
</g>
<!-- @ busy &#8594; | time | &#8594; server | server @ busy =&gt; server @ ready&#45;&gt;server @ busy =&gt; @ busy &#45;&gt; time &#45;&gt; server =&gt; server @ ready -->
<g id="edge2" class="edge">
<title>@ busy &#8594; | time | &#8594; server | server @ busy =&gt; server @ ready&#45;&gt;server @ busy =&gt; @ busy &#45;&gt; time &#45;&gt; server =&gt; server @ ready</title>
<path fill="none" stroke="mediumblue" stroke-width="3" d="M136,-440.23C136,-422.89 136,-405.15 136,-404.05"/>
</g>
<!-- server @ busy =&gt; @ busy &#45;&gt; time &#45;&gt; server =&gt; server @ ready&#45;&gt;server &#8594; | response@0 | &#8594; client&#45;0 | server @ busy =&gt; server @ ready -->
<g id="edge1" class="edge">
<title>server @ busy =&gt; @ busy &#45;&gt; time &#45;&gt; server =&gt; server @ ready&#45;&gt;server &#8594; | response@0 | &#8594; client&#45;0 | server @ busy =&gt; server @ ready</title>
<path fill="none" stroke="mediumblue" stroke-width="3" d="M135.94,-402.95C134.74,-402.01 117.02,-388.08 97.72,-372.89"/>
<polygon fill="mediumblue" stroke="mediumblue" stroke-width="3" points="99.71,-370.01 89.69,-366.57 95.38,-375.51 99.71,-370.01"/>
</g>
<!-- server @ busy =&gt; @ busy &#45;&gt; time &#45;&gt; server =&gt; server @ ready&#45;2 -->
<g id="node4" class="node">
<title>server @ busy =&gt; @ busy &#45;&gt; time &#45;&gt; server =&gt; server @ ready&#45;2</title>
<polygon fill="none" stroke="darkgreen" stroke-width="2" points="151.5,-332.5 150.5,-332.5 150.5,-331.5 151.5,-331.5 151.5,-332.5"/>
</g>
<!-- server @ busy =&gt; @ busy &#45;&gt; time &#45;&gt; server =&gt; server @ ready&#45;&gt;server @ busy =&gt; @ busy &#45;&gt; time &#45;&gt; server =&gt; server @ ready&#45;2 -->
<g id="edge4" class="edge">
<title>server @ busy =&gt; @ busy &#45;&gt; time &#45;&gt; server =&gt; server @ ready&#45;&gt;server @ busy =&gt; @ busy &#45;&gt; time &#45;&gt; server =&gt; server @ ready&#45;2</title>
<path fill="none" stroke="darkgreen" stroke-width="3" d="M136.01,-402.95C136.46,-400.86 150.55,-335.1 150.99,-333.05"/>
</g>
<!-- server &#8594; | response@1 | &#8594; client&#45;0 | server @ busy =&gt; server @ ready -->
<g id="node7" class="node">
<title>server &#8594; | response@1 | &#8594; client&#45;0 | server @ busy =&gt; server @ ready</title>
<polygon fill="paleturquoise" stroke="paleturquoise" points="170,-297.5 170,-366.5 264,-366.5 264,-297.5 170,-297.5"/>
<text text-anchor="middle" x="217" y="-351.3" font-family="Sans-Serif" font-size="14.00">server →</text>
<polyline fill="none" stroke="paleturquoise" points="170,-343.5 264,-343.5 "/>
<text text-anchor="middle" x="217" y="-328.3" font-family="Sans-Serif" font-size="14.00">response@1</text>
<polyline fill="none" stroke="paleturquoise" points="170,-320.5 264,-320.5 "/>
<text text-anchor="middle" x="217" y="-305.3" font-family="Sans-Serif" font-size="14.00">→ client&#45;0</text>
</g>
<!-- server @ busy =&gt; @ busy &#45;&gt; time &#45;&gt; server =&gt; server @ ready&#45;&gt;server &#8594; | response@1 | &#8594; client&#45;0 | server @ busy =&gt; server @ ready -->
<g id="edge6" class="edge">
<title>server @ busy =&gt; @ busy &#45;&gt; time &#45;&gt; server =&gt; server @ ready&#45;&gt;server &#8594; | response@1 | &#8594; client&#45;0 | server @ busy =&gt; server @ ready</title>
<path fill="none" stroke="mediumblue" stroke-width="3" d="M136.06,-402.95C137.13,-402.02 152.72,-388.55 169.94,-373.67"/>
<polygon fill="mediumblue" stroke="mediumblue" stroke-width="3" points="172.64,-375.96 177.92,-366.78 168.06,-370.67 172.64,-375.96"/>
</g>
<!-- server @ ready -->
<g id="node6" class="node">
<title>server @ ready</title>
<polygon fill="palegreen" stroke="palegreen" points="362,-244 252,-244 252,-208 362,-208 362,-244"/>
<text text-anchor="middle" x="307" y="-222.3" font-family="Sans-Serif" font-size="14.00">server @ ready</text>
</g>
<!-- server @ busy =&gt; @ busy &#45;&gt; time &#45;&gt; server =&gt; server @ ready&#45;2&#45;&gt;server @ ready -->
<g id="edge5" class="edge">
<title>server @ busy =&gt; @ busy &#45;&gt; time &#45;&gt; server =&gt; server @ ready&#45;2&#45;&gt;server @ ready</title>
<path fill="none" stroke="darkgreen" stroke-width="3" d="M151,-330.94C150.99,-329.63 150.95,-308.48 161,-297 186.96,-267.36 206.53,-278.14 242,-261 250,-257.14 258.46,-252.85 266.55,-248.67"/>
<polygon fill="darkgreen" stroke="darkgreen" stroke-width="3" points="268.22,-251.74 275.47,-244.01 264.98,-245.54 268.22,-251.74"/>
</g>
<!-- server @ busy -->
<g id="node5" class="node">
<title>server @ busy</title>
<polygon fill="palegreen" stroke="palegreen" points="215.5,-80 110.5,-80 110.5,-44 215.5,-44 215.5,-80"/>
<text text-anchor="middle" x="163" y="-58.3" font-family="Sans-Serif" font-size="14.00">server @ busy</text>
</g>
<!-- server @ busy&#45;&gt;server @ busy =&gt; @ busy &#45;&gt; time &#45;&gt; server =&gt; server @ ready -->
<g id="edge3" class="edge">
<title>server @ busy&#45;&gt;server @ busy =&gt; @ busy &#45;&gt; time &#45;&gt; server =&gt; server @ ready</title>
<path fill="none" stroke="darkgreen" stroke-width="3" d="M150.03,-80.1C138.02,-97.66 122,-126.28 122,-154 122,-227 122,-227 122,-227 122,-304.24 135.57,-399.96 135.99,-402.93"/>
</g>
<!-- server @ ready =&gt; server @ busy -->
<g id="node9" class="node">
<title>server @ ready =&gt; server @ busy</title>
<polygon fill="none" stroke="#0063cd" stroke-width="4" points="192.5,-155 191.5,-155 191.5,-154 192.5,-154 192.5,-155"/>
</g>
<!-- server @ ready&#45;&gt;server @ ready =&gt; server @ busy -->
<g id="edge8" class="edge">
<title>server @ ready&#45;&gt;server @ ready =&gt; server @ busy</title>
<path fill="none" stroke="darkgreen" stroke-width="3" d="M278.87,-207.88C245.89,-187.8 195.28,-157 192.15,-155.09"/>
</g>
<!-- server @ ready =&gt; server @ busy ! agent: server is invalid because: client&#45;1 is banned -->
<g id="node12" class="node">
<title>server @ ready =&gt; server @ busy ! agent: server is invalid because: client&#45;1 is banned</title>
<polygon fill="none" stroke="#0063cd" stroke-width="4" points="336.5,-155 335.5,-155 335.5,-154 336.5,-154 336.5,-155"/>
</g>
<!-- server @ ready&#45;&gt;server @ ready =&gt; server @ busy ! agent: server is invalid because: client&#45;1 is banned -->
<g id="edge12" class="edge">
<title>server @ ready&#45;&gt;server @ ready =&gt; server @ busy ! agent: server is invalid because: client&#45;1 is banned</title>
<path fill="none" stroke="crimson" stroke-width="3" d="M314.17,-207.7C322.49,-187.62 335.18,-156.99 335.96,-155.09"/>
</g>
<!-- client&#45;0 &#8594; | request@0 | &#8594; server | server @ ready =&gt; server @ busy -->
<g id="node8" class="node">
<title>client&#45;0 &#8594; | request@0 | &#8594; server | server @ ready =&gt; server @ busy</title>
<polygon fill="paleturquoise" stroke="paleturquoise" points="150.5,-191.5 150.5,-260.5 233.5,-260.5 233.5,-191.5 150.5,-191.5"/>
<text text-anchor="middle" x="192" y="-245.3" font-family="Sans-Serif" font-size="14.00">client&#45;0 →</text>
<polyline fill="none" stroke="paleturquoise" points="150.5,-237.5 233.5,-237.5 "/>
<text text-anchor="middle" x="192" y="-222.3" font-family="Sans-Serif" font-size="14.00">request@0</text>
<polyline fill="none" stroke="paleturquoise" points="150.5,-214.5 233.5,-214.5 "/>
<text text-anchor="middle" x="192" y="-199.3" font-family="Sans-Serif" font-size="14.00">→ server</text>
</g>
<!-- client&#45;0 &#8594; | request@0 | &#8594; server | server @ ready =&gt; server @ busy&#45;&gt;server @ ready =&gt; server @ busy -->
<g id="edge7" class="edge">
<title>client&#45;0 &#8594; | request@0 | &#8594; server | server @ ready =&gt; server @ busy&#45;&gt;server @ ready =&gt; server @ busy</title>
<path fill="none" stroke="mediumblue" stroke-width="3" d="M192,-191.23C192,-181.75 192,-172.14 192,-165.21"/>
<polygon fill="mediumblue" stroke="mediumblue" stroke-width="3" points="195.5,-165.05 192,-155.05 188.5,-165.05 195.5,-165.05"/>
</g>
<!-- server @ ready =&gt; server @ busy&#45;2 -->
<g id="node10" class="node">
<title>server @ ready =&gt; server @ busy&#45;2</title>
<polygon fill="none" stroke="darkgreen" stroke-width="2" points="178.5,-118 177.5,-118 177.5,-117 178.5,-117 178.5,-118"/>
</g>
<!-- server @ ready =&gt; server @ busy&#45;&gt;server @ ready =&gt; server @ busy&#45;2 -->
<g id="edge9" class="edge">
<title>server @ ready =&gt; server @ busy&#45;&gt;server @ ready =&gt; server @ busy&#45;2</title>
<path fill="none" stroke="darkgreen" stroke-width="3" d="M191.96,-153.9C191.16,-151.85 178.81,-120.08 178.04,-118.1"/>
</g>
<!-- server @ ready =&gt; server @ busy&#45;2&#45;&gt;server @ busy -->
<g id="edge10" class="edge">
<title>server @ ready =&gt; server @ busy&#45;2&#45;&gt;server @ busy</title>
<path fill="none" stroke="darkgreen" stroke-width="3" d="M177.96,-116.85C177.53,-115.31 174.01,-102.65 170.5,-90"/>
<polygon fill="darkgreen" stroke="darkgreen" stroke-width="3" points="173.79,-88.76 167.74,-80.06 167.04,-90.63 173.79,-88.76"/>
</g>
<!-- client&#45;1 &#8594; | request@0 | &#8594; server | server @ ready =&gt; server @ busy ! agent: server is invalid because: client&#45;1 is banned -->
<g id="node11" class="node">
<title>client&#45;1 &#8594; | request@0 | &#8594; server | server @ ready =&gt; server @ busy ! agent: server is invalid because: client&#45;1 is banned</title>
<polygon fill="paleturquoise" stroke="paleturquoise" points="380.5,-191.5 380.5,-260.5 463.5,-260.5 463.5,-191.5 380.5,-191.5"/>
<text text-anchor="middle" x="422" y="-245.3" font-family="Sans-Serif" font-size="14.00">client&#45;1 →</text>
<polyline fill="none" stroke="paleturquoise" points="380.5,-237.5 463.5,-237.5 "/>
<text text-anchor="middle" x="422" y="-222.3" font-family="Sans-Serif" font-size="14.00">request@0</text>
<polyline fill="none" stroke="paleturquoise" points="380.5,-214.5 463.5,-214.5 "/>
<text text-anchor="middle" x="422" y="-199.3" font-family="Sans-Serif" font-size="14.00">→ server</text>
</g>
<!-- client&#45;1 &#8594; | request@0 | &#8594; server | server @ ready =&gt; server @ busy ! agent: server is invalid because: client&#45;1 is banned&#45;&gt;server @ ready =&gt; server @ busy ! agent: server is invalid because: client&#45;1 is banned -->
<g id="edge11" class="edge">
<title>client&#45;1 &#8594; | request@0 | &#8594; server | server @ ready =&gt; server @ busy ! agent: server is invalid because: client&#45;1 is banned&#45;&gt;server @ ready =&gt; server @ busy ! agent: server is invalid because: client&#45;1 is banned</title>
<path fill="none" stroke="mediumblue" stroke-width="3" d="M380.76,-191.44C366.73,-180.01 352.45,-168.39 343.91,-161.43"/>
<polygon fill="mediumblue" stroke="mediumblue" stroke-width="3" points="346.03,-158.65 336.07,-155.05 341.61,-164.08 346.03,-158.65"/>
</g>
<!-- server @ ready =&gt; server @ busy ! agent: server is invalid because: client&#45;1 is banned&#45;2 -->
<g id="node13" class="node">
<title>server @ ready =&gt; server @ busy ! agent: server is invalid because: client&#45;1 is banned&#45;2</title>
<polygon fill="none" stroke="darkgreen" stroke-width="2" points="336.5,-118 335.5,-118 335.5,-117 336.5,-117 336.5,-118"/>
</g>
<!-- server @ ready =&gt; server @ busy ! agent: server is invalid because: client&#45;1 is banned&#45;&gt;server @ ready =&gt; server @ busy ! agent: server is invalid because: client&#45;1 is banned&#45;2 -->
<g id="edge13" class="edge">
<title>server @ ready =&gt; server @ busy ! agent: server is invalid because: client&#45;1 is banned&#45;&gt;server @ ready =&gt; server @ busy ! agent: server is invalid because: client&#45;1 is banned&#45;2</title>
<path fill="none" stroke="crimson" stroke-width="3" d="M336,-153.9C336,-151.85 336,-120.08 336,-118.1"/>
</g>
<!-- server @ busy ! agent: server is invalid because: client&#45;1 is banned -->
<g id="node14" class="node">
<title>server @ busy ! agent: server is invalid because: client&#45;1 is banned</title>
<polygon fill="lightcoral" stroke="lightcoral" points="426.5,-81 245.5,-81 245.5,-43 426.5,-43 426.5,-81"/>
<text text-anchor="middle" x="336" y="-65.8" font-family="Sans-Serif" font-size="14.00">agent: server is invalid</text>
<text text-anchor="middle" x="336" y="-50.8" font-family="Sans-Serif" font-size="14.00">because: client&#45;1 is banned</text>
</g>
<!-- server @ ready =&gt; server @ busy ! agent: server is invalid because: client&#45;1 is banned&#45;2&#45;&gt;server @ busy ! agent: server is invalid because: client&#45;1 is banned -->
<g id="edge14" class="edge">
<title>server @ ready =&gt; server @ busy ! agent: server is invalid because: client&#45;1 is banned&#45;2&#45;&gt;server @ busy ! agent: server is invalid because: client&#45;1 is banned</title>
<path fill="none" stroke="crimson" stroke-width="3" d="M336,-116.85C336,-115.37 336,-103.53 336,-91.33"/>
<polygon fill="crimson" stroke="crimson" stroke-width="3" points="339.5,-91.22 336,-81.22 332.5,-91.22 339.5,-91.22"/>
</g>
</g>
</svg>
