<?xml version="1.0" encoding="UTF-8" standalone="no"?>
<!DOCTYPE svg PUBLIC "-//W3C//DTD SVG 1.1//EN"
 "http://www.w3.org/Graphics/SVG/1.1/DTD/svg11.dtd">
<!-- Generated by graphviz version 2.44.1 (0)
 -->
<!-- Title: G Pages: 1 -->
<svg width="591pt" height="375pt"
 viewBox="0.00 0.00 591.00 375.00" xmlns="http://www.w3.org/2000/svg" xmlns:xlink="http://www.w3.org/1999/xlink">
<g id="graph0" class="graph" transform="scale(1 1) rotate(0) translate(4 371)">
<title>G</title>
<polygon fill="white" stroke="transparent" points="-4,4 -4,-371 587,-371 587,4 -4,4"/>
<text text-anchor="middle" x="291.5" y="-13.4" font-family="Sans-Serif" font-size="32.00">Invalid Server Detail</text>
<!-- server &rarr; | response@0 | &rarr; client&#45;0 -->
<g id="node1" class="node">
<title>server &rarr; | response@0 | &rarr; client&#45;0</title>
<polygon fill="paleturquoise" stroke="paleturquoise" points="387.5,-154.5 387.5,-223.5 481.5,-223.5 481.5,-154.5 387.5,-154.5"/>
<text text-anchor="middle" x="434.5" y="-208.3" font-family="Sans-Serif" font-size="14.00">server →</text>
<polyline fill="none" stroke="paleturquoise" points="387.5,-200.5 481.5,-200.5 "/>
<text text-anchor="middle" x="434.5" y="-185.3" font-family="Sans-Serif" font-size="14.00">response@0</text>
<polyline fill="none" stroke="paleturquoise" points="387.5,-177.5 481.5,-177.5 "/>
<text text-anchor="middle" x="434.5" y="-162.3" font-family="Sans-Serif" font-size="14.00">→ client&#45;0</text>
</g>
<!-- @ busy &rarr; | time | &rarr; server -->
<g id="node2" class="node">
<title>@ busy &rarr; | time | &rarr; server</title>
<polygon fill="paleturquoise" stroke="paleturquoise" points="214,-297.5 214,-366.5 295,-366.5 295,-297.5 214,-297.5"/>
<text text-anchor="middle" x="254.5" y="-351.3" font-family="Sans-Serif" font-size="14.00">@ busy →</text>
<polyline fill="none" stroke="paleturquoise" points="214,-343.5 295,-343.5 "/>
<text text-anchor="middle" x="254.5" y="-328.3" font-family="Sans-Serif" font-size="14.00">time</text>
<polyline fill="none" stroke="paleturquoise" points="214,-320.5 295,-320.5 "/>
<text text-anchor="middle" x="254.5" y="-305.3" font-family="Sans-Serif" font-size="14.00">→ server</text>
</g>
<!-- server @ busy =&gt; @ busy &#45;&gt; time &#45;&gt; server =&gt; server @ ready -->
<g id="node3" class="node">
<title>server @ busy =&gt; @ busy &#45;&gt; time &#45;&gt; server =&gt; server @ ready</title>
<polygon fill="none" stroke="#0063cd" stroke-width="4" points="255,-261 254,-261 254,-260 255,-260 255,-261"/>
</g>
<!-- @ busy &rarr; | time | &rarr; server&#45;&gt;server @ busy =&gt; @ busy &#45;&gt; time &#45;&gt; server =&gt; server @ ready -->
<g id="edge2" class="edge">
<title>@ busy &rarr; | time | &rarr; server&#45;&gt;server @ busy =&gt; @ busy &#45;&gt; time &#45;&gt; server =&gt; server @ ready</title>
<path fill="none" stroke="mediumblue" stroke-width="3" d="M254.5,-297.23C254.5,-279.89 254.5,-262.15 254.5,-261.05"/>
</g>
<!-- server @ busy =&gt; @ busy &#45;&gt; time &#45;&gt; server =&gt; server @ ready&#45;&gt;server &rarr; | response@0 | &rarr; client&#45;0 -->
<g id="edge1" class="edge">
<title>server @ busy =&gt; @ busy &#45;&gt; time &#45;&gt; server =&gt; server @ ready&#45;&gt;server &rarr; | response@0 | &rarr; client&#45;0</title>
<path fill="none" stroke="mediumblue" stroke-width="3" d="M254.55,-259.99C256.62,-259.61 319.84,-248 378.02,-223.81"/>
<polygon fill="mediumblue" stroke="mediumblue" stroke-width="3" points="379.5,-226.98 387.3,-219.82 376.73,-220.55 379.5,-226.98"/>
</g>
<!-- server @ ready -->
<g id="node5" class="node">
<title>server @ ready</title>
<polygon fill="palegreen" stroke="palegreen" points="369.5,-207 259.5,-207 259.5,-171 369.5,-171 369.5,-207"/>
<text text-anchor="middle" x="314.5" y="-185.3" font-family="Sans-Serif" font-size="14.00">server @ ready</text>
</g>
<!-- server @ busy =&gt; @ busy &#45;&gt; time &#45;&gt; server =&gt; server @ ready&#45;&gt;server @ ready -->
<g id="edge4" class="edge">
<title>server @ busy =&gt; @ busy &#45;&gt; time &#45;&gt; server =&gt; server @ ready&#45;&gt;server @ ready</title>
<path fill="none" stroke="darkgreen" stroke-width="3" d="M254.54,-259.95C255.62,-258.7 276.33,-234.53 293.11,-214.95"/>
<polygon fill="darkgreen" stroke="darkgreen" stroke-width="3" points="295.91,-217.06 299.76,-207.19 290.6,-212.51 295.91,-217.06"/>
</g>
<!-- server &rarr; | response@1 | &rarr; client&#45;0 -->
<g id="node6" class="node">
<title>server &rarr; | response@1 | &rarr; client&#45;0</title>
<polygon fill="paleturquoise" stroke="paleturquoise" points="147.5,-154.5 147.5,-223.5 241.5,-223.5 241.5,-154.5 147.5,-154.5"/>
<text text-anchor="middle" x="194.5" y="-208.3" font-family="Sans-Serif" font-size="14.00">server →</text>
<polyline fill="none" stroke="paleturquoise" points="147.5,-200.5 241.5,-200.5 "/>
<text text-anchor="middle" x="194.5" y="-185.3" font-family="Sans-Serif" font-size="14.00">response@1</text>
<polyline fill="none" stroke="paleturquoise" points="147.5,-177.5 241.5,-177.5 "/>
<text text-anchor="middle" x="194.5" y="-162.3" font-family="Sans-Serif" font-size="14.00">→ client&#45;0</text>
</g>
<!-- server @ busy =&gt; @ busy &#45;&gt; time &#45;&gt; server =&gt; server @ ready&#45;&gt;server &rarr; | response@1 | &rarr; client&#45;0 -->
<g id="edge5" class="edge">
<title>server @ busy =&gt; @ busy &#45;&gt; time &#45;&gt; server =&gt; server @ ready&#45;&gt;server &rarr; | response@1 | &rarr; client&#45;0</title>
<path fill="none" stroke="mediumblue" stroke-width="3" d="M254.46,-259.95C253.68,-259.04 242.53,-246.03 230.05,-231.47"/>
<polygon fill="mediumblue" stroke="mediumblue" stroke-width="3" points="232.62,-229.09 223.45,-223.78 227.3,-233.65 232.62,-229.09"/>
</g>
<!-- server @ busy -->
<g id="node4" class="node">
<title>server @ busy</title>
<polygon fill="palegreen" stroke="palegreen" points="105,-80 0,-80 0,-44 105,-44 105,-80"/>
<text text-anchor="middle" x="52.5" y="-58.3" font-family="Sans-Serif" font-size="14.00">server @ busy</text>
</g>
<!-- server @ busy&#45;&gt;server @ busy =&gt; @ busy &#45;&gt; time &#45;&gt; server =&gt; server @ ready -->
<g id="edge3" class="edge">
<title>server @ busy&#45;&gt;server @ busy =&gt; @ busy &#45;&gt; time &#45;&gt; server =&gt; server @ ready</title>
<path fill="none" stroke="darkgreen" stroke-width="3" d="M43.46,-80.45C28.05,-112.88 1.61,-182.88 36.5,-224 67.27,-260.27 243.01,-260.05 253.96,-260"/>
</g>
<!-- server @ ready =&gt; server @ busy -->
<g id="node8" class="node">
<title>server @ ready =&gt; server @ busy</title>
<polygon fill="none" stroke="#0063cd" stroke-width="4" points="88,-118 87,-118 87,-117 88,-117 88,-118"/>
</g>
<!-- server @ ready&#45;&gt;server @ ready =&gt; server @ busy -->
<g id="edge7" class="edge">
<title>server @ ready&#45;&gt;server @ ready =&gt; server @ busy</title>
<path fill="none" stroke="darkgreen" stroke-width="3" d="M286.28,-170.88C275.4,-164.86 262.66,-158.48 250.5,-154 181.97,-128.76 90.41,-118.33 87.57,-118.01"/>
</g>
<!-- server @ ready =&gt; server @ busy ! agent: server is invalid because: client&#45;1 is banned -->
<g id="node10" class="node">
<title>server @ ready =&gt; server @ busy ! agent: server is invalid because: client&#45;1 is banned</title>
<polygon fill="none" stroke="#0063cd" stroke-width="4" points="428,-118 427,-118 427,-117 428,-117 428,-118"/>
</g>
<!-- server @ ready&#45;&gt;server @ ready =&gt; server @ busy ! agent: server is invalid because: client&#45;1 is banned -->
<g id="edge10" class="edge">
<title>server @ ready&#45;&gt;server @ ready =&gt; server @ busy ! agent: server is invalid because: client&#45;1 is banned</title>
<path fill="none" stroke="crimson" stroke-width="3" d="M342.14,-170.88C374.55,-150.8 424.27,-120 427.35,-118.09"/>
</g>
<!-- client&#45;0 &rarr; | request@0 | &rarr; server -->
<g id="node7" class="node">
<title>client&#45;0 &rarr; | request@0 | &rarr; server</title>
<polygon fill="paleturquoise" stroke="paleturquoise" points="46,-154.5 46,-223.5 129,-223.5 129,-154.5 46,-154.5"/>
<text text-anchor="middle" x="87.5" y="-208.3" font-family="Sans-Serif" font-size="14.00">client&#45;0 →</text>
<polyline fill="none" stroke="paleturquoise" points="46,-200.5 129,-200.5 "/>
<text text-anchor="middle" x="87.5" y="-185.3" font-family="Sans-Serif" font-size="14.00">request@0</text>
<polyline fill="none" stroke="paleturquoise" points="46,-177.5 129,-177.5 "/>
<text text-anchor="middle" x="87.5" y="-162.3" font-family="Sans-Serif" font-size="14.00">→ server</text>
</g>
<!-- client&#45;0 &rarr; | request@0 | &rarr; server&#45;&gt;server @ ready =&gt; server @ busy -->
<g id="edge6" class="edge">
<title>client&#45;0 &rarr; | request@0 | &rarr; server&#45;&gt;server @ ready =&gt; server @ busy</title>
<path fill="none" stroke="mediumblue" stroke-width="3" d="M87.5,-154.23C87.5,-144.75 87.5,-135.14 87.5,-128.21"/>
<polygon fill="mediumblue" stroke="mediumblue" stroke-width="3" points="91,-128.05 87.5,-118.05 84,-128.05 91,-128.05"/>
</g>
<!-- server @ ready =&gt; server @ busy&#45;&gt;server @ busy -->
<g id="edge8" class="edge">
<title>server @ ready =&gt; server @ busy&#45;&gt;server @ busy</title>
<path fill="none" stroke="darkgreen" stroke-width="3" d="M87.4,-116.85C86.37,-115.25 77.54,-101.63 69.02,-88.49"/>
<polygon fill="darkgreen" stroke="darkgreen" stroke-width="3" points="71.93,-86.55 63.56,-80.06 66.06,-90.35 71.93,-86.55"/>
</g>
<!-- client&#45;1 &rarr; | request@0 | &rarr; server -->
<g id="node9" class="node">
<title>client&#45;1 &rarr; | request@0 | &rarr; server</title>
<polygon fill="paleturquoise" stroke="paleturquoise" points="500,-154.5 500,-223.5 583,-223.5 583,-154.5 500,-154.5"/>
<text text-anchor="middle" x="541.5" y="-208.3" font-family="Sans-Serif" font-size="14.00">client&#45;1 →</text>
<polyline fill="none" stroke="paleturquoise" points="500,-200.5 583,-200.5 "/>
<text text-anchor="middle" x="541.5" y="-185.3" font-family="Sans-Serif" font-size="14.00">request@0</text>
<polyline fill="none" stroke="paleturquoise" points="500,-177.5 583,-177.5 "/>
<text text-anchor="middle" x="541.5" y="-162.3" font-family="Sans-Serif" font-size="14.00">→ server</text>
</g>
<!-- client&#45;1 &rarr; | request@0 | &rarr; server&#45;&gt;server @ ready =&gt; server @ busy ! agent: server is invalid because: client&#45;1 is banned -->
<g id="edge9" class="edge">
<title>client&#45;1 &rarr; | request@0 | &rarr; server&#45;&gt;server @ ready =&gt; server @ busy ! agent: server is invalid because: client&#45;1 is banned</title>
<path fill="none" stroke="mediumblue" stroke-width="3" d="M499.9,-159.93C496.74,-157.9 493.58,-155.9 490.5,-154 471.61,-142.32 448.85,-129.65 436.52,-122.9"/>
<polygon fill="mediumblue" stroke="mediumblue" stroke-width="3" points="438.06,-119.75 427.6,-118.06 434.72,-125.9 438.06,-119.75"/>
</g>
<!-- server @ busy ! agent: server is invalid because: client&#45;1 is banned -->
<g id="node11" class="node">
<title>server @ busy ! agent: server is invalid because: client&#45;1 is banned</title>
<polygon fill="lightcoral" stroke="lightcoral" points="518,-81 337,-81 337,-43 518,-43 518,-81"/>
<text text-anchor="middle" x="427.5" y="-65.8" font-family="Sans-Serif" font-size="14.00">agent: server is invalid</text>
<text text-anchor="middle" x="427.5" y="-50.8" font-family="Sans-Serif" font-size="14.00">because: client&#45;1 is banned</text>
</g>
<!-- server @ ready =&gt; server @ busy ! agent: server is invalid because: client&#45;1 is banned&#45;&gt;server @ busy ! agent: server is invalid because: client&#45;1 is banned -->
<g id="edge11" class="edge">
<title>server @ ready =&gt; server @ busy ! agent: server is invalid because: client&#45;1 is banned&#45;&gt;server @ busy ! agent: server is invalid because: client&#45;1 is banned</title>
<path fill="none" stroke="crimson" stroke-width="3" d="M427.5,-116.85C427.5,-115.37 427.5,-103.53 427.5,-91.33"/>
<polygon fill="crimson" stroke="crimson" stroke-width="3" points="431,-91.22 427.5,-81.22 424,-91.22 431,-91.22"/>
</g>
</g>
</svg>
