<?xml version="1.0" encoding="UTF-8" standalone="no"?>
<!DOCTYPE svg PUBLIC "-//W3C//DTD SVG 1.1//EN"
 "http://www.w3.org/Graphics/SVG/1.1/DTD/svg11.dtd">
<!-- Generated by graphviz version 2.46.0 (0)
 -->
<!-- Title: G Pages: 1 -->
<svg width="753pt" height="693pt"
 viewBox="0.00 0.00 753.00 693.00" xmlns="http://www.w3.org/2000/svg" xmlns:xlink="http://www.w3.org/1999/xlink">
<g id="graph0" class="graph" transform="scale(1 1) rotate(0) translate(4 689)">
<title>G</title>
<polygon fill="white" stroke="transparent" points="-4,4 -4,-689 749,-689 749,4 -4,4"/>
<text text-anchor="middle" x="372.5" y="-13.4" font-family="Sans-Serif" font-size="32.00">Partial Client&#45;1 Detail</text>
<!-- client &#8594; | confirm! | &#8594; client&#45;1 | client&#45;1 @ check =&gt; client&#45;1 @ idle -->
<g id="node1" class="node">
<title>client &#8594; | confirm! | &#8594; client&#45;1 | client&#45;1 @ check =&gt; client&#45;1 @ idle</title>
<polygon fill="darkturquoise" stroke="darkturquoise" points="101,-615.5 101,-684.5 179,-684.5 179,-615.5 101,-615.5"/>
<text text-anchor="middle" x="140" y="-669.3" font-family="Sans-Serif" font-size="14.00">client →</text>
<polyline fill="none" stroke="darkturquoise" points="101,-661.5 179,-661.5 "/>
<text text-anchor="middle" x="140" y="-646.3" font-family="Sans-Serif" font-size="14.00">confirm!</text>
<polyline fill="none" stroke="darkturquoise" points="101,-638.5 179,-638.5 "/>
<text text-anchor="middle" x="140" y="-623.3" font-family="Sans-Serif" font-size="14.00">→ client&#45;1</text>
</g>
<!-- client&#45;1 @ check =&gt; client&#45;1 @ idle -->
<g id="node2" class="node">
<title>client&#45;1 @ check =&gt; client&#45;1 @ idle</title>
<polygon fill="none" stroke="#0063cd" stroke-width="4" points="140.5,-579 139.5,-579 139.5,-578 140.5,-578 140.5,-579"/>
</g>
<!-- client &#8594; | confirm! | &#8594; client&#45;1 | client&#45;1 @ check =&gt; client&#45;1 @ idle&#45;&gt;client&#45;1 @ check =&gt; client&#45;1 @ idle -->
<g id="edge1" class="edge">
<title>client &#8594; | confirm! | &#8594; client&#45;1 | client&#45;1 @ check =&gt; client&#45;1 @ idle&#45;&gt;client&#45;1 @ check =&gt; client&#45;1 @ idle</title>
<path fill="none" stroke="mediumblue" stroke-width="3" d="M140,-615.23C140,-605.75 140,-596.14 140,-589.21"/>
<polygon fill="mediumblue" stroke="mediumblue" stroke-width="3" points="143.5,-589.05 140,-579.05 136.5,-589.05 143.5,-589.05"/>
</g>
<!-- client&#45;1 @ check =&gt; client&#45;1 @ idle&#45;2 -->
<g id="node3" class="node">
<title>client&#45;1 @ check =&gt; client&#45;1 @ idle&#45;2</title>
<polygon fill="none" stroke="darkgreen" stroke-width="2" points="228.5,-542 227.5,-542 227.5,-541 228.5,-541 228.5,-542"/>
</g>
<!-- client&#45;1 @ check =&gt; client&#45;1 @ idle&#45;&gt;client&#45;1 @ check =&gt; client&#45;1 @ idle&#45;2 -->
<g id="edge3" class="edge">
<title>client&#45;1 @ check =&gt; client&#45;1 @ idle&#45;&gt;client&#45;1 @ check =&gt; client&#45;1 @ idle&#45;2</title>
<path fill="none" stroke="darkgreen" stroke-width="3" d="M140.06,-577.97C142.69,-576.9 225.36,-543.08 227.94,-542.03"/>
</g>
<!-- client&#45;1 @ idle -->
<g id="node5" class="node">
<title>client&#45;1 @ idle</title>
<polygon fill="palegreen" stroke="palegreen" points="353.5,-488 250.5,-488 250.5,-452 353.5,-452 353.5,-488"/>
<text text-anchor="middle" x="302" y="-466.3" font-family="Sans-Serif" font-size="14.00">client&#45;1 @ idle</text>
</g>
<!-- client&#45;1 @ check =&gt; client&#45;1 @ idle&#45;2&#45;&gt;client&#45;1 @ idle -->
<g id="edge4" class="edge">
<title>client&#45;1 @ check =&gt; client&#45;1 @ idle&#45;2&#45;&gt;client&#45;1 @ idle</title>
<path fill="none" stroke="darkgreen" stroke-width="3" d="M228.05,-540.95C229.39,-539.68 255.61,-514.88 276.45,-495.17"/>
<polygon fill="darkgreen" stroke="darkgreen" stroke-width="3" points="278.97,-497.61 283.83,-488.19 274.16,-492.52 278.97,-497.61"/>
</g>
<!-- client&#45;1 @ check -->
<g id="node4" class="node">
<title>client&#45;1 @ check</title>
<polygon fill="palegreen" stroke="palegreen" points="223.5,-239 106.5,-239 106.5,-203 223.5,-203 223.5,-239"/>
<text text-anchor="middle" x="165" y="-217.3" font-family="Sans-Serif" font-size="14.00">client&#45;1 @ check</text>
</g>
<!-- client&#45;1 @ check&#45;&gt;client&#45;1 @ check =&gt; client&#45;1 @ idle -->
<g id="edge2" class="edge">
<title>client&#45;1 @ check&#45;&gt;client&#45;1 @ check =&gt; client&#45;1 @ idle</title>
<path fill="none" stroke="darkgreen" stroke-width="3" d="M158.56,-239.21C147.48,-270.39 126,-338.54 126,-398 126,-471 126,-471 126,-471 126,-518.21 139.57,-576.16 139.99,-577.96"/>
</g>
<!-- client&#45;1 @ check =&gt; client&#45;1 @ check -->
<g id="node7" class="node">
<title>client&#45;1 @ check =&gt; client&#45;1 @ check</title>
<polygon fill="none" stroke="#0063cd" stroke-width="4" points="136.5,-150 135.5,-150 135.5,-149 136.5,-149 136.5,-150"/>
</g>
<!-- client&#45;1 @ check&#45;&gt;client&#45;1 @ check =&gt; client&#45;1 @ check -->
<g id="edge6" class="edge">
<title>client&#45;1 @ check&#45;&gt;client&#45;1 @ check =&gt; client&#45;1 @ check</title>
<path fill="none" stroke="darkgreen" stroke-width="3" d="M157.83,-202.7C149.51,-182.62 136.82,-151.99 136.04,-150.09"/>
</g>
<!-- client&#45;1 @ idle =&gt; @ idle &#45;&gt; time &#45;&gt; client&#45;1 =&gt; client&#45;1 @ check -->
<g id="node11" class="node">
<title>client&#45;1 @ idle =&gt; @ idle &#45;&gt; time &#45;&gt; client&#45;1 =&gt; client&#45;1 @ check</title>
<polygon fill="none" stroke="#0063cd" stroke-width="4" points="222.5,-399 221.5,-399 221.5,-398 222.5,-398 222.5,-399"/>
</g>
<!-- client&#45;1 @ idle&#45;&gt;client&#45;1 @ idle =&gt; @ idle &#45;&gt; time &#45;&gt; client&#45;1 =&gt; client&#45;1 @ check -->
<g id="edge11" class="edge">
<title>client&#45;1 @ idle&#45;&gt;client&#45;1 @ idle =&gt; @ idle &#45;&gt; time &#45;&gt; client&#45;1 =&gt; client&#45;1 @ check</title>
<path fill="none" stroke="darkgreen" stroke-width="3" d="M282.22,-451.7C259.27,-431.62 224.27,-400.99 222.11,-399.09"/>
</g>
<!-- client&#45;1 @ idle =&gt; @ idle &#45;&gt; time &#45;&gt; client&#45;1 =&gt; client&#45;1 @ wait -->
<g id="node15" class="node">
<title>client&#45;1 @ idle =&gt; @ idle &#45;&gt; time &#45;&gt; client&#45;1 =&gt; client&#45;1 @ wait</title>
<polygon fill="none" stroke="#0063cd" stroke-width="4" points="438.5,-399 437.5,-399 437.5,-398 438.5,-398 438.5,-399"/>
</g>
<!-- client&#45;1 @ idle&#45;&gt;client&#45;1 @ idle =&gt; @ idle &#45;&gt; time &#45;&gt; client&#45;1 =&gt; client&#45;1 @ wait -->
<g id="edge16" class="edge">
<title>client&#45;1 @ idle&#45;&gt;client&#45;1 @ idle =&gt; @ idle &#45;&gt; time &#45;&gt; client&#45;1 =&gt; client&#45;1 @ wait</title>
<path fill="none" stroke="darkgreen" stroke-width="3" d="M335.27,-451.88C374.9,-431.48 436.05,-400 437.95,-399.02"/>
</g>
<!-- @ check &#8594; | time | &#8594; client&#45;1 | client&#45;1 @ check =&gt; client&#45;1 @ check -->
<g id="node6" class="node">
<title>@ check &#8594; | time | &#8594; client&#45;1 | client&#45;1 @ check =&gt; client&#45;1 @ check</title>
<polygon fill="paleturquoise" stroke="paleturquoise" points="0,-186.5 0,-255.5 88,-255.5 88,-186.5 0,-186.5"/>
<text text-anchor="middle" x="44" y="-240.3" font-family="Sans-Serif" font-size="14.00">@ check →</text>
<polyline fill="none" stroke="paleturquoise" points="0,-232.5 88,-232.5 "/>
<text text-anchor="middle" x="44" y="-217.3" font-family="Sans-Serif" font-size="14.00">time</text>
<polyline fill="none" stroke="paleturquoise" points="0,-209.5 88,-209.5 "/>
<text text-anchor="middle" x="44" y="-194.3" font-family="Sans-Serif" font-size="14.00">→ client&#45;1</text>
</g>
<!-- @ check &#8594; | time | &#8594; client&#45;1 | client&#45;1 @ check =&gt; client&#45;1 @ check&#45;&gt;client&#45;1 @ check =&gt; client&#45;1 @ check -->
<g id="edge5" class="edge">
<title>@ check &#8594; | time | &#8594; client&#45;1 | client&#45;1 @ check =&gt; client&#45;1 @ check&#45;&gt;client&#45;1 @ check =&gt; client&#45;1 @ check</title>
<path fill="none" stroke="mediumblue" stroke-width="3" d="M88.11,-186.44C103.3,-174.88 118.77,-163.11 127.87,-156.19"/>
<polygon fill="mediumblue" stroke="mediumblue" stroke-width="3" points="130.09,-158.89 135.93,-150.05 125.85,-153.32 130.09,-158.89"/>
</g>
<!-- client&#45;1 @ check =&gt; client&#45;1 @ check&#45;2 -->
<g id="node8" class="node">
<title>client&#45;1 @ check =&gt; client&#45;1 @ check&#45;2</title>
<polygon fill="none" stroke="darkgreen" stroke-width="2" points="151.5,-78.5 150.5,-78.5 150.5,-77.5 151.5,-77.5 151.5,-78.5"/>
</g>
<!-- client&#45;1 @ check =&gt; client&#45;1 @ check&#45;&gt;client&#45;1 @ check =&gt; client&#45;1 @ check&#45;2 -->
<g id="edge7" class="edge">
<title>client&#45;1 @ check =&gt; client&#45;1 @ check&#45;&gt;client&#45;1 @ check =&gt; client&#45;1 @ check&#45;2</title>
<path fill="none" stroke="darkgreen" stroke-width="3" d="M136.01,-148.95C136.46,-146.86 150.55,-81.1 150.99,-79.05"/>
</g>
<!-- client&#45;1 @ check =&gt; client&#45;1 @ check&#45;2&#45;&gt;client&#45;1 @ check -->
<g id="edge8" class="edge">
<title>client&#45;1 @ check =&gt; client&#45;1 @ check&#45;2&#45;&gt;client&#45;1 @ check</title>
<path fill="none" stroke="darkgreen" stroke-width="3" d="M151.01,-79.06C151.25,-81.48 158.33,-152.78 162.32,-193.02"/>
<polygon fill="darkgreen" stroke="darkgreen" stroke-width="3" points="158.84,-193.39 163.31,-202.99 165.81,-192.7 158.84,-193.39"/>
</g>
<!-- client&#45;1 &#8594; | check@0 | &#8594; client | client&#45;1 @ idle =&gt; client&#45;1 @ check -->
<g id="node9" class="node">
<title>client&#45;1 &#8594; | check@0 | &#8594; client | client&#45;1 @ idle =&gt; client&#45;1 @ check</title>
<polygon fill="paleturquoise" stroke="paleturquoise" points="154,-292.5 154,-361.5 232,-361.5 232,-292.5 154,-292.5"/>
<text text-anchor="middle" x="193" y="-346.3" font-family="Sans-Serif" font-size="14.00">client&#45;1 →</text>
<polyline fill="none" stroke="paleturquoise" points="154,-338.5 232,-338.5 "/>
<text text-anchor="middle" x="193" y="-323.3" font-family="Sans-Serif" font-size="14.00">check@0</text>
<polyline fill="none" stroke="paleturquoise" points="154,-315.5 232,-315.5 "/>
<text text-anchor="middle" x="193" y="-300.3" font-family="Sans-Serif" font-size="14.00">→ client</text>
</g>
<!-- @ idle &#8594; | time | &#8594; client&#45;1 | client&#45;1 @ idle =&gt; client&#45;1 @ check -->
<g id="node10" class="node">
<title>@ idle &#8594; | time | &#8594; client&#45;1 | client&#45;1 @ idle =&gt; client&#45;1 @ check</title>
<polygon fill="paleturquoise" stroke="paleturquoise" points="154,-435.5 154,-504.5 232,-504.5 232,-435.5 154,-435.5"/>
<text text-anchor="middle" x="193" y="-489.3" font-family="Sans-Serif" font-size="14.00">@ idle →</text>
<polyline fill="none" stroke="paleturquoise" points="154,-481.5 232,-481.5 "/>
<text text-anchor="middle" x="193" y="-466.3" font-family="Sans-Serif" font-size="14.00">time</text>
<polyline fill="none" stroke="paleturquoise" points="154,-458.5 232,-458.5 "/>
<text text-anchor="middle" x="193" y="-443.3" font-family="Sans-Serif" font-size="14.00">→ client&#45;1</text>
</g>
<!-- @ idle &#8594; | time | &#8594; client&#45;1 | client&#45;1 @ idle =&gt; client&#45;1 @ check&#45;&gt;client&#45;1 @ idle =&gt; @ idle &#45;&gt; time &#45;&gt; client&#45;1 =&gt; client&#45;1 @ check -->
<g id="edge10" class="edge">
<title>@ idle &#8594; | time | &#8594; client&#45;1 | client&#45;1 @ idle =&gt; client&#45;1 @ check&#45;&gt;client&#45;1 @ idle =&gt; @ idle &#45;&gt; time &#45;&gt; client&#45;1 =&gt; client&#45;1 @ check</title>
<path fill="none" stroke="mediumblue" stroke-width="3" d="M206.99,-435.23C214.17,-417.89 221.53,-400.15 221.98,-399.05"/>
</g>
<!-- client&#45;1 @ idle =&gt; @ idle &#45;&gt; time &#45;&gt; client&#45;1 =&gt; client&#45;1 @ check&#45;&gt;client&#45;1 &#8594; | check@0 | &#8594; client | client&#45;1 @ idle =&gt; client&#45;1 @ check -->
<g id="edge9" class="edge">
<title>client&#45;1 @ idle =&gt; @ idle &#45;&gt; time &#45;&gt; client&#45;1 =&gt; client&#45;1 @ check&#45;&gt;client&#45;1 &#8594; | check@0 | &#8594; client | client&#45;1 @ idle =&gt; client&#45;1 @ check</title>
<path fill="none" stroke="mediumblue" stroke-width="3" d="M221.98,-397.95C221.62,-397.07 216.6,-384.97 210.84,-371.07"/>
<polygon fill="mediumblue" stroke="mediumblue" stroke-width="3" points="214.05,-369.68 206.99,-361.78 207.59,-372.35 214.05,-369.68"/>
</g>
<!-- client&#45;1 @ idle =&gt; @ idle &#45;&gt; time &#45;&gt; client&#45;1 =&gt; client&#45;1 @ check&#45;2 -->
<g id="node12" class="node">
<title>client&#45;1 @ idle =&gt; @ idle &#45;&gt; time &#45;&gt; client&#45;1 =&gt; client&#45;1 @ check&#45;2</title>
<polygon fill="none" stroke="darkgreen" stroke-width="2" points="251.5,-327.5 250.5,-327.5 250.5,-326.5 251.5,-326.5 251.5,-327.5"/>
</g>
<!-- client&#45;1 @ idle =&gt; @ idle &#45;&gt; time &#45;&gt; client&#45;1 =&gt; client&#45;1 @ check&#45;&gt;client&#45;1 @ idle =&gt; @ idle &#45;&gt; time &#45;&gt; client&#45;1 =&gt; client&#45;1 @ check&#45;2 -->
<g id="edge12" class="edge">
<title>client&#45;1 @ idle =&gt; @ idle &#45;&gt; time &#45;&gt; client&#45;1 =&gt; client&#45;1 @ check&#45;&gt;client&#45;1 @ idle =&gt; @ idle &#45;&gt; time &#45;&gt; client&#45;1 =&gt; client&#45;1 @ check&#45;2</title>
<path fill="none" stroke="darkgreen" stroke-width="3" d="M222.04,-397.94C222.76,-396.8 234.4,-378.24 241,-362 246.74,-347.86 250.74,-329.21 250.99,-328.06"/>
</g>
<!-- client&#45;1 @ idle =&gt; @ idle &#45;&gt; time &#45;&gt; client&#45;1 =&gt; client&#45;1 @ check&#45;2&#45;&gt;client&#45;1 @ check -->
<g id="edge13" class="edge">
<title>client&#45;1 @ idle =&gt; @ idle &#45;&gt; time &#45;&gt; client&#45;1 =&gt; client&#45;1 @ check&#45;2&#45;&gt;client&#45;1 @ check</title>
<path fill="none" stroke="darkgreen" stroke-width="3" d="M250.99,-325.94C250.89,-324.72 249.06,-304.96 241,-292 229.89,-274.13 213.01,-257.95 197.98,-245.65"/>
<polygon fill="darkgreen" stroke="darkgreen" stroke-width="3" points="199.88,-242.69 189.86,-239.23 195.54,-248.18 199.88,-242.69"/>
</g>
<!-- client&#45;1 &#8594; | request@0 | &#8594; server | client&#45;1 @ idle =&gt; client&#45;1 @ wait -->
<g id="node13" class="node">
<title>client&#45;1 &#8594; | request@0 | &#8594; server | client&#45;1 @ idle =&gt; client&#45;1 @ wait</title>
<polygon fill="paleturquoise" stroke="paleturquoise" points="396.5,-292.5 396.5,-361.5 479.5,-361.5 479.5,-292.5 396.5,-292.5"/>
<text text-anchor="middle" x="438" y="-346.3" font-family="Sans-Serif" font-size="14.00">client&#45;1 →</text>
<polyline fill="none" stroke="paleturquoise" points="396.5,-338.5 479.5,-338.5 "/>
<text text-anchor="middle" x="438" y="-323.3" font-family="Sans-Serif" font-size="14.00">request@0</text>
<polyline fill="none" stroke="paleturquoise" points="396.5,-315.5 479.5,-315.5 "/>
<text text-anchor="middle" x="438" y="-300.3" font-family="Sans-Serif" font-size="14.00">→ server</text>
</g>
<!-- @ idle &#8594; | time | &#8594; client&#45;1 | client&#45;1 @ idle =&gt; client&#45;1 @ wait -->
<g id="node14" class="node">
<title>@ idle &#8594; | time | &#8594; client&#45;1 | client&#45;1 @ idle =&gt; client&#45;1 @ wait</title>
<polygon fill="paleturquoise" stroke="paleturquoise" points="399,-435.5 399,-504.5 477,-504.5 477,-435.5 399,-435.5"/>
<text text-anchor="middle" x="438" y="-489.3" font-family="Sans-Serif" font-size="14.00">@ idle →</text>
<polyline fill="none" stroke="paleturquoise" points="399,-481.5 477,-481.5 "/>
<text text-anchor="middle" x="438" y="-466.3" font-family="Sans-Serif" font-size="14.00">time</text>
<polyline fill="none" stroke="paleturquoise" points="399,-458.5 477,-458.5 "/>
<text text-anchor="middle" x="438" y="-443.3" font-family="Sans-Serif" font-size="14.00">→ client&#45;1</text>
</g>
<!-- @ idle &#8594; | time | &#8594; client&#45;1 | client&#45;1 @ idle =&gt; client&#45;1 @ wait&#45;&gt;client&#45;1 @ idle =&gt; @ idle &#45;&gt; time &#45;&gt; client&#45;1 =&gt; client&#45;1 @ wait -->
<g id="edge15" class="edge">
<title>@ idle &#8594; | time | &#8594; client&#45;1 | client&#45;1 @ idle =&gt; client&#45;1 @ wait&#45;&gt;client&#45;1 @ idle =&gt; @ idle &#45;&gt; time &#45;&gt; client&#45;1 =&gt; client&#45;1 @ wait</title>
<path fill="none" stroke="mediumblue" stroke-width="3" d="M438,-435.23C438,-417.89 438,-400.15 438,-399.05"/>
</g>
<!-- client&#45;1 @ idle =&gt; @ idle &#45;&gt; time &#45;&gt; client&#45;1 =&gt; client&#45;1 @ wait&#45;&gt;client&#45;1 &#8594; | request@0 | &#8594; server | client&#45;1 @ idle =&gt; client&#45;1 @ wait -->
<g id="edge14" class="edge">
<title>client&#45;1 @ idle =&gt; @ idle &#45;&gt; time &#45;&gt; client&#45;1 =&gt; client&#45;1 @ wait&#45;&gt;client&#45;1 &#8594; | request@0 | &#8594; server | client&#45;1 @ idle =&gt; client&#45;1 @ wait</title>
<path fill="none" stroke="mediumblue" stroke-width="3" d="M438,-397.95C438,-397.09 438,-385.43 438,-371.86"/>
<polygon fill="mediumblue" stroke="mediumblue" stroke-width="3" points="441.5,-371.78 438,-361.78 434.5,-371.78 441.5,-371.78"/>
</g>
<!-- client&#45;1 @ idle =&gt; @ idle &#45;&gt; time &#45;&gt; client&#45;1 =&gt; client&#45;1 @ wait&#45;2 -->
<g id="node16" class="node">
<title>client&#45;1 @ idle =&gt; @ idle &#45;&gt; time &#45;&gt; client&#45;1 =&gt; client&#45;1 @ wait&#45;2</title>
<polygon fill="none" stroke="darkgreen" stroke-width="2" points="552.5,-327.5 551.5,-327.5 551.5,-326.5 552.5,-326.5 552.5,-327.5"/>
</g>
<!-- client&#45;1 @ idle =&gt; @ idle &#45;&gt; time &#45;&gt; client&#45;1 =&gt; client&#45;1 @ wait&#45;&gt;client&#45;1 @ idle =&gt; @ idle &#45;&gt; time &#45;&gt; client&#45;1 =&gt; client&#45;1 @ wait&#45;2 -->
<g id="edge17" class="edge">
<title>client&#45;1 @ idle =&gt; @ idle &#45;&gt; time &#45;&gt; client&#45;1 =&gt; client&#45;1 @ wait&#45;&gt;client&#45;1 @ idle =&gt; @ idle &#45;&gt; time &#45;&gt; client&#45;1 =&gt; client&#45;1 @ wait&#45;2</title>
<path fill="none" stroke="darkgreen" stroke-width="3" d="M438.08,-397.95C441.48,-395.86 548.57,-330.1 551.92,-328.05"/>
</g>
<!-- client&#45;1 @ wait -->
<g id="node17" class="node">
<title>client&#45;1 @ wait</title>
<polygon fill="palegreen" stroke="palegreen" points="633,-239 527,-239 527,-203 633,-203 633,-239"/>
<text text-anchor="middle" x="580" y="-217.3" font-family="Sans-Serif" font-size="14.00">client&#45;1 @ wait</text>
</g>
<!-- client&#45;1 @ idle =&gt; @ idle &#45;&gt; time &#45;&gt; client&#45;1 =&gt; client&#45;1 @ wait&#45;2&#45;&gt;client&#45;1 @ wait -->
<g id="edge18" class="edge">
<title>client&#45;1 @ idle =&gt; @ idle &#45;&gt; time &#45;&gt; client&#45;1 =&gt; client&#45;1 @ wait&#45;2&#45;&gt;client&#45;1 @ wait</title>
<path fill="none" stroke="darkgreen" stroke-width="3" d="M552.02,-325.92C552.58,-323.84 564.6,-279.19 572.71,-249.09"/>
<polygon fill="darkgreen" stroke="darkgreen" stroke-width="3" points="576.16,-249.72 575.38,-239.15 569.4,-247.9 576.16,-249.72"/>
</g>
<!-- client&#45;1 @ wait =&gt; client&#45;1 @ wait -->
<g id="node19" class="node">
<title>client&#45;1 @ wait =&gt; client&#45;1 @ wait</title>
<polygon fill="none" stroke="#0063cd" stroke-width="4" points="628.5,-150 627.5,-150 627.5,-149 628.5,-149 628.5,-150"/>
</g>
<!-- client&#45;1 @ wait&#45;&gt;client&#45;1 @ wait =&gt; client&#45;1 @ wait -->
<g id="edge20" class="edge">
<title>client&#45;1 @ wait&#45;&gt;client&#45;1 @ wait =&gt; client&#45;1 @ wait</title>
<path fill="none" stroke="darkgreen" stroke-width="3" d="M591.87,-202.7C605.64,-182.62 626.64,-151.99 627.94,-150.09"/>
</g>
<!-- client&#45;1 @ wait =&gt; @ wait &#45;&gt; time &#45;&gt; client&#45;1 =&gt; client&#45;1 @ wait -->
<g id="node23" class="node">
<title>client&#45;1 @ wait =&gt; @ wait &#45;&gt; time &#45;&gt; client&#45;1 =&gt; client&#45;1 @ wait</title>
<polygon fill="none" stroke="#0063cd" stroke-width="4" points="501.5,-150 500.5,-150 500.5,-149 501.5,-149 501.5,-150"/>
</g>
<!-- client&#45;1 @ wait&#45;&gt;client&#45;1 @ wait =&gt; @ wait &#45;&gt; time &#45;&gt; client&#45;1 =&gt; client&#45;1 @ wait -->
<g id="edge25" class="edge">
<title>client&#45;1 @ wait&#45;&gt;client&#45;1 @ wait =&gt; @ wait &#45;&gt; time &#45;&gt; client&#45;1 =&gt; client&#45;1 @ wait</title>
<path fill="none" stroke="darkgreen" stroke-width="3" d="M560.47,-202.7C537.81,-182.62 503.24,-151.99 501.1,-150.09"/>
</g>
<!-- client&#45;1 @ wait =&gt; client&#45;1 @ idle -->
<g id="node27" class="node">
<title>client&#45;1 @ wait =&gt; client&#45;1 @ idle</title>
<polygon fill="none" stroke="#0063cd" stroke-width="4" points="366.5,-150 365.5,-150 365.5,-149 366.5,-149 366.5,-150"/>
</g>
<!-- client&#45;1 @ wait&#45;&gt;client&#45;1 @ wait =&gt; client&#45;1 @ idle -->
<g id="edge30" class="edge">
<title>client&#45;1 @ wait&#45;&gt;client&#45;1 @ wait =&gt; client&#45;1 @ idle</title>
<path fill="none" stroke="darkgreen" stroke-width="3" d="M552.68,-202.95C542.14,-196.93 529.8,-190.54 518,-186 454.21,-161.47 368.72,-150.35 366.06,-150.01"/>
</g>
<!-- server &#8594; | response@0 | &#8594; client&#45;1 | client&#45;1 @ wait =&gt; client&#45;1 @ wait -->
<g id="node18" class="node">
<title>server &#8594; | response@0 | &#8594; client&#45;1 | client&#45;1 @ wait =&gt; client&#45;1 @ wait</title>
<polygon fill="paleturquoise" stroke="paleturquoise" points="651,-186.5 651,-255.5 745,-255.5 745,-186.5 651,-186.5"/>
<text text-anchor="middle" x="698" y="-240.3" font-family="Sans-Serif" font-size="14.00">server →</text>
<polyline fill="none" stroke="paleturquoise" points="651,-232.5 745,-232.5 "/>
<text text-anchor="middle" x="698" y="-217.3" font-family="Sans-Serif" font-size="14.00">response@0</text>
<polyline fill="none" stroke="paleturquoise" points="651,-209.5 745,-209.5 "/>
<text text-anchor="middle" x="698" y="-194.3" font-family="Sans-Serif" font-size="14.00">→ client&#45;1</text>
</g>
<!-- server &#8594; | response@0 | &#8594; client&#45;1 | client&#45;1 @ wait =&gt; client&#45;1 @ wait&#45;&gt;client&#45;1 @ wait =&gt; client&#45;1 @ wait -->
<g id="edge19" class="edge">
<title>server &#8594; | response@0 | &#8594; client&#45;1 | client&#45;1 @ wait =&gt; client&#45;1 @ wait&#45;&gt;client&#45;1 @ wait =&gt; client&#45;1 @ wait</title>
<path fill="none" stroke="mediumblue" stroke-width="3" d="M664.23,-186.23C653.26,-175.26 642.12,-164.12 635.15,-157.15"/>
<polygon fill="mediumblue" stroke="mediumblue" stroke-width="3" points="637.6,-154.65 628.05,-150.05 632.65,-159.6 637.6,-154.65"/>
</g>
<!-- client&#45;1 @ wait =&gt; client&#45;1 @ wait&#45;2 -->
<g id="node20" class="node">
<title>client&#45;1 @ wait =&gt; client&#45;1 @ wait&#45;2</title>
<polygon fill="none" stroke="darkgreen" stroke-width="2" points="614.5,-78.5 613.5,-78.5 613.5,-77.5 614.5,-77.5 614.5,-78.5"/>
</g>
<!-- client&#45;1 @ wait =&gt; client&#45;1 @ wait&#45;&gt;client&#45;1 @ wait =&gt; client&#45;1 @ wait&#45;2 -->
<g id="edge21" class="edge">
<title>client&#45;1 @ wait =&gt; client&#45;1 @ wait&#45;&gt;client&#45;1 @ wait =&gt; client&#45;1 @ wait&#45;2</title>
<path fill="none" stroke="darkgreen" stroke-width="3" d="M627.99,-148.95C627.57,-146.86 614.42,-81.1 614.01,-79.05"/>
</g>
<!-- client&#45;1 @ wait =&gt; client&#45;1 @ wait&#45;2&#45;&gt;client&#45;1 @ wait -->
<g id="edge22" class="edge">
<title>client&#45;1 @ wait =&gt; client&#45;1 @ wait&#45;2&#45;&gt;client&#45;1 @ wait</title>
<path fill="none" stroke="darkgreen" stroke-width="3" d="M613.98,-79.06C613.4,-81.48 596.21,-152.78 586.51,-193.02"/>
<polygon fill="darkgreen" stroke="darkgreen" stroke-width="3" points="583.04,-192.45 584.1,-202.99 589.85,-194.09 583.04,-192.45"/>
</g>
<!-- client&#45;1 &#8594; | request@1 | &#8594; server | client&#45;1 @ wait =&gt; client&#45;1 @ wait -->
<g id="node21" class="node">
<title>client&#45;1 &#8594; | request@1 | &#8594; server | client&#45;1 @ wait =&gt; client&#45;1 @ wait</title>
<polygon fill="paleturquoise" stroke="paleturquoise" points="358.5,-43.5 358.5,-112.5 441.5,-112.5 441.5,-43.5 358.5,-43.5"/>
<text text-anchor="middle" x="400" y="-97.3" font-family="Sans-Serif" font-size="14.00">client&#45;1 →</text>
<polyline fill="none" stroke="paleturquoise" points="358.5,-89.5 441.5,-89.5 "/>
<text text-anchor="middle" x="400" y="-74.3" font-family="Sans-Serif" font-size="14.00">request@1</text>
<polyline fill="none" stroke="paleturquoise" points="358.5,-66.5 441.5,-66.5 "/>
<text text-anchor="middle" x="400" y="-51.3" font-family="Sans-Serif" font-size="14.00">→ server</text>
</g>
<!-- @ wait &#8594; | time | &#8594; client&#45;1 | client&#45;1 @ wait =&gt; client&#45;1 @ wait -->
<g id="node22" class="node">
<title>@ wait &#8594; | time | &#8594; client&#45;1 | client&#45;1 @ wait =&gt; client&#45;1 @ wait</title>
<polygon fill="paleturquoise" stroke="paleturquoise" points="431,-186.5 431,-255.5 509,-255.5 509,-186.5 431,-186.5"/>
<text text-anchor="middle" x="470" y="-240.3" font-family="Sans-Serif" font-size="14.00">@ wait →</text>
<polyline fill="none" stroke="paleturquoise" points="431,-232.5 509,-232.5 "/>
<text text-anchor="middle" x="470" y="-217.3" font-family="Sans-Serif" font-size="14.00">time</text>
<polyline fill="none" stroke="paleturquoise" points="431,-209.5 509,-209.5 "/>
<text text-anchor="middle" x="470" y="-194.3" font-family="Sans-Serif" font-size="14.00">→ client&#45;1</text>
</g>
<!-- @ wait &#8594; | time | &#8594; client&#45;1 | client&#45;1 @ wait =&gt; client&#45;1 @ wait&#45;&gt;client&#45;1 @ wait =&gt; @ wait &#45;&gt; time &#45;&gt; client&#45;1 =&gt; client&#45;1 @ wait -->
<g id="edge24" class="edge">
<title>@ wait &#8594; | time | &#8594; client&#45;1 | client&#45;1 @ wait =&gt; client&#45;1 @ wait&#45;&gt;client&#45;1 @ wait =&gt; @ wait &#45;&gt; time &#45;&gt; client&#45;1 =&gt; client&#45;1 @ wait</title>
<path fill="none" stroke="mediumblue" stroke-width="3" d="M484.96,-186.23C492.63,-168.89 500.49,-151.15 500.98,-150.05"/>
</g>
<!-- client&#45;1 @ wait =&gt; @ wait &#45;&gt; time &#45;&gt; client&#45;1 =&gt; client&#45;1 @ wait&#45;&gt;client&#45;1 &#8594; | request@1 | &#8594; server | client&#45;1 @ wait =&gt; client&#45;1 @ wait -->
<g id="edge23" class="edge">
<title>client&#45;1 @ wait =&gt; @ wait &#45;&gt; time &#45;&gt; client&#45;1 =&gt; client&#45;1 @ wait&#45;&gt;client&#45;1 &#8594; | request@1 | &#8594; server | client&#45;1 @ wait =&gt; client&#45;1 @ wait</title>
<path fill="none" stroke="mediumblue" stroke-width="3" d="M500.93,-148.95C499.41,-147.9 474.68,-130.76 450.09,-113.71"/>
<polygon fill="mediumblue" stroke="mediumblue" stroke-width="3" points="452,-110.78 441.78,-107.96 448.01,-116.53 452,-110.78"/>
</g>
<!-- client&#45;1 @ wait =&gt; @ wait &#45;&gt; time &#45;&gt; client&#45;1 =&gt; client&#45;1 @ wait&#45;2 -->
<g id="node24" class="node">
<title>client&#45;1 @ wait =&gt; @ wait &#45;&gt; time &#45;&gt; client&#45;1 =&gt; client&#45;1 @ wait&#45;2</title>
<polygon fill="none" stroke="darkgreen" stroke-width="2" points="561.5,-78.5 560.5,-78.5 560.5,-77.5 561.5,-77.5 561.5,-78.5"/>
</g>
<!-- client&#45;1 @ wait =&gt; @ wait &#45;&gt; time &#45;&gt; client&#45;1 =&gt; client&#45;1 @ wait&#45;&gt;client&#45;1 @ wait =&gt; @ wait &#45;&gt; time &#45;&gt; client&#45;1 =&gt; client&#45;1 @ wait&#45;2 -->
<g id="edge26" class="edge">
<title>client&#45;1 @ wait =&gt; @ wait &#45;&gt; time &#45;&gt; client&#45;1 =&gt; client&#45;1 @ wait&#45;&gt;client&#45;1 @ wait =&gt; @ wait &#45;&gt; time &#45;&gt; client&#45;1 =&gt; client&#45;1 @ wait&#45;2</title>
<path fill="none" stroke="darkgreen" stroke-width="3" d="M501.1,-148.96C503.18,-148.16 536.66,-135.07 552,-113 560.64,-100.57 560.99,-80.31 561,-79.06"/>
</g>
<!-- client&#45;1 &#8594; | request@0 | &#8594; server | client&#45;1 @ wait =&gt; client&#45;1 @ wait -->
<g id="node25" class="node">
<title>client&#45;1 &#8594; | request@0 | &#8594; server | client&#45;1 @ wait =&gt; client&#45;1 @ wait</title>
<polygon fill="paleturquoise" stroke="paleturquoise" points="459.5,-43.5 459.5,-112.5 542.5,-112.5 542.5,-43.5 459.5,-43.5"/>
<text text-anchor="middle" x="501" y="-97.3" font-family="Sans-Serif" font-size="14.00">client&#45;1 →</text>
<polyline fill="none" stroke="paleturquoise" points="459.5,-89.5 542.5,-89.5 "/>
<text text-anchor="middle" x="501" y="-74.3" font-family="Sans-Serif" font-size="14.00">request@0</text>
<polyline fill="none" stroke="paleturquoise" points="459.5,-66.5 542.5,-66.5 "/>
<text text-anchor="middle" x="501" y="-51.3" font-family="Sans-Serif" font-size="14.00">→ server</text>
</g>
<!-- client&#45;1 @ wait =&gt; @ wait &#45;&gt; time &#45;&gt; client&#45;1 =&gt; client&#45;1 @ wait&#45;&gt;client&#45;1 &#8594; | request@0 | &#8594; server | client&#45;1 @ wait =&gt; client&#45;1 @ wait -->
<g id="edge28" class="edge">
<title>client&#45;1 @ wait =&gt; @ wait &#45;&gt; time &#45;&gt; client&#45;1 =&gt; client&#45;1 @ wait&#45;&gt;client&#45;1 &#8594; | request@0 | &#8594; server | client&#45;1 @ wait =&gt; client&#45;1 @ wait</title>
<path fill="none" stroke="mediumblue" stroke-width="3" d="M501,-148.95C501,-148.09 501,-136.43 501,-122.86"/>
<polygon fill="mediumblue" stroke="mediumblue" stroke-width="3" points="504.5,-122.78 501,-112.78 497.5,-122.78 504.5,-122.78"/>
</g>
<!-- client&#45;1 @ wait =&gt; @ wait &#45;&gt; time &#45;&gt; client&#45;1 =&gt; client&#45;1 @ wait&#45;2&#45;&gt;client&#45;1 @ wait -->
<g id="edge27" class="edge">
<title>client&#45;1 @ wait =&gt; @ wait &#45;&gt; time &#45;&gt; client&#45;1 =&gt; client&#45;1 @ wait&#45;2&#45;&gt;client&#45;1 @ wait</title>
<path fill="none" stroke="darkgreen" stroke-width="3" d="M561.01,-79.06C561.33,-81.48 570.94,-152.78 576.36,-193.02"/>
<polygon fill="darkgreen" stroke="darkgreen" stroke-width="3" points="572.9,-193.55 577.71,-202.99 579.84,-192.61 572.9,-193.55"/>
</g>
<!-- server &#8594; | response@0 | &#8594; client&#45;1 | client&#45;1 @ wait =&gt; client&#45;1 @ idle -->
<g id="node26" class="node">
<title>server &#8594; | response@0 | &#8594; client&#45;1 | client&#45;1 @ wait =&gt; client&#45;1 @ idle</title>
<polygon fill="paleturquoise" stroke="paleturquoise" points="319,-186.5 319,-255.5 413,-255.5 413,-186.5 319,-186.5"/>
<text text-anchor="middle" x="366" y="-240.3" font-family="Sans-Serif" font-size="14.00">server →</text>
<polyline fill="none" stroke="paleturquoise" points="319,-232.5 413,-232.5 "/>
<text text-anchor="middle" x="366" y="-217.3" font-family="Sans-Serif" font-size="14.00">response@0</text>
<polyline fill="none" stroke="paleturquoise" points="319,-209.5 413,-209.5 "/>
<text text-anchor="middle" x="366" y="-194.3" font-family="Sans-Serif" font-size="14.00">→ client&#45;1</text>
</g>
<!-- server &#8594; | response@0 | &#8594; client&#45;1 | client&#45;1 @ wait =&gt; client&#45;1 @ idle&#45;&gt;client&#45;1 @ wait =&gt; client&#45;1 @ idle -->
<g id="edge29" class="edge">
<title>server &#8594; | response@0 | &#8594; client&#45;1 | client&#45;1 @ wait =&gt; client&#45;1 @ idle&#45;&gt;client&#45;1 @ wait =&gt; client&#45;1 @ idle</title>
<path fill="none" stroke="mediumblue" stroke-width="3" d="M366,-186.23C366,-176.75 366,-167.14 366,-160.21"/>
<polygon fill="mediumblue" stroke="mediumblue" stroke-width="3" points="369.5,-160.05 366,-150.05 362.5,-160.05 369.5,-160.05"/>
</g>
<!-- client&#45;1 @ wait =&gt; client&#45;1 @ idle&#45;2 -->
<g id="node28" class="node">
<title>client&#45;1 @ wait =&gt; client&#45;1 @ idle&#45;2</title>
<polygon fill="none" stroke="darkgreen" stroke-width="2" points="315.5,-78.5 314.5,-78.5 314.5,-77.5 315.5,-77.5 315.5,-78.5"/>
</g>
<!-- client&#45;1 @ wait =&gt; client&#45;1 @ idle&#45;&gt;client&#45;1 @ wait =&gt; client&#45;1 @ idle&#45;2 -->
<g id="edge31" class="edge">
<title>client&#45;1 @ wait =&gt; client&#45;1 @ idle&#45;&gt;client&#45;1 @ wait =&gt; client&#45;1 @ idle&#45;2</title>
<path fill="none" stroke="darkgreen" stroke-width="3" d="M365.96,-148.95C364.44,-146.86 316.53,-81.1 315.04,-79.05"/>
</g>
<!-- client&#45;1 @ wait =&gt; client&#45;1 @ idle&#45;2&#45;&gt;client&#45;1 @ idle -->
<g id="edge32" class="edge">
<title>client&#45;1 @ wait =&gt; client&#45;1 @ idle&#45;2&#45;&gt;client&#45;1 @ idle</title>
<path fill="none" stroke="darkgreen" stroke-width="3" d="M314.98,-79.06C314.26,-81.42 291,-157.43 291,-220 291,-328 291,-328 291,-328 291,-367.63 295.37,-413.33 298.6,-441.69"/>
<polygon fill="darkgreen" stroke="darkgreen" stroke-width="3" points="295.13,-442.14 299.77,-451.67 302.08,-441.33 295.13,-442.14"/>
</g>
</g>
</svg>
