<?xml version="1.0" encoding="UTF-8" standalone="no"?>
<!DOCTYPE svg PUBLIC "-//W3C//DTD SVG 1.1//EN"
 "http://www.w3.org/Graphics/SVG/1.1/DTD/svg11.dtd">
<!-- Generated by graphviz version 2.46.0 (0)
 -->
<!-- Title: G Pages: 1 -->
<svg width="576pt" height="622pt"
 viewBox="0.00 0.00 576.00 622.00" xmlns="http://www.w3.org/2000/svg" xmlns:xlink="http://www.w3.org/1999/xlink">
<g id="graph0" class="graph" transform="scale(1 1) rotate(0) translate(4 618)">
<title>G</title>
<polygon fill="white" stroke="transparent" points="-4,4 -4,-618 572,-618 572,4 -4,4"/>
<text text-anchor="middle" x="284" y="-13.4" font-family="Sans-Serif" font-size="32.00">Partial Server Detail</text>
<!-- server &#8594; | response | &#8594; client&#45;1 | server @ busy =&gt; server @ ready -->
<g id="node1" class="node">
<title>server &#8594; | response | &#8594; client&#45;1 | server @ busy =&gt; server @ ready</title>
<polygon fill="paleturquoise" stroke="paleturquoise" points="462,-401.5 462,-470.5 540,-470.5 540,-401.5 462,-401.5"/>
<text text-anchor="middle" x="501" y="-455.3" font-family="Sans-Serif" font-size="14.00">server →</text>
<polyline fill="none" stroke="paleturquoise" points="462,-447.5 540,-447.5 "/>
<text text-anchor="middle" x="501" y="-432.3" font-family="Sans-Serif" font-size="14.00">response</text>
<polyline fill="none" stroke="paleturquoise" points="462,-424.5 540,-424.5 "/>
<text text-anchor="middle" x="501" y="-409.3" font-family="Sans-Serif" font-size="14.00">→ client&#45;1</text>
</g>
<!-- @ busy &#8594; | time | &#8594; server | server @ busy =&gt; server @ ready -->
<g id="node2" class="node">
<title>@ busy &#8594; | time | &#8594; server | server @ busy =&gt; server @ ready</title>
<polygon fill="paleturquoise" stroke="paleturquoise" points="460.5,-544.5 460.5,-613.5 541.5,-613.5 541.5,-544.5 460.5,-544.5"/>
<text text-anchor="middle" x="501" y="-598.3" font-family="Sans-Serif" font-size="14.00">@ busy →</text>
<polyline fill="none" stroke="paleturquoise" points="460.5,-590.5 541.5,-590.5 "/>
<text text-anchor="middle" x="501" y="-575.3" font-family="Sans-Serif" font-size="14.00">time</text>
<polyline fill="none" stroke="paleturquoise" points="460.5,-567.5 541.5,-567.5 "/>
<text text-anchor="middle" x="501" y="-552.3" font-family="Sans-Serif" font-size="14.00">→ server</text>
</g>
<!-- server @ busy =&gt; @ busy &#45;&gt; time &#45;&gt; server =&gt; server @ ready -->
<g id="node3" class="node">
<title>server @ busy =&gt; @ busy &#45;&gt; time &#45;&gt; server =&gt; server @ ready</title>
<polygon fill="none" stroke="#0063cd" stroke-width="4" points="434.5,-508 433.5,-508 433.5,-507 434.5,-507 434.5,-508"/>
</g>
<!-- @ busy &#8594; | time | &#8594; server | server @ busy =&gt; server @ ready&#45;&gt;server @ busy =&gt; @ busy &#45;&gt; time &#45;&gt; server =&gt; server @ ready -->
<g id="edge2" class="edge">
<title>@ busy &#8594; | time | &#8594; server | server @ busy =&gt; server @ ready&#45;&gt;server @ busy =&gt; @ busy &#45;&gt; time &#45;&gt; server =&gt; server @ ready</title>
<path fill="none" stroke="mediumblue" stroke-width="3" d="M468.68,-544.23C452.08,-526.89 435.1,-509.15 434.05,-508.05"/>
</g>
<!-- server @ busy =&gt; server @ ready -->
<g id="node7" class="node">
<title>server @ busy =&gt; server @ ready</title>
<polygon fill="none" stroke="#0063cd" stroke-width="4" points="354.5,-81 353.5,-81 353.5,-80 354.5,-80 354.5,-81"/>
</g>
<!-- @ busy &#8594; | time | &#8594; server | server @ busy =&gt; server @ ready&#45;&gt;server @ busy =&gt; server @ ready -->
<g id="edge6" class="edge">
<title>@ busy &#8594; | time | &#8594; server | server @ busy =&gt; server @ ready&#45;&gt;server @ busy =&gt; server @ ready</title>
<path fill="none" stroke="mediumblue" stroke-width="3" d="M527.29,-544.47C546.06,-517.14 568,-476.7 568,-437 568,-437 568,-437 568,-221 568,-122.23 406.39,-89.4 364.05,-82.49"/>
<polygon fill="mediumblue" stroke="mediumblue" stroke-width="3" points="364.56,-79.03 354.16,-81.02 363.53,-85.95 364.56,-79.03"/>
</g>
<!-- server @ busy =&gt; @ busy &#45;&gt; time &#45;&gt; server =&gt; server @ ready&#45;&gt;server &#8594; | response | &#8594; client&#45;1 | server @ busy =&gt; server @ ready -->
<g id="edge1" class="edge">
<title>server @ busy =&gt; @ busy &#45;&gt; time &#45;&gt; server =&gt; server @ ready&#45;&gt;server &#8594; | response | &#8594; client&#45;1 | server @ busy =&gt; server @ ready</title>
<path fill="none" stroke="mediumblue" stroke-width="3" d="M434.05,-506.95C434.93,-506.03 447.6,-492.79 461.69,-478.07"/>
<polygon fill="mediumblue" stroke="mediumblue" stroke-width="3" points="464.29,-480.42 468.67,-470.78 459.23,-475.58 464.29,-480.42"/>
</g>
<!-- server @ busy =&gt; @ busy &#45;&gt; time &#45;&gt; server =&gt; server @ ready&#45;2 -->
<g id="node4" class="node">
<title>server @ busy =&gt; @ busy &#45;&gt; time &#45;&gt; server =&gt; server @ ready&#45;2</title>
<polygon fill="none" stroke="darkgreen" stroke-width="2" points="234.5,-436.5 233.5,-436.5 233.5,-435.5 234.5,-435.5 234.5,-436.5"/>
</g>
<!-- server @ busy =&gt; @ busy &#45;&gt; time &#45;&gt; server =&gt; server @ ready&#45;&gt;server @ busy =&gt; @ busy &#45;&gt; time &#45;&gt; server =&gt; server @ ready&#45;2 -->
<g id="edge4" class="edge">
<title>server @ busy =&gt; @ busy &#45;&gt; time &#45;&gt; server =&gt; server @ ready&#45;&gt;server @ busy =&gt; @ busy &#45;&gt; time &#45;&gt; server =&gt; server @ ready&#45;2</title>
<path fill="none" stroke="darkgreen" stroke-width="3" d="M433.95,-506.99C431.99,-506.44 368.67,-488.68 319,-471 281.87,-457.78 236.91,-438.27 234.14,-437.06"/>
</g>
<!-- server &#8594; | response | &#8594; client&#45;0 | server @ busy =&gt; server @ ready -->
<g id="node9" class="node">
<title>server &#8594; | response | &#8594; client&#45;0 | server @ busy =&gt; server @ ready</title>
<polygon fill="paleturquoise" stroke="paleturquoise" points="328,-401.5 328,-470.5 406,-470.5 406,-401.5 328,-401.5"/>
<text text-anchor="middle" x="367" y="-455.3" font-family="Sans-Serif" font-size="14.00">server →</text>
<polyline fill="none" stroke="paleturquoise" points="328,-447.5 406,-447.5 "/>
<text text-anchor="middle" x="367" y="-432.3" font-family="Sans-Serif" font-size="14.00">response</text>
<polyline fill="none" stroke="paleturquoise" points="328,-424.5 406,-424.5 "/>
<text text-anchor="middle" x="367" y="-409.3" font-family="Sans-Serif" font-size="14.00">→ client&#45;0</text>
</g>
<!-- server @ busy =&gt; @ busy &#45;&gt; time &#45;&gt; server =&gt; server @ ready&#45;&gt;server &#8594; | response | &#8594; client&#45;0 | server @ busy =&gt; server @ ready -->
<g id="edge10" class="edge">
<title>server @ busy =&gt; @ busy &#45;&gt; time &#45;&gt; server =&gt; server @ ready&#45;&gt;server &#8594; | response | &#8594; client&#45;0 | server @ busy =&gt; server @ ready</title>
<path fill="none" stroke="mediumblue" stroke-width="3" d="M433.95,-506.95C433.07,-506.03 420.4,-492.79 406.31,-478.07"/>
<polygon fill="mediumblue" stroke="mediumblue" stroke-width="3" points="408.77,-475.58 399.33,-470.78 403.71,-480.42 408.77,-475.58"/>
</g>
<!-- server @ ready -->
<g id="node6" class="node">
<title>server @ ready</title>
<polygon fill="palegreen" stroke="palegreen" points="214,-348 104,-348 104,-312 214,-312 214,-348"/>
<text text-anchor="middle" x="159" y="-326.3" font-family="Sans-Serif" font-size="14.00">server @ ready</text>
</g>
<!-- server @ busy =&gt; @ busy &#45;&gt; time &#45;&gt; server =&gt; server @ ready&#45;2&#45;&gt;server @ ready -->
<g id="edge5" class="edge">
<title>server @ busy =&gt; @ busy &#45;&gt; time &#45;&gt; server =&gt; server @ ready&#45;2&#45;&gt;server @ ready</title>
<path fill="none" stroke="darkgreen" stroke-width="3" d="M233.95,-434.92C232.42,-432.81 199.11,-386.61 177.41,-356.53"/>
<polygon fill="darkgreen" stroke="darkgreen" stroke-width="3" points="180.06,-354.22 171.37,-348.15 174.38,-358.31 180.06,-354.22"/>
</g>
<!-- server @ busy -->
<g id="node5" class="node">
<title>server @ busy</title>
<polygon fill="palegreen" stroke="palegreen" points="406.5,-169 301.5,-169 301.5,-133 406.5,-133 406.5,-169"/>
<text text-anchor="middle" x="354" y="-147.3" font-family="Sans-Serif" font-size="14.00">server @ busy</text>
</g>
<!-- server @ busy&#45;&gt;server @ busy =&gt; @ busy &#45;&gt; time &#45;&gt; server =&gt; server @ ready -->
<g id="edge3" class="edge">
<title>server @ busy&#45;&gt;server @ busy =&gt; @ busy &#45;&gt; time &#45;&gt; server =&gt; server @ ready</title>
<path fill="none" stroke="darkgreen" stroke-width="3" d="M378.44,-169.27C401.96,-188.12 434,-220.65 434,-258 434,-331 434,-331 434,-331 434,-408 434,-503.95 434,-506.93"/>
</g>
<!-- server @ busy&#45;&gt;server @ busy =&gt; server @ ready -->
<g id="edge7" class="edge">
<title>server @ busy&#45;&gt;server @ busy =&gt; server @ ready</title>
<path fill="none" stroke="darkgreen" stroke-width="3" d="M354,-132.94C354,-113.15 354,-82.96 354,-81.09"/>
</g>
<!-- server @ ready =&gt; server @ ready ! agent: server is invalid because: missing handler for message: time when in state: ready -->
<g id="node11" class="node">
<title>server @ ready =&gt; server @ ready ! agent: server is invalid because: missing handler for message: time when in state: ready</title>
<polygon fill="none" stroke="#0063cd" stroke-width="4" points="135.5,-259 134.5,-259 134.5,-258 135.5,-258 135.5,-259"/>
</g>
<!-- server @ ready&#45;&gt;server @ ready =&gt; server @ ready ! agent: server is invalid because: missing handler for message: time when in state: ready -->
<g id="edge12" class="edge">
<title>server @ ready&#45;&gt;server @ ready =&gt; server @ ready ! agent: server is invalid because: missing handler for message: time when in state: ready</title>
<path fill="none" stroke="crimson" stroke-width="3" d="M153.07,-311.7C146.18,-291.62 135.68,-260.99 135.03,-259.09"/>
</g>
<!-- server @ ready =&gt; server @ busy -->
<g id="node15" class="node">
<title>server @ ready =&gt; server @ busy</title>
<polygon fill="none" stroke="#0063cd" stroke-width="4" points="309.5,-259 308.5,-259 308.5,-258 309.5,-258 309.5,-259"/>
</g>
<!-- server @ ready&#45;&gt;server @ ready =&gt; server @ busy -->
<g id="edge16" class="edge">
<title>server @ ready&#45;&gt;server @ ready =&gt; server @ busy</title>
<path fill="none" stroke="darkgreen" stroke-width="3" d="M189.63,-311.99C200.11,-306.37 211.97,-300.22 223,-295 259.28,-277.82 305.98,-260.14 308.86,-259.05"/>
</g>
<!-- server @ busy =&gt; server @ ready&#45;2 -->
<g id="node8" class="node">
<title>server @ busy =&gt; server @ ready&#45;2</title>
<polygon fill="none" stroke="darkgreen" stroke-width="2" points="305.5,-44 304.5,-44 304.5,-43 305.5,-43 305.5,-44"/>
</g>
<!-- server @ busy =&gt; server @ ready&#45;&gt;server @ busy =&gt; server @ ready&#45;2 -->
<g id="edge8" class="edge">
<title>server @ busy =&gt; server @ ready&#45;&gt;server @ busy =&gt; server @ ready&#45;2</title>
<path fill="none" stroke="darkgreen" stroke-width="3" d="M353.86,-79.9C351.08,-77.85 307.83,-46.08 305.13,-44.1"/>
</g>
<!-- server @ busy =&gt; server @ ready&#45;2&#45;&gt;server @ ready -->
<g id="edge9" class="edge">
<title>server @ busy =&gt; server @ ready&#45;2&#45;&gt;server @ ready</title>
<path fill="none" stroke="darkgreen" stroke-width="3" d="M304.89,-44.16C302.54,-47.47 265,-101.22 265,-150 265,-222 265,-222 265,-222 265,-259.32 232.05,-288.29 202.89,-306.62"/>
<polygon fill="darkgreen" stroke="darkgreen" stroke-width="3" points="200.77,-303.81 194,-311.96 204.38,-309.81 200.77,-303.81"/>
</g>
<!-- @ ready &#8594; | time | &#8594; server | server @ ready =&gt; server @ ready ! agent: server is invalid because: missing handler for message: time when in state: ready -->
<g id="node10" class="node">
<title>@ ready &#8594; | time | &#8594; server | server @ ready =&gt; server @ ready ! agent: server is invalid because: missing handler for message: time when in state: ready</title>
<polygon fill="paleturquoise" stroke="paleturquoise" points="0,-295.5 0,-364.5 86,-364.5 86,-295.5 0,-295.5"/>
<text text-anchor="middle" x="43" y="-349.3" font-family="Sans-Serif" font-size="14.00">@ ready →</text>
<polyline fill="none" stroke="paleturquoise" points="0,-341.5 86,-341.5 "/>
<text text-anchor="middle" x="43" y="-326.3" font-family="Sans-Serif" font-size="14.00">time</text>
<polyline fill="none" stroke="paleturquoise" points="0,-318.5 86,-318.5 "/>
<text text-anchor="middle" x="43" y="-303.3" font-family="Sans-Serif" font-size="14.00">→ server</text>
</g>
<!-- @ ready &#8594; | time | &#8594; server | server @ ready =&gt; server @ ready ! agent: server is invalid because: missing handler for message: time when in state: ready&#45;&gt;server @ ready =&gt; server @ ready ! agent: server is invalid because: missing handler for message: time when in state: ready -->
<g id="edge11" class="edge">
<title>@ ready &#8594; | time | &#8594; server | server @ ready =&gt; server @ ready ! agent: server is invalid because: missing handler for message: time when in state: ready&#45;&gt;server @ ready =&gt; server @ ready ! agent: server is invalid because: missing handler for message: time when in state: ready</title>
<path fill="none" stroke="mediumblue" stroke-width="3" d="M86.04,-296.25C101.62,-284.4 117.66,-272.19 126.96,-265.12"/>
<polygon fill="mediumblue" stroke="mediumblue" stroke-width="3" points="129.09,-267.9 134.93,-259.06 124.85,-262.33 129.09,-267.9"/>
</g>
<!-- server @ ready =&gt; server @ ready ! agent: server is invalid because: missing handler for message: time when in state: ready&#45;2 -->
<g id="node12" class="node">
<title>server @ ready =&gt; server @ ready ! agent: server is invalid because: missing handler for message: time when in state: ready&#45;2</title>
<polygon fill="none" stroke="darkgreen" stroke-width="2" points="135.5,-222 134.5,-222 134.5,-221 135.5,-221 135.5,-222"/>
</g>
<!-- server @ ready =&gt; server @ ready ! agent: server is invalid because: missing handler for message: time when in state: ready&#45;&gt;server @ ready =&gt; server @ ready ! agent: server is invalid because: missing handler for message: time when in state: ready&#45;2 -->
<g id="edge13" class="edge">
<title>server @ ready =&gt; server @ ready ! agent: server is invalid because: missing handler for message: time when in state: ready&#45;&gt;server @ ready =&gt; server @ ready ! agent: server is invalid because: missing handler for message: time when in state: ready&#45;2</title>
<path fill="none" stroke="crimson" stroke-width="3" d="M135,-257.9C135,-255.85 135,-224.08 135,-222.1"/>
</g>
<!-- server @ ready ! agent: server is invalid because: missing handler for message: time when in state: ready -->
<g id="node13" class="node">
<title>server @ ready ! agent: server is invalid because: missing handler for message: time when in state: ready</title>
<polygon fill="lightcoral" stroke="lightcoral" points="220,-185 50,-185 50,-117 220,-117 220,-185"/>
<text text-anchor="middle" x="135" y="-169.8" font-family="Sans-Serif" font-size="14.00">agent: server is invalid</text>
<text text-anchor="middle" x="135" y="-154.8" font-family="Sans-Serif" font-size="14.00">because: missing handler</text>
<text text-anchor="middle" x="135" y="-139.8" font-family="Sans-Serif" font-size="14.00">for message: time</text>
<text text-anchor="middle" x="135" y="-124.8" font-family="Sans-Serif" font-size="14.00">when in state: ready</text>
</g>
<!-- server @ ready =&gt; server @ ready ! agent: server is invalid because: missing handler for message: time when in state: ready&#45;2&#45;&gt;server @ ready ! agent: server is invalid because: missing handler for message: time when in state: ready -->
<g id="edge14" class="edge">
<title>server @ ready =&gt; server @ ready ! agent: server is invalid because: missing handler for message: time when in state: ready&#45;2&#45;&gt;server @ ready ! agent: server is invalid because: missing handler for message: time when in state: ready</title>
<path fill="none" stroke="crimson" stroke-width="3" d="M135,-220.95C135,-220.11 135,-208.83 135,-195.62"/>
<polygon fill="crimson" stroke="crimson" stroke-width="3" points="138.5,-195.29 135,-185.29 131.5,-195.29 138.5,-195.29"/>
</g>
<!-- client&#45;0 &#8594; | request | &#8594; server | server @ ready =&gt; server @ busy -->
<g id="node14" class="node">
<title>client&#45;0 &#8594; | request | &#8594; server | server @ ready =&gt; server @ busy</title>
<polygon fill="paleturquoise" stroke="paleturquoise" points="232,-295.5 232,-364.5 310,-364.5 310,-295.5 232,-295.5"/>
<text text-anchor="middle" x="271" y="-349.3" font-family="Sans-Serif" font-size="14.00">client&#45;0 →</text>
<polyline fill="none" stroke="paleturquoise" points="232,-341.5 310,-341.5 "/>
<text text-anchor="middle" x="271" y="-326.3" font-family="Sans-Serif" font-size="14.00">request</text>
<polyline fill="none" stroke="paleturquoise" points="232,-318.5 310,-318.5 "/>
<text text-anchor="middle" x="271" y="-303.3" font-family="Sans-Serif" font-size="14.00">→ server</text>
</g>
<!-- client&#45;0 &#8594; | request | &#8594; server | server @ ready =&gt; server @ busy&#45;&gt;server @ ready =&gt; server @ busy -->
<g id="edge15" class="edge">
<title>client&#45;0 &#8594; | request | &#8594; server | server @ ready =&gt; server @ busy&#45;&gt;server @ ready =&gt; server @ busy</title>
<path fill="none" stroke="mediumblue" stroke-width="3" d="M289.33,-295.23C294.77,-285.21 300.29,-275.05 304.09,-268.05"/>
<polygon fill="mediumblue" stroke="mediumblue" stroke-width="3" points="307.28,-269.51 308.97,-259.05 301.12,-266.17 307.28,-269.51"/>
</g>
<!-- server @ ready =&gt; server @ busy&#45;2 -->
<g id="node16" class="node">
<title>server @ ready =&gt; server @ busy&#45;2</title>
<polygon fill="none" stroke="darkgreen" stroke-width="2" points="339.5,-222 338.5,-222 338.5,-221 339.5,-221 339.5,-222"/>
</g>
<!-- server @ ready =&gt; server @ busy&#45;&gt;server @ ready =&gt; server @ busy&#45;2 -->
<g id="edge17" class="edge">
<title>server @ ready =&gt; server @ busy&#45;&gt;server @ ready =&gt; server @ busy&#45;2</title>
<path fill="none" stroke="darkgreen" stroke-width="3" d="M309.09,-257.9C310.79,-255.85 337.27,-224.08 338.92,-222.1"/>
</g>
<!-- server @ ready =&gt; server @ busy&#45;2&#45;&gt;server @ busy -->
<g id="edge18" class="edge">
<title>server @ ready =&gt; server @ busy&#45;2&#45;&gt;server @ busy</title>
<path fill="none" stroke="darkgreen" stroke-width="3" d="M339.01,-220.95C339.27,-219.77 344,-198.02 348.07,-179.26"/>
<polygon fill="darkgreen" stroke="darkgreen" stroke-width="3" points="351.54,-179.81 350.24,-169.29 344.7,-178.32 351.54,-179.81"/>
</g>
<!-- client&#45;1 &#8594; | request | &#8594; server | server @ ready =&gt; server @ busy -->
<g id="node17" class="node">
<title>client&#45;1 &#8594; | request | &#8594; server | server @ ready =&gt; server @ busy</title>
<polygon fill="paleturquoise" stroke="paleturquoise" points="328,-295.5 328,-364.5 406,-364.5 406,-295.5 328,-295.5"/>
<text text-anchor="middle" x="367" y="-349.3" font-family="Sans-Serif" font-size="14.00">client&#45;1 →</text>
<polyline fill="none" stroke="paleturquoise" points="328,-341.5 406,-341.5 "/>
<text text-anchor="middle" x="367" y="-326.3" font-family="Sans-Serif" font-size="14.00">request</text>
<polyline fill="none" stroke="paleturquoise" points="328,-318.5 406,-318.5 "/>
<text text-anchor="middle" x="367" y="-303.3" font-family="Sans-Serif" font-size="14.00">→ server</text>
</g>
<!-- client&#45;1 &#8594; | request | &#8594; server | server @ ready =&gt; server @ busy&#45;&gt;server @ ready =&gt; server @ busy -->
<g id="edge19" class="edge">
<title>client&#45;1 &#8594; | request | &#8594; server | server @ ready =&gt; server @ busy&#45;&gt;server @ ready =&gt; server @ busy</title>
<path fill="none" stroke="mediumblue" stroke-width="3" d="M339.02,-295.23C330.26,-284.66 321.38,-273.95 315.58,-266.94"/>
<polygon fill="mediumblue" stroke="mediumblue" stroke-width="3" points="318.12,-264.52 309.04,-259.05 312.73,-268.99 318.12,-264.52"/>
</g>
</g>
</svg>
