<?xml version="1.0" encoding="UTF-8" standalone="no"?>
<!DOCTYPE svg PUBLIC "-//W3C//DTD SVG 1.1//EN"
 "http://www.w3.org/Graphics/SVG/1.1/DTD/svg11.dtd">
<!-- Generated by graphviz version 2.46.0 (0)
 -->
<!-- Title: G Pages: 1 -->
<svg width="900pt" height="405pt"
 viewBox="0.00 0.00 899.89 405.00" xmlns="http://www.w3.org/2000/svg" xmlns:xlink="http://www.w3.org/1999/xlink">
<g id="graph0" class="graph" transform="scale(1 1) rotate(0) translate(4 401)">
<title>G</title>
<polygon fill="white" stroke="transparent" points="-4,4 -4,-401 895.89,-401 895.89,4 -4,4"/>
<text text-anchor="middle" x="445.95" y="-13.4" font-family="Sans-Serif" font-size="32.00">Partial Server Detail</text>
<!-- server &#8594; | response@0 | &#8594; client&#45;1 -->
<g id="node1" class="node">
<title>server &#8594; | response@0 | &#8594; client&#45;1</title>
<polygon fill="paleturquoise" stroke="paleturquoise" points="334,-184.5 334,-253.5 428,-253.5 428,-184.5 334,-184.5"/>
<text text-anchor="middle" x="381" y="-238.3" font-family="Sans-Serif" font-size="14.00">server →</text>
<polyline fill="none" stroke="paleturquoise" points="334,-230.5 428,-230.5 "/>
<text text-anchor="middle" x="381" y="-215.3" font-family="Sans-Serif" font-size="14.00">response@0</text>
<polyline fill="none" stroke="paleturquoise" points="334,-207.5 428,-207.5 "/>
<text text-anchor="middle" x="381" y="-192.3" font-family="Sans-Serif" font-size="14.00">→ client&#45;1</text>
</g>
<!-- @ busy &#8594; | time | &#8594; server -->
<g id="node2" class="node">
<title>@ busy &#8594; | time | &#8594; server</title>
<polygon fill="paleturquoise" stroke="paleturquoise" points="508.5,-327.5 508.5,-396.5 589.5,-396.5 589.5,-327.5 508.5,-327.5"/>
<text text-anchor="middle" x="549" y="-381.3" font-family="Sans-Serif" font-size="14.00">@ busy →</text>
<polyline fill="none" stroke="paleturquoise" points="508.5,-373.5 589.5,-373.5 "/>
<text text-anchor="middle" x="549" y="-358.3" font-family="Sans-Serif" font-size="14.00">time</text>
<polyline fill="none" stroke="paleturquoise" points="508.5,-350.5 589.5,-350.5 "/>
<text text-anchor="middle" x="549" y="-335.3" font-family="Sans-Serif" font-size="14.00">→ server</text>
</g>
<!-- server @ busy =&gt; @ busy &#45;&gt; time &#45;&gt; server =&gt; server @ ready -->
<g id="node3" class="node">
<title>server @ busy =&gt; @ busy &#45;&gt; time &#45;&gt; server =&gt; server @ ready</title>
<polygon fill="none" stroke="#0063cd" stroke-width="4" points="549.5,-291 548.5,-291 548.5,-290 549.5,-290 549.5,-291"/>
</g>
<!-- @ busy &#8594; | time | &#8594; server&#45;&gt;server @ busy =&gt; @ busy &#45;&gt; time &#45;&gt; server =&gt; server @ ready -->
<g id="edge2" class="edge">
<title>@ busy &#8594; | time | &#8594; server&#45;&gt;server @ busy =&gt; @ busy &#45;&gt; time &#45;&gt; server =&gt; server @ ready</title>
<path fill="none" stroke="mediumblue" stroke-width="3" d="M549,-327.23C549,-309.89 549,-292.15 549,-291.05"/>
</g>
<!-- server @ busy =&gt; @ busy &#45;&gt; time &#45;&gt; server =&gt; server @ ready&#45;&gt;server &#8594; | response@0 | &#8594; client&#45;1 -->
<g id="edge1" class="edge">
<title>server @ busy =&gt; @ busy &#45;&gt; time &#45;&gt; server =&gt; server @ ready&#45;&gt;server &#8594; | response@0 | &#8594; client&#45;1</title>
<path fill="none" stroke="mediumblue" stroke-width="3" d="M548.95,-289.99C547.1,-289.58 490.55,-276.89 437.42,-253.83"/>
<polygon fill="mediumblue" stroke="mediumblue" stroke-width="3" points="438.8,-250.61 428.24,-249.72 435.94,-257 438.8,-250.61"/>
</g>
<!-- server @ ready -->
<g id="node5" class="node">
<title>server @ ready</title>
<polygon fill="palegreen" stroke="palegreen" points="214,-237 104,-237 104,-201 214,-201 214,-237"/>
<text text-anchor="middle" x="159" y="-215.3" font-family="Sans-Serif" font-size="14.00">server @ ready</text>
</g>
<!-- server @ busy =&gt; @ busy &#45;&gt; time &#45;&gt; server =&gt; server @ ready&#45;&gt;server @ ready -->
<g id="edge4" class="edge">
<title>server @ busy =&gt; @ busy &#45;&gt; time &#45;&gt; server =&gt; server @ ready&#45;&gt;server @ ready</title>
<path fill="none" stroke="darkgreen" stroke-width="3" d="M548.46,-290.02C537.38,-290.39 357.94,-295.62 223,-254 213.45,-251.06 203.67,-246.67 194.72,-242.01"/>
<polygon fill="darkgreen" stroke="darkgreen" stroke-width="3" points="196.19,-238.83 185.73,-237.11 192.84,-244.97 196.19,-238.83"/>
</g>
<!-- server &#8594; | response@1 | &#8594; client&#45;1 -->
<g id="node6" class="node">
<title>server &#8594; | response@1 | &#8594; client&#45;1</title>
<polygon fill="paleturquoise" stroke="paleturquoise" points="446,-184.5 446,-253.5 540,-253.5 540,-184.5 446,-184.5"/>
<text text-anchor="middle" x="493" y="-238.3" font-family="Sans-Serif" font-size="14.00">server →</text>
<polyline fill="none" stroke="paleturquoise" points="446,-230.5 540,-230.5 "/>
<text text-anchor="middle" x="493" y="-215.3" font-family="Sans-Serif" font-size="14.00">response@1</text>
<polyline fill="none" stroke="paleturquoise" points="446,-207.5 540,-207.5 "/>
<text text-anchor="middle" x="493" y="-192.3" font-family="Sans-Serif" font-size="14.00">→ client&#45;1</text>
</g>
<!-- server @ busy =&gt; @ busy &#45;&gt; time &#45;&gt; server =&gt; server @ ready&#45;&gt;server &#8594; | response@1 | &#8594; client&#45;1 -->
<g id="edge5" class="edge">
<title>server @ busy =&gt; @ busy &#45;&gt; time &#45;&gt; server =&gt; server @ ready&#45;&gt;server &#8594; | response@1 | &#8594; client&#45;1</title>
<path fill="none" stroke="mediumblue" stroke-width="3" d="M548.96,-289.95C548.24,-289.05 538.01,-276.27 526.5,-261.87"/>
<polygon fill="mediumblue" stroke="mediumblue" stroke-width="3" points="529,-259.4 520.02,-253.78 523.53,-263.77 529,-259.4"/>
</g>
<!-- server &#8594; | response@0 | &#8594; client&#45;0 -->
<g id="node7" class="node">
<title>server &#8594; | response@0 | &#8594; client&#45;0</title>
<polygon fill="paleturquoise" stroke="paleturquoise" points="558,-184.5 558,-253.5 652,-253.5 652,-184.5 558,-184.5"/>
<text text-anchor="middle" x="605" y="-238.3" font-family="Sans-Serif" font-size="14.00">server →</text>
<polyline fill="none" stroke="paleturquoise" points="558,-230.5 652,-230.5 "/>
<text text-anchor="middle" x="605" y="-215.3" font-family="Sans-Serif" font-size="14.00">response@0</text>
<polyline fill="none" stroke="paleturquoise" points="558,-207.5 652,-207.5 "/>
<text text-anchor="middle" x="605" y="-192.3" font-family="Sans-Serif" font-size="14.00">→ client&#45;0</text>
</g>
<!-- server @ busy =&gt; @ busy &#45;&gt; time &#45;&gt; server =&gt; server @ ready&#45;&gt;server &#8594; | response@0 | &#8594; client&#45;0 -->
<g id="edge6" class="edge">
<title>server @ busy =&gt; @ busy &#45;&gt; time &#45;&gt; server =&gt; server @ ready&#45;&gt;server &#8594; | response@0 | &#8594; client&#45;0</title>
<path fill="none" stroke="mediumblue" stroke-width="3" d="M549.04,-289.95C549.76,-289.05 559.99,-276.27 571.5,-261.87"/>
<polygon fill="mediumblue" stroke="mediumblue" stroke-width="3" points="574.47,-263.77 577.98,-253.78 569,-259.4 574.47,-263.77"/>
</g>
<!-- server &#8594; | response@1 | &#8594; client&#45;0 -->
<g id="node8" class="node">
<title>server &#8594; | response@1 | &#8594; client&#45;0</title>
<polygon fill="paleturquoise" stroke="paleturquoise" points="670,-184.5 670,-253.5 764,-253.5 764,-184.5 670,-184.5"/>
<text text-anchor="middle" x="717" y="-238.3" font-family="Sans-Serif" font-size="14.00">server →</text>
<polyline fill="none" stroke="paleturquoise" points="670,-230.5 764,-230.5 "/>
<text text-anchor="middle" x="717" y="-215.3" font-family="Sans-Serif" font-size="14.00">response@1</text>
<polyline fill="none" stroke="paleturquoise" points="670,-207.5 764,-207.5 "/>
<text text-anchor="middle" x="717" y="-192.3" font-family="Sans-Serif" font-size="14.00">→ client&#45;0</text>
</g>
<!-- server @ busy =&gt; @ busy &#45;&gt; time &#45;&gt; server =&gt; server @ ready&#45;&gt;server &#8594; | response@1 | &#8594; client&#45;0 -->
<g id="edge7" class="edge">
<title>server @ busy =&gt; @ busy &#45;&gt; time &#45;&gt; server =&gt; server @ ready&#45;&gt;server &#8594; | response@1 | &#8594; client&#45;0</title>
<path fill="none" stroke="mediumblue" stroke-width="3" d="M549.05,-289.99C550.9,-289.58 607.45,-276.89 660.58,-253.83"/>
<polygon fill="mediumblue" stroke="mediumblue" stroke-width="3" points="662.06,-257 669.76,-249.72 659.2,-250.61 662.06,-257"/>
</g>
<!-- server @ busy -->
<g id="node4" class="node">
<title>server @ busy</title>
<polygon fill="palegreen" stroke="palegreen" points="636.5,-95 531.5,-95 531.5,-59 636.5,-59 636.5,-95"/>
<text text-anchor="middle" x="584" y="-73.3" font-family="Sans-Serif" font-size="14.00">server @ busy</text>
</g>
<!-- server @ busy&#45;&gt;server @ busy =&gt; @ busy &#45;&gt; time &#45;&gt; server =&gt; server @ ready -->
<g id="edge3" class="edge">
<title>server @ busy&#45;&gt;server @ busy =&gt; @ busy &#45;&gt; time &#45;&gt; server =&gt; server @ ready</title>
<path fill="none" stroke="darkgreen" stroke-width="3" d="M636.79,-88.18C740.07,-110.28 952.31,-167.69 875,-254 850.88,-280.93 553.7,-289.86 549.05,-290"/>
</g>
<!-- server @ ready =&gt; server @ ready ! agent: server is invalid because: missing handler for message: time when in state: ready -->
<g id="node10" class="node">
<title>server @ ready =&gt; server @ ready ! agent: server is invalid because: missing handler for message: time when in state: ready</title>
<polygon fill="none" stroke="#0063cd" stroke-width="4" points="101.5,-148 100.5,-148 100.5,-147 101.5,-147 101.5,-148"/>
</g>
<!-- server @ ready&#45;&gt;server @ ready =&gt; server @ ready ! agent: server is invalid because: missing handler for message: time when in state: ready -->
<g id="edge9" class="edge">
<title>server @ ready&#45;&gt;server @ ready =&gt; server @ ready ! agent: server is invalid because: missing handler for message: time when in state: ready</title>
<path fill="none" stroke="crimson" stroke-width="3" d="M144.66,-200.7C128.02,-180.62 102.65,-149.99 101.08,-148.09"/>
</g>
<!-- server @ ready =&gt; server @ busy -->
<g id="node13" class="node">
<title>server @ ready =&gt; server @ busy</title>
<polygon fill="none" stroke="#0063cd" stroke-width="4" points="429.5,-148 428.5,-148 428.5,-147 429.5,-147 429.5,-148"/>
</g>
<!-- server @ ready&#45;&gt;server @ ready =&gt; server @ busy -->
<g id="edge12" class="edge">
<title>server @ ready&#45;&gt;server @ ready =&gt; server @ busy</title>
<path fill="none" stroke="darkgreen" stroke-width="3" d="M186.49,-200.94C197.49,-194.78 210.5,-188.29 223,-184 309.53,-154.29 425.32,-148.19 428.91,-148"/>
</g>
<!-- @ ready &#8594; | time | &#8594; server -->
<g id="node9" class="node">
<title>@ ready &#8594; | time | &#8594; server</title>
<polygon fill="paleturquoise" stroke="paleturquoise" points="0,-184.5 0,-253.5 86,-253.5 86,-184.5 0,-184.5"/>
<text text-anchor="middle" x="43" y="-238.3" font-family="Sans-Serif" font-size="14.00">@ ready →</text>
<polyline fill="none" stroke="paleturquoise" points="0,-230.5 86,-230.5 "/>
<text text-anchor="middle" x="43" y="-215.3" font-family="Sans-Serif" font-size="14.00">time</text>
<polyline fill="none" stroke="paleturquoise" points="0,-207.5 86,-207.5 "/>
<text text-anchor="middle" x="43" y="-192.3" font-family="Sans-Serif" font-size="14.00">→ server</text>
</g>
<!-- @ ready &#8594; | time | &#8594; server&#45;&gt;server @ ready =&gt; server @ ready ! agent: server is invalid because: missing handler for message: time when in state: ready -->
<g id="edge8" class="edge">
<title>@ ready &#8594; | time | &#8594; server&#45;&gt;server @ ready =&gt; server @ ready ! agent: server is invalid because: missing handler for message: time when in state: ready</title>
<path fill="none" stroke="mediumblue" stroke-width="3" d="M70.98,-184.23C79.74,-173.66 88.62,-162.95 94.42,-155.94"/>
<polygon fill="mediumblue" stroke="mediumblue" stroke-width="3" points="97.27,-157.99 100.96,-148.05 91.88,-153.52 97.27,-157.99"/>
</g>
<!-- server @ ready ! agent: server is invalid because: missing handler for message: time when in state: ready -->
<g id="node11" class="node">
<title>server @ ready ! agent: server is invalid because: missing handler for message: time when in state: ready</title>
<polygon fill="lightcoral" stroke="lightcoral" points="186,-111 16,-111 16,-43 186,-43 186,-111"/>
<text text-anchor="middle" x="101" y="-95.8" font-family="Sans-Serif" font-size="14.00">agent: server is invalid</text>
<text text-anchor="middle" x="101" y="-80.8" font-family="Sans-Serif" font-size="14.00">because: missing handler</text>
<text text-anchor="middle" x="101" y="-65.8" font-family="Sans-Serif" font-size="14.00">for message: time</text>
<text text-anchor="middle" x="101" y="-50.8" font-family="Sans-Serif" font-size="14.00">when in state: ready</text>
</g>
<!-- server @ ready =&gt; server @ ready ! agent: server is invalid because: missing handler for message: time when in state: ready&#45;&gt;server @ ready ! agent: server is invalid because: missing handler for message: time when in state: ready -->
<g id="edge10" class="edge">
<title>server @ ready =&gt; server @ ready ! agent: server is invalid because: missing handler for message: time when in state: ready&#45;&gt;server @ ready ! agent: server is invalid because: missing handler for message: time when in state: ready</title>
<path fill="none" stroke="crimson" stroke-width="3" d="M101,-146.95C101,-146.11 101,-134.83 101,-121.62"/>
<polygon fill="crimson" stroke="crimson" stroke-width="3" points="104.5,-121.29 101,-111.29 97.5,-121.29 104.5,-121.29"/>
</g>
<!-- client&#45;0 &#8594; | request@0 | &#8594; server -->
<g id="node12" class="node">
<title>client&#45;0 &#8594; | request@0 | &#8594; server</title>
<polygon fill="paleturquoise" stroke="paleturquoise" points="782.5,-184.5 782.5,-253.5 865.5,-253.5 865.5,-184.5 782.5,-184.5"/>
<text text-anchor="middle" x="824" y="-238.3" font-family="Sans-Serif" font-size="14.00">client&#45;0 →</text>
<polyline fill="none" stroke="paleturquoise" points="782.5,-230.5 865.5,-230.5 "/>
<text text-anchor="middle" x="824" y="-215.3" font-family="Sans-Serif" font-size="14.00">request@0</text>
<polyline fill="none" stroke="paleturquoise" points="782.5,-207.5 865.5,-207.5 "/>
<text text-anchor="middle" x="824" y="-192.3" font-family="Sans-Serif" font-size="14.00">→ server</text>
</g>
<!-- client&#45;0 &#8594; | request@0 | &#8594; server&#45;&gt;server @ ready =&gt; server @ busy -->
<g id="edge11" class="edge">
<title>client&#45;0 &#8594; | request@0 | &#8594; server&#45;&gt;server @ ready =&gt; server @ busy</title>
<path fill="none" stroke="mediumblue" stroke-width="3" d="M782.25,-187.97C779.2,-186.47 776.1,-185.12 773,-184 709.11,-160.96 489.52,-150.53 439.29,-148.41"/>
<polygon fill="mediumblue" stroke="mediumblue" stroke-width="3" points="439.18,-144.91 429.05,-148 438.9,-151.9 439.18,-144.91"/>
</g>
<!-- server @ ready =&gt; server @ busy&#45;&gt;server @ busy -->
<g id="edge13" class="edge">
<title>server @ ready =&gt; server @ busy&#45;&gt;server @ busy</title>
<path fill="none" stroke="darkgreen" stroke-width="3" d="M429.11,-146.95C432.05,-145.64 491.9,-119 536.32,-99.22"/>
<polygon fill="darkgreen" stroke="darkgreen" stroke-width="3" points="537.83,-102.38 545.54,-95.12 534.98,-95.99 537.83,-102.38"/>
</g>
<!-- client&#45;1 &#8594; | request@0 | &#8594; server -->
<g id="node14" class="node">
<title>client&#45;1 &#8594; | request@0 | &#8594; server</title>
<polygon fill="paleturquoise" stroke="paleturquoise" points="232.5,-184.5 232.5,-253.5 315.5,-253.5 315.5,-184.5 232.5,-184.5"/>
<text text-anchor="middle" x="274" y="-238.3" font-family="Sans-Serif" font-size="14.00">client&#45;1 →</text>
<polyline fill="none" stroke="paleturquoise" points="232.5,-230.5 315.5,-230.5 "/>
<text text-anchor="middle" x="274" y="-215.3" font-family="Sans-Serif" font-size="14.00">request@0</text>
<polyline fill="none" stroke="paleturquoise" points="232.5,-207.5 315.5,-207.5 "/>
<text text-anchor="middle" x="274" y="-192.3" font-family="Sans-Serif" font-size="14.00">→ server</text>
</g>
<!-- client&#45;1 &#8594; | request@0 | &#8594; server&#45;&gt;server @ ready =&gt; server @ busy -->
<g id="edge14" class="edge">
<title>client&#45;1 &#8594; | request@0 | &#8594; server&#45;&gt;server @ ready =&gt; server @ busy</title>
<path fill="none" stroke="mediumblue" stroke-width="3" d="M315.52,-189.1C318.67,-187.28 321.85,-185.56 325,-184 358.02,-167.61 400.34,-155.48 419.19,-150.49"/>
<polygon fill="mediumblue" stroke="mediumblue" stroke-width="3" points="420.13,-153.87 428.96,-148.01 418.4,-147.08 420.13,-153.87"/>
</g>
</g>
</svg>
