<?xml version="1.0" encoding="UTF-8" standalone="no"?>
<!DOCTYPE svg PUBLIC "-//W3C//DTD SVG 1.1//EN"
 "http://www.w3.org/Graphics/SVG/1.1/DTD/svg11.dtd">
<!-- Generated by graphviz version 2.46.0 (0)
 -->
<!-- Title: G Pages: 1 -->
<svg width="519pt" height="548pt"
 viewBox="0.00 0.00 519.13 548.00" xmlns="http://www.w3.org/2000/svg" xmlns:xlink="http://www.w3.org/1999/xlink">
<g id="graph0" class="graph" transform="scale(1 1) rotate(0) translate(4 544)">
<title>G</title>
<polygon fill="white" stroke="transparent" points="-4,4 -4,-544 515.13,-544 515.13,4 -4,4"/>
<text text-anchor="middle" x="255.56" y="-13.4" font-family="Sans-Serif" font-size="32.00">Partial Server Detail</text>
<!-- server &#8594; | response@0 | &#8594; client&#45;1 | server @ busy =&gt; server @ ready -->
<g id="node1" class="node">
<title>server &#8594; | response@0 | &#8594; client&#45;1 | server @ busy =&gt; server @ ready</title>
<polygon fill="paleturquoise" stroke="paleturquoise" points="26,-327.5 26,-396.5 120,-396.5 120,-327.5 26,-327.5"/>
<text text-anchor="middle" x="73" y="-381.3" font-family="Sans-Serif" font-size="14.00">server →</text>
<polyline fill="none" stroke="paleturquoise" points="26,-373.5 120,-373.5 "/>
<text text-anchor="middle" x="73" y="-358.3" font-family="Sans-Serif" font-size="14.00">response@0</text>
<polyline fill="none" stroke="paleturquoise" points="26,-350.5 120,-350.5 "/>
<text text-anchor="middle" x="73" y="-335.3" font-family="Sans-Serif" font-size="14.00">→ client&#45;1</text>
</g>
<!-- @ busy &#8594; | time | &#8594; server | server @ busy =&gt; server @ ready -->
<g id="node2" class="node">
<title>@ busy &#8594; | time | &#8594; server | server @ busy =&gt; server @ ready</title>
<polygon fill="paleturquoise" stroke="paleturquoise" points="220.5,-470.5 220.5,-539.5 301.5,-539.5 301.5,-470.5 220.5,-470.5"/>
<text text-anchor="middle" x="261" y="-524.3" font-family="Sans-Serif" font-size="14.00">@ busy →</text>
<polyline fill="none" stroke="paleturquoise" points="220.5,-516.5 301.5,-516.5 "/>
<text text-anchor="middle" x="261" y="-501.3" font-family="Sans-Serif" font-size="14.00">time</text>
<polyline fill="none" stroke="paleturquoise" points="220.5,-493.5 301.5,-493.5 "/>
<text text-anchor="middle" x="261" y="-478.3" font-family="Sans-Serif" font-size="14.00">→ server</text>
</g>
<!-- server @ busy =&gt; @ busy &#45;&gt; time &#45;&gt; server =&gt; server @ ready -->
<g id="node3" class="node">
<title>server @ busy =&gt; @ busy &#45;&gt; time &#45;&gt; server =&gt; server @ ready</title>
<polygon fill="none" stroke="#0063cd" stroke-width="4" points="261.5,-434 260.5,-434 260.5,-433 261.5,-433 261.5,-434"/>
</g>
<!-- @ busy &#8594; | time | &#8594; server | server @ busy =&gt; server @ ready&#45;&gt;server @ busy =&gt; @ busy &#45;&gt; time &#45;&gt; server =&gt; server @ ready -->
<g id="edge2" class="edge">
<title>@ busy &#8594; | time | &#8594; server | server @ busy =&gt; server @ ready&#45;&gt;server @ busy =&gt; @ busy &#45;&gt; time &#45;&gt; server =&gt; server @ ready</title>
<path fill="none" stroke="mediumblue" stroke-width="3" d="M261,-470.23C261,-452.89 261,-435.15 261,-434.05"/>
</g>
<!-- server @ busy =&gt; @ busy &#45;&gt; time &#45;&gt; server =&gt; server @ ready&#45;&gt;server &#8594; | response@0 | &#8594; client&#45;1 | server @ busy =&gt; server @ ready -->
<g id="edge1" class="edge">
<title>server @ busy =&gt; @ busy &#45;&gt; time &#45;&gt; server =&gt; server @ ready&#45;&gt;server &#8594; | response@0 | &#8594; client&#45;1 | server @ busy =&gt; server @ ready</title>
<path fill="none" stroke="mediumblue" stroke-width="3" d="M260.94,-432.99C258.74,-432.64 191.11,-421.78 129.59,-396.83"/>
<polygon fill="mediumblue" stroke="mediumblue" stroke-width="3" points="130.75,-393.52 120.17,-392.88 128.04,-399.98 130.75,-393.52"/>
</g>
<!-- server @ busy =&gt; @ busy &#45;&gt; time &#45;&gt; server =&gt; server @ ready&#45;2 -->
<g id="node4" class="node">
<title>server @ busy =&gt; @ busy &#45;&gt; time &#45;&gt; server =&gt; server @ ready&#45;2</title>
<polygon fill="none" stroke="darkgreen" stroke-width="2" points="139.5,-362.5 138.5,-362.5 138.5,-361.5 139.5,-361.5 139.5,-362.5"/>
</g>
<!-- server @ busy =&gt; @ busy &#45;&gt; time &#45;&gt; server =&gt; server @ ready&#45;&gt;server @ busy =&gt; @ busy &#45;&gt; time &#45;&gt; server =&gt; server @ ready&#45;2 -->
<g id="edge4" class="edge">
<title>server @ busy =&gt; @ busy &#45;&gt; time &#45;&gt; server =&gt; server @ ready&#45;&gt;server @ busy =&gt; @ busy &#45;&gt; time &#45;&gt; server =&gt; server @ ready&#45;2</title>
<path fill="none" stroke="darkgreen" stroke-width="3" d="M260.14,-433.01C251.72,-433.03 183.23,-432.09 149,-397 138.35,-386.08 138.95,-364.41 139,-363.07"/>
</g>
<!-- server &#8594; | response@1 | &#8594; client&#45;1 | server @ busy =&gt; server @ ready -->
<g id="node7" class="node">
<title>server &#8594; | response@1 | &#8594; client&#45;1 | server @ busy =&gt; server @ ready</title>
<polygon fill="paleturquoise" stroke="paleturquoise" points="158,-327.5 158,-396.5 252,-396.5 252,-327.5 158,-327.5"/>
<text text-anchor="middle" x="205" y="-381.3" font-family="Sans-Serif" font-size="14.00">server →</text>
<polyline fill="none" stroke="paleturquoise" points="158,-373.5 252,-373.5 "/>
<text text-anchor="middle" x="205" y="-358.3" font-family="Sans-Serif" font-size="14.00">response@1</text>
<polyline fill="none" stroke="paleturquoise" points="158,-350.5 252,-350.5 "/>
<text text-anchor="middle" x="205" y="-335.3" font-family="Sans-Serif" font-size="14.00">→ client&#45;1</text>
</g>
<!-- server @ busy =&gt; @ busy &#45;&gt; time &#45;&gt; server =&gt; server @ ready&#45;&gt;server &#8594; | response@1 | &#8594; client&#45;1 | server @ busy =&gt; server @ ready -->
<g id="edge6" class="edge">
<title>server @ busy =&gt; @ busy &#45;&gt; time &#45;&gt; server =&gt; server @ ready&#45;&gt;server &#8594; | response@1 | &#8594; client&#45;1 | server @ busy =&gt; server @ ready</title>
<path fill="none" stroke="mediumblue" stroke-width="3" d="M260.96,-432.95C260.24,-432.05 250.01,-419.27 238.5,-404.87"/>
<polygon fill="mediumblue" stroke="mediumblue" stroke-width="3" points="241,-402.4 232.02,-396.78 235.53,-406.77 241,-402.4"/>
</g>
<!-- server &#8594; | response@0 | &#8594; client&#45;0 | server @ busy =&gt; server @ ready -->
<g id="node8" class="node">
<title>server &#8594; | response@0 | &#8594; client&#45;0 | server @ busy =&gt; server @ ready</title>
<polygon fill="paleturquoise" stroke="paleturquoise" points="270,-327.5 270,-396.5 364,-396.5 364,-327.5 270,-327.5"/>
<text text-anchor="middle" x="317" y="-381.3" font-family="Sans-Serif" font-size="14.00">server →</text>
<polyline fill="none" stroke="paleturquoise" points="270,-373.5 364,-373.5 "/>
<text text-anchor="middle" x="317" y="-358.3" font-family="Sans-Serif" font-size="14.00">response@0</text>
<polyline fill="none" stroke="paleturquoise" points="270,-350.5 364,-350.5 "/>
<text text-anchor="middle" x="317" y="-335.3" font-family="Sans-Serif" font-size="14.00">→ client&#45;0</text>
</g>
<!-- server @ busy =&gt; @ busy &#45;&gt; time &#45;&gt; server =&gt; server @ ready&#45;&gt;server &#8594; | response@0 | &#8594; client&#45;0 | server @ busy =&gt; server @ ready -->
<g id="edge7" class="edge">
<title>server @ busy =&gt; @ busy &#45;&gt; time &#45;&gt; server =&gt; server @ ready&#45;&gt;server &#8594; | response@0 | &#8594; client&#45;0 | server @ busy =&gt; server @ ready</title>
<path fill="none" stroke="mediumblue" stroke-width="3" d="M261.04,-432.95C261.76,-432.05 271.99,-419.27 283.5,-404.87"/>
<polygon fill="mediumblue" stroke="mediumblue" stroke-width="3" points="286.47,-406.77 289.98,-396.78 281,-402.4 286.47,-406.77"/>
</g>
<!-- server &#8594; | response@1 | &#8594; client&#45;0 | server @ busy =&gt; server @ ready -->
<g id="node9" class="node">
<title>server &#8594; | response@1 | &#8594; client&#45;0 | server @ busy =&gt; server @ ready</title>
<polygon fill="paleturquoise" stroke="paleturquoise" points="382,-327.5 382,-396.5 476,-396.5 476,-327.5 382,-327.5"/>
<text text-anchor="middle" x="429" y="-381.3" font-family="Sans-Serif" font-size="14.00">server →</text>
<polyline fill="none" stroke="paleturquoise" points="382,-373.5 476,-373.5 "/>
<text text-anchor="middle" x="429" y="-358.3" font-family="Sans-Serif" font-size="14.00">response@1</text>
<polyline fill="none" stroke="paleturquoise" points="382,-350.5 476,-350.5 "/>
<text text-anchor="middle" x="429" y="-335.3" font-family="Sans-Serif" font-size="14.00">→ client&#45;0</text>
</g>
<!-- server @ busy =&gt; @ busy &#45;&gt; time &#45;&gt; server =&gt; server @ ready&#45;&gt;server &#8594; | response@1 | &#8594; client&#45;0 | server @ busy =&gt; server @ ready -->
<g id="edge8" class="edge">
<title>server @ busy =&gt; @ busy &#45;&gt; time &#45;&gt; server =&gt; server @ ready&#45;&gt;server &#8594; | response@1 | &#8594; client&#45;0 | server @ busy =&gt; server @ ready</title>
<path fill="none" stroke="mediumblue" stroke-width="3" d="M261.05,-432.99C262.9,-432.58 319.45,-419.89 372.58,-396.83"/>
<polygon fill="mediumblue" stroke="mediumblue" stroke-width="3" points="374.06,-400 381.76,-392.72 371.2,-393.61 374.06,-400"/>
</g>
<!-- server @ ready -->
<g id="node6" class="node">
<title>server @ ready</title>
<polygon fill="palegreen" stroke="palegreen" points="214,-274 104,-274 104,-238 214,-238 214,-274"/>
<text text-anchor="middle" x="159" y="-252.3" font-family="Sans-Serif" font-size="14.00">server @ ready</text>
</g>
<!-- server @ busy =&gt; @ busy &#45;&gt; time &#45;&gt; server =&gt; server @ ready&#45;2&#45;&gt;server @ ready -->
<g id="edge5" class="edge">
<title>server @ busy =&gt; @ busy &#45;&gt; time &#45;&gt; server =&gt; server @ ready&#45;2&#45;&gt;server @ ready</title>
<path fill="none" stroke="darkgreen" stroke-width="3" d="M139.01,-360.92C139.41,-358.84 148,-314.19 153.79,-284.09"/>
<polygon fill="darkgreen" stroke="darkgreen" stroke-width="3" points="157.25,-284.63 155.7,-274.15 150.38,-283.31 157.25,-284.63"/>
</g>
<!-- server @ busy -->
<g id="node5" class="node">
<title>server @ busy</title>
<polygon fill="palegreen" stroke="palegreen" points="497.5,-95 392.5,-95 392.5,-59 497.5,-59 497.5,-95"/>
<text text-anchor="middle" x="445" y="-73.3" font-family="Sans-Serif" font-size="14.00">server @ busy</text>
</g>
<!-- server @ busy&#45;&gt;server @ busy =&gt; @ busy &#45;&gt; time &#45;&gt; server =&gt; server @ ready -->
<g id="edge3" class="edge">
<title>server @ busy&#45;&gt;server @ busy =&gt; @ busy &#45;&gt; time &#45;&gt; server =&gt; server @ ready</title>
<path fill="none" stroke="darkgreen" stroke-width="3" d="M461.75,-95.13C479.19,-114.85 504,-149.04 504,-184 504,-257 504,-257 504,-257 504,-319.79 528.85,-352.06 485,-397 450.34,-432.52 266.86,-432.99 261.14,-433"/>
</g>
<!-- server @ ready =&gt; server @ ready ! agent: server is invalid because: missing handler for message: time when in state: ready -->
<g id="node11" class="node">
<title>server @ ready =&gt; server @ ready ! agent: server is invalid because: missing handler for message: time when in state: ready</title>
<polygon fill="none" stroke="#0063cd" stroke-width="4" points="101.5,-185 100.5,-185 100.5,-184 101.5,-184 101.5,-185"/>
</g>
<!-- server @ ready&#45;&gt;server @ ready =&gt; server @ ready ! agent: server is invalid because: missing handler for message: time when in state: ready -->
<g id="edge10" class="edge">
<title>server @ ready&#45;&gt;server @ ready =&gt; server @ ready ! agent: server is invalid because: missing handler for message: time when in state: ready</title>
<path fill="none" stroke="crimson" stroke-width="3" d="M144.66,-237.7C128.02,-217.62 102.65,-186.99 101.08,-185.09"/>
</g>
<!-- server @ ready =&gt; server @ busy -->
<g id="node15" class="node">
<title>server @ ready =&gt; server @ busy</title>
<polygon fill="none" stroke="#0063cd" stroke-width="4" points="339.5,-185 338.5,-185 338.5,-184 339.5,-184 339.5,-185"/>
</g>
<!-- server @ ready&#45;&gt;server @ ready =&gt; server @ busy -->
<g id="edge14" class="edge">
<title>server @ ready&#45;&gt;server @ ready =&gt; server @ busy</title>
<path fill="none" stroke="darkgreen" stroke-width="3" d="M201.31,-237.9C214.92,-232.45 230.08,-226.42 244,-221 284.76,-205.13 335.7,-186.22 338.85,-185.06"/>
</g>
<!-- @ ready &#8594; | time | &#8594; server | server @ ready =&gt; server @ ready ! agent: server is invalid because: missing handler for message: time when in state: ready -->
<g id="node10" class="node">
<title>@ ready &#8594; | time | &#8594; server | server @ ready =&gt; server @ ready ! agent: server is invalid because: missing handler for message: time when in state: ready</title>
<polygon fill="paleturquoise" stroke="paleturquoise" points="0,-221.5 0,-290.5 86,-290.5 86,-221.5 0,-221.5"/>
<text text-anchor="middle" x="43" y="-275.3" font-family="Sans-Serif" font-size="14.00">@ ready →</text>
<polyline fill="none" stroke="paleturquoise" points="0,-267.5 86,-267.5 "/>
<text text-anchor="middle" x="43" y="-252.3" font-family="Sans-Serif" font-size="14.00">time</text>
<polyline fill="none" stroke="paleturquoise" points="0,-244.5 86,-244.5 "/>
<text text-anchor="middle" x="43" y="-229.3" font-family="Sans-Serif" font-size="14.00">→ server</text>
</g>
<!-- @ ready &#8594; | time | &#8594; server | server @ ready =&gt; server @ ready ! agent: server is invalid because: missing handler for message: time when in state: ready&#45;&gt;server @ ready =&gt; server @ ready ! agent: server is invalid because: missing handler for message: time when in state: ready -->
<g id="edge9" class="edge">
<title>@ ready &#8594; | time | &#8594; server | server @ ready =&gt; server @ ready ! agent: server is invalid because: missing handler for message: time when in state: ready&#45;&gt;server @ ready =&gt; server @ ready ! agent: server is invalid because: missing handler for message: time when in state: ready</title>
<path fill="none" stroke="mediumblue" stroke-width="3" d="M70.98,-221.23C79.74,-210.66 88.62,-199.95 94.42,-192.94"/>
<polygon fill="mediumblue" stroke="mediumblue" stroke-width="3" points="97.27,-194.99 100.96,-185.05 91.88,-190.52 97.27,-194.99"/>
</g>
<!-- server @ ready =&gt; server @ ready ! agent: server is invalid because: missing handler for message: time when in state: ready&#45;2 -->
<g id="node12" class="node">
<title>server @ ready =&gt; server @ ready ! agent: server is invalid because: missing handler for message: time when in state: ready&#45;2</title>
<polygon fill="none" stroke="darkgreen" stroke-width="2" points="101.5,-148 100.5,-148 100.5,-147 101.5,-147 101.5,-148"/>
</g>
<!-- server @ ready =&gt; server @ ready ! agent: server is invalid because: missing handler for message: time when in state: ready&#45;&gt;server @ ready =&gt; server @ ready ! agent: server is invalid because: missing handler for message: time when in state: ready&#45;2 -->
<g id="edge11" class="edge">
<title>server @ ready =&gt; server @ ready ! agent: server is invalid because: missing handler for message: time when in state: ready&#45;&gt;server @ ready =&gt; server @ ready ! agent: server is invalid because: missing handler for message: time when in state: ready&#45;2</title>
<path fill="none" stroke="crimson" stroke-width="3" d="M101,-183.9C101,-181.85 101,-150.08 101,-148.1"/>
</g>
<!-- server @ ready ! agent: server is invalid because: missing handler for message: time when in state: ready -->
<g id="node13" class="node">
<title>server @ ready ! agent: server is invalid because: missing handler for message: time when in state: ready</title>
<polygon fill="lightcoral" stroke="lightcoral" points="186,-111 16,-111 16,-43 186,-43 186,-111"/>
<text text-anchor="middle" x="101" y="-95.8" font-family="Sans-Serif" font-size="14.00">agent: server is invalid</text>
<text text-anchor="middle" x="101" y="-80.8" font-family="Sans-Serif" font-size="14.00">because: missing handler</text>
<text text-anchor="middle" x="101" y="-65.8" font-family="Sans-Serif" font-size="14.00">for message: time</text>
<text text-anchor="middle" x="101" y="-50.8" font-family="Sans-Serif" font-size="14.00">when in state: ready</text>
</g>
<!-- server @ ready =&gt; server @ ready ! agent: server is invalid because: missing handler for message: time when in state: ready&#45;2&#45;&gt;server @ ready ! agent: server is invalid because: missing handler for message: time when in state: ready -->
<g id="edge12" class="edge">
<title>server @ ready =&gt; server @ ready ! agent: server is invalid because: missing handler for message: time when in state: ready&#45;2&#45;&gt;server @ ready ! agent: server is invalid because: missing handler for message: time when in state: ready</title>
<path fill="none" stroke="crimson" stroke-width="3" d="M101,-146.95C101,-146.11 101,-134.83 101,-121.62"/>
<polygon fill="crimson" stroke="crimson" stroke-width="3" points="104.5,-121.29 101,-111.29 97.5,-121.29 104.5,-121.29"/>
</g>
<!-- client&#45;0 &#8594; | request@0 | &#8594; server | server @ ready =&gt; server @ busy -->
<g id="node14" class="node">
<title>client&#45;0 &#8594; | request@0 | &#8594; server | server @ ready =&gt; server @ busy</title>
<polygon fill="paleturquoise" stroke="paleturquoise" points="252.5,-221.5 252.5,-290.5 335.5,-290.5 335.5,-221.5 252.5,-221.5"/>
<text text-anchor="middle" x="294" y="-275.3" font-family="Sans-Serif" font-size="14.00">client&#45;0 →</text>
<polyline fill="none" stroke="paleturquoise" points="252.5,-267.5 335.5,-267.5 "/>
<text text-anchor="middle" x="294" y="-252.3" font-family="Sans-Serif" font-size="14.00">request@0</text>
<polyline fill="none" stroke="paleturquoise" points="252.5,-244.5 335.5,-244.5 "/>
<text text-anchor="middle" x="294" y="-229.3" font-family="Sans-Serif" font-size="14.00">→ server</text>
</g>
<!-- client&#45;0 &#8594; | request@0 | &#8594; server | server @ ready =&gt; server @ busy&#45;&gt;server @ ready =&gt; server @ busy -->
<g id="edge13" class="edge">
<title>client&#45;0 &#8594; | request@0 | &#8594; server | server @ ready =&gt; server @ busy&#45;&gt;server @ ready =&gt; server @ busy</title>
<path fill="none" stroke="mediumblue" stroke-width="3" d="M315.71,-221.23C322.33,-210.93 329.04,-200.5 333.55,-193.49"/>
<polygon fill="mediumblue" stroke="mediumblue" stroke-width="3" points="336.5,-195.36 338.97,-185.05 330.61,-191.57 336.5,-195.36"/>
</g>
<!-- server @ ready =&gt; server @ busy&#45;2 -->
<g id="node16" class="node">
<title>server @ ready =&gt; server @ busy&#45;2</title>
<polygon fill="none" stroke="darkgreen" stroke-width="2" points="385.5,-148 384.5,-148 384.5,-147 385.5,-147 385.5,-148"/>
</g>
<!-- server @ ready =&gt; server @ busy&#45;&gt;server @ ready =&gt; server @ busy&#45;2 -->
<g id="edge15" class="edge">
<title>server @ ready =&gt; server @ busy&#45;&gt;server @ ready =&gt; server @ busy&#45;2</title>
<path fill="none" stroke="darkgreen" stroke-width="3" d="M339.13,-183.9C341.75,-181.85 382.34,-150.08 384.88,-148.1"/>
</g>
<!-- server @ ready =&gt; server @ busy&#45;2&#45;&gt;server @ busy -->
<g id="edge16" class="edge">
<title>server @ ready =&gt; server @ busy&#45;2&#45;&gt;server @ busy</title>
<path fill="none" stroke="darkgreen" stroke-width="3" d="M385.04,-146.95C386.11,-145.72 406.59,-122.17 423.32,-102.93"/>
<polygon fill="darkgreen" stroke="darkgreen" stroke-width="3" points="426.04,-105.14 429.96,-95.29 420.76,-100.54 426.04,-105.14"/>
</g>
<!-- client&#45;1 &#8594; | request@0 | &#8594; server | server @ ready =&gt; server @ busy -->
<g id="node17" class="node">
<title>client&#45;1 &#8594; | request@0 | &#8594; server | server @ ready =&gt; server @ busy</title>
<polygon fill="paleturquoise" stroke="paleturquoise" points="353.5,-221.5 353.5,-290.5 436.5,-290.5 436.5,-221.5 353.5,-221.5"/>
<text text-anchor="middle" x="395" y="-275.3" font-family="Sans-Serif" font-size="14.00">client&#45;1 →</text>
<polyline fill="none" stroke="paleturquoise" points="353.5,-267.5 436.5,-267.5 "/>
<text text-anchor="middle" x="395" y="-252.3" font-family="Sans-Serif" font-size="14.00">request@0</text>
<polyline fill="none" stroke="paleturquoise" points="353.5,-244.5 436.5,-244.5 "/>
<text text-anchor="middle" x="395" y="-229.3" font-family="Sans-Serif" font-size="14.00">→ server</text>
</g>
<!-- client&#45;1 &#8594; | request@0 | &#8594; server | server @ ready =&gt; server @ busy&#45;&gt;server @ ready =&gt; server @ busy -->
<g id="edge17" class="edge">
<title>client&#45;1 &#8594; | request@0 | &#8594; server | server @ ready =&gt; server @ busy&#45;&gt;server @ ready =&gt; server @ busy</title>
<path fill="none" stroke="mediumblue" stroke-width="3" d="M367.98,-221.23C359.53,-210.66 350.96,-199.95 345.35,-192.94"/>
<polygon fill="mediumblue" stroke="mediumblue" stroke-width="3" points="348.02,-190.68 339.04,-185.05 342.56,-195.05 348.02,-190.68"/>
</g>
</g>
</svg>
