<?xml version="1.0" encoding="UTF-8" standalone="no"?>
<!DOCTYPE svg PUBLIC "-//W3C//DTD SVG 1.1//EN"
 "http://www.w3.org/Graphics/SVG/1.1/DTD/svg11.dtd">
<!-- Generated by graphviz version 2.44.1 (0)
 -->
<!-- Title: G Pages: 1 -->
<svg width="641pt" height="414pt"
 viewBox="0.00 0.00 641.00 413.50" xmlns="http://www.w3.org/2000/svg" xmlns:xlink="http://www.w3.org/1999/xlink">
<g id="graph0" class="graph" transform="scale(1 1) rotate(0) translate(4 409.5)">
<title>G</title>
<polygon fill="white" stroke="transparent" points="-4,4 -4,-409.5 637,-409.5 637,4 -4,4"/>
<text text-anchor="middle" x="316.5" y="-13.4" font-family="Sans-Serif" font-size="32.00">Message Replacement</text>
<g id="clust1" class="cluster">
<title>cluster_between_client_and_client&#45;1</title>
<polygon fill="none" stroke="white" points="174,-129 174,-356.8 318,-356.8 318,-129 174,-129"/>
</g>
<g id="clust2" class="cluster">
<title>cluster_between_0</title>
<polygon fill="none" stroke="white" points="326,-51 326,-397.5 517,-397.5 517,-51 326,-51"/>
</g>
<g id="clust3" class="cluster">
<title>cluster_agent_client</title>
<polygon fill="none" stroke="white" points="436,-59 436,-389.5 509,-389.5 509,-59 436,-59"/>
<text text-anchor="middle" x="472.5" y="-366.3" font-family="Sans-Serif" font-size="24.00">client</text>
</g>
<g id="clust4" class="cluster">
<title>cluster_agent_client&#45;0</title>
<polygon fill="none" stroke="white" points="334,-59 334,-389.5 428,-389.5 428,-59 334,-59"/>
<text text-anchor="middle" x="381" y="-366.3" font-family="Sans-Serif" font-size="24.00">client&#45;0</text>
</g>
<g id="clust5" class="cluster">
<title>cluster_between_1</title>
<polygon fill="none" stroke="white" points="8,-51 8,-397.5 166,-397.5 166,-51 8,-51"/>
</g>
<g id="clust6" class="cluster">
<title>cluster_agent_client&#45;1</title>
<polygon fill="none" stroke="white" points="16,-59 16,-389.5 158,-389.5 158,-59 16,-59"/>
<text text-anchor="middle" x="87" y="-366.3" font-family="Sans-Serif" font-size="24.00">client&#45;1</text>
</g>
<g id="clust7" class="cluster">
<title>cluster_between_2</title>
<polygon fill="none" stroke="white" points="525,-51 525,-397.5 625,-397.5 625,-51 525,-51"/>
</g>
<g id="clust8" class="cluster">
<title>cluster_agent_server</title>
<polygon fill="none" stroke="white" points="533,-59 533,-389.5 617,-389.5 617,-59 533,-59"/>
<text text-anchor="middle" x="575" y="-366.3" font-family="Sans-Serif" font-size="24.00">server</text>
</g>
<!-- message&#45;1&#45;4 -->
<g id="node1" class="node">
<title>message&#45;1&#45;4</title>
<polygon fill="none" stroke="mediumblue" stroke-width="2" points="246.5,-237.6 245.5,-237.6 245.5,-236.6 246.5,-236.6 246.5,-237.6"/>
</g>
<!-- message&#45;1&#45;5 -->
<g id="node3" class="node">
<title>message&#45;1&#45;5</title>
<polygon fill="paleturquoise" stroke="paleturquoise" points="310,-228.6 182,-228.6 182,-192.6 310,-192.6 310,-228.6"/>
<text text-anchor="middle" x="246" y="-206.9" font-family="Sans-Serif" font-size="14.00">check@0 / client&#45;1</text>
</g>
<!-- message&#45;1&#45;4&#45;&gt;message&#45;1&#45;5 -->
<g id="edge2" class="edge">
<title>message&#45;1&#45;4&#45;&gt;message&#45;1&#45;5</title>
<path fill="none" stroke="mediumblue" stroke-width="3" d="M246,-236.53C246,-236.5 246,-236.45 246,-236.4"/>
<polygon fill="mediumblue" stroke="mediumblue" stroke-width="3" points="249.5,-238.8 246,-228.8 242.5,-238.8 249.5,-238.8"/>
</g>
<!-- message&#45;0&#45;3 -->
<g id="node2" class="node">
<title>message&#45;0&#45;3</title>
<polygon fill="paleturquoise" stroke="paleturquoise" points="310,-281.6 182,-281.6 182,-245.6 310,-245.6 310,-281.6"/>
<text text-anchor="middle" x="246" y="-259.9" font-family="Sans-Serif" font-size="14.00">check@0 / client&#45;1</text>
</g>
<!-- message&#45;0&#45;3&#45;&gt;message&#45;1&#45;4 -->
<g id="edge1" class="edge">
<title>message&#45;0&#45;3&#45;&gt;message&#45;1&#45;4</title>
<path fill="none" stroke="mediumblue" stroke-width="3" d="M246,-245.51C246,-241.66 246,-238.49 246,-237.76"/>
</g>
<!-- message&#45;2&#45;6 -->
<!-- message&#45;1&#45;5&#45;&gt;message&#45;2&#45;6 -->
<!-- client@6 -->
<g id="node15" class="node">
<title>client@6</title>
<polygon fill="none" stroke="#0063cd" stroke-width="4" points="471.5,-183.3 470.5,-183.3 470.5,-182.3 471.5,-182.3 471.5,-183.3"/>
</g>
<!-- message&#45;1&#45;5&#45;&gt;client@6 -->
<g id="edge14" class="edge">
<title>message&#45;1&#45;5:c&#45;&gt;client@6:c</title>
<path fill="none" stroke="mediumblue" stroke-width="3" d="M310.05,-195.69C316.77,-194.52 323.51,-193.46 330,-192.6 378.59,-186.2 437.24,-184.43 460.63,-183.96"/>
<polygon fill="mediumblue" stroke="mediumblue" stroke-width="3" points="461,-187.46 470.94,-183.8 460.89,-180.46 461,-187.46"/>
</g>
<!-- message&#45;0&#45;0 -->
<!-- message&#45;0&#45;1 -->
<!-- message&#45;0&#45;0&#45;&gt;message&#45;0&#45;1 -->
<!-- message&#45;0&#45;2 -->
<!-- message&#45;0&#45;1&#45;&gt;message&#45;0&#45;2 -->
<!-- message&#45;0&#45;2&#45;&gt;message&#45;0&#45;3 -->
<!-- message&#45;2&#45;7 -->
<g id="node8" class="node">
<title>message&#45;2&#45;7</title>
<polygon fill="darkturquoise" stroke="darkturquoise" points="304,-173 184,-173 184,-137 304,-137 304,-173"/>
<text text-anchor="middle" x="244" y="-151.3" font-family="Sans-Serif" font-size="14.00">confirm! / client&#45;1</text>
</g>
<!-- message&#45;2&#45;6&#45;&gt;message&#45;2&#45;7 -->
<!-- client&#45;1@8 -->
<g id="node41" class="node">
<title>client&#45;1@8</title>
<polygon fill="none" stroke="#0063cd" stroke-width="7" points="51.5,-121 50.5,-121 50.5,-120 51.5,-120 51.5,-121"/>
</g>
<!-- message&#45;2&#45;7&#45;&gt;client&#45;1@8 -->
<g id="edge41" class="edge">
<title>message&#45;2&#45;7:c&#45;&gt;client&#45;1@8:c</title>
<path fill="none" stroke="mediumblue" stroke-width="3" d="M194.58,-136.99C183.94,-133.87 172.68,-130.99 162,-129 125.67,-122.24 81.67,-121.12 61.74,-120.98"/>
<polygon fill="mediumblue" stroke="mediumblue" stroke-width="3" points="61.71,-117.48 51.71,-120.99 61.72,-124.48 61.71,-117.48"/>
</g>
<!-- client@0 -->
<g id="node9" class="node">
<title>client@0</title>
<polygon fill="none" stroke="darkgreen" stroke-width="2" points="471.5,-347.5 470.5,-347.5 470.5,-346.5 471.5,-346.5 471.5,-347.5"/>
</g>
<!-- client@1 -->
<g id="node10" class="node">
<title>client@1</title>
<polygon fill="palegreen" stroke="palegreen" points="498,-337.2 444,-337.2 444,-301.2 498,-301.2 498,-337.2"/>
<text text-anchor="middle" x="471" y="-315.5" font-family="Sans-Serif" font-size="14.00">idle</text>
</g>
<!-- client@0&#45;&gt;client@1 -->
<g id="edge8" class="edge">
<title>client@0&#45;&gt;client@1</title>
<path fill="none" stroke="darkgreen" stroke-width="3" d="M471,-345.93C471,-345.37 471,-341.75 471,-337.4"/>
</g>
<!-- client@2 -->
<g id="node11" class="node">
<title>client@2</title>
<polygon fill="none" stroke="darkgreen" stroke-width="2" points="471.5,-291.9 470.5,-291.9 470.5,-290.9 471.5,-290.9 471.5,-291.9"/>
</g>
<!-- client@1&#45;&gt;client@2 -->
<g id="edge9" class="edge">
<title>client@1&#45;&gt;client@2</title>
<path fill="none" stroke="darkgreen" stroke-width="3" d="M471,-301.13C471,-296.64 471,-292.9 471,-292.45"/>
</g>
<!-- client@3 -->
<g id="node12" class="node">
<title>client@3</title>
<polygon fill="none" stroke="darkgreen" stroke-width="2" points="471.5,-264.1 470.5,-264.1 470.5,-263.1 471.5,-263.1 471.5,-264.1"/>
</g>
<!-- client@2&#45;&gt;client@3 -->
<g id="edge10" class="edge">
<title>client@2&#45;&gt;client@3</title>
<path fill="none" stroke="darkgreen" stroke-width="3" d="M471,-290.33C471,-288.86 471,-266.09 471,-264.67"/>
</g>
<!-- client@4 -->
<g id="node13" class="node">
<title>client@4</title>
<polygon fill="none" stroke="darkgreen" stroke-width="2" points="471.5,-237.6 470.5,-237.6 470.5,-236.6 471.5,-236.6 471.5,-237.6"/>
</g>
<!-- client@3&#45;&gt;client@4 -->
<g id="edge11" class="edge">
<title>client@3&#45;&gt;client@4</title>
<path fill="none" stroke="darkgreen" stroke-width="3" d="M471,-262.53C471,-261.11 471,-239.04 471,-237.67"/>
</g>
<!-- client@5 -->
<g id="node14" class="node">
<title>client@5</title>
<polygon fill="none" stroke="darkgreen" stroke-width="2" points="471.5,-211.1 470.5,-211.1 470.5,-210.1 471.5,-210.1 471.5,-211.1"/>
</g>
<!-- client@4&#45;&gt;client@5 -->
<g id="edge12" class="edge">
<title>client@4&#45;&gt;client@5</title>
<path fill="none" stroke="darkgreen" stroke-width="3" d="M471,-236.53C471,-235.11 471,-213.04 471,-211.67"/>
</g>
<!-- client@5&#45;&gt;client@6 -->
<g id="edge15" class="edge">
<title>client@5&#45;&gt;client@6</title>
<path fill="none" stroke="darkgreen" stroke-width="3" d="M471,-209.53C471,-208.06 471,-185.29 471,-183.87"/>
</g>
<!-- client@6&#45;&gt;message&#45;2&#45;7 -->
<g id="edge13" class="edge">
<title>client@6:c&#45;&gt;message&#45;2&#45;7:c</title>
<path fill="none" stroke="mediumblue" stroke-width="3" d="M470.94,-181.8C468.54,-181.78 391.3,-180.94 330,-173 324.94,-172.35 319.73,-171.57 314.5,-170.72"/>
<polygon fill="mediumblue" stroke="mediumblue" stroke-width="3" points="314.89,-167.23 304.44,-169 313.71,-174.13 314.89,-167.23"/>
</g>
<!-- client@7 -->
<g id="node16" class="node">
<title>client@7</title>
<polygon fill="none" stroke="darkgreen" stroke-width="2" points="471.5,-155.5 470.5,-155.5 470.5,-154.5 471.5,-154.5 471.5,-155.5"/>
</g>
<!-- client@6&#45;&gt;client@7 -->
<g id="edge16" class="edge">
<title>client@6&#45;&gt;client@7</title>
<path fill="none" stroke="darkgreen" stroke-width="3" d="M471,-181.73C471,-180.26 471,-157.49 471,-156.07"/>
</g>
<!-- client@8 -->
<g id="node17" class="node">
<title>client@8</title>
<polygon fill="none" stroke="darkgreen" stroke-width="2" points="471.5,-121 470.5,-121 470.5,-120 471.5,-120 471.5,-121"/>
</g>
<!-- client@7&#45;&gt;client@8 -->
<g id="edge17" class="edge">
<title>client@7&#45;&gt;client@8</title>
<path fill="none" stroke="darkgreen" stroke-width="3" d="M471,-153.91C471,-152.03 471,-122.91 471,-121.09"/>
</g>
<!-- client@9 -->
<g id="node18" class="node">
<title>client@9</title>
<polygon fill="none" stroke="darkgreen" stroke-width="2" points="471.5,-94.5 470.5,-94.5 470.5,-93.5 471.5,-93.5 471.5,-94.5"/>
</g>
<!-- client@8&#45;&gt;client@9 -->
<g id="edge18" class="edge">
<title>client@8&#45;&gt;client@9</title>
<path fill="none" stroke="darkgreen" stroke-width="3" d="M471,-119.93C471,-118.51 471,-96.44 471,-95.07"/>
</g>
<!-- client@10 -->
<g id="node19" class="node">
<title>client@10</title>
<polygon fill="none" stroke="darkgreen" stroke-width="2" points="471.5,-68 470.5,-68 470.5,-67 471.5,-67 471.5,-68"/>
</g>
<!-- client@9&#45;&gt;client@10 -->
<g id="edge19" class="edge">
<title>client@9&#45;&gt;client@10</title>
<path fill="none" stroke="darkgreen" stroke-width="3" d="M471,-92.93C471,-91.51 471,-69.44 471,-68.07"/>
</g>
<!-- client&#45;0@0 -->
<g id="node20" class="node">
<title>client&#45;0@0</title>
<polygon fill="none" stroke="darkgreen" stroke-width="2" points="381.5,-347.5 380.5,-347.5 380.5,-346.5 381.5,-346.5 381.5,-347.5"/>
</g>
<!-- client&#45;0@1 -->
<g id="node21" class="node">
<title>client&#45;0@1</title>
<polygon fill="palegreen" stroke="palegreen" points="408,-337.2 354,-337.2 354,-301.2 408,-301.2 408,-337.2"/>
<text text-anchor="middle" x="381" y="-315.5" font-family="Sans-Serif" font-size="14.00">idle</text>
</g>
<!-- client&#45;0@0&#45;&gt;client&#45;0@1 -->
<g id="edge20" class="edge">
<title>client&#45;0@0&#45;&gt;client&#45;0@1</title>
<path fill="none" stroke="darkgreen" stroke-width="3" d="M381,-345.93C381,-345.37 381,-341.75 381,-337.4"/>
</g>
<!-- client&#45;0@2 -->
<g id="node22" class="node">
<title>client&#45;0@2</title>
<polygon fill="none" stroke="darkgreen" stroke-width="2" points="381.5,-291.9 380.5,-291.9 380.5,-290.9 381.5,-290.9 381.5,-291.9"/>
</g>
<!-- client&#45;0@1&#45;&gt;client&#45;0@2 -->
<g id="edge21" class="edge">
<title>client&#45;0@1&#45;&gt;client&#45;0@2</title>
<path fill="none" stroke="darkgreen" stroke-width="3" d="M381,-301.13C381,-296.64 381,-292.9 381,-292.45"/>
</g>
<!-- client&#45;0@3 -->
<g id="node23" class="node">
<title>client&#45;0@3</title>
<polygon fill="none" stroke="darkgreen" stroke-width="2" points="381.5,-264.1 380.5,-264.1 380.5,-263.1 381.5,-263.1 381.5,-264.1"/>
</g>
<!-- client&#45;0@2&#45;&gt;client&#45;0@3 -->
<g id="edge22" class="edge">
<title>client&#45;0@2&#45;&gt;client&#45;0@3</title>
<path fill="none" stroke="darkgreen" stroke-width="3" d="M381,-290.33C381,-288.86 381,-266.09 381,-264.67"/>
</g>
<!-- client&#45;0@4 -->
<g id="node24" class="node">
<title>client&#45;0@4</title>
<polygon fill="none" stroke="darkgreen" stroke-width="2" points="381.5,-237.6 380.5,-237.6 380.5,-236.6 381.5,-236.6 381.5,-237.6"/>
</g>
<!-- client&#45;0@3&#45;&gt;client&#45;0@4 -->
<g id="edge23" class="edge">
<title>client&#45;0@3&#45;&gt;client&#45;0@4</title>
<path fill="none" stroke="darkgreen" stroke-width="3" d="M381,-262.53C381,-261.11 381,-239.04 381,-237.67"/>
</g>
<!-- client&#45;0@5 -->
<g id="node25" class="node">
<title>client&#45;0@5</title>
<polygon fill="none" stroke="darkgreen" stroke-width="2" points="381.5,-211.1 380.5,-211.1 380.5,-210.1 381.5,-210.1 381.5,-211.1"/>
</g>
<!-- client&#45;0@4&#45;&gt;client&#45;0@5 -->
<g id="edge24" class="edge">
<title>client&#45;0@4&#45;&gt;client&#45;0@5</title>
<path fill="none" stroke="darkgreen" stroke-width="3" d="M381,-236.53C381,-235.11 381,-213.04 381,-211.67"/>
</g>
<!-- client&#45;0@6 -->
<g id="node26" class="node">
<title>client&#45;0@6</title>
<polygon fill="none" stroke="darkgreen" stroke-width="2" points="381.5,-183.3 380.5,-183.3 380.5,-182.3 381.5,-182.3 381.5,-183.3"/>
</g>
<!-- client&#45;0@5&#45;&gt;client&#45;0@6 -->
<g id="edge25" class="edge">
<title>client&#45;0@5&#45;&gt;client&#45;0@6</title>
<path fill="none" stroke="darkgreen" stroke-width="3" d="M381,-209.53C381,-208.06 381,-185.29 381,-183.87"/>
</g>
<!-- client&#45;0@7 -->
<g id="node27" class="node">
<title>client&#45;0@7</title>
<polygon fill="none" stroke="darkgreen" stroke-width="2" points="381.5,-155.5 380.5,-155.5 380.5,-154.5 381.5,-154.5 381.5,-155.5"/>
</g>
<!-- client&#45;0@6&#45;&gt;client&#45;0@7 -->
<g id="edge26" class="edge">
<title>client&#45;0@6&#45;&gt;client&#45;0@7</title>
<path fill="none" stroke="darkgreen" stroke-width="3" d="M381,-181.73C381,-180.26 381,-157.49 381,-156.07"/>
</g>
<!-- client&#45;0@8 -->
<g id="node28" class="node">
<title>client&#45;0@8</title>
<polygon fill="none" stroke="darkgreen" stroke-width="2" points="381.5,-121 380.5,-121 380.5,-120 381.5,-120 381.5,-121"/>
</g>
<!-- client&#45;0@7&#45;&gt;client&#45;0@8 -->
<g id="edge27" class="edge">
<title>client&#45;0@7&#45;&gt;client&#45;0@8</title>
<path fill="none" stroke="darkgreen" stroke-width="3" d="M381,-153.91C381,-152.03 381,-122.91 381,-121.09"/>
</g>
<!-- client&#45;0@9 -->
<g id="node29" class="node">
<title>client&#45;0@9</title>
<polygon fill="none" stroke="darkgreen" stroke-width="2" points="381.5,-94.5 380.5,-94.5 380.5,-93.5 381.5,-93.5 381.5,-94.5"/>
</g>
<!-- client&#45;0@8&#45;&gt;client&#45;0@9 -->
<g id="edge28" class="edge">
<title>client&#45;0@8&#45;&gt;client&#45;0@9</title>
<path fill="none" stroke="darkgreen" stroke-width="3" d="M381,-119.93C381,-118.51 381,-96.44 381,-95.07"/>
</g>
<!-- client&#45;0@10 -->
<g id="node30" class="node">
<title>client&#45;0@10</title>
<polygon fill="none" stroke="darkgreen" stroke-width="2" points="381.5,-68 380.5,-68 380.5,-67 381.5,-67 381.5,-68"/>
</g>
<!-- client&#45;0@9&#45;&gt;client&#45;0@10 -->
<g id="edge29" class="edge">
<title>client&#45;0@9&#45;&gt;client&#45;0@10</title>
<path fill="none" stroke="darkgreen" stroke-width="3" d="M381,-92.93C381,-91.51 381,-69.44 381,-68.07"/>
</g>
<!-- client&#45;1@0 -->
<g id="node31" class="node">
<title>client&#45;1@0</title>
<polygon fill="none" stroke="darkgreen" stroke-width="2" points="51.5,-347.5 50.5,-347.5 50.5,-346.5 51.5,-346.5 51.5,-347.5"/>
</g>
<!-- client&#45;1@1 -->
<g id="node32" class="node">
<title>client&#45;1@1</title>
<polygon fill="palegreen" stroke="palegreen" points="78,-337.2 24,-337.2 24,-301.2 78,-301.2 78,-337.2"/>
<text text-anchor="middle" x="51" y="-315.5" font-family="Sans-Serif" font-size="14.00">idle</text>
</g>
<!-- client&#45;1@0&#45;&gt;client&#45;1@1 -->
<g id="edge30" class="edge">
<title>client&#45;1@0&#45;&gt;client&#45;1@1</title>
<path fill="none" stroke="darkgreen" stroke-width="3" d="M51,-345.93C51,-345.37 51,-341.75 51,-337.4"/>
</g>
<!-- client&#45;1@2 -->
<g id="node33" class="node">
<title>client&#45;1@2</title>
<polygon fill="none" stroke="#0063cd" stroke-width="4" points="51.5,-291.9 50.5,-291.9 50.5,-290.9 51.5,-290.9 51.5,-291.9"/>
</g>
<!-- client&#45;1@1&#45;&gt;client&#45;1@2 -->
<g id="edge33" class="edge">
<title>client&#45;1@1&#45;&gt;client&#45;1@2</title>
<path fill="none" stroke="darkgreen" stroke-width="3" d="M51,-301.13C51,-296.64 51,-292.9 51,-292.45"/>
</g>
<!-- client&#45;1@2&#45;&gt;message&#45;0&#45;3 -->
<g id="edge31" class="edge">
<title>client&#45;1@2:c&#45;&gt;message&#45;0&#45;3:c</title>
<path fill="none" stroke="mediumblue" stroke-width="3" d="M51.05,-290.4C52.93,-290.34 113.76,-288.37 162,-281.6 165.24,-281.15 168.55,-280.64 171.88,-280.1"/>
<polygon fill="mediumblue" stroke="mediumblue" stroke-width="3" points="172.66,-283.52 181.93,-278.39 171.48,-276.62 172.66,-283.52"/>
</g>
<!-- client&#45;1@3 -->
<g id="node35" class="node">
<title>client&#45;1@3</title>
<polygon fill="palegreen" stroke="palegreen" points="78,-281.6 24,-281.6 24,-245.6 78,-245.6 78,-281.6"/>
<text text-anchor="middle" x="51" y="-259.9" font-family="Sans-Serif" font-size="14.00">check</text>
</g>
<!-- client&#45;1@2&#45;&gt;client&#45;1@3 -->
<g id="edge34" class="edge">
<title>client&#45;1@2&#45;&gt;client&#45;1@3</title>
<path fill="none" stroke="purple" stroke-width="6" d="M51,-290.33C51,-289.77 51,-286.15 51,-281.8"/>
</g>
<!-- client&#45;1&#45;time&#45;1 -->
<g id="node34" class="node">
<title>client&#45;1&#45;time&#45;1</title>
<polygon fill="paleturquoise" stroke="paleturquoise" points="150,-337.2 96,-337.2 96,-301.2 150,-301.2 150,-337.2"/>
<text text-anchor="middle" x="123" y="-315.5" font-family="Sans-Serif" font-size="14.00">time</text>
</g>
<!-- client&#45;1&#45;time&#45;1&#45;&gt;client&#45;1@2 -->
<g id="edge32" class="edge">
<title>client&#45;1&#45;time&#45;1:c&#45;&gt;client&#45;1@2:c</title>
<path fill="none" stroke="mediumblue" stroke-width="3" d="M95.72,-304.62C92.81,-303.38 89.87,-302.22 87,-301.2 78.42,-298.16 68.33,-295.79 61.02,-294.28"/>
<polygon fill="mediumblue" stroke="mediumblue" stroke-width="3" points="61.53,-290.82 51.06,-292.41 60.24,-297.7 61.53,-290.82"/>
</g>
<!-- client&#45;1@4 -->
<g id="node36" class="node">
<title>client&#45;1@4</title>
<polygon fill="none" stroke="#0063cd" stroke-width="7" points="51.5,-237.6 50.5,-237.6 50.5,-236.6 51.5,-236.6 51.5,-237.6"/>
</g>
<!-- client&#45;1@3&#45;&gt;client&#45;1@4 -->
<g id="edge37" class="edge">
<title>client&#45;1@3&#45;&gt;client&#45;1@4</title>
<path fill="none" stroke="purple" stroke-width="6" d="M51,-245.51C51,-241.66 51,-238.49 51,-237.76"/>
</g>
<!-- client&#45;1@4&#45;&gt;message&#45;1&#45;5 -->
<g id="edge35" class="edge">
<title>client&#45;1@4:c&#45;&gt;message&#45;1&#45;5:c</title>
<path fill="none" stroke="mediumblue" stroke-width="3" d="M51.05,-236.6C52.93,-236.56 113.76,-235.19 162,-228.6 165.24,-228.16 168.55,-227.66 171.88,-227.13"/>
<polygon fill="mediumblue" stroke="mediumblue" stroke-width="3" points="172.66,-230.55 181.94,-225.44 171.49,-223.65 172.66,-230.55"/>
</g>
<!-- client&#45;1@5 -->
<g id="node38" class="node">
<title>client&#45;1@5</title>
<polygon fill="none" stroke="purple" stroke-width="5" points="51.5,-211.1 50.5,-211.1 50.5,-210.1 51.5,-210.1 51.5,-211.1"/>
</g>
<!-- client&#45;1@4&#45;&gt;client&#45;1@5 -->
<g id="edge38" class="edge">
<title>client&#45;1@4&#45;&gt;client&#45;1@5</title>
<path fill="none" stroke="purple" stroke-width="6" d="M51,-236.53C51,-235.11 51,-213.04 51,-211.67"/>
</g>
<!-- client&#45;1&#45;time&#45;3 -->
<g id="node37" class="node">
<title>client&#45;1&#45;time&#45;3</title>
<polygon fill="paleturquoise" stroke="paleturquoise" points="150,-281.6 96,-281.6 96,-245.6 150,-245.6 150,-281.6"/>
<text text-anchor="middle" x="123" y="-259.9" font-family="Sans-Serif" font-size="14.00">time</text>
</g>
<!-- client&#45;1&#45;time&#45;3&#45;&gt;client&#45;1@4 -->
<g id="edge36" class="edge">
<title>client&#45;1&#45;time&#45;3:c&#45;&gt;client&#45;1@4:c</title>
<path fill="none" stroke="mediumblue" stroke-width="3" d="M95.74,-248.96C92.83,-247.73 89.88,-246.59 87,-245.6 78.43,-242.67 68.34,-240.53 61.03,-239.21"/>
<polygon fill="mediumblue" stroke="mediumblue" stroke-width="3" points="61.49,-235.74 51.06,-237.61 60.38,-242.65 61.49,-235.74"/>
</g>
<!-- client&#45;1@6 -->
<g id="node39" class="node">
<title>client&#45;1@6</title>
<polygon fill="none" stroke="purple" stroke-width="5" points="51.5,-183.3 50.5,-183.3 50.5,-182.3 51.5,-182.3 51.5,-183.3"/>
</g>
<!-- client&#45;1@5&#45;&gt;client&#45;1@6 -->
<g id="edge39" class="edge">
<title>client&#45;1@5&#45;&gt;client&#45;1@6</title>
<path fill="none" stroke="purple" stroke-width="6" d="M51,-209.53C51,-208.06 51,-185.29 51,-183.87"/>
</g>
<!-- client&#45;1@7 -->
<g id="node40" class="node">
<title>client&#45;1@7</title>
<polygon fill="none" stroke="purple" stroke-width="5" points="51.5,-155.5 50.5,-155.5 50.5,-154.5 51.5,-154.5 51.5,-155.5"/>
</g>
<!-- client&#45;1@6&#45;&gt;client&#45;1@7 -->
<g id="edge40" class="edge">
<title>client&#45;1@6&#45;&gt;client&#45;1@7</title>
<path fill="none" stroke="purple" stroke-width="6" d="M51,-181.73C51,-180.26 51,-157.49 51,-156.07"/>
</g>
<!-- client&#45;1@7&#45;&gt;client&#45;1@8 -->
<g id="edge42" class="edge">
<title>client&#45;1@7&#45;&gt;client&#45;1@8</title>
<path fill="none" stroke="purple" stroke-width="6" d="M51,-153.91C51,-152.03 51,-122.91 51,-121.09"/>
</g>
<!-- client&#45;1@9 -->
<g id="node42" class="node">
<title>client&#45;1@9</title>
<polygon fill="palegreen" stroke="palegreen" points="78,-112 24,-112 24,-76 78,-76 78,-112"/>
<text text-anchor="middle" x="51" y="-90.3" font-family="Sans-Serif" font-size="14.00">idle</text>
</g>
<!-- client&#45;1@8&#45;&gt;client&#45;1@9 -->
<g id="edge43" class="edge">
<title>client&#45;1@8&#45;&gt;client&#45;1@9</title>
<path fill="none" stroke="darkgreen" stroke-width="3" d="M51,-119.93C51,-119.41 51,-116.18 51,-112.2"/>
</g>
<!-- client&#45;1@10 -->
<g id="node43" class="node">
<title>client&#45;1@10</title>
<polygon fill="none" stroke="darkgreen" stroke-width="2" points="51.5,-68 50.5,-68 50.5,-67 51.5,-67 51.5,-68"/>
</g>
<!-- client&#45;1@9&#45;&gt;client&#45;1@10 -->
<g id="edge44" class="edge">
<title>client&#45;1@9&#45;&gt;client&#45;1@10</title>
<path fill="none" stroke="darkgreen" stroke-width="3" d="M51,-75.91C51,-72.06 51,-68.89 51,-68.16"/>
</g>
<!-- server@0 -->
<g id="node44" class="node">
<title>server@0</title>
<polygon fill="none" stroke="darkgreen" stroke-width="2" points="575.5,-347.5 574.5,-347.5 574.5,-346.5 575.5,-346.5 575.5,-347.5"/>
</g>
<!-- server@1 -->
<g id="node45" class="node">
<title>server@1</title>
<polygon fill="palegreen" stroke="palegreen" points="602,-337.2 548,-337.2 548,-301.2 602,-301.2 602,-337.2"/>
<text text-anchor="middle" x="575" y="-315.5" font-family="Sans-Serif" font-size="14.00">ready</text>
</g>
<!-- server@0&#45;&gt;server@1 -->
<g id="edge45" class="edge">
<title>server@0&#45;&gt;server@1</title>
<path fill="none" stroke="darkgreen" stroke-width="3" d="M575,-345.93C575,-345.37 575,-341.75 575,-337.4"/>
</g>
<!-- server@2 -->
<g id="node46" class="node">
<title>server@2</title>
<polygon fill="none" stroke="darkgreen" stroke-width="2" points="575.5,-291.9 574.5,-291.9 574.5,-290.9 575.5,-290.9 575.5,-291.9"/>
</g>
<!-- server@1&#45;&gt;server@2 -->
<g id="edge46" class="edge">
<title>server@1&#45;&gt;server@2</title>
<path fill="none" stroke="darkgreen" stroke-width="3" d="M575,-301.13C575,-296.64 575,-292.9 575,-292.45"/>
</g>
<!-- server@3 -->
<g id="node47" class="node">
<title>server@3</title>
<polygon fill="none" stroke="darkgreen" stroke-width="2" points="575.5,-264.1 574.5,-264.1 574.5,-263.1 575.5,-263.1 575.5,-264.1"/>
</g>
<!-- server@2&#45;&gt;server@3 -->
<g id="edge47" class="edge">
<title>server@2&#45;&gt;server@3</title>
<path fill="none" stroke="darkgreen" stroke-width="3" d="M575,-290.33C575,-288.86 575,-266.09 575,-264.67"/>
</g>
<!-- server@4 -->
<g id="node48" class="node">
<title>server@4</title>
<polygon fill="none" stroke="darkgreen" stroke-width="2" points="575.5,-237.6 574.5,-237.6 574.5,-236.6 575.5,-236.6 575.5,-237.6"/>
</g>
<!-- server@3&#45;&gt;server@4 -->
<g id="edge48" class="edge">
<title>server@3&#45;&gt;server@4</title>
<path fill="none" stroke="darkgreen" stroke-width="3" d="M575,-262.53C575,-261.11 575,-239.04 575,-237.67"/>
</g>
<!-- server@5 -->
<g id="node49" class="node">
<title>server@5</title>
<polygon fill="none" stroke="darkgreen" stroke-width="2" points="575.5,-211.1 574.5,-211.1 574.5,-210.1 575.5,-210.1 575.5,-211.1"/>
</g>
<!-- server@4&#45;&gt;server@5 -->
<g id="edge49" class="edge">
<title>server@4&#45;&gt;server@5</title>
<path fill="none" stroke="darkgreen" stroke-width="3" d="M575,-236.53C575,-235.11 575,-213.04 575,-211.67"/>
</g>
<!-- server@6 -->
<g id="node50" class="node">
<title>server@6</title>
<polygon fill="none" stroke="darkgreen" stroke-width="2" points="575.5,-183.3 574.5,-183.3 574.5,-182.3 575.5,-182.3 575.5,-183.3"/>
</g>
<!-- server@5&#45;&gt;server@6 -->
<g id="edge50" class="edge">
<title>server@5&#45;&gt;server@6</title>
<path fill="none" stroke="darkgreen" stroke-width="3" d="M575,-209.53C575,-208.06 575,-185.29 575,-183.87"/>
</g>
<!-- server@7 -->
<g id="node51" class="node">
<title>server@7</title>
<polygon fill="none" stroke="darkgreen" stroke-width="2" points="575.5,-155.5 574.5,-155.5 574.5,-154.5 575.5,-154.5 575.5,-155.5"/>
</g>
<!-- server@6&#45;&gt;server@7 -->
<g id="edge51" class="edge">
<title>server@6&#45;&gt;server@7</title>
<path fill="none" stroke="darkgreen" stroke-width="3" d="M575,-181.73C575,-180.26 575,-157.49 575,-156.07"/>
</g>
<!-- server@8 -->
<g id="node52" class="node">
<title>server@8</title>
<polygon fill="none" stroke="darkgreen" stroke-width="2" points="575.5,-121 574.5,-121 574.5,-120 575.5,-120 575.5,-121"/>
</g>
<!-- server@7&#45;&gt;server@8 -->
<g id="edge52" class="edge">
<title>server@7&#45;&gt;server@8</title>
<path fill="none" stroke="darkgreen" stroke-width="3" d="M575,-153.91C575,-152.03 575,-122.91 575,-121.09"/>
</g>
<!-- server@9 -->
<g id="node53" class="node">
<title>server@9</title>
<polygon fill="none" stroke="darkgreen" stroke-width="2" points="575.5,-94.5 574.5,-94.5 574.5,-93.5 575.5,-93.5 575.5,-94.5"/>
</g>
<!-- server@8&#45;&gt;server@9 -->
<g id="edge53" class="edge">
<title>server@8&#45;&gt;server@9</title>
<path fill="none" stroke="darkgreen" stroke-width="3" d="M575,-119.93C575,-118.51 575,-96.44 575,-95.07"/>
</g>
<!-- server@10 -->
<g id="node54" class="node">
<title>server@10</title>
<polygon fill="none" stroke="darkgreen" stroke-width="2" points="575.5,-68 574.5,-68 574.5,-67 575.5,-67 575.5,-68"/>
</g>
<!-- server@9&#45;&gt;server@10 -->
<g id="edge54" class="edge">
<title>server@9&#45;&gt;server@10</title>
<path fill="none" stroke="darkgreen" stroke-width="3" d="M575,-92.93C575,-91.51 575,-69.44 575,-68.07"/>
</g>
</g>
</svg>
