<?xml version="1.0" encoding="UTF-8" standalone="no"?>
<!DOCTYPE svg PUBLIC "-//W3C//DTD SVG 1.1//EN"
 "http://www.w3.org/Graphics/SVG/1.1/DTD/svg11.dtd">
<!-- Generated by graphviz version 2.44.1 (0)
 -->
<!-- Title: G Pages: 1 -->
<svg width="585pt" height="398pt"
 viewBox="0.00 0.00 585.00 397.50" xmlns="http://www.w3.org/2000/svg" xmlns:xlink="http://www.w3.org/1999/xlink">
<g id="graph0" class="graph" transform="scale(1 1) rotate(0) translate(4 393.5)">
<title>G</title>
<polygon fill="white" stroke="transparent" points="-4,4 -4,-393.5 581,-393.5 581,4 -4,4"/>
<text text-anchor="middle" x="288.5" y="-13.4" font-family="Sans-Serif" font-size="32.00">Message Replacement</text>
<g id="clust1" class="cluster">
<title>cluster_between_client_and_client&#45;1</title>
<polygon fill="none" stroke="white" points="158,-121 158,-348.8 294,-348.8 294,-121 158,-121"/>
</g>
<g id="clust2" class="cluster">
<title>cluster_agent_client</title>
<polygon fill="none" stroke="white" points="302,-51 302,-381.5 375,-381.5 375,-51 302,-51"/>
<text text-anchor="middle" x="338.5" y="-358.3" font-family="Sans-Serif" font-size="24.00">client</text>
</g>
<g id="clust3" class="cluster">
<title>cluster_agent_client&#45;0</title>
<polygon fill="none" stroke="white" points="383,-51 383,-381.5 477,-381.5 477,-51 383,-51"/>
<text text-anchor="middle" x="430" y="-358.3" font-family="Sans-Serif" font-size="24.00">client&#45;0</text>
</g>
<g id="clust4" class="cluster">
<title>cluster_agent_client&#45;1</title>
<polygon fill="none" stroke="white" points="8,-51 8,-381.5 150,-381.5 150,-51 8,-51"/>
<text text-anchor="middle" x="79" y="-358.3" font-family="Sans-Serif" font-size="24.00">client&#45;1</text>
</g>
<g id="clust5" class="cluster">
<title>cluster_agent_server</title>
<polygon fill="none" stroke="white" points="485,-51 485,-381.5 569,-381.5 569,-51 485,-51"/>
<text text-anchor="middle" x="527" y="-358.3" font-family="Sans-Serif" font-size="24.00">server</text>
</g>
<!-- message&#45;1&#45;4 -->
<g id="node1" class="node">
<title>message&#45;1&#45;4</title>
<polygon fill="none" stroke="mediumblue" stroke-width="2" points="231.5,-229.6 230.5,-229.6 230.5,-228.6 231.5,-228.6 231.5,-229.6"/>
</g>
<!-- message&#45;1&#45;5 -->
<g id="node3" class="node">
<title>message&#45;1&#45;5</title>
<polygon fill="paleturquoise" stroke="paleturquoise" points="284.5,-220.6 177.5,-220.6 177.5,-184.6 284.5,-184.6 284.5,-220.6"/>
<text text-anchor="middle" x="231" y="-198.9" font-family="Sans-Serif" font-size="14.00">check / client&#45;1</text>
</g>
<!-- message&#45;1&#45;4&#45;&gt;message&#45;1&#45;5 -->
<g id="edge2" class="edge">
<title>message&#45;1&#45;4&#45;&gt;message&#45;1&#45;5</title>
<path fill="none" stroke="mediumblue" stroke-width="3" d="M231,-228.53C231,-228.5 231,-228.45 231,-228.4"/>
<polygon fill="mediumblue" stroke="mediumblue" stroke-width="3" points="234.5,-230.8 231,-220.8 227.5,-230.8 234.5,-230.8"/>
</g>
<!-- message&#45;0&#45;3 -->
<g id="node2" class="node">
<title>message&#45;0&#45;3</title>
<polygon fill="paleturquoise" stroke="paleturquoise" points="284.5,-273.6 177.5,-273.6 177.5,-237.6 284.5,-237.6 284.5,-273.6"/>
<text text-anchor="middle" x="231" y="-251.9" font-family="Sans-Serif" font-size="14.00">check / client&#45;1</text>
</g>
<!-- message&#45;0&#45;3&#45;&gt;message&#45;1&#45;4 -->
<g id="edge1" class="edge">
<title>message&#45;0&#45;3&#45;&gt;message&#45;1&#45;4</title>
<path fill="none" stroke="mediumblue" stroke-width="3" d="M231,-237.51C231,-233.66 231,-230.49 231,-229.76"/>
</g>
<!-- message&#45;2&#45;6 -->
<!-- message&#45;1&#45;5&#45;&gt;message&#45;2&#45;6 -->
<!-- client@6 -->
<g id="node15" class="node">
<title>client@6</title>
<polygon fill="none" stroke="#0063cd" stroke-width="4" points="337.5,-175.3 336.5,-175.3 336.5,-174.3 337.5,-174.3 337.5,-175.3"/>
</g>
<!-- message&#45;1&#45;5&#45;&gt;client@6 -->
<g id="edge14" class="edge">
<title>message&#45;1&#45;5:c&#45;&gt;client@6:c</title>
<path fill="none" stroke="mediumblue" stroke-width="3" d="M284.73,-187.83C289.21,-186.73 293.68,-185.63 298,-184.6 307.81,-182.25 319.05,-179.73 326.93,-177.99"/>
<polygon fill="mediumblue" stroke="mediumblue" stroke-width="3" points="327.91,-181.36 336.94,-175.81 326.42,-174.52 327.91,-181.36"/>
</g>
<!-- message&#45;0&#45;0 -->
<!-- message&#45;0&#45;1 -->
<!-- message&#45;0&#45;0&#45;&gt;message&#45;0&#45;1 -->
<!-- message&#45;0&#45;2 -->
<!-- message&#45;0&#45;1&#45;&gt;message&#45;0&#45;2 -->
<!-- message&#45;0&#45;2&#45;&gt;message&#45;0&#45;3 -->
<!-- message&#45;2&#45;7 -->
<g id="node8" class="node">
<title>message&#45;2&#45;7</title>
<polygon fill="darkturquoise" stroke="darkturquoise" points="286,-165 166,-165 166,-129 286,-129 286,-165"/>
<text text-anchor="middle" x="226" y="-143.3" font-family="Sans-Serif" font-size="14.00">confirm! / client&#45;1</text>
</g>
<!-- message&#45;2&#45;6&#45;&gt;message&#45;2&#45;7 -->
<!-- client&#45;1@8 -->
<g id="node41" class="node">
<title>client&#45;1@8</title>
<polygon fill="none" stroke="#0063cd" stroke-width="7" points="115.5,-113 114.5,-113 114.5,-112 115.5,-112 115.5,-113"/>
</g>
<!-- message&#45;2&#45;7&#45;&gt;client&#45;1@8 -->
<g id="edge41" class="edge">
<title>message&#45;2&#45;7:c&#45;&gt;client&#45;1@8:c</title>
<path fill="none" stroke="mediumblue" stroke-width="3" d="M179.8,-128.95C171.29,-126.1 162.42,-123.31 154,-121 144.32,-118.34 133.06,-116.12 125.14,-114.7"/>
<polygon fill="mediumblue" stroke="mediumblue" stroke-width="3" points="125.5,-111.21 115.06,-113.01 124.35,-118.12 125.5,-111.21"/>
</g>
<!-- client@0 -->
<g id="node9" class="node">
<title>client@0</title>
<polygon fill="none" stroke="darkgreen" stroke-width="2" points="337.5,-339.5 336.5,-339.5 336.5,-338.5 337.5,-338.5 337.5,-339.5"/>
</g>
<!-- client@1 -->
<g id="node10" class="node">
<title>client@1</title>
<polygon fill="palegreen" stroke="palegreen" points="364,-329.2 310,-329.2 310,-293.2 364,-293.2 364,-329.2"/>
<text text-anchor="middle" x="337" y="-307.5" font-family="Sans-Serif" font-size="14.00">idle</text>
</g>
<!-- client@0&#45;&gt;client@1 -->
<g id="edge8" class="edge">
<title>client@0&#45;&gt;client@1</title>
<path fill="none" stroke="darkgreen" stroke-width="3" d="M337,-337.93C337,-337.37 337,-333.75 337,-329.4"/>
</g>
<!-- client@2 -->
<g id="node11" class="node">
<title>client@2</title>
<polygon fill="none" stroke="darkgreen" stroke-width="2" points="337.5,-283.9 336.5,-283.9 336.5,-282.9 337.5,-282.9 337.5,-283.9"/>
</g>
<!-- client@1&#45;&gt;client@2 -->
<g id="edge9" class="edge">
<title>client@1&#45;&gt;client@2</title>
<path fill="none" stroke="darkgreen" stroke-width="3" d="M337,-293.13C337,-288.64 337,-284.9 337,-284.45"/>
</g>
<!-- client@3 -->
<g id="node12" class="node">
<title>client@3</title>
<polygon fill="none" stroke="darkgreen" stroke-width="2" points="337.5,-256.1 336.5,-256.1 336.5,-255.1 337.5,-255.1 337.5,-256.1"/>
</g>
<!-- client@2&#45;&gt;client@3 -->
<g id="edge10" class="edge">
<title>client@2&#45;&gt;client@3</title>
<path fill="none" stroke="darkgreen" stroke-width="3" d="M337,-282.33C337,-280.86 337,-258.09 337,-256.67"/>
</g>
<!-- client@4 -->
<g id="node13" class="node">
<title>client@4</title>
<polygon fill="none" stroke="darkgreen" stroke-width="2" points="337.5,-229.6 336.5,-229.6 336.5,-228.6 337.5,-228.6 337.5,-229.6"/>
</g>
<!-- client@3&#45;&gt;client@4 -->
<g id="edge11" class="edge">
<title>client@3&#45;&gt;client@4</title>
<path fill="none" stroke="darkgreen" stroke-width="3" d="M337,-254.53C337,-253.11 337,-231.04 337,-229.67"/>
</g>
<!-- client@5 -->
<g id="node14" class="node">
<title>client@5</title>
<polygon fill="none" stroke="darkgreen" stroke-width="2" points="337.5,-203.1 336.5,-203.1 336.5,-202.1 337.5,-202.1 337.5,-203.1"/>
</g>
<!-- client@4&#45;&gt;client@5 -->
<g id="edge12" class="edge">
<title>client@4&#45;&gt;client@5</title>
<path fill="none" stroke="darkgreen" stroke-width="3" d="M337,-228.53C337,-227.11 337,-205.04 337,-203.67"/>
</g>
<!-- client@5&#45;&gt;client@6 -->
<g id="edge15" class="edge">
<title>client@5&#45;&gt;client@6</title>
<path fill="none" stroke="darkgreen" stroke-width="3" d="M337,-201.53C337,-200.06 337,-177.29 337,-175.87"/>
</g>
<!-- client@6&#45;&gt;message&#45;2&#45;7 -->
<g id="edge13" class="edge">
<title>client@6:c&#45;&gt;message&#45;2&#45;7:c</title>
<path fill="none" stroke="mediumblue" stroke-width="3" d="M336.94,-173.79C335.65,-173.5 314.77,-168.87 298,-165 297.39,-164.86 296.78,-164.72 296.17,-164.58"/>
<polygon fill="mediumblue" stroke="mediumblue" stroke-width="3" points="296.63,-161.09 286.1,-162.24 295.05,-167.91 296.63,-161.09"/>
</g>
<!-- client@7 -->
<g id="node16" class="node">
<title>client@7</title>
<polygon fill="none" stroke="darkgreen" stroke-width="2" points="337.5,-147.5 336.5,-147.5 336.5,-146.5 337.5,-146.5 337.5,-147.5"/>
</g>
<!-- client@6&#45;&gt;client@7 -->
<g id="edge16" class="edge">
<title>client@6&#45;&gt;client@7</title>
<path fill="none" stroke="darkgreen" stroke-width="3" d="M337,-173.73C337,-172.26 337,-149.49 337,-148.07"/>
</g>
<!-- client@8 -->
<g id="node17" class="node">
<title>client@8</title>
<polygon fill="none" stroke="darkgreen" stroke-width="2" points="337.5,-113 336.5,-113 336.5,-112 337.5,-112 337.5,-113"/>
</g>
<!-- client@7&#45;&gt;client@8 -->
<g id="edge17" class="edge">
<title>client@7&#45;&gt;client@8</title>
<path fill="none" stroke="darkgreen" stroke-width="3" d="M337,-145.91C337,-144.03 337,-114.91 337,-113.09"/>
</g>
<!-- client@9 -->
<g id="node18" class="node">
<title>client@9</title>
<polygon fill="none" stroke="darkgreen" stroke-width="2" points="337.5,-86.5 336.5,-86.5 336.5,-85.5 337.5,-85.5 337.5,-86.5"/>
</g>
<!-- client@8&#45;&gt;client@9 -->
<g id="edge18" class="edge">
<title>client@8&#45;&gt;client@9</title>
<path fill="none" stroke="darkgreen" stroke-width="3" d="M337,-111.93C337,-110.51 337,-88.44 337,-87.07"/>
</g>
<!-- client@10 -->
<g id="node19" class="node">
<title>client@10</title>
<polygon fill="none" stroke="darkgreen" stroke-width="2" points="337.5,-60 336.5,-60 336.5,-59 337.5,-59 337.5,-60"/>
</g>
<!-- client@9&#45;&gt;client@10 -->
<g id="edge19" class="edge">
<title>client@9&#45;&gt;client@10</title>
<path fill="none" stroke="darkgreen" stroke-width="3" d="M337,-84.93C337,-83.51 337,-61.44 337,-60.07"/>
</g>
<!-- client&#45;0@0 -->
<g id="node20" class="node">
<title>client&#45;0@0</title>
<polygon fill="none" stroke="darkgreen" stroke-width="2" points="430.5,-339.5 429.5,-339.5 429.5,-338.5 430.5,-338.5 430.5,-339.5"/>
</g>
<!-- client&#45;0@1 -->
<g id="node21" class="node">
<title>client&#45;0@1</title>
<polygon fill="palegreen" stroke="palegreen" points="457,-329.2 403,-329.2 403,-293.2 457,-293.2 457,-329.2"/>
<text text-anchor="middle" x="430" y="-307.5" font-family="Sans-Serif" font-size="14.00">idle</text>
</g>
<!-- client&#45;0@0&#45;&gt;client&#45;0@1 -->
<g id="edge20" class="edge">
<title>client&#45;0@0&#45;&gt;client&#45;0@1</title>
<path fill="none" stroke="darkgreen" stroke-width="3" d="M430,-337.93C430,-337.37 430,-333.75 430,-329.4"/>
</g>
<!-- client&#45;0@2 -->
<g id="node22" class="node">
<title>client&#45;0@2</title>
<polygon fill="none" stroke="darkgreen" stroke-width="2" points="430.5,-283.9 429.5,-283.9 429.5,-282.9 430.5,-282.9 430.5,-283.9"/>
</g>
<!-- client&#45;0@1&#45;&gt;client&#45;0@2 -->
<g id="edge21" class="edge">
<title>client&#45;0@1&#45;&gt;client&#45;0@2</title>
<path fill="none" stroke="darkgreen" stroke-width="3" d="M430,-293.13C430,-288.64 430,-284.9 430,-284.45"/>
</g>
<!-- client&#45;0@3 -->
<g id="node23" class="node">
<title>client&#45;0@3</title>
<polygon fill="none" stroke="darkgreen" stroke-width="2" points="430.5,-256.1 429.5,-256.1 429.5,-255.1 430.5,-255.1 430.5,-256.1"/>
</g>
<!-- client&#45;0@2&#45;&gt;client&#45;0@3 -->
<g id="edge22" class="edge">
<title>client&#45;0@2&#45;&gt;client&#45;0@3</title>
<path fill="none" stroke="darkgreen" stroke-width="3" d="M430,-282.33C430,-280.86 430,-258.09 430,-256.67"/>
</g>
<!-- client&#45;0@4 -->
<g id="node24" class="node">
<title>client&#45;0@4</title>
<polygon fill="none" stroke="darkgreen" stroke-width="2" points="430.5,-229.6 429.5,-229.6 429.5,-228.6 430.5,-228.6 430.5,-229.6"/>
</g>
<!-- client&#45;0@3&#45;&gt;client&#45;0@4 -->
<g id="edge23" class="edge">
<title>client&#45;0@3&#45;&gt;client&#45;0@4</title>
<path fill="none" stroke="darkgreen" stroke-width="3" d="M430,-254.53C430,-253.11 430,-231.04 430,-229.67"/>
</g>
<!-- client&#45;0@5 -->
<g id="node25" class="node">
<title>client&#45;0@5</title>
<polygon fill="none" stroke="darkgreen" stroke-width="2" points="430.5,-203.1 429.5,-203.1 429.5,-202.1 430.5,-202.1 430.5,-203.1"/>
</g>
<!-- client&#45;0@4&#45;&gt;client&#45;0@5 -->
<g id="edge24" class="edge">
<title>client&#45;0@4&#45;&gt;client&#45;0@5</title>
<path fill="none" stroke="darkgreen" stroke-width="3" d="M430,-228.53C430,-227.11 430,-205.04 430,-203.67"/>
</g>
<!-- client&#45;0@6 -->
<g id="node26" class="node">
<title>client&#45;0@6</title>
<polygon fill="none" stroke="darkgreen" stroke-width="2" points="430.5,-175.3 429.5,-175.3 429.5,-174.3 430.5,-174.3 430.5,-175.3"/>
</g>
<!-- client&#45;0@5&#45;&gt;client&#45;0@6 -->
<g id="edge25" class="edge">
<title>client&#45;0@5&#45;&gt;client&#45;0@6</title>
<path fill="none" stroke="darkgreen" stroke-width="3" d="M430,-201.53C430,-200.06 430,-177.29 430,-175.87"/>
</g>
<!-- client&#45;0@7 -->
<g id="node27" class="node">
<title>client&#45;0@7</title>
<polygon fill="none" stroke="darkgreen" stroke-width="2" points="430.5,-147.5 429.5,-147.5 429.5,-146.5 430.5,-146.5 430.5,-147.5"/>
</g>
<!-- client&#45;0@6&#45;&gt;client&#45;0@7 -->
<g id="edge26" class="edge">
<title>client&#45;0@6&#45;&gt;client&#45;0@7</title>
<path fill="none" stroke="darkgreen" stroke-width="3" d="M430,-173.73C430,-172.26 430,-149.49 430,-148.07"/>
</g>
<!-- client&#45;0@8 -->
<g id="node28" class="node">
<title>client&#45;0@8</title>
<polygon fill="none" stroke="darkgreen" stroke-width="2" points="430.5,-113 429.5,-113 429.5,-112 430.5,-112 430.5,-113"/>
</g>
<!-- client&#45;0@7&#45;&gt;client&#45;0@8 -->
<g id="edge27" class="edge">
<title>client&#45;0@7&#45;&gt;client&#45;0@8</title>
<path fill="none" stroke="darkgreen" stroke-width="3" d="M430,-145.91C430,-144.03 430,-114.91 430,-113.09"/>
</g>
<!-- client&#45;0@9 -->
<g id="node29" class="node">
<title>client&#45;0@9</title>
<polygon fill="none" stroke="darkgreen" stroke-width="2" points="430.5,-86.5 429.5,-86.5 429.5,-85.5 430.5,-85.5 430.5,-86.5"/>
</g>
<!-- client&#45;0@8&#45;&gt;client&#45;0@9 -->
<g id="edge28" class="edge">
<title>client&#45;0@8&#45;&gt;client&#45;0@9</title>
<path fill="none" stroke="darkgreen" stroke-width="3" d="M430,-111.93C430,-110.51 430,-88.44 430,-87.07"/>
</g>
<!-- client&#45;0@10 -->
<g id="node30" class="node">
<title>client&#45;0@10</title>
<polygon fill="none" stroke="darkgreen" stroke-width="2" points="430.5,-60 429.5,-60 429.5,-59 430.5,-59 430.5,-60"/>
</g>
<!-- client&#45;0@9&#45;&gt;client&#45;0@10 -->
<g id="edge29" class="edge">
<title>client&#45;0@9&#45;&gt;client&#45;0@10</title>
<path fill="none" stroke="darkgreen" stroke-width="3" d="M430,-84.93C430,-83.51 430,-61.44 430,-60.07"/>
</g>
<!-- client&#45;1@0 -->
<g id="node31" class="node">
<title>client&#45;1@0</title>
<polygon fill="none" stroke="darkgreen" stroke-width="2" points="115.5,-339.5 114.5,-339.5 114.5,-338.5 115.5,-338.5 115.5,-339.5"/>
</g>
<!-- client&#45;1@1 -->
<g id="node32" class="node">
<title>client&#45;1@1</title>
<polygon fill="palegreen" stroke="palegreen" points="142,-329.2 88,-329.2 88,-293.2 142,-293.2 142,-329.2"/>
<text text-anchor="middle" x="115" y="-307.5" font-family="Sans-Serif" font-size="14.00">idle</text>
</g>
<!-- client&#45;1@0&#45;&gt;client&#45;1@1 -->
<g id="edge30" class="edge">
<title>client&#45;1@0&#45;&gt;client&#45;1@1</title>
<path fill="none" stroke="darkgreen" stroke-width="3" d="M115,-337.93C115,-337.37 115,-333.75 115,-329.4"/>
</g>
<!-- client&#45;1@2 -->
<g id="node33" class="node">
<title>client&#45;1@2</title>
<polygon fill="none" stroke="#0063cd" stroke-width="4" points="115.5,-283.9 114.5,-283.9 114.5,-282.9 115.5,-282.9 115.5,-283.9"/>
</g>
<!-- client&#45;1@1&#45;&gt;client&#45;1@2 -->
<g id="edge33" class="edge">
<title>client&#45;1@1&#45;&gt;client&#45;1@2</title>
<path fill="none" stroke="darkgreen" stroke-width="3" d="M115,-293.13C115,-288.64 115,-284.9 115,-284.45"/>
</g>
<!-- client&#45;1@2&#45;&gt;message&#45;0&#45;3 -->
<g id="edge31" class="edge">
<title>client&#45;1@2:c&#45;&gt;message&#45;0&#45;3:c</title>
<path fill="none" stroke="mediumblue" stroke-width="3" d="M115.08,-282.38C116.7,-282.02 141.24,-276.56 167.34,-270.76"/>
<polygon fill="mediumblue" stroke="mediumblue" stroke-width="3" points="168.36,-274.12 177.37,-268.53 166.85,-267.28 168.36,-274.12"/>
</g>
<!-- client&#45;1@3 -->
<g id="node35" class="node">
<title>client&#45;1@3</title>
<polygon fill="palegreen" stroke="palegreen" points="142,-273.6 88,-273.6 88,-237.6 142,-237.6 142,-273.6"/>
<text text-anchor="middle" x="115" y="-251.9" font-family="Sans-Serif" font-size="14.00">check</text>
</g>
<!-- client&#45;1@2&#45;&gt;client&#45;1@3 -->
<g id="edge34" class="edge">
<title>client&#45;1@2&#45;&gt;client&#45;1@3</title>
<path fill="none" stroke="purple" stroke-width="6" d="M115,-282.33C115,-281.77 115,-278.15 115,-273.8"/>
</g>
<!-- client&#45;1&#45;time&#45;1 -->
<g id="node34" class="node">
<title>client&#45;1&#45;time&#45;1</title>
<polygon fill="paleturquoise" stroke="paleturquoise" points="70,-329.2 16,-329.2 16,-293.2 70,-293.2 70,-329.2"/>
<text text-anchor="middle" x="43" y="-307.5" font-family="Sans-Serif" font-size="14.00">time</text>
</g>
<!-- client&#45;1&#45;time&#45;1&#45;&gt;client&#45;1@2 -->
<g id="edge32" class="edge">
<title>client&#45;1&#45;time&#45;1:c&#45;&gt;client&#45;1@2:c</title>
<path fill="none" stroke="mediumblue" stroke-width="3" d="M70.28,-296.62C73.19,-295.38 76.13,-294.22 79,-293.2 87.58,-290.16 97.67,-287.79 104.98,-286.28"/>
<polygon fill="mediumblue" stroke="mediumblue" stroke-width="3" points="105.76,-289.7 114.94,-284.41 104.47,-282.82 105.76,-289.7"/>
</g>
<!-- client&#45;1@4 -->
<g id="node36" class="node">
<title>client&#45;1@4</title>
<polygon fill="none" stroke="#0063cd" stroke-width="7" points="115.5,-229.6 114.5,-229.6 114.5,-228.6 115.5,-228.6 115.5,-229.6"/>
</g>
<!-- client&#45;1@3&#45;&gt;client&#45;1@4 -->
<g id="edge37" class="edge">
<title>client&#45;1@3&#45;&gt;client&#45;1@4</title>
<path fill="none" stroke="purple" stroke-width="6" d="M115,-237.51C115,-233.66 115,-230.49 115,-229.76"/>
</g>
<!-- client&#45;1@4&#45;&gt;message&#45;1&#45;5 -->
<g id="edge35" class="edge">
<title>client&#45;1@4:c&#45;&gt;message&#45;1&#45;5:c</title>
<path fill="none" stroke="mediumblue" stroke-width="3" d="M115.06,-228.59C116.35,-228.33 137.23,-224.17 154,-220.6 158.33,-219.68 162.8,-218.72 167.31,-217.74"/>
<polygon fill="mediumblue" stroke="mediumblue" stroke-width="3" points="168.15,-221.14 177.17,-215.59 166.66,-214.3 168.15,-221.14"/>
</g>
<!-- client&#45;1@5 -->
<g id="node38" class="node">
<title>client&#45;1@5</title>
<polygon fill="none" stroke="purple" stroke-width="5" points="115.5,-203.1 114.5,-203.1 114.5,-202.1 115.5,-202.1 115.5,-203.1"/>
</g>
<!-- client&#45;1@4&#45;&gt;client&#45;1@5 -->
<g id="edge38" class="edge">
<title>client&#45;1@4&#45;&gt;client&#45;1@5</title>
<path fill="none" stroke="purple" stroke-width="6" d="M115,-228.53C115,-227.11 115,-205.04 115,-203.67"/>
</g>
<!-- client&#45;1&#45;time&#45;3 -->
<g id="node37" class="node">
<title>client&#45;1&#45;time&#45;3</title>
<polygon fill="paleturquoise" stroke="paleturquoise" points="70,-273.6 16,-273.6 16,-237.6 70,-237.6 70,-273.6"/>
<text text-anchor="middle" x="43" y="-251.9" font-family="Sans-Serif" font-size="14.00">time</text>
</g>
<!-- client&#45;1&#45;time&#45;3&#45;&gt;client&#45;1@4 -->
<g id="edge36" class="edge">
<title>client&#45;1&#45;time&#45;3:c&#45;&gt;client&#45;1@4:c</title>
<path fill="none" stroke="mediumblue" stroke-width="3" d="M70.26,-240.96C73.17,-239.73 76.12,-238.59 79,-237.6 87.57,-234.67 97.66,-232.53 104.97,-231.21"/>
<polygon fill="mediumblue" stroke="mediumblue" stroke-width="3" points="105.62,-234.65 114.94,-229.61 104.51,-227.74 105.62,-234.65"/>
</g>
<!-- client&#45;1@6 -->
<g id="node39" class="node">
<title>client&#45;1@6</title>
<polygon fill="none" stroke="purple" stroke-width="5" points="115.5,-175.3 114.5,-175.3 114.5,-174.3 115.5,-174.3 115.5,-175.3"/>
</g>
<!-- client&#45;1@5&#45;&gt;client&#45;1@6 -->
<g id="edge39" class="edge">
<title>client&#45;1@5&#45;&gt;client&#45;1@6</title>
<path fill="none" stroke="purple" stroke-width="6" d="M115,-201.53C115,-200.06 115,-177.29 115,-175.87"/>
</g>
<!-- client&#45;1@7 -->
<g id="node40" class="node">
<title>client&#45;1@7</title>
<polygon fill="none" stroke="purple" stroke-width="5" points="115.5,-147.5 114.5,-147.5 114.5,-146.5 115.5,-146.5 115.5,-147.5"/>
</g>
<!-- client&#45;1@6&#45;&gt;client&#45;1@7 -->
<g id="edge40" class="edge">
<title>client&#45;1@6&#45;&gt;client&#45;1@7</title>
<path fill="none" stroke="purple" stroke-width="6" d="M115,-173.73C115,-172.26 115,-149.49 115,-148.07"/>
</g>
<!-- client&#45;1@7&#45;&gt;client&#45;1@8 -->
<g id="edge42" class="edge">
<title>client&#45;1@7&#45;&gt;client&#45;1@8</title>
<path fill="none" stroke="purple" stroke-width="6" d="M115,-145.91C115,-144.03 115,-114.91 115,-113.09"/>
</g>
<!-- client&#45;1@9 -->
<g id="node42" class="node">
<title>client&#45;1@9</title>
<polygon fill="palegreen" stroke="palegreen" points="142,-104 88,-104 88,-68 142,-68 142,-104"/>
<text text-anchor="middle" x="115" y="-82.3" font-family="Sans-Serif" font-size="14.00">idle</text>
</g>
<!-- client&#45;1@8&#45;&gt;client&#45;1@9 -->
<g id="edge43" class="edge">
<title>client&#45;1@8&#45;&gt;client&#45;1@9</title>
<path fill="none" stroke="darkgreen" stroke-width="3" d="M115,-111.93C115,-111.41 115,-108.18 115,-104.2"/>
</g>
<!-- client&#45;1@10 -->
<g id="node43" class="node">
<title>client&#45;1@10</title>
<polygon fill="none" stroke="darkgreen" stroke-width="2" points="115.5,-60 114.5,-60 114.5,-59 115.5,-59 115.5,-60"/>
</g>
<!-- client&#45;1@9&#45;&gt;client&#45;1@10 -->
<g id="edge44" class="edge">
<title>client&#45;1@9&#45;&gt;client&#45;1@10</title>
<path fill="none" stroke="darkgreen" stroke-width="3" d="M115,-67.91C115,-64.06 115,-60.89 115,-60.16"/>
</g>
<!-- server@0 -->
<g id="node44" class="node">
<title>server@0</title>
<polygon fill="none" stroke="darkgreen" stroke-width="2" points="527.5,-339.5 526.5,-339.5 526.5,-338.5 527.5,-338.5 527.5,-339.5"/>
</g>
<!-- server@1 -->
<g id="node45" class="node">
<title>server@1</title>
<polygon fill="palegreen" stroke="palegreen" points="554,-329.2 500,-329.2 500,-293.2 554,-293.2 554,-329.2"/>
<text text-anchor="middle" x="527" y="-307.5" font-family="Sans-Serif" font-size="14.00">ready</text>
</g>
<!-- server@0&#45;&gt;server@1 -->
<g id="edge45" class="edge">
<title>server@0&#45;&gt;server@1</title>
<path fill="none" stroke="darkgreen" stroke-width="3" d="M527,-337.93C527,-337.37 527,-333.75 527,-329.4"/>
</g>
<!-- server@2 -->
<g id="node46" class="node">
<title>server@2</title>
<polygon fill="none" stroke="darkgreen" stroke-width="2" points="527.5,-283.9 526.5,-283.9 526.5,-282.9 527.5,-282.9 527.5,-283.9"/>
</g>
<!-- server@1&#45;&gt;server@2 -->
<g id="edge46" class="edge">
<title>server@1&#45;&gt;server@2</title>
<path fill="none" stroke="darkgreen" stroke-width="3" d="M527,-293.13C527,-288.64 527,-284.9 527,-284.45"/>
</g>
<!-- server@3 -->
<g id="node47" class="node">
<title>server@3</title>
<polygon fill="none" stroke="darkgreen" stroke-width="2" points="527.5,-256.1 526.5,-256.1 526.5,-255.1 527.5,-255.1 527.5,-256.1"/>
</g>
<!-- server@2&#45;&gt;server@3 -->
<g id="edge47" class="edge">
<title>server@2&#45;&gt;server@3</title>
<path fill="none" stroke="darkgreen" stroke-width="3" d="M527,-282.33C527,-280.86 527,-258.09 527,-256.67"/>
</g>
<!-- server@4 -->
<g id="node48" class="node">
<title>server@4</title>
<polygon fill="none" stroke="darkgreen" stroke-width="2" points="527.5,-229.6 526.5,-229.6 526.5,-228.6 527.5,-228.6 527.5,-229.6"/>
</g>
<!-- server@3&#45;&gt;server@4 -->
<g id="edge48" class="edge">
<title>server@3&#45;&gt;server@4</title>
<path fill="none" stroke="darkgreen" stroke-width="3" d="M527,-254.53C527,-253.11 527,-231.04 527,-229.67"/>
</g>
<!-- server@5 -->
<g id="node49" class="node">
<title>server@5</title>
<polygon fill="none" stroke="darkgreen" stroke-width="2" points="527.5,-203.1 526.5,-203.1 526.5,-202.1 527.5,-202.1 527.5,-203.1"/>
</g>
<!-- server@4&#45;&gt;server@5 -->
<g id="edge49" class="edge">
<title>server@4&#45;&gt;server@5</title>
<path fill="none" stroke="darkgreen" stroke-width="3" d="M527,-228.53C527,-227.11 527,-205.04 527,-203.67"/>
</g>
<!-- server@6 -->
<g id="node50" class="node">
<title>server@6</title>
<polygon fill="none" stroke="darkgreen" stroke-width="2" points="527.5,-175.3 526.5,-175.3 526.5,-174.3 527.5,-174.3 527.5,-175.3"/>
</g>
<!-- server@5&#45;&gt;server@6 -->
<g id="edge50" class="edge">
<title>server@5&#45;&gt;server@6</title>
<path fill="none" stroke="darkgreen" stroke-width="3" d="M527,-201.53C527,-200.06 527,-177.29 527,-175.87"/>
</g>
<!-- server@7 -->
<g id="node51" class="node">
<title>server@7</title>
<polygon fill="none" stroke="darkgreen" stroke-width="2" points="527.5,-147.5 526.5,-147.5 526.5,-146.5 527.5,-146.5 527.5,-147.5"/>
</g>
<!-- server@6&#45;&gt;server@7 -->
<g id="edge51" class="edge">
<title>server@6&#45;&gt;server@7</title>
<path fill="none" stroke="darkgreen" stroke-width="3" d="M527,-173.73C527,-172.26 527,-149.49 527,-148.07"/>
</g>
<!-- server@8 -->
<g id="node52" class="node">
<title>server@8</title>
<polygon fill="none" stroke="darkgreen" stroke-width="2" points="527.5,-113 526.5,-113 526.5,-112 527.5,-112 527.5,-113"/>
</g>
<!-- server@7&#45;&gt;server@8 -->
<g id="edge52" class="edge">
<title>server@7&#45;&gt;server@8</title>
<path fill="none" stroke="darkgreen" stroke-width="3" d="M527,-145.91C527,-144.03 527,-114.91 527,-113.09"/>
</g>
<!-- server@9 -->
<g id="node53" class="node">
<title>server@9</title>
<polygon fill="none" stroke="darkgreen" stroke-width="2" points="527.5,-86.5 526.5,-86.5 526.5,-85.5 527.5,-85.5 527.5,-86.5"/>
</g>
<!-- server@8&#45;&gt;server@9 -->
<g id="edge53" class="edge">
<title>server@8&#45;&gt;server@9</title>
<path fill="none" stroke="darkgreen" stroke-width="3" d="M527,-111.93C527,-110.51 527,-88.44 527,-87.07"/>
</g>
<!-- server@10 -->
<g id="node54" class="node">
<title>server@10</title>
<polygon fill="none" stroke="darkgreen" stroke-width="2" points="527.5,-60 526.5,-60 526.5,-59 527.5,-59 527.5,-60"/>
</g>
<!-- server@9&#45;&gt;server@10 -->
<g id="edge54" class="edge">
<title>server@9&#45;&gt;server@10</title>
<path fill="none" stroke="darkgreen" stroke-width="3" d="M527,-84.93C527,-83.51 527,-61.44 527,-60.07"/>
</g>
</g>
</svg>
