<?xml version="1.0" encoding="UTF-8" standalone="no"?>
<!DOCTYPE svg PUBLIC "-//W3C//DTD SVG 1.1//EN"
 "http://www.w3.org/Graphics/SVG/1.1/DTD/svg11.dtd">
<!-- Generated by graphviz version 2.44.1 (0)
 -->
<!-- Title: G Pages: 1 -->
<svg width="593pt" height="398pt"
 viewBox="0.00 0.00 593.00 397.50" xmlns="http://www.w3.org/2000/svg" xmlns:xlink="http://www.w3.org/1999/xlink">
<g id="graph0" class="graph" transform="scale(1 1) rotate(0) translate(4 393.5)">
<title>G</title>
<polygon fill="white" stroke="transparent" points="-4,4 -4,-393.5 589,-393.5 589,4 -4,4"/>
<text text-anchor="middle" x="292.5" y="-13.4" font-family="Sans-Serif" font-size="32.00">Message Replacement</text>
<g id="clust1" class="cluster">
<title>cluster_between_client_and_client&#45;1</title>
<polygon fill="none" stroke="white" points="158,-121 158,-348.8 302,-348.8 302,-121 158,-121"/>
</g>
<g id="clust2" class="cluster">
<title>cluster_agent_client</title>
<polygon fill="none" stroke="white" points="310,-51 310,-381.5 383,-381.5 383,-51 310,-51"/>
<text text-anchor="middle" x="346.5" y="-358.3" font-family="Sans-Serif" font-size="24.00">client</text>
</g>
<g id="clust3" class="cluster">
<title>cluster_agent_client&#45;0</title>
<polygon fill="none" stroke="white" points="391,-51 391,-381.5 485,-381.5 485,-51 391,-51"/>
<text text-anchor="middle" x="438" y="-358.3" font-family="Sans-Serif" font-size="24.00">client&#45;0</text>
</g>
<g id="clust4" class="cluster">
<title>cluster_agent_client&#45;1</title>
<polygon fill="none" stroke="white" points="8,-51 8,-381.5 150,-381.5 150,-51 8,-51"/>
<text text-anchor="middle" x="79" y="-358.3" font-family="Sans-Serif" font-size="24.00">client&#45;1</text>
</g>
<g id="clust5" class="cluster">
<title>cluster_agent_server</title>
<polygon fill="none" stroke="white" points="493,-51 493,-381.5 577,-381.5 577,-51 493,-51"/>
<text text-anchor="middle" x="535" y="-358.3" font-family="Sans-Serif" font-size="24.00">server</text>
</g>
<!-- message&#45;1&#45;4 -->
<g id="node1" class="node">
<title>message&#45;1&#45;4</title>
<polygon fill="none" stroke="mediumblue" stroke-width="2" points="230.5,-229.6 229.5,-229.6 229.5,-228.6 230.5,-228.6 230.5,-229.6"/>
</g>
<!-- message&#45;1&#45;5 -->
<g id="node3" class="node">
<title>message&#45;1&#45;5</title>
<polygon fill="paleturquoise" stroke="paleturquoise" points="294,-220.6 166,-220.6 166,-184.6 294,-184.6 294,-220.6"/>
<text text-anchor="middle" x="230" y="-198.9" font-family="Sans-Serif" font-size="14.00">check@0 / client&#45;1</text>
</g>
<!-- message&#45;1&#45;4&#45;&gt;message&#45;1&#45;5 -->
<g id="edge2" class="edge">
<title>message&#45;1&#45;4&#45;&gt;message&#45;1&#45;5</title>
<path fill="none" stroke="mediumblue" stroke-width="3" d="M230,-228.53C230,-228.5 230,-228.45 230,-228.4"/>
<polygon fill="mediumblue" stroke="mediumblue" stroke-width="3" points="233.5,-230.8 230,-220.8 226.5,-230.8 233.5,-230.8"/>
</g>
<!-- message&#45;0&#45;3 -->
<g id="node2" class="node">
<title>message&#45;0&#45;3</title>
<polygon fill="paleturquoise" stroke="paleturquoise" points="294,-273.6 166,-273.6 166,-237.6 294,-237.6 294,-273.6"/>
<text text-anchor="middle" x="230" y="-251.9" font-family="Sans-Serif" font-size="14.00">check@0 / client&#45;1</text>
</g>
<!-- message&#45;0&#45;3&#45;&gt;message&#45;1&#45;4 -->
<g id="edge1" class="edge">
<title>message&#45;0&#45;3&#45;&gt;message&#45;1&#45;4</title>
<path fill="none" stroke="mediumblue" stroke-width="3" d="M230,-237.51C230,-233.66 230,-230.49 230,-229.76"/>
</g>
<!-- message&#45;2&#45;6 -->
<!-- message&#45;1&#45;5&#45;&gt;message&#45;2&#45;6 -->
<!-- client@6 -->
<g id="node15" class="node">
<title>client@6</title>
<polygon fill="none" stroke="#0063cd" stroke-width="4" points="345.5,-175.3 344.5,-175.3 344.5,-174.3 345.5,-174.3 345.5,-175.3"/>
</g>
<!-- message&#45;1&#45;5&#45;&gt;client@6 -->
<g id="edge14" class="edge">
<title>message&#45;1&#45;5:c&#45;&gt;client@6:c</title>
<path fill="none" stroke="mediumblue" stroke-width="3" d="M294.22,-187.19C310.17,-183.61 325.42,-180.19 334.97,-178.05"/>
<polygon fill="mediumblue" stroke="mediumblue" stroke-width="3" points="335.94,-181.42 344.93,-175.82 334.41,-174.59 335.94,-181.42"/>
</g>
<!-- message&#45;0&#45;0 -->
<!-- message&#45;0&#45;1 -->
<!-- message&#45;0&#45;0&#45;&gt;message&#45;0&#45;1 -->
<!-- message&#45;0&#45;2 -->
<!-- message&#45;0&#45;1&#45;&gt;message&#45;0&#45;2 -->
<!-- message&#45;0&#45;2&#45;&gt;message&#45;0&#45;3 -->
<!-- message&#45;2&#45;7 -->
<g id="node8" class="node">
<title>message&#45;2&#45;7</title>
<polygon fill="darkturquoise" stroke="darkturquoise" points="288,-165 168,-165 168,-129 288,-129 288,-165"/>
<text text-anchor="middle" x="228" y="-143.3" font-family="Sans-Serif" font-size="14.00">confirm! / client&#45;1</text>
</g>
<!-- message&#45;2&#45;6&#45;&gt;message&#45;2&#45;7 -->
<!-- client&#45;1@8 -->
<g id="node41" class="node">
<title>client&#45;1@8</title>
<polygon fill="none" stroke="#0063cd" stroke-width="7" points="115.5,-113 114.5,-113 114.5,-112 115.5,-112 115.5,-113"/>
</g>
<!-- message&#45;2&#45;7&#45;&gt;client&#45;1@8 -->
<g id="edge41" class="edge">
<title>message&#45;2&#45;7:c&#45;&gt;client&#45;1@8:c</title>
<path fill="none" stroke="mediumblue" stroke-width="3" d="M180.5,-128.99C171.74,-126.13 162.64,-123.34 154,-121 144.3,-118.38 133.05,-116.16 125.13,-114.72"/>
<polygon fill="mediumblue" stroke="mediumblue" stroke-width="3" points="125.51,-111.24 115.06,-113.01 124.33,-118.14 125.51,-111.24"/>
</g>
<!-- client@0 -->
<g id="node9" class="node">
<title>client@0</title>
<polygon fill="none" stroke="darkgreen" stroke-width="2" points="345.5,-339.5 344.5,-339.5 344.5,-338.5 345.5,-338.5 345.5,-339.5"/>
</g>
<!-- client@1 -->
<g id="node10" class="node">
<title>client@1</title>
<polygon fill="palegreen" stroke="palegreen" points="372,-329.2 318,-329.2 318,-293.2 372,-293.2 372,-329.2"/>
<text text-anchor="middle" x="345" y="-307.5" font-family="Sans-Serif" font-size="14.00">idle</text>
</g>
<!-- client@0&#45;&gt;client@1 -->
<g id="edge8" class="edge">
<title>client@0&#45;&gt;client@1</title>
<path fill="none" stroke="darkgreen" stroke-width="3" d="M345,-337.93C345,-337.37 345,-333.75 345,-329.4"/>
</g>
<!-- client@2 -->
<g id="node11" class="node">
<title>client@2</title>
<polygon fill="none" stroke="darkgreen" stroke-width="2" points="345.5,-283.9 344.5,-283.9 344.5,-282.9 345.5,-282.9 345.5,-283.9"/>
</g>
<!-- client@1&#45;&gt;client@2 -->
<g id="edge9" class="edge">
<title>client@1&#45;&gt;client@2</title>
<path fill="none" stroke="darkgreen" stroke-width="3" d="M345,-293.13C345,-288.64 345,-284.9 345,-284.45"/>
</g>
<!-- client@3 -->
<g id="node12" class="node">
<title>client@3</title>
<polygon fill="none" stroke="darkgreen" stroke-width="2" points="345.5,-256.1 344.5,-256.1 344.5,-255.1 345.5,-255.1 345.5,-256.1"/>
</g>
<!-- client@2&#45;&gt;client@3 -->
<g id="edge10" class="edge">
<title>client@2&#45;&gt;client@3</title>
<path fill="none" stroke="darkgreen" stroke-width="3" d="M345,-282.33C345,-280.86 345,-258.09 345,-256.67"/>
</g>
<!-- client@4 -->
<g id="node13" class="node">
<title>client@4</title>
<polygon fill="none" stroke="darkgreen" stroke-width="2" points="345.5,-229.6 344.5,-229.6 344.5,-228.6 345.5,-228.6 345.5,-229.6"/>
</g>
<!-- client@3&#45;&gt;client@4 -->
<g id="edge11" class="edge">
<title>client@3&#45;&gt;client@4</title>
<path fill="none" stroke="darkgreen" stroke-width="3" d="M345,-254.53C345,-253.11 345,-231.04 345,-229.67"/>
</g>
<!-- client@5 -->
<g id="node14" class="node">
<title>client@5</title>
<polygon fill="none" stroke="darkgreen" stroke-width="2" points="345.5,-203.1 344.5,-203.1 344.5,-202.1 345.5,-202.1 345.5,-203.1"/>
</g>
<!-- client@4&#45;&gt;client@5 -->
<g id="edge12" class="edge">
<title>client@4&#45;&gt;client@5</title>
<path fill="none" stroke="darkgreen" stroke-width="3" d="M345,-228.53C345,-227.11 345,-205.04 345,-203.67"/>
</g>
<!-- client@5&#45;&gt;client@6 -->
<g id="edge15" class="edge">
<title>client@5&#45;&gt;client@6</title>
<path fill="none" stroke="darkgreen" stroke-width="3" d="M345,-201.53C345,-200.06 345,-177.29 345,-175.87"/>
</g>
<!-- client@6&#45;&gt;message&#45;2&#45;7 -->
<g id="edge13" class="edge">
<title>client@6:c&#45;&gt;message&#45;2&#45;7:c</title>
<path fill="none" stroke="mediumblue" stroke-width="3" d="M344.92,-173.78C343.41,-173.45 322.17,-168.76 298.19,-163.48"/>
<polygon fill="mediumblue" stroke="mediumblue" stroke-width="3" points="298.68,-160 288.17,-161.27 297.18,-166.84 298.68,-160"/>
</g>
<!-- client@7 -->
<g id="node16" class="node">
<title>client@7</title>
<polygon fill="none" stroke="darkgreen" stroke-width="2" points="345.5,-147.5 344.5,-147.5 344.5,-146.5 345.5,-146.5 345.5,-147.5"/>
</g>
<!-- client@6&#45;&gt;client@7 -->
<g id="edge16" class="edge">
<title>client@6&#45;&gt;client@7</title>
<path fill="none" stroke="darkgreen" stroke-width="3" d="M345,-173.73C345,-172.26 345,-149.49 345,-148.07"/>
</g>
<!-- client@8 -->
<g id="node17" class="node">
<title>client@8</title>
<polygon fill="none" stroke="darkgreen" stroke-width="2" points="345.5,-113 344.5,-113 344.5,-112 345.5,-112 345.5,-113"/>
</g>
<!-- client@7&#45;&gt;client@8 -->
<g id="edge17" class="edge">
<title>client@7&#45;&gt;client@8</title>
<path fill="none" stroke="darkgreen" stroke-width="3" d="M345,-145.91C345,-144.03 345,-114.91 345,-113.09"/>
</g>
<!-- client@9 -->
<g id="node18" class="node">
<title>client@9</title>
<polygon fill="none" stroke="darkgreen" stroke-width="2" points="345.5,-86.5 344.5,-86.5 344.5,-85.5 345.5,-85.5 345.5,-86.5"/>
</g>
<!-- client@8&#45;&gt;client@9 -->
<g id="edge18" class="edge">
<title>client@8&#45;&gt;client@9</title>
<path fill="none" stroke="darkgreen" stroke-width="3" d="M345,-111.93C345,-110.51 345,-88.44 345,-87.07"/>
</g>
<!-- client@10 -->
<g id="node19" class="node">
<title>client@10</title>
<polygon fill="none" stroke="darkgreen" stroke-width="2" points="345.5,-60 344.5,-60 344.5,-59 345.5,-59 345.5,-60"/>
</g>
<!-- client@9&#45;&gt;client@10 -->
<g id="edge19" class="edge">
<title>client@9&#45;&gt;client@10</title>
<path fill="none" stroke="darkgreen" stroke-width="3" d="M345,-84.93C345,-83.51 345,-61.44 345,-60.07"/>
</g>
<!-- client&#45;0@0 -->
<g id="node20" class="node">
<title>client&#45;0@0</title>
<polygon fill="none" stroke="darkgreen" stroke-width="2" points="438.5,-339.5 437.5,-339.5 437.5,-338.5 438.5,-338.5 438.5,-339.5"/>
</g>
<!-- client&#45;0@1 -->
<g id="node21" class="node">
<title>client&#45;0@1</title>
<polygon fill="palegreen" stroke="palegreen" points="465,-329.2 411,-329.2 411,-293.2 465,-293.2 465,-329.2"/>
<text text-anchor="middle" x="438" y="-307.5" font-family="Sans-Serif" font-size="14.00">idle</text>
</g>
<!-- client&#45;0@0&#45;&gt;client&#45;0@1 -->
<g id="edge20" class="edge">
<title>client&#45;0@0&#45;&gt;client&#45;0@1</title>
<path fill="none" stroke="darkgreen" stroke-width="3" d="M438,-337.93C438,-337.37 438,-333.75 438,-329.4"/>
</g>
<!-- client&#45;0@2 -->
<g id="node22" class="node">
<title>client&#45;0@2</title>
<polygon fill="none" stroke="darkgreen" stroke-width="2" points="438.5,-283.9 437.5,-283.9 437.5,-282.9 438.5,-282.9 438.5,-283.9"/>
</g>
<!-- client&#45;0@1&#45;&gt;client&#45;0@2 -->
<g id="edge21" class="edge">
<title>client&#45;0@1&#45;&gt;client&#45;0@2</title>
<path fill="none" stroke="darkgreen" stroke-width="3" d="M438,-293.13C438,-288.64 438,-284.9 438,-284.45"/>
</g>
<!-- client&#45;0@3 -->
<g id="node23" class="node">
<title>client&#45;0@3</title>
<polygon fill="none" stroke="darkgreen" stroke-width="2" points="438.5,-256.1 437.5,-256.1 437.5,-255.1 438.5,-255.1 438.5,-256.1"/>
</g>
<!-- client&#45;0@2&#45;&gt;client&#45;0@3 -->
<g id="edge22" class="edge">
<title>client&#45;0@2&#45;&gt;client&#45;0@3</title>
<path fill="none" stroke="darkgreen" stroke-width="3" d="M438,-282.33C438,-280.86 438,-258.09 438,-256.67"/>
</g>
<!-- client&#45;0@4 -->
<g id="node24" class="node">
<title>client&#45;0@4</title>
<polygon fill="none" stroke="darkgreen" stroke-width="2" points="438.5,-229.6 437.5,-229.6 437.5,-228.6 438.5,-228.6 438.5,-229.6"/>
</g>
<!-- client&#45;0@3&#45;&gt;client&#45;0@4 -->
<g id="edge23" class="edge">
<title>client&#45;0@3&#45;&gt;client&#45;0@4</title>
<path fill="none" stroke="darkgreen" stroke-width="3" d="M438,-254.53C438,-253.11 438,-231.04 438,-229.67"/>
</g>
<!-- client&#45;0@5 -->
<g id="node25" class="node">
<title>client&#45;0@5</title>
<polygon fill="none" stroke="darkgreen" stroke-width="2" points="438.5,-203.1 437.5,-203.1 437.5,-202.1 438.5,-202.1 438.5,-203.1"/>
</g>
<!-- client&#45;0@4&#45;&gt;client&#45;0@5 -->
<g id="edge24" class="edge">
<title>client&#45;0@4&#45;&gt;client&#45;0@5</title>
<path fill="none" stroke="darkgreen" stroke-width="3" d="M438,-228.53C438,-227.11 438,-205.04 438,-203.67"/>
</g>
<!-- client&#45;0@6 -->
<g id="node26" class="node">
<title>client&#45;0@6</title>
<polygon fill="none" stroke="darkgreen" stroke-width="2" points="438.5,-175.3 437.5,-175.3 437.5,-174.3 438.5,-174.3 438.5,-175.3"/>
</g>
<!-- client&#45;0@5&#45;&gt;client&#45;0@6 -->
<g id="edge25" class="edge">
<title>client&#45;0@5&#45;&gt;client&#45;0@6</title>
<path fill="none" stroke="darkgreen" stroke-width="3" d="M438,-201.53C438,-200.06 438,-177.29 438,-175.87"/>
</g>
<!-- client&#45;0@7 -->
<g id="node27" class="node">
<title>client&#45;0@7</title>
<polygon fill="none" stroke="darkgreen" stroke-width="2" points="438.5,-147.5 437.5,-147.5 437.5,-146.5 438.5,-146.5 438.5,-147.5"/>
</g>
<!-- client&#45;0@6&#45;&gt;client&#45;0@7 -->
<g id="edge26" class="edge">
<title>client&#45;0@6&#45;&gt;client&#45;0@7</title>
<path fill="none" stroke="darkgreen" stroke-width="3" d="M438,-173.73C438,-172.26 438,-149.49 438,-148.07"/>
</g>
<!-- client&#45;0@8 -->
<g id="node28" class="node">
<title>client&#45;0@8</title>
<polygon fill="none" stroke="darkgreen" stroke-width="2" points="438.5,-113 437.5,-113 437.5,-112 438.5,-112 438.5,-113"/>
</g>
<!-- client&#45;0@7&#45;&gt;client&#45;0@8 -->
<g id="edge27" class="edge">
<title>client&#45;0@7&#45;&gt;client&#45;0@8</title>
<path fill="none" stroke="darkgreen" stroke-width="3" d="M438,-145.91C438,-144.03 438,-114.91 438,-113.09"/>
</g>
<!-- client&#45;0@9 -->
<g id="node29" class="node">
<title>client&#45;0@9</title>
<polygon fill="none" stroke="darkgreen" stroke-width="2" points="438.5,-86.5 437.5,-86.5 437.5,-85.5 438.5,-85.5 438.5,-86.5"/>
</g>
<!-- client&#45;0@8&#45;&gt;client&#45;0@9 -->
<g id="edge28" class="edge">
<title>client&#45;0@8&#45;&gt;client&#45;0@9</title>
<path fill="none" stroke="darkgreen" stroke-width="3" d="M438,-111.93C438,-110.51 438,-88.44 438,-87.07"/>
</g>
<!-- client&#45;0@10 -->
<g id="node30" class="node">
<title>client&#45;0@10</title>
<polygon fill="none" stroke="darkgreen" stroke-width="2" points="438.5,-60 437.5,-60 437.5,-59 438.5,-59 438.5,-60"/>
</g>
<!-- client&#45;0@9&#45;&gt;client&#45;0@10 -->
<g id="edge29" class="edge">
<title>client&#45;0@9&#45;&gt;client&#45;0@10</title>
<path fill="none" stroke="darkgreen" stroke-width="3" d="M438,-84.93C438,-83.51 438,-61.44 438,-60.07"/>
</g>
<!-- client&#45;1@0 -->
<g id="node31" class="node">
<title>client&#45;1@0</title>
<polygon fill="none" stroke="darkgreen" stroke-width="2" points="115.5,-339.5 114.5,-339.5 114.5,-338.5 115.5,-338.5 115.5,-339.5"/>
</g>
<!-- client&#45;1@1 -->
<g id="node32" class="node">
<title>client&#45;1@1</title>
<polygon fill="palegreen" stroke="palegreen" points="142,-329.2 88,-329.2 88,-293.2 142,-293.2 142,-329.2"/>
<text text-anchor="middle" x="115" y="-307.5" font-family="Sans-Serif" font-size="14.00">idle</text>
</g>
<!-- client&#45;1@0&#45;&gt;client&#45;1@1 -->
<g id="edge30" class="edge">
<title>client&#45;1@0&#45;&gt;client&#45;1@1</title>
<path fill="none" stroke="darkgreen" stroke-width="3" d="M115,-337.93C115,-337.37 115,-333.75 115,-329.4"/>
</g>
<!-- client&#45;1@2 -->
<g id="node33" class="node">
<title>client&#45;1@2</title>
<polygon fill="none" stroke="#0063cd" stroke-width="4" points="115.5,-283.9 114.5,-283.9 114.5,-282.9 115.5,-282.9 115.5,-283.9"/>
</g>
<!-- client&#45;1@1&#45;&gt;client&#45;1@2 -->
<g id="edge33" class="edge">
<title>client&#45;1@1&#45;&gt;client&#45;1@2</title>
<path fill="none" stroke="darkgreen" stroke-width="3" d="M115,-293.13C115,-288.64 115,-284.9 115,-284.45"/>
</g>
<!-- client&#45;1@2&#45;&gt;message&#45;0&#45;3 -->
<g id="edge31" class="edge">
<title>client&#45;1@2:c&#45;&gt;message&#45;0&#45;3:c</title>
<path fill="none" stroke="mediumblue" stroke-width="3" d="M115.08,-282.38C116.45,-282.07 134.49,-278.03 155.88,-273.23"/>
<polygon fill="mediumblue" stroke="mediumblue" stroke-width="3" points="156.91,-276.58 165.9,-270.98 155.38,-269.75 156.91,-276.58"/>
</g>
<!-- client&#45;1@3 -->
<g id="node35" class="node">
<title>client&#45;1@3</title>
<polygon fill="palegreen" stroke="palegreen" points="142,-273.6 88,-273.6 88,-237.6 142,-237.6 142,-273.6"/>
<text text-anchor="middle" x="115" y="-251.9" font-family="Sans-Serif" font-size="14.00">check</text>
</g>
<!-- client&#45;1@2&#45;&gt;client&#45;1@3 -->
<g id="edge34" class="edge">
<title>client&#45;1@2&#45;&gt;client&#45;1@3</title>
<path fill="none" stroke="purple" stroke-width="6" d="M115,-282.33C115,-281.77 115,-278.15 115,-273.8"/>
</g>
<!-- client&#45;1&#45;time&#45;1 -->
<g id="node34" class="node">
<title>client&#45;1&#45;time&#45;1</title>
<polygon fill="paleturquoise" stroke="paleturquoise" points="70,-329.2 16,-329.2 16,-293.2 70,-293.2 70,-329.2"/>
<text text-anchor="middle" x="43" y="-307.5" font-family="Sans-Serif" font-size="14.00">time</text>
</g>
<!-- client&#45;1&#45;time&#45;1&#45;&gt;client&#45;1@2 -->
<g id="edge32" class="edge">
<title>client&#45;1&#45;time&#45;1:c&#45;&gt;client&#45;1@2:c</title>
<path fill="none" stroke="mediumblue" stroke-width="3" d="M70.28,-296.62C73.19,-295.38 76.13,-294.22 79,-293.2 87.58,-290.16 97.67,-287.79 104.98,-286.28"/>
<polygon fill="mediumblue" stroke="mediumblue" stroke-width="3" points="105.76,-289.7 114.94,-284.41 104.47,-282.82 105.76,-289.7"/>
</g>
<!-- client&#45;1@4 -->
<g id="node36" class="node">
<title>client&#45;1@4</title>
<polygon fill="none" stroke="#0063cd" stroke-width="7" points="115.5,-229.6 114.5,-229.6 114.5,-228.6 115.5,-228.6 115.5,-229.6"/>
</g>
<!-- client&#45;1@3&#45;&gt;client&#45;1@4 -->
<g id="edge37" class="edge">
<title>client&#45;1@3&#45;&gt;client&#45;1@4</title>
<path fill="none" stroke="purple" stroke-width="6" d="M115,-237.51C115,-233.66 115,-230.49 115,-229.76"/>
</g>
<!-- client&#45;1@4&#45;&gt;message&#45;1&#45;5 -->
<g id="edge35" class="edge">
<title>client&#45;1@4:c&#45;&gt;message&#45;1&#45;5:c</title>
<path fill="none" stroke="mediumblue" stroke-width="3" d="M115.06,-228.59C116.35,-228.33 137.24,-224.19 154,-220.6 154.6,-220.47 155.2,-220.34 155.8,-220.21"/>
<polygon fill="mediumblue" stroke="mediumblue" stroke-width="3" points="156.72,-223.6 165.75,-218.06 155.23,-216.76 156.72,-223.6"/>
</g>
<!-- client&#45;1@5 -->
<g id="node38" class="node">
<title>client&#45;1@5</title>
<polygon fill="none" stroke="purple" stroke-width="5" points="115.5,-203.1 114.5,-203.1 114.5,-202.1 115.5,-202.1 115.5,-203.1"/>
</g>
<!-- client&#45;1@4&#45;&gt;client&#45;1@5 -->
<g id="edge38" class="edge">
<title>client&#45;1@4&#45;&gt;client&#45;1@5</title>
<path fill="none" stroke="purple" stroke-width="6" d="M115,-228.53C115,-227.11 115,-205.04 115,-203.67"/>
</g>
<!-- client&#45;1&#45;time&#45;3 -->
<g id="node37" class="node">
<title>client&#45;1&#45;time&#45;3</title>
<polygon fill="paleturquoise" stroke="paleturquoise" points="70,-273.6 16,-273.6 16,-237.6 70,-237.6 70,-273.6"/>
<text text-anchor="middle" x="43" y="-251.9" font-family="Sans-Serif" font-size="14.00">time</text>
</g>
<!-- client&#45;1&#45;time&#45;3&#45;&gt;client&#45;1@4 -->
<g id="edge36" class="edge">
<title>client&#45;1&#45;time&#45;3:c&#45;&gt;client&#45;1@4:c</title>
<path fill="none" stroke="mediumblue" stroke-width="3" d="M70.26,-240.96C73.17,-239.73 76.12,-238.59 79,-237.6 87.57,-234.67 97.66,-232.53 104.97,-231.21"/>
<polygon fill="mediumblue" stroke="mediumblue" stroke-width="3" points="105.62,-234.65 114.94,-229.61 104.51,-227.74 105.62,-234.65"/>
</g>
<!-- client&#45;1@6 -->
<g id="node39" class="node">
<title>client&#45;1@6</title>
<polygon fill="none" stroke="purple" stroke-width="5" points="115.5,-175.3 114.5,-175.3 114.5,-174.3 115.5,-174.3 115.5,-175.3"/>
</g>
<!-- client&#45;1@5&#45;&gt;client&#45;1@6 -->
<g id="edge39" class="edge">
<title>client&#45;1@5&#45;&gt;client&#45;1@6</title>
<path fill="none" stroke="purple" stroke-width="6" d="M115,-201.53C115,-200.06 115,-177.29 115,-175.87"/>
</g>
<!-- client&#45;1@7 -->
<g id="node40" class="node">
<title>client&#45;1@7</title>
<polygon fill="none" stroke="purple" stroke-width="5" points="115.5,-147.5 114.5,-147.5 114.5,-146.5 115.5,-146.5 115.5,-147.5"/>
</g>
<!-- client&#45;1@6&#45;&gt;client&#45;1@7 -->
<g id="edge40" class="edge">
<title>client&#45;1@6&#45;&gt;client&#45;1@7</title>
<path fill="none" stroke="purple" stroke-width="6" d="M115,-173.73C115,-172.26 115,-149.49 115,-148.07"/>
</g>
<!-- client&#45;1@7&#45;&gt;client&#45;1@8 -->
<g id="edge42" class="edge">
<title>client&#45;1@7&#45;&gt;client&#45;1@8</title>
<path fill="none" stroke="purple" stroke-width="6" d="M115,-145.91C115,-144.03 115,-114.91 115,-113.09"/>
</g>
<!-- client&#45;1@9 -->
<g id="node42" class="node">
<title>client&#45;1@9</title>
<polygon fill="palegreen" stroke="palegreen" points="142,-104 88,-104 88,-68 142,-68 142,-104"/>
<text text-anchor="middle" x="115" y="-82.3" font-family="Sans-Serif" font-size="14.00">idle</text>
</g>
<!-- client&#45;1@8&#45;&gt;client&#45;1@9 -->
<g id="edge43" class="edge">
<title>client&#45;1@8&#45;&gt;client&#45;1@9</title>
<path fill="none" stroke="darkgreen" stroke-width="3" d="M115,-111.93C115,-111.41 115,-108.18 115,-104.2"/>
</g>
<!-- client&#45;1@10 -->
<g id="node43" class="node">
<title>client&#45;1@10</title>
<polygon fill="none" stroke="darkgreen" stroke-width="2" points="115.5,-60 114.5,-60 114.5,-59 115.5,-59 115.5,-60"/>
</g>
<!-- client&#45;1@9&#45;&gt;client&#45;1@10 -->
<g id="edge44" class="edge">
<title>client&#45;1@9&#45;&gt;client&#45;1@10</title>
<path fill="none" stroke="darkgreen" stroke-width="3" d="M115,-67.91C115,-64.06 115,-60.89 115,-60.16"/>
</g>
<!-- server@0 -->
<g id="node44" class="node">
<title>server@0</title>
<polygon fill="none" stroke="darkgreen" stroke-width="2" points="535.5,-339.5 534.5,-339.5 534.5,-338.5 535.5,-338.5 535.5,-339.5"/>
</g>
<!-- server@1 -->
<g id="node45" class="node">
<title>server@1</title>
<polygon fill="palegreen" stroke="palegreen" points="562,-329.2 508,-329.2 508,-293.2 562,-293.2 562,-329.2"/>
<text text-anchor="middle" x="535" y="-307.5" font-family="Sans-Serif" font-size="14.00">ready</text>
</g>
<!-- server@0&#45;&gt;server@1 -->
<g id="edge45" class="edge">
<title>server@0&#45;&gt;server@1</title>
<path fill="none" stroke="darkgreen" stroke-width="3" d="M535,-337.93C535,-337.37 535,-333.75 535,-329.4"/>
</g>
<!-- server@2 -->
<g id="node46" class="node">
<title>server@2</title>
<polygon fill="none" stroke="darkgreen" stroke-width="2" points="535.5,-283.9 534.5,-283.9 534.5,-282.9 535.5,-282.9 535.5,-283.9"/>
</g>
<!-- server@1&#45;&gt;server@2 -->
<g id="edge46" class="edge">
<title>server@1&#45;&gt;server@2</title>
<path fill="none" stroke="darkgreen" stroke-width="3" d="M535,-293.13C535,-288.64 535,-284.9 535,-284.45"/>
</g>
<!-- server@3 -->
<g id="node47" class="node">
<title>server@3</title>
<polygon fill="none" stroke="darkgreen" stroke-width="2" points="535.5,-256.1 534.5,-256.1 534.5,-255.1 535.5,-255.1 535.5,-256.1"/>
</g>
<!-- server@2&#45;&gt;server@3 -->
<g id="edge47" class="edge">
<title>server@2&#45;&gt;server@3</title>
<path fill="none" stroke="darkgreen" stroke-width="3" d="M535,-282.33C535,-280.86 535,-258.09 535,-256.67"/>
</g>
<!-- server@4 -->
<g id="node48" class="node">
<title>server@4</title>
<polygon fill="none" stroke="darkgreen" stroke-width="2" points="535.5,-229.6 534.5,-229.6 534.5,-228.6 535.5,-228.6 535.5,-229.6"/>
</g>
<!-- server@3&#45;&gt;server@4 -->
<g id="edge48" class="edge">
<title>server@3&#45;&gt;server@4</title>
<path fill="none" stroke="darkgreen" stroke-width="3" d="M535,-254.53C535,-253.11 535,-231.04 535,-229.67"/>
</g>
<!-- server@5 -->
<g id="node49" class="node">
<title>server@5</title>
<polygon fill="none" stroke="darkgreen" stroke-width="2" points="535.5,-203.1 534.5,-203.1 534.5,-202.1 535.5,-202.1 535.5,-203.1"/>
</g>
<!-- server@4&#45;&gt;server@5 -->
<g id="edge49" class="edge">
<title>server@4&#45;&gt;server@5</title>
<path fill="none" stroke="darkgreen" stroke-width="3" d="M535,-228.53C535,-227.11 535,-205.04 535,-203.67"/>
</g>
<!-- server@6 -->
<g id="node50" class="node">
<title>server@6</title>
<polygon fill="none" stroke="darkgreen" stroke-width="2" points="535.5,-175.3 534.5,-175.3 534.5,-174.3 535.5,-174.3 535.5,-175.3"/>
</g>
<!-- server@5&#45;&gt;server@6 -->
<g id="edge50" class="edge">
<title>server@5&#45;&gt;server@6</title>
<path fill="none" stroke="darkgreen" stroke-width="3" d="M535,-201.53C535,-200.06 535,-177.29 535,-175.87"/>
</g>
<!-- server@7 -->
<g id="node51" class="node">
<title>server@7</title>
<polygon fill="none" stroke="darkgreen" stroke-width="2" points="535.5,-147.5 534.5,-147.5 534.5,-146.5 535.5,-146.5 535.5,-147.5"/>
</g>
<!-- server@6&#45;&gt;server@7 -->
<g id="edge51" class="edge">
<title>server@6&#45;&gt;server@7</title>
<path fill="none" stroke="darkgreen" stroke-width="3" d="M535,-173.73C535,-172.26 535,-149.49 535,-148.07"/>
</g>
<!-- server@8 -->
<g id="node52" class="node">
<title>server@8</title>
<polygon fill="none" stroke="darkgreen" stroke-width="2" points="535.5,-113 534.5,-113 534.5,-112 535.5,-112 535.5,-113"/>
</g>
<!-- server@7&#45;&gt;server@8 -->
<g id="edge52" class="edge">
<title>server@7&#45;&gt;server@8</title>
<path fill="none" stroke="darkgreen" stroke-width="3" d="M535,-145.91C535,-144.03 535,-114.91 535,-113.09"/>
</g>
<!-- server@9 -->
<g id="node53" class="node">
<title>server@9</title>
<polygon fill="none" stroke="darkgreen" stroke-width="2" points="535.5,-86.5 534.5,-86.5 534.5,-85.5 535.5,-85.5 535.5,-86.5"/>
</g>
<!-- server@8&#45;&gt;server@9 -->
<g id="edge53" class="edge">
<title>server@8&#45;&gt;server@9</title>
<path fill="none" stroke="darkgreen" stroke-width="3" d="M535,-111.93C535,-110.51 535,-88.44 535,-87.07"/>
</g>
<!-- server@10 -->
<g id="node54" class="node">
<title>server@10</title>
<polygon fill="none" stroke="darkgreen" stroke-width="2" points="535.5,-60 534.5,-60 534.5,-59 535.5,-59 535.5,-60"/>
</g>
<!-- server@9&#45;&gt;server@10 -->
<g id="edge54" class="edge">
<title>server@9&#45;&gt;server@10</title>
<path fill="none" stroke="darkgreen" stroke-width="3" d="M535,-84.93C535,-83.51 535,-61.44 535,-60.07"/>
</g>
</g>
</svg>
