<?xml version="1.0" encoding="UTF-8" standalone="no"?>
<!DOCTYPE svg PUBLIC "-//W3C//DTD SVG 1.1//EN"
 "http://www.w3.org/Graphics/SVG/1.1/DTD/svg11.dtd">
<!-- Generated by graphviz version 2.46.0 (0)
 -->
<!-- Title: G Pages: 1 -->
<svg width="625pt" height="414pt"
 viewBox="0.00 0.00 625.00 413.50" xmlns="http://www.w3.org/2000/svg" xmlns:xlink="http://www.w3.org/1999/xlink">
<g id="graph0" class="graph" transform="scale(1 1) rotate(0) translate(4 409.5)">
<title>G</title>
<polygon fill="white" stroke="transparent" points="-4,4 -4,-409.5 621,-409.5 621,4 -4,4"/>
<text text-anchor="middle" x="308.5" y="-13.4" font-family="Sans-Serif" font-size="32.00">Message Replacement</text>
<g id="clust1" class="cluster">
<title>cluster_between_0</title>
<polygon fill="none" stroke="white" points="8,-51 8,-397.5 108,-397.5 108,-51 8,-51"/>
</g>
<g id="clust2" class="cluster">
<title>cluster_agent_server</title>
<polygon fill="none" stroke="white" points="16,-59 16,-389.5 100,-389.5 100,-59 16,-59"/>
<text text-anchor="middle" x="58" y="-366.3" font-family="Sans-Serif" font-size="24.00">server</text>
</g>
<g id="clust3" class="cluster">
<title>cluster_between_1</title>
<polygon fill="none" stroke="white" points="116,-51 116,-397.5 609,-397.5 609,-51 116,-51"/>
</g>
<g id="clust4" class="cluster">
<title>cluster_between_client_and_client&#45;1</title>
<polygon fill="none" stroke="white" points="274,-129 274,-356.8 418,-356.8 418,-129 274,-129"/>
</g>
<g id="clust5" class="cluster">
<title>cluster_agent_client</title>
<polygon fill="none" stroke="white" points="426,-59 426,-389.5 499,-389.5 499,-59 426,-59"/>
<text text-anchor="middle" x="462.5" y="-366.3" font-family="Sans-Serif" font-size="24.00">client</text>
</g>
<g id="clust6" class="cluster">
<title>cluster_agent_client&#45;0</title>
<polygon fill="none" stroke="white" points="507,-59 507,-389.5 601,-389.5 601,-59 507,-59"/>
<text text-anchor="middle" x="554" y="-366.3" font-family="Sans-Serif" font-size="24.00">client&#45;0</text>
</g>
<g id="clust7" class="cluster">
<title>cluster_agent_client&#45;1</title>
<polygon fill="none" stroke="white" points="124,-59 124,-389.5 266,-389.5 266,-59 124,-59"/>
<text text-anchor="middle" x="195" y="-366.3" font-family="Sans-Serif" font-size="24.00">client&#45;1</text>
</g>
<!-- server@0 -->
<g id="node1" class="node">
<title>server@0</title>
<polygon fill="none" stroke="darkgreen" stroke-width="2" points="58.5,-347.5 57.5,-347.5 57.5,-346.5 58.5,-346.5 58.5,-347.5"/>
</g>
<!-- server@1 -->
<g id="node2" class="node">
<title>server@1</title>
<polygon fill="palegreen" stroke="palegreen" points="85,-337.2 31,-337.2 31,-301.2 85,-301.2 85,-337.2"/>
<text text-anchor="middle" x="58" y="-315.5" font-family="Sans-Serif" font-size="14.00">ready</text>
</g>
<!-- server@0&#45;&gt;server@1 -->
<g id="edge1" class="edge">
<title>server@0&#45;&gt;server@1</title>
<path fill="none" stroke="darkgreen" stroke-width="3" d="M58,-345.93C58,-345.37 58,-341.75 58,-337.4"/>
</g>
<!-- server@2 -->
<g id="node3" class="node">
<title>server@2</title>
<polygon fill="none" stroke="darkgreen" stroke-width="2" points="58.5,-291.9 57.5,-291.9 57.5,-290.9 58.5,-290.9 58.5,-291.9"/>
</g>
<!-- server@1&#45;&gt;server@2 -->
<g id="edge2" class="edge">
<title>server@1&#45;&gt;server@2</title>
<path fill="none" stroke="darkgreen" stroke-width="3" d="M58,-301.13C58,-296.64 58,-292.9 58,-292.45"/>
</g>
<!-- server@3 -->
<g id="node4" class="node">
<title>server@3</title>
<polygon fill="none" stroke="darkgreen" stroke-width="2" points="58.5,-264.1 57.5,-264.1 57.5,-263.1 58.5,-263.1 58.5,-264.1"/>
</g>
<!-- server@2&#45;&gt;server@3 -->
<g id="edge3" class="edge">
<title>server@2&#45;&gt;server@3</title>
<path fill="none" stroke="darkgreen" stroke-width="3" d="M58,-290.33C58,-288.86 58,-266.09 58,-264.67"/>
</g>
<!-- server@4 -->
<g id="node5" class="node">
<title>server@4</title>
<polygon fill="none" stroke="darkgreen" stroke-width="2" points="58.5,-237.6 57.5,-237.6 57.5,-236.6 58.5,-236.6 58.5,-237.6"/>
</g>
<!-- server@3&#45;&gt;server@4 -->
<g id="edge4" class="edge">
<title>server@3&#45;&gt;server@4</title>
<path fill="none" stroke="darkgreen" stroke-width="3" d="M58,-262.53C58,-261.11 58,-239.04 58,-237.67"/>
</g>
<!-- server@5 -->
<g id="node6" class="node">
<title>server@5</title>
<polygon fill="none" stroke="darkgreen" stroke-width="2" points="58.5,-211.1 57.5,-211.1 57.5,-210.1 58.5,-210.1 58.5,-211.1"/>
</g>
<!-- server@4&#45;&gt;server@5 -->
<g id="edge5" class="edge">
<title>server@4&#45;&gt;server@5</title>
<path fill="none" stroke="darkgreen" stroke-width="3" d="M58,-236.53C58,-235.11 58,-213.04 58,-211.67"/>
</g>
<!-- server@6 -->
<g id="node7" class="node">
<title>server@6</title>
<polygon fill="none" stroke="darkgreen" stroke-width="2" points="58.5,-183.3 57.5,-183.3 57.5,-182.3 58.5,-182.3 58.5,-183.3"/>
</g>
<!-- server@5&#45;&gt;server@6 -->
<g id="edge6" class="edge">
<title>server@5&#45;&gt;server@6</title>
<path fill="none" stroke="darkgreen" stroke-width="3" d="M58,-209.53C58,-208.06 58,-185.29 58,-183.87"/>
</g>
<!-- server@7 -->
<g id="node8" class="node">
<title>server@7</title>
<polygon fill="none" stroke="darkgreen" stroke-width="2" points="58.5,-155.5 57.5,-155.5 57.5,-154.5 58.5,-154.5 58.5,-155.5"/>
</g>
<!-- server@6&#45;&gt;server@7 -->
<g id="edge7" class="edge">
<title>server@6&#45;&gt;server@7</title>
<path fill="none" stroke="darkgreen" stroke-width="3" d="M58,-181.73C58,-180.26 58,-157.49 58,-156.07"/>
</g>
<!-- server@8 -->
<g id="node9" class="node">
<title>server@8</title>
<polygon fill="none" stroke="darkgreen" stroke-width="2" points="58.5,-121 57.5,-121 57.5,-120 58.5,-120 58.5,-121"/>
</g>
<!-- server@7&#45;&gt;server@8 -->
<g id="edge8" class="edge">
<title>server@7&#45;&gt;server@8</title>
<path fill="none" stroke="darkgreen" stroke-width="3" d="M58,-153.91C58,-152.03 58,-122.91 58,-121.09"/>
</g>
<!-- server@9 -->
<g id="node10" class="node">
<title>server@9</title>
<polygon fill="none" stroke="darkgreen" stroke-width="2" points="58.5,-94.5 57.5,-94.5 57.5,-93.5 58.5,-93.5 58.5,-94.5"/>
</g>
<!-- server@8&#45;&gt;server@9 -->
<g id="edge9" class="edge">
<title>server@8&#45;&gt;server@9</title>
<path fill="none" stroke="darkgreen" stroke-width="3" d="M58,-119.93C58,-118.51 58,-96.44 58,-95.07"/>
</g>
<!-- server@10 -->
<g id="node11" class="node">
<title>server@10</title>
<polygon fill="none" stroke="darkgreen" stroke-width="2" points="58.5,-68 57.5,-68 57.5,-67 58.5,-67 58.5,-68"/>
</g>
<!-- server@9&#45;&gt;server@10 -->
<g id="edge10" class="edge">
<title>server@9&#45;&gt;server@10</title>
<path fill="none" stroke="darkgreen" stroke-width="3" d="M58,-92.93C58,-91.51 58,-69.44 58,-68.07"/>
</g>
<!-- message&#45;1&#45;4 -->
<g id="node12" class="node">
<title>message&#45;1&#45;4</title>
<polygon fill="none" stroke="mediumblue" stroke-width="2" points="346.5,-237.6 345.5,-237.6 345.5,-236.6 346.5,-236.6 346.5,-237.6"/>
</g>
<!-- message&#45;1&#45;5 -->
<g id="node14" class="node">
<title>message&#45;1&#45;5</title>
<polygon fill="paleturquoise" stroke="paleturquoise" points="410,-228.6 282,-228.6 282,-192.6 410,-192.6 410,-228.6"/>
<text text-anchor="middle" x="346" y="-206.9" font-family="Sans-Serif" font-size="14.00">check@0 / client&#45;1</text>
</g>
<!-- message&#45;1&#45;4&#45;&gt;message&#45;1&#45;5 -->
<g id="edge12" class="edge">
<title>message&#45;1&#45;4&#45;&gt;message&#45;1&#45;5</title>
<path fill="none" stroke="mediumblue" stroke-width="3" d="M346,-236.53C346,-236.5 346,-236.45 346,-236.4"/>
<polygon fill="mediumblue" stroke="mediumblue" stroke-width="3" points="349.5,-238.8 346,-228.8 342.5,-238.8 349.5,-238.8"/>
</g>
<!-- message&#45;0&#45;3 -->
<g id="node13" class="node">
<title>message&#45;0&#45;3</title>
<polygon fill="paleturquoise" stroke="paleturquoise" points="410,-281.6 282,-281.6 282,-245.6 410,-245.6 410,-281.6"/>
<text text-anchor="middle" x="346" y="-259.9" font-family="Sans-Serif" font-size="14.00">check@0 / client&#45;1</text>
</g>
<!-- message&#45;0&#45;3&#45;&gt;message&#45;1&#45;4 -->
<g id="edge11" class="edge">
<title>message&#45;0&#45;3&#45;&gt;message&#45;1&#45;4</title>
<path fill="none" stroke="mediumblue" stroke-width="3" d="M346,-245.51C346,-241.66 346,-238.49 346,-237.76"/>
</g>
<!-- message&#45;2&#45;6 -->
<!-- message&#45;1&#45;5&#45;&gt;message&#45;2&#45;6 -->
<!-- client@6 -->
<g id="node26" class="node">
<title>client@6</title>
<polygon fill="none" stroke="#0063cd" stroke-width="4" points="461.5,-183.3 460.5,-183.3 460.5,-182.3 461.5,-182.3 461.5,-183.3"/>
</g>
<!-- message&#45;1&#45;5&#45;&gt;client@6 -->
<g id="edge24" class="edge">
<title>message&#45;1&#45;5:c&#45;&gt;client@6:c</title>
<path fill="none" stroke="mediumblue" stroke-width="3" d="M410.22,-195.19C435.74,-189.47 459.47,-184.14 460.93,-183.82"/>
</g>
<!-- message&#45;0&#45;0 -->
<!-- message&#45;0&#45;1 -->
<!-- message&#45;0&#45;0&#45;&gt;message&#45;0&#45;1 -->
<!-- message&#45;0&#45;2 -->
<!-- message&#45;0&#45;1&#45;&gt;message&#45;0&#45;2 -->
<!-- message&#45;0&#45;2&#45;&gt;message&#45;0&#45;3 -->
<!-- message&#45;2&#45;7 -->
<g id="node19" class="node">
<title>message&#45;2&#45;7</title>
<polygon fill="darkturquoise" stroke="darkturquoise" points="404,-173 284,-173 284,-137 404,-137 404,-173"/>
<text text-anchor="middle" x="344" y="-151.3" font-family="Sans-Serif" font-size="14.00">confirm! / client&#45;1</text>
</g>
<!-- message&#45;2&#45;6&#45;&gt;message&#45;2&#45;7 -->
<!-- client&#45;1@8 -->
<g id="node52" class="node">
<title>client&#45;1@8</title>
<polygon fill="none" stroke="#0063cd" stroke-width="7" points="231.5,-121 230.5,-121 230.5,-120 231.5,-120 231.5,-121"/>
</g>
<!-- message&#45;2&#45;7&#45;&gt;client&#45;1@8 -->
<g id="edge51" class="edge">
<title>message&#45;2&#45;7:c&#45;&gt;client&#45;1@8:c</title>
<path fill="none" stroke="mediumblue" stroke-width="3" d="M296.5,-136.99C287.74,-134.13 278.64,-131.34 270,-129 260.3,-126.38 249.05,-124.16 241.13,-122.72"/>
<polygon fill="mediumblue" stroke="mediumblue" stroke-width="3" points="241.51,-119.24 231.06,-121.01 240.33,-126.14 241.51,-119.24"/>
</g>
<!-- client@0 -->
<g id="node20" class="node">
<title>client@0</title>
<polygon fill="none" stroke="darkgreen" stroke-width="2" points="461.5,-347.5 460.5,-347.5 460.5,-346.5 461.5,-346.5 461.5,-347.5"/>
</g>
<!-- client@1 -->
<g id="node21" class="node">
<title>client@1</title>
<polygon fill="palegreen" stroke="palegreen" points="488,-337.2 434,-337.2 434,-301.2 488,-301.2 488,-337.2"/>
<text text-anchor="middle" x="461" y="-315.5" font-family="Sans-Serif" font-size="14.00">idle</text>
</g>
<!-- client@0&#45;&gt;client@1 -->
<g id="edge18" class="edge">
<title>client@0&#45;&gt;client@1</title>
<path fill="none" stroke="darkgreen" stroke-width="3" d="M461,-345.93C461,-345.37 461,-341.75 461,-337.4"/>
</g>
<!-- client@2 -->
<g id="node22" class="node">
<title>client@2</title>
<polygon fill="none" stroke="darkgreen" stroke-width="2" points="461.5,-291.9 460.5,-291.9 460.5,-290.9 461.5,-290.9 461.5,-291.9"/>
</g>
<!-- client@1&#45;&gt;client@2 -->
<g id="edge19" class="edge">
<title>client@1&#45;&gt;client@2</title>
<path fill="none" stroke="darkgreen" stroke-width="3" d="M461,-301.13C461,-296.64 461,-292.9 461,-292.45"/>
</g>
<!-- client@3 -->
<g id="node23" class="node">
<title>client@3</title>
<polygon fill="none" stroke="darkgreen" stroke-width="2" points="461.5,-264.1 460.5,-264.1 460.5,-263.1 461.5,-263.1 461.5,-264.1"/>
</g>
<!-- client@2&#45;&gt;client@3 -->
<g id="edge20" class="edge">
<title>client@2&#45;&gt;client@3</title>
<path fill="none" stroke="darkgreen" stroke-width="3" d="M461,-290.33C461,-288.86 461,-266.09 461,-264.67"/>
</g>
<!-- client@4 -->
<g id="node24" class="node">
<title>client@4</title>
<polygon fill="none" stroke="darkgreen" stroke-width="2" points="461.5,-237.6 460.5,-237.6 460.5,-236.6 461.5,-236.6 461.5,-237.6"/>
</g>
<!-- client@3&#45;&gt;client@4 -->
<g id="edge21" class="edge">
<title>client@3&#45;&gt;client@4</title>
<path fill="none" stroke="darkgreen" stroke-width="3" d="M461,-262.53C461,-261.11 461,-239.04 461,-237.67"/>
</g>
<!-- client@5 -->
<g id="node25" class="node">
<title>client@5</title>
<polygon fill="none" stroke="darkgreen" stroke-width="2" points="461.5,-211.1 460.5,-211.1 460.5,-210.1 461.5,-210.1 461.5,-211.1"/>
</g>
<!-- client@4&#45;&gt;client@5 -->
<g id="edge22" class="edge">
<title>client@4&#45;&gt;client@5</title>
<path fill="none" stroke="darkgreen" stroke-width="3" d="M461,-236.53C461,-235.11 461,-213.04 461,-211.67"/>
</g>
<!-- client@5&#45;&gt;client@6 -->
<g id="edge25" class="edge">
<title>client@5&#45;&gt;client@6</title>
<path fill="none" stroke="darkgreen" stroke-width="3" d="M461,-209.53C461,-208.06 461,-185.29 461,-183.87"/>
</g>
<!-- client@6&#45;&gt;message&#45;2&#45;7 -->
<g id="edge23" class="edge">
<title>client@6:c&#45;&gt;message&#45;2&#45;7:c</title>
<path fill="none" stroke="mediumblue" stroke-width="3" d="M460.92,-181.78C459.41,-181.45 438.17,-176.76 414.19,-171.48"/>
<polygon fill="mediumblue" stroke="mediumblue" stroke-width="3" points="414.68,-168 404.17,-169.27 413.18,-174.84 414.68,-168"/>
</g>
<!-- client@7 -->
<g id="node27" class="node">
<title>client@7</title>
<polygon fill="none" stroke="darkgreen" stroke-width="2" points="461.5,-155.5 460.5,-155.5 460.5,-154.5 461.5,-154.5 461.5,-155.5"/>
</g>
<!-- client@6&#45;&gt;client@7 -->
<g id="edge26" class="edge">
<title>client@6&#45;&gt;client@7</title>
<path fill="none" stroke="darkgreen" stroke-width="3" d="M461,-181.73C461,-180.26 461,-157.49 461,-156.07"/>
</g>
<!-- client@8 -->
<g id="node28" class="node">
<title>client@8</title>
<polygon fill="none" stroke="darkgreen" stroke-width="2" points="461.5,-121 460.5,-121 460.5,-120 461.5,-120 461.5,-121"/>
</g>
<!-- client@7&#45;&gt;client@8 -->
<g id="edge27" class="edge">
<title>client@7&#45;&gt;client@8</title>
<path fill="none" stroke="darkgreen" stroke-width="3" d="M461,-153.91C461,-152.03 461,-122.91 461,-121.09"/>
</g>
<!-- client@9 -->
<g id="node29" class="node">
<title>client@9</title>
<polygon fill="none" stroke="darkgreen" stroke-width="2" points="461.5,-94.5 460.5,-94.5 460.5,-93.5 461.5,-93.5 461.5,-94.5"/>
</g>
<!-- client@8&#45;&gt;client@9 -->
<g id="edge28" class="edge">
<title>client@8&#45;&gt;client@9</title>
<path fill="none" stroke="darkgreen" stroke-width="3" d="M461,-119.93C461,-118.51 461,-96.44 461,-95.07"/>
</g>
<!-- client@10 -->
<g id="node30" class="node">
<title>client@10</title>
<polygon fill="none" stroke="darkgreen" stroke-width="2" points="461.5,-68 460.5,-68 460.5,-67 461.5,-67 461.5,-68"/>
</g>
<!-- client@9&#45;&gt;client@10 -->
<g id="edge29" class="edge">
<title>client@9&#45;&gt;client@10</title>
<path fill="none" stroke="darkgreen" stroke-width="3" d="M461,-92.93C461,-91.51 461,-69.44 461,-68.07"/>
</g>
<!-- client&#45;0@0 -->
<g id="node31" class="node">
<title>client&#45;0@0</title>
<polygon fill="none" stroke="darkgreen" stroke-width="2" points="554.5,-347.5 553.5,-347.5 553.5,-346.5 554.5,-346.5 554.5,-347.5"/>
</g>
<!-- client&#45;0@1 -->
<g id="node32" class="node">
<title>client&#45;0@1</title>
<polygon fill="palegreen" stroke="palegreen" points="581,-337.2 527,-337.2 527,-301.2 581,-301.2 581,-337.2"/>
<text text-anchor="middle" x="554" y="-315.5" font-family="Sans-Serif" font-size="14.00">idle</text>
</g>
<!-- client&#45;0@0&#45;&gt;client&#45;0@1 -->
<g id="edge30" class="edge">
<title>client&#45;0@0&#45;&gt;client&#45;0@1</title>
<path fill="none" stroke="darkgreen" stroke-width="3" d="M554,-345.93C554,-345.37 554,-341.75 554,-337.4"/>
</g>
<!-- client&#45;0@2 -->
<g id="node33" class="node">
<title>client&#45;0@2</title>
<polygon fill="none" stroke="darkgreen" stroke-width="2" points="554.5,-291.9 553.5,-291.9 553.5,-290.9 554.5,-290.9 554.5,-291.9"/>
</g>
<!-- client&#45;0@1&#45;&gt;client&#45;0@2 -->
<g id="edge31" class="edge">
<title>client&#45;0@1&#45;&gt;client&#45;0@2</title>
<path fill="none" stroke="darkgreen" stroke-width="3" d="M554,-301.13C554,-296.64 554,-292.9 554,-292.45"/>
</g>
<!-- client&#45;0@3 -->
<g id="node34" class="node">
<title>client&#45;0@3</title>
<polygon fill="none" stroke="darkgreen" stroke-width="2" points="554.5,-264.1 553.5,-264.1 553.5,-263.1 554.5,-263.1 554.5,-264.1"/>
</g>
<!-- client&#45;0@2&#45;&gt;client&#45;0@3 -->
<g id="edge32" class="edge">
<title>client&#45;0@2&#45;&gt;client&#45;0@3</title>
<path fill="none" stroke="darkgreen" stroke-width="3" d="M554,-290.33C554,-288.86 554,-266.09 554,-264.67"/>
</g>
<!-- client&#45;0@4 -->
<g id="node35" class="node">
<title>client&#45;0@4</title>
<polygon fill="none" stroke="darkgreen" stroke-width="2" points="554.5,-237.6 553.5,-237.6 553.5,-236.6 554.5,-236.6 554.5,-237.6"/>
</g>
<!-- client&#45;0@3&#45;&gt;client&#45;0@4 -->
<g id="edge33" class="edge">
<title>client&#45;0@3&#45;&gt;client&#45;0@4</title>
<path fill="none" stroke="darkgreen" stroke-width="3" d="M554,-262.53C554,-261.11 554,-239.04 554,-237.67"/>
</g>
<!-- client&#45;0@5 -->
<g id="node36" class="node">
<title>client&#45;0@5</title>
<polygon fill="none" stroke="darkgreen" stroke-width="2" points="554.5,-211.1 553.5,-211.1 553.5,-210.1 554.5,-210.1 554.5,-211.1"/>
</g>
<!-- client&#45;0@4&#45;&gt;client&#45;0@5 -->
<g id="edge34" class="edge">
<title>client&#45;0@4&#45;&gt;client&#45;0@5</title>
<path fill="none" stroke="darkgreen" stroke-width="3" d="M554,-236.53C554,-235.11 554,-213.04 554,-211.67"/>
</g>
<!-- client&#45;0@6 -->
<g id="node37" class="node">
<title>client&#45;0@6</title>
<polygon fill="none" stroke="darkgreen" stroke-width="2" points="554.5,-183.3 553.5,-183.3 553.5,-182.3 554.5,-182.3 554.5,-183.3"/>
</g>
<!-- client&#45;0@5&#45;&gt;client&#45;0@6 -->
<g id="edge35" class="edge">
<title>client&#45;0@5&#45;&gt;client&#45;0@6</title>
<path fill="none" stroke="darkgreen" stroke-width="3" d="M554,-209.53C554,-208.06 554,-185.29 554,-183.87"/>
</g>
<!-- client&#45;0@7 -->
<g id="node38" class="node">
<title>client&#45;0@7</title>
<polygon fill="none" stroke="darkgreen" stroke-width="2" points="554.5,-155.5 553.5,-155.5 553.5,-154.5 554.5,-154.5 554.5,-155.5"/>
</g>
<!-- client&#45;0@6&#45;&gt;client&#45;0@7 -->
<g id="edge36" class="edge">
<title>client&#45;0@6&#45;&gt;client&#45;0@7</title>
<path fill="none" stroke="darkgreen" stroke-width="3" d="M554,-181.73C554,-180.26 554,-157.49 554,-156.07"/>
</g>
<!-- client&#45;0@8 -->
<g id="node39" class="node">
<title>client&#45;0@8</title>
<polygon fill="none" stroke="darkgreen" stroke-width="2" points="554.5,-121 553.5,-121 553.5,-120 554.5,-120 554.5,-121"/>
</g>
<!-- client&#45;0@7&#45;&gt;client&#45;0@8 -->
<g id="edge37" class="edge">
<title>client&#45;0@7&#45;&gt;client&#45;0@8</title>
<path fill="none" stroke="darkgreen" stroke-width="3" d="M554,-153.91C554,-152.03 554,-122.91 554,-121.09"/>
</g>
<!-- client&#45;0@9 -->
<g id="node40" class="node">
<title>client&#45;0@9</title>
<polygon fill="none" stroke="darkgreen" stroke-width="2" points="554.5,-94.5 553.5,-94.5 553.5,-93.5 554.5,-93.5 554.5,-94.5"/>
</g>
<!-- client&#45;0@8&#45;&gt;client&#45;0@9 -->
<g id="edge38" class="edge">
<title>client&#45;0@8&#45;&gt;client&#45;0@9</title>
<path fill="none" stroke="darkgreen" stroke-width="3" d="M554,-119.93C554,-118.51 554,-96.44 554,-95.07"/>
</g>
<!-- client&#45;0@10 -->
<g id="node41" class="node">
<title>client&#45;0@10</title>
<polygon fill="none" stroke="darkgreen" stroke-width="2" points="554.5,-68 553.5,-68 553.5,-67 554.5,-67 554.5,-68"/>
</g>
<!-- client&#45;0@9&#45;&gt;client&#45;0@10 -->
<g id="edge39" class="edge">
<title>client&#45;0@9&#45;&gt;client&#45;0@10</title>
<path fill="none" stroke="darkgreen" stroke-width="3" d="M554,-92.93C554,-91.51 554,-69.44 554,-68.07"/>
</g>
<!-- client&#45;1@0 -->
<g id="node42" class="node">
<title>client&#45;1@0</title>
<polygon fill="none" stroke="darkgreen" stroke-width="2" points="231.5,-347.5 230.5,-347.5 230.5,-346.5 231.5,-346.5 231.5,-347.5"/>
</g>
<!-- client&#45;1@1 -->
<g id="node43" class="node">
<title>client&#45;1@1</title>
<polygon fill="palegreen" stroke="palegreen" points="258,-337.2 204,-337.2 204,-301.2 258,-301.2 258,-337.2"/>
<text text-anchor="middle" x="231" y="-315.5" font-family="Sans-Serif" font-size="14.00">idle</text>
</g>
<!-- client&#45;1@0&#45;&gt;client&#45;1@1 -->
<g id="edge40" class="edge">
<title>client&#45;1@0&#45;&gt;client&#45;1@1</title>
<path fill="none" stroke="darkgreen" stroke-width="3" d="M231,-345.93C231,-345.37 231,-341.75 231,-337.4"/>
</g>
<!-- client&#45;1@2 -->
<g id="node44" class="node">
<title>client&#45;1@2</title>
<polygon fill="none" stroke="#0063cd" stroke-width="4" points="231.5,-291.9 230.5,-291.9 230.5,-290.9 231.5,-290.9 231.5,-291.9"/>
</g>
<!-- client&#45;1@1&#45;&gt;client&#45;1@2 -->
<g id="edge43" class="edge">
<title>client&#45;1@1&#45;&gt;client&#45;1@2</title>
<path fill="none" stroke="darkgreen" stroke-width="3" d="M231,-301.13C231,-296.64 231,-292.9 231,-292.45"/>
</g>
<!-- client&#45;1@2&#45;&gt;message&#45;0&#45;3 -->
<g id="edge41" class="edge">
<title>client&#45;1@2:c&#45;&gt;message&#45;0&#45;3:c</title>
<path fill="none" stroke="mediumblue" stroke-width="3" d="M231.08,-290.38C232.45,-290.07 250.49,-286.03 271.88,-281.23"/>
<polygon fill="mediumblue" stroke="mediumblue" stroke-width="3" points="272.91,-284.58 281.9,-278.98 271.38,-277.75 272.91,-284.58"/>
</g>
<!-- client&#45;1@3 -->
<g id="node46" class="node">
<title>client&#45;1@3</title>
<polygon fill="palegreen" stroke="palegreen" points="258,-281.6 204,-281.6 204,-245.6 258,-245.6 258,-281.6"/>
<text text-anchor="middle" x="231" y="-259.9" font-family="Sans-Serif" font-size="14.00">check</text>
</g>
<!-- client&#45;1@2&#45;&gt;client&#45;1@3 -->
<g id="edge44" class="edge">
<title>client&#45;1@2&#45;&gt;client&#45;1@3</title>
<path fill="none" stroke="purple" stroke-width="6" d="M231,-290.33C231,-289.77 231,-286.15 231,-281.8"/>
</g>
<!-- client&#45;1&#45;time&#45;1 -->
<g id="node45" class="node">
<title>client&#45;1&#45;time&#45;1</title>
<polygon fill="paleturquoise" stroke="paleturquoise" points="186,-337.2 132,-337.2 132,-301.2 186,-301.2 186,-337.2"/>
<text text-anchor="middle" x="159" y="-315.5" font-family="Sans-Serif" font-size="14.00">time</text>
</g>
<!-- client&#45;1&#45;time&#45;1&#45;&gt;client&#45;1@2 -->
<g id="edge42" class="edge">
<title>client&#45;1&#45;time&#45;1:c&#45;&gt;client&#45;1@2:c</title>
<path fill="none" stroke="mediumblue" stroke-width="3" d="M186.28,-304.62C189.19,-303.38 192.13,-302.22 195,-301.2 210.04,-295.87 229.73,-292.61 230.94,-292.41"/>
</g>
<!-- client&#45;1@4 -->
<g id="node47" class="node">
<title>client&#45;1@4</title>
<polygon fill="none" stroke="#0063cd" stroke-width="7" points="231.5,-237.6 230.5,-237.6 230.5,-236.6 231.5,-236.6 231.5,-237.6"/>
</g>
<!-- client&#45;1@3&#45;&gt;client&#45;1@4 -->
<g id="edge47" class="edge">
<title>client&#45;1@3&#45;&gt;client&#45;1@4</title>
<path fill="none" stroke="purple" stroke-width="6" d="M231,-245.51C231,-241.66 231,-238.49 231,-237.76"/>
</g>
<!-- client&#45;1@4&#45;&gt;message&#45;1&#45;5 -->
<g id="edge45" class="edge">
<title>client&#45;1@4:c&#45;&gt;message&#45;1&#45;5:c</title>
<path fill="none" stroke="mediumblue" stroke-width="3" d="M231.06,-236.59C232.35,-236.33 253.24,-232.19 270,-228.6 270.6,-228.47 271.2,-228.34 271.8,-228.21"/>
<polygon fill="mediumblue" stroke="mediumblue" stroke-width="3" points="272.72,-231.6 281.75,-226.06 271.23,-224.76 272.72,-231.6"/>
</g>
<!-- client&#45;1@5 -->
<g id="node49" class="node">
<title>client&#45;1@5</title>
<polygon fill="none" stroke="purple" stroke-width="5" points="231.5,-211.1 230.5,-211.1 230.5,-210.1 231.5,-210.1 231.5,-211.1"/>
</g>
<!-- client&#45;1@4&#45;&gt;client&#45;1@5 -->
<g id="edge48" class="edge">
<title>client&#45;1@4&#45;&gt;client&#45;1@5</title>
<path fill="none" stroke="purple" stroke-width="6" d="M231,-236.53C231,-235.11 231,-213.04 231,-211.67"/>
</g>
<!-- client&#45;1&#45;time&#45;3 -->
<g id="node48" class="node">
<title>client&#45;1&#45;time&#45;3</title>
<polygon fill="paleturquoise" stroke="paleturquoise" points="186,-281.6 132,-281.6 132,-245.6 186,-245.6 186,-281.6"/>
<text text-anchor="middle" x="159" y="-259.9" font-family="Sans-Serif" font-size="14.00">time</text>
</g>
<!-- client&#45;1&#45;time&#45;3&#45;&gt;client&#45;1@4 -->
<g id="edge46" class="edge">
<title>client&#45;1&#45;time&#45;3:c&#45;&gt;client&#45;1@4:c</title>
<path fill="none" stroke="mediumblue" stroke-width="3" d="M186.26,-248.96C189.17,-247.73 192.12,-246.59 195,-245.6 210.02,-240.46 229.72,-237.77 230.94,-237.61"/>
</g>
<!-- client&#45;1@6 -->
<g id="node50" class="node">
<title>client&#45;1@6</title>
<polygon fill="none" stroke="purple" stroke-width="5" points="231.5,-183.3 230.5,-183.3 230.5,-182.3 231.5,-182.3 231.5,-183.3"/>
</g>
<!-- client&#45;1@5&#45;&gt;client&#45;1@6 -->
<g id="edge49" class="edge">
<title>client&#45;1@5&#45;&gt;client&#45;1@6</title>
<path fill="none" stroke="purple" stroke-width="6" d="M231,-209.53C231,-208.06 231,-185.29 231,-183.87"/>
</g>
<!-- client&#45;1@7 -->
<g id="node51" class="node">
<title>client&#45;1@7</title>
<polygon fill="none" stroke="purple" stroke-width="5" points="231.5,-155.5 230.5,-155.5 230.5,-154.5 231.5,-154.5 231.5,-155.5"/>
</g>
<!-- client&#45;1@6&#45;&gt;client&#45;1@7 -->
<g id="edge50" class="edge">
<title>client&#45;1@6&#45;&gt;client&#45;1@7</title>
<path fill="none" stroke="purple" stroke-width="6" d="M231,-181.73C231,-180.26 231,-157.49 231,-156.07"/>
</g>
<!-- client&#45;1@7&#45;&gt;client&#45;1@8 -->
<g id="edge52" class="edge">
<title>client&#45;1@7&#45;&gt;client&#45;1@8</title>
<path fill="none" stroke="purple" stroke-width="6" d="M231,-153.91C231,-152.03 231,-122.91 231,-121.09"/>
</g>
<!-- client&#45;1@9 -->
<g id="node53" class="node">
<title>client&#45;1@9</title>
<polygon fill="palegreen" stroke="palegreen" points="258,-112 204,-112 204,-76 258,-76 258,-112"/>
<text text-anchor="middle" x="231" y="-90.3" font-family="Sans-Serif" font-size="14.00">idle</text>
</g>
<!-- client&#45;1@8&#45;&gt;client&#45;1@9 -->
<g id="edge53" class="edge">
<title>client&#45;1@8&#45;&gt;client&#45;1@9</title>
<path fill="none" stroke="darkgreen" stroke-width="3" d="M231,-119.93C231,-119.41 231,-116.18 231,-112.2"/>
</g>
<!-- client&#45;1@10 -->
<g id="node54" class="node">
<title>client&#45;1@10</title>
<polygon fill="none" stroke="darkgreen" stroke-width="2" points="231.5,-68 230.5,-68 230.5,-67 231.5,-67 231.5,-68"/>
</g>
<!-- client&#45;1@9&#45;&gt;client&#45;1@10 -->
<g id="edge54" class="edge">
<title>client&#45;1@9&#45;&gt;client&#45;1@10</title>
<path fill="none" stroke="darkgreen" stroke-width="3" d="M231,-75.91C231,-72.06 231,-68.89 231,-68.16"/>
</g>
</g>
</svg>
