<?xml version="1.0" encoding="UTF-8" standalone="no"?>
<!DOCTYPE svg PUBLIC "-//W3C//DTD SVG 1.1//EN"
 "http://www.w3.org/Graphics/SVG/1.1/DTD/svg11.dtd">
<!-- Generated by graphviz version 2.46.0 (0)
 -->
<!-- Title: G Pages: 1 -->
<svg width="687pt" height="343pt"
 viewBox="0.00 0.00 686.50 342.90" xmlns="http://www.w3.org/2000/svg" xmlns:xlink="http://www.w3.org/1999/xlink">
<g id="graph0" class="graph" transform="scale(1 1) rotate(0) translate(4 338.9)">
<title>G</title>
<polygon fill="white" stroke="transparent" points="-4,4 -4,-338.9 682.5,-338.9 682.5,4 -4,4"/>
<text text-anchor="middle" x="339.25" y="-13.4" font-family="Sans-Serif" font-size="32.00">Invalid</text>
<g id="clust1" class="cluster">
<title>cluster_between_client&#45;1_and_server</title>
<polygon fill="none" stroke="white" points="164.5,-167 164.5,-286.2 318.5,-286.2 318.5,-167 164.5,-167"/>
</g>
<g id="clust2" class="cluster">
<title>cluster_between_0</title>
<polygon fill="none" stroke="white" points="24.5,-89 24.5,-326.9 156.5,-326.9 156.5,-89 24.5,-89"/>
</g>
<g id="clust3" class="cluster">
<title>cluster_agent_server</title>
<polygon fill="none" stroke="white" points="32.5,-97 32.5,-318.9 148.5,-318.9 148.5,-97 32.5,-97"/>
<text text-anchor="middle" x="90.5" y="-295.7" font-family="Sans-Serif" font-size="24.00">server</text>
</g>
<g id="clust4" class="cluster">
<title>cluster_between_1</title>
<polygon fill="none" stroke="white" points="326.5,-89 326.5,-326.9 670.5,-326.9 670.5,-89 326.5,-89"/>
</g>
<g id="clust5" class="cluster">
<title>cluster_agent_client</title>
<polygon fill="none" stroke="white" points="589.5,-97 589.5,-318.9 662.5,-318.9 662.5,-97 589.5,-97"/>
<text text-anchor="middle" x="626" y="-295.7" font-family="Sans-Serif" font-size="24.00">client</text>
</g>
<g id="clust6" class="cluster">
<title>cluster_agent_client&#45;0</title>
<polygon fill="none" stroke="white" points="487.5,-97 487.5,-318.9 581.5,-318.9 581.5,-97 487.5,-97"/>
<text text-anchor="middle" x="534.5" y="-295.7" font-family="Sans-Serif" font-size="24.00">client&#45;0</text>
</g>
<g id="clust7" class="cluster">
<title>cluster_agent_client&#45;1</title>
<polygon fill="none" stroke="white" points="334.5,-97 334.5,-318.9 479.5,-318.9 479.5,-97 334.5,-97"/>
<text text-anchor="middle" x="407" y="-295.7" font-family="Sans-Serif" font-size="24.00">client&#45;1</text>
</g>
<!-- agent: server is invalid because: client&#45;1 is banned -->
<g id="node1" class="node">
<title>agent: server is invalid because: client&#45;1 is banned</title>
<polygon fill="lightcoral" stroke="lightcoral" points="181,-81 0,-81 0,-43 181,-43 181,-81"/>
<text text-anchor="middle" x="90.5" y="-65.8" font-family="Sans-Serif" font-size="14.00">agent: server is invalid</text>
<text text-anchor="middle" x="90.5" y="-50.8" font-family="Sans-Serif" font-size="14.00">because: client&#45;1 is banned</text>
</g>
<!-- message&#45;0&#45;0 -->
<!-- message&#45;0&#45;1 -->
<!-- message&#45;0&#45;0&#45;&gt;message&#45;0&#45;1 -->
<!-- message&#45;0&#45;2 -->
<!-- message&#45;0&#45;1&#45;&gt;message&#45;0&#45;2 -->
<!-- message&#45;0&#45;3 -->
<g id="node5" class="node">
<title>message&#45;0&#45;3</title>
<polygon fill="paleturquoise" stroke="paleturquoise" points="310.5,-211 172.5,-211 172.5,-175 310.5,-175 310.5,-211"/>
<text text-anchor="middle" x="241.5" y="-189.3" font-family="Sans-Serif" font-size="14.00">request@0 / client&#45;1</text>
</g>
<!-- message&#45;0&#45;2&#45;&gt;message&#45;0&#45;3 -->
<!-- server@4 -->
<g id="node10" class="node">
<title>server@4</title>
<polygon fill="none" stroke="#0063cd" stroke-width="4" points="91,-159 90,-159 90,-158 91,-158 91,-159"/>
</g>
<!-- message&#45;0&#45;3&#45;&gt;server@4 -->
<g id="edge7" class="edge">
<title>message&#45;0&#45;3:c&#45;&gt;server@4:c</title>
<path fill="none" stroke="mediumblue" stroke-width="3" d="M185.3,-174.88C174.49,-171.97 163.19,-169.18 152.5,-167 134.57,-163.35 113.37,-161.04 100.98,-159.88"/>
<polygon fill="mediumblue" stroke="mediumblue" stroke-width="3" points="100.86,-156.36 90.6,-159.01 100.27,-163.34 100.86,-156.36"/>
</g>
<!-- server@0 -->
<g id="node6" class="node">
<title>server@0</title>
<polygon fill="none" stroke="darkgreen" stroke-width="2" points="91,-276.9 90,-276.9 90,-275.9 91,-275.9 91,-276.9"/>
</g>
<!-- server@1 -->
<g id="node7" class="node">
<title>server@1</title>
<polygon fill="palegreen" stroke="palegreen" points="117.5,-266.6 63.5,-266.6 63.5,-230.6 117.5,-230.6 117.5,-266.6"/>
<text text-anchor="middle" x="90.5" y="-244.9" font-family="Sans-Serif" font-size="14.00">ready</text>
</g>
<!-- server@0&#45;&gt;server@1 -->
<g id="edge4" class="edge">
<title>server@0&#45;&gt;server@1</title>
<path fill="none" stroke="darkgreen" stroke-width="3" d="M90.5,-275.33C90.5,-274.77 90.5,-271.15 90.5,-266.8"/>
</g>
<!-- server@2 -->
<g id="node8" class="node">
<title>server@2</title>
<polygon fill="none" stroke="darkgreen" stroke-width="2" points="91,-221.3 90,-221.3 90,-220.3 91,-220.3 91,-221.3"/>
</g>
<!-- server@1&#45;&gt;server@2 -->
<g id="edge5" class="edge">
<title>server@1&#45;&gt;server@2</title>
<path fill="none" stroke="darkgreen" stroke-width="3" d="M90.5,-230.53C90.5,-226.04 90.5,-222.3 90.5,-221.85"/>
</g>
<!-- server@3 -->
<g id="node9" class="node">
<title>server@3</title>
<polygon fill="none" stroke="darkgreen" stroke-width="2" points="91,-193.5 90,-193.5 90,-192.5 91,-192.5 91,-193.5"/>
</g>
<!-- server@2&#45;&gt;server@3 -->
<g id="edge6" class="edge">
<title>server@2&#45;&gt;server@3</title>
<path fill="none" stroke="darkgreen" stroke-width="3" d="M90.5,-219.73C90.5,-218.26 90.5,-195.49 90.5,-194.07"/>
</g>
<!-- server@3&#45;&gt;server@4 -->
<g id="edge8" class="edge">
<title>server@3&#45;&gt;server@4</title>
<path fill="none" stroke="darkgreen" stroke-width="3" d="M90.5,-191.91C90.5,-190.03 90.5,-160.91 90.5,-159.09"/>
</g>
<!-- server@5 -->
<g id="node11" class="node">
<title>server@5</title>
<polygon fill="palegreen" stroke="palegreen" points="140.5,-150 40.5,-150 40.5,-114 140.5,-114 140.5,-150"/>
<text text-anchor="middle" x="90.5" y="-128.3" font-family="Sans-Serif" font-size="14.00">busy / client&#45;1</text>
</g>
<!-- server@4&#45;&gt;server@5 -->
<g id="edge9" class="edge">
<title>server@4&#45;&gt;server@5</title>
<path fill="none" stroke="purple" stroke-width="6" d="M90.5,-157.93C90.5,-157.41 90.5,-154.18 90.5,-150.2"/>
</g>
<!-- server@6 -->
<g id="node12" class="node">
<title>server@6</title>
<polygon fill="none" stroke="purple" stroke-width="5" points="91,-106 90,-106 90,-105 91,-105 91,-106"/>
</g>
<!-- server@5&#45;&gt;server@6 -->
<g id="edge10" class="edge">
<title>server@5&#45;&gt;server@6</title>
<path fill="none" stroke="purple" stroke-width="6" d="M90.5,-113.91C90.5,-110.06 90.5,-106.89 90.5,-106.16"/>
</g>
<!-- server@6&#45;&gt;agent: server is invalid because: client&#45;1 is banned -->
<g id="edge31" class="edge">
<title>server@6&#45;&gt;agent: server is invalid because: client&#45;1 is banned</title>
<path fill="none" stroke="crimson" stroke-width="3" d="M90.5,-104.38C90.5,-103.52 90.5,-98.15 90.5,-91.55"/>
<polygon fill="crimson" stroke="crimson" stroke-width="3" points="94,-91.37 90.5,-81.37 87,-91.37 94,-91.37"/>
</g>
<!-- client@0 -->
<g id="node13" class="node">
<title>client@0</title>
<polygon fill="none" stroke="darkgreen" stroke-width="2" points="625,-276.9 624,-276.9 624,-275.9 625,-275.9 625,-276.9"/>
</g>
<!-- client@1 -->
<g id="node14" class="node">
<title>client@1</title>
<polygon fill="palegreen" stroke="palegreen" points="651.5,-266.6 597.5,-266.6 597.5,-230.6 651.5,-230.6 651.5,-266.6"/>
<text text-anchor="middle" x="624.5" y="-244.9" font-family="Sans-Serif" font-size="14.00">idle</text>
</g>
<!-- client@0&#45;&gt;client@1 -->
<g id="edge11" class="edge">
<title>client@0&#45;&gt;client@1</title>
<path fill="none" stroke="darkgreen" stroke-width="3" d="M624.5,-275.33C624.5,-274.77 624.5,-271.15 624.5,-266.8"/>
</g>
<!-- client@2 -->
<g id="node15" class="node">
<title>client@2</title>
<polygon fill="none" stroke="darkgreen" stroke-width="2" points="625,-221.3 624,-221.3 624,-220.3 625,-220.3 625,-221.3"/>
</g>
<!-- client@1&#45;&gt;client@2 -->
<g id="edge12" class="edge">
<title>client@1&#45;&gt;client@2</title>
<path fill="none" stroke="darkgreen" stroke-width="3" d="M624.5,-230.53C624.5,-226.04 624.5,-222.3 624.5,-221.85"/>
</g>
<!-- client@3 -->
<g id="node16" class="node">
<title>client@3</title>
<polygon fill="none" stroke="darkgreen" stroke-width="2" points="625,-193.5 624,-193.5 624,-192.5 625,-192.5 625,-193.5"/>
</g>
<!-- client@2&#45;&gt;client@3 -->
<g id="edge13" class="edge">
<title>client@2&#45;&gt;client@3</title>
<path fill="none" stroke="darkgreen" stroke-width="3" d="M624.5,-219.73C624.5,-218.26 624.5,-195.49 624.5,-194.07"/>
</g>
<!-- client@4 -->
<g id="node17" class="node">
<title>client@4</title>
<polygon fill="none" stroke="darkgreen" stroke-width="2" points="625,-159 624,-159 624,-158 625,-158 625,-159"/>
</g>
<!-- client@3&#45;&gt;client@4 -->
<g id="edge14" class="edge">
<title>client@3&#45;&gt;client@4</title>
<path fill="none" stroke="darkgreen" stroke-width="3" d="M624.5,-191.91C624.5,-190.03 624.5,-160.91 624.5,-159.09"/>
</g>
<!-- client@5 -->
<g id="node18" class="node">
<title>client@5</title>
<polygon fill="none" stroke="darkgreen" stroke-width="2" points="625,-132.5 624,-132.5 624,-131.5 625,-131.5 625,-132.5"/>
</g>
<!-- client@4&#45;&gt;client@5 -->
<g id="edge15" class="edge">
<title>client@4&#45;&gt;client@5</title>
<path fill="none" stroke="darkgreen" stroke-width="3" d="M624.5,-157.93C624.5,-156.51 624.5,-134.44 624.5,-133.07"/>
</g>
<!-- client@6 -->
<g id="node19" class="node">
<title>client@6</title>
<polygon fill="none" stroke="darkgreen" stroke-width="2" points="625,-106 624,-106 624,-105 625,-105 625,-106"/>
</g>
<!-- client@5&#45;&gt;client@6 -->
<g id="edge16" class="edge">
<title>client@5&#45;&gt;client@6</title>
<path fill="none" stroke="darkgreen" stroke-width="3" d="M624.5,-130.93C624.5,-129.51 624.5,-107.44 624.5,-106.07"/>
</g>
<!-- client@6&#45;&gt;agent: server is invalid because: client&#45;1 is banned -->
<!-- client&#45;0@0 -->
<g id="node20" class="node">
<title>client&#45;0@0</title>
<polygon fill="none" stroke="darkgreen" stroke-width="2" points="523,-276.9 522,-276.9 522,-275.9 523,-275.9 523,-276.9"/>
</g>
<!-- client&#45;0@1 -->
<g id="node21" class="node">
<title>client&#45;0@1</title>
<polygon fill="palegreen" stroke="palegreen" points="549.5,-266.6 495.5,-266.6 495.5,-230.6 549.5,-230.6 549.5,-266.6"/>
<text text-anchor="middle" x="522.5" y="-244.9" font-family="Sans-Serif" font-size="14.00">idle</text>
</g>
<!-- client&#45;0@0&#45;&gt;client&#45;0@1 -->
<g id="edge17" class="edge">
<title>client&#45;0@0&#45;&gt;client&#45;0@1</title>
<path fill="none" stroke="darkgreen" stroke-width="3" d="M522.5,-275.33C522.5,-274.77 522.5,-271.15 522.5,-266.8"/>
</g>
<!-- client&#45;0@2 -->
<g id="node22" class="node">
<title>client&#45;0@2</title>
<polygon fill="none" stroke="darkgreen" stroke-width="2" points="523,-221.3 522,-221.3 522,-220.3 523,-220.3 523,-221.3"/>
</g>
<!-- client&#45;0@1&#45;&gt;client&#45;0@2 -->
<g id="edge18" class="edge">
<title>client&#45;0@1&#45;&gt;client&#45;0@2</title>
<path fill="none" stroke="darkgreen" stroke-width="3" d="M522.5,-230.53C522.5,-226.04 522.5,-222.3 522.5,-221.85"/>
</g>
<!-- client&#45;0@3 -->
<g id="node23" class="node">
<title>client&#45;0@3</title>
<polygon fill="none" stroke="darkgreen" stroke-width="2" points="523,-193.5 522,-193.5 522,-192.5 523,-192.5 523,-193.5"/>
</g>
<!-- client&#45;0@2&#45;&gt;client&#45;0@3 -->
<g id="edge19" class="edge">
<title>client&#45;0@2&#45;&gt;client&#45;0@3</title>
<path fill="none" stroke="darkgreen" stroke-width="3" d="M522.5,-219.73C522.5,-218.26 522.5,-195.49 522.5,-194.07"/>
</g>
<!-- client&#45;0@4 -->
<g id="node24" class="node">
<title>client&#45;0@4</title>
<polygon fill="none" stroke="darkgreen" stroke-width="2" points="523,-159 522,-159 522,-158 523,-158 523,-159"/>
</g>
<!-- client&#45;0@3&#45;&gt;client&#45;0@4 -->
<g id="edge20" class="edge">
<title>client&#45;0@3&#45;&gt;client&#45;0@4</title>
<path fill="none" stroke="darkgreen" stroke-width="3" d="M522.5,-191.91C522.5,-190.03 522.5,-160.91 522.5,-159.09"/>
</g>
<!-- client&#45;0@5 -->
<g id="node25" class="node">
<title>client&#45;0@5</title>
<polygon fill="none" stroke="darkgreen" stroke-width="2" points="523,-132.5 522,-132.5 522,-131.5 523,-131.5 523,-132.5"/>
</g>
<!-- client&#45;0@4&#45;&gt;client&#45;0@5 -->
<g id="edge21" class="edge">
<title>client&#45;0@4&#45;&gt;client&#45;0@5</title>
<path fill="none" stroke="darkgreen" stroke-width="3" d="M522.5,-157.93C522.5,-156.51 522.5,-134.44 522.5,-133.07"/>
</g>
<!-- client&#45;0@6 -->
<g id="node26" class="node">
<title>client&#45;0@6</title>
<polygon fill="none" stroke="darkgreen" stroke-width="2" points="523,-106 522,-106 522,-105 523,-105 523,-106"/>
</g>
<!-- client&#45;0@5&#45;&gt;client&#45;0@6 -->
<g id="edge22" class="edge">
<title>client&#45;0@5&#45;&gt;client&#45;0@6</title>
<path fill="none" stroke="darkgreen" stroke-width="3" d="M522.5,-130.93C522.5,-129.51 522.5,-107.44 522.5,-106.07"/>
</g>
<!-- client&#45;0@6&#45;&gt;agent: server is invalid because: client&#45;1 is banned -->
<!-- client&#45;1@0 -->
<g id="node27" class="node">
<title>client&#45;1@0</title>
<polygon fill="none" stroke="darkgreen" stroke-width="2" points="442,-276.9 441,-276.9 441,-275.9 442,-275.9 442,-276.9"/>
</g>
<!-- client&#45;1@1 -->
<g id="node28" class="node">
<title>client&#45;1@1</title>
<polygon fill="palegreen" stroke="palegreen" points="468.5,-266.6 414.5,-266.6 414.5,-230.6 468.5,-230.6 468.5,-266.6"/>
<text text-anchor="middle" x="441.5" y="-244.9" font-family="Sans-Serif" font-size="14.00">idle</text>
</g>
<!-- client&#45;1@0&#45;&gt;client&#45;1@1 -->
<g id="edge23" class="edge">
<title>client&#45;1@0&#45;&gt;client&#45;1@1</title>
<path fill="none" stroke="darkgreen" stroke-width="3" d="M441.5,-275.33C441.5,-274.77 441.5,-271.15 441.5,-266.8"/>
</g>
<!-- client&#45;1@2 -->
<g id="node29" class="node">
<title>client&#45;1@2</title>
<polygon fill="none" stroke="#0063cd" stroke-width="4" points="442,-221.3 441,-221.3 441,-220.3 442,-220.3 442,-221.3"/>
</g>
<!-- client&#45;1@1&#45;&gt;client&#45;1@2 -->
<g id="edge26" class="edge">
<title>client&#45;1@1&#45;&gt;client&#45;1@2</title>
<path fill="none" stroke="darkgreen" stroke-width="3" d="M441.5,-230.53C441.5,-226.04 441.5,-222.3 441.5,-221.85"/>
</g>
<!-- client&#45;1@2&#45;&gt;message&#45;0&#45;3 -->
<g id="edge24" class="edge">
<title>client&#45;1@2:c&#45;&gt;message&#45;0&#45;3:c</title>
<path fill="none" stroke="mediumblue" stroke-width="3" d="M441.45,-219.8C439.57,-219.73 378.78,-217.5 330.5,-211 327.3,-210.57 324.05,-210.1 320.77,-209.6"/>
<polygon fill="mediumblue" stroke="mediumblue" stroke-width="3" points="321.29,-206.14 310.86,-208.01 320.18,-213.05 321.29,-206.14"/>
</g>
<!-- client&#45;1@3 -->
<g id="node31" class="node">
<title>client&#45;1@3</title>
<polygon fill="palegreen" stroke="palegreen" points="471,-211 412,-211 412,-175 471,-175 471,-211"/>
<text text-anchor="middle" x="441.5" y="-189.3" font-family="Sans-Serif" font-size="14.00">wait / 1</text>
</g>
<!-- client&#45;1@2&#45;&gt;client&#45;1@3 -->
<g id="edge27" class="edge">
<title>client&#45;1@2&#45;&gt;client&#45;1@3</title>
<path fill="none" stroke="yellowgreen" stroke-width="3" d="M441.5,-219.73C441.5,-219.17 441.5,-215.55 441.5,-211.2"/>
</g>
<!-- client&#45;1&#45;time&#45;1 -->
<g id="node30" class="node">
<title>client&#45;1&#45;time&#45;1</title>
<polygon fill="paleturquoise" stroke="paleturquoise" points="396.5,-266.6 342.5,-266.6 342.5,-230.6 396.5,-230.6 396.5,-266.6"/>
<text text-anchor="middle" x="369.5" y="-244.9" font-family="Sans-Serif" font-size="14.00">time</text>
</g>
<!-- client&#45;1&#45;time&#45;1&#45;&gt;client&#45;1@2 -->
<g id="edge25" class="edge">
<title>client&#45;1&#45;time&#45;1:c&#45;&gt;client&#45;1@2:c</title>
<path fill="none" stroke="mediumblue" stroke-width="3" d="M396.78,-234.02C399.69,-232.78 402.63,-231.62 405.5,-230.6 414.08,-227.56 424.17,-225.19 431.48,-223.68"/>
<polygon fill="mediumblue" stroke="mediumblue" stroke-width="3" points="432.26,-227.1 441.44,-221.81 430.97,-220.22 432.26,-227.1"/>
</g>
<!-- client&#45;1@4 -->
<g id="node32" class="node">
<title>client&#45;1@4</title>
<polygon fill="none" stroke="yellowgreen" stroke-width="2" points="442,-159 441,-159 441,-158 442,-158 442,-159"/>
</g>
<!-- client&#45;1@3&#45;&gt;client&#45;1@4 -->
<g id="edge28" class="edge">
<title>client&#45;1@3&#45;&gt;client&#45;1@4</title>
<path fill="none" stroke="yellowgreen" stroke-width="3" d="M441.5,-174.73C441.5,-167.24 441.5,-159.97 441.5,-159.09"/>
</g>
<!-- client&#45;1@5 -->
<g id="node33" class="node">
<title>client&#45;1@5</title>
<polygon fill="none" stroke="yellowgreen" stroke-width="2" points="442,-132.5 441,-132.5 441,-131.5 442,-131.5 442,-132.5"/>
</g>
<!-- client&#45;1@4&#45;&gt;client&#45;1@5 -->
<g id="edge29" class="edge">
<title>client&#45;1@4&#45;&gt;client&#45;1@5</title>
<path fill="none" stroke="yellowgreen" stroke-width="3" d="M441.5,-157.93C441.5,-156.51 441.5,-134.44 441.5,-133.07"/>
</g>
<!-- client&#45;1@6 -->
<g id="node34" class="node">
<title>client&#45;1@6</title>
<polygon fill="none" stroke="yellowgreen" stroke-width="2" points="442,-106 441,-106 441,-105 442,-105 442,-106"/>
</g>
<!-- client&#45;1@5&#45;&gt;client&#45;1@6 -->
<g id="edge30" class="edge">
<title>client&#45;1@5&#45;&gt;client&#45;1@6</title>
<path fill="none" stroke="yellowgreen" stroke-width="3" d="M441.5,-130.93C441.5,-129.51 441.5,-107.44 441.5,-106.07"/>
</g>
<!-- client&#45;1@6&#45;&gt;agent: server is invalid because: client&#45;1 is banned -->
</g>
</svg>
