<?xml version="1.0" encoding="UTF-8" standalone="no"?>
<!DOCTYPE svg PUBLIC "-//W3C//DTD SVG 1.1//EN"
 "http://www.w3.org/Graphics/SVG/1.1/DTD/svg11.dtd">
<!-- Generated by graphviz version 2.44.1 (0)
 -->
<!-- Title: G Pages: 1 -->
<svg width="686pt" height="343pt"
 viewBox="0.00 0.00 686.00 342.90" xmlns="http://www.w3.org/2000/svg" xmlns:xlink="http://www.w3.org/1999/xlink">
<g id="graph0" class="graph" transform="scale(1 1) rotate(0) translate(4 338.9)">
<title>G</title>
<polygon fill="white" stroke="transparent" points="-4,4 -4,-338.9 682,-338.9 682,4 -4,4"/>
<text text-anchor="middle" x="339" y="-13.4" font-family="Sans-Serif" font-size="32.00">Invalid</text>
<g id="clust1" class="cluster">
<title>cluster_between_client&#45;1_and_server</title>
<polygon fill="none" stroke="white" points="347,-167 347,-286.2 501,-286.2 501,-167 347,-167"/>
</g>
<g id="clust2" class="cluster">
<title>cluster_between_0</title>
<polygon fill="none" stroke="white" points="8,-89 8,-326.9 199,-326.9 199,-89 8,-89"/>
</g>
<g id="clust3" class="cluster">
<title>cluster_agent_client</title>
<polygon fill="none" stroke="white" points="118,-97 118,-318.9 191,-318.9 191,-97 118,-97"/>
<text text-anchor="middle" x="154.5" y="-295.7" font-family="Sans-Serif" font-size="24.00">client</text>
</g>
<g id="clust4" class="cluster">
<title>cluster_agent_client&#45;0</title>
<polygon fill="none" stroke="white" points="16,-97 16,-318.9 110,-318.9 110,-97 16,-97"/>
<text text-anchor="middle" x="63" y="-295.7" font-family="Sans-Serif" font-size="24.00">client&#45;0</text>
</g>
<g id="clust5" class="cluster">
<title>cluster_between_1</title>
<polygon fill="none" stroke="white" points="509,-89 509,-326.9 670,-326.9 670,-89 509,-89"/>
</g>
<g id="clust6" class="cluster">
<title>cluster_agent_client&#45;1</title>
<polygon fill="none" stroke="white" points="517,-97 517,-318.9 662,-318.9 662,-97 517,-97"/>
<text text-anchor="middle" x="589.5" y="-295.7" font-family="Sans-Serif" font-size="24.00">client&#45;1</text>
</g>
<g id="clust7" class="cluster">
<title>cluster_between_2</title>
<polygon fill="none" stroke="white" points="207,-89 207,-326.9 339,-326.9 339,-89 207,-89"/>
</g>
<g id="clust8" class="cluster">
<title>cluster_agent_server</title>
<polygon fill="none" stroke="white" points="215,-97 215,-318.9 331,-318.9 331,-97 215,-97"/>
<text text-anchor="middle" x="273" y="-295.7" font-family="Sans-Serif" font-size="24.00">server</text>
</g>
<!-- agent: server is invalid because: client&#45;1 is banned -->
<g id="node1" class="node">
<title>agent: server is invalid because: client&#45;1 is banned</title>
<polygon fill="lightcoral" stroke="lightcoral" points="363.5,-81 182.5,-81 182.5,-43 363.5,-43 363.5,-81"/>
<text text-anchor="middle" x="273" y="-65.8" font-family="Sans-Serif" font-size="14.00">agent: server is invalid</text>
<text text-anchor="middle" x="273" y="-50.8" font-family="Sans-Serif" font-size="14.00">because: client&#45;1 is banned</text>
</g>
<!-- message&#45;0&#45;0 -->
<!-- message&#45;0&#45;1 -->
<!-- message&#45;0&#45;0&#45;&gt;message&#45;0&#45;1 -->
<!-- message&#45;0&#45;2 -->
<!-- message&#45;0&#45;1&#45;&gt;message&#45;0&#45;2 -->
<!-- message&#45;0&#45;3 -->
<g id="node5" class="node">
<title>message&#45;0&#45;3</title>
<polygon fill="paleturquoise" stroke="paleturquoise" points="493,-211 355,-211 355,-175 493,-175 493,-211"/>
<text text-anchor="middle" x="424" y="-189.3" font-family="Sans-Serif" font-size="14.00">request@0 / client&#45;1</text>
</g>
<!-- message&#45;0&#45;2&#45;&gt;message&#45;0&#45;3 -->
<!-- server@4 -->
<g id="node32" class="node">
<title>server@4</title>
<polygon fill="none" stroke="#0063cd" stroke-width="4" points="273.5,-159 272.5,-159 272.5,-158 273.5,-158 273.5,-159"/>
</g>
<!-- message&#45;0&#45;3&#45;&gt;server@4 -->
<g id="edge27" class="edge">
<title>message&#45;0&#45;3:c&#45;&gt;server@4:c</title>
<path fill="none" stroke="mediumblue" stroke-width="3" d="M367.8,-174.88C356.99,-171.97 345.69,-169.18 335,-167 317.07,-163.35 295.87,-161.04 283.48,-159.88"/>
<polygon fill="mediumblue" stroke="mediumblue" stroke-width="3" points="283.36,-156.36 273.1,-159.01 282.77,-163.34 283.36,-156.36"/>
</g>
<!-- client@0 -->
<g id="node6" class="node">
<title>client@0</title>
<polygon fill="none" stroke="darkgreen" stroke-width="2" points="156.5,-276.9 155.5,-276.9 155.5,-275.9 156.5,-275.9 156.5,-276.9"/>
</g>
<!-- client@1 -->
<g id="node7" class="node">
<title>client@1</title>
<polygon fill="palegreen" stroke="palegreen" points="183,-266.6 129,-266.6 129,-230.6 183,-230.6 183,-266.6"/>
<text text-anchor="middle" x="156" y="-244.9" font-family="Sans-Serif" font-size="14.00">idle</text>
</g>
<!-- client@0&#45;&gt;client@1 -->
<g id="edge4" class="edge">
<title>client@0&#45;&gt;client@1</title>
<path fill="none" stroke="darkgreen" stroke-width="3" d="M156,-275.33C156,-274.77 156,-271.15 156,-266.8"/>
</g>
<!-- client@2 -->
<g id="node8" class="node">
<title>client@2</title>
<polygon fill="none" stroke="darkgreen" stroke-width="2" points="156.5,-221.3 155.5,-221.3 155.5,-220.3 156.5,-220.3 156.5,-221.3"/>
</g>
<!-- client@1&#45;&gt;client@2 -->
<g id="edge5" class="edge">
<title>client@1&#45;&gt;client@2</title>
<path fill="none" stroke="darkgreen" stroke-width="3" d="M156,-230.53C156,-226.04 156,-222.3 156,-221.85"/>
</g>
<!-- client@3 -->
<g id="node9" class="node">
<title>client@3</title>
<polygon fill="none" stroke="darkgreen" stroke-width="2" points="156.5,-193.5 155.5,-193.5 155.5,-192.5 156.5,-192.5 156.5,-193.5"/>
</g>
<!-- client@2&#45;&gt;client@3 -->
<g id="edge6" class="edge">
<title>client@2&#45;&gt;client@3</title>
<path fill="none" stroke="darkgreen" stroke-width="3" d="M156,-219.73C156,-218.26 156,-195.49 156,-194.07"/>
</g>
<!-- client@4 -->
<g id="node10" class="node">
<title>client@4</title>
<polygon fill="none" stroke="darkgreen" stroke-width="2" points="156.5,-159 155.5,-159 155.5,-158 156.5,-158 156.5,-159"/>
</g>
<!-- client@3&#45;&gt;client@4 -->
<g id="edge7" class="edge">
<title>client@3&#45;&gt;client@4</title>
<path fill="none" stroke="darkgreen" stroke-width="3" d="M156,-191.91C156,-190.03 156,-160.91 156,-159.09"/>
</g>
<!-- client@5 -->
<g id="node11" class="node">
<title>client@5</title>
<polygon fill="none" stroke="darkgreen" stroke-width="2" points="156.5,-132.5 155.5,-132.5 155.5,-131.5 156.5,-131.5 156.5,-132.5"/>
</g>
<!-- client@4&#45;&gt;client@5 -->
<g id="edge8" class="edge">
<title>client@4&#45;&gt;client@5</title>
<path fill="none" stroke="darkgreen" stroke-width="3" d="M156,-157.93C156,-156.51 156,-134.44 156,-133.07"/>
</g>
<!-- client@6 -->
<g id="node12" class="node">
<title>client@6</title>
<polygon fill="none" stroke="darkgreen" stroke-width="2" points="156.5,-106 155.5,-106 155.5,-105 156.5,-105 156.5,-106"/>
</g>
<!-- client@5&#45;&gt;client@6 -->
<g id="edge9" class="edge">
<title>client@5&#45;&gt;client@6</title>
<path fill="none" stroke="darkgreen" stroke-width="3" d="M156,-130.93C156,-129.51 156,-107.44 156,-106.07"/>
</g>
<!-- client@6&#45;&gt;agent: server is invalid because: client&#45;1 is banned -->
<!-- client&#45;0@0 -->
<g id="node13" class="node">
<title>client&#45;0@0</title>
<polygon fill="none" stroke="darkgreen" stroke-width="2" points="75.5,-276.9 74.5,-276.9 74.5,-275.9 75.5,-275.9 75.5,-276.9"/>
</g>
<!-- client&#45;0@1 -->
<g id="node14" class="node">
<title>client&#45;0@1</title>
<polygon fill="palegreen" stroke="palegreen" points="102,-266.6 48,-266.6 48,-230.6 102,-230.6 102,-266.6"/>
<text text-anchor="middle" x="75" y="-244.9" font-family="Sans-Serif" font-size="14.00">idle</text>
</g>
<!-- client&#45;0@0&#45;&gt;client&#45;0@1 -->
<g id="edge10" class="edge">
<title>client&#45;0@0&#45;&gt;client&#45;0@1</title>
<path fill="none" stroke="darkgreen" stroke-width="3" d="M75,-275.33C75,-274.77 75,-271.15 75,-266.8"/>
</g>
<!-- client&#45;0@2 -->
<g id="node15" class="node">
<title>client&#45;0@2</title>
<polygon fill="none" stroke="darkgreen" stroke-width="2" points="75.5,-221.3 74.5,-221.3 74.5,-220.3 75.5,-220.3 75.5,-221.3"/>
</g>
<!-- client&#45;0@1&#45;&gt;client&#45;0@2 -->
<g id="edge11" class="edge">
<title>client&#45;0@1&#45;&gt;client&#45;0@2</title>
<path fill="none" stroke="darkgreen" stroke-width="3" d="M75,-230.53C75,-226.04 75,-222.3 75,-221.85"/>
</g>
<!-- client&#45;0@3 -->
<g id="node16" class="node">
<title>client&#45;0@3</title>
<polygon fill="none" stroke="darkgreen" stroke-width="2" points="75.5,-193.5 74.5,-193.5 74.5,-192.5 75.5,-192.5 75.5,-193.5"/>
</g>
<!-- client&#45;0@2&#45;&gt;client&#45;0@3 -->
<g id="edge12" class="edge">
<title>client&#45;0@2&#45;&gt;client&#45;0@3</title>
<path fill="none" stroke="darkgreen" stroke-width="3" d="M75,-219.73C75,-218.26 75,-195.49 75,-194.07"/>
</g>
<!-- client&#45;0@4 -->
<g id="node17" class="node">
<title>client&#45;0@4</title>
<polygon fill="none" stroke="darkgreen" stroke-width="2" points="75.5,-159 74.5,-159 74.5,-158 75.5,-158 75.5,-159"/>
</g>
<!-- client&#45;0@3&#45;&gt;client&#45;0@4 -->
<g id="edge13" class="edge">
<title>client&#45;0@3&#45;&gt;client&#45;0@4</title>
<path fill="none" stroke="darkgreen" stroke-width="3" d="M75,-191.91C75,-190.03 75,-160.91 75,-159.09"/>
</g>
<!-- client&#45;0@5 -->
<g id="node18" class="node">
<title>client&#45;0@5</title>
<polygon fill="none" stroke="darkgreen" stroke-width="2" points="75.5,-132.5 74.5,-132.5 74.5,-131.5 75.5,-131.5 75.5,-132.5"/>
</g>
<!-- client&#45;0@4&#45;&gt;client&#45;0@5 -->
<g id="edge14" class="edge">
<title>client&#45;0@4&#45;&gt;client&#45;0@5</title>
<path fill="none" stroke="darkgreen" stroke-width="3" d="M75,-157.93C75,-156.51 75,-134.44 75,-133.07"/>
</g>
<!-- client&#45;0@6 -->
<g id="node19" class="node">
<title>client&#45;0@6</title>
<polygon fill="none" stroke="darkgreen" stroke-width="2" points="75.5,-106 74.5,-106 74.5,-105 75.5,-105 75.5,-106"/>
</g>
<!-- client&#45;0@5&#45;&gt;client&#45;0@6 -->
<g id="edge15" class="edge">
<title>client&#45;0@5&#45;&gt;client&#45;0@6</title>
<path fill="none" stroke="darkgreen" stroke-width="3" d="M75,-130.93C75,-129.51 75,-107.44 75,-106.07"/>
</g>
<!-- client&#45;0@6&#45;&gt;agent: server is invalid because: client&#45;1 is banned -->
<!-- client&#45;1@0 -->
<g id="node20" class="node">
<title>client&#45;1@0</title>
<polygon fill="none" stroke="darkgreen" stroke-width="2" points="624.5,-276.9 623.5,-276.9 623.5,-275.9 624.5,-275.9 624.5,-276.9"/>
</g>
<!-- client&#45;1@1 -->
<g id="node21" class="node">
<title>client&#45;1@1</title>
<polygon fill="palegreen" stroke="palegreen" points="651,-266.6 597,-266.6 597,-230.6 651,-230.6 651,-266.6"/>
<text text-anchor="middle" x="624" y="-244.9" font-family="Sans-Serif" font-size="14.00">idle</text>
</g>
<!-- client&#45;1@0&#45;&gt;client&#45;1@1 -->
<g id="edge16" class="edge">
<title>client&#45;1@0&#45;&gt;client&#45;1@1</title>
<path fill="none" stroke="darkgreen" stroke-width="3" d="M624,-275.33C624,-274.77 624,-271.15 624,-266.8"/>
</g>
<!-- client&#45;1@2 -->
<g id="node22" class="node">
<title>client&#45;1@2</title>
<polygon fill="none" stroke="#0063cd" stroke-width="4" points="624.5,-221.3 623.5,-221.3 623.5,-220.3 624.5,-220.3 624.5,-221.3"/>
</g>
<!-- client&#45;1@1&#45;&gt;client&#45;1@2 -->
<g id="edge19" class="edge">
<title>client&#45;1@1&#45;&gt;client&#45;1@2</title>
<path fill="none" stroke="darkgreen" stroke-width="3" d="M624,-230.53C624,-226.04 624,-222.3 624,-221.85"/>
</g>
<!-- client&#45;1@2&#45;&gt;message&#45;0&#45;3 -->
<g id="edge17" class="edge">
<title>client&#45;1@2:c&#45;&gt;message&#45;0&#45;3:c</title>
<path fill="none" stroke="mediumblue" stroke-width="3" d="M623.95,-219.8C622.07,-219.73 561.28,-217.5 513,-211 509.8,-210.57 506.55,-210.1 503.27,-209.6"/>
<polygon fill="mediumblue" stroke="mediumblue" stroke-width="3" points="503.79,-206.14 493.36,-208.01 502.68,-213.05 503.79,-206.14"/>
</g>
<!-- client&#45;1@3 -->
<g id="node24" class="node">
<title>client&#45;1@3</title>
<polygon fill="palegreen" stroke="palegreen" points="653.5,-211 594.5,-211 594.5,-175 653.5,-175 653.5,-211"/>
<text text-anchor="middle" x="624" y="-189.3" font-family="Sans-Serif" font-size="14.00">wait / 1</text>
</g>
<!-- client&#45;1@2&#45;&gt;client&#45;1@3 -->
<g id="edge20" class="edge">
<title>client&#45;1@2&#45;&gt;client&#45;1@3</title>
<path fill="none" stroke="yellowgreen" stroke-width="3" d="M624,-219.73C624,-219.17 624,-215.55 624,-211.2"/>
</g>
<!-- client&#45;1&#45;time&#45;1 -->
<g id="node23" class="node">
<title>client&#45;1&#45;time&#45;1</title>
<polygon fill="paleturquoise" stroke="paleturquoise" points="579,-266.6 525,-266.6 525,-230.6 579,-230.6 579,-266.6"/>
<text text-anchor="middle" x="552" y="-244.9" font-family="Sans-Serif" font-size="14.00">time</text>
</g>
<!-- client&#45;1&#45;time&#45;1&#45;&gt;client&#45;1@2 -->
<g id="edge18" class="edge">
<title>client&#45;1&#45;time&#45;1:c&#45;&gt;client&#45;1@2:c</title>
<path fill="none" stroke="mediumblue" stroke-width="3" d="M579.28,-234.02C582.19,-232.78 585.13,-231.62 588,-230.6 596.58,-227.56 606.67,-225.19 613.98,-223.68"/>
<polygon fill="mediumblue" stroke="mediumblue" stroke-width="3" points="614.76,-227.1 623.94,-221.81 613.47,-220.22 614.76,-227.1"/>
</g>
<!-- client&#45;1@4 -->
<g id="node25" class="node">
<title>client&#45;1@4</title>
<polygon fill="none" stroke="yellowgreen" stroke-width="2" points="624.5,-159 623.5,-159 623.5,-158 624.5,-158 624.5,-159"/>
</g>
<!-- client&#45;1@3&#45;&gt;client&#45;1@4 -->
<g id="edge21" class="edge">
<title>client&#45;1@3&#45;&gt;client&#45;1@4</title>
<path fill="none" stroke="yellowgreen" stroke-width="3" d="M624,-174.73C624,-167.24 624,-159.97 624,-159.09"/>
</g>
<!-- client&#45;1@5 -->
<g id="node26" class="node">
<title>client&#45;1@5</title>
<polygon fill="none" stroke="yellowgreen" stroke-width="2" points="624.5,-132.5 623.5,-132.5 623.5,-131.5 624.5,-131.5 624.5,-132.5"/>
</g>
<!-- client&#45;1@4&#45;&gt;client&#45;1@5 -->
<g id="edge22" class="edge">
<title>client&#45;1@4&#45;&gt;client&#45;1@5</title>
<path fill="none" stroke="yellowgreen" stroke-width="3" d="M624,-157.93C624,-156.51 624,-134.44 624,-133.07"/>
</g>
<!-- client&#45;1@6 -->
<g id="node27" class="node">
<title>client&#45;1@6</title>
<polygon fill="none" stroke="yellowgreen" stroke-width="2" points="624.5,-106 623.5,-106 623.5,-105 624.5,-105 624.5,-106"/>
</g>
<!-- client&#45;1@5&#45;&gt;client&#45;1@6 -->
<g id="edge23" class="edge">
<title>client&#45;1@5&#45;&gt;client&#45;1@6</title>
<path fill="none" stroke="yellowgreen" stroke-width="3" d="M624,-130.93C624,-129.51 624,-107.44 624,-106.07"/>
</g>
<!-- client&#45;1@6&#45;&gt;agent: server is invalid because: client&#45;1 is banned -->
<!-- server@0 -->
<g id="node28" class="node">
<title>server@0</title>
<polygon fill="none" stroke="darkgreen" stroke-width="2" points="273.5,-276.9 272.5,-276.9 272.5,-275.9 273.5,-275.9 273.5,-276.9"/>
</g>
<!-- server@1 -->
<g id="node29" class="node">
<title>server@1</title>
<polygon fill="palegreen" stroke="palegreen" points="300,-266.6 246,-266.6 246,-230.6 300,-230.6 300,-266.6"/>
<text text-anchor="middle" x="273" y="-244.9" font-family="Sans-Serif" font-size="14.00">ready</text>
</g>
<!-- server@0&#45;&gt;server@1 -->
<g id="edge24" class="edge">
<title>server@0&#45;&gt;server@1</title>
<path fill="none" stroke="darkgreen" stroke-width="3" d="M273,-275.33C273,-274.77 273,-271.15 273,-266.8"/>
</g>
<!-- server@2 -->
<g id="node30" class="node">
<title>server@2</title>
<polygon fill="none" stroke="darkgreen" stroke-width="2" points="273.5,-221.3 272.5,-221.3 272.5,-220.3 273.5,-220.3 273.5,-221.3"/>
</g>
<!-- server@1&#45;&gt;server@2 -->
<g id="edge25" class="edge">
<title>server@1&#45;&gt;server@2</title>
<path fill="none" stroke="darkgreen" stroke-width="3" d="M273,-230.53C273,-226.04 273,-222.3 273,-221.85"/>
</g>
<!-- server@3 -->
<g id="node31" class="node">
<title>server@3</title>
<polygon fill="none" stroke="darkgreen" stroke-width="2" points="273.5,-193.5 272.5,-193.5 272.5,-192.5 273.5,-192.5 273.5,-193.5"/>
</g>
<!-- server@2&#45;&gt;server@3 -->
<g id="edge26" class="edge">
<title>server@2&#45;&gt;server@3</title>
<path fill="none" stroke="darkgreen" stroke-width="3" d="M273,-219.73C273,-218.26 273,-195.49 273,-194.07"/>
</g>
<!-- server@3&#45;&gt;server@4 -->
<g id="edge28" class="edge">
<title>server@3&#45;&gt;server@4</title>
<path fill="none" stroke="darkgreen" stroke-width="3" d="M273,-191.91C273,-190.03 273,-160.91 273,-159.09"/>
</g>
<!-- server@5 -->
<g id="node33" class="node">
<title>server@5</title>
<polygon fill="palegreen" stroke="palegreen" points="323,-150 223,-150 223,-114 323,-114 323,-150"/>
<text text-anchor="middle" x="273" y="-128.3" font-family="Sans-Serif" font-size="14.00">busy / client&#45;1</text>
</g>
<!-- server@4&#45;&gt;server@5 -->
<g id="edge29" class="edge">
<title>server@4&#45;&gt;server@5</title>
<path fill="none" stroke="purple" stroke-width="6" d="M273,-157.93C273,-157.41 273,-154.18 273,-150.2"/>
</g>
<!-- server@6 -->
<g id="node34" class="node">
<title>server@6</title>
<polygon fill="none" stroke="purple" stroke-width="5" points="273.5,-106 272.5,-106 272.5,-105 273.5,-105 273.5,-106"/>
</g>
<!-- server@5&#45;&gt;server@6 -->
<g id="edge30" class="edge">
<title>server@5&#45;&gt;server@6</title>
<path fill="none" stroke="purple" stroke-width="6" d="M273,-113.91C273,-110.06 273,-106.89 273,-106.16"/>
</g>
<!-- server@6&#45;&gt;agent: server is invalid because: client&#45;1 is banned -->
<g id="edge34" class="edge">
<title>server@6&#45;&gt;agent: server is invalid because: client&#45;1 is banned</title>
<path fill="none" stroke="crimson" stroke-width="3" d="M273,-104.38C273,-103.52 273,-98.15 273,-91.55"/>
<polygon fill="crimson" stroke="crimson" stroke-width="3" points="276.5,-91.37 273,-81.37 269.5,-91.37 276.5,-91.37"/>
</g>
</g>
</svg>
