<?xml version="1.0" encoding="UTF-8" standalone="no"?>
<!DOCTYPE svg PUBLIC "-//W3C//DTD SVG 1.1//EN"
 "http://www.w3.org/Graphics/SVG/1.1/DTD/svg11.dtd">
<!-- Generated by graphviz version 2.44.1 (0)
 -->
<!-- Title: G Pages: 1 -->
<svg width="797pt" height="599pt"
 viewBox="0.00 0.00 797.00 598.90" xmlns="http://www.w3.org/2000/svg" xmlns:xlink="http://www.w3.org/1999/xlink">
<g id="graph0" class="graph" transform="scale(1 1) rotate(0) translate(4 594.9)">
<title>G</title>
<polygon fill="white" stroke="transparent" points="-4,4 -4,-594.9 793,-594.9 793,4 -4,4"/>
<text text-anchor="middle" x="394.5" y="-13.4" font-family="Sans-Serif" font-size="32.00">Client&#45;Server</text>
<g id="clust1" class="cluster">
<title>cluster_between_client&#45;0_and_server</title>
<polygon fill="none" stroke="white" points="164,-130.5 164,-550.2 504,-550.2 504,-130.5 164,-130.5"/>
</g>
<g id="clust2" class="cluster">
<title>cluster_agent_client</title>
<polygon fill="none" stroke="white" points="708,-51 708,-582.9 781,-582.9 781,-51 708,-51"/>
<text text-anchor="middle" x="744.5" y="-559.7" font-family="Sans-Serif" font-size="24.00">client</text>
</g>
<g id="clust3" class="cluster">
<title>cluster_agent_client&#45;0</title>
<polygon fill="none" stroke="white" points="8,-51 8,-582.9 156,-582.9 156,-51 8,-51"/>
<text text-anchor="middle" x="82" y="-559.7" font-family="Sans-Serif" font-size="24.00">client&#45;0</text>
</g>
<g id="clust4" class="cluster">
<title>cluster_agent_server</title>
<polygon fill="none" stroke="white" points="512,-51 512,-582.9 700,-582.9 700,-51 512,-51"/>
<text text-anchor="middle" x="606" y="-559.7" font-family="Sans-Serif" font-size="24.00">server</text>
</g>
<!-- message&#45;0&#45;0 -->
<!-- message&#45;0&#45;1 -->
<!-- message&#45;0&#45;0&#45;&gt;message&#45;0&#45;1 -->
<!-- message&#45;0&#45;2 -->
<!-- message&#45;0&#45;1&#45;&gt;message&#45;0&#45;2 -->
<!-- message&#45;0&#45;3 -->
<g id="node4" class="node">
<title>message&#45;0&#45;3</title>
<polygon fill="paleturquoise" stroke="paleturquoise" points="496,-475 358,-475 358,-439 496,-439 496,-475"/>
<text text-anchor="middle" x="427" y="-453.3" font-family="Sans-Serif" font-size="14.00">request@0 / client&#45;0</text>
</g>
<!-- message&#45;0&#45;2&#45;&gt;message&#45;0&#45;3 -->
<!-- message&#45;0&#45;4 -->
<g id="node5" class="node">
<title>message&#45;0&#45;4</title>
<polygon fill="none" stroke="mediumblue" stroke-width="2" points="427.5,-431 426.5,-431 426.5,-430 427.5,-430 427.5,-431"/>
</g>
<!-- message&#45;0&#45;3&#45;&gt;message&#45;0&#45;4 -->
<g id="edge4" class="edge">
<title>message&#45;0&#45;3&#45;&gt;message&#45;0&#45;4</title>
<path fill="none" stroke="mediumblue" stroke-width="3" d="M427,-438.91C427,-435.06 427,-431.89 427,-431.16"/>
</g>
<!-- message&#45;0&#45;5 -->
<g id="node6" class="node">
<title>message&#45;0&#45;5</title>
<polygon fill="none" stroke="mediumblue" stroke-width="2" points="427.5,-404.5 426.5,-404.5 426.5,-403.5 427.5,-403.5 427.5,-404.5"/>
</g>
<!-- message&#45;0&#45;4&#45;&gt;message&#45;0&#45;5 -->
<g id="edge5" class="edge">
<title>message&#45;0&#45;4&#45;&gt;message&#45;0&#45;5</title>
<path fill="none" stroke="mediumblue" stroke-width="3" d="M427,-429.93C427,-428.51 427,-406.44 427,-405.07"/>
</g>
<!-- message&#45;1&#45;5 -->
<g id="node7" class="node">
<title>message&#45;1&#45;5</title>
<polygon fill="paleturquoise" stroke="paleturquoise" points="408,-422 270,-422 270,-386 408,-386 408,-422"/>
<text text-anchor="middle" x="339" y="-400.3" font-family="Sans-Serif" font-size="14.00">request@1 / client&#45;0</text>
</g>
<!-- message&#45;0&#45;4&#45;&gt;message&#45;1&#45;5 -->
<!-- server@6 -->
<g id="node66" class="node">
<title>server@6</title>
<polygon fill="none" stroke="#0063cd" stroke-width="4" points="642.5,-378 641.5,-378 641.5,-377 642.5,-377 642.5,-378"/>
</g>
<!-- message&#45;0&#45;5&#45;&gt;server@6 -->
<g id="edge66" class="edge">
<title>message&#45;0&#45;5:c&#45;&gt;server@6:c</title>
<path fill="none" stroke="mediumblue" stroke-width="3" d="M427.13,-402.97C429.78,-402.25 472.68,-390.73 508,-386 553.93,-379.84 609.35,-378.42 631.81,-378.1"/>
<polygon fill="mediumblue" stroke="mediumblue" stroke-width="3" points="631.98,-381.6 641.95,-378 631.91,-374.6 631.98,-381.6"/>
</g>
<!-- message&#45;1&#45;6 -->
<g id="node8" class="node">
<title>message&#45;1&#45;6</title>
<polygon fill="none" stroke="mediumblue" stroke-width="2" points="339.5,-378 338.5,-378 338.5,-377 339.5,-377 339.5,-378"/>
</g>
<!-- message&#45;1&#45;5&#45;&gt;message&#45;1&#45;6 -->
<g id="edge7" class="edge">
<title>message&#45;1&#45;5&#45;&gt;message&#45;1&#45;6</title>
<path fill="none" stroke="mediumblue" stroke-width="3" d="M339,-385.91C339,-382.06 339,-378.89 339,-378.16"/>
</g>
<!-- message&#45;1&#45;7 -->
<g id="node9" class="node">
<title>message&#45;1&#45;7</title>
<polygon fill="none" stroke="mediumblue" stroke-width="2" points="339.5,-351.5 338.5,-351.5 338.5,-350.5 339.5,-350.5 339.5,-351.5"/>
</g>
<!-- message&#45;1&#45;6&#45;&gt;message&#45;1&#45;7 -->
<g id="edge8" class="edge">
<title>message&#45;1&#45;6&#45;&gt;message&#45;1&#45;7</title>
<path fill="none" stroke="mediumblue" stroke-width="3" d="M339,-376.93C339,-375.51 339,-353.44 339,-352.07"/>
</g>
<!-- message&#45;1&#45;8 -->
<g id="node10" class="node">
<title>message&#45;1&#45;8</title>
<polygon fill="none" stroke="mediumblue" stroke-width="2" points="339.5,-325 338.5,-325 338.5,-324 339.5,-324 339.5,-325"/>
</g>
<!-- message&#45;1&#45;7&#45;&gt;message&#45;1&#45;8 -->
<g id="edge9" class="edge">
<title>message&#45;1&#45;7&#45;&gt;message&#45;1&#45;8</title>
<path fill="none" stroke="mediumblue" stroke-width="3" d="M339,-349.93C339,-348.51 339,-326.44 339,-325.07"/>
</g>
<!-- message&#45;1&#45;9 -->
<g id="node11" class="node">
<title>message&#45;1&#45;9</title>
<polygon fill="none" stroke="mediumblue" stroke-width="2" points="339.5,-298.5 338.5,-298.5 338.5,-297.5 339.5,-297.5 339.5,-298.5"/>
</g>
<!-- message&#45;1&#45;8&#45;&gt;message&#45;1&#45;9 -->
<g id="edge10" class="edge">
<title>message&#45;1&#45;8&#45;&gt;message&#45;1&#45;9</title>
<path fill="none" stroke="mediumblue" stroke-width="3" d="M339,-323.93C339,-322.51 339,-300.44 339,-299.07"/>
</g>
<!-- message&#45;2&#45;9 -->
<g id="node12" class="node">
<title>message&#45;2&#45;9</title>
<polygon fill="paleturquoise" stroke="paleturquoise" points="320.5,-316 171.5,-316 171.5,-280 320.5,-280 320.5,-316"/>
<text text-anchor="middle" x="246" y="-294.3" font-family="Sans-Serif" font-size="14.00">response@0 / client&#45;0</text>
</g>
<!-- message&#45;1&#45;8&#45;&gt;message&#45;2&#45;9 -->
<!-- server@10 -->
<g id="node71" class="node">
<title>server@10</title>
<polygon fill="none" stroke="#0063cd" stroke-width="4" points="642.5,-272 641.5,-272 641.5,-271 642.5,-271 642.5,-272"/>
</g>
<!-- message&#45;1&#45;9&#45;&gt;server@10 -->
<g id="edge73" class="edge">
<title>message&#45;1&#45;9:c&#45;&gt;server@10:c</title>
<path fill="none" stroke="mediumblue" stroke-width="3" d="M339.07,-296.99C341.93,-296.66 433.93,-285.93 508,-280 554.19,-276.3 609.47,-273.52 631.85,-272.46"/>
<polygon fill="mediumblue" stroke="mediumblue" stroke-width="3" points="632.12,-275.96 641.95,-272 631.8,-268.96 632.12,-275.96"/>
</g>
<!-- message&#45;2&#45;10 -->
<g id="node13" class="node">
<title>message&#45;2&#45;10</title>
<polygon fill="none" stroke="mediumblue" stroke-width="2" points="246.5,-272 245.5,-272 245.5,-271 246.5,-271 246.5,-272"/>
</g>
<!-- message&#45;2&#45;9&#45;&gt;message&#45;2&#45;10 -->
<g id="edge12" class="edge">
<title>message&#45;2&#45;9&#45;&gt;message&#45;2&#45;10</title>
<path fill="none" stroke="mediumblue" stroke-width="3" d="M246,-279.91C246,-276.06 246,-272.89 246,-272.16"/>
</g>
<!-- message&#45;2&#45;11 -->
<g id="node14" class="node">
<title>message&#45;2&#45;11</title>
<polygon fill="none" stroke="mediumblue" stroke-width="2" points="246.5,-245.5 245.5,-245.5 245.5,-244.5 246.5,-244.5 246.5,-245.5"/>
</g>
<!-- message&#45;2&#45;10&#45;&gt;message&#45;2&#45;11 -->
<g id="edge13" class="edge">
<title>message&#45;2&#45;10&#45;&gt;message&#45;2&#45;11</title>
<path fill="none" stroke="mediumblue" stroke-width="3" d="M246,-270.93C246,-269.51 246,-247.44 246,-246.07"/>
</g>
<!-- message&#45;2&#45;12 -->
<g id="node15" class="node">
<title>message&#45;2&#45;12</title>
<polygon fill="none" stroke="mediumblue" stroke-width="2" points="246.5,-219 245.5,-219 245.5,-218 246.5,-218 246.5,-219"/>
</g>
<!-- message&#45;2&#45;11&#45;&gt;message&#45;2&#45;12 -->
<g id="edge14" class="edge">
<title>message&#45;2&#45;11&#45;&gt;message&#45;2&#45;12</title>
<path fill="none" stroke="mediumblue" stroke-width="3" d="M246,-243.93C246,-242.51 246,-220.44 246,-219.07"/>
</g>
<!-- message&#45;2&#45;13 -->
<g id="node16" class="node">
<title>message&#45;2&#45;13</title>
<polygon fill="none" stroke="mediumblue" stroke-width="2" points="246.5,-192.5 245.5,-192.5 245.5,-191.5 246.5,-191.5 246.5,-192.5"/>
</g>
<!-- message&#45;2&#45;12&#45;&gt;message&#45;2&#45;13 -->
<g id="edge15" class="edge">
<title>message&#45;2&#45;12&#45;&gt;message&#45;2&#45;13</title>
<path fill="none" stroke="mediumblue" stroke-width="3" d="M246,-217.93C246,-216.51 246,-194.44 246,-193.07"/>
</g>
<!-- message&#45;3&#45;13 -->
<g id="node17" class="node">
<title>message&#45;3&#45;13</title>
<polygon fill="paleturquoise" stroke="paleturquoise" points="413.5,-210 264.5,-210 264.5,-174 413.5,-174 413.5,-210"/>
<text text-anchor="middle" x="339" y="-188.3" font-family="Sans-Serif" font-size="14.00">response@1 / client&#45;0</text>
</g>
<!-- message&#45;2&#45;12&#45;&gt;message&#45;3&#45;13 -->
<!-- client&#45;0@14 -->
<g id="node55" class="node">
<title>client&#45;0@14</title>
<polygon fill="none" stroke="#0063cd" stroke-width="4" points="118.5,-166 117.5,-166 117.5,-165 118.5,-165 118.5,-166"/>
</g>
<!-- message&#45;2&#45;13&#45;&gt;client&#45;0@14 -->
<g id="edge54" class="edge">
<title>message&#45;2&#45;13:c&#45;&gt;client&#45;0@14:c</title>
<path fill="none" stroke="mediumblue" stroke-width="3" d="M245.86,-190.97C243.02,-190.4 197.05,-181.19 160,-174 149.13,-171.89 136.66,-169.52 128.16,-167.91"/>
<polygon fill="mediumblue" stroke="mediumblue" stroke-width="3" points="128.54,-164.43 118.07,-166.01 127.25,-171.3 128.54,-164.43"/>
</g>
<!-- message&#45;3&#45;14 -->
<g id="node18" class="node">
<title>message&#45;3&#45;14</title>
<polygon fill="none" stroke="mediumblue" stroke-width="2" points="339.5,-166 338.5,-166 338.5,-165 339.5,-165 339.5,-166"/>
</g>
<!-- message&#45;3&#45;13&#45;&gt;message&#45;3&#45;14 -->
<g id="edge17" class="edge">
<title>message&#45;3&#45;13&#45;&gt;message&#45;3&#45;14</title>
<path fill="none" stroke="mediumblue" stroke-width="3" d="M339,-173.91C339,-170.06 339,-166.89 339,-166.16"/>
</g>
<!-- message&#45;3&#45;15 -->
<g id="node19" class="node">
<title>message&#45;3&#45;15</title>
<polygon fill="none" stroke="mediumblue" stroke-width="2" points="339.5,-139.5 338.5,-139.5 338.5,-138.5 339.5,-138.5 339.5,-139.5"/>
</g>
<!-- message&#45;3&#45;14&#45;&gt;message&#45;3&#45;15 -->
<g id="edge18" class="edge">
<title>message&#45;3&#45;14&#45;&gt;message&#45;3&#45;15</title>
<path fill="none" stroke="mediumblue" stroke-width="3" d="M339,-164.93C339,-163.51 339,-141.44 339,-140.07"/>
</g>
<!-- client&#45;0@16 -->
<g id="node57" class="node">
<title>client&#45;0@16</title>
<polygon fill="none" stroke="#0063cd" stroke-width="4" points="118.5,-113 117.5,-113 117.5,-112 118.5,-112 118.5,-113"/>
</g>
<!-- message&#45;3&#45;15&#45;&gt;client&#45;0@16 -->
<g id="edge57" class="edge">
<title>message&#45;3&#45;15:c&#45;&gt;client&#45;0@16:c</title>
<path fill="none" stroke="mediumblue" stroke-width="3" d="M338.84,-137.98C333.04,-137.33 171.26,-119.02 128.36,-114.17"/>
<polygon fill="mediumblue" stroke="mediumblue" stroke-width="3" points="128.49,-110.66 118.16,-113.02 127.7,-117.62 128.49,-110.66"/>
</g>
<!-- client@0 -->
<g id="node20" class="node">
<title>client@0</title>
<polygon fill="none" stroke="darkgreen" stroke-width="2" points="744.5,-540.9 743.5,-540.9 743.5,-539.9 744.5,-539.9 744.5,-540.9"/>
</g>
<!-- client@1 -->
<g id="node21" class="node">
<title>client@1</title>
<polygon fill="palegreen" stroke="palegreen" points="771,-530.6 717,-530.6 717,-494.6 771,-494.6 771,-530.6"/>
<text text-anchor="middle" x="744" y="-508.9" font-family="Sans-Serif" font-size="14.00">idle</text>
</g>
<!-- client@0&#45;&gt;client@1 -->
<g id="edge19" class="edge">
<title>client@0&#45;&gt;client@1</title>
<path fill="none" stroke="darkgreen" stroke-width="3" d="M744,-539.33C744,-538.77 744,-535.15 744,-530.8"/>
</g>
<!-- client@2 -->
<g id="node22" class="node">
<title>client@2</title>
<polygon fill="none" stroke="darkgreen" stroke-width="2" points="744.5,-485.3 743.5,-485.3 743.5,-484.3 744.5,-484.3 744.5,-485.3"/>
</g>
<!-- client@1&#45;&gt;client@2 -->
<g id="edge20" class="edge">
<title>client@1&#45;&gt;client@2</title>
<path fill="none" stroke="darkgreen" stroke-width="3" d="M744,-494.53C744,-490.04 744,-486.3 744,-485.85"/>
</g>
<!-- client@3 -->
<g id="node23" class="node">
<title>client@3</title>
<polygon fill="none" stroke="darkgreen" stroke-width="2" points="744.5,-457.5 743.5,-457.5 743.5,-456.5 744.5,-456.5 744.5,-457.5"/>
</g>
<!-- client@2&#45;&gt;client@3 -->
<g id="edge21" class="edge">
<title>client@2&#45;&gt;client@3</title>
<path fill="none" stroke="darkgreen" stroke-width="3" d="M744,-483.73C744,-482.26 744,-459.49 744,-458.07"/>
</g>
<!-- client@4 -->
<g id="node24" class="node">
<title>client@4</title>
<polygon fill="none" stroke="darkgreen" stroke-width="2" points="744.5,-431 743.5,-431 743.5,-430 744.5,-430 744.5,-431"/>
</g>
<!-- client@3&#45;&gt;client@4 -->
<g id="edge22" class="edge">
<title>client@3&#45;&gt;client@4</title>
<path fill="none" stroke="darkgreen" stroke-width="3" d="M744,-455.93C744,-454.51 744,-432.44 744,-431.07"/>
</g>
<!-- client@5 -->
<g id="node25" class="node">
<title>client@5</title>
<polygon fill="none" stroke="darkgreen" stroke-width="2" points="744.5,-404.5 743.5,-404.5 743.5,-403.5 744.5,-403.5 744.5,-404.5"/>
</g>
<!-- client@4&#45;&gt;client@5 -->
<g id="edge23" class="edge">
<title>client@4&#45;&gt;client@5</title>
<path fill="none" stroke="darkgreen" stroke-width="3" d="M744,-429.93C744,-428.51 744,-406.44 744,-405.07"/>
</g>
<!-- client@6 -->
<g id="node26" class="node">
<title>client@6</title>
<polygon fill="none" stroke="darkgreen" stroke-width="2" points="744.5,-378 743.5,-378 743.5,-377 744.5,-377 744.5,-378"/>
</g>
<!-- client@5&#45;&gt;client@6 -->
<g id="edge24" class="edge">
<title>client@5&#45;&gt;client@6</title>
<path fill="none" stroke="darkgreen" stroke-width="3" d="M744,-402.93C744,-401.51 744,-379.44 744,-378.07"/>
</g>
<!-- client@7 -->
<g id="node27" class="node">
<title>client@7</title>
<polygon fill="none" stroke="darkgreen" stroke-width="2" points="744.5,-351.5 743.5,-351.5 743.5,-350.5 744.5,-350.5 744.5,-351.5"/>
</g>
<!-- client@6&#45;&gt;client@7 -->
<g id="edge25" class="edge">
<title>client@6&#45;&gt;client@7</title>
<path fill="none" stroke="darkgreen" stroke-width="3" d="M744,-376.93C744,-375.51 744,-353.44 744,-352.07"/>
</g>
<!-- client@8 -->
<g id="node28" class="node">
<title>client@8</title>
<polygon fill="none" stroke="darkgreen" stroke-width="2" points="744.5,-325 743.5,-325 743.5,-324 744.5,-324 744.5,-325"/>
</g>
<!-- client@7&#45;&gt;client@8 -->
<g id="edge26" class="edge">
<title>client@7&#45;&gt;client@8</title>
<path fill="none" stroke="darkgreen" stroke-width="3" d="M744,-349.93C744,-348.51 744,-326.44 744,-325.07"/>
</g>
<!-- client@9 -->
<g id="node29" class="node">
<title>client@9</title>
<polygon fill="none" stroke="darkgreen" stroke-width="2" points="744.5,-298.5 743.5,-298.5 743.5,-297.5 744.5,-297.5 744.5,-298.5"/>
</g>
<!-- client@8&#45;&gt;client@9 -->
<g id="edge27" class="edge">
<title>client@8&#45;&gt;client@9</title>
<path fill="none" stroke="darkgreen" stroke-width="3" d="M744,-323.93C744,-322.51 744,-300.44 744,-299.07"/>
</g>
<!-- client@10 -->
<g id="node30" class="node">
<title>client@10</title>
<polygon fill="none" stroke="darkgreen" stroke-width="2" points="744.5,-272 743.5,-272 743.5,-271 744.5,-271 744.5,-272"/>
</g>
<!-- client@9&#45;&gt;client@10 -->
<g id="edge28" class="edge">
<title>client@9&#45;&gt;client@10</title>
<path fill="none" stroke="darkgreen" stroke-width="3" d="M744,-296.93C744,-295.51 744,-273.44 744,-272.07"/>
</g>
<!-- client@11 -->
<g id="node31" class="node">
<title>client@11</title>
<polygon fill="none" stroke="darkgreen" stroke-width="2" points="744.5,-245.5 743.5,-245.5 743.5,-244.5 744.5,-244.5 744.5,-245.5"/>
</g>
<!-- client@10&#45;&gt;client@11 -->
<g id="edge29" class="edge">
<title>client@10&#45;&gt;client@11</title>
<path fill="none" stroke="darkgreen" stroke-width="3" d="M744,-270.93C744,-269.51 744,-247.44 744,-246.07"/>
</g>
<!-- client@12 -->
<g id="node32" class="node">
<title>client@12</title>
<polygon fill="none" stroke="darkgreen" stroke-width="2" points="744.5,-219 743.5,-219 743.5,-218 744.5,-218 744.5,-219"/>
</g>
<!-- client@11&#45;&gt;client@12 -->
<g id="edge30" class="edge">
<title>client@11&#45;&gt;client@12</title>
<path fill="none" stroke="darkgreen" stroke-width="3" d="M744,-243.93C744,-242.51 744,-220.44 744,-219.07"/>
</g>
<!-- client@13 -->
<g id="node33" class="node">
<title>client@13</title>
<polygon fill="none" stroke="darkgreen" stroke-width="2" points="744.5,-192.5 743.5,-192.5 743.5,-191.5 744.5,-191.5 744.5,-192.5"/>
</g>
<!-- client@12&#45;&gt;client@13 -->
<g id="edge31" class="edge">
<title>client@12&#45;&gt;client@13</title>
<path fill="none" stroke="darkgreen" stroke-width="3" d="M744,-217.93C744,-216.51 744,-194.44 744,-193.07"/>
</g>
<!-- client@14 -->
<g id="node34" class="node">
<title>client@14</title>
<polygon fill="none" stroke="darkgreen" stroke-width="2" points="744.5,-166 743.5,-166 743.5,-165 744.5,-165 744.5,-166"/>
</g>
<!-- client@13&#45;&gt;client@14 -->
<g id="edge32" class="edge">
<title>client@13&#45;&gt;client@14</title>
<path fill="none" stroke="darkgreen" stroke-width="3" d="M744,-190.93C744,-189.51 744,-167.44 744,-166.07"/>
</g>
<!-- client@15 -->
<g id="node35" class="node">
<title>client@15</title>
<polygon fill="none" stroke="darkgreen" stroke-width="2" points="744.5,-139.5 743.5,-139.5 743.5,-138.5 744.5,-138.5 744.5,-139.5"/>
</g>
<!-- client@14&#45;&gt;client@15 -->
<g id="edge33" class="edge">
<title>client@14&#45;&gt;client@15</title>
<path fill="none" stroke="darkgreen" stroke-width="3" d="M744,-164.93C744,-163.51 744,-141.44 744,-140.07"/>
</g>
<!-- client@16 -->
<g id="node36" class="node">
<title>client@16</title>
<polygon fill="none" stroke="darkgreen" stroke-width="2" points="744.5,-113 743.5,-113 743.5,-112 744.5,-112 744.5,-113"/>
</g>
<!-- client@15&#45;&gt;client@16 -->
<g id="edge34" class="edge">
<title>client@15&#45;&gt;client@16</title>
<path fill="none" stroke="darkgreen" stroke-width="3" d="M744,-137.93C744,-136.51 744,-114.44 744,-113.07"/>
</g>
<!-- client@17 -->
<g id="node37" class="node">
<title>client@17</title>
<polygon fill="none" stroke="darkgreen" stroke-width="2" points="744.5,-86.5 743.5,-86.5 743.5,-85.5 744.5,-85.5 744.5,-86.5"/>
</g>
<!-- client@16&#45;&gt;client@17 -->
<g id="edge35" class="edge">
<title>client@16&#45;&gt;client@17</title>
<path fill="none" stroke="darkgreen" stroke-width="3" d="M744,-111.93C744,-110.51 744,-88.44 744,-87.07"/>
</g>
<!-- client@18 -->
<g id="node38" class="node">
<title>client@18</title>
<polygon fill="none" stroke="darkgreen" stroke-width="2" points="744.5,-60 743.5,-60 743.5,-59 744.5,-59 744.5,-60"/>
</g>
<!-- client@17&#45;&gt;client@18 -->
<g id="edge36" class="edge">
<title>client@17&#45;&gt;client@18</title>
<path fill="none" stroke="darkgreen" stroke-width="3" d="M744,-84.93C744,-83.51 744,-61.44 744,-60.07"/>
</g>
<!-- client&#45;0@0 -->
<g id="node39" class="node">
<title>client&#45;0@0</title>
<polygon fill="none" stroke="darkgreen" stroke-width="2" points="118.5,-540.9 117.5,-540.9 117.5,-539.9 118.5,-539.9 118.5,-540.9"/>
</g>
<!-- client&#45;0@1 -->
<g id="node40" class="node">
<title>client&#45;0@1</title>
<polygon fill="palegreen" stroke="palegreen" points="145,-530.6 91,-530.6 91,-494.6 145,-494.6 145,-530.6"/>
<text text-anchor="middle" x="118" y="-508.9" font-family="Sans-Serif" font-size="14.00">idle</text>
</g>
<!-- client&#45;0@0&#45;&gt;client&#45;0@1 -->
<g id="edge37" class="edge">
<title>client&#45;0@0&#45;&gt;client&#45;0@1</title>
<path fill="none" stroke="darkgreen" stroke-width="3" d="M118,-539.33C118,-538.77 118,-535.15 118,-530.8"/>
</g>
<!-- client&#45;0@2 -->
<g id="node41" class="node">
<title>client&#45;0@2</title>
<polygon fill="none" stroke="#0063cd" stroke-width="4" points="118.5,-485.3 117.5,-485.3 117.5,-484.3 118.5,-484.3 118.5,-485.3"/>
</g>
<!-- client&#45;0@1&#45;&gt;client&#45;0@2 -->
<g id="edge40" class="edge">
<title>client&#45;0@1&#45;&gt;client&#45;0@2</title>
<path fill="none" stroke="darkgreen" stroke-width="3" d="M118,-494.53C118,-490.04 118,-486.3 118,-485.85"/>
</g>
<!-- client&#45;0@2&#45;&gt;message&#45;0&#45;3 -->
<g id="edge38" class="edge">
<title>client&#45;0@2:c&#45;&gt;message&#45;0&#45;3:c</title>
<path fill="none" stroke="mediumblue" stroke-width="3" d="M118.06,-483.8C121.22,-483.53 257.38,-472.16 347.86,-464.61"/>
<polygon fill="mediumblue" stroke="mediumblue" stroke-width="3" points="348.16,-468.09 357.83,-463.77 347.58,-461.12 348.16,-468.09"/>
</g>
<!-- client&#45;0@3 -->
<g id="node43" class="node">
<title>client&#45;0@3</title>
<polygon fill="palegreen" stroke="palegreen" points="147.5,-475 88.5,-475 88.5,-439 147.5,-439 147.5,-475"/>
<text text-anchor="middle" x="118" y="-453.3" font-family="Sans-Serif" font-size="14.00">wait / 1</text>
</g>
<!-- client&#45;0@2&#45;&gt;client&#45;0@3 -->
<g id="edge41" class="edge">
<title>client&#45;0@2&#45;&gt;client&#45;0@3</title>
<path fill="none" stroke="yellowgreen" stroke-width="3" d="M118,-483.73C118,-483.17 118,-479.55 118,-475.2"/>
</g>
<!-- client&#45;0&#45;time&#45;1 -->
<g id="node42" class="node">
<title>client&#45;0&#45;time&#45;1</title>
<polygon fill="paleturquoise" stroke="paleturquoise" points="73,-530.6 19,-530.6 19,-494.6 73,-494.6 73,-530.6"/>
<text text-anchor="middle" x="46" y="-508.9" font-family="Sans-Serif" font-size="14.00">time</text>
</g>
<!-- client&#45;0&#45;time&#45;1&#45;&gt;client&#45;0@2 -->
<g id="edge39" class="edge">
<title>client&#45;0&#45;time&#45;1:c&#45;&gt;client&#45;0@2:c</title>
<path fill="none" stroke="mediumblue" stroke-width="3" d="M73.28,-498.02C76.19,-496.78 79.13,-495.62 82,-494.6 90.58,-491.56 100.67,-489.19 107.98,-487.68"/>
<polygon fill="mediumblue" stroke="mediumblue" stroke-width="3" points="108.76,-491.1 117.94,-485.81 107.47,-484.22 108.76,-491.1"/>
</g>
<!-- client&#45;0@4 -->
<g id="node44" class="node">
<title>client&#45;0@4</title>
<polygon fill="none" stroke="#0063cd" stroke-width="4" points="118.5,-431 117.5,-431 117.5,-430 118.5,-430 118.5,-431"/>
</g>
<!-- client&#45;0@3&#45;&gt;client&#45;0@4 -->
<g id="edge44" class="edge">
<title>client&#45;0@3&#45;&gt;client&#45;0@4</title>
<path fill="none" stroke="yellowgreen" stroke-width="3" d="M118,-438.91C118,-435.06 118,-431.89 118,-431.16"/>
</g>
<!-- client&#45;0@4&#45;&gt;message&#45;1&#45;5 -->
<g id="edge42" class="edge">
<title>client&#45;0@4:c&#45;&gt;message&#45;1&#45;5:c</title>
<path fill="none" stroke="mediumblue" stroke-width="3" d="M118.16,-429.98C122.1,-429.54 198.08,-420.94 259.83,-413.96"/>
<polygon fill="mediumblue" stroke="mediumblue" stroke-width="3" points="260.45,-417.41 270,-412.81 259.67,-410.45 260.45,-417.41"/>
</g>
<!-- client&#45;0@5 -->
<g id="node46" class="node">
<title>client&#45;0@5</title>
<polygon fill="palegreen" stroke="palegreen" points="147.5,-422 88.5,-422 88.5,-386 147.5,-386 147.5,-422"/>
<text text-anchor="middle" x="118" y="-400.3" font-family="Sans-Serif" font-size="14.00">wait / 2</text>
</g>
<!-- client&#45;0@4&#45;&gt;client&#45;0@5 -->
<g id="edge45" class="edge">
<title>client&#45;0@4&#45;&gt;client&#45;0@5</title>
<path fill="none" stroke="darkgreen" stroke-width="3" d="M118,-429.93C118,-429.41 118,-426.18 118,-422.2"/>
</g>
<!-- client&#45;0&#45;time&#45;3 -->
<g id="node45" class="node">
<title>client&#45;0&#45;time&#45;3</title>
<polygon fill="paleturquoise" stroke="paleturquoise" points="70,-475 16,-475 16,-439 70,-439 70,-475"/>
<text text-anchor="middle" x="43" y="-453.3" font-family="Sans-Serif" font-size="14.00">time</text>
</g>
<!-- client&#45;0&#45;time&#45;3&#45;&gt;client&#45;0@4 -->
<g id="edge43" class="edge">
<title>client&#45;0&#45;time&#45;3:c&#45;&gt;client&#45;0@4:c</title>
<path fill="none" stroke="mediumblue" stroke-width="3" d="M70.24,-442.31C73.16,-441.1 76.11,-439.96 79,-439 88.53,-435.82 99.81,-433.68 107.78,-432.41"/>
<polygon fill="mediumblue" stroke="mediumblue" stroke-width="3" points="108.51,-435.84 117.94,-431.01 107.55,-428.91 108.51,-435.84"/>
</g>
<!-- client&#45;0@6 -->
<g id="node47" class="node">
<title>client&#45;0@6</title>
<polygon fill="none" stroke="darkgreen" stroke-width="2" points="118.5,-378 117.5,-378 117.5,-377 118.5,-377 118.5,-378"/>
</g>
<!-- client&#45;0@5&#45;&gt;client&#45;0@6 -->
<g id="edge46" class="edge">
<title>client&#45;0@5&#45;&gt;client&#45;0@6</title>
<path fill="none" stroke="darkgreen" stroke-width="3" d="M118,-385.91C118,-382.06 118,-378.89 118,-378.16"/>
</g>
<!-- client&#45;0@7 -->
<g id="node48" class="node">
<title>client&#45;0@7</title>
<polygon fill="none" stroke="darkgreen" stroke-width="2" points="118.5,-351.5 117.5,-351.5 117.5,-350.5 118.5,-350.5 118.5,-351.5"/>
</g>
<!-- client&#45;0@6&#45;&gt;client&#45;0@7 -->
<g id="edge47" class="edge">
<title>client&#45;0@6&#45;&gt;client&#45;0@7</title>
<path fill="none" stroke="darkgreen" stroke-width="3" d="M118,-376.93C118,-375.51 118,-353.44 118,-352.07"/>
</g>
<!-- client&#45;0@8 -->
<g id="node49" class="node">
<title>client&#45;0@8</title>
<polygon fill="none" stroke="darkgreen" stroke-width="2" points="118.5,-325 117.5,-325 117.5,-324 118.5,-324 118.5,-325"/>
</g>
<!-- client&#45;0@7&#45;&gt;client&#45;0@8 -->
<g id="edge48" class="edge">
<title>client&#45;0@7&#45;&gt;client&#45;0@8</title>
<path fill="none" stroke="darkgreen" stroke-width="3" d="M118,-349.93C118,-348.51 118,-326.44 118,-325.07"/>
</g>
<!-- client&#45;0@9 -->
<g id="node50" class="node">
<title>client&#45;0@9</title>
<polygon fill="none" stroke="darkgreen" stroke-width="2" points="118.5,-298.5 117.5,-298.5 117.5,-297.5 118.5,-297.5 118.5,-298.5"/>
</g>
<!-- client&#45;0@8&#45;&gt;client&#45;0@9 -->
<g id="edge49" class="edge">
<title>client&#45;0@8&#45;&gt;client&#45;0@9</title>
<path fill="none" stroke="darkgreen" stroke-width="3" d="M118,-323.93C118,-322.51 118,-300.44 118,-299.07"/>
</g>
<!-- client&#45;0@10 -->
<g id="node51" class="node">
<title>client&#45;0@10</title>
<polygon fill="none" stroke="darkgreen" stroke-width="2" points="118.5,-272 117.5,-272 117.5,-271 118.5,-271 118.5,-272"/>
</g>
<!-- client&#45;0@9&#45;&gt;client&#45;0@10 -->
<g id="edge50" class="edge">
<title>client&#45;0@9&#45;&gt;client&#45;0@10</title>
<path fill="none" stroke="darkgreen" stroke-width="3" d="M118,-296.93C118,-295.51 118,-273.44 118,-272.07"/>
</g>
<!-- client&#45;0@11 -->
<g id="node52" class="node">
<title>client&#45;0@11</title>
<polygon fill="none" stroke="darkgreen" stroke-width="2" points="118.5,-245.5 117.5,-245.5 117.5,-244.5 118.5,-244.5 118.5,-245.5"/>
</g>
<!-- client&#45;0@10&#45;&gt;client&#45;0@11 -->
<g id="edge51" class="edge">
<title>client&#45;0@10&#45;&gt;client&#45;0@11</title>
<path fill="none" stroke="darkgreen" stroke-width="3" d="M118,-270.93C118,-269.51 118,-247.44 118,-246.07"/>
</g>
<!-- client&#45;0@12 -->
<g id="node53" class="node">
<title>client&#45;0@12</title>
<polygon fill="none" stroke="darkgreen" stroke-width="2" points="118.5,-219 117.5,-219 117.5,-218 118.5,-218 118.5,-219"/>
</g>
<!-- client&#45;0@11&#45;&gt;client&#45;0@12 -->
<g id="edge52" class="edge">
<title>client&#45;0@11&#45;&gt;client&#45;0@12</title>
<path fill="none" stroke="darkgreen" stroke-width="3" d="M118,-243.93C118,-242.51 118,-220.44 118,-219.07"/>
</g>
<!-- client&#45;0@13 -->
<g id="node54" class="node">
<title>client&#45;0@13</title>
<polygon fill="none" stroke="darkgreen" stroke-width="2" points="118.5,-192.5 117.5,-192.5 117.5,-191.5 118.5,-191.5 118.5,-192.5"/>
</g>
<!-- client&#45;0@12&#45;&gt;client&#45;0@13 -->
<g id="edge53" class="edge">
<title>client&#45;0@12&#45;&gt;client&#45;0@13</title>
<path fill="none" stroke="darkgreen" stroke-width="3" d="M118,-217.93C118,-216.51 118,-194.44 118,-193.07"/>
</g>
<!-- client&#45;0@13&#45;&gt;client&#45;0@14 -->
<g id="edge55" class="edge">
<title>client&#45;0@13&#45;&gt;client&#45;0@14</title>
<path fill="none" stroke="darkgreen" stroke-width="3" d="M118,-190.93C118,-189.51 118,-167.44 118,-166.07"/>
</g>
<!-- client&#45;0@15 -->
<g id="node56" class="node">
<title>client&#45;0@15</title>
<polygon fill="palegreen" stroke="palegreen" points="147.5,-157 88.5,-157 88.5,-121 147.5,-121 147.5,-157"/>
<text text-anchor="middle" x="118" y="-135.3" font-family="Sans-Serif" font-size="14.00">wait / 1</text>
</g>
<!-- client&#45;0@14&#45;&gt;client&#45;0@15 -->
<g id="edge56" class="edge">
<title>client&#45;0@14&#45;&gt;client&#45;0@15</title>
<path fill="none" stroke="yellowgreen" stroke-width="3" d="M118,-164.93C118,-164.41 118,-161.18 118,-157.2"/>
</g>
<!-- client&#45;0@15&#45;&gt;client&#45;0@16 -->
<g id="edge58" class="edge">
<title>client&#45;0@15&#45;&gt;client&#45;0@16</title>
<path fill="none" stroke="yellowgreen" stroke-width="3" d="M118,-120.91C118,-117.06 118,-113.89 118,-113.16"/>
</g>
<!-- client&#45;0@17 -->
<g id="node58" class="node">
<title>client&#45;0@17</title>
<polygon fill="palegreen" stroke="palegreen" points="145,-104 91,-104 91,-68 145,-68 145,-104"/>
<text text-anchor="middle" x="118" y="-82.3" font-family="Sans-Serif" font-size="14.00">idle</text>
</g>
<!-- client&#45;0@16&#45;&gt;client&#45;0@17 -->
<g id="edge59" class="edge">
<title>client&#45;0@16&#45;&gt;client&#45;0@17</title>
<path fill="none" stroke="darkgreen" stroke-width="3" d="M118,-111.93C118,-111.41 118,-108.18 118,-104.2"/>
</g>
<!-- client&#45;0@18 -->
<g id="node59" class="node">
<title>client&#45;0@18</title>
<polygon fill="none" stroke="darkgreen" stroke-width="2" points="118.5,-60 117.5,-60 117.5,-59 118.5,-59 118.5,-60"/>
</g>
<!-- client&#45;0@17&#45;&gt;client&#45;0@18 -->
<g id="edge60" class="edge">
<title>client&#45;0@17&#45;&gt;client&#45;0@18</title>
<path fill="none" stroke="darkgreen" stroke-width="3" d="M118,-67.91C118,-64.06 118,-60.89 118,-60.16"/>
</g>
<!-- server@0 -->
<g id="node60" class="node">
<title>server@0</title>
<polygon fill="none" stroke="darkgreen" stroke-width="2" points="642.5,-540.9 641.5,-540.9 641.5,-539.9 642.5,-539.9 642.5,-540.9"/>
</g>
<!-- server@1 -->
<g id="node61" class="node">
<title>server@1</title>
<polygon fill="palegreen" stroke="palegreen" points="669,-530.6 615,-530.6 615,-494.6 669,-494.6 669,-530.6"/>
<text text-anchor="middle" x="642" y="-508.9" font-family="Sans-Serif" font-size="14.00">ready</text>
</g>
<!-- server@0&#45;&gt;server@1 -->
<g id="edge61" class="edge">
<title>server@0&#45;&gt;server@1</title>
<path fill="none" stroke="darkgreen" stroke-width="3" d="M642,-539.33C642,-538.77 642,-535.15 642,-530.8"/>
</g>
<!-- server@2 -->
<g id="node62" class="node">
<title>server@2</title>
<polygon fill="none" stroke="darkgreen" stroke-width="2" points="642.5,-485.3 641.5,-485.3 641.5,-484.3 642.5,-484.3 642.5,-485.3"/>
</g>
<!-- server@1&#45;&gt;server@2 -->
<g id="edge62" class="edge">
<title>server@1&#45;&gt;server@2</title>
<path fill="none" stroke="darkgreen" stroke-width="3" d="M642,-494.53C642,-490.04 642,-486.3 642,-485.85"/>
</g>
<!-- server@3 -->
<g id="node63" class="node">
<title>server@3</title>
<polygon fill="none" stroke="darkgreen" stroke-width="2" points="642.5,-457.5 641.5,-457.5 641.5,-456.5 642.5,-456.5 642.5,-457.5"/>
</g>
<!-- server@2&#45;&gt;server@3 -->
<g id="edge63" class="edge">
<title>server@2&#45;&gt;server@3</title>
<path fill="none" stroke="darkgreen" stroke-width="3" d="M642,-483.73C642,-482.26 642,-459.49 642,-458.07"/>
</g>
<!-- server@4 -->
<g id="node64" class="node">
<title>server@4</title>
<polygon fill="none" stroke="darkgreen" stroke-width="2" points="642.5,-431 641.5,-431 641.5,-430 642.5,-430 642.5,-431"/>
</g>
<!-- server@3&#45;&gt;server@4 -->
<g id="edge64" class="edge">
<title>server@3&#45;&gt;server@4</title>
<path fill="none" stroke="darkgreen" stroke-width="3" d="M642,-455.93C642,-454.51 642,-432.44 642,-431.07"/>
</g>
<!-- server@5 -->
<g id="node65" class="node">
<title>server@5</title>
<polygon fill="none" stroke="darkgreen" stroke-width="2" points="642.5,-404.5 641.5,-404.5 641.5,-403.5 642.5,-403.5 642.5,-404.5"/>
</g>
<!-- server@4&#45;&gt;server@5 -->
<g id="edge65" class="edge">
<title>server@4&#45;&gt;server@5</title>
<path fill="none" stroke="darkgreen" stroke-width="3" d="M642,-429.93C642,-428.51 642,-406.44 642,-405.07"/>
</g>
<!-- server@5&#45;&gt;server@6 -->
<g id="edge67" class="edge">
<title>server@5&#45;&gt;server@6</title>
<path fill="none" stroke="darkgreen" stroke-width="3" d="M642,-402.93C642,-401.51 642,-379.44 642,-378.07"/>
</g>
<!-- server@7 -->
<g id="node67" class="node">
<title>server@7</title>
<polygon fill="palegreen" stroke="palegreen" points="692,-369 592,-369 592,-333 692,-333 692,-369"/>
<text text-anchor="middle" x="642" y="-347.3" font-family="Sans-Serif" font-size="14.00">busy / client&#45;0</text>
</g>
<!-- server@6&#45;&gt;server@7 -->
<g id="edge68" class="edge">
<title>server@6&#45;&gt;server@7</title>
<path fill="none" stroke="purple" stroke-width="6" d="M642,-376.93C642,-376.41 642,-373.18 642,-369.2"/>
</g>
<!-- server@8 -->
<g id="node68" class="node">
<title>server@8</title>
<polygon fill="none" stroke="#0063cd" stroke-width="7" points="642.5,-325 641.5,-325 641.5,-324 642.5,-324 642.5,-325"/>
</g>
<!-- server@7&#45;&gt;server@8 -->
<g id="edge71" class="edge">
<title>server@7&#45;&gt;server@8</title>
<path fill="none" stroke="purple" stroke-width="6" d="M642,-332.91C642,-329.06 642,-325.89 642,-325.16"/>
</g>
<!-- server@8&#45;&gt;message&#45;2&#45;9 -->
<g id="edge69" class="edge">
<title>server@8:c&#45;&gt;message&#45;2&#45;9:c</title>
<path fill="none" stroke="mediumblue" stroke-width="3" d="M641.96,-324C638.36,-324 417.21,-323.76 330.65,-315.82"/>
<polygon fill="mediumblue" stroke="mediumblue" stroke-width="3" points="330.85,-312.32 320.55,-314.79 330.14,-319.29 330.85,-312.32"/>
</g>
<!-- server@9 -->
<g id="node70" class="node">
<title>server@9</title>
<polygon fill="palegreen" stroke="palegreen" points="669,-316 615,-316 615,-280 669,-280 669,-316"/>
<text text-anchor="middle" x="642" y="-294.3" font-family="Sans-Serif" font-size="14.00">ready</text>
</g>
<!-- server@8&#45;&gt;server@9 -->
<g id="edge72" class="edge">
<title>server@8&#45;&gt;server@9</title>
<path fill="none" stroke="darkgreen" stroke-width="3" d="M642,-323.93C642,-323.41 642,-320.18 642,-316.2"/>
</g>
<!-- server&#45;time&#45;7 -->
<g id="node69" class="node">
<title>server&#45;time&#45;7</title>
<polygon fill="paleturquoise" stroke="paleturquoise" points="574,-369 520,-369 520,-333 574,-333 574,-369"/>
<text text-anchor="middle" x="547" y="-347.3" font-family="Sans-Serif" font-size="14.00">time</text>
</g>
<!-- server&#45;time&#45;7&#45;&gt;server@8 -->
<g id="edge70" class="edge">
<title>server&#45;time&#45;7:c&#45;&gt;server@8:c</title>
<path fill="none" stroke="mediumblue" stroke-width="3" d="M574.18,-336.11C577.11,-334.93 580.08,-333.86 583,-333 599.71,-328.05 619.99,-326.15 631.9,-325.43"/>
<polygon fill="mediumblue" stroke="mediumblue" stroke-width="3" points="632.06,-328.93 641.9,-325 631.76,-321.93 632.06,-328.93"/>
</g>
<!-- server@9&#45;&gt;server@10 -->
<g id="edge74" class="edge">
<title>server@9&#45;&gt;server@10</title>
<path fill="none" stroke="darkgreen" stroke-width="3" d="M642,-279.91C642,-276.06 642,-272.89 642,-272.16"/>
</g>
<!-- server@11 -->
<g id="node72" class="node">
<title>server@11</title>
<polygon fill="palegreen" stroke="palegreen" points="692,-263 592,-263 592,-227 692,-227 692,-263"/>
<text text-anchor="middle" x="642" y="-241.3" font-family="Sans-Serif" font-size="14.00">busy / client&#45;0</text>
</g>
<!-- server@10&#45;&gt;server@11 -->
<g id="edge75" class="edge">
<title>server@10&#45;&gt;server@11</title>
<path fill="none" stroke="purple" stroke-width="6" d="M642,-270.93C642,-270.41 642,-267.18 642,-263.2"/>
</g>
<!-- server@12 -->
<g id="node73" class="node">
<title>server@12</title>
<polygon fill="none" stroke="#0063cd" stroke-width="7" points="642.5,-219 641.5,-219 641.5,-218 642.5,-218 642.5,-219"/>
</g>
<!-- server@11&#45;&gt;server@12 -->
<g id="edge78" class="edge">
<title>server@11&#45;&gt;server@12</title>
<path fill="none" stroke="purple" stroke-width="6" d="M642,-226.91C642,-223.06 642,-219.89 642,-219.16"/>
</g>
<!-- server@12&#45;&gt;message&#45;3&#45;13 -->
<g id="edge76" class="edge">
<title>server@12:c&#45;&gt;message&#45;3&#45;13:c</title>
<path fill="none" stroke="mediumblue" stroke-width="3" d="M641.95,-218C639.67,-217.9 566.54,-214.69 508,-210 480.63,-207.81 450.82,-204.96 423.96,-202.23"/>
<polygon fill="mediumblue" stroke="mediumblue" stroke-width="3" points="424.12,-198.73 413.82,-201.19 423.41,-205.69 424.12,-198.73"/>
</g>
<!-- server@13 -->
<g id="node75" class="node">
<title>server@13</title>
<polygon fill="palegreen" stroke="palegreen" points="669,-210 615,-210 615,-174 669,-174 669,-210"/>
<text text-anchor="middle" x="642" y="-188.3" font-family="Sans-Serif" font-size="14.00">ready</text>
</g>
<!-- server@12&#45;&gt;server@13 -->
<g id="edge79" class="edge">
<title>server@12&#45;&gt;server@13</title>
<path fill="none" stroke="darkgreen" stroke-width="3" d="M642,-217.93C642,-217.41 642,-214.18 642,-210.2"/>
</g>
<!-- server&#45;time&#45;11 -->
<g id="node74" class="node">
<title>server&#45;time&#45;11</title>
<polygon fill="paleturquoise" stroke="paleturquoise" points="574,-263 520,-263 520,-227 574,-227 574,-263"/>
<text text-anchor="middle" x="547" y="-241.3" font-family="Sans-Serif" font-size="14.00">time</text>
</g>
<!-- server&#45;time&#45;11&#45;&gt;server@12 -->
<g id="edge77" class="edge">
<title>server&#45;time&#45;11:c&#45;&gt;server@12:c</title>
<path fill="none" stroke="mediumblue" stroke-width="3" d="M574.18,-230.11C577.11,-228.93 580.08,-227.86 583,-227 599.71,-222.05 619.99,-220.15 631.9,-219.43"/>
<polygon fill="mediumblue" stroke="mediumblue" stroke-width="3" points="632.06,-222.93 641.9,-219 631.76,-215.93 632.06,-222.93"/>
</g>
<!-- server@14 -->
<g id="node76" class="node">
<title>server@14</title>
<polygon fill="none" stroke="darkgreen" stroke-width="2" points="642.5,-166 641.5,-166 641.5,-165 642.5,-165 642.5,-166"/>
</g>
<!-- server@13&#45;&gt;server@14 -->
<g id="edge80" class="edge">
<title>server@13&#45;&gt;server@14</title>
<path fill="none" stroke="darkgreen" stroke-width="3" d="M642,-173.91C642,-170.06 642,-166.89 642,-166.16"/>
</g>
<!-- server@15 -->
<g id="node77" class="node">
<title>server@15</title>
<polygon fill="none" stroke="darkgreen" stroke-width="2" points="642.5,-139.5 641.5,-139.5 641.5,-138.5 642.5,-138.5 642.5,-139.5"/>
</g>
<!-- server@14&#45;&gt;server@15 -->
<g id="edge81" class="edge">
<title>server@14&#45;&gt;server@15</title>
<path fill="none" stroke="darkgreen" stroke-width="3" d="M642,-164.93C642,-163.51 642,-141.44 642,-140.07"/>
</g>
<!-- server@16 -->
<g id="node78" class="node">
<title>server@16</title>
<polygon fill="none" stroke="darkgreen" stroke-width="2" points="642.5,-113 641.5,-113 641.5,-112 642.5,-112 642.5,-113"/>
</g>
<!-- server@15&#45;&gt;server@16 -->
<g id="edge82" class="edge">
<title>server@15&#45;&gt;server@16</title>
<path fill="none" stroke="darkgreen" stroke-width="3" d="M642,-137.93C642,-136.51 642,-114.44 642,-113.07"/>
</g>
<!-- server@17 -->
<g id="node79" class="node">
<title>server@17</title>
<polygon fill="none" stroke="darkgreen" stroke-width="2" points="642.5,-86.5 641.5,-86.5 641.5,-85.5 642.5,-85.5 642.5,-86.5"/>
</g>
<!-- server@16&#45;&gt;server@17 -->
<g id="edge83" class="edge">
<title>server@16&#45;&gt;server@17</title>
<path fill="none" stroke="darkgreen" stroke-width="3" d="M642,-111.93C642,-110.51 642,-88.44 642,-87.07"/>
</g>
<!-- server@18 -->
<g id="node80" class="node">
<title>server@18</title>
<polygon fill="none" stroke="darkgreen" stroke-width="2" points="642.5,-60 641.5,-60 641.5,-59 642.5,-59 642.5,-60"/>
</g>
<!-- server@17&#45;&gt;server@18 -->
<g id="edge84" class="edge">
<title>server@17&#45;&gt;server@18</title>
<path fill="none" stroke="darkgreen" stroke-width="3" d="M642,-84.93C642,-83.51 642,-61.44 642,-60.07"/>
</g>
</g>
</svg>
