<?xml version="1.0" encoding="UTF-8" standalone="no"?>
<!DOCTYPE svg PUBLIC "-//W3C//DTD SVG 1.1//EN"
 "http://www.w3.org/Graphics/SVG/1.1/DTD/svg11.dtd">
<!-- Generated by graphviz version 2.44.1 (0)
 -->
<!-- Title: G Pages: 1 -->
<svg width="638pt" height="327pt"
 viewBox="0.00 0.00 638.00 326.90" xmlns="http://www.w3.org/2000/svg" xmlns:xlink="http://www.w3.org/1999/xlink">
<g id="graph0" class="graph" transform="scale(1 1) rotate(0) translate(4 322.9)">
<title>G</title>
<polygon fill="white" stroke="transparent" points="-4,4 -4,-322.9 634,-322.9 634,4 -4,4"/>
<text text-anchor="middle" x="315" y="-13.4" font-family="Sans-Serif" font-size="32.00">Invalid</text>
<g id="clust1" class="cluster">
<title>cluster_between_client&#45;1_and_server</title>
<polygon fill="none" stroke="white" points="315,-159 315,-278.2 469,-278.2 469,-159 315,-159"/>
</g>
<g id="clust2" class="cluster">
<title>cluster_agent_client</title>
<polygon fill="none" stroke="white" points="8,-89 8,-310.9 81,-310.9 81,-89 8,-89"/>
<text text-anchor="middle" x="44.5" y="-287.7" font-family="Sans-Serif" font-size="24.00">client</text>
</g>
<g id="clust3" class="cluster">
<title>cluster_agent_client&#45;0</title>
<polygon fill="none" stroke="white" points="89,-89 89,-310.9 183,-310.9 183,-89 89,-89"/>
<text text-anchor="middle" x="136" y="-287.7" font-family="Sans-Serif" font-size="24.00">client&#45;0</text>
</g>
<g id="clust4" class="cluster">
<title>cluster_agent_client&#45;1</title>
<polygon fill="none" stroke="white" points="477,-89 477,-310.9 622,-310.9 622,-89 477,-89"/>
<text text-anchor="middle" x="549.5" y="-287.7" font-family="Sans-Serif" font-size="24.00">client&#45;1</text>
</g>
<g id="clust5" class="cluster">
<title>cluster_agent_server</title>
<polygon fill="none" stroke="white" points="191,-89 191,-310.9 307,-310.9 307,-89 191,-89"/>
<text text-anchor="middle" x="249" y="-287.7" font-family="Sans-Serif" font-size="24.00">server</text>
</g>
<!-- agent: server is invalid because: client&#45;1 is banned -->
<g id="node1" class="node">
<title>agent: server is invalid because: client&#45;1 is banned</title>
<polygon fill="lightcoral" stroke="lightcoral" points="339.5,-81 158.5,-81 158.5,-43 339.5,-43 339.5,-81"/>
<text text-anchor="middle" x="249" y="-65.8" font-family="Sans-Serif" font-size="14.00">agent: server is invalid</text>
<text text-anchor="middle" x="249" y="-50.8" font-family="Sans-Serif" font-size="14.00">because: client&#45;1 is banned</text>
</g>
<!-- message&#45;0&#45;0 -->
<!-- message&#45;0&#45;1 -->
<!-- message&#45;0&#45;0&#45;&gt;message&#45;0&#45;1 -->
<!-- message&#45;0&#45;2 -->
<!-- message&#45;0&#45;1&#45;&gt;message&#45;0&#45;2 -->
<!-- message&#45;0&#45;3 -->
<g id="node5" class="node">
<title>message&#45;0&#45;3</title>
<polygon fill="paleturquoise" stroke="paleturquoise" points="461,-203 323,-203 323,-167 461,-167 461,-203"/>
<text text-anchor="middle" x="392" y="-181.3" font-family="Sans-Serif" font-size="14.00">request@0 / client&#45;1</text>
</g>
<!-- message&#45;0&#45;2&#45;&gt;message&#45;0&#45;3 -->
<!-- server@4 -->
<g id="node32" class="node">
<title>server@4</title>
<polygon fill="none" stroke="#0063cd" stroke-width="4" points="249.5,-151 248.5,-151 248.5,-150 249.5,-150 249.5,-151"/>
</g>
<!-- message&#45;0&#45;3&#45;&gt;server@4 -->
<g id="edge30" class="edge">
<title>message&#45;0&#45;3:c&#45;&gt;server@4:c</title>
<path fill="none" stroke="mediumblue" stroke-width="3" d="M341.37,-166.92C331.38,-163.96 320.92,-161.16 311,-159 292.92,-155.07 271.42,-152.83 259.08,-151.77"/>
<polygon fill="mediumblue" stroke="mediumblue" stroke-width="3" points="259.34,-148.28 249.1,-151.01 258.81,-155.26 259.34,-148.28"/>
</g>
<!-- client@0 -->
<g id="node6" class="node">
<title>client@0</title>
<polygon fill="none" stroke="darkgreen" stroke-width="2" points="46.5,-268.9 45.5,-268.9 45.5,-267.9 46.5,-267.9 46.5,-268.9"/>
</g>
<!-- client@1 -->
<g id="node7" class="node">
<title>client@1</title>
<polygon fill="palegreen" stroke="palegreen" points="73,-258.6 19,-258.6 19,-222.6 73,-222.6 73,-258.6"/>
<text text-anchor="middle" x="46" y="-236.9" font-family="Sans-Serif" font-size="14.00">idle</text>
</g>
<!-- client@0&#45;&gt;client@1 -->
<g id="edge4" class="edge">
<title>client@0&#45;&gt;client@1</title>
<path fill="none" stroke="darkgreen" stroke-width="3" d="M46,-267.33C46,-266.77 46,-263.15 46,-258.8"/>
</g>
<!-- client@2 -->
<g id="node8" class="node">
<title>client@2</title>
<polygon fill="none" stroke="darkgreen" stroke-width="2" points="46.5,-213.3 45.5,-213.3 45.5,-212.3 46.5,-212.3 46.5,-213.3"/>
</g>
<!-- client@1&#45;&gt;client@2 -->
<g id="edge5" class="edge">
<title>client@1&#45;&gt;client@2</title>
<path fill="none" stroke="darkgreen" stroke-width="3" d="M46,-222.53C46,-218.04 46,-214.3 46,-213.85"/>
</g>
<!-- client@3 -->
<g id="node9" class="node">
<title>client@3</title>
<polygon fill="none" stroke="darkgreen" stroke-width="2" points="46.5,-185.5 45.5,-185.5 45.5,-184.5 46.5,-184.5 46.5,-185.5"/>
</g>
<!-- client@2&#45;&gt;client@3 -->
<g id="edge6" class="edge">
<title>client@2&#45;&gt;client@3</title>
<path fill="none" stroke="darkgreen" stroke-width="3" d="M46,-211.73C46,-210.26 46,-187.49 46,-186.07"/>
</g>
<!-- client@4 -->
<g id="node10" class="node">
<title>client@4</title>
<polygon fill="none" stroke="darkgreen" stroke-width="2" points="46.5,-151 45.5,-151 45.5,-150 46.5,-150 46.5,-151"/>
</g>
<!-- client@3&#45;&gt;client@4 -->
<g id="edge7" class="edge">
<title>client@3&#45;&gt;client@4</title>
<path fill="none" stroke="darkgreen" stroke-width="3" d="M46,-183.91C46,-182.03 46,-152.91 46,-151.09"/>
</g>
<!-- client@5 -->
<g id="node11" class="node">
<title>client@5</title>
<polygon fill="none" stroke="darkgreen" stroke-width="2" points="46.5,-124.5 45.5,-124.5 45.5,-123.5 46.5,-123.5 46.5,-124.5"/>
</g>
<!-- client@4&#45;&gt;client@5 -->
<g id="edge8" class="edge">
<title>client@4&#45;&gt;client@5</title>
<path fill="none" stroke="darkgreen" stroke-width="3" d="M46,-149.93C46,-148.51 46,-126.44 46,-125.07"/>
</g>
<!-- client@6 -->
<g id="node12" class="node">
<title>client@6</title>
<polygon fill="none" stroke="darkgreen" stroke-width="2" points="46.5,-98 45.5,-98 45.5,-97 46.5,-97 46.5,-98"/>
</g>
<!-- client@5&#45;&gt;client@6 -->
<g id="edge9" class="edge">
<title>client@5&#45;&gt;client@6</title>
<path fill="none" stroke="darkgreen" stroke-width="3" d="M46,-122.93C46,-121.51 46,-99.44 46,-98.07"/>
</g>
<!-- client@6&#45;&gt;agent: server is invalid because: client&#45;1 is banned -->
<!-- client&#45;0@0 -->
<g id="node13" class="node">
<title>client&#45;0@0</title>
<polygon fill="none" stroke="darkgreen" stroke-width="2" points="148.5,-268.9 147.5,-268.9 147.5,-267.9 148.5,-267.9 148.5,-268.9"/>
</g>
<!-- client&#45;0@1 -->
<g id="node14" class="node">
<title>client&#45;0@1</title>
<polygon fill="palegreen" stroke="palegreen" points="175,-258.6 121,-258.6 121,-222.6 175,-222.6 175,-258.6"/>
<text text-anchor="middle" x="148" y="-236.9" font-family="Sans-Serif" font-size="14.00">idle</text>
</g>
<!-- client&#45;0@0&#45;&gt;client&#45;0@1 -->
<g id="edge11" class="edge">
<title>client&#45;0@0&#45;&gt;client&#45;0@1</title>
<path fill="none" stroke="darkgreen" stroke-width="3" d="M148,-267.33C148,-266.77 148,-263.15 148,-258.8"/>
</g>
<!-- client&#45;0@2 -->
<g id="node15" class="node">
<title>client&#45;0@2</title>
<polygon fill="none" stroke="darkgreen" stroke-width="2" points="148.5,-213.3 147.5,-213.3 147.5,-212.3 148.5,-212.3 148.5,-213.3"/>
</g>
<!-- client&#45;0@1&#45;&gt;client&#45;0@2 -->
<g id="edge12" class="edge">
<title>client&#45;0@1&#45;&gt;client&#45;0@2</title>
<path fill="none" stroke="darkgreen" stroke-width="3" d="M148,-222.53C148,-218.04 148,-214.3 148,-213.85"/>
</g>
<!-- client&#45;0@3 -->
<g id="node16" class="node">
<title>client&#45;0@3</title>
<polygon fill="none" stroke="darkgreen" stroke-width="2" points="148.5,-185.5 147.5,-185.5 147.5,-184.5 148.5,-184.5 148.5,-185.5"/>
</g>
<!-- client&#45;0@2&#45;&gt;client&#45;0@3 -->
<g id="edge13" class="edge">
<title>client&#45;0@2&#45;&gt;client&#45;0@3</title>
<path fill="none" stroke="darkgreen" stroke-width="3" d="M148,-211.73C148,-210.26 148,-187.49 148,-186.07"/>
</g>
<!-- client&#45;0@4 -->
<g id="node17" class="node">
<title>client&#45;0@4</title>
<polygon fill="none" stroke="darkgreen" stroke-width="2" points="148.5,-151 147.5,-151 147.5,-150 148.5,-150 148.5,-151"/>
</g>
<!-- client&#45;0@3&#45;&gt;client&#45;0@4 -->
<g id="edge14" class="edge">
<title>client&#45;0@3&#45;&gt;client&#45;0@4</title>
<path fill="none" stroke="darkgreen" stroke-width="3" d="M148,-183.91C148,-182.03 148,-152.91 148,-151.09"/>
</g>
<!-- client&#45;0@5 -->
<g id="node18" class="node">
<title>client&#45;0@5</title>
<polygon fill="none" stroke="darkgreen" stroke-width="2" points="148.5,-124.5 147.5,-124.5 147.5,-123.5 148.5,-123.5 148.5,-124.5"/>
</g>
<!-- client&#45;0@4&#45;&gt;client&#45;0@5 -->
<g id="edge15" class="edge">
<title>client&#45;0@4&#45;&gt;client&#45;0@5</title>
<path fill="none" stroke="darkgreen" stroke-width="3" d="M148,-149.93C148,-148.51 148,-126.44 148,-125.07"/>
</g>
<!-- client&#45;0@6 -->
<g id="node19" class="node">
<title>client&#45;0@6</title>
<polygon fill="none" stroke="darkgreen" stroke-width="2" points="148.5,-98 147.5,-98 147.5,-97 148.5,-97 148.5,-98"/>
</g>
<!-- client&#45;0@5&#45;&gt;client&#45;0@6 -->
<g id="edge16" class="edge">
<title>client&#45;0@5&#45;&gt;client&#45;0@6</title>
<path fill="none" stroke="darkgreen" stroke-width="3" d="M148,-122.93C148,-121.51 148,-99.44 148,-98.07"/>
</g>
<!-- client&#45;0@6&#45;&gt;agent: server is invalid because: client&#45;1 is banned -->
<!-- client&#45;1@0 -->
<g id="node20" class="node">
<title>client&#45;1@0</title>
<polygon fill="none" stroke="darkgreen" stroke-width="2" points="584.5,-268.9 583.5,-268.9 583.5,-267.9 584.5,-267.9 584.5,-268.9"/>
</g>
<!-- client&#45;1@1 -->
<g id="node21" class="node">
<title>client&#45;1@1</title>
<polygon fill="palegreen" stroke="palegreen" points="611,-258.6 557,-258.6 557,-222.6 611,-222.6 611,-258.6"/>
<text text-anchor="middle" x="584" y="-236.9" font-family="Sans-Serif" font-size="14.00">idle</text>
</g>
<!-- client&#45;1@0&#45;&gt;client&#45;1@1 -->
<g id="edge18" class="edge">
<title>client&#45;1@0&#45;&gt;client&#45;1@1</title>
<path fill="none" stroke="darkgreen" stroke-width="3" d="M584,-267.33C584,-266.77 584,-263.15 584,-258.8"/>
</g>
<!-- client&#45;1@2 -->
<g id="node22" class="node">
<title>client&#45;1@2</title>
<polygon fill="none" stroke="#0063cd" stroke-width="4" points="584.5,-213.3 583.5,-213.3 583.5,-212.3 584.5,-212.3 584.5,-213.3"/>
</g>
<!-- client&#45;1@1&#45;&gt;client&#45;1@2 -->
<g id="edge21" class="edge">
<title>client&#45;1@1&#45;&gt;client&#45;1@2</title>
<path fill="none" stroke="darkgreen" stroke-width="3" d="M584,-222.53C584,-218.04 584,-214.3 584,-213.85"/>
</g>
<!-- client&#45;1@2&#45;&gt;message&#45;0&#45;3 -->
<g id="edge19" class="edge">
<title>client&#45;1@2:c&#45;&gt;message&#45;0&#45;3:c</title>
<path fill="none" stroke="mediumblue" stroke-width="3" d="M583.95,-211.8C582.07,-211.74 521.22,-209.94 473,-203 472.4,-202.91 471.8,-202.83 471.19,-202.74"/>
<polygon fill="mediumblue" stroke="mediumblue" stroke-width="3" points="471.7,-199.27 461.27,-201.15 470.59,-206.18 471.7,-199.27"/>
</g>
<!-- client&#45;1@3 -->
<g id="node24" class="node">
<title>client&#45;1@3</title>
<polygon fill="palegreen" stroke="palegreen" points="613.5,-203 554.5,-203 554.5,-167 613.5,-167 613.5,-203"/>
<text text-anchor="middle" x="584" y="-181.3" font-family="Sans-Serif" font-size="14.00">wait / 1</text>
</g>
<!-- client&#45;1@2&#45;&gt;client&#45;1@3 -->
<g id="edge22" class="edge">
<title>client&#45;1@2&#45;&gt;client&#45;1@3</title>
<path fill="none" stroke="yellowgreen" stroke-width="3" d="M584,-211.73C584,-211.17 584,-207.55 584,-203.2"/>
</g>
<!-- client&#45;1&#45;time&#45;1 -->
<g id="node23" class="node">
<title>client&#45;1&#45;time&#45;1</title>
<polygon fill="paleturquoise" stroke="paleturquoise" points="539,-258.6 485,-258.6 485,-222.6 539,-222.6 539,-258.6"/>
<text text-anchor="middle" x="512" y="-236.9" font-family="Sans-Serif" font-size="14.00">time</text>
</g>
<!-- client&#45;1&#45;time&#45;1&#45;&gt;client&#45;1@2 -->
<g id="edge20" class="edge">
<title>client&#45;1&#45;time&#45;1:c&#45;&gt;client&#45;1@2:c</title>
<path fill="none" stroke="mediumblue" stroke-width="3" d="M539.28,-226.02C542.19,-224.78 545.13,-223.62 548,-222.6 556.58,-219.56 566.67,-217.19 573.98,-215.68"/>
<polygon fill="mediumblue" stroke="mediumblue" stroke-width="3" points="574.76,-219.1 583.94,-213.81 573.47,-212.22 574.76,-219.1"/>
</g>
<!-- client&#45;1@4 -->
<g id="node25" class="node">
<title>client&#45;1@4</title>
<polygon fill="none" stroke="yellowgreen" stroke-width="2" points="584.5,-151 583.5,-151 583.5,-150 584.5,-150 584.5,-151"/>
</g>
<!-- client&#45;1@3&#45;&gt;client&#45;1@4 -->
<g id="edge23" class="edge">
<title>client&#45;1@3&#45;&gt;client&#45;1@4</title>
<path fill="none" stroke="yellowgreen" stroke-width="3" d="M584,-166.73C584,-159.24 584,-151.97 584,-151.09"/>
</g>
<!-- client&#45;1@5 -->
<g id="node26" class="node">
<title>client&#45;1@5</title>
<polygon fill="none" stroke="yellowgreen" stroke-width="2" points="584.5,-124.5 583.5,-124.5 583.5,-123.5 584.5,-123.5 584.5,-124.5"/>
</g>
<!-- client&#45;1@4&#45;&gt;client&#45;1@5 -->
<g id="edge24" class="edge">
<title>client&#45;1@4&#45;&gt;client&#45;1@5</title>
<path fill="none" stroke="yellowgreen" stroke-width="3" d="M584,-149.93C584,-148.51 584,-126.44 584,-125.07"/>
</g>
<!-- client&#45;1@6 -->
<g id="node27" class="node">
<title>client&#45;1@6</title>
<polygon fill="none" stroke="yellowgreen" stroke-width="2" points="584.5,-98 583.5,-98 583.5,-97 584.5,-97 584.5,-98"/>
</g>
<!-- client&#45;1@5&#45;&gt;client&#45;1@6 -->
<g id="edge25" class="edge">
<title>client&#45;1@5&#45;&gt;client&#45;1@6</title>
<path fill="none" stroke="yellowgreen" stroke-width="3" d="M584,-122.93C584,-121.51 584,-99.44 584,-98.07"/>
</g>
<!-- client&#45;1@6&#45;&gt;agent: server is invalid because: client&#45;1 is banned -->
<!-- server@0 -->
<g id="node28" class="node">
<title>server@0</title>
<polygon fill="none" stroke="darkgreen" stroke-width="2" points="249.5,-268.9 248.5,-268.9 248.5,-267.9 249.5,-267.9 249.5,-268.9"/>
</g>
<!-- server@1 -->
<g id="node29" class="node">
<title>server@1</title>
<polygon fill="palegreen" stroke="palegreen" points="276,-258.6 222,-258.6 222,-222.6 276,-222.6 276,-258.6"/>
<text text-anchor="middle" x="249" y="-236.9" font-family="Sans-Serif" font-size="14.00">ready</text>
</g>
<!-- server@0&#45;&gt;server@1 -->
<g id="edge27" class="edge">
<title>server@0&#45;&gt;server@1</title>
<path fill="none" stroke="darkgreen" stroke-width="3" d="M249,-267.33C249,-266.77 249,-263.15 249,-258.8"/>
</g>
<!-- server@2 -->
<g id="node30" class="node">
<title>server@2</title>
<polygon fill="none" stroke="darkgreen" stroke-width="2" points="249.5,-213.3 248.5,-213.3 248.5,-212.3 249.5,-212.3 249.5,-213.3"/>
</g>
<!-- server@1&#45;&gt;server@2 -->
<g id="edge28" class="edge">
<title>server@1&#45;&gt;server@2</title>
<path fill="none" stroke="darkgreen" stroke-width="3" d="M249,-222.53C249,-218.04 249,-214.3 249,-213.85"/>
</g>
<!-- server@3 -->
<g id="node31" class="node">
<title>server@3</title>
<polygon fill="none" stroke="darkgreen" stroke-width="2" points="249.5,-185.5 248.5,-185.5 248.5,-184.5 249.5,-184.5 249.5,-185.5"/>
</g>
<!-- server@2&#45;&gt;server@3 -->
<g id="edge29" class="edge">
<title>server@2&#45;&gt;server@3</title>
<path fill="none" stroke="darkgreen" stroke-width="3" d="M249,-211.73C249,-210.26 249,-187.49 249,-186.07"/>
</g>
<!-- server@3&#45;&gt;server@4 -->
<g id="edge31" class="edge">
<title>server@3&#45;&gt;server@4</title>
<path fill="none" stroke="darkgreen" stroke-width="3" d="M249,-183.91C249,-182.03 249,-152.91 249,-151.09"/>
</g>
<!-- server@5 -->
<g id="node33" class="node">
<title>server@5</title>
<polygon fill="palegreen" stroke="palegreen" points="299,-142 199,-142 199,-106 299,-106 299,-142"/>
<text text-anchor="middle" x="249" y="-120.3" font-family="Sans-Serif" font-size="14.00">busy / client&#45;1</text>
</g>
<!-- server@4&#45;&gt;server@5 -->
<g id="edge32" class="edge">
<title>server@4&#45;&gt;server@5</title>
<path fill="none" stroke="purple" stroke-width="6" d="M249,-149.93C249,-149.41 249,-146.18 249,-142.2"/>
</g>
<!-- server@6 -->
<g id="node34" class="node">
<title>server@6</title>
<polygon fill="none" stroke="purple" stroke-width="5" points="249.5,-98 248.5,-98 248.5,-97 249.5,-97 249.5,-98"/>
</g>
<!-- server@5&#45;&gt;server@6 -->
<g id="edge33" class="edge">
<title>server@5&#45;&gt;server@6</title>
<path fill="none" stroke="purple" stroke-width="6" d="M249,-105.91C249,-102.06 249,-98.89 249,-98.16"/>
</g>
<!-- server@6&#45;&gt;agent: server is invalid because: client&#45;1 is banned -->
<g id="edge34" class="edge">
<title>server@6&#45;&gt;agent: server is invalid because: client&#45;1 is banned</title>
<path fill="none" stroke="crimson" stroke-width="3" d="M249,-96.4C249,-95.99 249,-94.24 249,-91.75"/>
<polygon fill="crimson" stroke="crimson" stroke-width="3" points="252.5,-91.24 249,-81.24 245.5,-91.24 252.5,-91.24"/>
</g>
</g>
</svg>
