<?xml version="1.0" encoding="UTF-8" standalone="no"?>
<!DOCTYPE svg PUBLIC "-//W3C//DTD SVG 1.1//EN"
 "http://www.w3.org/Graphics/SVG/1.1/DTD/svg11.dtd">
<!-- Generated by graphviz version 2.46.0 (0)
 -->
<!-- Title: G Pages: 1 -->
<svg width="829pt" height="615pt"
 viewBox="0.00 0.00 829.00 614.90" xmlns="http://www.w3.org/2000/svg" xmlns:xlink="http://www.w3.org/1999/xlink">
<g id="graph0" class="graph" transform="scale(1 1) rotate(0) translate(4 610.9)">
<title>G</title>
<polygon fill="white" stroke="transparent" points="-4,4 -4,-610.9 825,-610.9 825,4 -4,4"/>
<text text-anchor="middle" x="410.5" y="-13.4" font-family="Sans-Serif" font-size="32.00">Client&#45;Server</text>
<g id="clust1" class="cluster">
<title>cluster_between_client&#45;0_and_server</title>
<polygon fill="none" stroke="white" points="261,-138.5 261,-558.2 601,-558.2 601,-138.5 261,-138.5"/>
</g>
<g id="clust2" class="cluster">
<title>cluster_between_0</title>
<polygon fill="none" stroke="white" points="609,-51 609,-598.9 813,-598.9 813,-51 609,-51"/>
</g>
<g id="clust3" class="cluster">
<title>cluster_agent_server</title>
<polygon fill="none" stroke="white" points="617,-59 617,-590.9 805,-590.9 805,-59 617,-59"/>
<text text-anchor="middle" x="711" y="-567.7" font-family="Sans-Serif" font-size="24.00">server</text>
</g>
<g id="clust4" class="cluster">
<title>cluster_between_1</title>
<polygon fill="none" stroke="white" points="8,-51 8,-598.9 253,-598.9 253,-51 8,-51"/>
</g>
<g id="clust5" class="cluster">
<title>cluster_agent_client</title>
<polygon fill="none" stroke="white" points="16,-59 16,-590.9 89,-590.9 89,-59 16,-59"/>
<text text-anchor="middle" x="52.5" y="-567.7" font-family="Sans-Serif" font-size="24.00">client</text>
</g>
<g id="clust6" class="cluster">
<title>cluster_agent_client&#45;0</title>
<polygon fill="none" stroke="white" points="97,-59 97,-590.9 245,-590.9 245,-59 97,-59"/>
<text text-anchor="middle" x="171" y="-567.7" font-family="Sans-Serif" font-size="24.00">client&#45;0</text>
</g>
<!-- message&#45;0&#45;0 -->
<!-- message&#45;0&#45;1 -->
<!-- message&#45;0&#45;0&#45;&gt;message&#45;0&#45;1 -->
<!-- message&#45;0&#45;2 -->
<!-- message&#45;0&#45;1&#45;&gt;message&#45;0&#45;2 -->
<!-- message&#45;0&#45;3 -->
<g id="node4" class="node">
<title>message&#45;0&#45;3</title>
<polygon fill="paleturquoise" stroke="paleturquoise" points="593,-483 455,-483 455,-447 593,-447 593,-483"/>
<text text-anchor="middle" x="524" y="-461.3" font-family="Sans-Serif" font-size="14.00">request@0 / client&#45;0</text>
</g>
<!-- message&#45;0&#45;2&#45;&gt;message&#45;0&#45;3 -->
<!-- message&#45;0&#45;4 -->
<g id="node5" class="node">
<title>message&#45;0&#45;4</title>
<polygon fill="none" stroke="mediumblue" stroke-width="2" points="524.5,-439 523.5,-439 523.5,-438 524.5,-438 524.5,-439"/>
</g>
<!-- message&#45;0&#45;3&#45;&gt;message&#45;0&#45;4 -->
<g id="edge4" class="edge">
<title>message&#45;0&#45;3&#45;&gt;message&#45;0&#45;4</title>
<path fill="none" stroke="mediumblue" stroke-width="3" d="M524,-446.91C524,-443.06 524,-439.89 524,-439.16"/>
</g>
<!-- message&#45;0&#45;5 -->
<g id="node6" class="node">
<title>message&#45;0&#45;5</title>
<polygon fill="none" stroke="mediumblue" stroke-width="2" points="524.5,-412.5 523.5,-412.5 523.5,-411.5 524.5,-411.5 524.5,-412.5"/>
</g>
<!-- message&#45;0&#45;4&#45;&gt;message&#45;0&#45;5 -->
<g id="edge5" class="edge">
<title>message&#45;0&#45;4&#45;&gt;message&#45;0&#45;5</title>
<path fill="none" stroke="mediumblue" stroke-width="3" d="M524,-437.93C524,-436.51 524,-414.44 524,-413.07"/>
</g>
<!-- message&#45;1&#45;5 -->
<g id="node7" class="node">
<title>message&#45;1&#45;5</title>
<polygon fill="paleturquoise" stroke="paleturquoise" points="505,-430 367,-430 367,-394 505,-394 505,-430"/>
<text text-anchor="middle" x="436" y="-408.3" font-family="Sans-Serif" font-size="14.00">request@1 / client&#45;0</text>
</g>
<!-- message&#45;0&#45;4&#45;&gt;message&#45;1&#45;5 -->
<!-- server@6 -->
<g id="node26" class="node">
<title>server@6</title>
<polygon fill="none" stroke="#0063cd" stroke-width="4" points="747.5,-386 746.5,-386 746.5,-385 747.5,-385 747.5,-386"/>
</g>
<!-- message&#45;0&#45;5&#45;&gt;server@6 -->
<g id="edge24" class="edge">
<title>message&#45;0&#45;5:c&#45;&gt;server@6:c</title>
<path fill="none" stroke="mediumblue" stroke-width="3" d="M524.14,-410.97C527.06,-410.26 574.29,-398.83 613,-394 658.98,-388.26 714.38,-386.61 736.82,-386.16"/>
<polygon fill="mediumblue" stroke="mediumblue" stroke-width="3" points="737,-389.66 746.95,-386 736.89,-382.66 737,-389.66"/>
</g>
<!-- message&#45;1&#45;6 -->
<g id="node8" class="node">
<title>message&#45;1&#45;6</title>
<polygon fill="none" stroke="mediumblue" stroke-width="2" points="436.5,-386 435.5,-386 435.5,-385 436.5,-385 436.5,-386"/>
</g>
<!-- message&#45;1&#45;5&#45;&gt;message&#45;1&#45;6 -->
<g id="edge7" class="edge">
<title>message&#45;1&#45;5&#45;&gt;message&#45;1&#45;6</title>
<path fill="none" stroke="mediumblue" stroke-width="3" d="M436,-393.91C436,-390.06 436,-386.89 436,-386.16"/>
</g>
<!-- message&#45;1&#45;7 -->
<g id="node9" class="node">
<title>message&#45;1&#45;7</title>
<polygon fill="none" stroke="mediumblue" stroke-width="2" points="436.5,-359.5 435.5,-359.5 435.5,-358.5 436.5,-358.5 436.5,-359.5"/>
</g>
<!-- message&#45;1&#45;6&#45;&gt;message&#45;1&#45;7 -->
<g id="edge8" class="edge">
<title>message&#45;1&#45;6&#45;&gt;message&#45;1&#45;7</title>
<path fill="none" stroke="mediumblue" stroke-width="3" d="M436,-384.93C436,-383.51 436,-361.44 436,-360.07"/>
</g>
<!-- message&#45;1&#45;8 -->
<g id="node10" class="node">
<title>message&#45;1&#45;8</title>
<polygon fill="none" stroke="mediumblue" stroke-width="2" points="436.5,-333 435.5,-333 435.5,-332 436.5,-332 436.5,-333"/>
</g>
<!-- message&#45;1&#45;7&#45;&gt;message&#45;1&#45;8 -->
<g id="edge9" class="edge">
<title>message&#45;1&#45;7&#45;&gt;message&#45;1&#45;8</title>
<path fill="none" stroke="mediumblue" stroke-width="3" d="M436,-357.93C436,-356.51 436,-334.44 436,-333.07"/>
</g>
<!-- message&#45;1&#45;9 -->
<g id="node11" class="node">
<title>message&#45;1&#45;9</title>
<polygon fill="none" stroke="mediumblue" stroke-width="2" points="436.5,-306.5 435.5,-306.5 435.5,-305.5 436.5,-305.5 436.5,-306.5"/>
</g>
<!-- message&#45;1&#45;8&#45;&gt;message&#45;1&#45;9 -->
<g id="edge10" class="edge">
<title>message&#45;1&#45;8&#45;&gt;message&#45;1&#45;9</title>
<path fill="none" stroke="mediumblue" stroke-width="3" d="M436,-331.93C436,-330.51 436,-308.44 436,-307.07"/>
</g>
<!-- message&#45;2&#45;9 -->
<g id="node12" class="node">
<title>message&#45;2&#45;9</title>
<polygon fill="paleturquoise" stroke="paleturquoise" points="417.5,-324 268.5,-324 268.5,-288 417.5,-288 417.5,-324"/>
<text text-anchor="middle" x="343" y="-302.3" font-family="Sans-Serif" font-size="14.00">response@0 / client&#45;0</text>
</g>
<!-- message&#45;1&#45;8&#45;&gt;message&#45;2&#45;9 -->
<!-- server@10 -->
<g id="node31" class="node">
<title>server@10</title>
<polygon fill="none" stroke="#0063cd" stroke-width="4" points="747.5,-280 746.5,-280 746.5,-279 747.5,-279 747.5,-280"/>
</g>
<!-- message&#45;1&#45;9&#45;&gt;server@10 -->
<g id="edge31" class="edge">
<title>message&#45;1&#45;9:c&#45;&gt;server@10:c</title>
<path fill="none" stroke="mediumblue" stroke-width="3" d="M436.07,-304.99C439.06,-304.66 535.44,-294.04 613,-288 659.2,-284.4 714.47,-281.57 736.85,-280.48"/>
<polygon fill="mediumblue" stroke="mediumblue" stroke-width="3" points="737.12,-283.97 746.95,-280 736.79,-276.98 737.12,-283.97"/>
</g>
<!-- message&#45;2&#45;10 -->
<g id="node13" class="node">
<title>message&#45;2&#45;10</title>
<polygon fill="none" stroke="mediumblue" stroke-width="2" points="343.5,-280 342.5,-280 342.5,-279 343.5,-279 343.5,-280"/>
</g>
<!-- message&#45;2&#45;9&#45;&gt;message&#45;2&#45;10 -->
<g id="edge12" class="edge">
<title>message&#45;2&#45;9&#45;&gt;message&#45;2&#45;10</title>
<path fill="none" stroke="mediumblue" stroke-width="3" d="M343,-287.91C343,-284.06 343,-280.89 343,-280.16"/>
</g>
<!-- message&#45;2&#45;11 -->
<g id="node14" class="node">
<title>message&#45;2&#45;11</title>
<polygon fill="none" stroke="mediumblue" stroke-width="2" points="343.5,-253.5 342.5,-253.5 342.5,-252.5 343.5,-252.5 343.5,-253.5"/>
</g>
<!-- message&#45;2&#45;10&#45;&gt;message&#45;2&#45;11 -->
<g id="edge13" class="edge">
<title>message&#45;2&#45;10&#45;&gt;message&#45;2&#45;11</title>
<path fill="none" stroke="mediumblue" stroke-width="3" d="M343,-278.93C343,-277.51 343,-255.44 343,-254.07"/>
</g>
<!-- message&#45;2&#45;12 -->
<g id="node15" class="node">
<title>message&#45;2&#45;12</title>
<polygon fill="none" stroke="mediumblue" stroke-width="2" points="343.5,-227 342.5,-227 342.5,-226 343.5,-226 343.5,-227"/>
</g>
<!-- message&#45;2&#45;11&#45;&gt;message&#45;2&#45;12 -->
<g id="edge14" class="edge">
<title>message&#45;2&#45;11&#45;&gt;message&#45;2&#45;12</title>
<path fill="none" stroke="mediumblue" stroke-width="3" d="M343,-251.93C343,-250.51 343,-228.44 343,-227.07"/>
</g>
<!-- message&#45;2&#45;13 -->
<g id="node16" class="node">
<title>message&#45;2&#45;13</title>
<polygon fill="none" stroke="mediumblue" stroke-width="2" points="343.5,-200.5 342.5,-200.5 342.5,-199.5 343.5,-199.5 343.5,-200.5"/>
</g>
<!-- message&#45;2&#45;12&#45;&gt;message&#45;2&#45;13 -->
<g id="edge15" class="edge">
<title>message&#45;2&#45;12&#45;&gt;message&#45;2&#45;13</title>
<path fill="none" stroke="mediumblue" stroke-width="3" d="M343,-225.93C343,-224.51 343,-202.44 343,-201.07"/>
</g>
<!-- message&#45;3&#45;13 -->
<g id="node17" class="node">
<title>message&#45;3&#45;13</title>
<polygon fill="paleturquoise" stroke="paleturquoise" points="510.5,-218 361.5,-218 361.5,-182 510.5,-182 510.5,-218"/>
<text text-anchor="middle" x="436" y="-196.3" font-family="Sans-Serif" font-size="14.00">response@1 / client&#45;0</text>
</g>
<!-- message&#45;2&#45;12&#45;&gt;message&#45;3&#45;13 -->
<!-- client&#45;0@14 -->
<g id="node76" class="node">
<title>client&#45;0@14</title>
<polygon fill="none" stroke="#0063cd" stroke-width="4" points="207.5,-174 206.5,-174 206.5,-173 207.5,-173 207.5,-174"/>
</g>
<!-- message&#45;2&#45;13&#45;&gt;client&#45;0@14 -->
<g id="edge78" class="edge">
<title>message&#45;2&#45;13:c&#45;&gt;client&#45;0@14:c</title>
<path fill="none" stroke="mediumblue" stroke-width="3" d="M342.9,-198.98C339.48,-198.35 247.99,-181.54 217.09,-175.85"/>
<polygon fill="mediumblue" stroke="mediumblue" stroke-width="3" points="217.56,-172.38 207.1,-174.02 216.3,-179.27 217.56,-172.38"/>
</g>
<!-- message&#45;3&#45;14 -->
<g id="node18" class="node">
<title>message&#45;3&#45;14</title>
<polygon fill="none" stroke="mediumblue" stroke-width="2" points="436.5,-174 435.5,-174 435.5,-173 436.5,-173 436.5,-174"/>
</g>
<!-- message&#45;3&#45;13&#45;&gt;message&#45;3&#45;14 -->
<g id="edge17" class="edge">
<title>message&#45;3&#45;13&#45;&gt;message&#45;3&#45;14</title>
<path fill="none" stroke="mediumblue" stroke-width="3" d="M436,-181.91C436,-178.06 436,-174.89 436,-174.16"/>
</g>
<!-- message&#45;3&#45;15 -->
<g id="node19" class="node">
<title>message&#45;3&#45;15</title>
<polygon fill="none" stroke="mediumblue" stroke-width="2" points="436.5,-147.5 435.5,-147.5 435.5,-146.5 436.5,-146.5 436.5,-147.5"/>
</g>
<!-- message&#45;3&#45;14&#45;&gt;message&#45;3&#45;15 -->
<g id="edge18" class="edge">
<title>message&#45;3&#45;14&#45;&gt;message&#45;3&#45;15</title>
<path fill="none" stroke="mediumblue" stroke-width="3" d="M436,-172.93C436,-171.51 436,-149.44 436,-148.07"/>
</g>
<!-- client&#45;0@16 -->
<g id="node78" class="node">
<title>client&#45;0@16</title>
<polygon fill="none" stroke="#0063cd" stroke-width="4" points="207.5,-121 206.5,-121 206.5,-120 207.5,-120 207.5,-121"/>
</g>
<!-- message&#45;3&#45;15&#45;&gt;client&#45;0@16 -->
<g id="edge81" class="edge">
<title>message&#45;3&#45;15:c&#45;&gt;client&#45;0@16:c</title>
<path fill="none" stroke="mediumblue" stroke-width="3" d="M435.83,-145.98C429.79,-145.32 260.7,-126.86 217.15,-122.11"/>
<polygon fill="mediumblue" stroke="mediumblue" stroke-width="3" points="217.48,-118.62 207.16,-121.02 216.72,-125.58 217.48,-118.62"/>
</g>
<!-- server@0 -->
<g id="node20" class="node">
<title>server@0</title>
<polygon fill="none" stroke="darkgreen" stroke-width="2" points="747.5,-548.9 746.5,-548.9 746.5,-547.9 747.5,-547.9 747.5,-548.9"/>
</g>
<!-- server@1 -->
<g id="node21" class="node">
<title>server@1</title>
<polygon fill="palegreen" stroke="palegreen" points="774,-538.6 720,-538.6 720,-502.6 774,-502.6 774,-538.6"/>
<text text-anchor="middle" x="747" y="-516.9" font-family="Sans-Serif" font-size="14.00">ready</text>
</g>
<!-- server@0&#45;&gt;server@1 -->
<g id="edge19" class="edge">
<title>server@0&#45;&gt;server@1</title>
<path fill="none" stroke="darkgreen" stroke-width="3" d="M747,-547.33C747,-546.77 747,-543.15 747,-538.8"/>
</g>
<!-- server@2 -->
<g id="node22" class="node">
<title>server@2</title>
<polygon fill="none" stroke="darkgreen" stroke-width="2" points="747.5,-493.3 746.5,-493.3 746.5,-492.3 747.5,-492.3 747.5,-493.3"/>
</g>
<!-- server@1&#45;&gt;server@2 -->
<g id="edge20" class="edge">
<title>server@1&#45;&gt;server@2</title>
<path fill="none" stroke="darkgreen" stroke-width="3" d="M747,-502.53C747,-498.04 747,-494.3 747,-493.85"/>
</g>
<!-- server@3 -->
<g id="node23" class="node">
<title>server@3</title>
<polygon fill="none" stroke="darkgreen" stroke-width="2" points="747.5,-465.5 746.5,-465.5 746.5,-464.5 747.5,-464.5 747.5,-465.5"/>
</g>
<!-- server@2&#45;&gt;server@3 -->
<g id="edge21" class="edge">
<title>server@2&#45;&gt;server@3</title>
<path fill="none" stroke="darkgreen" stroke-width="3" d="M747,-491.73C747,-490.26 747,-467.49 747,-466.07"/>
</g>
<!-- server@4 -->
<g id="node24" class="node">
<title>server@4</title>
<polygon fill="none" stroke="darkgreen" stroke-width="2" points="747.5,-439 746.5,-439 746.5,-438 747.5,-438 747.5,-439"/>
</g>
<!-- server@3&#45;&gt;server@4 -->
<g id="edge22" class="edge">
<title>server@3&#45;&gt;server@4</title>
<path fill="none" stroke="darkgreen" stroke-width="3" d="M747,-463.93C747,-462.51 747,-440.44 747,-439.07"/>
</g>
<!-- server@5 -->
<g id="node25" class="node">
<title>server@5</title>
<polygon fill="none" stroke="darkgreen" stroke-width="2" points="747.5,-412.5 746.5,-412.5 746.5,-411.5 747.5,-411.5 747.5,-412.5"/>
</g>
<!-- server@4&#45;&gt;server@5 -->
<g id="edge23" class="edge">
<title>server@4&#45;&gt;server@5</title>
<path fill="none" stroke="darkgreen" stroke-width="3" d="M747,-437.93C747,-436.51 747,-414.44 747,-413.07"/>
</g>
<!-- server@5&#45;&gt;server@6 -->
<g id="edge25" class="edge">
<title>server@5&#45;&gt;server@6</title>
<path fill="none" stroke="darkgreen" stroke-width="3" d="M747,-410.93C747,-409.51 747,-387.44 747,-386.07"/>
</g>
<!-- server@7 -->
<g id="node27" class="node">
<title>server@7</title>
<polygon fill="palegreen" stroke="palegreen" points="797,-377 697,-377 697,-341 797,-341 797,-377"/>
<text text-anchor="middle" x="747" y="-355.3" font-family="Sans-Serif" font-size="14.00">busy / client&#45;0</text>
</g>
<!-- server@6&#45;&gt;server@7 -->
<g id="edge26" class="edge">
<title>server@6&#45;&gt;server@7</title>
<path fill="none" stroke="purple" stroke-width="6" d="M747,-384.93C747,-384.41 747,-381.18 747,-377.2"/>
</g>
<!-- server@8 -->
<g id="node28" class="node">
<title>server@8</title>
<polygon fill="none" stroke="#0063cd" stroke-width="7" points="747.5,-333 746.5,-333 746.5,-332 747.5,-332 747.5,-333"/>
</g>
<!-- server@7&#45;&gt;server@8 -->
<g id="edge29" class="edge">
<title>server@7&#45;&gt;server@8</title>
<path fill="none" stroke="purple" stroke-width="6" d="M747,-340.91C747,-337.06 747,-333.89 747,-333.16"/>
</g>
<!-- server@8&#45;&gt;message&#45;2&#45;9 -->
<g id="edge27" class="edge">
<title>server@8:c&#45;&gt;message&#45;2&#45;9:c</title>
<path fill="none" stroke="mediumblue" stroke-width="3" d="M746.95,-332C743.27,-332 515.98,-331.92 427.61,-323.82"/>
<polygon fill="mediumblue" stroke="mediumblue" stroke-width="3" points="427.85,-320.32 417.55,-322.79 427.14,-327.29 427.85,-320.32"/>
</g>
<!-- server@9 -->
<g id="node30" class="node">
<title>server@9</title>
<polygon fill="palegreen" stroke="palegreen" points="774,-324 720,-324 720,-288 774,-288 774,-324"/>
<text text-anchor="middle" x="747" y="-302.3" font-family="Sans-Serif" font-size="14.00">ready</text>
</g>
<!-- server@8&#45;&gt;server@9 -->
<g id="edge30" class="edge">
<title>server@8&#45;&gt;server@9</title>
<path fill="none" stroke="darkgreen" stroke-width="3" d="M747,-331.93C747,-331.41 747,-328.18 747,-324.2"/>
</g>
<!-- server&#45;time&#45;7 -->
<g id="node29" class="node">
<title>server&#45;time&#45;7</title>
<polygon fill="paleturquoise" stroke="paleturquoise" points="679,-377 625,-377 625,-341 679,-341 679,-377"/>
<text text-anchor="middle" x="652" y="-355.3" font-family="Sans-Serif" font-size="14.00">time</text>
</g>
<!-- server&#45;time&#45;7&#45;&gt;server@8 -->
<g id="edge28" class="edge">
<title>server&#45;time&#45;7:c&#45;&gt;server@8:c</title>
<path fill="none" stroke="mediumblue" stroke-width="3" d="M679.18,-344.11C682.11,-342.93 685.08,-341.86 688,-341 712.58,-333.72 744.91,-333.04 746.9,-333"/>
</g>
<!-- server@9&#45;&gt;server@10 -->
<g id="edge32" class="edge">
<title>server@9&#45;&gt;server@10</title>
<path fill="none" stroke="darkgreen" stroke-width="3" d="M747,-287.91C747,-284.06 747,-280.89 747,-280.16"/>
</g>
<!-- server@11 -->
<g id="node32" class="node">
<title>server@11</title>
<polygon fill="palegreen" stroke="palegreen" points="797,-271 697,-271 697,-235 797,-235 797,-271"/>
<text text-anchor="middle" x="747" y="-249.3" font-family="Sans-Serif" font-size="14.00">busy / client&#45;0</text>
</g>
<!-- server@10&#45;&gt;server@11 -->
<g id="edge33" class="edge">
<title>server@10&#45;&gt;server@11</title>
<path fill="none" stroke="purple" stroke-width="6" d="M747,-278.93C747,-278.41 747,-275.18 747,-271.2"/>
</g>
<!-- server@12 -->
<g id="node33" class="node">
<title>server@12</title>
<polygon fill="none" stroke="#0063cd" stroke-width="7" points="747.5,-227 746.5,-227 746.5,-226 747.5,-226 747.5,-227"/>
</g>
<!-- server@11&#45;&gt;server@12 -->
<g id="edge36" class="edge">
<title>server@11&#45;&gt;server@12</title>
<path fill="none" stroke="purple" stroke-width="6" d="M747,-234.91C747,-231.06 747,-227.89 747,-227.16"/>
</g>
<!-- server@12&#45;&gt;message&#45;3&#45;13 -->
<g id="edge34" class="edge">
<title>server@12:c&#45;&gt;message&#45;3&#45;13:c</title>
<path fill="none" stroke="mediumblue" stroke-width="3" d="M746.95,-226C744.67,-225.89 671.55,-222.56 613,-218 582.99,-215.66 550.16,-212.64 521.02,-209.79"/>
<polygon fill="mediumblue" stroke="mediumblue" stroke-width="3" points="521.17,-206.29 510.88,-208.8 520.48,-213.26 521.17,-206.29"/>
</g>
<!-- server@13 -->
<g id="node35" class="node">
<title>server@13</title>
<polygon fill="palegreen" stroke="palegreen" points="774,-218 720,-218 720,-182 774,-182 774,-218"/>
<text text-anchor="middle" x="747" y="-196.3" font-family="Sans-Serif" font-size="14.00">ready</text>
</g>
<!-- server@12&#45;&gt;server@13 -->
<g id="edge37" class="edge">
<title>server@12&#45;&gt;server@13</title>
<path fill="none" stroke="darkgreen" stroke-width="3" d="M747,-225.93C747,-225.41 747,-222.18 747,-218.2"/>
</g>
<!-- server&#45;time&#45;11 -->
<g id="node34" class="node">
<title>server&#45;time&#45;11</title>
<polygon fill="paleturquoise" stroke="paleturquoise" points="679,-271 625,-271 625,-235 679,-235 679,-271"/>
<text text-anchor="middle" x="652" y="-249.3" font-family="Sans-Serif" font-size="14.00">time</text>
</g>
<!-- server&#45;time&#45;11&#45;&gt;server@12 -->
<g id="edge35" class="edge">
<title>server&#45;time&#45;11:c&#45;&gt;server@12:c</title>
<path fill="none" stroke="mediumblue" stroke-width="3" d="M679.18,-238.11C682.11,-236.93 685.08,-235.86 688,-235 712.58,-227.72 744.91,-227.04 746.9,-227"/>
</g>
<!-- server@14 -->
<g id="node36" class="node">
<title>server@14</title>
<polygon fill="none" stroke="darkgreen" stroke-width="2" points="747.5,-174 746.5,-174 746.5,-173 747.5,-173 747.5,-174"/>
</g>
<!-- server@13&#45;&gt;server@14 -->
<g id="edge38" class="edge">
<title>server@13&#45;&gt;server@14</title>
<path fill="none" stroke="darkgreen" stroke-width="3" d="M747,-181.91C747,-178.06 747,-174.89 747,-174.16"/>
</g>
<!-- server@15 -->
<g id="node37" class="node">
<title>server@15</title>
<polygon fill="none" stroke="darkgreen" stroke-width="2" points="747.5,-147.5 746.5,-147.5 746.5,-146.5 747.5,-146.5 747.5,-147.5"/>
</g>
<!-- server@14&#45;&gt;server@15 -->
<g id="edge39" class="edge">
<title>server@14&#45;&gt;server@15</title>
<path fill="none" stroke="darkgreen" stroke-width="3" d="M747,-172.93C747,-171.51 747,-149.44 747,-148.07"/>
</g>
<!-- server@16 -->
<g id="node38" class="node">
<title>server@16</title>
<polygon fill="none" stroke="darkgreen" stroke-width="2" points="747.5,-121 746.5,-121 746.5,-120 747.5,-120 747.5,-121"/>
</g>
<!-- server@15&#45;&gt;server@16 -->
<g id="edge40" class="edge">
<title>server@15&#45;&gt;server@16</title>
<path fill="none" stroke="darkgreen" stroke-width="3" d="M747,-145.93C747,-144.51 747,-122.44 747,-121.07"/>
</g>
<!-- server@17 -->
<g id="node39" class="node">
<title>server@17</title>
<polygon fill="none" stroke="darkgreen" stroke-width="2" points="747.5,-94.5 746.5,-94.5 746.5,-93.5 747.5,-93.5 747.5,-94.5"/>
</g>
<!-- server@16&#45;&gt;server@17 -->
<g id="edge41" class="edge">
<title>server@16&#45;&gt;server@17</title>
<path fill="none" stroke="darkgreen" stroke-width="3" d="M747,-119.93C747,-118.51 747,-96.44 747,-95.07"/>
</g>
<!-- server@18 -->
<g id="node40" class="node">
<title>server@18</title>
<polygon fill="none" stroke="darkgreen" stroke-width="2" points="747.5,-68 746.5,-68 746.5,-67 747.5,-67 747.5,-68"/>
</g>
<!-- server@17&#45;&gt;server@18 -->
<g id="edge42" class="edge">
<title>server@17&#45;&gt;server@18</title>
<path fill="none" stroke="darkgreen" stroke-width="3" d="M747,-92.93C747,-91.51 747,-69.44 747,-68.07"/>
</g>
<!-- client@0 -->
<g id="node41" class="node">
<title>client@0</title>
<polygon fill="none" stroke="darkgreen" stroke-width="2" points="52.5,-548.9 51.5,-548.9 51.5,-547.9 52.5,-547.9 52.5,-548.9"/>
</g>
<!-- client@1 -->
<g id="node42" class="node">
<title>client@1</title>
<polygon fill="palegreen" stroke="palegreen" points="79,-538.6 25,-538.6 25,-502.6 79,-502.6 79,-538.6"/>
<text text-anchor="middle" x="52" y="-516.9" font-family="Sans-Serif" font-size="14.00">idle</text>
</g>
<!-- client@0&#45;&gt;client@1 -->
<g id="edge43" class="edge">
<title>client@0&#45;&gt;client@1</title>
<path fill="none" stroke="darkgreen" stroke-width="3" d="M52,-547.33C52,-546.77 52,-543.15 52,-538.8"/>
</g>
<!-- client@2 -->
<g id="node43" class="node">
<title>client@2</title>
<polygon fill="none" stroke="darkgreen" stroke-width="2" points="52.5,-493.3 51.5,-493.3 51.5,-492.3 52.5,-492.3 52.5,-493.3"/>
</g>
<!-- client@1&#45;&gt;client@2 -->
<g id="edge44" class="edge">
<title>client@1&#45;&gt;client@2</title>
<path fill="none" stroke="darkgreen" stroke-width="3" d="M52,-502.53C52,-498.04 52,-494.3 52,-493.85"/>
</g>
<!-- client@3 -->
<g id="node44" class="node">
<title>client@3</title>
<polygon fill="none" stroke="darkgreen" stroke-width="2" points="52.5,-465.5 51.5,-465.5 51.5,-464.5 52.5,-464.5 52.5,-465.5"/>
</g>
<!-- client@2&#45;&gt;client@3 -->
<g id="edge45" class="edge">
<title>client@2&#45;&gt;client@3</title>
<path fill="none" stroke="darkgreen" stroke-width="3" d="M52,-491.73C52,-490.26 52,-467.49 52,-466.07"/>
</g>
<!-- client@4 -->
<g id="node45" class="node">
<title>client@4</title>
<polygon fill="none" stroke="darkgreen" stroke-width="2" points="52.5,-439 51.5,-439 51.5,-438 52.5,-438 52.5,-439"/>
</g>
<!-- client@3&#45;&gt;client@4 -->
<g id="edge46" class="edge">
<title>client@3&#45;&gt;client@4</title>
<path fill="none" stroke="darkgreen" stroke-width="3" d="M52,-463.93C52,-462.51 52,-440.44 52,-439.07"/>
</g>
<!-- client@5 -->
<g id="node46" class="node">
<title>client@5</title>
<polygon fill="none" stroke="darkgreen" stroke-width="2" points="52.5,-412.5 51.5,-412.5 51.5,-411.5 52.5,-411.5 52.5,-412.5"/>
</g>
<!-- client@4&#45;&gt;client@5 -->
<g id="edge47" class="edge">
<title>client@4&#45;&gt;client@5</title>
<path fill="none" stroke="darkgreen" stroke-width="3" d="M52,-437.93C52,-436.51 52,-414.44 52,-413.07"/>
</g>
<!-- client@6 -->
<g id="node47" class="node">
<title>client@6</title>
<polygon fill="none" stroke="darkgreen" stroke-width="2" points="52.5,-386 51.5,-386 51.5,-385 52.5,-385 52.5,-386"/>
</g>
<!-- client@5&#45;&gt;client@6 -->
<g id="edge48" class="edge">
<title>client@5&#45;&gt;client@6</title>
<path fill="none" stroke="darkgreen" stroke-width="3" d="M52,-410.93C52,-409.51 52,-387.44 52,-386.07"/>
</g>
<!-- client@7 -->
<g id="node48" class="node">
<title>client@7</title>
<polygon fill="none" stroke="darkgreen" stroke-width="2" points="52.5,-359.5 51.5,-359.5 51.5,-358.5 52.5,-358.5 52.5,-359.5"/>
</g>
<!-- client@6&#45;&gt;client@7 -->
<g id="edge49" class="edge">
<title>client@6&#45;&gt;client@7</title>
<path fill="none" stroke="darkgreen" stroke-width="3" d="M52,-384.93C52,-383.51 52,-361.44 52,-360.07"/>
</g>
<!-- client@8 -->
<g id="node49" class="node">
<title>client@8</title>
<polygon fill="none" stroke="darkgreen" stroke-width="2" points="52.5,-333 51.5,-333 51.5,-332 52.5,-332 52.5,-333"/>
</g>
<!-- client@7&#45;&gt;client@8 -->
<g id="edge50" class="edge">
<title>client@7&#45;&gt;client@8</title>
<path fill="none" stroke="darkgreen" stroke-width="3" d="M52,-357.93C52,-356.51 52,-334.44 52,-333.07"/>
</g>
<!-- client@9 -->
<g id="node50" class="node">
<title>client@9</title>
<polygon fill="none" stroke="darkgreen" stroke-width="2" points="52.5,-306.5 51.5,-306.5 51.5,-305.5 52.5,-305.5 52.5,-306.5"/>
</g>
<!-- client@8&#45;&gt;client@9 -->
<g id="edge51" class="edge">
<title>client@8&#45;&gt;client@9</title>
<path fill="none" stroke="darkgreen" stroke-width="3" d="M52,-331.93C52,-330.51 52,-308.44 52,-307.07"/>
</g>
<!-- client@10 -->
<g id="node51" class="node">
<title>client@10</title>
<polygon fill="none" stroke="darkgreen" stroke-width="2" points="52.5,-280 51.5,-280 51.5,-279 52.5,-279 52.5,-280"/>
</g>
<!-- client@9&#45;&gt;client@10 -->
<g id="edge52" class="edge">
<title>client@9&#45;&gt;client@10</title>
<path fill="none" stroke="darkgreen" stroke-width="3" d="M52,-304.93C52,-303.51 52,-281.44 52,-280.07"/>
</g>
<!-- client@11 -->
<g id="node52" class="node">
<title>client@11</title>
<polygon fill="none" stroke="darkgreen" stroke-width="2" points="52.5,-253.5 51.5,-253.5 51.5,-252.5 52.5,-252.5 52.5,-253.5"/>
</g>
<!-- client@10&#45;&gt;client@11 -->
<g id="edge53" class="edge">
<title>client@10&#45;&gt;client@11</title>
<path fill="none" stroke="darkgreen" stroke-width="3" d="M52,-278.93C52,-277.51 52,-255.44 52,-254.07"/>
</g>
<!-- client@12 -->
<g id="node53" class="node">
<title>client@12</title>
<polygon fill="none" stroke="darkgreen" stroke-width="2" points="52.5,-227 51.5,-227 51.5,-226 52.5,-226 52.5,-227"/>
</g>
<!-- client@11&#45;&gt;client@12 -->
<g id="edge54" class="edge">
<title>client@11&#45;&gt;client@12</title>
<path fill="none" stroke="darkgreen" stroke-width="3" d="M52,-251.93C52,-250.51 52,-228.44 52,-227.07"/>
</g>
<!-- client@13 -->
<g id="node54" class="node">
<title>client@13</title>
<polygon fill="none" stroke="darkgreen" stroke-width="2" points="52.5,-200.5 51.5,-200.5 51.5,-199.5 52.5,-199.5 52.5,-200.5"/>
</g>
<!-- client@12&#45;&gt;client@13 -->
<g id="edge55" class="edge">
<title>client@12&#45;&gt;client@13</title>
<path fill="none" stroke="darkgreen" stroke-width="3" d="M52,-225.93C52,-224.51 52,-202.44 52,-201.07"/>
</g>
<!-- client@14 -->
<g id="node55" class="node">
<title>client@14</title>
<polygon fill="none" stroke="darkgreen" stroke-width="2" points="52.5,-174 51.5,-174 51.5,-173 52.5,-173 52.5,-174"/>
</g>
<!-- client@13&#45;&gt;client@14 -->
<g id="edge56" class="edge">
<title>client@13&#45;&gt;client@14</title>
<path fill="none" stroke="darkgreen" stroke-width="3" d="M52,-198.93C52,-197.51 52,-175.44 52,-174.07"/>
</g>
<!-- client@15 -->
<g id="node56" class="node">
<title>client@15</title>
<polygon fill="none" stroke="darkgreen" stroke-width="2" points="52.5,-147.5 51.5,-147.5 51.5,-146.5 52.5,-146.5 52.5,-147.5"/>
</g>
<!-- client@14&#45;&gt;client@15 -->
<g id="edge57" class="edge">
<title>client@14&#45;&gt;client@15</title>
<path fill="none" stroke="darkgreen" stroke-width="3" d="M52,-172.93C52,-171.51 52,-149.44 52,-148.07"/>
</g>
<!-- client@16 -->
<g id="node57" class="node">
<title>client@16</title>
<polygon fill="none" stroke="darkgreen" stroke-width="2" points="52.5,-121 51.5,-121 51.5,-120 52.5,-120 52.5,-121"/>
</g>
<!-- client@15&#45;&gt;client@16 -->
<g id="edge58" class="edge">
<title>client@15&#45;&gt;client@16</title>
<path fill="none" stroke="darkgreen" stroke-width="3" d="M52,-145.93C52,-144.51 52,-122.44 52,-121.07"/>
</g>
<!-- client@17 -->
<g id="node58" class="node">
<title>client@17</title>
<polygon fill="none" stroke="darkgreen" stroke-width="2" points="52.5,-94.5 51.5,-94.5 51.5,-93.5 52.5,-93.5 52.5,-94.5"/>
</g>
<!-- client@16&#45;&gt;client@17 -->
<g id="edge59" class="edge">
<title>client@16&#45;&gt;client@17</title>
<path fill="none" stroke="darkgreen" stroke-width="3" d="M52,-119.93C52,-118.51 52,-96.44 52,-95.07"/>
</g>
<!-- client@18 -->
<g id="node59" class="node">
<title>client@18</title>
<polygon fill="none" stroke="darkgreen" stroke-width="2" points="52.5,-68 51.5,-68 51.5,-67 52.5,-67 52.5,-68"/>
</g>
<!-- client@17&#45;&gt;client@18 -->
<g id="edge60" class="edge">
<title>client@17&#45;&gt;client@18</title>
<path fill="none" stroke="darkgreen" stroke-width="3" d="M52,-92.93C52,-91.51 52,-69.44 52,-68.07"/>
</g>
<!-- client&#45;0@0 -->
<g id="node60" class="node">
<title>client&#45;0@0</title>
<polygon fill="none" stroke="darkgreen" stroke-width="2" points="207.5,-548.9 206.5,-548.9 206.5,-547.9 207.5,-547.9 207.5,-548.9"/>
</g>
<!-- client&#45;0@1 -->
<g id="node61" class="node">
<title>client&#45;0@1</title>
<polygon fill="palegreen" stroke="palegreen" points="234,-538.6 180,-538.6 180,-502.6 234,-502.6 234,-538.6"/>
<text text-anchor="middle" x="207" y="-516.9" font-family="Sans-Serif" font-size="14.00">idle</text>
</g>
<!-- client&#45;0@0&#45;&gt;client&#45;0@1 -->
<g id="edge61" class="edge">
<title>client&#45;0@0&#45;&gt;client&#45;0@1</title>
<path fill="none" stroke="darkgreen" stroke-width="3" d="M207,-547.33C207,-546.77 207,-543.15 207,-538.8"/>
</g>
<!-- client&#45;0@2 -->
<g id="node62" class="node">
<title>client&#45;0@2</title>
<polygon fill="none" stroke="#0063cd" stroke-width="4" points="207.5,-493.3 206.5,-493.3 206.5,-492.3 207.5,-492.3 207.5,-493.3"/>
</g>
<!-- client&#45;0@1&#45;&gt;client&#45;0@2 -->
<g id="edge64" class="edge">
<title>client&#45;0@1&#45;&gt;client&#45;0@2</title>
<path fill="none" stroke="darkgreen" stroke-width="3" d="M207,-502.53C207,-498.04 207,-494.3 207,-493.85"/>
</g>
<!-- client&#45;0@2&#45;&gt;message&#45;0&#45;3 -->
<g id="edge62" class="edge">
<title>client&#45;0@2:c&#45;&gt;message&#45;0&#45;3:c</title>
<path fill="none" stroke="mediumblue" stroke-width="3" d="M207.06,-491.8C210.33,-491.53 351.97,-480 444.77,-472.45"/>
<polygon fill="mediumblue" stroke="mediumblue" stroke-width="3" points="445.31,-475.92 454.99,-471.62 444.74,-468.94 445.31,-475.92"/>
</g>
<!-- client&#45;0@3 -->
<g id="node64" class="node">
<title>client&#45;0@3</title>
<polygon fill="palegreen" stroke="palegreen" points="236.5,-483 177.5,-483 177.5,-447 236.5,-447 236.5,-483"/>
<text text-anchor="middle" x="207" y="-461.3" font-family="Sans-Serif" font-size="14.00">wait / 1</text>
</g>
<!-- client&#45;0@2&#45;&gt;client&#45;0@3 -->
<g id="edge65" class="edge">
<title>client&#45;0@2&#45;&gt;client&#45;0@3</title>
<path fill="none" stroke="yellowgreen" stroke-width="3" d="M207,-491.73C207,-491.17 207,-487.55 207,-483.2"/>
</g>
<!-- client&#45;0&#45;time&#45;1 -->
<g id="node63" class="node">
<title>client&#45;0&#45;time&#45;1</title>
<polygon fill="paleturquoise" stroke="paleturquoise" points="162,-538.6 108,-538.6 108,-502.6 162,-502.6 162,-538.6"/>
<text text-anchor="middle" x="135" y="-516.9" font-family="Sans-Serif" font-size="14.00">time</text>
</g>
<!-- client&#45;0&#45;time&#45;1&#45;&gt;client&#45;0@2 -->
<g id="edge63" class="edge">
<title>client&#45;0&#45;time&#45;1:c&#45;&gt;client&#45;0@2:c</title>
<path fill="none" stroke="mediumblue" stroke-width="3" d="M162.28,-506.02C165.19,-504.78 168.13,-503.62 171,-502.6 186.04,-497.27 205.73,-494.01 206.94,-493.81"/>
</g>
<!-- client&#45;0@4 -->
<g id="node65" class="node">
<title>client&#45;0@4</title>
<polygon fill="none" stroke="#0063cd" stroke-width="4" points="207.5,-439 206.5,-439 206.5,-438 207.5,-438 207.5,-439"/>
</g>
<!-- client&#45;0@3&#45;&gt;client&#45;0@4 -->
<g id="edge68" class="edge">
<title>client&#45;0@3&#45;&gt;client&#45;0@4</title>
<path fill="none" stroke="yellowgreen" stroke-width="3" d="M207,-446.91C207,-443.06 207,-439.89 207,-439.16"/>
</g>
<!-- client&#45;0@4&#45;&gt;message&#45;1&#45;5 -->
<g id="edge66" class="edge">
<title>client&#45;0@4:c&#45;&gt;message&#45;1&#45;5:c</title>
<path fill="none" stroke="mediumblue" stroke-width="3" d="M207.17,-437.98C211.31,-437.53 292.3,-428.69 356.77,-421.65"/>
<polygon fill="mediumblue" stroke="mediumblue" stroke-width="3" points="357.4,-425.1 366.96,-420.54 356.64,-418.14 357.4,-425.1"/>
</g>
<!-- client&#45;0@5 -->
<g id="node67" class="node">
<title>client&#45;0@5</title>
<polygon fill="palegreen" stroke="palegreen" points="236.5,-430 177.5,-430 177.5,-394 236.5,-394 236.5,-430"/>
<text text-anchor="middle" x="207" y="-408.3" font-family="Sans-Serif" font-size="14.00">wait / 2</text>
</g>
<!-- client&#45;0@4&#45;&gt;client&#45;0@5 -->
<g id="edge69" class="edge">
<title>client&#45;0@4&#45;&gt;client&#45;0@5</title>
<path fill="none" stroke="darkgreen" stroke-width="3" d="M207,-437.93C207,-437.41 207,-434.18 207,-430.2"/>
</g>
<!-- client&#45;0&#45;time&#45;3 -->
<g id="node66" class="node">
<title>client&#45;0&#45;time&#45;3</title>
<polygon fill="paleturquoise" stroke="paleturquoise" points="159,-483 105,-483 105,-447 159,-447 159,-483"/>
<text text-anchor="middle" x="132" y="-461.3" font-family="Sans-Serif" font-size="14.00">time</text>
</g>
<!-- client&#45;0&#45;time&#45;3&#45;&gt;client&#45;0@4 -->
<g id="edge67" class="edge">
<title>client&#45;0&#45;time&#45;3:c&#45;&gt;client&#45;0@4:c</title>
<path fill="none" stroke="mediumblue" stroke-width="3" d="M159.24,-450.31C162.16,-449.1 165.11,-447.96 168,-447 184.26,-441.58 205.62,-439.15 206.94,-439.01"/>
</g>
<!-- client&#45;0@6 -->
<g id="node68" class="node">
<title>client&#45;0@6</title>
<polygon fill="none" stroke="darkgreen" stroke-width="2" points="207.5,-386 206.5,-386 206.5,-385 207.5,-385 207.5,-386"/>
</g>
<!-- client&#45;0@5&#45;&gt;client&#45;0@6 -->
<g id="edge70" class="edge">
<title>client&#45;0@5&#45;&gt;client&#45;0@6</title>
<path fill="none" stroke="darkgreen" stroke-width="3" d="M207,-393.91C207,-390.06 207,-386.89 207,-386.16"/>
</g>
<!-- client&#45;0@7 -->
<g id="node69" class="node">
<title>client&#45;0@7</title>
<polygon fill="none" stroke="darkgreen" stroke-width="2" points="207.5,-359.5 206.5,-359.5 206.5,-358.5 207.5,-358.5 207.5,-359.5"/>
</g>
<!-- client&#45;0@6&#45;&gt;client&#45;0@7 -->
<g id="edge71" class="edge">
<title>client&#45;0@6&#45;&gt;client&#45;0@7</title>
<path fill="none" stroke="darkgreen" stroke-width="3" d="M207,-384.93C207,-383.51 207,-361.44 207,-360.07"/>
</g>
<!-- client&#45;0@8 -->
<g id="node70" class="node">
<title>client&#45;0@8</title>
<polygon fill="none" stroke="darkgreen" stroke-width="2" points="207.5,-333 206.5,-333 206.5,-332 207.5,-332 207.5,-333"/>
</g>
<!-- client&#45;0@7&#45;&gt;client&#45;0@8 -->
<g id="edge72" class="edge">
<title>client&#45;0@7&#45;&gt;client&#45;0@8</title>
<path fill="none" stroke="darkgreen" stroke-width="3" d="M207,-357.93C207,-356.51 207,-334.44 207,-333.07"/>
</g>
<!-- client&#45;0@9 -->
<g id="node71" class="node">
<title>client&#45;0@9</title>
<polygon fill="none" stroke="darkgreen" stroke-width="2" points="207.5,-306.5 206.5,-306.5 206.5,-305.5 207.5,-305.5 207.5,-306.5"/>
</g>
<!-- client&#45;0@8&#45;&gt;client&#45;0@9 -->
<g id="edge73" class="edge">
<title>client&#45;0@8&#45;&gt;client&#45;0@9</title>
<path fill="none" stroke="darkgreen" stroke-width="3" d="M207,-331.93C207,-330.51 207,-308.44 207,-307.07"/>
</g>
<!-- client&#45;0@10 -->
<g id="node72" class="node">
<title>client&#45;0@10</title>
<polygon fill="none" stroke="darkgreen" stroke-width="2" points="207.5,-280 206.5,-280 206.5,-279 207.5,-279 207.5,-280"/>
</g>
<!-- client&#45;0@9&#45;&gt;client&#45;0@10 -->
<g id="edge74" class="edge">
<title>client&#45;0@9&#45;&gt;client&#45;0@10</title>
<path fill="none" stroke="darkgreen" stroke-width="3" d="M207,-304.93C207,-303.51 207,-281.44 207,-280.07"/>
</g>
<!-- client&#45;0@11 -->
<g id="node73" class="node">
<title>client&#45;0@11</title>
<polygon fill="none" stroke="darkgreen" stroke-width="2" points="207.5,-253.5 206.5,-253.5 206.5,-252.5 207.5,-252.5 207.5,-253.5"/>
</g>
<!-- client&#45;0@10&#45;&gt;client&#45;0@11 -->
<g id="edge75" class="edge">
<title>client&#45;0@10&#45;&gt;client&#45;0@11</title>
<path fill="none" stroke="darkgreen" stroke-width="3" d="M207,-278.93C207,-277.51 207,-255.44 207,-254.07"/>
</g>
<!-- client&#45;0@12 -->
<g id="node74" class="node">
<title>client&#45;0@12</title>
<polygon fill="none" stroke="darkgreen" stroke-width="2" points="207.5,-227 206.5,-227 206.5,-226 207.5,-226 207.5,-227"/>
</g>
<!-- client&#45;0@11&#45;&gt;client&#45;0@12 -->
<g id="edge76" class="edge">
<title>client&#45;0@11&#45;&gt;client&#45;0@12</title>
<path fill="none" stroke="darkgreen" stroke-width="3" d="M207,-251.93C207,-250.51 207,-228.44 207,-227.07"/>
</g>
<!-- client&#45;0@13 -->
<g id="node75" class="node">
<title>client&#45;0@13</title>
<polygon fill="none" stroke="darkgreen" stroke-width="2" points="207.5,-200.5 206.5,-200.5 206.5,-199.5 207.5,-199.5 207.5,-200.5"/>
</g>
<!-- client&#45;0@12&#45;&gt;client&#45;0@13 -->
<g id="edge77" class="edge">
<title>client&#45;0@12&#45;&gt;client&#45;0@13</title>
<path fill="none" stroke="darkgreen" stroke-width="3" d="M207,-225.93C207,-224.51 207,-202.44 207,-201.07"/>
</g>
<!-- client&#45;0@13&#45;&gt;client&#45;0@14 -->
<g id="edge79" class="edge">
<title>client&#45;0@13&#45;&gt;client&#45;0@14</title>
<path fill="none" stroke="darkgreen" stroke-width="3" d="M207,-198.93C207,-197.51 207,-175.44 207,-174.07"/>
</g>
<!-- client&#45;0@15 -->
<g id="node77" class="node">
<title>client&#45;0@15</title>
<polygon fill="palegreen" stroke="palegreen" points="236.5,-165 177.5,-165 177.5,-129 236.5,-129 236.5,-165"/>
<text text-anchor="middle" x="207" y="-143.3" font-family="Sans-Serif" font-size="14.00">wait / 1</text>
</g>
<!-- client&#45;0@14&#45;&gt;client&#45;0@15 -->
<g id="edge80" class="edge">
<title>client&#45;0@14&#45;&gt;client&#45;0@15</title>
<path fill="none" stroke="yellowgreen" stroke-width="3" d="M207,-172.93C207,-172.41 207,-169.18 207,-165.2"/>
</g>
<!-- client&#45;0@15&#45;&gt;client&#45;0@16 -->
<g id="edge82" class="edge">
<title>client&#45;0@15&#45;&gt;client&#45;0@16</title>
<path fill="none" stroke="yellowgreen" stroke-width="3" d="M207,-128.91C207,-125.06 207,-121.89 207,-121.16"/>
</g>
<!-- client&#45;0@17 -->
<g id="node79" class="node">
<title>client&#45;0@17</title>
<polygon fill="palegreen" stroke="palegreen" points="234,-112 180,-112 180,-76 234,-76 234,-112"/>
<text text-anchor="middle" x="207" y="-90.3" font-family="Sans-Serif" font-size="14.00">idle</text>
</g>
<!-- client&#45;0@16&#45;&gt;client&#45;0@17 -->
<g id="edge83" class="edge">
<title>client&#45;0@16&#45;&gt;client&#45;0@17</title>
<path fill="none" stroke="darkgreen" stroke-width="3" d="M207,-119.93C207,-119.41 207,-116.18 207,-112.2"/>
</g>
<!-- client&#45;0@18 -->
<g id="node80" class="node">
<title>client&#45;0@18</title>
<polygon fill="none" stroke="darkgreen" stroke-width="2" points="207.5,-68 206.5,-68 206.5,-67 207.5,-67 207.5,-68"/>
</g>
<!-- client&#45;0@17&#45;&gt;client&#45;0@18 -->
<g id="edge84" class="edge">
<title>client&#45;0@17&#45;&gt;client&#45;0@18</title>
<path fill="none" stroke="darkgreen" stroke-width="3" d="M207,-75.91C207,-72.06 207,-68.89 207,-68.16"/>
</g>
</g>
</svg>
